<svg version="1.1" xmlns="http://www.w3.org/2000/svg" xmlns:xlink="http://www.w3.org/1999/xlink" width="37.94642" height="38.89406" viewBox="0,0,37.94642,38.89406"><g transform="translate(-285.34469,-144.3817)"><g data-paper-data="{&quot;isPaintingLayer&quot;:true}" fill-rule="nonzero" stroke="none" stroke-width="0.5" stroke-linecap="butt" stroke-linejoin="miter" stroke-miterlimit="10" stroke-dasharray="" stroke-dashoffset="0" style="mix-blend-mode: normal"><path d="M293.44214,149.14577c0.08922,-1.60603 3.9845,-2.04142 4.8328,-1.85291c0.75462,0.16769 1.25134,1.92124 1.8365,1.41611c1.75936,-1.51872 5.67782,-7.59994 7.73983,-2.00694c0.76988,2.08822 -1.74404,3.74638 -3.07478,4.93745c-1.56387,1.39973 -3.50963,3.65216 -5.2831,4.65304c-1.08109,0.61012 -1.94342,-0.13464 -2.79303,-0.57446c-0.09874,0.01186 -0.19925,0.01796 -0.30118,0.01796c-0.37037,0 -0.72193,-0.08054 -1.03812,-0.22506c-0.15532,0.05608 -0.3051,0.10735 -0.44952,0.15399c0.51376,0.45787 0.83731,1.12464 0.83731,1.86697c0,0.09767 -0.0056,0.19403 -0.0165,0.28878c3.02606,3.93917 4.14552,8.28868 1.05827,14.2355c-0.10813,0.20828 3.41282,4.15414 0.93688,6.63008c-4.60951,4.60951 -3.73133,-2.50192 -4.95849,-3.64193c-1.34925,-1.25343 -3.63563,2.63183 -6.01342,1.00936c-1.7524,-1.19574 -0.65959,-3.96123 -0.73223,-5.63882c-0.10106,-2.33383 -1.06656,-5.85203 -0.50347,-8.10441c0.39156,-1.56625 2.85023,-2.80749 3.88906,-3.90142c0.26223,-0.27613 1.20795,-2.04345 2.21495,-2.92658c-0.78847,-1.15042 0.41653,-3.80072 1.05692,-5.32164z" fill="#41a00d"/><path d="M316.67244,152.64612c1.5204,0.0724 7.52534,3.16603 6.50203,5.22331c-1.09011,2.19157 -4.14087,2.00432 -5.60408,3.61411c-1.65541,1.82124 -2.43334,4.57504 -4.79495,6.39513c-0.81055,0.62469 -1.778,1.16924 -2.79585,1.50267c0.69741,0.07679 1.39408,0.21394 2.07171,0.40452c5.39252,1.51665 3.23702,14.01352 -1.37672,12.86009l-0.06876,0.02456c-1.08453,-0.54226 -2.25045,0.9909 -3.67077,0.51075c-0.8205,-0.27738 -4.45612,-4.02146 -5.27713,-4.92457c-1.08568,-1.19424 -0.31735,-3.64168 0.20806,-4.93573c0.86824,-2.13842 2.62919,-3.32619 4.6929,-3.78592c-0.08057,-0.02374 -0.16071,-0.0498 -0.24034,-0.07824c-1.59297,-0.56892 -1.67604,-1.56293 -2.07091,-2.83233c-0.10349,-0.10098 -0.19826,-0.21085 -0.28306,-0.3284c-0.65698,0.34863 -0.91597,3.75062 -2.96449,2.58003c-3.03645,-1.73512 -2.23607,-3.44347 -2.06097,-7.30361c0.35284,-7.7784 10.84412,-10.53341 17.47717,-8.87514z" fill="#41a00d"/><path d="M305.90662,167.81213c1.01449,3.04348 0.7438,8.04931 -1.48644,10.55404c-2.53148,2.84305 -8.49094,2.25871 -10.03309,-1.28253c-1.62836,-3.73919 1.48458,-9.95307 5.23535,-11.71439c0.44996,-0.66047 1.20812,-1.09416 2.06757,-1.09416c0.97695,0 1.82302,0.56038 2.23431,1.37725c0.64827,0.46043 1.26772,1.14419 1.83531,2.09017z" fill="#398d0b"/><path d="M294.15752,157.5154c0.20713,-0.23446 0.25709,-1.97928 0.4742,-2.46777c0.71854,-1.61671 4.25377,-5.43748 5.88468,-6.12522c0.79221,-0.33407 1.75523,0.52491 2.56775,0.24381c1.99833,-0.69134 4.74787,-2.19759 6.17049,0.29199c1.46531,2.56429 -1.85713,3.13256 -2.86469,4.60282c-4.07535,5.9469 -7.44341,5.9578 -12.78724,9.58836c-0.12467,0.0847 -0.27179,0.15546 -0.43469,0.21154c-0.29635,0.12378 -0.62162,0.19215 -0.96285,0.19215c-0.22761,0 -0.44812,-0.03042 -0.65769,-0.08741c-1.13115,-0.19118 -2.15682,-0.92764 -1.84146,-2.34675c-0.00057,-0.02188 -0.00085,-0.04382 -0.00085,-0.06584c0,-1.19989 0.84532,-2.20235 1.97293,-2.44434c0.78717,-0.38222 1.67608,-0.684 2.47943,-1.59335z" fill="#398d0b"/></g></g></svg>