<svg version="1.1" xmlns="http://www.w3.org/2000/svg" xmlns:xlink="http://www.w3.org/1999/xlink" width="24.30774" height="24.91754" viewBox="0,0,24.30774,24.91754"><g transform="translate(-305.22964,-177.02678)"><g data-paper-data="{&quot;isPaintingLayer&quot;:true}" fill-rule="nonzero" stroke="none" stroke-width="0" stroke-linecap="butt" stroke-linejoin="miter" stroke-miterlimit="10" stroke-dasharray="" stroke-dashoffset="0" style="mix-blend-mode: normal"><path d="M309.78053,177.20067c2.32991,-0.00313 5.28086,0.26262 7.64159,0.70593c0.05533,0.11707 0.13666,0.23532 0.24827,0.35493c2.29511,1.76475 7.08617,2.83653 5.59582,6.29572c-0.40192,2.86815 3.68393,4.72936 6.27117,4.74988c-1.86503,1.78548 -4.43087,2.63657 -6.24259,4.41218c-0.67118,0.55872 -1.70631,1.05685 -1.5018,2.10859c0.20984,1.07916 1.46477,1.13873 1.72617,1.89568c0.33682,0.97533 -0.17844,2.9338 -0.28655,4.22074c-2.99137,-0.03109 -5.5338,-0.75006 -8.28262,-1.96538c-1.68572,-0.56833 -0.1748,-3.32453 -0.50164,-4.66275c-0.39804,-1.62976 -2.77072,-2.12941 -3.9469,-2.91352c-0.64147,-0.42339 -1.39494,-0.75472 -2.2124,-1.0097c-1.20096,-2.46918 -3.07569,-4.76703 -3.0593,-7.44103c0.33695,-1.91747 2.9739,-5.12911 2.92386,-6.92516c0.64364,0.0589 1.22969,0.10026 1.62691,0.17389z" fill="#5f4b29"/><path d="M323.32711,201.16713c-0.04018,0.2752 -0.07438,0.53781 -0.09448,0.77719c-0.74654,-0.00776 -1.46513,-0.05836 -2.16593,-0.14883c0.76322,-0.23984 1.52484,-0.4572 2.26042,-0.62836z" fill="#46371e"/><path d="M312.59064,189.29815c-1.71981,-1.8876 -0.03774,0.22826 1.9151,-1.9151c1.95283,-2.14336 2.64517,-2.79924 4.46856,-0.79796c1.8234,2.00128 1.00175,8.06339 -0.95755,10.21385c-1.9593,2.15046 -3.70629,-5.6132 -5.42611,-7.5008z" fill="#a4a097"/></g></g></svg>