<svg version="1.1" xmlns="http://www.w3.org/2000/svg" xmlns:xlink="http://www.w3.org/1999/xlink" width="18.65049" height="21.6342" viewBox="0,0,18.65049,21.6342"><g transform="translate(-289.7644,-191.14782)"><g data-paper-data="{&quot;isPaintingLayer&quot;:true}" fill-rule="nonzero" stroke="none" stroke-width="0" stroke-linecap="butt" stroke-linejoin="miter" stroke-miterlimit="10" stroke-dasharray="" stroke-dashoffset="0" style="mix-blend-mode: normal"><path d="M289.7644,212.78202v-18.69589c0.20468,-0.05445 0.40804,-0.09156 0.60275,-0.10606c3.45492,-0.30358 6.51595,-2.4208 9.95052,-2.72841c2.17687,-0.19608 5.18332,-0.16533 7.61122,0.54269c0.18218,0.38969 0.34724,0.78417 0.486,1.18564c-0.0217,3.09171 -1.52182,6.09355 -2.88135,8.82045c-1.41584,3.76789 -3.26181,4.61972 -6.98949,5.73803c-2.83665,0.85321 -4.6609,2.93314 -6.26953,5.24355z" fill="#5f4b29"/><path d="M290.08985,212.75969l0.15959,-12.28854l13.24609,1.43632c0,0 0.3378,0.49522 1.55503,1.03102c-1.36014,2.81977 -3.18742,3.60424 -6.50652,4.59998c-2.82271,0.84902 -4.64294,2.91273 -6.2458,5.20951z" fill="#46371e"/><path d="M294.66374,193.39486c-0.12053,-0.13229 -0.21965,-0.27078 -0.29909,-0.4147c0.95515,-0.34372 1.9028,-0.71894 2.8622,-1.03475c0.07728,0.18317 0.17908,0.34871 0.30954,0.4919c1.8234,2.00128 2.75726,2.15851 0.79795,4.30897c-1.9593,2.15046 -1.95079,-1.46382 -3.6706,-3.35142z" fill="#a4a097"/><path d="M290.29306,212.70125l-0.3177,-5.62219l8.4966,0.48142c-2.76068,0.85575 -4.55725,2.87946 -6.13767,5.13594z" fill-opacity="0.66275" fill="#45423d"/></g></g></svg>