<svg version="1.1" xmlns="http://www.w3.org/2000/svg" xmlns:xlink="http://www.w3.org/1999/xlink" width="140.84975" height="143.05742" viewBox="0,0,140.84975,143.05742"><defs><radialGradient cx="336.26702" cy="199.9604" r="24.99196" gradientUnits="userSpaceOnUse" id="color-1"><stop offset="0" stop-color="#ffface"/><stop offset="1" stop-color="#ffface" stop-opacity="0"/></radialGradient><radialGradient cx="302.21232" cy="201.85474" r="24.99196" gradientUnits="userSpaceOnUse" id="color-2"><stop offset="0" stop-color="#ffface"/><stop offset="1" stop-color="#ffface" stop-opacity="0"/></radialGradient><radialGradient cx="342.02549" cy="161.64439" r="24.99196" gradientUnits="userSpaceOnUse" id="color-3"><stop offset="0" stop-color="#ffface"/><stop offset="1" stop-color="#ffface" stop-opacity="0"/></radialGradient><radialGradient cx="300.58401" cy="161.07646" r="24.99196" gradientUnits="userSpaceOnUse" id="color-4"><stop offset="0" stop-color="#ffface"/><stop offset="1" stop-color="#ffface" stop-opacity="0"/></radialGradient><radialGradient cx="347.78397" cy="180.69908" r="24.99196" gradientUnits="userSpaceOnUse" id="color-5"><stop offset="0" stop-color="#ffface"/><stop offset="1" stop-color="#ffface" stop-opacity="0"/></radialGradient><radialGradient cx="292.06137" cy="179.6387" r="24.99196" gradientUnits="userSpaceOnUse" id="color-6"><stop offset="0" stop-color="#ffface"/><stop offset="1" stop-color="#ffface" stop-opacity="0"/></radialGradient><radialGradient cx="319.80946" cy="209.84905" r="24.99196" gradientUnits="userSpaceOnUse" id="color-7"><stop offset="0" stop-color="#ffface"/><stop offset="1" stop-color="#ffface" stop-opacity="0"/></radialGradient><radialGradient cx="320.71888" cy="150.67929" r="24.99195" gradientUnits="userSpaceOnUse" id="color-8"><stop offset="0" stop-color="#ffface"/><stop offset="1" stop-color="#ffface" stop-opacity="0"/></radialGradient><radialGradient cx="166.6755" cy="62.51032" r="0.00125" gradientUnits="userSpaceOnUse" id="color-9"><stop offset="0" stop-color="#ffffff" stop-opacity="0.61176"/><stop offset="1" stop-color="#ffffff" stop-opacity="0"/></radialGradient><radialGradient cx="320" cy="180" r="71.52871" gradientUnits="userSpaceOnUse" id="color-10"><stop offset="0" stop-color="#fff5a0"/><stop offset="1" stop-color="#fff5a0" stop-opacity="0"/></radialGradient><radialGradient cx="307.19624" cy="173.10567" r="24.99196" gradientUnits="userSpaceOnUse" id="color-11"><stop offset="0" stop-color="#ffface"/><stop offset="1" stop-color="#ffface" stop-opacity="0"/></radialGradient><radialGradient cx="329.18585" cy="176.38208" r="24.99195" gradientUnits="userSpaceOnUse" id="color-12"><stop offset="0" stop-color="#ffface"/><stop offset="1" stop-color="#ffface" stop-opacity="0"/></radialGradient><radialGradient cx="319.6585" cy="190.98491" r="24.99195" gradientUnits="userSpaceOnUse" id="color-13"><stop offset="0" stop-color="#ffface"/><stop offset="1" stop-color="#ffface" stop-opacity="0"/></radialGradient></defs><g transform="translate(-249.57513,-108.47129)"><g data-paper-data="{&quot;isPaintingLayer&quot;:true}" fill-rule="nonzero" stroke="none" stroke-width="0" stroke-linecap="butt" stroke-linejoin="miter" stroke-miterlimit="10" stroke-dasharray="" stroke-dashoffset="0" style="mix-blend-mode: normal"><path d="M360.8733,199.9604c0,13.80267 -11.01661,24.99196 -24.60628,24.99196c-13.58967,0 -24.60629,-11.18928 -24.60629,-24.99196c0,-13.80267 11.01661,-24.99196 24.60629,-24.99196c13.58968,0 24.60628,11.18929 24.60628,24.99196z" fill="url(#color-1)"/><path d="M326.8186,201.85474c0,13.80267 -11.01661,24.99196 -24.60628,24.99196c-13.58967,0 -24.60629,-11.18928 -24.60629,-24.99196c0,-13.80267 11.01661,-24.99196 24.60629,-24.99196c13.58968,0 24.60628,11.18929 24.60628,24.99196z" fill="url(#color-2)"/><path d="M366.63177,161.64439c0,13.80267 -11.01661,24.99196 -24.60628,24.99196c-13.58967,0 -24.60629,-11.18928 -24.60629,-24.99196c0,-13.80267 11.01661,-24.99196 24.60629,-24.99196c13.58968,0 24.60628,11.18929 24.60628,24.99196z" fill="url(#color-3)"/><path d="M325.19029,161.07646c0,13.80267 -11.01661,24.99196 -24.60628,24.99196c-13.58967,0 -24.60629,-11.18928 -24.60629,-24.99196c0,-13.80267 11.01661,-24.99196 24.60629,-24.99196c13.58968,0 24.60628,11.18929 24.60628,24.99196z" fill="url(#color-4)"/><path d="M372.39025,180.69908c0,13.80267 -11.01661,24.99196 -24.60628,24.99196c-13.58967,0 -24.60629,-11.18928 -24.60629,-24.99196c0,-13.80267 11.01661,-24.99196 24.60629,-24.99196c13.58968,0 24.60628,11.18929 24.60628,24.99196z" fill="url(#color-5)"/><path d="M316.66765,179.6387c0,13.80267 -11.01661,24.99196 -24.60628,24.99196c-13.58967,0 -24.60629,-11.18928 -24.60629,-24.99196c0,-13.80267 11.01661,-24.99196 24.60629,-24.99196c13.58968,0 24.60628,11.18929 24.60628,24.99196z" fill="url(#color-6)"/><path d="M344.41574,209.84905c0,13.80267 -11.01661,24.99196 -24.60628,24.99196c-13.58967,0 -24.60629,-11.18928 -24.60629,-24.99196c0,-13.80267 11.01661,-24.99196 24.60629,-24.99196c13.58968,0 24.60628,11.18929 24.60628,24.99196z" fill="url(#color-7)"/><path d="M345.32516,150.67929c0,13.80267 -11.0166,24.99195 -24.60628,24.99195c-13.58967,0 -24.60629,-11.18928 -24.60629,-24.99195c0,-13.80267 11.01661,-24.99196 24.60629,-24.99196c13.58968,0 24.60628,11.18929 24.60628,24.99196z" fill="url(#color-8)"/><path d="M277.73913,180c0,-23.34005 18.92084,-42.26088 42.26089,-42.26088c23.34004,0 42.26088,18.92084 42.26088,42.26089c0,23.34005 -18.92084,42.26089 -42.26088,42.26089c-23.34005,0 -42.26088,-18.92084 -42.26088,-42.26088z" fill="#ffed48"/><path d="M253.35098,125.02063v0v0z" fill="url(#color-9)"/><path d="M390.42487,180c0,39.50422 -31.53029,71.52871 -70.42487,71.52871c-38.89458,0 -70.42487,-32.02449 -70.42487,-71.52871c0,-39.50422 31.53029,-71.52871 70.42487,-71.52871c38.89458,0 70.42487,32.02449 70.42487,71.52871z" fill="url(#color-10)"/><path d="M331.80252,173.10567c0,13.80268 -11.01661,24.99196 -24.60628,24.99196c-13.58967,0 -24.60628,-11.18928 -24.60628,-24.99196c0,-13.80268 11.01661,-24.99196 24.60628,-24.99196c13.58967,0 24.60628,11.18928 24.60628,24.99196z" fill="url(#color-11)"/><path d="M353.79213,176.38208c0,13.80267 -11.0166,24.99195 -24.60628,24.99195c-13.58967,0 -24.60629,-11.18928 -24.60629,-24.99195c0,-13.80267 11.01661,-24.99196 24.60629,-24.99196c13.58968,0 24.60628,11.18929 24.60628,24.99196z" fill="url(#color-12)"/><path d="M344.26478,190.98491c0,13.80267 -11.0166,24.99195 -24.60628,24.99195c-13.58967,0 -24.60629,-11.18928 -24.60629,-24.99195c0,-13.80267 11.01661,-24.99196 24.60629,-24.99196c13.58968,0 24.60628,11.18929 24.60628,24.99196z" fill="url(#color-13)"/></g></g></svg>