<svg version="1.1" xmlns="http://www.w3.org/2000/svg" xmlns:xlink="http://www.w3.org/1999/xlink" width="21.74827" height="25.03762" viewBox="0,0,21.74827,25.03762"><g transform="translate(-310.08619,-168.02563)"><g data-paper-data="{&quot;isPaintingLayer&quot;:true}" fill-rule="nonzero" stroke="none" stroke-width="0.5" stroke-linecap="butt" stroke-linejoin="miter" stroke-miterlimit="10" stroke-dasharray="" stroke-dashoffset="0" style="mix-blend-mode: normal"><path d="M331.83446,177.00669c0,5.80509 -3.54211,6.95713 -8.75348,6.79591c-2.17893,-0.06741 -5.2892,0.18253 -5.41112,-2.78639c-0.17363,-4.22812 2.31415,-7.84747 6.04712,-7.68421c0.23641,-0.07412 0.48793,-0.11407 0.74879,-0.11407c0.70898,0 1.34903,0.29512 1.80401,0.76923c1.87581,0.8604 5.32468,-1.98183 5.48011,2.68125z" fill="#41a00d"/><path d="M321.78984,172.17703c0.29215,1.46073 -0.66449,4.01672 -0.76158,5.56865c-0.27205,4.34852 1.44835,8.98552 -1.82139,13.22132c-3.863,5.00435 -8.30825,0.03328 -8.99721,-4.33524c-0.8627,-5.47019 2.98055,-9.01285 5.77281,-13.24002c0.07474,-0.11315 -0.25503,-0.52852 -0.61243,-1.01738c-0.23099,-0.2323 -0.41663,-0.50975 -0.54252,-0.81795c-0.20122,-0.36333 -0.31047,-0.70062 -0.18461,-0.92499c-0.00005,-0.00659 -0.00008,-0.01319 -0.00008,-0.01979c0,-1.38071 1.11929,-2.5 2.5,-2.5c1.20363,-0.71554 4.48296,3.2452 4.647,4.06539z" fill="#2e7109"/></g></g></svg>