<svg version="1.1" xmlns="http://www.w3.org/2000/svg" xmlns:xlink="http://www.w3.org/1999/xlink" width="73.48271" height="116.57352" viewBox="0,0,73.48271,116.57352"><g transform="translate(-270.70468,-124.63557)"><g data-paper-data="{&quot;isPaintingLayer&quot;:true}" fill-rule="nonzero" stroke-linecap="butt" stroke-linejoin="miter" stroke-miterlimit="10" stroke-dasharray="" stroke-dashoffset="0" style="mix-blend-mode: normal"><g stroke="none" stroke-width="0.5"><path d="M289.36356,222.28659c-1.64416,1.16994 -3.50944,2.25164 -5.3226,3.17575c-0.1413,0.07201 -0.28232,0.14437 -0.42309,0.21704c-0.14583,-0.28122 -0.29075,-0.56275 -0.43445,-0.8447c-0.70272,-1.3788 -1.40545,-2.7576 -2.10817,-4.13639c0.08397,-0.0422 0.16775,-0.0845 0.25137,-0.1269c1.86298,-1.26281 4.15928,-1.93094 5.98415,-3.22788c1.00874,-0.71691 1.93007,-1.64666 2.95885,-2.35247c0.40358,1.50296 1.55317,2.91768 2.22921,4.24411c0.12831,0.25176 0.26002,0.49971 0.40467,0.7388c-1.07701,0.91814 -2.3782,1.48599 -3.53995,2.31265z" fill="#b0c1ca"/><path d="M287.32275,217.25543c0.94879,-0.65335 2.13648,-1.09552 3.16483,-1.61853c0.13612,0.33877 0.30221,0.6729 0.48354,1.00239c-0.97502,0.49317 -2.12539,0.90735 -3.01599,1.53168c-2.02469,1.41936 -3.82768,2.99221 -6.06188,4.13228c-0.16834,-0.3303 -0.33668,-0.66058 -0.50502,-0.99088c2.18553,-1.12588 3.93659,-2.68116 5.9345,-4.05694z" fill="#c7d7e0"/><path d="M287.51047,218.13671c0.90058,-0.5685 2.27472,-0.68771 2.89016,-1.58255c0,0 0.1563,-0.21179 0.39955,-0.2365c0.15382,0.30098 0.32403,0.59817 0.49974,0.89155c-0.00257,0.00376 -0.00402,0.00571 -0.00402,0.00571c-0.82645,1.07149 -2.08648,1.18269 -3.1932,1.8638c-2.02287,1.24492 -3.6035,3.05023 -5.69991,4.22438c-0.16834,-0.33029 -0.33667,-0.66057 -0.50501,-0.99087c2.0608,-1.15086 3.63653,-2.92808 5.61265,-4.17551z" fill="#cdd0e0"/></g><g stroke="none" stroke-width="0.5"><path d="M294.62341,236.24253c-1.6647,1.06654 -3.39695,2.08371 -5.14938,3.0404c-0.24258,-1.53131 -0.68624,-3.02236 -1.26341,-4.4812c3.03002,-1.50696 6.07157,-2.95481 8.76211,-4.9746c0.34664,1.41953 0.64381,2.62316 1.17896,3.92205c-1.28564,0.66352 -2.28087,1.69415 -3.52828,2.49335z" fill="#b0c1ca"/><path d="M296.97158,230.5556c0,0 0.06381,-0.04594 0.16073,-0.0793c0.09575,0.38503 0.19115,0.75663 0.29269,1.12187c-2.69923,1.88701 -5.88673,2.99765 -8.6709,4.71455c-0.11502,-0.35673 -0.23911,-0.71144 -0.37134,-1.06423c2.7934,-1.65982 5.9343,-2.78168 8.58882,-4.69289z" fill="#c7d7e0"/><path d="M295.94925,233.01968c0.25263,0.49569 -0.24305,0.74832 -0.24305,0.74832l-0.2288,0.11661c-0.75862,0.38664 -1.44613,0.71868 -2.28023,0.91293c0,0 -0.54217,0.12487 -0.66703,-0.41729c-0.12486,-0.54216 0.41729,-0.66703 0.41729,-0.66703c0.74525,-0.16945 1.34693,-0.47455 2.0247,-0.81998l0.2288,-0.11661c0,0 0.49569,-0.25263 0.74832,0.24306z" fill="#cdd0e0"/></g><path d="M313.0325,232.98904c-0.15193,0.14145 -0.29995,0.17342 -0.42583,0.15793l-0.16279,0.04813c-0.89477,0.45603 -1.78954,0.91207 -2.68431,1.3681c-0.64458,0.32852 -1.18531,0.64499 -1.91405,0.76005c-1.49076,0.23537 -2.62759,-0.19453 -3.52751,-1.00269l-0.13157,0.06705c-1.67791,0.85517 -3.89586,2.54121 -5.34794,0.59178c-0.21362,-0.41678 -0.40044,-0.83459 -0.57444,-1.25332c-0.05171,0.02015 -0.10291,0.04092 -0.15362,0.06231c-0.56475,-1.34532 -0.87238,-2.57649 -1.2074,-4.10233c0,0 -0.04936,-0.21432 -0.25652,-0.19462c-0.07951,-0.41091 -0.08472,-0.82785 0.05449,-1.22642c0.5588,-1.59996 2.16237,-2.35588 3.48883,-3.22159c-0.51349,-1.72021 -1.31935,-3.36015 -2.16104,-4.98818c-0.1039,0.07926 -0.20876,0.10873 -0.20876,0.10873l-0.35389,0.09727c-1.83117,0.6855 -3.43594,1.19155 -4.58973,-0.47037c-0.02893,0.02987 -0.0581,0.05937 -0.08749,0.08851c-0.11805,-0.20308 -0.22679,-0.41242 -0.33364,-0.62206c-0.66318,-1.30121 -1.90536,-2.77884 -2.23881,-4.29733c0.04238,-0.02534 0.08499,-0.05022 0.1278,-0.07462c-0.10299,-0.35326 -0.17048,-0.70272 -0.18803,-1.04184c0.00555,-0.04275 0.01207,-0.0855 0.01963,-0.12825c0,0 0.01453,-0.08358 -0.02202,-0.16183c0.0164,-0.43974 0.12734,-0.8581 0.36618,-1.23998c0.81145,-1.29742 2.59507,-1.87142 3.90643,-2.53271c0.71828,-2.19582 3.83376,-3.54576 5.76291,-4.21027c0,0 0.42908,-0.14672 0.64493,0.21216c0.27661,0.18009 0.2219,0.54481 0.2219,0.54481c-0.38808,2.58702 1.05258,5.12404 1.88041,7.54234c0.41977,1.22625 0.73667,2.53739 1.33092,3.69242c2.23725,4.38966 4.30809,8.92259 7.07057,12.95241c0.40199,0.48723 0.78386,0.86691 1.29328,1.24103l0.26749,0.27862c0.11799,0.04815 0.23211,0.14891 0.29508,0.3481c0.04977,0.15742 0.03804,0.2829 -0.00306,0.38153c-0.02802,0.07389 -0.07782,0.15006 -0.15845,0.22511z" fill="#b0c1ca" stroke="none" stroke-width="0.5"/><path d="M290.75727,216.12389c0.07424,0.14567 0.08385,0.27034 0.06042,0.37379c-0.11056,-0.20878 -0.21309,-0.41931 -0.30339,-0.6312c0.089,0.04446 0.17483,0.12372 0.24297,0.25741z" fill="#c7d7e0" stroke="none" stroke-width="0.5"/><path d="M297.25915,230.93126c0.15474,0.21493 0.13351,0.40121 0.06878,0.53741c-0.05666,-0.21176 -0.11107,-0.42657 -0.16436,-0.64601c0.03267,0.02982 0.06469,0.06571 0.09557,0.1086z" fill="#c7d7e0" stroke="none" stroke-width="0.5"/><path d="M294.81258,210.8669c-0.11893,0.36616 -0.40895,0.39665 -0.57632,0.38069c-1.67962,0.52949 -2.60086,1.46035 -2.35643,3.30701c0,0 0.06802,0.55219 -0.48416,0.62021c-0.55218,0.06803 -0.62022,-0.48415 -0.62022,-0.48415c-0.28371,-2.44532 0.99764,-3.85748 3.279,-4.55095l0.40084,0.02618c0,0 0.52916,0.17187 0.35728,0.70102z" fill="#c7d7e0" stroke="none" stroke-width="0.5"/><path d="M300.21743,206.74836c0.25263,0.49569 -0.24304,0.74833 -0.24304,0.74833l-0.18304,0.09329c-1.41276,0.72003 -2.19917,1.51829 -3.26981,2.66653c0,0 -0.37951,0.40681 -0.78633,0.02731c-0.40682,-0.37951 -0.0273,-0.78634 -0.0273,-0.78634c1.14993,-1.23208 2.05828,-2.12426 3.57819,-2.8989l0.18304,-0.09329c0,0 0.49569,-0.25263 0.74832,0.24305z" fill="#c7d7e0" stroke="none" stroke-width="0.5"/><path d="M296.19883,210.98329c-0.51141,-0.21906 -0.29234,-0.73049 -0.29234,-0.73049l0.24551,-0.51004c1.09804,-1.28829 1.87273,-2.03898 3.4823,-2.68497c0,0 0.51653,-0.20673 0.72325,0.30981c0.20672,0.51653 -0.30981,0.72324 -0.30981,0.72324c-1.47923,0.59019 -2.04609,1.19171 -3.04805,2.37269l-0.07039,0.22742c0,0 -0.21906,0.5114 -0.73048,0.29233z" fill="#cdd0e0" stroke="none" stroke-width="0.5"/><path d="M292.33605,215.21467c-0.55424,-0.04848 -0.50576,-0.60273 -0.50576,-0.60273l0.04427,-0.36619c-0.21752,-1.82431 0.66389,-2.26503 2.05394,-3.12743c0,0 0.473,-0.29293 0.76592,0.18007c0.29292,0.47299 -0.18007,0.76592 -0.18007,0.76592c-1.03601,0.64053 -1.70374,0.72966 -1.53543,2.04539l-0.04017,0.59919c0,0 -0.04847,0.55424 -0.60272,0.50575z" fill="#cdd0e0" stroke="none" stroke-width="0.5"/><path d="M297.82741,230.46798c0.52915,0.17186 0.35728,0.70101 0.35728,0.70101l-0.04783,0.13339c-0.08286,0.17674 -0.16572,0.35348 -0.24858,0.53021c0,0 -0.11851,0.25278 -0.36669,0.31626c-0.13612,-0.44869 -0.25616,-0.9037 -0.37125,-1.38108c0.06292,-0.13211 0.25788,-0.43595 0.6771,-0.29979z" fill="#cdd0e0" stroke="none" stroke-width="0.5"/><path d="M296.97446,231.98438c-0.16609,-0.15829 -0.16179,-0.36116 -0.13482,-0.49189c0.04394,0.16548 0.08869,0.32924 0.13482,0.49189z" fill="#cdd0e0" stroke="none" stroke-width="0.5"/><path d="M301.32344,225.09253c0.25263,0.49569 -0.24306,0.74832 -0.24306,0.74832l-0.09152,0.04665c-1.3644,0.6943 -2.06693,1.72786 -2.88391,2.99884c0,0 -0.30086,0.46798 -0.76885,0.16711c-0.46799,-0.30087 -0.16712,-0.76885 -0.16712,-0.76885c0.92523,-1.43889 1.76411,-2.59708 3.31461,-3.38849l0.09152,-0.04665c0,0 0.4957,-0.25263 0.74833,0.24305z" fill="#cdd0e0" stroke="none" stroke-width="0.5"/><path d="M273.936,215.17501c-0.19267,-0.40306 -0.38533,-0.80613 -0.578,-1.20919c0.29907,-0.20328 0.59687,-0.41225 0.86144,-0.6838c0.44845,-0.86033 1.61825,-1.19855 2.73568,-1.59984c0.48626,0.88502 1.16353,1.67123 1.91899,2.33003l0.37246,0.32478c0.0747,0.06825 0.18675,0.0868 0.28222,0.03815c0.05783,-0.02947 0.09928,-0.07837 0.12046,-0.13468c0.23125,0.20397 0.41715,0.35223 0.51443,0.40702l0.01242,0.00174l-0.0015,0.00339l0.13211,0.0582c1.56734,2.80766 2.82122,5.88085 4.1681,8.78193c-1.39753,0.66801 -2.79504,1.33602 -4.19255,2.00403c-0.2867,0.13704 -0.57298,0.27531 -0.85899,0.4145c-1.77983,-3.62718 -3.75191,-7.10585 -5.48726,-10.73627z" fill="#b0c1ca" stroke="none" stroke-width="0.5"/><path d="M278.511,212.51054c0.01606,0.03094 0.03213,0.06191 0.04821,0.09292l-0.0288,0.04603l0.07804,0.04881c0.04247,0.08173 0.0852,0.16359 0.12853,0.2455c-0.14552,-0.13716 -0.28148,-0.2763 -0.39889,-0.41267c-0.06339,-0.0955 -0.12711,-0.19253 -0.19107,-0.28975c0.11094,0.08537 0.22392,0.16622 0.33967,0.24086c0.00808,0.00943 0.01618,0.01887 0.02429,0.02829z" fill="#b0c1ca" stroke="none" stroke-width="0.5"/><path d="M279.57581,213.64679c-0.01329,-0.01006 -0.02663,-0.02021 -0.04003,-0.03044c-0.00043,-0.00376 -0.00087,-0.0075 -0.00131,-0.01126c0.01376,0.01389 0.02755,0.0278 0.04134,0.0417z" fill="#b0c1ca" stroke="none" stroke-width="0.5"/><path d="M273.48206,213.73478l-0.06905,-0.06841c-0.69816,-0.69162 -2.72771,-2.1276 -2.70819,-3.20516c0.00393,-0.21684 0.82464,-1.00759 1.01765,-1.20118c1.83865,-1.84411 3.12624,-0.26532 4.73526,0.92965c1.37468,1.35555 2.51971,2.75314 3.76054,4.18374c0.43001,0.49578 1.10567,1.36777 1.06715,2.08688c-0.09577,1.78707 -2.09005,2.00593 -3.30015,1.29337l-0.06272,0.0475c-1.39633,-0.77063 -2.25614,-3.09251 -3.81139,-3.39371c-0.2887,-0.1363 -0.54225,-0.30936 -0.78885,-0.48886c0.03401,-0.05801 0.08593,-0.1283 0.15976,-0.18384z" fill="#b0c1ca" stroke="none" stroke-width="0.5"/><path d="M278.00356,211.44308c0.08122,0.1699 0.40607,0.84954 0.48729,1.01944c0.61964,1.29631 0.99662,2.67589 1.56994,4.00005c1.09569,2.53064 2.40653,4.95056 3.76021,7.34267c-0.33535,0.1603 -0.67072,0.32061 -1.00608,0.48091c-1.36209,-2.40466 -2.67418,-4.84213 -3.77714,-7.38583c-0.56764,-1.30914 -0.93893,-2.67774 -1.55086,-3.95791c-0.08122,-0.1699 -0.16243,-0.33982 -0.24365,-0.50973l-0.24365,-0.50972c0,0 -0.04888,-0.10226 -0.05635,-0.23652c0.33101,-0.1187 0.65767,-0.24275 0.95988,-0.38733c0.06731,0.07475 0.1004,0.14397 0.1004,0.14397z" fill="#c7d7e0" stroke="none" stroke-width="0.5"/><path d="M280.58968,220.40618c0.50196,-0.23994 0.74189,0.26202 0.74189,0.26202l0.1329,0.27803c0.51967,1.08896 0.85385,2.2396 1.3657,3.33263c-0.33459,0.15993 -0.66917,0.31986 -1.00376,0.47979c-0.50993,-1.09385 -0.84531,-2.24547 -1.36585,-3.33255l-0.1329,-0.27804c0,0 -0.23994,-0.50195 0.26202,-0.74189z" fill="#cdd0e0" stroke="none" stroke-width="0.5"/><path d="M277.70031,213.64691c0.50196,-0.23994 0.7419,0.26203 0.7419,0.26203l0.11749,0.25875c0.57838,1.85685 1.36124,3.65857 1.90425,5.53656c0,0 0.15414,0.53457 -0.38042,0.68872c-0.53456,0.15415 -0.68873,-0.38042 -0.68873,-0.38042c-0.53764,-1.86991 -1.31406,-3.66612 -1.89678,-5.51179l-0.05971,-0.11196c0,0 -0.23994,-0.50196 0.26201,-0.74189z" fill="#cdd0e0" stroke="none" stroke-width="0.5"/><path d="M277.21377,211.93446c0.13252,0.27722 0.01521,0.60938 -0.26201,0.74189c-0.27722,0.13252 -0.60937,0.0152 -0.74189,-0.26202c-0.07283,-0.15237 -0.07021,-0.32132 -0.00704,-0.4646c0.25069,-0.09157 0.50765,-0.17959 0.7618,-0.27096c0.10522,0.05357 0.19428,0.14094 0.24914,0.25569z" fill="#cdd0e0" stroke="none" stroke-width="0.5"/><path d="M284.96861,238.44894c-1.44021,-3.20064 -3.9375,-5.84396 -5.49004,-9.01094c0.32503,-0.22921 0.67488,-0.41383 1.09523,-0.47719c1.88087,-0.9426 3.10445,-0.61899 4.7725,-0.68957c1.56163,3.43851 3.17747,6.83936 4.73239,10.28223c0.13829,0.3062 0.27506,0.61298 0.41091,0.92c-1.49092,0.50717 -3.0074,0.87542 -4.56108,1.03813c-0.32918,-0.68653 -0.64932,-1.37497 -0.95989,-2.06265z" fill="#b0c1ca" stroke="none" stroke-width="0.5"/><path d="M276.42176,226.98561l0.07855,-0.14162c-1.11728,-0.43479 -2.8889,-0.55575 -3.48568,-1.47543c-0.64195,-0.98927 0.65223,-3.72879 1.81445,-3.97286c0.09861,-0.0207 1.25403,0.39353 1.47143,0.49465c1.22513,0.56985 2.45444,1.2685 3.63511,1.9214c1.42417,0.78989 2.84889,1.57881 4.27254,2.36965c0.34315,0.19063 1.18783,0.6104 1.33816,0.96317c0.43026,1.00963 -1.00525,3.12915 -1.68394,3.80407c-0.22161,0.22038 -0.4175,0.52781 -0.72203,0.59813c-0.52724,0.12176 -1.65548,-0.56282 -2.15134,-0.76201c0,0 -0.00038,-0.00015 -0.00114,-0.00046l-0.05536,0.09982c-0.02027,0.03655 -0.04053,0.07311 -0.06079,0.10967c-1.00368,-1.25741 -1.51607,-2.46527 -3.36777,-3.36226c-0.31633,-0.31356 -0.69231,-0.49677 -1.09036,-0.63117c0.00271,-0.00491 0.00545,-0.00983 0.00817,-0.01474z" fill="#b0c1ca" stroke="none" stroke-width="0.5"/><g stroke="none" stroke-width="0.5"><path d="M284.01434,228.47511c1.58834,3.51687 3.15789,6.94315 5.34575,10.10818c0.22298,0.34432 0.43328,0.69595 0.63362,1.05333c-0.36243,0.11516 -0.72643,0.22175 -1.09216,0.31882c-0.14921,-0.25449 -0.30411,-0.50557 -0.46577,-0.75265c-2.21819,-3.22014 -3.82164,-6.69623 -5.43554,-10.2697l-0.23253,-0.51487c0,0 -0.01837,-0.04068 -0.03319,-0.1042c0.40204,-0.04181 0.7914,-0.0452 1.18855,-0.04099z" fill="#c7d7e0"/><path d="M283.04575,227.68218l0.00001,-0.00001c0.29509,-0.13327 0.496,-0.01724 0.61242,0.10306c-0.26499,-0.00233 -0.52839,0.00029 -0.7952,0.0171c0.04633,-0.04459 0.10615,-0.08555 0.18278,-0.12016z" fill="#c7d7e0"/><path d="M285.13459,234.55328c-0.50704,0.22899 -0.73605,-0.27805 -0.73605,-0.27805l-0.02114,-0.0468c-0.79947,-1.77016 -1.68189,-3.47446 -2.48243,-5.24698c0,0 -0.12925,-0.28619 0.02146,-0.52567c0.28686,-0.07104 0.56194,-0.11566 0.83141,-0.14314c0.10924,0.09574 0.1612,0.21081 0.1612,0.21081c0.80054,1.77253 1.68279,3.47645 2.48243,5.24698l0.02113,0.04681c0,0 0.229,0.50705 -0.27803,0.73605z" fill="#cdd0e0"/><path d="M287.03428,238.71686c0,0 -0.316,-0.4579 0.14189,-0.77391c0.45791,-0.31601 0.77391,0.14189 0.77391,0.14189c0.42158,0.61326 0.9135,1.15884 1.34573,1.76215c-0.38531,0.10972 -0.77249,0.20919 -1.16175,0.29728c-0.36483,-0.47684 -0.75503,-0.92956 -1.09978,-1.4274z" fill="#cdd0e0"/></g><path d="M301.14907,207.61285c0,0 17.27022,-10.69697 26.95325,-16.46282c0.04812,1.51918 -0.18716,3.16934 0.52273,4.57743c0.78847,2.58876 1.51018,5.5064 2.73622,7.91198c1.29932,2.54936 2.40874,5.23438 3.72429,7.81559c1.38746,2.7223 3.05757,5.1289 4.9418,7.39265c0.27128,0.30898 0.55272,0.64122 0.83698,0.98764c-0.55843,0.30969 -1.14032,0.6168 -1.74683,0.91615c-3.84367,1.89696 -8.52407,3.28116 -12.5742,5.10818c-7.61121,3.43343 -13.81526,6.8245 -13.81526,6.8245z" fill="#ffbb00" stroke="none" stroke-width="0"/><path d="M339.09999,220.97773c-0.3927,-1.04111 0.64842,-1.43382 0.64842,-1.43382l0.66735,-0.2462c0.47347,0.55763 0.96624,1.16988 1.44268,1.79234c-0.07317,0.03736 -0.14639,0.0747 -0.21965,0.11204l-1.10496,0.42406c0,0 -1.04112,0.3927 -1.43382,-0.64841z" fill="#c5d8e2" stroke="none" stroke-width="0.5"/><path d="M327.14862,191.58959c-0.68988,-0.87303 0.18314,-1.56292 0.18314,-1.56292l0.41415,-0.32428c0.04824,-0.03328 0.09634,-0.0665 0.14434,-0.09965c0.21857,0.74895 0.22549,1.57541 0.21729,2.41969c-0.29081,0.03858 -0.64397,-0.03422 -0.95893,-0.43282z" fill="#c5d8e2" stroke="none" stroke-width="0.5"/><path d="M325.72659,192.17367c-0.50527,-0.99138 0.48612,-1.49665 0.48612,-1.49665l0.32128,-0.15755c0.33012,-0.21207 0.66026,-0.42415 0.99038,-0.63622c0,0 0.16421,-0.10549 0.39926,-0.15933c0.19612,0.75594 0.19177,1.58596 0.18255,2.43064c-0.12312,0.07909 -0.24624,0.15819 -0.36936,0.23728l-0.51355,0.26795c0,0 -0.99139,0.50528 -1.49666,-0.48611z" fill="#c5d8e2" stroke="none" stroke-width="0.5"/><path d="M329.06194,190.21801c0.60141,0.93618 -0.33477,1.53759 -0.33477,1.53759c-0.05794,0.03722 -0.11586,0.07444 -0.1738,0.11166c0.00845,-0.73636 0.00799,-1.46309 -0.13507,-2.14698c0.22095,0.05383 0.4497,0.19584 0.64364,0.49774z" fill="#c5d8e2" stroke="none" stroke-width="0.5"/><path d="M301.32347,206.71446c-0.50527,-0.99138 0.48611,-1.49665 0.48611,-1.49665l1.089,-0.55374c2.74801,-1.09878 5.42387,-1.76227 7.95103,-3.39012c0,0 0.27838,-0.17883 0.62903,-0.18967c0.48908,-0.44323 0.9663,-0.87352 1.00768,-0.90258c1.32565,-0.93109 2.93084,-1.43265 4.24519,-2.42005c1.02877,-0.77286 1.92711,-1.72759 2.99733,-2.45416c1.12811,-0.76587 2.17563,-1.54698 3.2718,-2.32285c1.1508,-0.81455 1.89349,-0.73841 2.7177,-1.92382c0,0 0.66075,-0.89529 1.55603,-0.23454c0.89529,0.66075 0.23453,1.55603 0.23453,1.55603c-0.31779,0.41388 -0.55588,0.9036 -0.95338,1.24166c-0.64846,0.55151 -1.57697,0.67729 -2.26712,1.17563c-2.10604,1.52074 -4.13797,3.18169 -6.22935,4.74813c-1.33549,1.00026 -2.96907,1.5204 -4.30795,2.46502c-0.68725,0.48487 -1.2383,1.13856 -1.86077,1.7042l-0.61426,0.57193c0,0 -0.72483,0.67477 -1.44348,0.06736c-1.94756,0.90609 -3.95762,1.51029 -6.01434,2.33431l-0.99812,0.50999c0,0 -0.99138,0.50527 -1.49665,-0.48611z" fill="#e3a500" stroke="none" stroke-width="0.5"/><path d="M312.92061,232.97673c-0.76884,-0.80438 0.03556,-1.57322 0.03556,-1.57322l0.96455,-0.91484c2.52862,-1.63438 5.59856,-3.06058 8.54274,-3.84222c0.05833,-0.0394 0.09712,-0.05916 0.09712,-0.05916l0.20872,-0.10637c1.80724,-0.91827 3.18424,-2.25676 5.05048,-3.09862c1.70897,-0.77092 3.40077,-1.09667 5.19559,-1.56865c2.20235,-0.57916 4.19394,-1.45086 6.28512,-2.30768c0,0 1.02992,-0.4212 1.45112,0.60871c0.42119,1.02991 -0.60872,1.45111 -0.60872,1.45111c-2.18111,0.8902 -4.26981,1.79679 -6.56476,2.40096c-1.67487,0.44092 -3.24444,0.72289 -4.83869,1.44207c-1.64693,0.74292 -2.91289,1.89442 -4.45591,2.78114c-0.25295,0.36667 -0.70604,0.47102 -0.70604,0.47102c-2.79198,0.6244 -5.85724,2.03232 -8.28021,3.57629l-0.80344,0.77501c0,0 -0.80438,0.76884 -1.57321,-0.03554z" fill="#e3a500" stroke="none" stroke-width="0.5"/><path d="M315.28369,232.76076c-0.61007,0.93055 -1.54064,0.32049 -1.54064,0.32049l-0.66958,-0.44926c-0.22532,-0.1105 -2.45321,-1.20266 -2.46203,-1.20965c-1.34856,-1.0691 -2.03842,-3.26137 -2.79593,-4.74767c-2.50416,-4.91336 -4.09431,-10.02473 -6.12882,-15.1304c-0.69414,-1.74198 -2.71214,-3.84014 -1.35106,-5.8498c0.32853,-0.48509 1.04874,-0.52258 1.5731,-0.78388c0,0 1.03674,-0.40411 1.44085,0.63262c0.40411,1.03673 -0.63262,1.44085 -0.63262,1.44085c-0.2068,0.02372 -0.46734,-0.06995 -0.62039,0.07112c-0.34291,0.31609 0.26441,0.89869 0.46602,1.31923c0.59194,1.23477 1.12386,2.35002 1.58225,3.63902c1.66035,4.66893 3.40377,9.23671 5.65342,13.65069c0.56037,1.09949 1.16288,3.25306 2.19552,4.01419c0.60922,0.44903 1.38005,0.62239 2.05956,0.95559l0.90986,0.58622c0,0 0.93057,0.61008 0.32048,1.54064z" fill="#c5d8e2" stroke="none" stroke-width="0.5"/><path d="M333.17876,207.56917l-0.42549,-0.83486c0,0 -0.10402,-0.2041 -0.12507,-0.47429c0.37736,0.81098 0.74933,1.62722 1.12773,2.4416c-0.19239,-0.37748 -0.38477,-0.75497 -0.57716,-1.13245z" fill="#a1b9c7" stroke="none" stroke-width="0.5"/><path d="M321.13724,196.12147c-0.49569,0.25263 -0.74833,-0.24305 -0.74833,-0.24305l-0.02729,-0.05714c-0.73106,-1.19897 -1.31215,-2.40611 -1.59754,-3.78713c-0.02271,-0.57704 -0.11339,-0.96946 0.16871,-1.5135c0.59411,-1.1457 2.55038,-2.25037 3.67943,-2.76263c0.19622,-0.08903 1.22144,-0.49086 1.35297,-0.48344c1.55062,0.08741 2.79926,1.95044 3.29833,3.19407c0,0 0.20673,0.51652 -0.30981,0.72324c-0.51654,0.20673 -0.72324,-0.30981 -0.72324,-0.30981c-0.34334,-0.86043 -1.25192,-2.42009 -2.33797,-2.49717c-0.27552,-0.01956 -1.06362,0.51143 -1.31702,0.64011c-1.10872,0.56304 -2.77872,1.51938 -2.70736,2.87051c0.25528,1.21688 0.79798,2.29055 1.44321,3.34593l0.06895,0.1317c0,0 0.25264,0.49569 -0.24304,0.74832z" fill="#b0c1ca" stroke="none" stroke-width="0.5"/><path d="M327.11594,234.4466c-0.51584,-0.3315 -1.40737,-0.07511 -1.96611,-0.33814c-0.95256,-0.4484 -0.04258,-1.09135 0.49237,-1.33918c0.88777,-0.41129 3.66206,0.47617 3.36118,1.41776c0.06037,0.02634 0.12135,0.05923 0.18269,0.09904l0.11446,0.02999c1.54915,0.4224 3.34887,0.09633 4.94119,0.21336c2.0642,0.15171 3.95249,0.23902 6.03901,0.11208c-0.49141,0.7838 -0.40564,1.6754 -0.83684,2.60775c-1.04091,-0.03926 -2.07405,0.1947 -3.13371,0.13869c-2.32909,-0.12313 -4.54423,-0.17844 -6.82997,-0.67638c-0.15858,0.38359 -0.38733,0.64268 -0.66679,0.57773c-0.12924,0.15512 -0.28027,0.29278 -0.44423,0.39627c-0.46961,0.29645 -3.6605,1.19744 -2.59316,-0.43902c0.02092,-0.03208 0.0478,-0.06096 0.07829,-0.08414c0.50555,-0.38419 1.05366,-0.60156 1.54712,-0.8575c-0.00933,-0.03294 -0.0162,-0.06771 -0.02032,-0.1045c-0.05564,-0.49707 0.04544,-0.99276 0.24931,-1.37732c-0.17496,-0.13036 -0.34598,-0.26819 -0.5145,-0.37649zM337.64776,236.29641c0.7093,-0.04013 1.31138,-0.15634 1.97612,-0.14066c-0.0068,-0.12336 0.00435,-0.24749 0.03106,-0.36922c-1.86347,0.07236 -3.60981,-0.01972 -5.48655,-0.14683c-1.44145,-0.09763 -2.99475,0.09757 -4.44524,-0.1097c-0.00126,0.03157 -0.00298,0.06343 -0.00512,0.09547c2.55241,0.57164 5.32496,0.81832 7.9297,0.67093z" fill="#b0c1ca" stroke="none" stroke-width="0.5"/><path d="M339.71317,236.74897c-0.03823,0.02568 -0.07528,0.0469 -0.11041,0.06311c-0.60573,0.27943 -1.53296,-0.0274 -1.90336,-0.55569c-0.34677,-0.4946 -0.413,-0.96828 -0.29521,-1.392c-0.33486,-0.4588 -0.66893,-0.87709 -0.94985,-1.39997c-2.04709,-2.986 -3.18383,-6.77499 -5.72855,-9.35917c0,0 -0.38913,-0.39764 0.00851,-0.78675c0.39764,-0.38912 0.78675,0.00852 0.78675,0.00852c2.60392,2.67545 3.78679,6.48669 5.88504,9.56097c0.19695,0.37357 0.42456,0.68645 0.65996,1.00295c0.14911,-0.12861 0.31492,-0.24466 0.49084,-0.34619c-0.44635,-0.56651 -0.75848,-1.16871 -1.13501,-1.8074c-0.87923,-1.95105 -1.98175,-3.82771 -2.8756,-5.7795c-0.58225,-1.27138 -1.1572,-3.4055 -2.37608,-4.19683c0,0 -0.45802,-0.31584 -0.14218,-0.77385c0.31584,-0.45801 0.77385,-0.14216 0.77385,-0.14216c1.42194,1.01975 2.05248,3.11082 2.75697,4.65156c0.88479,1.93505 1.97182,3.79677 2.85036,5.72768c0.39944,0.67551 0.70263,1.30617 1.23825,1.88771l0.01273,0.01795c0.30354,-0.05874 0.59996,-0.0706 0.86255,-0.02757c0,0 0.14315,0.02687 0.26923,0.12635c0.03008,1.23498 0.67586,2.14885 -0.09365,3.36401c-0.29284,0.14955 -0.65603,0.21467 -0.98519,0.15632z" fill="#b0c1ca" stroke="none" stroke-width="0.5"/><path d="M289.61995,235.87982c0.31216,0.46051 -0.14836,0.77269 -0.14836,0.77269l-0.32985,0.22333c-0.05957,0.04281 -0.11835,0.08639 -0.17641,0.13062c-0.10717,-0.37432 -0.22485,-0.74637 -0.35197,-1.11627l0.2339,-0.15873c0,0 0.46052,-0.31217 0.77269,0.14836z" fill="#cdd0e0" stroke="none" stroke-width="0.5"/><path d="M282.84751,219.30586c0.10951,-0.05581 0.24351,-0.01229 0.29932,0.09722c0.05581,0.10951 0.01228,0.24353 -0.09722,0.29933c-0.10951,0.05581 -0.24352,0.01228 -0.29933,-0.09722c-0.05581,-0.10951 -0.01228,-0.24353 0.09722,-0.29933z" fill="#6b767b" stroke="none" stroke-width="0.5"/><g stroke="none"><path d="M285.77833,233.65037c0.1622,-0.15237 0.31457,0.00983 0.31457,0.00983l0.14834,0.21249c0.20405,1.24828 -0.07326,2.63414 -0.11996,3.88601c-0.14924,0.41553 -0.22243,1.03831 -0.52053,1.36734c-0.05285,0.05832 -0.14521,0.12884 -0.25046,0.1976c0.43198,-0.08657 1.00716,-0.15206 1.41627,-0.19918l0.13592,-0.09547c0.03839,-0.02758 0.08582,-0.04319 0.13669,-0.04162c0.12285,0.00384 0.21932,0.10654 0.21549,0.22938c-0.00192,0.06142 -0.02856,0.11626 -0.07007,0.15525l-0.24233,0.22764c-0.19258,0.18057 -0.50751,0.30729 -0.67414,0.36396c0.49227,-0.10729 1.0915,0.21817 1.55925,-0.06696c0.06928,-0.04798 0.12682,-0.12072 0.20783,-0.14396c1.17523,-0.33737 0.36301,0.64755 0.04311,0.98965c0.13596,-0.05548 0.33755,-0.09918 0.34606,-0.10143c0.24824,-0.06563 0.5222,-0.13652 0.70914,-0.33374c0.31028,-0.32738 0.60852,-1.46015 0.61827,-1.88109c0.37953,-1.65598 0.03192,-3.49843 0.54325,-5.10282c0,0 0.06779,-0.21196 0.27975,-0.14418c0.21196,0.06778 0.14419,0.27976 0.14419,0.27976c-0.50542,1.57452 -0.13956,3.3967 -0.52586,5.02492c-0.04302,1.11895 -0.8085,2.84046 -2.16628,2.71928c-0.92184,-0.08228 -0.40588,-0.62087 -0.05221,-0.89527c-0.45285,0.14121 -2.10985,0.38869 -2.2526,0.00575c-0.05723,-0.15351 0.02851,-0.30949 0.16927,-0.45557c-0.59112,0.13961 -1.26102,0.19073 -1.41989,0.00857c-0.11155,-0.1279 -0.14886,-0.33985 -0.09386,-0.5004c0.08326,-0.24308 0.71048,-0.35182 0.90217,-0.54833c0.23403,-0.23989 0.28379,-0.82659 0.40467,-1.14405c0.0294,-1.19726 0.32386,-2.5357 0.1179,-3.72742l-0.03377,0.01863c0,0 -0.15237,-0.1622 0.00983,-0.31457z" fill="#6b767b" stroke-width="0.5"/><path d="M286.02617,233.76851c0,0 1.85677,0.01097 2.63326,0.03522c0.63689,0.0199 1.733,0.24232 1.733,0.24232c0,0 -0.35188,4.83004 -0.70367,5.98694c-0.14804,0.48684 -1.39349,0.9098 -1.39349,0.9098c0,0 -0.85178,-0.91311 -1.65616,-0.81921c-0.7847,0.0916 -1.16511,-0.72725 -1.16511,-0.72725c0,0 0.64364,-1.78759 0.73316,-2.69993c0.09429,-0.96107 -0.18099,-2.92791 -0.18099,-2.92791z" fill="#606a6e" stroke-width="0"/><path d="M289.35536,233.89173c0.21748,-0.0472 0.2647,0.17028 0.2647,0.17028l0.04608,0.24361c-0.00978,0.31331 -0.01958,0.62662 -0.02937,0.93993c-0.04915,1.57345 -0.68345,2.95613 -1.03811,4.48027c0,0 -0.05044,0.21675 -0.2672,0.1663c-0.21675,-0.05043 -0.16631,-0.26719 -0.16631,-0.26719c0.34789,-1.49504 0.97862,-2.85298 1.02674,-4.39328c0.00978,-0.31331 0.01958,-0.62662 0.02937,-0.93993l-0.03617,-0.1353c0,0 -0.04721,-0.21748 0.17027,-0.26468z" fill="#303537" stroke-width="0.5"/><path d="M287.77493,233.50641c0.22243,0.00696 0.21549,0.22938 0.21549,0.22938l-0.0059,0.05023c0.05427,0.3236 0.15054,0.62593 0.20562,0.94728c0.22628,1.38435 -0.1614,3.48174 -1.02964,4.56706c0,0 -0.13903,0.17378 -0.3128,0.03476c-0.17378,-0.13902 -0.03475,-0.3128 -0.03475,-0.3128c0.78295,-0.97869 1.15501,-2.96123 0.93826,-4.21539c-0.05229,-0.32006 -0.15147,-0.62439 -0.20562,-0.94728l-0.00001,-0.13775c0,0 0.00696,-0.22243 0.22939,-0.21549z" fill="#303537" stroke-width="0.5"/></g><path d="M298.22557,205.82725c0.16663,-0.27978 0.44402,-0.42117 0.44402,-0.42117l0.43529,-0.22185c1.15366,-0.58701 2.73579,-1.64081 4.08639,-0.74954c1.10804,0.73121 1.0489,3.33036 1.3965,4.49949c1.19565,4.02141 2.37263,8.02323 4.28329,11.7721c1.28653,2.52427 2.66689,4.84977 4.28435,7.17084c0.46312,0.66458 2.124,2.38712 2.21687,3.14914c0.2612,2.14334 -3.01166,3.79782 -4.86667,3.26863c-0.34991,-0.09983 -1.60204,-1.44309 -1.92557,-1.77688c-1.59604,-1.64664 -2.56347,-3.31831 -3.59929,-5.35067c-1.52697,-2.99603 -3.36791,-5.9893 -4.55765,-9.13558c-1.35742,-3.58971 -2.11293,-7.53095 -2.51103,-11.33629c0,0 -0.05667,-0.54208 0.31349,-0.86823z" fill="#606a6e" stroke="none" stroke-width="0.5"/><g stroke="none" stroke-width="0.5"><path d="M315.28654,193.51401c0.19609,-0.10522 0.30132,0.09087 0.30132,0.09087c0.12635,0.23548 0.29485,0.54945 0.4212,0.78493c0.84346,1.58026 2.35348,1.993 4.02268,2.07305c0,0 0.22229,0.01067 0.21163,0.23296c-0.01066,0.22228 -0.23295,0.21162 -0.23295,0.21162c-1.82926,-0.0877 -3.47104,-0.59615 -4.39355,-2.30717c-0.12635,-0.23548 -0.25272,-0.47097 -0.37909,-0.70646l-0.04212,-0.07849c0,0 -0.10523,-0.19609 0.09087,-0.30132z" fill="#3a53e0"/><path d="M320.61373,197.15469c0.03781,0.2193 -0.1815,0.25712 -0.1815,0.25712l-0.15715,0.02632c-0.48839,0.03773 -0.93592,-0.06824 -1.40474,-0.20962c-1.59584,-0.48126 -3.56081,-1.53189 -4.38113,-3.03408c0,0 -0.10523,-0.19609 0.09087,-0.30132c0.19609,-0.10522 0.30132,0.09087 0.30132,0.09087c0.73352,1.39685 2.65312,2.3768 4.11745,2.81839c0.40739,0.12285 0.81419,0.23532 1.23729,0.19238l0.12045,-0.02156c0,0 0.21931,-0.03782 0.25713,0.18149z" fill="#3ae054"/><path d="M318.86224,195.82957c-0.02122,0.22153 -0.24276,0.2003 -0.24276,0.2003l-0.34144,-0.03379c-0.44265,-0.14812 -0.71918,-0.5486 -0.77803,-1.01749c-0.02728,-0.21729 0.24055,-0.5781 0.03588,-0.656c-0.17405,-0.06624 -0.4718,0.41324 -0.64138,0.4404c-0.71688,0.11483 -0.69821,-0.63747 -0.99858,-0.9706c0,0 -0.14165,-0.17165 0.03,-0.31329c0.17165,-0.14164 0.3133,0.03 0.3133,0.03c0.11524,0.14737 0.25641,0.88453 0.56751,0.81754c0.37637,-0.08105 0.34865,-0.68 0.92849,-0.40199c0.61406,0.2944 -0.12287,1.46014 0.6287,1.63472l0.29799,0.02746c0,0 0.22153,0.02122 0.20031,0.24275z" fill="#e03a3a"/></g><g stroke="none"><path d="M280.2969,219.29125c0.15601,-0.15869 0.31472,-0.00268 0.31472,-0.00268l0.15666,0.20643c0.2535,1.23918 0.0315,2.63495 0.0346,3.88771c-0.1326,0.42112 -0.18099,1.04633 -0.46577,1.38695c-0.05049,0.06037 -0.13996,0.1345 -0.24241,0.20739c0.4282,-0.10368 1.00033,-0.19197 1.40723,-0.25532l0.13202,-0.1008c0.03726,-0.02908 0.08402,-0.04657 0.13492,-0.04701c0.12291,-0.00105 0.22339,0.09774 0.22444,0.22063c0.00052,0.06145 -0.02392,0.11731 -0.06385,0.15792l-0.23308,0.23709c-0.18526,0.18808 -0.49491,0.32721 -0.65914,0.39047c0.48762,-0.12678 1.09931,0.17462 1.55535,-0.12888c0.06731,-0.05069 0.12193,-0.12566 0.20195,-0.15211c1.16091,-0.38381 0.38846,0.63261 0.08241,0.98715c0.13365,-0.06084 0.33334,-0.11253 0.34175,-0.1151c0.24543,-0.07545 0.51637,-0.15715 0.69531,-0.36166c0.29702,-0.33946 0.55,-1.48318 0.54301,-1.90418c0.31341,-1.66977 -0.10716,-3.49694 0.33999,-5.12039c0,0 0.05931,-0.21449 0.2738,-0.15519c0.2145,0.0593 0.15518,0.27381 0.15518,0.27381c-0.44244,1.59338 -0.00444,3.39956 -0.3257,5.04185c0.00149,1.11978 -0.69497,2.87036 -2.05649,2.80324c-0.92438,-0.04557 -0.43024,-0.60424 -0.08775,-0.89249c-0.44688,0.15909 -2.09273,0.47225 -2.25059,0.09529c-0.06328,-0.15112 0.01618,-0.31038 0.15103,-0.46194c-0.5851,0.163 -1.25245,0.2407 -1.41843,0.065c-0.11654,-0.12338 -0.16225,-0.33367 -0.11367,-0.49628c0.07354,-0.24619 0.69593,-0.37978 0.87966,-0.58374c0.2243,-0.249 0.25072,-0.83722 0.35889,-1.15923c-0.0182,-1.19749 0.22283,-2.54656 -0.03035,-3.72916l-0.03301,0.01996c0,0 -0.15869,-0.15601 -0.00267,-0.31471z" fill="#6b767b" stroke-width="0.5"/><path d="M280.54922,219.39944c0,0 1.85574,-0.06284 2.63258,-0.06947c0.63717,-0.00543 1.74126,0.17324 1.74126,0.17324c0,0 -0.15963,4.8402 -0.46516,6.01018c-0.12858,0.49234 -1.35622,0.96446 -1.35622,0.96446c0,0 -0.88741,-0.87852 -1.68741,-0.75272c-0.78044,0.12272 -1.19309,-0.68036 -1.19309,-0.68036c0,0 0.57208,-1.81176 0.62526,-2.72693c0.05602,-0.96406 -0.29722,-2.9184 -0.29722,-2.9184z" fill="#606a6e" stroke-width="0"/><path d="M283.8807,219.39024c0.21543,-0.05581 0.27124,0.15962 0.27124,0.15962l0.05572,0.24157c0.00268,0.31345 0.00535,0.6269 0.00802,0.94036c0.01342,1.57416 -0.5654,2.98096 -0.85921,4.51798c0,0 -0.04178,0.21858 -0.26037,0.1768c-0.21858,-0.04178 -0.17681,-0.26037 -0.17681,-0.26037c0.2882,-1.50768 0.86445,-2.88962 0.85131,-4.43062c-0.00268,-0.31345 -0.00536,-0.6269 -0.00803,-0.94036l-0.04152,-0.13375c0,0 -0.05582,-0.21543 0.15962,-0.27123z" fill="#303537" stroke-width="0.5"/><path d="M282.28618,219.06804c0.22253,-0.00189 0.22443,0.22064 0.22443,0.22064l-0.00388,0.05042c0.06709,0.32119 0.1753,0.61945 0.2431,0.93835c0.28113,1.37427 -0.02288,3.4854 -0.84731,4.60438c0,0 -0.13201,0.17915 -0.31117,0.04716c-0.17916,-0.13201 -0.04717,-0.31117 -0.04717,-0.31117c0.74342,-1.00904 1.03641,-3.00479 0.76998,-4.24936c-0.06496,-0.31773 -0.17617,-0.61787 -0.24311,-0.93835l-0.00549,-0.13764c0,0 -0.0019,-0.22254 0.22064,-0.22443z" fill="#303537" stroke-width="0.5"/></g><path d="M339.69088,221.66269c-0.88743,0.45229 -3.37384,-6.05237 -7.5091,-14.16605c-4.13526,-8.11369 -6.10599,-15.5238 -5.21855,-15.97609c0.35437,-0.18061 1.44396,-3.01329 2.61514,-1.37203c1.76173,2.46885 6.65476,9.91473 9.13871,14.78843c2.93336,5.75546 3.76689,11.3462 3.03278,14.38055c-0.30079,1.24328 -1.80105,2.21373 -2.05898,2.34519z" fill="#ffbb00" stroke="none" stroke-width="0"/><path d="M325.20477,194.26169c-3.46393,3.67072 -8.10795,-0.74546 -4.84803,-4.1343c2.17312,-2.25906 5.21196,-2.45599 6.13062,-0.80927c0.09923,0.12622 0.1877,0.2639 0.26337,0.41237c0.55077,1.08066 0.24034,2.37381 -0.6772,3.09718c-0.20677,0.39866 -0.46408,0.82233 -0.77705,1.27061z" fill="#a1b9c7" stroke="none" stroke-width="0.5"/><path d="M296.6391,236.72634v-111.84076h47.29829v111.84077z" fill="none" stroke-opacity="0.01176" stroke="#ffffff" stroke-width="0.5"/><path d="M296.6391,236.72634v-111.84076h47.29829v111.84077z" fill="none" stroke-opacity="0.01176" stroke="#ffffff" stroke-width="0.5"/><path d="M333.19383,196.00434c0.25902,0.34734 0.45752,0.74668 0.6675,1.16436c0.62413,0.69213 1.25638,1.38039 1.82037,2.13457c2.15488,3.9106 3.74257,7.58104 5.20914,11.73354c0.26624,0.76811 1.2125,2.36802 0.64524,3.18395c-0.49407,0.71067 -2.29289,0.78149 -3.00905,1.0262c-2.70296,0.92357 -5.01385,0.07137 -7.64365,-0.92305c-1.66466,-0.94901 -3.5475,-1.40642 -5.01686,-2.72416c-2.07725,-1.86291 -1.59246,-5.4587 -0.88877,-7.83268c1.59571,-2.76067 3.75583,-7.51004 6.60038,-9.08108c0,0 0.24748,-0.1358 0.47257,-0.01738c0.21431,-0.05227 0.44536,0.04279 0.55655,0.24541l0.32833,0.59832c0.10102,0.18409 0.18578,0.34402 0.25826,0.49198z" fill="#ffffff" stroke="none" stroke-width="0.5"/><path d="M320.06378,199.23937c0,0 2.24339,9.35751 3.73456,12.07488c1.56929,2.85974 6.41356,6.82348 6.41356,6.82348c0,0 -6.47919,-2.79971 -8.03971,-5.7058c-1.79048,-3.33431 -2.10841,-13.19256 -2.10841,-13.19256z" fill="#e3a500" stroke="none" stroke-width="0"/><path d="M316.50149,201.11439c0,0 2.24339,9.35751 3.73456,12.07488c1.56929,2.85974 6.41356,6.82348 6.41356,6.82348c0,0 -6.47919,-2.79971 -8.03971,-5.7058c-1.79048,-3.33431 -2.10841,-13.19256 -2.10841,-13.19256z" fill="#e3a500" stroke="none" stroke-width="0"/><path d="M312.97255,203.86084c0,0 2.24339,9.35751 3.73456,12.07488c1.56929,2.85974 6.41356,6.82348 6.41356,6.82348c0,0 -6.47919,-2.79971 -8.03971,-5.7058c-1.79048,-3.33431 -2.10841,-13.19256 -2.10841,-13.19256z" fill="#e3a500" stroke="none" stroke-width="0"/><path d="M309.8543,205.93705c0,0 2.24339,9.35751 3.73456,12.07488c1.56929,2.85974 6.41356,6.82348 6.41356,6.82348c0,0 -6.47919,-2.79971 -8.03971,-5.7058c-1.79048,-3.33431 -2.10841,-13.19256 -2.10841,-13.19256z" fill="#e3a500" stroke="none" stroke-width="0"/></g></g></svg>