<svg version="1.1" xmlns="http://www.w3.org/2000/svg" xmlns:xlink="http://www.w3.org/1999/xlink" width="61.52129" height="113.208" viewBox="0,0,61.52129,113.208"><g transform="translate(-292.03476,-124.63555)"><g data-paper-data="{&quot;isPaintingLayer&quot;:true}" fill-rule="nonzero" stroke-linecap="butt" stroke-linejoin="miter" stroke-miterlimit="10" stroke-dasharray="" stroke-dashoffset="0" style="mix-blend-mode: normal"><path d="M314.3186,196.51645c-0.05918,0.72083 -0.41332,1.34446 -0.92559,1.87886c-0.94492,0.98575 -2.42789,1.66788 -3.59017,2.09632c-6.85477,2.52683 -11.49571,-1.48153 -15.83577,-6.86962c-0.99235,-1.23199 -4.05279,-8.41615 0.48284,-5.78839c1.04121,0.60324 1.53754,2.72807 2.27739,3.63328c1.97585,2.41748 4.86286,5.37776 7.81942,6.52468c2.46965,0.95804 7.08691,-3.14401 7.77568,-2.88395z" fill="#b5c4cc" stroke="none" stroke-width="0.5"/><g stroke="none" stroke-width="0.5"><path d="M315.1258,213.66707c-0.79328,1.85546 -1.82125,3.75089 -2.8869,5.48463c-0.08304,0.13511 -0.16568,0.27036 -0.24793,0.40576c-0.27104,-0.16397 -0.54146,-0.32869 -0.81107,-0.49441c-1.31842,-0.81036 -2.63684,-1.62072 -3.95524,-2.43108c0.04966,-0.07978 0.09911,-0.15956 0.14837,-0.23933c0.9316,-2.04878 2.54299,-3.81592 3.42429,-5.87397c0.48716,-1.13763 0.78878,-2.41133 1.29882,-3.54993c1.12785,1.07224 2.84634,1.68034 4.11469,2.45992c0.24074,0.14797 0.48238,0.2909 0.73045,0.41954c-0.44053,1.34494 -1.25496,2.5078 -1.81549,3.81885z" fill="#b0c1ca"/><path d="M310.76161,210.43728c0.46913,-1.05214 1.25221,-2.04858 1.85718,-3.03095c0.29276,0.21815 0.60866,0.41672 0.93516,0.60339c-0.57501,0.92911 -1.34084,1.88221 -1.77544,2.87925c-0.988,2.26666 -1.7068,4.54876 -3.01919,6.68629c-0.31583,-0.19413 -0.63166,-0.38824 -0.94749,-0.58237c1.27825,-2.10005 1.96188,-4.34009 2.94975,-6.55561z" fill="#c7d7e0"/><path d="M311.3812,211.0915c0.47221,-0.95459 1.58277,-1.77261 1.64154,-2.85708c0,0 0.02299,-0.26221 0.2177,-0.41011c0.28816,0.17668 0.58832,0.34157 0.89119,0.50035c-0.00024,0.00454 -0.00046,0.00696 -0.00046,0.00696c-0.14676,1.3452 -1.1641,2.0969 -1.75354,3.25505c-1.07738,2.11686 -1.48524,4.48142 -2.66228,6.57621c-0.31582,-0.19412 -0.63165,-0.38824 -0.94748,-0.58237c1.15879,-2.05636 1.57712,-4.39439 2.6133,-6.48903z" fill="#cdd0e0"/></g><g stroke="none" stroke-width="0.5"><path d="M334.60221,211.81373c1.53282,1.24868 3.03981,2.57694 4.49564,3.94326c-1.37911,0.70838 -2.65721,1.59524 -3.86305,2.59888c-2.37735,-2.40835 -4.70215,-4.84611 -7.46076,-6.77187c1.24044,-0.77236 2.2912,-1.43034 3.35819,-2.34414c1.03162,1.01434 2.32139,1.6382 3.46998,2.57388z" fill="#b0c1ca"/><path d="M328.46649,211.35774c0,0 -0.06356,-0.04628 -0.1255,-0.12796c0.33591,-0.21114 0.65918,-0.41774 0.97448,-0.6282c2.63519,1.97547 4.68515,4.65713 7.18523,6.76638c-0.30301,0.22061 -0.60127,0.4492 -0.89518,0.68493c-2.44872,-2.13584 -4.49483,-4.76973 -7.13905,-6.69516z" fill="#c7d7e0"/><path d="M331.12656,211.55996c0.39208,-0.39472 0.78679,-0.00264 0.78679,-0.00264l0.18219,0.18098c0.6041,0.60006 1.13412,1.1496 1.57898,1.88141c0,0 0.28784,0.47612 -0.18827,0.76395c-0.47611,0.28783 -0.76395,-0.18827 -0.76395,-0.18827c-0.39358,-0.65513 -0.87123,-1.13155 -1.41094,-1.66765l-0.18219,-0.18098c0,0 -0.39471,-0.39209 -0.00263,-0.7868z" fill="#cdd0e0"/></g><path d="M337.44646,198.92561c0.05703,0.19959 0.0183,0.34599 -0.05266,0.45111l-0.03104,0.16689c0,1.00428 0,2.00856 0,3.01284c0,0.72347 0.03643,1.34894 -0.19197,2.05046c-0.46724,1.43508 -1.36648,2.25274 -2.49516,2.68755v0.14767c0,1.88327 0.49504,4.62498 -1.90119,5.0335c-0.46833,0.00107 -0.92542,-0.0222 -1.3775,-0.05732c-0.00553,0.05522 -0.01027,0.11027 -0.01424,0.16516c-1.45507,-0.10772 -2.69168,-0.3927 -4.20326,-0.78708c0,0 -0.21337,-0.05334 -0.28988,0.14017c-0.4022,-0.11575 -0.77605,-0.30044 -1.06794,-0.60545c-1.17175,-1.22439 -1.11708,-2.99635 -1.28606,-4.57128c-1.7658,-0.32363 -3.59285,-0.35032 -5.42555,-0.33968c0.02344,0.12856 0.00208,0.23537 0.00208,0.23537l-0.07403,0.35947c-0.22076,1.94277 -0.4986,3.60234 -2.50322,3.87566c0.01347,0.03934 0.02651,0.07872 0.03913,0.11814c-0.23454,0.01296 -0.47043,0.01479 -0.70573,0.01479c-1.46046,0 -3.34103,0.43575 -4.84535,0.04331c-0.00333,-0.04927 -0.00615,-0.09852 -0.00845,-0.14775c-0.36151,-0.06865 -0.70351,-0.16721 -1.01362,-0.30557c-0.03557,-0.02435 -0.07069,-0.04958 -0.10535,-0.07573c0,0 -0.06787,-0.0509 -0.15419,-0.05387c-0.38434,-0.21429 -0.70671,-0.50311 -0.93849,-0.88931c-0.78747,-1.31211 -0.48896,-3.16189 -0.48266,-4.63054c-1.63022,-1.63705 -1.41826,-5.0258 -1.1343,-7.04633c0,0 0.06413,-0.44892 0.48189,-0.47827c0.28606,-0.16467 0.58616,0.04969 0.58616,0.04969c2.1287,1.5205 5.04326,1.38896 7.57377,1.74952c1.28314,0.18283 2.59522,0.49586 3.89414,0.4909c4.9269,0 9.90589,0.21333 14.7507,-0.41803c0.61664,-0.13691 1.12832,-0.30473 1.69297,-0.58872l0.3697,-0.11181c0.09647,-0.08326 0.23807,-0.13918 0.44413,-0.10484c0.16286,0.02714 0.26933,0.09457 0.33854,0.17597c0.05311,0.05852 0.09835,0.13747 0.12861,0.24339z" fill="#b0c1ca" stroke="none" stroke-width="0.5"/><path d="M312.30541,211.11359c0.1635,0 0.27894,0.04805 0.36047,0.1159c-0.23622,0.0037 -0.47035,-0.00055 -0.70014,-0.01631c0.08003,-0.05911 0.18961,-0.09959 0.33967,-0.09959z" fill="#c7d7e0" stroke="none" stroke-width="0.5"/><path d="M331.1948,206.19018c0.26176,-0.04027 0.41808,0.06323 0.51004,0.18275c-0.21439,-0.04568 -0.43049,-0.09474 -0.6502,-0.14691c0.0414,-0.01557 0.08792,-0.0278 0.14016,-0.03584z" fill="#c7d7e0" stroke="none" stroke-width="0.5"/><path d="M309.46314,205.11335c0.27223,0.27223 0.1677,0.54447 0.07748,0.68634c-0.29094,1.7369 0.12009,2.98039 1.87637,3.60116c0,0 0.52286,0.19013 0.33273,0.71299c-0.19013,0.52286 -0.71299,0.33274 -0.71299,0.33274c-2.30751,-0.85762 -2.98383,-2.64049 -2.56574,-4.98798l0.20534,-0.34524c0,0 0.39341,-0.39341 0.78681,0z" fill="#c7d7e0" stroke="none" stroke-width="0.5"/><path d="M308.24797,198.42768c0.55635,0 0.55636,0.55635 0.55636,0.55635v0.20544c0,1.58566 0.35411,2.64881 0.89098,4.1241c0,0 0.19012,0.52286 -0.33273,0.71299c-0.52286,0.19013 -0.71299,-0.33274 -0.71299,-0.33274c-0.57556,-1.58401 -0.95798,-2.79844 -0.95798,-4.50437v-0.20544c0,0 0,-0.55635 0.55635,-0.55635z" fill="#c7d7e0" stroke="none" stroke-width="0.5"/><path d="M310.19631,203.93111c-0.4274,0.35617 -0.78358,-0.07124 -0.78358,-0.07124l-0.34295,-0.45034c-0.6492,-1.5633 -0.96626,-2.5944 -0.81091,-4.32179c0,0 0.05036,-0.55408 0.60444,-0.5037c0.55407,0.05037 0.5037,0.60444 0.5037,0.60444c-0.14587,1.58593 0.13265,2.36412 0.72988,3.79309l0.17065,0.16598c0,0 0.35617,0.4274 -0.07124,0.78357z" fill="#cdd0e0" stroke="none" stroke-width="0.5"/><path d="M312.21224,209.2941c-0.29487,0.47179 -0.76666,0.17692 -0.76666,0.17692l-0.30615,-0.20573c-1.72415,-0.63459 -1.71658,-1.62002 -1.85374,-3.2501c0,0 -0.0462,-0.55444 0.50823,-0.60064c0.55443,-0.0462 0.60063,0.50823 0.60063,0.50823c0.10024,1.2139 -0.12355,1.84929 1.12514,2.29679l0.51561,0.30787c0,0 0.4718,0.29487 0.17692,0.76666z" fill="#cdd0e0" stroke="none" stroke-width="0.5"/><path d="M328.29584,211.3279c0.3934,-0.39341 0.78681,0 0.78681,0l0.09712,0.10319c0.11984,0.15408 0.23968,0.30816 0.35952,0.46224c0,0 0.1714,0.22037 0.11526,0.47031c-0.46157,-0.08246 -0.92148,-0.18213 -1.39906,-0.29636c-0.08914,-0.11605 -0.27131,-0.42772 0.04036,-0.7394z" fill="#cdd0e0" stroke="none" stroke-width="0.5"/><path d="M332.00381,206.92205c-0.21645,0.0761 -0.39525,-0.01985 -0.49948,-0.10325c0.16739,0.036 0.33361,0.07049 0.49948,0.10325z" fill="#cdd0e0" stroke="none" stroke-width="0.5"/><path d="M325.09405,205.77215c0.55635,0 0.55635,0.55636 0.55635,0.55636v0.10272c-0.00097,1.53089 0.60088,2.62614 1.36229,3.93118c0,0 0.28033,0.48056 -0.20024,0.7609c-0.48057,0.28034 -0.7609,-0.20023 -0.7609,-0.20023c-0.86185,-1.47773 -1.51283,-2.75105 -1.51387,-4.49185v-0.10272c0,0 0.00001,-0.55636 0.55636,-0.55636z" fill="#cdd0e0" stroke="none" stroke-width="0.5"/><g stroke="none" stroke-width="0.5"><path d="M303.27998,230.93628c-0.39547,0.44741 -0.79095,0.89482 -1.18642,1.34223l0.07392,-0.04938c0,0 -0.04853,0.18228 -0.19523,0.30631l0.07284,0.06438c0.73633,0.65085 2.84415,1.96923 2.88587,3.04616c0.00839,0.2167 -0.76609,1.0528 -0.94779,1.25704c-1.73095,1.94556 -3.10612,0.44246 -4.78042,-0.6592c-1.44946,-1.27529 -2.67201,-2.60559 -3.99209,-3.9634c-0.45747,-0.47055 -1.18158,-1.30276 -1.18396,-2.0229c-0.0059,-1.78963 1.97274,-2.1214 3.22137,-1.47873l0.19513,-0.16601c0.45269,-0.39912 0.91153,-0.79047 1.36757,-1.18571c2.20587,-3.40047 5.26875,-6.40537 8.01286,-9.44044c1.16057,1.02586 2.32114,2.05171 3.48171,3.07756c0.23809,0.21045 0.47714,0.42004 0.71694,0.62902c-2.64457,3.05457 -5.07737,6.22817 -7.7423,9.24307z" fill="#b0c1ca"/><path d="M298.30467,229.43362c-0.41684,-0.36846 -0.0484,-0.78531 -0.0484,-0.78531c0.12472,-0.1411 0.6236,-0.7055 0.74833,-0.84659c0.95157,-1.07653 2.07451,-1.96215 3.06979,-3.00689c1.90212,-1.99665 3.6183,-4.14818 5.29215,-6.32828c0.2785,0.24617 0.557,0.49234 0.8355,0.73852c-1.68214,2.19274 -3.41399,4.35225 -5.32529,6.3607c-0.98367,1.03366 -2.09874,1.90977 -3.03845,2.97289c-0.12472,0.1411 -0.24944,0.28219 -0.37416,0.4233l-0.37416,0.4233c0,0 -0.36846,0.41684 -0.78531,0.04838z" fill="#c7d7e0"/><path d="M305.49863,222.76839c-0.41684,-0.36846 -0.0484,-0.78531 -0.0484,-0.78531l0.2041,-0.2309c0.79969,-0.90354 1.72858,-1.66038 2.53506,-2.55831c0.27786,0.24561 0.55571,0.49121 0.83358,0.73681c-0.808,0.89649 -1.73731,1.65482 -2.53493,2.55843l-0.2041,0.2309c0,0 -0.36846,0.41684 -0.78531,0.04838z" fill="#cdd0e0"/><path d="M300.40363,228.06719c-0.41684,-0.36846 -0.04839,-0.78533 -0.04839,-0.78533l0.19235,-0.20918c1.48373,-1.25736 2.83688,-2.68146 4.35388,-3.9145c0,0 0.43199,-0.35061 0.78259,0.08138c0.35061,0.43198 -0.08138,0.78259 -0.08138,0.78259c-1.51166,1.22495 -2.86225,2.64096 -4.33399,3.89796l-0.07977,0.09867c0,0 -0.36847,0.41686 -0.78531,0.0484z" fill="#cdd0e0"/><path d="M299.01698,229.18362c0.2035,-0.23023 0.55509,-0.2519 0.78531,-0.0484c0.23023,0.2035 0.25188,0.55509 0.04838,0.78532c-0.2035,0.23023 -0.55508,0.25188 -0.78531,0.04838c-0.23023,-0.2035 -0.25188,-0.55509 -0.04838,-0.78531z" fill="#cdd0e0"/></g><path d="M337.74107,222.08174c-1.04152,3.36272 -0.91471,7.00889 -1.85582,10.41944c-1.37445,-0.40538 -3.04272,-0.59979 -4.18294,-1.49699c-0.50576,-0.39796 -0.50592,-0.93068 -1.07919,-1.2178c1.14203,-3.71896 2.21009,-7.44653 3.3561,-11.16475c0.09896,-0.32108 0.19945,-0.64158 0.30078,-0.96166c1.45337,0.60643 2.83398,1.33393 4.10645,2.24014c-0.20754,0.73254 -0.42313,1.46051 -0.64538,2.1816z" fill="#b0c1ca" stroke="none" stroke-width="0.5"/><path d="M336.75967,230.99893c1.18794,-0.16168 2.7959,-0.91517 3.76385,-0.40036c1.04121,0.55376 1.23816,3.57718 0.34018,4.35431c-0.07619,0.06594 -1.28752,0.26409 -1.52668,0.2811c-1.34777,0.09588 -2.76166,0.08115 -4.11084,0.08283c-1.62856,0 -3.25712,0.0011 -4.88568,0c-0.39254,-0.00027 -1.33482,0.04233 -1.63738,-0.19325c-0.86595,-0.67424 -0.63861,-3.22401 -0.37244,-4.14341c0.08691,-0.30021 0.1091,-0.66407 0.3413,-0.87327c0.33785,-0.30438 1.32303,-0.31664 1.94365,-0.35214c0.06207,0.03061 0.12371,0.03061 0.12371,0.03061c0.60384,-0.03515 0.8547,0.60971 1.38331,0.8261c1.38761,0.56804 3.14371,0.29772 4.63702,0.2346z" fill="#b0c1ca" stroke="none" stroke-width="0.5"/><g stroke="none" stroke-width="0.5"><path d="M331.68961,230.73054l0.1664,-0.53989c1.13661,-3.68773 2.22736,-7.2951 2.68167,-11.11581c0.06069,-0.4057 0.13573,-0.80848 0.22204,-1.20899c0.34792,0.15351 0.69135,0.31448 1.02978,0.48374c-0.05655,0.28954 -0.10658,0.58029 -0.14889,0.8725c-0.46804,3.88209 -1.56634,7.54923 -2.72125,11.29631l-0.1664,0.53989c0,0 -0.09252,0.30016 -0.36405,0.37991c-0.24364,-0.12423 -0.47427,-0.26693 -0.6866,-0.434c-0.01139,-0.00897 -0.02253,-0.018 -0.03342,-0.0271c-0.01339,-0.1359 0.02071,-0.24656 0.02071,-0.24656z" fill="#c7d7e0"/><path d="M335.03856,224.89248c0.53167,0.16387 0.36781,0.69555 0.36781,0.69555l-0.01513,0.04908c-0.5721,1.85617 -1.03841,3.71784 -1.61126,5.57648c0,0 -0.16387,0.53168 -0.69554,0.36781c-0.53167,-0.16387 -0.36781,-0.69555 -0.36781,-0.69555c0.57286,-1.85864 1.03905,-3.71993 1.61126,-5.57648l0.01513,-0.04908c0,0 0.16387,-0.53168 0.69554,-0.36781z" fill="#cdd0e0"/><path d="M336.36972,220.51388c0,0 -0.06612,0.55241 -0.61853,0.4863c-0.55242,-0.06612 -0.4863,-0.61853 -0.4863,-0.61853c0.08978,-0.73875 0.08205,-1.47332 0.15725,-2.21166c0.36148,0.17273 0.71758,0.3544 1.0677,0.54596c-0.04205,0.59892 -0.04912,1.19655 -0.12011,1.79793z" fill="#cdd0e0"/></g><path d="M309.44124,197.99018c0,0 -1.73475,-20.80113 -2.45828,-31.94539c1.39246,0.60194 2.85679,1.35479 3.89873,1.35021c2.5886,0.9706 6.4109,1.50574 9.20805,1.61776c3.08264,0.61653 6.31592,0.69412 9.49187,0.69412c2.95995,0 5.81684,-0.83966 8.80115,-0.91929c0.00898,0.43821 0.01132,0.88516 0.00545,1.34045c-0.05526,4.28593 -0.94731,9.08451 -1.15863,13.52263c-0.39713,8.34034 -0.19302,15.40772 -0.19302,15.40772z" fill="#c5d8e2" stroke="none" stroke-width="0"/><path d="M338.58185,170.2464c-1.10591,-0.12288 -0.98303,-1.22879 -0.98303,-1.22879l0.02299,-0.19405c0.36701,-0.02447 0.73568,-0.03938 1.10643,-0.0417c0.38883,-0.09586 0.77493,-0.17907 1.15999,-0.25538l-0.07759,0.73689c0,0 -0.12288,1.10591 -1.22879,0.98303z" fill="#c5d8e2" stroke="none" stroke-width="0.5"/><path d="M306.97131,167.54974c-1.0911,0.21822 -1.30933,-0.87288 -1.30933,-0.87288l-0.10086,-0.51624c-0.03058,-0.22935 -0.06128,-0.4565 -0.09118,-0.68227c0.74211,0.21075 1.57235,0.58992 2.39181,0.9557c0.0061,0.32376 -0.08873,0.95536 -0.89043,1.11571z" fill="#c5d8e2" stroke="none" stroke-width="0.5"/><path d="M306.84597,169.08193c-1.11271,0 -1.11271,-1.11272 -1.11271,-1.11272l0.00552,-0.35779c-0.03905,-0.39042 -0.07808,-0.78086 -0.11713,-1.17128c0,0 -0.04804,-0.48044 0.23565,-0.84001c0.63659,0.21759 1.32197,0.52925 2.00008,0.83197c0.03193,0.31929 0.06386,0.63859 0.09579,0.95788l0.00553,0.57923c0,0 0,1.11272 -1.11272,1.11272z" fill="#c5d8e2" stroke="none" stroke-width="0.5"/><path d="M306.61812,165.22223c0.724,-0.0724 1.02192,0.37597 1.14141,0.695c-0.4901,-0.21977 -0.98054,-0.44192 -1.46204,-0.62591c0.09353,-0.03307 0.19983,-0.05701 0.32063,-0.06909z" fill="#c5d8e2" stroke="none" stroke-width="0.5"/><path d="M308.72001,197.42686c-1.11271,0 -1.11271,-1.11271 -1.11271,-1.11271l0.00114,-1.2217c0.26887,-2.9473 0.89281,-5.63266 0.59002,-8.62344c0,0 -0.03292,-0.32922 0.11665,-0.64656c-0.17281,-0.63702 -0.33948,-1.25758 -0.34658,-1.30765c-0.2276,-1.60389 0.05443,-3.2618 -0.22847,-4.8812c-0.22143,-1.26754 -0.66413,-2.50145 -0.8255,-3.7849c-0.1701,-1.35287 -0.39036,-2.64086 -0.58387,-3.96981c-0.20316,-1.39519 0.20192,-2.02232 -0.47996,-3.29493c0,0 -0.49763,-0.99524 0.49761,-1.49286c0.99524,-0.49762 1.49286,0.49762 1.49286,0.49762c0.22445,0.47108 0.55264,0.90558 0.67334,1.41325c0.19691,0.82819 -0.11265,1.71256 0.01797,2.55375c0.39858,2.56694 0.95574,5.13152 1.4017,7.70615c0.28476,1.64407 0.00639,3.3357 0.24004,4.95753c0.11993,0.83249 0.45211,1.62028 0.67341,2.43173l0.23064,0.80698c0,0 0.27205,0.9522 -0.59545,1.31667c-0.07708,2.14664 -0.45151,4.21187 -0.65128,6.4185l0.00114,1.12086c0,0 0,1.11271 -1.11271,1.11271z" fill="#c5d8e2" stroke="none" stroke-width="0.5"/><path d="M337.38467,199.01971c-1.06579,0.31974 -1.38552,-0.74606 -1.38552,-0.74606l-0.3771,-1.27479c-0.30794,-2.99504 -0.1846,-6.37785 0.45591,-9.35592c-0.00862,-0.06986 -0.00861,-0.11339 -0.00861,-0.11339v-0.23426c0.00251,-2.02715 -0.56475,-3.86179 -0.46737,-5.90681c0.08917,-1.87268 0.56717,-3.52792 0.96166,-5.34135c0.48405,-2.22519 0.61177,-4.39544 0.79796,-6.64766c0,0 0.02482,-0.29791 0.20315,-0.57203c0.38586,-0.02677 0.77352,-0.04314 1.1635,-0.04558c0.17378,-0.04284 0.347,-0.08316 0.51984,-0.12146c0.3785,0.35689 0.33126,0.92387 0.33126,0.92387c-0.19729,2.34751 -0.33801,4.62012 -0.84184,6.93917c-0.3677,1.69246 -0.82919,3.21891 -0.91237,4.96589c-0.08594,1.80469 0.36513,3.45549 0.45449,5.2329c0.21183,0.39187 0.09906,0.84294 0.09906,0.84294c-0.71149,2.77107 -0.849,6.1414 -0.57363,9.00126l0.32567,1.06776c0,0 0.31974,1.06579 -0.74605,1.38552z" fill="#c5d8e2" stroke="none" stroke-width="0.5"/><path d="M338.26529,196.81623c0.55206,0.9661 -0.41405,1.51817 -0.41405,1.51817l-0.70432,0.39257c-0.20077,0.15057 -2.1855,1.63959 -2.19573,1.64427c-1.56488,0.71604 -3.83136,0.33519 -5.49957,0.33519c-5.5147,0 -10.79078,-0.90427 -16.26356,-1.41003c-1.86723,-0.17256 -4.65295,0.67264 -5.82542,-1.45259c-0.28301,-0.51298 0.01062,-1.17168 0.01592,-1.75752c0,0 0.11072,-1.10719 1.21791,-0.99647c1.10719,0.11072 0.99647,1.21791 0.99647,1.21791c-0.07277,0.19502 -0.27453,0.38462 -0.21834,0.58504c0.12591,0.44905 0.92076,0.1725 1.38699,0.18384c1.36892,0.0333 2.6041,0.06581 3.96069,0.24272c4.91376,0.64081 9.77512,1.16167 14.72933,1.16167c1.23406,0 3.42638,0.4411 4.57343,-0.13332c0.6767,-0.33889 1.18118,-0.94694 1.78661,-1.40105l0.93546,-0.54445c0,0 0.96611,-0.55206 1.51817,0.41405z" fill="#c5d8e2" stroke="none" stroke-width="0.5"/><path d="M308.27933,174.96349c0,0.55635 -0.55636,0.55636 -0.55636,0.55636l-0.0633,-0.00164c-1.4002,0.1069 -2.73958,0.07648 -4.09959,-0.29635c-0.52443,-0.2418 -0.91524,-0.3392 -1.27185,-0.83758c-0.75099,-1.04958 -0.84688,-3.29414 -0.79059,-4.53269c0.00978,-0.21525 0.11731,-1.31115 0.18364,-1.42497c0.782,-1.34185 3.00887,-1.60835 4.34351,-1.48828c0,0 0.55407,0.05037 0.5037,0.60445c-0.05037,0.55408 -0.60444,0.5037 -0.60444,0.5037c-0.92251,-0.08481 -2.72467,0.01647 -3.28652,0.94909c-0.14254,0.2366 -0.02732,1.17987 -0.02774,1.46407c-0.00182,1.24349 0.09192,3.16565 1.32812,3.71561c1.20011,0.32513 2.40313,0.32914 3.63642,0.23351l0.14865,-0.00163c0,0 0.55636,0 0.55636,0.55635z" fill="#b0c1ca" stroke="none" stroke-width="0.5"/><path d="M349.97138,194.00981c0.12547,0.6002 0.93348,1.05591 1.13784,1.63867c0.34842,0.9935 -0.7481,0.79574 -1.29993,0.58822c-0.9158,-0.34439 -2.22887,-2.94441 -1.34665,-3.3903c-0.02356,-0.06151 -0.04288,-0.12803 -0.05752,-0.19968l-0.0589,-0.10262c-0.78536,-1.40054 -2.27998,-2.45476 -3.3133,-3.67191c-1.33954,-1.57784 -2.60161,-2.98513 -4.15543,-4.38345c0.90336,-0.19941 1.47878,-0.88584 2.44581,-1.23235c0.70203,0.76954 1.59338,1.34192 2.29662,2.13657c1.54569,1.74662 3.05979,3.36445 4.3079,5.34303c0.38465,-0.15598 0.72977,-0.17462 0.87947,0.07014c0.20122,-0.01666 0.40526,-0.00554 0.59403,0.03875c0.54067,0.12685 3.42079,1.76954 1.5057,2.1564c-0.03754,0.00759 -0.07697,0.00868 -0.11488,0.0032c-0.62842,-0.09094 -1.16778,-0.32921 -1.6963,-0.50147c-0.01694,0.02975 -0.0369,0.05904 -0.06024,0.08778c-0.3153,0.38827 -0.73955,0.66386 -1.15666,0.78823c0.02978,0.21615 0.05147,0.43472 0.09246,0.6308zM343.90374,185.20499c-0.52606,-0.47747 -1.03115,-0.82515 -1.48618,-1.31c-0.08316,0.09136 -0.17947,0.17047 -0.28498,0.2368c1.35848,1.27761 2.5176,2.58704 3.7432,4.014c0.94133,1.09599 2.16985,2.06635 3.03937,3.24567c0.02339,-0.02124 0.0473,-0.04236 0.07164,-0.06331c-1.38259,-2.22036 -3.15121,-4.36975 -5.08305,-6.12314z" fill="#b0c1ca" stroke="none" stroke-width="0.5"/><path d="M341.59695,185.85161c-0.0442,0.01295 -0.08591,0.02202 -0.1243,0.02687c-0.66181,0.08372 -1.45332,-0.48847 -1.64713,-1.10388c-0.18144,-0.57615 -0.10172,-1.04775 0.13838,-1.41621c-0.18089,-0.53843 -0.37324,-1.038 -0.48337,-1.62126c-1.05116,-3.46437 -0.99217,-7.41976 -2.63898,-10.65111c0,0 -0.25108,-0.49648 0.2454,-0.74755c0.49648,-0.25107 0.74755,0.24541 0.74755,0.24541c1.67571,3.33623 1.65399,7.32675 2.7273,10.89071c0.0751,0.41557 0.19775,0.78254 0.32674,1.1553c0.18096,-0.07765 0.37404,-0.13828 0.57239,-0.18202c-0.25471,-0.67475 -0.37066,-1.34305 -0.53702,-2.06556c-0.24984,-2.12538 -0.73499,-4.24717 -0.99853,-6.37767c-0.17167,-1.38778 -0.07619,-3.59594 -0.99963,-4.71804c0,0 -0.199,-0.25603 -0.09768,-0.52909c0.31104,-0.07507 0.62041,-0.14235 0.92901,-0.20477c0.03061,0.02965 0.04722,0.05102 0.04722,0.05102c1.04816,1.40113 1.01865,3.585 1.22563,5.26647c0.25996,2.1118 0.73484,4.21468 0.99009,6.32064c0.1771,0.76453 0.27596,1.45726 0.61124,2.17327l0.00672,0.02095c0.30712,0.03555 0.59331,0.11363 0.8307,0.23387c0,0 0.12839,0.0688 0.21858,0.20167c-0.34381,1.18654 -0.00373,2.25263 -1.1039,3.17911c-0.32431,0.05427 -0.69022,0.00681 -0.98646,-0.1481z" fill="#b0c1ca" stroke="none" stroke-width="0.5"/><path d="M332.13488,215.79231c0.55205,-0.06901 0.62107,0.48305 0.62107,0.48305l0.04919,0.39529c0.01109,0.07252 0.02323,0.14467 0.03627,0.21649c-0.38217,-0.07449 -0.76708,-0.13859 -1.15437,-0.1933l-0.03521,-0.28047c0,0 -0.06901,-0.55206 0.48305,-0.62107z" fill="#cdd0e0" stroke="none" stroke-width="0.5"/><path d="M314.29291,214.30021c0,-0.12291 0.09963,-0.22254 0.22254,-0.22254c0.12291,0 0.22254,0.09964 0.22254,0.22254c0,0.12291 -0.09964,0.22254 -0.22254,0.22254c-0.12291,0 -0.22254,-0.09964 -0.22254,-0.22254z" fill="#6b767b" stroke="none" stroke-width="0.5"/><g stroke="none"><path d="M333.17435,220.19153c-0.15736,-0.15736 0,-0.31473 0,-0.31473l0.20776,-0.1549c1.2413,-0.24293 2.63513,-0.00903 3.88786,-0.00145c0.41998,0.13619 1.04475,0.1899 1.38293,0.47758c0.05994,0.051 0.13331,0.14111 0.20532,0.24417c-0.10002,-0.42907 -0.18344,-1.00193 -0.24331,-1.40936l-0.09967,-0.13288c-0.02876,-0.0375 -0.04586,-0.08442 -0.04586,-0.13532c0,-0.12291 0.09964,-0.22255 0.22254,-0.22255c0.06145,0 0.11709,0.02492 0.15736,0.06519l0.2351,0.2351c0.18649,0.18685 0.32298,0.49767 0.38483,0.66245c-0.12261,-0.48868 0.18398,-1.09778 -0.11562,-1.5564c-0.05012,-0.06774 -0.12462,-0.12299 -0.15038,-0.20323c-0.3739,-1.16413 0.6359,-0.38305 0.98782,-0.07399c-0.0597,-0.13416 -0.10968,-0.33429 -0.11219,-0.34272c-0.07335,-0.24607 -0.15275,-0.51769 -0.35572,-0.69837c-0.33692,-0.29991 -1.47844,-0.56262 -1.89948,-0.55922c-1.66703,-0.32764 -3.49772,0.07734 -5.1173,-0.38364c0,0 -0.21398,-0.06114 -0.15285,-0.27511c0.06113,-0.21398 0.27512,-0.15285 0.27512,-0.15285c1.58954,0.45601 3.3994,0.03342 5.03889,0.36868c1.11975,0.00806 2.86433,0.71941 2.7856,2.08031c-0.05345,0.92396 -0.60789,0.42507 -0.89321,0.08014c0.15528,0.44822 0.45439,2.09668 0.0761,2.25132c-0.15165,0.06199 -0.31023,-0.01883 -0.46064,-0.15496c0.15801,0.58647 0.23002,1.25446 0.0529,1.41893c-0.12436,0.11548 -0.33504,0.1594 -0.49723,0.10944c-0.24555,-0.07563 -0.37384,-0.69914 -0.57623,-0.8846c-0.24708,-0.22642 -0.83506,-0.25785 -1.15613,-0.36876c-1.19759,0.00799 -2.54457,-0.24453 -3.72928,-0.00145l0.01967,0.03318c0,0 -0.15736,0.15736 -0.31472,0z" fill="#6b767b" stroke-width="0.5"/><path d="M333.28469,219.94013c0,0 -0.04702,-1.85621 -0.04702,-2.63308c0,-0.63719 0.18808,-1.73972 0.18808,-1.73972c0,0 4.83867,0.20088 6.00599,0.51638c0.49123,0.13277 0.95287,1.3644 0.95287,1.3644c0,0 -0.88606,0.87988 -0.76709,1.68093c0.11606,0.78146 -0.69051,1.18725 -0.69051,1.18725c0,0 -1.80682,-0.58751 -2.7215,-0.64849c-0.96355,-0.06423 -2.92083,0.27233 -2.92083,0.27233z" fill="#606a6e" stroke-width="0"/><path d="M333.30389,216.60871c-0.05397,-0.2159 0.16192,-0.26988 0.16192,-0.26988l0.24205,-0.05366c0.31346,0 0.62692,0 0.94039,0c1.57422,0 2.97603,0.5908 4.51049,0.89769c0,0 0.21822,0.04364 0.17457,0.26187c-0.04364,0.21822 -0.26187,0.17458 -0.26187,0.17458c-1.50517,-0.30104 -2.88215,-0.88905 -4.4232,-0.88905c-0.31346,0 -0.62692,0 -0.94039,0l-0.1341,0.04038c0,0 -0.2159,0.05398 -0.26987,-0.16192z" fill="#303537" stroke-width="0.5"/><path d="M332.96811,218.20041c0,-0.22254 0.22254,-0.22254 0.22254,-0.22254l0.05039,0.00432c0.32175,-0.06435 0.62092,-0.17001 0.94039,-0.2351c1.37661,-0.2694 3.48508,0.0526 4.59699,0.88653c0,0 0.17803,0.13353 0.04451,0.31156c-0.13353,0.17803 -0.31156,0.04451 -0.31156,0.04451c-1.00266,-0.752 -2.99585,-1.06198 -4.24264,-0.80617c-0.31827,0.06225 -0.61935,0.17089 -0.94039,0.2351l-0.13769,0.00432c0,0 -0.22254,0 -0.22254,-0.22254z" fill="#303537" stroke-width="0.5"/></g><path d="M306.52282,199.78407c-0.17361,-0.2755 -0.17361,-0.58685 -0.17361,-0.58685v-0.48856c0.00087,-1.29442 -0.2196,-3.18255 1.18778,-3.98116c1.15463,-0.65518 3.4435,0.57776 4.64298,0.79895c4.12583,0.76081 8.22574,1.52935 12.43343,1.52935c2.83322,0 5.53193,-0.17386 8.33437,-0.56097c0.80241,-0.11084 3.09131,-0.80843 3.8124,-0.54515c2.02823,0.74054 2.01613,4.40781 0.70231,5.82024c-0.24783,0.26642 -2.0132,0.77205 -2.4575,0.90874c-2.19182,0.67428 -4.12051,0.77713 -6.40161,0.77713c-3.36271,0 -6.86554,0.28099 -10.20898,-0.08769c-3.81466,-0.42065 -7.6692,-1.53719 -11.24037,-2.91046c0,0 -0.5087,-0.19566 -0.6312,-0.67356z" fill="#606a6e" stroke="none" stroke-width="0.5"/><g stroke="none" stroke-width="0.5"><path d="M303.29945,178.99219c-0.00471,-0.22249 0.21779,-0.2272 0.21779,-0.2272c0.26718,-0.00565 0.62342,-0.01319 0.8906,-0.01884c1.79095,-0.03391 2.84437,-1.19185 3.67365,-2.64268c0,0 0.11044,-0.19321 0.30365,-0.08277c0.19321,0.11043 0.08277,0.30364 0.08277,0.30364c-0.90879,1.58997 -2.1073,2.82184 -4.05065,2.8668c-0.26718,0.00565 -0.53437,0.0113 -0.80156,0.01696l-0.08906,0.00189c0,0 -0.22249,0.00471 -0.2272,-0.21779z" fill="#3a53e0"/><path d="M308.96215,175.89908c0.21256,0.06589 0.14667,0.27846 0.14667,0.27846l-0.04791,0.15197c-0.18816,0.45227 -0.48579,0.80287 -0.82464,1.15637c-1.15343,1.20329 -2.98177,2.47692 -4.69265,2.52566c0,0 -0.22249,0.00471 -0.2272,-0.21779c-0.00471,-0.22249 0.21779,-0.2272 0.21779,-0.2272c1.57761,-0.01924 3.32238,-1.28454 4.38075,-2.38867c0.29445,-0.30718 0.57937,-0.61855 0.73324,-1.01501l0.03549,-0.11711c0,0 0.06589,-0.21257 0.27846,-0.14668z" fill="#3ae054"/><path d="M306.9862,176.85786c0.18774,0.1195 0.06823,0.30724 0.06823,0.30724l-0.18515,0.28887c-0.33297,0.32712 -0.81535,0.39164 -1.25984,0.23116c-0.20598,-0.07437 -0.40583,-0.47683 -0.56818,-0.32985c-0.13805,0.12499 0.15394,0.608 0.10114,0.77142c-0.22322,0.69085 -0.88501,0.33261 -1.3182,0.44896c0,0 -0.21725,0.04826 -0.2655,-0.16899c-0.04825,-0.21725 0.16899,-0.26551 0.16899,-0.26551c0.18363,-0.03576 0.90451,0.1732 0.98609,-0.1344c0.09869,-0.37214 -0.44754,-0.61941 0.06346,-1.00979c0.54113,-0.41342 1.24513,0.77251 1.74195,0.18217l0.15978,-0.25303c0,0 0.1195,-0.18774 0.30724,-0.06824z" fill="#e03a3a"/></g><g stroke="none"><path d="M305.39531,220.14919c-0.10084,-0.19838 0.09754,-0.29923 0.09754,-0.29923l0.24554,-0.08288c1.25547,0.15374 2.50818,0.80811 3.69687,1.20358c0.35709,0.25965 0.93445,0.50435 1.16682,0.88267c0.04118,0.06707 0.08301,0.17548 0.11954,0.29578c0.03789,-0.43894 0.13612,-1.00945 0.20547,-1.41537l-0.05358,-0.15723c-0.01572,-0.04457 -0.01744,-0.09448 -0.00166,-0.14287c0.03809,-0.11686 0.16371,-0.18071 0.28056,-0.14262c0.05842,0.01905 0.1036,0.05998 0.12941,0.11075l0.15066,0.29639c0.1194,0.23545 0.15284,0.57327 0.16057,0.7491c0.03488,-0.50262 0.51515,-0.98671 0.37244,-1.5156c-0.02666,-0.07994 -0.08037,-0.15556 -0.07999,-0.23983c0.00531,-1.22269 0.72331,-0.16711 0.96211,0.23581c-0.01518,-0.14606 -0.00067,-0.35182 -0.00045,-0.36062c0.00653,-0.25669 0.01522,-0.53954 -0.12176,-0.77423c-0.22738,-0.38956 -1.23127,-0.99313 -1.63263,-1.12038c-1.4834,-0.82817 -3.34946,-1.01051 -4.74643,-1.95074c0,0 -0.18449,-0.12445 -0.06006,-0.30894c0.12444,-0.1845 0.30895,-0.06006 0.30895,-0.06006c1.36994,0.9262 3.22166,1.08534 4.67651,1.91222c1.06212,0.3547 2.50033,1.57172 2.00369,2.84121c-0.33718,0.8619 -0.7097,0.21574 -0.87407,-0.20064c0.00872,0.47428 -0.2178,2.13427 -0.62539,2.16405c-0.1634,0.01194 -0.28912,-0.11405 -0.38993,-0.29009c-0.03153,0.60656 -0.1701,1.26398 -0.38947,1.36546c-0.15403,0.07125 -0.36795,0.04771 -0.50666,-0.05005c-0.21002,-0.14801 -0.13875,-0.78058 -0.27369,-1.01963c-0.16474,-0.29185 -0.71403,-0.50396 -0.98491,-0.70892c-1.1411,-0.36357 -2.34349,-1.02112 -3.5452,-1.15718l0.00842,0.03764c0,0 -0.19838,0.10084 -0.29922,-0.09754z" fill="#6b767b" stroke-width="0.5"/><path d="M305.57814,219.94436c0,0 0.53059,-1.77938 0.77136,-2.518c0.19748,-0.60581 0.71801,-1.59577 0.71801,-1.59577c0,0 4.53816,1.69062 5.55022,2.35237c0.42589,0.27848 0.48309,1.59254 0.48309,1.59254c0,0 -1.11513,0.56194 -1.25028,1.36042c-0.13185,0.77895 -1.02447,0.91478 -1.02447,0.91478c0,0 -1.53577,-1.11856 -2.38651,-1.46003c-0.8962,-0.3597 -2.86141,-0.64632 -2.86141,-0.64632z" fill="#606a6e" stroke-width="0"/><path d="M306.62889,216.78293c0.0156,-0.222 0.23759,-0.20641 0.23759,-0.20641l0.24676,0.024c0.29803,0.09715 0.59605,0.1943 0.89409,0.29145c1.49671,0.48789 2.64639,1.48406 4.01018,2.25141c0,0 0.19395,0.10912 0.08481,0.30308c-0.10912,0.19395 -0.30308,0.08482 -0.30308,0.08482c-1.33776,-0.75271 -2.46469,-1.73853 -3.92986,-2.21614c-0.29803,-0.09715 -0.59605,-0.1943 -0.89409,-0.29145l-0.14001,-0.00317c0,0 -0.222,-0.01559 -0.2064,-0.23759z" fill="#303537" stroke-width="0.5"/><path d="M305.81633,218.19219c0.06897,-0.21158 0.28055,-0.14261 0.28055,-0.14261l0.04657,0.01972c0.32585,0.03854 0.64304,0.0308 0.96695,0.06793c1.39232,0.17051 3.29717,1.13013 4.09588,2.26761c0,0 0.12788,0.18213 -0.05424,0.31001c-0.18213,0.12788 -0.31001,-0.05424 -0.31001,-0.05424c-0.72022,-1.02572 -2.5192,-1.93818 -3.78388,-2.08138c-0.32189,-0.03946 -0.64182,-0.02948 -0.96695,-0.06793l-0.13225,-0.03857c0,0 -0.21158,-0.06897 -0.14261,-0.28055z" fill="#303537" stroke-width="0.5"/></g><path d="M339.65022,168.1521c0,0.99605 -7.38246,1.80351 -16.48918,1.80351c-9.10672,0 -16.48918,-0.80746 -16.48918,-1.80351c0,-0.39774 -2.02903,-2.65481 -0.03491,-2.953c2.99962,-0.44855 11.85545,-1.42694 17.32564,-1.42694c9.10672,0 15.68762,3.38389 15.68762,4.37994z" fill="#c5d8e2" stroke="none" stroke-width="0"/><path d="M308.34645,170.62618c1.69752,4.50185 -4.3459,6.52142 -5.88492,2.31297c-1.02594,-2.80543 0.17852,-5.4545 2.06283,-5.52148c0.15751,-0.02946 0.32035,-0.0449 0.48699,-0.0449c1.21292,0 2.2241,0.81812 2.45195,1.90353c0.2613,0.34596 0.52192,0.7453 0.7792,1.20221z" fill="#a1b9c7" stroke="none" stroke-width="0.5"/><path d="M296.63911,236.72631v-111.84076h47.29829v111.84077z" fill="none" stroke-opacity="0.01176" stroke="#ffffff" stroke-width="0.5"/></g></g></svg>