<svg version="1.1" xmlns="http://www.w3.org/2000/svg" xmlns:xlink="http://www.w3.org/1999/xlink" width="21.84773" height="24.71755" viewBox="0,0,21.84773,24.71755"><g transform="translate(-299.32918,-151.74853)"><g data-paper-data="{&quot;isPaintingLayer&quot;:true}" fill-rule="nonzero" stroke="none" stroke-linecap="butt" stroke-linejoin="miter" stroke-miterlimit="10" stroke-dasharray="" stroke-dashoffset="0" style="mix-blend-mode: normal"><path d="M302.10735,174.4096c0.01117,-0.90847 -0.76971,-0.5416 -1.14411,-0.92539c-0.25367,-0.26003 -0.0667,-1.00743 -0.20541,-1.29932c-0.23919,-0.50332 -0.92539,-1.03048 -1.42865,-1.47104c0.24026,-0.06124 0.48234,-0.1168 0.72653,-0.16585c2.74429,-1.08813 3.98839,-3.00655 3.36477,-6.03874c-0.1498,-0.72838 -0.80436,-1.43037 -0.80859,-2.13452c-0.092,-2.35998 -1.91243,-2.59869 -2.3767,-4.38864c-0.3118,-1.20212 2.30646,-2.36472 3.03058,-3.03731c0.45213,-0.42226 1.21163,-0.70149 1.45546,-1.29285c0.15713,-0.3811 0.27539,-0.98993 0.33221,-1.68486h12.54384c0.01577,0.44976 0.01149,0.90999 0.01149,1.37813c0,2.09714 2.17762,1.37583 3.23944,2.90714c0.9043,1.30413 -0.27151,2.52261 -0.95636,3.64503l-0.07511,-0.04507l-0.20892,0.3482c-2.08676,0.53657 -4.1394,1.63726 -6.16368,2.32365l-0.02341,0.02394l-0.00507,-0.00764l-0.31994,0.21217c-0.06923,0.04446 -0.1151,0.12213 -0.1151,0.21052c0,0.11246 0.07426,0.20758 0.17641,0.23899l0.46887,0.15629l0.01871,-0.05613c1.79042,0.6956 4.11482,0.82219 3.19086,3.44646c-0.10633,0.30201 -1.92562,1.22159 -2.2932,1.57387c-1.71204,1.30171 0.43189,3.20433 -0.65017,4.20317c-0.89368,0.82494 -4.09696,0.68362 -5.28953,0.8774c-0.38407,0.12092 -1.17372,0.29508 -1.49591,0.506c-0.30022,0.19653 -0.3257,1.04969 -0.53989,1.12351c-1.7678,0.60923 -3.59657,0.67437 -5.38013,1.25707l-0.08722,-0.01134c0,0 -0.1657,0.00149 -0.22608,0.13695c-0.48753,-0.69685 1.22539,-1.30755 1.23403,-2.00978z" fill="#8b8b8b" stroke-width="0"/><path d="M305.72487,159.99674c0,0 0.83205,0.5547 0.27735,1.38675c-0.5547,0.83205 -1.38675,0.27735 -1.38675,0.27735c-0.20845,-0.13913 -0.44926,-0.30415 -0.71175,-0.47553c-0.03486,0.37935 -0.31066,0.65515 -0.31066,0.65515c-0.29716,0.29317 -0.62173,0.54455 -0.95498,0.78057c-0.01635,-0.0821 -0.02568,-0.16418 -0.02618,-0.24628c-0.03122,-0.80088 -0.26149,-1.35746 -0.57026,-1.81328c0.04608,-0.04403 0.09182,-0.08907 0.13721,-0.13522c0,0 0.0549,-0.0549 0.14939,-0.1188c-0.22261,-0.09498 -0.44645,-0.17463 -0.66739,-0.23143c-0.51853,-0.59049 -1.10802,-1.08058 -1.38018,-1.93257c1.81512,-0.34025 3.6951,0.68854 5.4442,1.85329z" fill="#6a6a6a" stroke-width="0.5"/><path d="M303.18089,175.27624c-0.75229,0.37614 -1.18821,-0.19682 -1.30776,-0.38842c0.13767,-0.15593 0.23221,-0.31459 0.23423,-0.47821c0.00806,-0.65517 -0.39583,-0.64704 -0.76211,-0.73552c-0.35,-1.18933 -0.40711,-2.44232 -0.19984,-3.64782c1.71653,-0.9924 2.57197,-2.46775 2.4146,-4.5431c0.38265,-0.35785 0.80548,-0.67873 1.26632,-0.95418c0,0 0.86824,-0.49614 1.36438,0.3721c0.49614,0.86824 -0.3721,1.36438 -0.3721,1.36438c-2.3959,1.27844 -3.41365,4.70202 -2.45315,7.1561l0.26266,0.51303c0,0 0.44721,0.89443 -0.44721,1.34164z" fill="#6a6a6a" stroke-width="0.5"/><path d="M301.60877,174.35989l-0.03093,-0.06295c0.01769,0.02153 0.02853,0.04262 0.03093,0.06295z" fill="#6a6a6a" stroke-width="0.5"/><path d="M301.29025,169.35172c0.32211,-1.24716 0.93175,-2.41839 1.79558,-3.38373c0.00589,1.49381 -0.61558,2.58146 -1.79558,3.38373z" fill="#6a6a6a" stroke-width="0.5"/><path d="M308.591,169.1064c0.5547,0.83205 -0.27735,1.38675 -0.27735,1.38675l-0.69959,0.41657c-0.32937,0.84002 -0.48985,1.98104 -0.18575,2.85015c-0.12784,0.04856 -0.23983,0.09976 -0.32167,0.15333c-0.30022,0.19653 -0.3257,1.04969 -0.53989,1.12351c-0.19565,0.06743 -0.39205,0.12819 -0.58905,0.18372c-1.02452,-1.65162 -0.7454,-3.68751 0.09876,-5.5897l1.12778,-0.80168c0,0 0.83205,-0.5547 1.38675,0.27735z" fill="#6a6a6a" stroke-width="0.5"/><path d="M308.09457,174.67956c0,0 0.76822,0.64018 0.12804,1.40841c-0.64018,0.76822 -1.40841,0.12804 -1.40841,0.12804c-0.18314,-0.16647 -0.34742,-0.33932 -0.49393,-0.51779c0.16578,-0.06595 0.32855,-0.13993 0.48769,-0.22354c0.5454,-0.28652 0.6584,-0.69201 1.00083,-1.05077c0.08398,0.09448 0.17896,0.18024 0.28578,0.25565z" fill="#6a6a6a" stroke-width="0.5"/><path d="M303.68666,155.3921c0,0 0.86824,0.49614 0.3721,1.36438c-0.49614,0.86824 -1.36438,0.3721 -1.36438,0.3721l-0.8265,-0.51087c-0.34958,0.01218 -0.69158,0.03675 -1.02371,0.07677c0.67909,-0.63253 1.73063,-1.19846 2.26593,-1.6148z" fill="#6a6a6a" stroke-width="0.5"/><path d="M312.62232,167.81446c-0.89443,0.44721 -1.34164,-0.44721 -1.34164,-0.44721l-0.26952,-0.65379c-0.74106,-0.30195 -1.61915,-0.31491 -2.27046,-0.77982c-4.40191,-3.1421 0.95533,-5.64335 2.08314,-8.14084c0,0 0.44721,-0.89443 1.34164,-0.44721c0.89443,0.44721 0.44721,1.34164 0.44721,1.34164c-0.58825,1.10864 -4.26325,3.17468 -3.46079,4.83546c0.50771,1.05076 2.31815,1.25828 3.27347,1.77656l0.64416,1.17358c0,0 0.44721,0.89443 -0.44721,1.34164z" fill="#6a6a6a" stroke-width="0.5"/><path d="M317.8558,160.04785c-0.19807,0.20921 -0.21836,0.49079 -0.19313,0.79459c-0.82244,0.31587 -1.63975,0.67271 -2.4523,1.00881c0.28589,-1.12905 0.57232,-2.41013 1.03002,-2.98257c1.10582,-1.38303 2.861,-2.0858 4.73839,-2.39828c0.39821,0.75416 0.13852,1.47907 -0.2709,2.17266c-1.06686,0.20345 -2.06668,0.5752 -2.85208,1.40478z" fill="#6a6a6a" stroke-width="0.5"/><path d="M317.70062,162.03226c-0.20503,0.70307 -0.71994,1.27668 -1.03746,1.93706c-0.48201,-0.45777 -1.11626,-0.79362 -1.783,-0.95802c0.05802,-0.16765 0.11382,-0.35199 0.16851,-0.54734c0.8877,-0.35763 1.77823,-0.75569 2.67512,-1.10685c0.02646,0.23521 0.03743,0.46735 -0.02317,0.67515z" fill="#6a6a6a" stroke-width="0.5"/><path d="M315.28365,164.64128c-0.56378,-0.24162 -0.63355,-0.68084 -0.60323,-0.98435c0.64971,0.20634 1.27822,0.41323 1.72376,0.75184c-0.20068,0.22858 -0.5645,0.47081 -1.12053,0.23251z" fill="#6a6a6a" stroke-width="0.5"/><path d="M312.22055,152.26175c0.49614,-0.86824 1.36438,-0.3721 1.36438,-0.3721l0.95807,0.55581c0.85466,0.23745 1.97125,0.53885 3.06604,0.64686c-0.00014,0.08536 -0.00028,0.17099 -0.00028,0.2569c0,1.09824 0.5972,1.42353 1.31861,1.70418c-1.72114,0.12625 -3.5552,-0.29614 -5.16085,-0.76481l-1.17387,-0.66244c0,0 -0.86824,-0.49614 -0.3721,-1.36438z" fill="#6a6a6a" stroke-width="0.5"/></g></g></svg>