<svg version="1.1" xmlns="http://www.w3.org/2000/svg" xmlns:xlink="http://www.w3.org/1999/xlink" width="20.71138" height="20.52017" viewBox="0,0,20.71138,20.52017"><g transform="translate(-292.10668,-176.47946)"><g data-paper-data="{&quot;isPaintingLayer&quot;:true}" fill-rule="nonzero" stroke="none" stroke-width="0.5" stroke-linecap="butt" stroke-linejoin="miter" stroke-miterlimit="10" stroke-dasharray="" stroke-dashoffset="0" style="mix-blend-mode: normal"><path d="M305.05278,177.51172l1.39244,0.30448c3.18572,1.47857 10.24175,7.17199 3.65621,9.92977c-2.41503,1.01132 -5.8848,-0.91711 -8.29201,0.32324c-0.17374,0.08952 3.38742,4.02455 3.38979,4.0423c0.29405,2.20792 -3.09189,3.83898 -4.5125,4.66893c-2.85676,0.49599 -6.64655,0.39503 -7.98957,-2.95643c-0.49901,-1.24526 0.39328,-2.66468 0.78938,-3.9464c0.33062,-1.06984 -0.03237,-3.10437 -0.18225,-4.20911c-0.22132,-1.63132 -1.66538,-4.24855 -1.04312,-5.84273c1.52087,-3.89632 8.52578,-3.5369 11.67345,-3.05976c0,0 0.77508,0.11924 1.11818,0.74571z" fill="#131313"/><path d="M300.07197,177.20431c1.11075,-0.27769 12.01636,-0.17937 6.78195,3.97701c-2.85628,2.26803 -4.57144,0.00478 -6.34346,-0.67736c-0.11742,0.02952 -0.24034,0.0452 -0.36692,0.0452c-0.27949,0 -0.54113,-0.07644 -0.76514,-0.20955c-0.03062,0.00412 -0.06133,0.00902 -0.09213,0.01473c-1.67727,0.31126 -0.44921,2.09869 -1.78381,2.86132c-0.43002,0.24573 -0.78619,0.29904 -1.0785,0.21953c-0.04938,0.30484 -0.13552,0.57004 -0.25913,0.76668c0.00858,0.06596 0.01652,0.13421 0.02381,0.20478c0.14353,1.38909 -0.0609,2.91444 0.687,4.16095l0.09959,0.05691c0.03549,0.14196 0.06664,0.27728 0.09365,0.40614c0.1218,0.21686 0.19126,0.46706 0.19126,0.73349c0,0.13501 -0.01784,0.26585 -0.05128,0.3903c0.00527,0.92615 -0.38732,1.18489 -0.92876,1.01713c-0.162,0.05987 -0.33716,0.09257 -0.51996,0.09257c-0.82843,0 -1.5,-0.67157 -1.5,-1.5c0,-0.12048 0.01421,-0.23765 0.04103,-0.34991c-0.46511,-0.66208 -0.84858,-1.43328 -1.01512,-2.18272c-0.16192,-0.72866 -0.03249,-1.63034 0.24586,-2.44473c-0.27223,-0.27155 -0.44067,-0.6471 -0.44067,-1.06199c0,-0.13136 0.01689,-0.25878 0.0486,-0.3802c-0.69708,-1.70919 -0.57239,-3.84725 1.4514,-3.84725c0.24749,0 0.47133,0.07273 0.67107,0.20077c-0.25871,-0.26953 -0.41771,-0.63549 -0.41771,-1.03858c0,-0.43746 0.18727,-0.83118 0.48601,-1.10537c0.84565,-1.17235 2.29103,-0.84849 3.16607,-0.10109c0.51584,-0.13073 1.027,-0.19613 1.47663,-0.19613z" fill="#303030"/><path d="M298.84547,193.23199c0.55926,-0.10206 1.02143,-2.55514 2.36958,-2.63004c2.6549,-0.14749 0.75375,4.36607 -0.0775,5.07857c-1.10927,0.9508 -6.26196,1.07912 -5.75839,-0.76733c-0.03102,-0.12016 -0.04752,-0.24616 -0.04752,-0.37602c0,-0.82843 0.67157,-1.5 1.5,-1.5c0.38484,0 0.73582,0.14492 1.00136,0.38317c0.34099,-0.07001 0.68291,-0.12821 1.01246,-0.18835z" fill="#000000"/><path d="M311.24544,185.09662c0,1.20428 -4.81025,4.2273 -5.82384,2.45352c-0.44211,-0.26093 -0.7387,-0.74219 -0.7387,-1.29272c0,-0.82843 0.67157,-1.5 1.5,-1.5c0.07832,0 0.15523,0.006 0.23031,0.01757c1.97895,-1.15821 4.83223,-1.85231 4.83223,0.32163z" fill="#000000"/><path d="M301.4654,179.58761c0.03295,0.04238 0.06543,0.08423 0.09744,0.12559c0.3816,0.26582 0.7536,0.56392 1.10721,0.87991c-0.00449,-0.02694 -0.00683,-0.05461 -0.00683,-0.08283c0,-0.27614 0.22386,-0.5 0.5,-0.5c0.13807,0 0.26307,0.05596 0.35355,0.14645v0v0v0c0.09048,0.09048 0.14645,0.21548 0.14645,0.35355c0,0.00688 -0.00014,0.01372 -0.00041,0.02053l0.3917,0.17225c0.00674,0.01295 0.01346,0.02578 0.02014,0.03848c0.53949,0.09371 1.27951,0.56041 1.85687,0.97064c-0.04539,-0.08224 -0.06399,-0.15852 -0.06511,-0.22767c-0.17134,-0.13535 -0.30904,-0.25899 -0.44183,-0.41073l-0.08227,0.08227l-0.58445,-0.58445l0.18771,-0.18771c-0.07636,-0.12861 -0.15916,-0.27417 -0.25158,-0.44109l0.51827,0.02313l0.08485,-0.21212l0.48704,0.19482l-0.01683,0.04207l0.10638,0.00475c0.18223,0.17628 0.55766,0.48477 0.9461,0.8414l0.03585,-0.01154c0.23582,0.10728 0.41147,0.30221 0.54497,0.53724l0.20359,-0.1018l0.28773,0.57546c0.03658,0.06948 0.05728,0.14862 0.05728,0.2326c0,0.02523 -0.00187,0.05003 -0.00548,0.07426c0.07591,0.15369 0.11502,0.2981 0.1027,0.42641c-0.14291,1.48833 -1.81668,0.68317 -3.2371,-0.40414c0.02424,0.10497 0.03554,0.21482 0.03229,0.33806l0.18029,0.02576l-0.09637,0.67459c-0.03117,0.24619 -0.24136,0.43657 -0.49601,0.43657c-0.13807,0 -0.26307,-0.05596 -0.35355,-0.14645l-0.58445,-0.58445l0.00468,-0.00468l-0.02369,-0.01541c-0.07134,-0.08961 -0.16288,-0.18513 -0.26898,-0.28558l0.0524,0.20961c0.01151,0.04209 0.01765,0.0864 0.01765,0.13215c0,0.27614 -0.22386,0.5 -0.5,0.5c-0.11961,0 -0.22941,-0.042 -0.31546,-0.11205l-0.48393,-0.38715l0.00569,-0.00711l-0.0268,-0.01076c-0.10157,-0.1013 -0.20202,-0.19865 -0.30096,-0.29289c-0.04293,0.33429 -0.20587,0.61274 -0.55583,0.77891c-0.56553,0.26853 -1.33407,-0.25482 -2.06149,-1.01168l0.30837,0.84802c0.02199,0.05634 0.03406,0.11764 0.03406,0.18176c0,0.20851 -0.12763,0.38721 -0.30903,0.46223c0.17866,0.65369 0.10658,1.25426 -0.52453,1.57217c-0.32013,0.16126 -1.25788,-0.63724 -1.543,-0.8611c-0.29288,-0.22995 -0.54941,-0.43552 -0.77115,-0.63218c-0.04343,0.255 -0.15297,0.38766 -0.31059,0.42149c0.65953,1.19495 1.23739,2.41857 1.67571,3.70371l0.06512,-0.03618l0.48123,0.86622c0.04282,0.07372 0.06733,0.15938 0.06733,0.25076c0,0.27614 -0.22386,0.5 -0.5,0.5c-0.1099,0 -0.21152,-0.03546 -0.29405,-0.09556c0.26591,1.63241 0.02978,2.59965 -2.16997,1.50391c0,0 -0.44721,-0.22361 -0.22361,-0.67082c0.22361,-0.44721 0.67082,-0.22361 0.67082,-0.22361c1.66642,0.83611 0.94809,0.49902 0.57936,-1.30405l-0.35605,-0.62309c-0.04461,-0.07482 -0.07023,-0.16226 -0.07023,-0.25569c0,-0.21477 0.13542,-0.39792 0.32553,-0.46872c-0.72882,-1.21773 -1.279,-2.96266 -1.82237,-3.8689l-0.28584,-0.57109c-0.14888,-0.166 -0.29825,-0.34246 -0.44556,-0.52607c0,0 -0.31235,-0.39043 0.07809,-0.70278c0.39043,-0.31235 0.70278,0.07809 0.70278,0.07809c0.05914,0.07413 0.11562,0.14797 0.16947,0.22106c0.18463,0.07268 0.27695,0.25731 0.27695,0.25731l0.38073,0.76227c0.02054,0.03421 0.04103,0.06843 0.06146,0.10267c-0.0688,-0.20989 -0.16168,-0.50942 -0.27743,-0.91609l-0.02555,0.00639l-0.1921,-0.76839c-0.01151,-0.04209 -0.01765,-0.0864 -0.01765,-0.13215c0,-0.27614 0.22386,-0.5 0.5,-0.5c0.23236,0 0.42769,0.15849 0.4838,0.37327l0.19178,0.67123l-0.00033,0.00009l0.00056,0.00072c0.02239,0.07944 0.04343,0.1566 0.06316,0.23152c1.32863,0.94639 2.88444,3.60418 1.48368,0.79275c-0.19128,-0.38392 -0.41613,-0.75512 -0.685,-1.08933l-0.31046,-0.51524c0,0 -0.25725,-0.42875 0.1715,-0.68599c0.42875,-0.25725 0.68599,0.1715 0.68599,0.1715l0.01869,0.0313c0.04711,0.07796 0.09674,0.15316 0.14851,0.22609c-0.07309,-0.2086 -0.15021,-0.41866 -0.24402,-0.62332l-0.43752,-0.51044c-0.07612,-0.08773 -0.12219,-0.20224 -0.12219,-0.32751c0,-0.27614 0.22386,-0.5 0.5,-0.5c0.13955,0 0.26575,0.05717 0.35645,0.14937l0.39579,0.40185l-0.02664,0.02624l0.07559,0.03166c0.02478,0.04782 0.049,0.09518 0.07269,0.14214l0.09018,0.10521l-0.02648,0.0227c0.02182,0.04442 0.04316,0.08848 0.06403,0.13223c1.52729,0.65994 3.11942,3.26873 2.10864,1.10671c-0.30693,-0.35053 -0.5535,-0.72054 -0.71123,-1.17072l-0.25408,0.06352l-0.1921,-0.76839c-0.01151,-0.04209 -0.01765,-0.0864 -0.01765,-0.13215c0,-0.27614 0.22386,-0.5 0.5,-0.5c0.13687,0 0.2609,0.055 0.35119,0.1441c0.0876,-0.14475 0.24654,-0.24151 0.42808,-0.24151c0.13807,0 0.26307,0.05596 0.35355,0.14645l0.48704,0.48704l-0.0071,0.0071l0.17757,0.18286l-0.02155,0.02093zM303.3049,181.19849l0.14549,-0.23009c-0.00975,-0.00999 -0.01941,-0.01994 -0.02898,-0.02984c-0.07536,0.04553 -0.16371,0.07172 -0.25818,0.07172c-0.01674,0 -0.03329,-0.00082 -0.04961,-0.00243c0.0646,0.06315 0.12838,0.12672 0.19129,0.19063zM298.92105,182.28221c0.00445,0.0218 0.00883,0.04365 0.01313,0.06557l0.0359,-0.01306c-0.01637,-0.0174 -0.03272,-0.03491 -0.04904,-0.05252zM306.31047,181.98917c0.54219,0.40606 0.76627,0.60962 0.1475,-0.00979c-0.04503,0.00954 -0.09515,0.01448 -0.1475,0.00979z" fill="#000000"/><path d="M297.32769,192.16432c-0.25,0 -0.25,-0.25 -0.25,-0.25v-0.07895c0.04564,-1.65206 2.0704,-1.03673 2.48978,-1.95499c0.25911,-0.56734 0.46688,-1.40011 0.64387,-2.01205c0.37556,-0.87784 0.0084,-1.61867 -0.08309,-2.39699c-0.12114,1.698 -0.50903,3.90729 -1.72808,3.35063c0,0 -0.22361,-0.1118 -0.1118,-0.33541c0.1118,-0.22361 0.33541,-0.1118 0.33541,-0.1118c0.78584,0.45191 1.05702,-3.72937 1.06069,-4.42797l-0.07365,-0.34374c-0.00436,-0.01848 -0.00666,-0.03776 -0.00666,-0.05758c0,-0.13807 0.11193,-0.25 0.25,-0.25c0.08815,0 0.16565,0.04563 0.21016,0.11455l0.10023,0.15034c0.31743,0.16872 0.58403,0.25322 0.81283,0.27426c0.18135,-0.05193 0.39057,-0.09235 0.61618,-0.12254c0.80101,-0.44272 1.02572,-1.88268 2.21332,-1.87115c0.19272,0.00187 1.00041,1.50662 1.18169,1.7461l0.21313,0.14388c0.0682,0.04464 0.11326,0.12172 0.11326,0.20932c0,0.12548 -0.09245,0.22937 -0.21295,0.24727l-0.46966,0.07828l-0.01819,-0.10912c-0.69959,0.07675 -1.47617,-0.04345 -2.20176,-0.06802c-0.11803,0.07986 -0.24123,0.14013 -0.36912,0.17385c-0.16573,0.0437 -0.62405,0.06521 -1.07268,0.03177c-0.01606,0.00728 -0.03201,0.01479 -0.04785,0.02253c-0.58206,0.28461 0.06818,3.00072 -0.24069,3.72011c-0.15963,0.54661 -0.40375,1.65376 -0.69915,2.1217c-0.49157,0.77871 -2.46213,0.3857 -2.40522,1.67678v0.07895c0,0 0,0.25 -0.25,0.25zM302.89015,183.6409c0.63405,0.00561 1.24152,0.06335 1.62958,0.15168c-0.25077,-0.31676 -0.49048,-0.64142 -0.69739,-0.9901c-0.08208,-0.13832 -0.03239,-0.61208 -0.10818,-0.47022c-0.19295,0.36115 -0.47407,0.89083 -0.82401,1.30865zM300.35292,184.20148c-0.06249,-0.01625 -0.12039,-0.03456 -0.17219,-0.0551c-0.00143,0.14603 -0.00459,0.32008 -0.01088,0.51394c0.03767,-0.14614 0.09487,-0.29532 0.1773,-0.44851c0.00186,-0.00346 0.00378,-0.0069 0.00577,-0.01032z" fill="#2f2f2f"/></g></g></svg>