<svg version="1.1" xmlns="http://www.w3.org/2000/svg" xmlns:xlink="http://www.w3.org/1999/xlink" width="21.35587" height="65.92466" viewBox="0,0,21.35587,65.92466"><g transform="translate(-309.44627,-181.62295)"><g data-paper-data="{&quot;isPaintingLayer&quot;:true}" fill-rule="nonzero" stroke-linecap="butt" stroke-linejoin="miter" stroke-miterlimit="10" stroke-dasharray="" stroke-dashoffset="0" style="mix-blend-mode: normal"><path d="M330.55214,188.58651v37.97619h-20.85587v-37.97619z" fill="none" stroke-opacity="0.01176" stroke="#000000" stroke-width="0.5"/><path d="M321.76837,181.62295v27.79753h-4.69217v-27.79753z" fill="#ad7e53" stroke="none" stroke-width="0"/><path d="M322.54676,226.47712c-1.42496,0.47499 -2.99066,-1.13676 -3.71835,-0.93772c-1.18236,0.3234 -1.82017,1.96767 -3.34669,0.79993c-1.36396,-1.04339 -2.40271,-5.85148 -1.73689,-8.17147c-1.5644,-4.41689 -0.19317,-10.81848 4.28151,-12.66582l0.38661,-0.22305c1.32113,-0.37746 2.69832,-0.51676 3.98226,-0.01096c1.06884,0.42106 5.92467,7.93445 5.92467,9.48635c0,1.2813 -0.73518,2.67139 -1.78772,3.90916c0.23366,3.14101 -1.39508,6.95014 -3.9854,7.81358z" fill="#0a0a0a" stroke="none" stroke-width="0.5"/><path d="M328.11418,216.16877c0.15951,0.63802 -3.54912,8.92012 -4.31917,9.50026c-2.00247,1.5086 -3.40663,-1.0587 -5.57773,-0.02754c-0.66726,0.31691 -1.85117,1.6803 -2.90206,0.65901c-1.95587,-1.90076 -0.74281,-4.86184 1.44202,-4.5541c0.90159,-0.45505 2.36264,-0.69853 2.82393,-1.22699c0.46004,-0.52701 1.9032,-3.8787 2.79038,-3.28725l0.85514,0.91611c0.01147,-0.00116 0.02291,-0.00218 0.03432,-0.00304c0.02877,-1.6987 0.35974,-3.50468 1.98823,-3.50468c0.99549,0 1.26509,0.39528 1.1854,0.9341c0.70358,-0.50944 1.38682,-0.57679 1.67955,0.59412z" fill="#a45307" stroke="none" stroke-width="0.5"/><path d="M315.23138,219.92626c-0.23161,-2.58538 0.09741,-7.08444 1.01835,-9.67964c1.68341,-4.7438 4.08957,0.45784 5.19613,1.37682c0.59427,0.49354 4.3131,-0.61003 4.84954,1.30522c0.41352,-0.02582 0.78025,0.06001 1.04486,0.30835c0.38567,0.36195 1.15931,0.70508 1.02015,1.21536c0.02068,0.08011 0.03168,0.16411 0.03168,0.25068c0,0.46876 -0.32254,0.8622 -0.7578,0.97047c-0.44534,0.58757 -0.93352,1.22941 -1.03684,1.28845c-0.10474,0.05985 -0.23066,0.07906 -0.36879,0.06904c-0.95628,4.10716 -3.40926,5.02566 -7.62148,5.05596c-0.98807,0.0071 -3.01051,2.26772 -3.78652,0.66072c-0.20072,-0.41565 0.13351,-1.31155 0.62872,-2.10188c-0.1096,-0.14956 -0.1878,-0.38244 -0.218,-0.71954zM322.52681,219.95826c-0.24941,-0.19479 -0.39575,-0.60062 -0.46263,-1.10526c-0.54602,0.51143 -1.11307,0.97946 -1.5951,1.34218c0.79744,0.13834 1.55633,0.12707 2.05774,-0.23692z" fill="#a31607" stroke="none" stroke-width="0.5"/><path d="M325.1778,213.7209c0,0.55229 -0.44772,1 -1,1c-0.08657,0 -0.17057,-0.011 -0.25068,-0.03168l-0.01448,0.00395l-0.02507,-0.01504c-0.15945,-0.04828 -0.30206,-0.1353 -0.41688,-0.25012v0l-0.13392,-0.13393l-0.08271,-0.13784l-0.10461,-0.12205l-0.01681,-0.0336l-0.05475,-0.08212l-0.05756,-0.16117l-0.08053,-0.151l-0.02819,-0.11273l-0.13791,-0.3448l-0.08749,-0.17497l-0.05475,-0.08213l-0.02125,-0.05951l-0.04112,-0.04798l-0.17857,-0.35714l-0.01177,-0.05295l-0.10084,-0.12101l-0.16576,-0.16576l-0.03174,-0.02116l-0.18834,-0.113l-0.00891,0.03562l-0.01585,0.00905l-0.00165,0.00544l-0.13393,0.22322l-0.35348,0.35348l-0.00401,0.00702l-0.00402,0.001l-0.00293,0.00293l-0.00809,-0.00017l-0.48497,0.12124h-0.3125l-0.15595,-0.03898l-0.1147,-0.00883l-0.15792,0.75802v0.3486l0.05021,0.03013l0.03712,0.03712l0.04838,0.02037l0.35715,0.26786l0.04539,0.05586l0.06172,0.03703l0.08929,0.08928l0.04891,0.08152l0.05021,0.02092l0.06846,0.17687l0.09758,0.16263l-0.01431,0.05247l0.03431,0.08866l0.04465,0.35714l-0.00761,0.06274l0.01533,0.0613v0.26786l-0.125,0.5l-0.875,0.5l-0.875,-0.5l-0.125,-0.5v-0.11384l-0.0498,-0.03735l-0.17898,-0.10739l-0.08705,-0.08705l-0.10556,-0.06333l-0.13243,-0.13244l-0.01101,-0.0022l-0.01542,-0.02423l-0.0197,-0.0197l-0.11822,-0.19703l-0.12336,-0.19385l-0.00881,-0.02644l-0.01478,-0.02463l0.00296,-0.01083l-0.1133,-0.33989l-0.01232,-0.16028l-0.03899,-0.15595v-0.41724l-0.02254,0.13521l-0.0066,0.01518l0.00079,0.01654l-0.11451,0.57255v0.77323l0.00623,0.00935l-0.00623,0.02803v0.02786l-0.05573,0.22291l-0.04985,0.2243l-0.01246,0.02492l-0.00697,0.02786l-0.00975,0.00557l-0.14939,0.29879l-0.05916,0.06902l-0.03528,0.08377l-0.07982,0.10644l-0.04896,0.09792l-0.02552,0.02977l-0.01141,0.03751l-0.01803,0.03005l-0.06268,0.31341v0.97241l-0.02986,0.11943v0.15342l-0.05044,0.04834l-0.0447,0.17881l-0.35143,0.20082l-0.28103,0.26933l-0.12752,-0.03587l-0.11502,0.06572l-0.33797,-0.19312l-0.38964,-0.10959l-0.08674,-0.16263l-0.06065,-0.03466l-0.03721,-0.14884l-0.05794,-0.10862l-0.04464,-0.17857v-0.12311l-0.02986,-0.11943v-1.20535l0.00138,-0.00552l-0.00894,-0.01592l0.07232,-0.23761l0.06024,-0.24096l0.01585,-0.00906l0.00166,-0.00544l0.06345,-0.10575l0.01726,-0.09492v-0.44555l0.00951,-0.03804l-0.00657,-0.03866l0.0417,-0.54206v-1.62473l-0.04243,-0.63642l0.00604,-0.03349l-0.00825,-0.03303v-0.28607l-0.03459,-0.24215l0.00741,-0.0716l-0.01746,-0.06982v-0.3125l0.01121,-0.04486l-0.00711,-0.04568l0.03761,-0.41372l-0.00463,-0.00825l0.00767,-0.0252l0.00399,-0.04389l0.07346,-0.21059l0.06493,-0.21337l0.02268,-0.03779l0.00868,-0.02488l0.00861,-0.00393l0.06746,-0.11244l-0.00041,-0.01283l0.02101,-0.02148l0.00592,-0.00987l0.16764,-0.16764l0.16575,-0.16951l0.00979,-0.00603l0.02124,-0.02124l0.01284,0.00027l0.53648,-0.33014l0.0428,-0.01355l0.03409,-0.02922l0.02441,-0.0122l0.0515,-0.08093l0.06238,-0.14816l0.09478,-0.12638l0.00062,-0.01121l0.02181,-0.01869l0.01672,-0.02229l0.17833,-0.14489l0.17446,-0.14954l0.02492,-0.01246l0.008,-0.00651l0.00357,-0.00625l0.00595,-0.00149l0.00476,-0.00387l0.00714,0.00089l0.01001,-0.0025l0.02492,-0.01246l0.2243,-0.04985l0.22291,-0.05573h0.02787l0.02804,-0.00623l0.00934,0.00623h0.00343l0.00935,-0.00623l0.02803,0.00623h0.02787l0.22291,0.05573l0.22431,0.04985l0.02492,0.01246l0.02787,0.00697l0.00557,0.00976l0.03093,0.01546l0.02977,0.02552l0.03751,0.01141l0.22321,0.13393l0.01724,0.01724l0.02296,0.0082l0.06714,0.04477l0.26032,0.08677l0.13495,0.02699l0.59752,0.08536l0.10117,0.04122l0.10853,0.01241l0.67659,0.25372l0.27379,0.07823l0.0811,0.04679l0.09139,0.02031l0.44643,0.22321l0.02157,0.01849l0.02736,0.00769l0.2884,0.16481l0.33231,0.16616l0.04798,0.04112l0.05951,0.02125l0.11413,0.07609l0.42602,0.25562l0.01724,0.01724l0.02296,0.0082l0.13392,0.08928l0.067,0.0737l0.08541,0.05124l0.26785,0.26785l0.02379,0.03965l0.03733,0.02728l0.22321,0.26785l0.08075,0.16727l0.09972,0.15669l0.02217,0.06651l0.11895,0.2379l0.05475,0.08212l0.02125,0.05951l0.04113,0.04798l0.13393,0.26786l0.0092,0.04143l0.02485,0.03439l0.17857,0.44643l0.0093,0.06816l0.03237,0.0607l0.00723,0.0289c0.02348,0.02348 0.04224,0.04224 0.04224,0.04224c0.11482,0.11482 0.20185,0.25743 0.25013,0.41687l0.01504,0.02507l-0.00395,0.01449c0.02068,0.08011 0.03168,0.16411 0.03168,0.25068zM318.40769,211.93147l0.08928,-0.26786l0.03865,-0.06072l0.00214,-0.0096l-0.18927,-0.18927l-0.01086,0.05434l-0.03933,0.39329l-0.09223,1.01449l0.17133,-0.8224l0.02576,-0.05327z" fill="#801105" stroke="none" stroke-width="0.5"/><path d="M323.14066,221.54865c1.52307,2.18288 2.83763,3.83189 3.67028,6.55685c1.13531,3.71544 -1.58527,8.06331 -0.357,11.81593c0.46935,1.43397 0.96003,2.86088 1.44397,4.28999c0.33861,0.99995 1.77583,1.58592 0.47865,2.89072c-1.02261,1.02862 -2.26722,0.04389 -3.04493,-0.62836c-2.05641,-1.77754 -3.34735,-3.93933 -3.31812,-6.82857c0.035,-3.45934 0.55154,-6.6922 0.07869,-10.14274c-0.14409,-1.05142 -0.46527,-2.10599 -1.00019,-3.02257c-0.31993,-0.5482 -1.36935,-0.3046 -1.6073,-1.01156c-0.16417,-0.48774 -0.28769,-1.06604 -0.09015,-1.54125c0.1525,-0.36686 0.77142,-0.53114 0.74822,-0.92775c-0.06917,-0.10621 -0.1262,-0.22279 -0.1685,-0.34848c-0.2699,-0.80188 0.16135,-1.67072 0.96322,-1.94063c0.38986,-0.5857 1.91651,0.42758 2.20316,0.83842z" fill-opacity="0.60392" fill="#fce80a" stroke="none" stroke-width="0.5"/><path d="M322.06403,223.82939c-0.12055,0.61209 -0.68882,1.15034 -0.61032,1.76924c0.14684,1.15758 1.2102,2.42627 1.38417,3.72296c0.55855,4.16326 0.24454,8.59767 0.53624,12.81686c0.13627,1.97107 -0.59553,5.32163 -3.32291,4.94015c-1.84699,-0.25834 -1.28781,-2.50268 -2.51252,-3.3486c-4.88666,-3.37526 -4.59866,-11.37868 -2.42326,-16.08147c0.76809,-1.66045 2.04975,-3.20509 3.61244,-4.1725c0.41181,-0.25494 1.80138,-1.01177 2.19996,-0.65725z" fill-opacity="0.60392" fill="#fcae0a" stroke="none" stroke-width="0.5"/></g></g></svg>