<svg version="1.1" xmlns="http://www.w3.org/2000/svg" xmlns:xlink="http://www.w3.org/1999/xlink" width="14.54415" height="26.68487" viewBox="0,0,14.54415,26.68487"><g transform="translate(-336.12513,-172.48273)"><g data-paper-data="{&quot;isPaintingLayer&quot;:true}" fill-rule="nonzero" stroke="none" stroke-linecap="butt" stroke-linejoin="miter" stroke-miterlimit="10" stroke-dasharray="" stroke-dashoffset="0" style="mix-blend-mode: normal"><path d="M350.57533,199.1676c-0.64096,-0.03382 -1.27846,-0.06359 -1.91504,-0.06359c-1.69351,0.00692 -4.02701,-0.23536 -5.05825,-1.80281c-0.7573,-1.15107 -0.77486,-2.34525 -1.7999,-3.43736c-0.9823,-1.96604 -3.03387,-3.24824 -5.20884,-3.56193c-0.98297,-1.86773 -0.1081,-6.27354 -0.13766,-8.41565c1.54983,-3.15189 3.33397,-5.24192 6.57412,-6.72783c2.38054,-1.38674 4.9482,-1.97968 7.54558,-2.6757z" fill="#8b8b8b" stroke-width="0"/><path d="M339.39946,176.90085c-0.27789,-0.00654 -0.73003,-0.10529 -0.90659,-0.64613c0.70882,-0.15469 1.40703,-0.25979 2.06141,-0.26957c-0.40993,0.28662 -0.79378,0.59143 -1.15482,0.91569z" fill="#6a6a6a" stroke-width="0.5"/><path d="M342.12822,175.79305c-0.27869,0.52096 -1.02632,0.58562 -1.53948,0.87844l-0.16256,0.03622c0.54485,-0.42019 1.14266,-0.80394 1.80665,-1.15621c-0.02705,0.08065 -0.06162,0.16119 -0.10461,0.24155z" fill="#6a6a6a" stroke-width="0.5"/><path d="M341.87905,181.88218c-0.8,-0.6 -0.2,-1.4 -0.2,-1.4l0.25684,-0.00912c0.01774,-1.06148 -0.22305,-2.401 0.93111,-3.13487c0.9475,-0.60247 6.0512,0.17701 5.77675,-2.07279c-0.0511,-0.41893 -1.13821,-1.24324 -1.73735,-1.76303c0.74728,-0.23622 1.50365,-0.44429 2.26509,-0.64723c0.27755,0.22143 0.54753,0.4499 0.76818,0.72477c2.38495,2.97088 -1.63266,5.09944 -4.08429,5.59289c-0.63444,0.1277 -1.30285,-0.26289 -1.93691,-0.1333c-0.46821,0.09569 0.00622,0.95581 0.01743,1.43357l-0.65684,1.20912c0,0 -0.6,0.8 -1.4,0.2z" fill="#6a6a6a" stroke-width="0.5"/><path d="M345.98837,189.00844c0.04804,-0.08511 0.11333,-0.17151 0.19973,-0.25791c0.70711,-0.70711 1.41421,0 1.41421,0l-0.18561,1.98786c-2.27444,0.50255 -5.84993,1.22324 -7.87829,-0.37408c-0.69996,-0.55122 -0.98513,-3.20617 -1.4622,-3.45373c-0.31916,-0.16562 -0.73769,0.11127 -1.0787,-0.00273c-0.30484,-0.10191 -0.58723,-0.22327 -0.84863,-0.36234c0.03595,-0.78504 0.10686,-1.58896 0.17154,-2.34014c0.32817,0.34415 0.74785,0.61857 1.28508,0.79712c0.53443,0.17763 1.20935,-0.03276 1.66236,0.30184c1.08932,0.80457 0.60475,2.78578 1.58343,3.5512c1.1347,0.88745 3.48771,0.50695 5.13711,0.1529z" fill="#6a6a6a" stroke-width="0.5"/><path d="M343.51677,194.25205l-0.40161,1.73856l0.15354,0.24599c-0.06907,-0.00936 -0.13676,-0.01979 -0.20315,-0.03122l-0.00493,0.02133c-0.32281,-0.80443 -0.54999,-1.60803 -1.25848,-2.36288c-0.04018,-0.08042 -0.08215,-0.1597 -0.12585,-0.23782c0.53372,0.28949 1.07904,0.54132 1.84048,0.62603z" fill="#6a6a6a" stroke-width="0.5"/></g></g></svg>