<svg version="1.1" xmlns="http://www.w3.org/2000/svg" xmlns:xlink="http://www.w3.org/1999/xlink" width="60.63979" height="61.63078" viewBox="0,0,60.63979,61.63078"><g transform="translate(-289.76439,-151.97109)"><g data-paper-data="{&quot;isPaintingLayer&quot;:true}" fill-rule="nonzero" stroke="none" stroke-linecap="butt" stroke-linejoin="miter" stroke-miterlimit="10" stroke-dasharray="" stroke-dashoffset="0" style="mix-blend-mode: normal"><path d="M328.49364,160.04626c2.45672,-0.92303 7.00959,-1.66057 9.06318,-3.03154c2.02979,-1.35508 4.80775,-4.36497 7.31153,-4.71845c2.59619,-0.36652 3.88094,1.62613 2.66817,4.05167c-0.3109,0.62179 -7.94804,5.38257 -9.08586,5.93213c-3.05066,1.47345 -6.58587,0.97104 -9.45804,3.30534c-1.75574,1.42694 -3.25632,4.60103 -4.05409,6.73232c-0.34112,0.91134 0.48518,3.83901 -0.46615,4.38262l-0.59575,0.34043c0.20716,1.45583 0.21341,2.99437 0.06273,4.4287c-0.48874,4.65213 -3.48784,7.85393 -2.70144,12.85058c0.22788,1.44791 3.09817,0.59998 4.04865,1.71576c0.80816,0.94871 1.24731,3.87687 2.26119,4.21975c3.00175,1.01513 3.68569,2.66779 6.41605,4.05088c0.21183,0.10731 0.42551,0.20945 0.64082,0.30706c0.65903,0.36896 1.34376,0.63317 2.05295,0.79979c0.09037,0.0306 0.1809,0.06078 0.27156,0.09059c-0.02146,-0.01497 -0.04283,-0.0299 -0.06411,-0.04477c0.70701,0.14629 1.43788,0.19755 2.19138,0.16072c1.07557,0.66499 3.6898,0.07479 4.3666,-0.09441c0.21047,-0.05753 0.43201,-0.08824 0.66073,-0.08824c1.38071,0 2.5,1.11929 2.5,2.5c0,0.07089 -0.00295,0.1411 -0.00874,0.2105c-0.00031,0.02698 -0.00113,0.05399 -0.00247,0.08101c-0.31475,0.01298 -0.63239,0.02092 -0.95423,0.02579c1.82871,0.76595 3.38153,1.93693 2.46835,3.99159c-1.30043,2.92597 -5.4113,0.30776 -7.39407,-0.37668c-5.26918,-1.81889 -8.24873,-2.95514 -12.56536,-6.18622c-0.86998,-0.6512 -2.31086,-0.44169 -3.2043,-1.09458c-1.63675,-1.19609 -2.49743,-5.00962 -4.1268,-5.29297c-3.39215,-0.5899 -4.69126,4.16446 -6.55477,5.9278c-3.3492,3.16917 -18.81306,10.139 -22.07609,4.4287c-0.60472,-1.05826 1.23013,-2.59779 2.05244,-2.85151c3.19154,-0.98472 6.591,-0.59029 9.31214,-2.58004c3.34356,-2.44487 10.39788,-6.0797 12.70806,-9.63384c0.22208,-0.34166 -0.31142,-4.00732 -0.28639,-4.54915c0.12682,-2.74573 2.75456,-5.47422 2.90225,-7.88589c0.08674,-1.41643 0.64814,-3.42909 -0.15089,-4.73615c-0.71697,-1.17283 -1.90776,-1.40044 -1.90776,-3.12617c0,-2.03302 1.64266,-2.87999 1.02077,-5.2691c-0.12903,-0.49572 -1.64202,-0.64971 -2.32308,-1.01235c-2.72292,-1.44986 -4.71822,-3.02077 -6.9708,-5.12786c-0.74547,-0.69733 -2.90434,0.3535 -3.85231,0.29582c-2.84135,-0.1729 -4.36961,-0.85782 -6.6784,-2.46263c-0.01551,-0.01077 -2.69567,-1.68572 -2.61118,-2.36171l-0.01795,-0.08995c-0.03821,0.10046 -0.06341,0.19574 -0.07769,0.28596c-0.76828,-0.38293 -1.3234,-0.75141 -1.44865,-1.06752c-0.5724,-0.45813 -0.93899,-1.16269 -0.93899,-1.95288c0,-1.38071 1.11929,-2.5 2.5,-2.5c0.32066,0 0.62722,0.06037 0.90894,0.17037c1.28862,0.13894 2.64031,1.23991 4.42808,2.40192h-0.00002c1.84639,1.20011 4.26653,1.44504 6.23009,2.41594c0.98196,-0.13256 1.9821,-0.25613 3.01144,0.0012c1.4487,0.36218 2.75482,2.09251 3.70216,2.94794c2.07447,1.87321 6.73143,2.45336 8.16818,4.84794c0.09254,0.15423 0.18018,0.31234 0.26284,0.47382c1.77727,-2.9415 4.27606,-5.44763 6.3851,-6.24004z" fill="#ffebc9" stroke-width="0.5"/><path d="M320.78232,169.98056c-0.52963,-0.58471 -2.23296,-1.22569 -2.98458,-1.82792c-2.71169,-2.17271 -3.6863,-6.00175 -7.13299,-7.60534c-2.56851,-1.19501 -5.3796,-1.32262 -8.1688,-1.6666c-3.40332,-2.01458 -6.99419,-3.79908 -10.8635,-4.57927c0,0 -0.32148,-0.0643 -0.66809,0.03761c-0.22842,-0.78154 -0.37503,-1.58845 -0.68474,-2.36795h58.34298c-0.29084,0.62975 -0.61655,1.24841 -0.94179,1.8683c-0.13626,0.06863 -0.2189,0.13388 -0.2189,0.13388c-2.47048,1.95208 -6.01648,3.42012 -8.66751,5.53157c-1.17597,0.57175 -2.36408,1.12504 -3.60516,1.5848c-3.58833,1.32932 -8.73034,1.41552 -10.7078,5.35867c-0.79408,1.58343 -0.19383,2.67837 -0.39711,4.24819c-0.26836,2.0724 -1.20972,2.81413 -2.11633,4.39269c0.29282,-1.8794 0.36104,-3.40107 -1.18568,-5.10863z" fill="#ad7c29" stroke-width="0"/><path d="M289.76439,212.78202v-0.88409c2.70147,-0.63455 5.05848,-1.45591 7.40933,-2.72929c3.16233,0.15769 6.06083,-0.41358 9.64049,-2.0413c1.61825,-0.90969 4.25984,-1.9923 5.35913,-3.62958c1.69747,-2.52821 2.26612,-5.90633 3.66532,-8.58997c0.31469,-0.60357 0.74587,-1.18427 1.18776,-1.76676c1.52429,3.3541 6.95152,6.43139 9.66318,8.13721c0.85458,0.53759 1.99155,0.53264 2.81594,1.11547c2.09995,1.4846 3.24626,3.68329 5.63314,4.89908c1.38896,0.96397 3.68541,2.56413 5.14629,3.20555c2.23699,0.98218 5.91351,0.70299 8.94342,0.04887c0.35127,0.77067 0.71424,1.52031 1.17579,2.23483z" fill="#ad7c29" stroke-width="0"/><path d="M298.97673,154.38158l2.14796,-0.42959c0,0 -0.31715,1.55581 -0.72894,3.73479c-0.58107,-0.31511 -1.16787,-0.61943 -1.76082,-0.90938c0.16648,-1.37663 0.3418,-2.39582 0.3418,-2.39582z" fill="#91661c" stroke-width="0"/><path d="M301.12469,209.79876l-1.17082,-0.69185c0.22586,-0.02234 0.4518,-0.0491 0.67821,-0.0804c0.2996,0.52931 0.49262,0.77225 0.49262,0.77225z" fill="#91661c" stroke-width="0"/><path d="M295.8264,153.8088c0,0 -0.06957,0.61131 -0.1828,1.6654c-0.05307,-0.02009 -0.1062,-0.04004 -0.15937,-0.05982z" fill="#91661c" stroke-width="0"/><path d="M336.90745,154.62576c0.72032,-0.37383 0.90172,4.17705 2.71082,4.26121c-0.28232,0.20023 -0.55761,0.40581 -0.82387,0.61787c-0.37371,0.18169 -0.74864,0.36153 -1.12611,0.53708c-0.72336,-1.28433 -2.17211,-0.50754 -2.17633,-0.50527c-0.00076,-0.00507 -0.57894,-3.8758 1.4155,-4.91089z" fill="#91661c" stroke-width="0"/><path d="M335.49192,159.53666c0,0 0.00001,0 0.00001,-0.00001v0.00001z" fill="#91661c" stroke-width="0"/><path d="M308.51489,154.50982c0,0 0.87416,-0.48564 1.3598,0.38852c0.48564,0.87416 -0.38851,1.3598 -0.38851,1.3598c-1.71877,0.90439 -2.53034,1.96335 -2.84499,3.13316c-0.69787,-0.11344 -1.40282,-0.19961 -2.11052,-0.27959c0.73843,-1.92827 2.34701,-3.65672 3.98422,-4.60188z" fill="#91661c" stroke-width="0.5"/><path d="M322.32235,165.91501c0.12432,-2.75282 0.13161,-7.20723 3.14758,-7.94107c0,0 0.98995,-0.14142 1.13137,0.84853c0.14142,0.98995 -0.84853,1.13137 -0.84853,1.13137c-0.49601,-0.0779 -0.71882,0.77994 -0.80178,1.27513c-0.30773,1.83698 -0.5353,3.67081 -0.60695,5.52125c-0.58227,1.42541 -0.06961,2.47817 -0.25972,3.94627c-0.19669,1.51888 -0.75488,2.32298 -1.39594,3.26563c-0.33914,-2.61642 -0.49087,-5.28287 -0.36604,-8.04711z" fill="#91661c" stroke-width="0.5"/><path d="M325.90662,206.06677c-0.70711,-0.70711 0,-1.41421 0,-1.41421l-0.05737,0.14423c0.50157,-1.08101 0.873,-2.20707 1.1311,-3.35967c0.5962,0.2833 1.2857,0.38672 1.90086,0.62877c-0.28415,1.22009 -0.68429,2.4153 -1.21661,3.57027l-0.34377,0.43062c0,0 -0.70711,0.70711 -1.41422,0z" fill="#91661c" stroke-width="0.5"/><path d="M315.88284,204.778c-0.65453,-0.65453 -0.09733,-1.30906 -0.01085,-1.40277c0.87387,-2.46364 0.48921,-5.96549 0.26383,-8.98192c0.26585,-0.42247 0.57551,-0.83692 0.8906,-1.25227c0.26553,0.58429 0.64952,1.1602 1.11694,1.7219c0.20719,3.20092 0.49862,6.72939 -0.47389,9.41589l-0.37242,0.49918c0,0 -0.70711,0.70711 -1.41422,0z" fill="#91661c" stroke-width="0.5"/><path d="M313.18546,157.57578c0,0 0.24254,-0.97015 1.21268,-0.72761c0.97015,0.24254 0.7276,1.21268 0.7276,1.21268c-0.48842,1.9522 -0.72088,3.90632 -0.77141,5.86224c-0.5579,-0.77424 -1.15087,-1.52016 -1.86401,-2.15929c0.12242,-1.39329 0.34564,-2.78899 0.69514,-4.18802z" fill="#91661c" stroke-width="0.5"/><path d="M331.77119,156.24314c0,0 0,-1 1,-1c1,0 1,1 1,1c-0.00029,1.7648 -0.0728,3.54976 -0.14719,5.34014c-0.65431,0.18042 -1.33364,0.34591 -2.01617,0.52005c0.07941,-1.96389 0.1637,-3.92318 0.16336,-5.86019z" fill="#91661c" stroke-width="0.5"/></g></g></svg>