<svg version="1.1" xmlns="http://www.w3.org/2000/svg" xmlns:xlink="http://www.w3.org/1999/xlink" width="160.04703" height="160.04703" viewBox="0,0,160.04703,160.04703"><defs><radialGradient cx="240" cy="180" r="80.02351" gradientUnits="userSpaceOnUse" id="color-1"><stop offset="0" stop-color="#ffffff"/><stop offset="1" stop-color="#ffffff" stop-opacity="0"/></radialGradient><linearGradient x1="240" y1="99.97649" x2="240" y2="260.02352" gradientUnits="userSpaceOnUse" id="color-2"><stop offset="0" stop-color="#000000" stop-opacity="0"/><stop offset="1" stop-color="#000000" stop-opacity="0"/></linearGradient></defs><g transform="translate(-159.97648,-99.97649)"><g data-paper-data="{&quot;isPaintingLayer&quot;:true}" fill-rule="nonzero" stroke-width="0" stroke-linecap="butt" stroke-linejoin="miter" stroke-miterlimit="10" stroke-dasharray="" stroke-dashoffset="0" style="mix-blend-mode: normal"><path d="M159.97649,180c0,-44.19577 35.82775,-80.02351 80.02352,-80.02351c44.19577,0 80.02351,35.82775 80.02351,80.02352c0,44.19577 -35.82775,80.02351 -80.02351,80.02351c-44.19577,0 -80.02351,-35.82775 -80.02351,-80.02351z" fill="url(#color-1)" stroke="url(#color-2)"/><path d="M197.73913,180c0,-23.34005 18.92084,-42.26088 42.26089,-42.26088c23.34004,0 42.26088,18.92084 42.26088,42.26089c0,23.34005 -18.92084,42.26089 -42.26088,42.26089c-23.34005,0 -42.26088,-18.92084 -42.26088,-42.26088z" fill="#f1f1f1" stroke="none"/><path d="M209.84761,169.30325c0,-4.00904 3.24997,-7.259 7.259,-7.259c4.00904,0 7.259,3.24997 7.259,7.259c0,4.00904 -3.24997,7.259 -7.259,7.259c-4.00904,0 -7.259,-3.24997 -7.259,-7.259z" fill="#ececec" stroke="none"/><path d="M225.72062,158.85029c0,-6.89554 5.58994,-12.48548 12.48548,-12.48548c6.89554,0 12.48548,5.58994 12.48548,12.48548c0,6.89554 -5.58994,12.48548 -12.48548,12.48548c-6.89554,0 -12.48548,-5.58994 -12.48548,-12.48548z" fill="#ececec" stroke="none"/><path d="M219.52628,189.91882c0,-3.63486 2.94664,-6.58149 6.58149,-6.58149c3.63486,0 6.58149,2.94664 6.58149,6.58149c0,3.63486 -2.94664,6.58149 -6.58149,6.58149c-3.63486,0 -6.58149,-2.94664 -6.58149,-6.58149z" fill="#ececec" stroke="none"/><path d="M239.07719,179.07871c0,-3.42104 2.7733,-6.19435 6.19435,-6.19435c3.42104,0 6.19435,2.7733 6.19435,6.19435c0,3.42104 -2.7733,6.19435 -6.19435,6.19435c-3.42104,0 -6.19435,-2.7733 -6.19435,-6.19435z" fill="#ececec" stroke="none"/><path d="M254.9502,167.36752c0,-6.46791 5.24328,-11.71119 11.71119,-11.71119c6.46791,0 11.71119,5.24328 11.71119,11.71119c0,6.46791 -5.24328,11.71119 -11.71119,11.71119c-6.46791,0 -11.71119,-5.24328 -11.71119,-11.71119z" fill="#ececec" stroke="none"/><path d="M237.72217,202.69466c0,-5.45229 4.41995,-9.87224 9.87224,-9.87224c5.45229,0 9.87224,4.41995 9.87224,9.87224c0,5.45229 -4.41995,9.87224 -9.87224,9.87224c-5.45229,0 -9.87224,-4.41995 -9.87224,-9.87224z" fill="#ececec" stroke="none"/><path d="M248.94943,193.88707c0,-3.4745 2.81664,-6.29113 6.29113,-6.29113c3.4745,0 6.29113,2.81664 6.29113,6.29113c0,3.4745 -2.81664,6.29113 -6.29113,6.29113c-3.4745,0 -6.29113,-2.81664 -6.29113,-6.29113z" fill="#dddddd" stroke="none"/><path d="M233.07641,163.39927c0,-3.42104 2.7733,-6.19435 6.19435,-6.19435c3.42104,0 6.19435,2.7733 6.19435,6.19435c0,3.42104 -2.7733,6.19435 -6.19435,6.19435c-3.42104,0 -6.19435,-2.7733 -6.19435,-6.19435z" fill="#dddddd" stroke="none"/><path d="M223.39774,177.62691c0,-1.87088 1.51665,-3.38753 3.38753,-3.38753c1.87088,0 3.38753,1.51665 3.38753,3.38753c0,1.87088 -1.51665,3.38753 -3.38753,3.38753c-1.87088,0 -3.38753,-1.51665 -3.38753,-3.38753z" fill="#dddddd" stroke="none"/><path d="M203.45969,185.95056c0,-4.22285 3.4233,-7.64615 7.64615,-7.64615c4.22285,0 7.64615,3.4233 7.64615,7.64615c0,4.22285 -3.4233,7.64615 -7.64615,7.64615c-4.22285,0 -7.64615,-3.4233 -7.64615,-7.64615z" fill="#dddddd" stroke="none"/><path d="M215.84838,153.13988c0,-2.13815 1.73331,-3.87147 3.87147,-3.87147c2.13815,0 3.87147,1.73331 3.87147,3.87147c0,2.13815 -1.73331,3.87147 -3.87147,3.87147c-2.13815,0 -3.87147,-1.73331 -3.87147,-3.87147z" fill="#dddddd" stroke="none"/><path d="M224.75276,209.46973c0,-5.13157 4.15996,-9.29152 9.29152,-9.29152c5.13157,0 9.29152,4.15996 9.29152,9.29152c0,5.13157 -4.15996,9.29152 -9.29152,9.29152c-5.13157,0 -9.29152,-4.15996 -9.29152,-9.29152z" fill="#dddddd" stroke="none"/><path d="M255.33735,158.36636c0,-4.38321 3.5533,-7.93651 7.93651,-7.93651c4.38321,0 7.93651,3.5533 7.93651,7.93651c0,4.38321 -3.5533,7.93651 -7.93651,7.93651c-4.38321,0 -7.93651,-3.5533 -7.93651,-7.93651z" fill="#dddddd" stroke="none"/></g></g></svg>