<svg version="1.1" xmlns="http://www.w3.org/2000/svg" xmlns:xlink="http://www.w3.org/1999/xlink" width="87.743" height="103.32237" viewBox="0,0,87.743,103.32237"><g transform="translate(-278.81241,-126.71258)"><g data-paper-data="{&quot;isPaintingLayer&quot;:true}" fill-rule="nonzero" stroke="none" stroke-linecap="butt" stroke-linejoin="miter" stroke-miterlimit="10" stroke-dasharray="" stroke-dashoffset="0" style="mix-blend-mode: normal"><path d="M308.20226,196.49678c0,0 -1.65563,-19.85247 -2.40662,-31.15908c1.57515,0.81106 3.54837,1.29441 4.69443,1.29441c2.42848,1.23205 6.81687,1.36104 9.46971,1.69581c3.3989,0.06364 6.80258,0.01525 10.20206,0.01525c2.30188,0 4.70164,-0.30869 6.98581,-0.833c0.00565,0.36883 0.00649,0.74374 0.00158,1.12447c-0.05526,4.28593 -0.94731,9.08451 -1.15863,13.52263c-0.39713,8.34034 -0.19302,15.40772 -0.19302,15.40772z" fill="#ff9a31" stroke-width="0"/><path d="M307.48103,195.93346c-1.11271,0 -1.11271,-1.11271 -1.11271,-1.11271l0.00114,-1.2217c0.26887,-2.9473 0.89281,-5.63266 0.59002,-8.62344c0,0 -0.03292,-0.32922 0.11665,-0.64656c-0.17281,-0.63702 -0.33948,-1.25758 -0.34658,-1.30765c-0.2276,-1.60389 0.05443,-3.2618 -0.22847,-4.8812c-0.22143,-1.26754 -0.66413,-2.50145 -0.8255,-3.7849c-0.1701,-1.35287 -0.39036,-2.64086 -0.58387,-3.96981c-0.20316,-1.39519 0.20192,-2.02232 -0.47996,-3.29493c0,0 -0.49763,-0.99524 0.49761,-1.49286c0.99524,-0.49762 1.49286,0.49762 1.49286,0.49762c0.22445,0.47108 0.55264,0.90558 0.67334,1.41325c0.19691,0.82819 -0.11265,1.71256 0.01797,2.55375c0.39858,2.56694 0.95574,5.13152 1.4017,7.70615c0.28476,1.64407 0.00639,3.3357 0.24004,4.95753c0.11993,0.83249 0.45211,1.62028 0.67341,2.43173l0.23064,0.80698c0,0 0.27205,0.9522 -0.59545,1.31667c-0.07708,2.14664 -0.45151,4.21187 -0.65128,6.4185l0.00114,1.12086c0,0 0,1.11271 -1.11271,1.11271z" fill="#ff9a31" stroke-width="0.5"/><path d="M339.65811,168.27432c0.54351,1.39807 -0.85456,1.94158 -0.85456,1.94158l-1.13067,0.42927c-0.58012,0.15242 -1.16024,0.30483 -1.74036,0.45725c-1.08032,0.1833 -2.07161,0.72259 -3.13255,0.99662c-6.83219,1.76468 -14.26456,0.28835 -20.85494,-1.43472c-2.55475,-0.66794 -4.63786,-0.50338 -6.77315,-2.16014c0,0 -1.15408,-0.95818 -0.1959,-2.11226c0.95818,-1.15408 2.11226,-0.1959 2.11226,-0.1959c1.39067,1.29872 3.75755,1.07794 5.62412,1.56808c6.01766,1.58019 13.0446,3.12762 19.29649,1.44112c1.10634,-0.29844 2.15192,-0.82524 3.27887,-1.0327c0.54027,-0.14279 1.08053,-0.28557 1.6208,-0.42836l0.80801,-0.32441c0,0 1.39807,-0.54351 1.94158,0.85456z" fill-opacity="0.30588" fill="#000000" stroke-width="0.5"/><path d="M336.14569,197.52631c-1.06579,0.31974 -1.38552,-0.74606 -1.38552,-0.74606l-0.3771,-1.27479c-0.30794,-2.99504 -0.1846,-6.37785 0.45591,-9.35592c-0.00862,-0.06986 -0.00861,-0.11339 -0.00861,-0.11339v-0.23426c0.00251,-2.02715 -0.56475,-3.86179 -0.46737,-5.90681c0.08917,-1.87268 0.56717,-3.52792 0.96166,-5.34135c0.48405,-2.22519 0.61177,-4.39544 0.79796,-6.64766c0,0 0.00622,-0.0747 0.03483,-0.18371c0.65846,-0.13109 1.31004,-0.28074 1.94981,-0.4468c0.27166,0.35254 0.2331,0.81531 0.2331,0.81531c-0.19729,2.34751 -0.33801,4.62012 -0.84184,6.93917c-0.3677,1.69246 -0.82919,3.21891 -0.91237,4.96589c-0.08594,1.80469 0.36513,3.45549 0.45449,5.2329c0.21183,0.39187 0.09906,0.84294 0.09906,0.84294c-0.71149,2.77107 -0.849,6.1414 -0.57363,9.00126l0.32567,1.06776c0,0 0.31974,1.06579 -0.74605,1.38552z" fill="#ff9a31" stroke-width="0.5"/><path d="M337.32389,166.8896c0.06469,0.00539 0.12529,0.01424 0.18206,0.02613c-0.34007,0.08293 -0.68307,0.16104 -1.02827,0.23403c0.17884,-0.17068 0.44648,-0.29348 0.84621,-0.26016z" fill="#c5d8e2" stroke-width="0.5"/><path d="M338.27612,167.1788c0,0.99605 -7.38246,1.8035 -16.48918,1.8035c-9.10672,0 -16.48918,-0.80746 -16.48918,-1.8035c0,-0.39775 -2.02902,-2.6548 -0.03491,-2.953c2.99961,-0.44855 11.85545,-1.42694 17.32564,-1.42694c9.10672,0 15.68762,3.38389 15.68762,4.37994z" fill="#ff9a31" stroke-width="0"/><g fill="#ff9a31" stroke-width="0.5"><path d="M322.79972,226.41365c-0.6459,0.53535 -1.18125,-0.11056 -1.18125,-0.11056l-0.30779,-0.37137c-4.1936,-5.08534 -9.29137,-8.96534 -13.66795,-13.59375c-0.31711,-4.47249 3.62898,-14.11533 6.63287,-17.48914c0,0 0.56369,-0.62132 1.18501,-0.05761c0.62132,0.5637 0.05763,1.18501 0.05763,1.18501c-2.55647,2.74967 -4.03042,8.20146 -4.91461,11.76159c-0.32539,1.31017 -1.3974,2.59828 -1.42336,3.92842c4.66701,4.35418 9.23216,8.16878 13.42222,13.19477l0.30781,0.37137c0,0 0.53536,0.6459 -0.11055,1.18125z"/><path d="M325.36996,222.59852c-0.30363,-0.78205 0.47842,-1.08567 0.47842,-1.08567l0.70146,-0.2601c2.40964,-0.49311 3.68184,-1.15626 6.12476,-0.05294c3.91061,3.60975 -1.18868,8.22206 -5.05168,8.76498c-3.50523,0.49264 -3.88247,-1.71604 -6.1021,-3.28173c0,0 -0.66271,-0.51438 -0.14834,-1.1771c0.51438,-0.66272 1.1771,-0.14833 1.1771,-0.14833c1.72164,1.41336 2.03601,3.36575 4.82492,2.94782c2.0315,-0.30443 7.07711,-3.33781 4.38633,-5.69846c-1.9715,-0.83601 -2.90459,-0.12631 -4.86912,0.28842l-0.43606,0.18155c0,0 -0.78205,0.30362 -1.08567,-0.47843z"/><path d="M326.65303,223.16393c-0.78205,0.30363 -1.08567,-0.47842 -1.08567,-0.47842l0.08094,0.08954c-3.71598,-4.48332 -8.8813,-7.41871 -13.17178,-11.29422c0,0 -0.62133,-0.56371 -0.05763,-1.18502c0.5637,-0.62132 1.18501,-0.05761 1.18501,-0.05761c4.33214,3.94582 9.56353,6.91442 13.3362,11.46613l0.19135,0.37391c0,0 0.30363,0.78205 -0.47842,1.08567z"/><path d="M312.36611,211.19645c-0.62132,-0.5637 -0.05762,-1.18501 -0.05762,-1.18501l0.64534,-0.70748c1.05862,-1.59836 0.91215,-3.13631 1.4449,-4.93173c1.19248,-4.01864 3.725,-7.26641 4.68943,-11.42116c0,0 0.1897,-0.81719 1.00689,-0.6275c0.8172,0.18969 0.62751,1.00689 0.62751,1.00689c-0.97578,4.2037 -3.52526,7.4866 -4.72175,11.54028c-0.59984,2.03227 -0.51554,3.6079 -1.71998,5.45997l-0.72972,0.80812c0,0 -0.5637,0.62132 -1.18501,0.05763z"/></g><path d="M326.86008,193.9865c0,0 0.82882,-0.12981 0.95862,0.69901c0.1298,0.82882 -0.69901,0.95862 -0.69901,0.95862c-3.71608,0.53568 -8.28568,3.85431 -11.20876,6.0706c-0.99765,0.75643 -2.48329,1.09498 -3.37584,1.95308c-0.50205,-0.21089 -0.99169,-0.4865 -1.52461,-0.62137c2.90069,-3.63629 11.54917,-8.34515 15.8496,-9.05994z" fill="#ff9a31" stroke-width="0.5"/><path d="M325.51618,217.7207c-0.67244,0.50161 -1.17405,-0.17083 -1.17405,-0.17083l-0.28841,-0.38663c-3.91685,-5.27819 -8.79288,-9.40543 -12.91953,-14.23391c0.52308,-0.27355 1.11073,-0.35505 1.68342,-0.47985c4.38691,4.52415 8.69738,8.53527 12.58098,13.71054l0.28842,0.38663c0,0 0.5016,0.67244 -0.17084,1.17405z" fill="#ff9a31" stroke-width="0.5"/><path d="M328.27821,214.04204c-0.26322,-0.79656 0.53333,-1.05979 0.53333,-1.05979l0.71384,-0.22387c2.43171,-0.3692 3.73615,-0.96641 6.11944,0.26043c3.72084,3.80506 -1.60769,8.15049 -5.49341,8.4951c-3.52584,0.31269 -3.78963,-1.91239 -5.92626,-3.58957c0,0 -0.63554,-0.54761 -0.08793,-1.18315c0.5476,-0.63554 1.18315,-0.08793 1.18315,-0.08793c1.64709,1.49957 1.86117,3.46549 4.66781,3.19076c2.04442,-0.20012 7.23858,-2.97142 4.67207,-5.46663c-1.92615,-0.93576 -2.89432,-0.27472 -4.8775,0.03897l-0.44477,0.15901c0,0 -0.79656,0.26323 -1.05978,-0.53333z" fill="#ff9a31" stroke-width="0.5"/><path d="M329.53068,214.67235c-0.79656,0.26323 -1.05978,-0.53333 -1.05978,-0.53333l0.07626,0.09356c-3.48178,-4.66753 -8.49019,-7.86329 -12.57682,-11.9532c0,0 -0.59167,-0.59475 0.00307,-1.18642c0.59474,-0.59167 1.18641,0.00308 1.18641,0.00308c4.12464,4.16226 9.19732,7.39457 12.73221,12.13331l0.17197,0.38322c0,0 0.26322,0.79656 -0.53334,1.05979z" fill="#ff9a31" stroke-width="0.5"/><path d="M315.11185,205.51342c-0.1298,-0.82882 0.69901,-0.95863 0.69901,-0.95863l0.94646,-0.14561c1.8274,-0.5797 2.67879,-1.86884 4.22054,-2.93202c3.45088,-2.3797 7.46098,-3.31815 10.81976,-5.94695c0,0 0.66064,-0.51706 1.1777,0.14358c0.51705,0.66064 -0.14357,1.1777 -0.14357,1.1777c-3.39836,2.65978 -7.44372,3.61492 -10.9197,6.01938c-1.74265,1.20546 -2.66609,2.48489 -4.76626,3.17055l-1.07532,0.17102c0,0 -0.82882,0.1298 -0.95862,-0.69902z" fill="#ff9a31" stroke-width="0.5"/><path d="M310.15714,193.06784c-0.5964,1.0437 -1.46196,1.50152 -2.45345,1.60288c-2.01092,0.20557 -4.5399,-1.05517 -6.39207,-1.86812c-7.99054,-3.50718 -11.48731,-7.21257 -11.51495,-15.72427c-0.00502,-1.54468 -2.66722,-1.29848 -1.55944,-3.51404c1.08281,-2.16561 3.16107,-0.39327 3.95157,0.62585c4.08529,5.26675 -1.57174,8.28464 5.80139,13.00073c2.55394,1.63359 5.46375,2.79419 8.31553,3.7418c0.53994,0.17942 2.73013,0.17292 2.9896,0.62699z" fill="#ff9a31" stroke-width="0.5"/><g fill="#ea8f2d" stroke-width="0.5"><path d="M309.00324,172.75374c-1.04701,0.75551 -3.24831,0.347 -4.43284,0.28437c-2.98119,-0.15762 -7.39126,1.6274 -9.88893,2.72779c-2.34406,1.03271 -8.33826,8.25391 -10.42741,6.68135c-2.69914,-2.03172 3.11554,-4.8449 3.94202,-6.00128c4.47798,-6.26537 12.68823,-5.7986 19.20492,-6.85981c0.10502,-0.07708 0.22036,-0.14356 0.34512,-0.19726c0.02053,-0.00884 0.04113,-0.01725 0.06181,-0.02524c1.71854,-0.68997 2.30773,0.06975 2.28557,1.0654c0.28318,0.82358 -0.08576,1.73523 -0.86545,2.12883c-0.07241,0.07427 -0.14759,0.14012 -0.22481,0.19585z"/><path d="M305.7812,173.47208c-2.29282,0.727 -4.57465,0.4509 -7.00269,1.48558c-3.20364,1.36518 -4.28651,1.56531 -6.2828,3.41099c-1.13186,1.04646 -5.32571,7.3338 -7.34654,5.06729c-1.48806,-1.66897 5.41238,-8.72881 7.16954,-9.50858c1.76394,-0.78278 3.53681,-1.54576 5.31791,-2.28864c0.94456,-0.39398 1.98162,-0.58408 2.92411,-0.97195c1.01708,-0.41857 8.12823,-1.62961 8.7599,0.17011c0.19373,0.16752 0.35355,0.38036 0.46159,0.63141c0.38207,0.88778 -0.02789,1.91718 -0.91567,2.29925c-0.29499,0.68479 -2.58105,-0.45538 -3.08536,-0.29547z"/><path d="M288.68764,183.02687c-0.79294,2.64218 -6.41088,7.07264 -8.17223,3.53454c-0.55698,-1.11883 -2.08154,-3.69857 -1.61576,-4.79026c0.6279,-1.47162 5.68022,-3.99246 7.14671,-2.88859c0.59412,0.07571 1.13392,0.45468 1.38782,1.04465c0.04922,0.11438 0.0853,0.23111 0.10891,0.3485c0.40496,0.92254 1.54996,1.40032 1.14456,2.75116z"/></g><g fill="#ea8f2d" stroke-width="0.5"><path d="M335.29675,172.23414c1.2911,-0.00977 2.84935,1.59784 3.77887,2.33475c2.33939,1.85462 6.96857,2.95265 9.64212,3.50162c2.50912,0.51521 11.57742,-1.90182 12.37026,0.58994c1.02433,3.21932 -5.34538,2.1463 -6.68877,2.6106c-7.27866,2.5156 -13.70246,-2.61868 -19.63015,-5.5266c-0.13026,0.00204 -0.26279,-0.01054 -0.3956,-0.039c-0.02185,-0.00468 -0.04352,-0.00976 -0.06501,-0.01521c-1.80066,-0.43248 -1.84118,-1.39304 -1.24663,-2.19199c0.24596,-0.83545 1.07462,-1.36513 1.93821,-1.2346c0.10204,-0.01863 0.20146,-0.02879 0.29669,-0.02952z"/><path d="M338.33969,173.51402c2.29033,0.73479 3.99092,2.28108 6.56964,2.84331c3.40245,0.74183 4.40123,1.20564 7.0975,0.85665c1.52873,-0.19787 8.58847,-2.89589 8.9238,0.12212c0.24693,2.22234 -9.46684,3.9831 -11.35098,3.60147c-1.89142,-0.38309 -3.77865,-0.7875 -5.66097,-1.21306c-0.99824,-0.22568 -1.95386,-0.67114 -2.94686,-0.90059c-1.0716,-0.24762 -7.57072,-3.37756 -7.04371,-5.21066c-0.06096,-0.24876 -0.06803,-0.51482 -0.01076,-0.78207c0.20251,-0.94505 1.13278,-1.54699 2.07783,-1.34448c0.63701,-0.38753 1.84074,1.8657 2.34451,2.02732z"/><path d="M357.80877,175.62084c2.17632,-1.69515 9.32202,-2.05464 8.70955,1.84989c-0.19369,1.2347 -0.44433,4.22076 -1.45618,4.84116c-1.364,0.83631 -6.94287,-0.03366 -7.49941,-1.78278c-0.44056,-0.40574 -0.66126,-1.02724 -0.52668,-1.65527c0.02609,-0.12176 0.06427,-0.23782 0.11299,-0.3472c0.20397,-0.98663 -0.45295,-2.03914 0.65973,-2.9058z"/></g><path d="M308.09302,165.12173c-0.87156,0.40798 -1.74098,-0.22431 -1.74098,-0.22431l-1.83704,-1.47021c-0.77064,-1.16266 -1.69066,-2.35559 -2.03549,-3.74728c-0.53733,-2.1686 -0.19769,-4.67004 0.23949,-6.80916c1.05009,-5.13804 2.44153,-11.40294 6.76931,-14.85376c3.77026,-3.00627 8.58733,-3.07976 13.14945,-3.07976c2.92987,0 5.85388,-0.34305 8.57795,0.94164c3.84906,1.81524 6.56495,5.44588 8.58951,9.05507c3.62549,6.46316 6.30796,14.69011 2.96175,21.89066c-3.73253,3.45448 -7.12101,3.15109 -11.92409,3.15109c-7.70333,0 -16.0692,-0.64374 -22.74986,-4.85399z" fill="#ff9a31" stroke-width="0.5"/><path d="M316.20095,136.48285c-0.56944,0.48809 -1.05753,-0.08135 -1.05753,-0.08135l-0.51613,-0.61053c-1.58096,-2.37993 -1.23318,-5.23818 -2.50223,-7.59981c-0.74818,0.61938 -1.57343,1.06187 -2.32699,1.61455c-2.60826,1.91297 -2.43449,8.33086 -1.246,10.95694c0,0 0.30461,0.68535 -0.38075,0.98996c-0.68536,0.30461 -0.98997,-0.38075 -0.98997,-0.38075c-2.30812,-5.27026 -0.60459,-12.82317 5.19624,-14.65928c2.36839,1.85261 1.80482,5.71704 3.49777,8.24634l0.40694,0.4664c0,0 0.48809,0.56944 -0.08135,1.05754z" fill="#dc862a" stroke-width="0.5"/><path d="M333.6837,138.0713c-0.69636,0.27855 -0.9749,-0.41781 -0.9749,-0.41781l-0.3478,-0.90595c-0.02319,-1.56146 -0.06073,-3.06455 0.25249,-4.59983c0.24833,-0.5634 0.55487,-1.20029 0.75361,-1.7546c0.20298,-0.56614 -1.17005,0.31632 -1.77073,0.34628c-1.10601,0.05518 -2.30297,-0.10897 -3.36292,0.32728c-2.15454,0.88675 -3.00266,3.3699 -4.01882,5.21096c0,0 -0.36423,0.65561 -1.01985,0.29138c-0.65562,-0.36423 -0.29138,-1.01985 -0.29138,-1.01985c1.22071,-2.18078 2.22282,-4.80362 4.75041,-5.86597c0.91195,-0.3833 6.12794,-1.22216 6.86635,-0.24951c0.59627,0.78543 -0.13766,2.41132 -0.47716,3.16848c-0.25005,1.28556 -0.18093,2.55763 -0.20905,3.86171l0.26758,0.63252c0,0 0.27855,0.69635 -0.41782,0.9749z" fill="#dc862a" stroke-width="0.5"/><path d="M329.35596,156.70412c0.67082,0.33541 0.33541,1.00623 0.33541,1.00623l-0.29434,0.50261c-3.44399,3.43166 -5.45666,-0.10918 -7.10197,-2.91575c-1.28839,2.31689 -3.29098,3.75367 -6.33075,3.61679l-0.78178,-0.70104c0,0 -0.53033,-0.53033 0,-1.06066c0.53033,-0.53033 1.06066,0 1.06066,0l0.29514,0.37589c2.13766,-0.23498 3.47951,-1.24442 4.39428,-2.83846c-0.94723,0.59455 -2.03946,0.5973 -2.48066,-0.95951c-0.48086,-1.69676 3.20068,-3.778 4.37954,-2.52676c0.00741,0.00786 0.0147,0.01573 0.02189,0.02361c0.07106,-0.02754 0.1438,-0.05271 0.21779,-0.07532c0.3048,-0.15374 0.60993,-0.25606 0.87475,-0.29232c0,0 0.39207,-0.03921 0.63626,0.2234c0.72364,0.17911 1.30449,0.71581 1.33977,1.77012c0.03776,1.12854 -1.05571,1.92216 -2.17789,2.07002c1.03789,2.0471 2.30628,4.52464 4.59231,2.22933l0.01335,-0.11277c0,0 0.33541,-0.67082 1.00623,-0.33541z" fill="#2f1c09" stroke-width="0.5"/><path d="M316.40665,145.60829c0.22577,0.2463 0.24124,0.48345 0.18897,0.67073l0.04447,0.05151c0.00358,0.29915 0.02062,0.6758 0.01911,1.07894c0.01781,-0.00091 0.03607,-0.00138 0.0548,-0.00138c0.75,0 0.75,0.75 0.75,0.75l-0.0437,0.30602c-0.32018,0.70877 -0.35505,1.11652 -0.78483,1.29783c-0.05079,0.15774 -0.11548,0.30875 -0.19515,0.45046c0.17426,1.1273 -0.09693,2.08917 -2.08273,1.8075c-1.53071,-0.21712 -2.70913,-1.95399 -2.03517,-3.42035c0.09398,-1.44052 0.71837,-3.05903 1.2647,-3.79468c0,0 0.45,-0.6 1.05,-0.15c0.10181,0.07636 0.17338,0.15703 0.22206,0.23835c0.04361,-0.00789 0.08851,-0.01201 0.13439,-0.01201c0.18059,0 0.34627,0.06383 0.47573,0.17016c0.03771,-0.00583 0.07634,-0.00887 0.11568,-0.00887c0.30388,0 0.56554,0.18072 0.68338,0.44055c0.04618,0.03384 0.09243,0.0752 0.1383,0.12524z" fill="#ffffff" stroke-width="0.5"/><path d="M327.5432,147.26654c0.11647,-0.9971 0.9013,-3.35191 2.47798,-1.85946c0.32477,0.30742 0.45209,0.61942 0.43625,0.92297c0.88306,0.744 0.88526,2.63563 0.59896,3.72286c-0.22574,3.02273 -3.38109,2.80671 -4.52934,0.37609c-0.37531,-0.79446 -0.20468,-1.28977 0.09442,-1.68866c-0.06218,-0.00305 -0.11825,-0.01045 -0.16727,-0.02239c0,0 -0.72114,-0.20603 -0.5151,-0.92718c0.20604,-0.72115 0.92719,-0.51511 0.92719,-0.51511c0.26705,0.09833 0.48724,0.0759 0.67692,-0.00912z" fill="#ffffff" stroke-width="0.5"/><path d="M318.24319,148.98219c-0.53033,0.53033 -1.06066,0 -1.06066,0l-0.26664,-0.2983c-1.19714,-1.99765 -2.27611,-3.75159 -2.85372,-6.05012c0,0 -0.1819,-0.72761 0.5457,-0.90951c0.7276,-0.1819 0.90951,0.5457 0.90951,0.5457c0.53521,2.15308 1.56273,3.77429 2.68474,5.64219l0.04106,0.00939c0,0 0.53033,0.53033 0,1.06066z" fill="#2f1c09" stroke-width="0.5"/><path d="M325.14298,148.3836c-0.62404,-0.41602 -0.20801,-1.04007 -0.20801,-1.04007l0.44248,-0.48556c1.66544,-0.82361 2.84072,-2.03909 3.21744,-3.87094c0,0 0.15715,-0.73335 0.8905,-0.5762c0.73335,0.15715 0.57621,0.89049 0.57621,0.89049c-0.5077,2.29343 -1.92544,3.84465 -4.01333,4.89829l0.13478,-0.02402c0,0 -0.41602,0.62404 -1.04006,0.20802z" fill="#2f1c09" stroke-width="0.5"/><path d="M318.00829,146.76251c0.68936,0.29544 0.39392,0.98479 0.39392,0.98479l-0.22377,0.52157c-0.10435,0.26077 -0.20871,0.52154 -0.31307,0.78231c-0.40008,0.89888 -0.6054,2.05239 -1.27009,2.80561c-1.49017,1.68864 -4.59603,1.30076 -5.29149,-0.95332c-0.88804,-2.87825 0.93464,-5.75741 3.35252,-7.10722c0,0 0.65562,-0.36424 1.01985,0.29138c0.36423,0.65562 -0.29139,1.01985 -0.29139,1.01985c-1.83981,1.01646 -3.28035,3.13774 -2.64748,5.35431c0.30881,1.08159 2.03644,1.3012 2.70851,0.4313c0.52402,-0.67827 0.69298,-1.6487 1.0376,-2.42516c0.10077,-0.25205 0.20155,-0.5041 0.30232,-0.75615l0.23777,-0.55535c0,0 0.29544,-0.68936 0.9848,-0.39392z" fill="#2f1c09" stroke-width="0.5"/><path d="M328.99993,144.66975c0.3975,-0.636 1.0335,-0.2385 1.0335,-0.2385l0.77844,0.52234c1.50353,1.70262 2.45251,7.1228 -0.708,8.05594c-2.62724,0.77569 -5.1105,-3.32275 -5.14101,-5.40382c0,0 0,-0.75 0.75,-0.75c0.75,0 0.75,0.75 0.75,0.75c-0.02016,0.96766 1.75599,4.50824 3.16667,3.9808c1.92941,-0.7214 0.98437,-4.60574 0.06123,-5.63637l-0.45233,-0.24689c0,0 -0.636,-0.3975 -0.2385,-1.0335z" fill="#2f1c09" stroke-width="0.5"/><path d="M315.36991,150.10971c-0.5,0 -0.5,-0.5 -0.5,-0.5c0,-0.57348 0,-1.41577 0,-1.98925c0,0 0,-0.5 0.5,-0.5c0.5,0 0.5,0.5 0.5,0.5c0,0.57348 0,1.14695 0,1.72043v0.26882c0,0 0,0.5 -0.5,0.5z" fill="#000000" stroke-width="0.5"/><path d="M329.67099,149.89465c-0.5,0 -0.5,-0.5 -0.5,-0.5c0,-0.57348 0,-1.25448 0,-1.82796c0,0 0,-0.5 0.5,-0.5c0.5,0 0.5,0.5 0.5,0.5c0,0.57348 0,1.14695 0,1.72043v0.10753c0,0 0,0.5 -0.5,0.5z" fill="#000000" stroke-width="0.5"/></g></g></svg>