<svg version="1.1" xmlns="http://www.w3.org/2000/svg" xmlns:xlink="http://www.w3.org/1999/xlink" width="25.8344" height="29.29572" viewBox="0,0,25.8344,29.29572"><g transform="translate(-324.74092,-157.54072)"><g data-paper-data="{&quot;isPaintingLayer&quot;:true}" fill-rule="nonzero" stroke="none" stroke-width="0" stroke-linecap="butt" stroke-linejoin="miter" stroke-miterlimit="10" stroke-dasharray="" stroke-dashoffset="0" style="mix-blend-mode: normal"><path d="M330.24907,162.49628c1.08761,2.26687 4.43149,0.95367 5.55611,-0.34201c0.89277,-0.66567 2.37622,-1.05366 3.02826,-1.65889c1.34712,-1.2504 1.45738,-4.06102 3.51025,-2.48914c1.40477,1.40862 3.91697,2.16942 5.95448,1.62888c0.88049,-0.23359 1.51049,-0.89758 2.27715,-1.2777v28.47901c-2.96823,-1.10675 -5.80892,-0.59084 -7.60285,-3.61381c-2.56231,-0.71137 -6.91154,-0.77209 -8.22546,-3.62392c1.94915,-2.50312 0.28989,-3.39685 -1.05695,-5.31562c-0.83644,-1.19163 -0.27952,-1.68432 -1.67359,-2.51541c-1.72564,-0.57977 -2.3262,-2.08833 -3.71635,-2.8607c-1.323,-0.73506 -3.67684,-0.53624 -3.55462,-2.55183c0.13449,-2.57996 2.60211,-5.3676 4.95442,-6.15171c0,0 0.01518,-0.00506 0.03659,-0.01647c0.7938,0.43852 0.05529,1.35624 0.51257,2.30931z" fill="#5f4b29"/><path d="M339.61426,165.2525c-1.71981,-1.8876 -0.51651,0.22826 1.43632,-1.9151c1.95283,-2.14336 0.88966,-0.40537 2.71306,1.59591c1.8234,2.00128 -0.75376,3.91401 -2.71306,6.06447c-1.9593,2.15046 0.2835,-3.85769 -1.43632,-5.74529z" fill="#a4a097"/></g></g></svg>