<svg version="1.1" xmlns="http://www.w3.org/2000/svg" xmlns:xlink="http://www.w3.org/1999/xlink" width="39.70957" height="45.07919" viewBox="0,0,39.70957,45.07919"><g transform="translate(-302.1609,-121.54189)"><g data-paper-data="{&quot;isPaintingLayer&quot;:true}" fill-rule="nonzero" stroke="none" stroke-linecap="butt" stroke-linejoin="miter" stroke-miterlimit="10" stroke-dasharray="" stroke-dashoffset="0" style="mix-blend-mode: normal"><path d="M303.48265,159.35261c-0.32267,-6.14144 0.00042,-15.32968 0.00042,-15.32968c0,0 5.49845,-17.1803 6.2312,-17.1803c1.38889,0 4.47475,3.56091 9.01725,6.93838c1.10129,0.81884 1.71818,-11.43651 2.87177,-10.6215c5.77322,4.07878 10.89937,20.77441 10.89937,20.77441c0,0 1.772,7.34556 1.89881,12.63546c0.0517,2.1567 0.58879,5.16929 0.68695,8.79858c-1.5097,0.31221 -3.09625,0.49022 -4.48407,0.94673c-3.15727,0.4002 -6.37258,0.29348 -9.5849,0.29348c-3.27892,0 -6.12718,-0.16362 -9.2905,-0.90996c-2.52979,-0.50615 -6.07839,-1.41755 -8.06818,-3.3287c-0.07186,-1.12729 -0.13226,-2.14439 -0.1781,-3.0169z" fill="#ffbb00" stroke-width="0"/><path d="M307.09411,137.44275c-1.09477,-0.19905 -0.89572,-1.29381 -0.89572,-1.29381l0.2053,-1.09411c0.5565,-1.8849 0.87481,-3.82789 1.32172,-5.73575c0.16532,-0.70573 0.06397,-1.50036 0.41498,-2.13453c0.44252,-0.7995 0.97333,-1.84624 1.87395,-2.0009c0.50941,-0.08747 2.40821,1.60827 3.03906,2.09888c1.30271,1.01311 2.77553,1.82352 3.87874,3.06821c0.53169,0.59987 1.02177,1.22843 1.50548,1.85988l0.06475,-0.42217c0.46918,-1.75883 0.97875,-3.57015 1.21834,-5.37878c0.13643,-1.02983 -0.02445,-1.62334 0.37721,-2.6061c0.31663,-0.77472 0.3586,-1.93927 1.14095,-2.23656c0.64742,-0.24603 2.20647,1.38348 2.70171,1.90373c1.05221,1.10534 1.77746,2.27692 2.6737,3.49187c0.94549,1.28172 1.7397,2.02912 2.36397,3.54209c0,0 0.41325,1.03313 -0.61988,1.44638c-1.03313,0.41325 -1.44638,-0.61988 -1.44638,-0.61988c-0.69629,-1.81545 -2.33402,-3.70104 -3.57395,-5.23656c-0.33241,-0.41165 -0.81349,-0.71876 -1.20727,-1.08057c-0.05671,0.18637 -0.11155,0.32908 -0.11723,0.36942c-0.3338,2.37081 -0.74076,4.65213 -1.36088,6.97839l-0.06264,0.49377c0,0 -0.12313,0.86192 -0.91399,0.95198c0.44032,0.54594 0.89902,1.07704 1.40042,1.57552c0,0 0.78681,0.78681 0,1.57361c-0.78681,0.7868 -1.57362,0 -1.57362,0c-1.57271,-1.58087 -2.75609,-3.43439 -4.22329,-5.11556c-0.99559,-1.14078 -2.41209,-1.8839 -3.5987,-2.80691c-0.34241,-0.26635 -0.72431,-0.49521 -1.00734,-0.82396c-0.19804,-0.23003 -0.11365,-0.72888 -0.40445,-0.81588c-0.21554,-0.06448 -0.04983,0.44732 -0.08442,0.66962c-0.09262,0.59511 -0.16654,1.19428 -0.29716,1.78222c-0.43161,1.94282 -0.78717,3.92018 -1.3488,5.83648l-0.15077,0.86426c0,0 -0.19904,1.09476 -1.29381,0.89571z" fill="#eaac00" stroke-width="0.5"/><path d="M334.67954,164.94787c0,-2.67532 0.04436,-5.391 -0.97456,-7.90282c0,0 -0.41325,-1.03313 0.61988,-1.44638c1.03313,-0.41325 1.44638,0.61988 1.44638,0.61988c1.10949,2.80685 1.13374,5.74748 1.13374,8.72932l-0.00229,0.02168c-0.7298,0.23526 -1.50548,0.39677 -2.28974,0.5404z" fill="#eaac00" stroke-width="0.5"/><path d="M335.07145,158.05477c-1.0911,0.21822 -1.30933,-0.87288 -1.30933,-0.87288l-0.16138,-0.82202c-0.08133,-0.71123 -0.38267,-1.37972 -0.56331,-2.07242c-0.39625,-1.51948 -0.18515,-3.15686 -0.46614,-4.69272c-0.10448,-0.5711 -0.37078,-1.10707 -0.45291,-1.6818c-0.44397,-3.1067 -0.49521,-6.31854 -1.45151,-9.34017c-0.73598,-2.32548 -2.07942,-4.32554 -2.93834,-6.58826c0,0 -0.3907,-1.04187 0.65116,-1.43257c1.04187,-0.3907 1.43258,0.65116 1.43258,0.65116c0.8567,2.3183 2.24468,4.37985 2.99612,6.7643c0.98473,3.12472 1.05722,6.4394 1.51573,9.65014c0.07735,0.54166 0.33996,1.04373 0.43726,1.58216c0.26386,1.46007 0.03186,3.07218 0.42403,4.50571c0.21627,0.79056 0.51536,1.56601 0.62359,2.37844l0.13535,0.6616c0,0 0.21822,1.09111 -0.87288,1.30933z" fill="#eaac00" stroke-width="0.5"/><path d="M302.1657,159.04735c0,-5.45356 -0.14028,-10.9314 1.09671,-16.27328c0.51121,-2.20768 1.19337,-4.28806 2.62649,-6.06249c0,0 0.70461,-0.86119 1.5658,-0.15658c0.86119,0.70461 0.15658,1.56581 0.15658,1.56581c-1.47348,1.77208 -1.95096,4.09022 -2.44555,6.30237c-1.06036,4.74259 -0.77459,9.79403 -0.77459,14.62418c-0.00302,1.2594 0.17988,2.43262 0.3463,3.68068l0.07622,0.36932c-0.54783,-0.38173 -1.03101,-0.81268 -1.41759,-1.3002c-0.2868,-0.35324 -0.70399,-0.71425 -1.13929,-1.01326c-0.05441,-0.57104 -0.08984,-1.14538 -0.09109,-1.73655z" fill="#eaac00" stroke-width="0.5"/><path d="M325.41968,141.00896c0.2023,-0.23996 0.42301,-0.45142 0.70924,-0.5616c0.59435,-0.22879 1.27227,0.06116 1.90841,0.09174c0.50284,0.2869 1.09944,0.45108 1.50853,0.86073c1.65252,1.65483 1.02979,5.00615 1.02868,7.11171c-0.00033,0.62278 0.05594,2.36466 -0.24073,2.85225c-1.70782,2.80685 -5.04687,1.07836 -6.01471,-1.29399c-0.2148,-0.5265 -0.20992,-2.31657 -0.18562,-2.8929c0.0748,-1.77497 0.2605,-3.58525 0.60628,-5.3256c0,0 0.12828,-0.64142 0.67993,-0.84232z" fill="#f1f5f7" stroke-width="0.5"/><path d="M316.47745,140.33468c1.07895,0.24797 2.00579,0.93746 2.86437,1.67532c0.3513,0.42702 0.82942,0.77572 1.05392,1.28105c0.6162,1.38702 0.21107,3.80705 0.09092,5.29126c-0.05106,0.63083 0.07723,1.33897 -0.24689,1.88256c-0.38591,0.64723 -1.05757,1.12162 -1.73775,1.44597c-2.01745,0.96203 -5.11377,-0.28636 -5.91886,-2.3109c-0.1889,-0.47502 -0.04922,-1.02132 -0.06023,-1.53239c-0.02776,-1.28806 0.00362,-2.68277 0.25283,-3.95054c0.10255,-0.52172 0.25161,-0.99002 0.43729,-1.43136l0.35072,-1.68143c0.3133,-0.1611 0.60374,-0.38929 0.91856,-0.54593c0.03357,-0.05063 0.06743,-0.10154 0.10152,-0.15276c0,0 0.61722,-0.92584 1.54305,-0.30862c0.15842,0.10561 0.27165,0.22026 0.35054,0.33775z" fill="#f1f5f7" stroke-width="0.5"/><path d="M318.65256,142.33671c0.74822,1.02878 0.48406,3.94051 -1.11617,3.5437c-1.21147,-0.3004 -0.97521,-1.4185 -0.56211,-2.40396c-0.116,-0.36134 -0.10905,-0.74576 0.24888,-1.07859c0.14236,-0.13238 0.27714,-0.22991 0.40408,-0.29676c0.0863,-0.13389 0.30525,-0.37793 0.6873,-0.21419c0.25698,0.11013 0.32948,0.29406 0.33801,0.4498z" fill="#2a2e30" stroke-width="0.5"/><path d="M328.81127,141.35161c0.52781,-0.17594 0.70374,0.35187 0.70374,0.35187l0.1928,0.58696c0.12225,0.95115 0.8041,3.27273 -0.8345,3.43525c-0.02195,0.00217 -0.0436,0.0037 -0.06498,0.0046c-0.17023,0.19912 -0.40285,0.31113 -0.71997,0.25752c-0.38635,-0.06531 -0.51036,-0.61944 -0.62952,-0.9927c-0.31073,-0.97342 0.31488,-2.24631 1.00277,-2.838c0,0 0.0092,-0.00736 0.02599,-0.0186l-0.02822,-0.08316c0,0 -0.17593,-0.52781 0.35187,-0.70374z" fill="#2a2e30" stroke-width="0.5"/><path d="M323.27344,156.88369c0.10946,0 0.21069,0.03517 0.29303,0.09483c0.29658,0.03737 0.54409,0.03517 0.68172,-0.09037c1.45099,-1.32345 2.98498,-1.71344 2.95472,1.05351c-0.39008,1.05895 -0.79306,1.49649 -1.55741,1.65702c0.67681,2.69144 4.04143,3.93553 4.87723,0.55438l0.08885,-0.27122c0,0 0.15812,-0.47435 0.63245,-0.31623c0.47434,0.15812 0.31623,0.63246 0.31623,0.63246l-0.0674,0.19753c-1.0815,4.28346 -5.63588,3.1418 -6.73237,-0.26462c-0.60023,2.01565 -2.94977,3.6379 -5.06227,2.03221c-0.65625,-0.49881 -0.74383,-1.1735 -1.35428,-1.66099c0,0 -0.3841,-0.3201 -0.06401,-0.70421c0.32009,-0.38411 0.7042,-0.06402 0.7042,-0.06402c1.63181,1.40146 3.89463,3.36769 4.82414,0.0905l-0.0005,-0.00662c-1.16521,-0.31283 -3.11211,-1.3422 -2.43825,-2.54994c0.32794,-0.58777 1.08093,-0.47393 1.74992,-0.36005c0.0485,-0.01568 0.10025,-0.02416 0.15397,-0.02416z" fill="#2a2e30" stroke-width="0.5"/><path d="M308.39105,153.05913c0.25,0 0.25,0.25 0.25,0.25l-0.02756,0.01748c0.18185,0.35933 0.43579,0.6165 0.7192,0.89956c2.07646,2.07674 3.79748,2.38559 6.62414,2.38559c0,0 0.25,0 0.25,0.25c0,0.25 -0.25,0.25 -0.25,0.25c-2.94952,0 -4.81382,-0.36844 -6.9777,-2.53204c-0.32054,-0.32091 -0.60071,-0.62039 -0.81053,-1.02492l-0.02756,-0.24567c0,0 0,-0.25 0.25,-0.25z" fill="#2a2e30" stroke-width="0.5"/><path d="M306.30638,158.00078c0.17678,-0.17677 0.35355,0 0.35355,0l0.1048,0.10835c0.34546,0.25909 0.67572,0.46136 1.05408,0.6678c2.60087,0.86135 4.89194,0.38882 7.48013,0.33483c0,0 0.25,0 0.25,0.25c0,0.25 -0.25,0.25 -0.25,0.25c-2.66715,-0.0867 -4.96638,0.53338 -7.67909,-0.37613c-0.41394,-0.22308 -0.77846,-0.444 -1.15512,-0.7265l-0.15835,-0.15481c0,0 -0.17678,-0.17677 0,-0.35355z" fill="#2a2e30" stroke-width="0.5"/><path d="M306.16736,162.2565c0,-0.25 0.25,-0.25 0.25,-0.25h0.19737c0.55841,0.00034 1.06581,0.13921 1.6185,0.19772c2.30877,-0.00167 4.7593,0.15514 6.99387,-0.51612c0,0 0.23946,-0.07183 0.31129,0.16762c0.07184,0.23945 -0.16762,0.31129 -0.16762,0.31129c-2.29179,0.68667 -4.79581,0.53813 -7.16402,0.53651c-0.5435,-0.05806 -1.04474,-0.19738 -1.59202,-0.19702h-0.19737c0,0 -0.25,0 -0.25,-0.25z" fill="#2a2e30" stroke-width="0.5"/><path d="M340.47865,153.21818c0.22253,0.11392 0.10861,0.33646 0.10861,0.33646l-0.08635,0.16809c-0.5318,0.93023 -1.24269,1.58209 -2.20129,2.09375c-2.28905,1.21651 -4.92239,1.36108 -7.47436,1.36108c0,0 -0.25,0 -0.25,-0.25c0,-0.25 0.25,-0.25 0.25,-0.25c2.46503,0 5.02934,-0.12183 7.23926,-1.30236c0.87795,-0.46684 1.51823,-1.05308 2.00228,-1.90054l0.0754,-0.14787c0,0 0.11392,-0.22253 0.33646,-0.10861z" fill="#2a2e30" stroke-width="0.5"/><path d="M340.71315,156.74403c0.01521,-0.07325 0.06705,-0.19805 0.24369,-0.19805c0.25,0 0.25,0.25 0.25,0.25l-0.08102,0.25002c-0.19451,0.17779 -0.40966,0.33208 -0.62401,0.48536c-2.49496,1.49574 -5.04657,1.91044 -7.93124,1.55216c0,0 -0.24807,-0.03101 -0.21706,-0.27908c0.03101,-0.24807 0.27908,-0.21706 0.27908,-0.21706c2.7673,0.34825 5.2031,-0.03766 7.59507,-1.47416c0.16543,-0.11802 0.33162,-0.23654 0.4855,-0.36919z" fill="#2a2e30" stroke-width="0.5"/><path d="M341.80679,160.05698c0.16005,0.19206 -0.03201,0.3521 -0.03201,0.3521l-0.01063,0.00886c-0.44984,0.37053 -0.8673,0.46204 -1.35927,0.72749c-2.15973,1.14779 -5.08539,0.63739 -7.47436,0.63739c0,0 -0.25,0 -0.25,-0.25c0,-0.25 0.25,-0.25 0.25,-0.25c2.28661,0 5.17528,0.5239 7.23926,-0.57868c0.46905,-0.24721 0.86034,-0.32066 1.27427,-0.67031l0.01063,-0.00886c0,0 0.19206,-0.16005 0.3521,0.032z" fill="#2a2e30" stroke-width="0.5"/></g></g></svg>