<svg version="1.1" xmlns="http://www.w3.org/2000/svg" xmlns:xlink="http://www.w3.org/1999/xlink" width="16.74917" height="22.9102" viewBox="0,0,16.74917,22.9102"><g transform="translate(-290.27074,-151.05914)"><g data-paper-data="{&quot;isPaintingLayer&quot;:true}" fill-rule="nonzero" stroke="none" stroke-width="0.5" stroke-linecap="butt" stroke-linejoin="miter" stroke-miterlimit="10" stroke-dasharray="" stroke-dashoffset="0" style="mix-blend-mode: normal"><path d="M293.31913,151.84707c2.94293,-1.23968 9.67555,-1.38487 10.97002,2.31993c0.69267,1.98243 -2.01037,4.0853 -0.73266,5.86849c1.52474,2.12795 4.08569,3.22742 3.32554,6.44388c-0.20921,0.88524 -0.40807,1.92885 -1.128,2.48484c-0.71157,0.54953 -1.77391,0.29417 -2.66086,0.44126c-4.23437,-1.79749 -4.3097,5.16815 -8.54287,4.52129c-1.32873,-0.20304 -3.94323,-3.99539 -4.19464,-5.25337c-0.48767,-2.44021 1.24949,-3.56112 2.04896,-5.41075c1.09538,-2.53426 -0.58588,-7.19599 -0.80714,-9.79752c0,0 -0.12457,-1.49481 1.37025,-1.61938c0.12673,-0.01056 0.2436,-0.00948 0.35139,0.00134z" fill="#131313"/><path d="M294.16274,161.61296c0.15911,-0.71597 1.49978,-1.76656 0.81996,-2.04183c-5.61522,-2.27363 0.07572,-9.91272 5.3264,-8.03747c1.5111,0.53968 3.31362,3.7911 0.63337,3.83921c-0.69959,0.01256 -3.02475,-0.91519 -3.55084,-0.53967c-0.31716,0.22638 0.92141,2.55639 0.94002,2.8834c0.12232,2.14942 -0.87012,5.59917 -1.60333,7.66947c-0.1888,0.5331 -1.14051,2.17673 -2.05067,3.20745c-0.17897,0.37237 -0.50717,0.65944 -0.90706,0.7837c-0.1656,0.08243 -0.31669,0.11032 -0.44566,0.06731c-0.53575,0 -1.00589,-0.28087 -1.27122,-0.70339c-0.1404,-0.15767 -0.22352,-0.33867 -0.20768,-0.5445c-0.01387,-0.08197 -0.02109,-0.16619 -0.02109,-0.25211c0,-0.22927 0.05144,-0.44653 0.1434,-0.64086c0.51386,-1.89431 1.7494,-3.68815 2.19441,-5.69072z" fill="#303030"/><path d="M301.43865,157.38454c-0.44721,0.22361 -0.67082,-0.22361 -0.67082,-0.22361l-0.15447,-0.32262c-0.10214,-0.14313 -0.26704,-0.33656 -0.43098,-0.55126l-0.05732,0.1433c-0.0709,0.1899 -0.25394,0.32512 -0.46856,0.32512c-0.06605,0 -0.1291,-0.01281 -0.18682,-0.03607l-0.00294,0.01468c-0.04197,0.23369 -0.24633,0.41102 -0.49211,0.41102c-0.17014,0 -0.32043,-0.08498 -0.41074,-0.2148l-0.46517,-0.65124c-0.20407,-0.20454 -0.37681,-0.39287 -0.521,-0.59137c0.27555,1.40764 0.70777,2.68999 0.701,4.11825l0.11939,-0.01706l0.09619,0.67335c0.00411,0.0258 0.00624,0.05227 0.00624,0.07923c0,0.27614 -0.22386,0.5 -0.5,0.5c-0.04825,0 -0.09491,-0.00684 -0.13905,-0.01959c0.0997,0.39686 0.1713,0.80324 0.19972,1.22912l0.18117,-0.01132l0.06209,0.99344c0.00084,0.01182 0.00126,0.02376 0.00126,0.0358c0,0.27614 -0.22386,0.5 -0.5,0.5c-0.16566,0 -0.31251,-0.08057 -0.40349,-0.20466l-0.58096,-0.77462l0.0089,-0.00668l-0.03163,-0.02631c-0.01438,-0.02815 -0.02862,-0.05639 -0.04269,-0.08472c0.1559,1.28761 0.28245,2.60567 -0.16194,3.74132l0.19789,0.09895l-0.24575,0.4915c1.6957,-1.06411 4.02862,-1.99653 5.00664,-2.2151c1.03435,-0.23116 -1.53793,-1.69137 -1.59672,-2.7496c-0.15242,-0.23479 -0.24094,-0.51489 -0.24094,-0.81566c0,-0.82843 0.67157,-1.5 1.5,-1.5c0.67575,0 1.24713,0.44684 1.43479,1.06116c1.95931,1.16337 3.5335,4.67072 3.13179,6.27755c-0.47436,1.89742 -3.78811,0.64316 -5.01675,0.72655c-0.7839,0.05321 -4.65441,4.84235 -5.83102,3.03546c-0.0505,0.02458 -0.11092,0.04282 -0.18319,0.05185c-0.49614,0.06202 -0.55816,-0.43412 -0.55816,-0.43412c-0.167,-1.33627 -1.2653,-4.67355 -0.55025,-5.90308c0.82917,-1.42578 1.52465,-0.7389 2.02722,0.1931c-0.04766,-1.06581 0.04422,-2.32806 -0.01892,-2.89638l0.00758,-0.02765h-0.00835v-0.58445c0,-0.27614 0.22386,-0.5 0.5,-0.5c0.12697,0 0.24289,0.04733 0.33108,0.12531l0.19443,0.17013c-0.50095,-1.23843 -0.88169,-2.68733 -1.15433,-3.76261l-0.04676,0.01336l-0.19165,-0.67076c-0.01457,-0.04691 -0.02241,-0.09677 -0.02241,-0.14846c0,-0.27614 0.22386,-0.5 0.5,-0.5c0.21462,0 0.39766,0.13522 0.46856,0.32512l0.19049,0.47623l-0.01513,0.00605l0.02664,0.02581c0.03015,0.12195 0.06209,0.24205 0.09552,0.36051c0.1173,0.08918 0.22855,0.20149 0.33418,0.32961c-0.21817,-1.07888 -0.37178,-2.18561 -0.4304,-2.64821l0.00887,-0.03107h-0.00984v-0.58445h0.17674l0.13192,-0.46194c0.14192,0.09385 0.26969,0.18219 0.38654,0.26675l0.15836,-0.15836l0.70711,0.70711l-0.09161,0.09161c0.21816,0.20723 0.42,0.42152 0.66794,0.67701c-0.05332,-0.21552 -0.08197,-0.4404 -0.08241,-0.71119l-0.02335,-0.05837l-0.27106,-0.04518l0.09606,-0.57635c0.0358,-0.24101 0.24358,-0.42591 0.49455,-0.42591c0.21462,0 0.39766,0.13522 0.46856,0.32512l0.07278,0.18194c0.04458,-0.01303 0.09173,-0.02002 0.14052,-0.02002c0.09704,0 0.18762,0.02764 0.26429,0.07548l0.48,0.288l-0.1007,0.16784c0.56708,0.38882 0.74337,0.91465 1.32182,1.72365l0.23516,0.45665c0,0 0.22361,0.44721 -0.22361,0.67082zM295.58381,167.04791l-0.18883,-0.47207c-1.31052,-3.06956 -0.90388,-0.39224 -0.52504,1.82803c0.24669,-0.33889 0.64337,-0.68969 1.12668,-1.03391c-0.19015,-0.02109 -0.34814,-0.14882 -0.41282,-0.32205z" fill="#000000"/><path d="M299.75631,158.97266c0.17678,-0.17678 0.35355,0 0.35355,0l0.1579,0.1579c0.89247,1.03102 -0.77045,1.28702 -1.14302,2.07772c-0.29761,0.63159 0.36107,1.03819 0.34771,1.65783c-0.02533,1.17536 -1.8656,1.57535 -2.7515,1.66394c0,0 -0.24876,0.02488 -0.27364,-0.22388c-0.02488,-0.24876 0.22388,-0.27364 0.22388,-0.27364c0.795,-0.0795 1.74958,-0.26859 2.25565,-0.98119c0.32927,-0.46365 -0.5816,-1.35853 -0.25464,-2.05569c0.17676,-0.3769 1.66035,-1.20672 1.242,-1.51152l-0.1579,-0.1579c0,0 -0.17678,-0.17678 0,-0.35355z" fill="#2f2f2f"/></g></g></svg>