<svg version="1.1" xmlns="http://www.w3.org/2000/svg" xmlns:xlink="http://www.w3.org/1999/xlink" width="25.74142" height="5.66375" viewBox="0,0,25.74142,5.66375"><g transform="translate(-318.55253,-176.81522)"><g data-paper-data="{&quot;isPaintingLayer&quot;:true}" fill="#b0c1ca" fill-rule="nonzero" stroke="none" stroke-width="0.5" stroke-linecap="butt" stroke-linejoin="miter" stroke-miterlimit="10" stroke-dasharray="" stroke-dashoffset="0" style="mix-blend-mode: normal"><path d="M343.08748,177.37504c0.2002,0.14664 0.49991,0.22324 0.58948,0.45467c0.01959,0.05059 0.03531,0.10207 0.04789,0.15422l0.03094,-0.01158l0.19773,0.52874c0.06644,0.17009 0.04789,0.36936 -0.06688,0.52845c-0.17977,0.2492 -0.5275,0.30547 -0.7767,0.12571l-0.48569,-0.35037c-0.55995,-0.27176 -0.97623,-0.28189 -1.46668,-0.11029c0.16426,0.51066 0.12358,1.13644 -0.0804,1.66747c0.61129,0.4399 1.23373,0.52021 1.93283,0.58042l-0.01621,-0.07274l0.62005,-0.13815c0.15042,-0.03424 0.31426,-0.00612 0.4492,0.09122c0.2492,0.17975 0.30549,0.5275 0.12573,0.7767c-0.05468,0.07579 -0.12488,0.13374 -0.20312,0.17262l-0.50045,0.26196c-1.48359,0.91419 -2.36157,0.28616 -3.19794,-0.68242c-0.2433,0.13368 -0.52623,0.18673 -0.84176,0.12376c-0.28329,-0.05653 -0.49739,-0.1721 -0.65462,-0.32754c-0.12201,-0.00459 -0.24403,-0.00918 -0.36604,-0.01377c-1.27298,0.0468 -2.52788,0.27436 -3.80047,0.31438c-2.19708,0.06912 -4.50519,-0.38066 -6.72205,-0.25179c0.11861,-0.35665 0.24762,-0.73362 0.38434,-1.11154c2.09172,-0.03816 4.22751,0.32308 6.29823,0.25132c1.28545,-0.04454 2.55206,-0.26917 3.83887,-0.31503c0.00578,-0.15323 0.02601,-0.30857 0.0574,-0.46086c-1.06161,-0.20795 -2.28053,0.09794 -3.36945,0.09818c-2.24393,0.00052 -4.48717,-0.12179 -6.71623,0.12993c0.14904,-0.39986 0.30597,-0.79511 0.46754,-1.16273c2.07611,-0.17603 4.1606,-0.07805 6.24914,-0.07992c1.25477,-0.00112 2.47869,-0.25097 3.70239,-0.01472c0.28162,-0.53524 0.74755,-0.91417 1.32688,-0.79749c0.8299,-0.98146 1.67314,-1.2912 2.94603,-0.35883z"/><path d="M320.44074,178.0611c2.00493,-0.09387 9.34865,-1.14541 9.34865,1.7493c0,2.0048 -5.78822,2.66252 -8.93495,2.24052c-0.09846,0.01491 -0.19928,0.02264 -0.3019,0.02264c-0.4545,0 -0.87359,-0.1516 -1.20946,-0.407c-0.28909,-0.14058 -0.4584,-0.30947 -0.46929,-0.50545c-0.20322,-0.31305 -0.32126,-0.68652 -0.32126,-1.08755c0,-0.98221 0.70803,-1.79904 1.64154,-1.96797c0.07751,-0.02505 0.15949,-0.04041 0.24665,-0.04449z"/></g></g></svg>