<svg version="1.1" xmlns="http://www.w3.org/2000/svg" xmlns:xlink="http://www.w3.org/1999/xlink" width="47.7983" height="116.36472" viewBox="0,0,47.7983,116.36472"><g transform="translate(-296.3891,-121.54188)"><g data-paper-data="{&quot;isPaintingLayer&quot;:true}" fill-rule="nonzero" stroke-linecap="butt" stroke-linejoin="miter" stroke-miterlimit="10" stroke-dasharray="" stroke-dashoffset="0" style="mix-blend-mode: normal"><path d="M331.1242,190.55852c0.12547,0.6002 0.93348,1.05591 1.13784,1.63867c0.34842,0.9935 -0.7481,0.79574 -1.29993,0.58822c-0.9158,-0.34439 -2.22887,-2.94441 -1.34665,-3.3903c-0.02356,-0.06151 -0.04288,-0.12803 -0.05752,-0.19968l-0.0589,-0.10262c-0.78536,-1.40054 -2.27998,-2.45476 -3.3133,-3.67191c-1.33954,-1.57784 -2.60161,-2.98513 -4.15543,-4.38345c0.90336,-0.19941 1.47878,-0.88584 2.44581,-1.23235c0.70203,0.76954 1.59338,1.34192 2.29662,2.13657c1.54569,1.74662 3.05979,3.36445 4.3079,5.34303c0.38465,-0.15598 0.72977,-0.17462 0.87947,0.07014c0.20122,-0.01666 0.40526,-0.00554 0.59403,0.03875c0.54067,0.12685 3.42079,1.76954 1.5057,2.1564c-0.03754,0.00759 -0.07697,0.00868 -0.11488,0.0032c-0.62842,-0.09094 -1.16778,-0.32921 -1.6963,-0.50147c-0.01694,0.02975 -0.0369,0.05904 -0.06024,0.08778c-0.3153,0.38827 -0.73955,0.66386 -1.15666,0.78823c0.02978,0.21615 0.05147,0.43472 0.09246,0.6308zM325.05655,181.7537c-0.52606,-0.47747 -1.03115,-0.82515 -1.48618,-1.31c-0.08316,0.09136 -0.17947,0.17047 -0.28498,0.2368c1.35848,1.27761 2.5176,2.58704 3.7432,4.014c0.94133,1.09599 2.16985,2.06635 3.03937,3.24567c0.02339,-0.02124 0.0473,-0.04236 0.07164,-0.06331c-1.38259,-2.22036 -3.15121,-4.36975 -5.08305,-6.12314z" fill="#b0c1ca" stroke="none" stroke-width="0.5"/><path d="M321.24544,181.44787c-0.03479,-0.03018 -0.06497,-0.06037 -0.08981,-0.09004c-0.42823,-0.51148 -0.37481,-1.48669 0.03812,-1.98246c0.38659,-0.46413 0.82642,-0.65204 1.26621,-0.64926c0.35516,-0.44327 0.67143,-0.87518 1.10255,-1.28316c2.34609,-2.75728 5.70546,-4.84614 7.53349,-7.97854c0,0 0.28192,-0.47964 0.76156,-0.19772c0.47963,0.28192 0.19771,0.76156 0.19771,0.76156c-1.90063,3.21341 -5.26939,5.3526 -7.6873,8.18238c-0.309,0.28786 -0.5514,0.58944 -0.79524,0.89948c0.16316,0.11025 0.31856,0.2399 0.46259,0.38311c0.42993,-0.57908 0.92944,-1.03794 1.44731,-1.56851c1.6529,-1.35926 3.17556,-2.91453 4.82536,-4.28808c1.07466,-0.89472 2.98389,-2.00823 3.4286,-3.39173c0,0 0.18495,-0.52472 0.70966,-0.33976c0.52472,0.18496 0.33975,0.70967 0.33975,0.70967c-0.61201,1.63928 -2.46515,2.79516 -3.76778,3.87837c-1.636,1.36043 -3.1483,2.89684 -4.78195,4.25015c-0.54741,0.56232 -1.07673,1.02001 -1.4978,1.68917l-0.01399,0.01698c0.13614,0.27758 0.22518,0.56056 0.25237,0.82526c0,0 0.01153,0.1452 -0.05148,0.29291c-1.18406,0.35227 -1.89704,1.21474 -3.27125,0.79012c-0.22099,-0.24348 -0.37889,-0.57697 -0.40873,-0.90993z" fill="#b0c1ca" stroke="none" stroke-width="0.5"/><g stroke="none" stroke-width="0.5"><path d="M312.47487,212.01262c0.29577,1.99613 0.41252,4.14921 0.41252,6.18427c0,0.15859 0.00043,0.31709 0.00125,0.47551c-0.31677,0.00223 -0.63341,0.0035 -0.94987,0.0035c-1.54755,0 -3.0951,0 -4.64264,0c0.00053,-0.09397 0.00089,-0.18783 0.00108,-0.28158c-0.27916,-2.23326 0.1683,-4.58255 -0.15856,-6.79736c-0.18068,-1.22428 -0.59068,-2.46734 -0.75237,-3.70444c1.52233,0.3229 3.3048,-0.05892 4.79358,-0.05892c0.28257,0 0.56329,-0.00476 0.84199,-0.02507c0.32896,1.37648 0.24404,2.79364 0.45302,4.20409z" fill="#b0c1ca"/><path d="M307.0656,211.5463c-0.15127,-1.14201 -0.00591,-2.40098 -0.00493,-3.55468c0.36364,0.03255 0.73676,0.0363 1.11266,0.02436c-0.00335,1.09264 -0.15671,2.30565 -0.00487,3.38263c0.3452,2.44842 0.92782,4.76902 0.92905,7.27729c-0.37072,0 -0.74143,0 -1.11215,0c-0.01068,-2.45846 -0.60124,-4.72481 -0.91977,-7.12959z" fill="#c7d7e0"/><path d="M307.93604,211.77922c-0.09757,-1.06053 0.42021,-2.33896 -0.09759,-3.29363c0,0 -0.11772,-0.23543 -0.02928,-0.46338c0.33801,-0.00037 0.68008,-0.01707 1.02125,-0.0404c0.00218,0.00399 0.00326,0.00617 0.00326,0.00617c0.57937,1.22288 0.10628,2.39601 0.21057,3.69133c0.19061,2.3676 1.08131,4.59563 1.17547,6.99661c-0.37071,0 -0.74142,0 -1.11214,0c-0.08958,-2.35868 -0.95748,-4.5696 -1.17155,-6.89668z" fill="#cdd0e0"/></g><g stroke="none" stroke-width="0.5"><path d="M327.29743,213.66354c0.19432,1.96748 0.31398,3.97272 0.37059,5.96848c-1.47448,-0.47922 -3.0044,-0.761 -4.56625,-0.90921c0.03326,-3.38391 0.12442,-6.75126 -0.45338,-10.06557c1.42215,0.33575 2.62947,0.61754 4.02973,0.73055c0.00737,1.44675 0.4737,2.80146 0.61931,4.27575z" fill="#b0c1ca"/><path d="M323.2969,208.98906c0,0 -0.01196,-0.07771 0.00234,-0.17921c0.38652,0.08952 0.76092,0.17327 1.13244,0.24866c0.45556,3.26177 -0.00233,6.60602 0.2631,9.86622c-0.37006,-0.05951 -0.74243,-0.11002 -1.1168,-0.15241c-0.21037,-3.2425 0.21634,-6.55034 -0.28108,-9.78326z" fill="#c7d7e0"/><path d="M325.02807,211.01882c0.55635,0 0.55635,0.55635 0.55635,0.55635v0.2568c0,0.85147 -0.01636,1.61479 -0.22205,2.44614c0,0 -0.13494,0.53975 -0.67468,0.40481c-0.53974,-0.13494 -0.40481,-0.67468 -0.40481,-0.67468c0.18743,-0.74093 0.18882,-1.41555 0.18882,-2.17627v-0.2568c0,0 0.00001,-0.55635 0.55636,-0.55635z" fill="#cdd0e0"/></g><path d="M332.86839,195.78715c0.05703,0.19959 0.0183,0.34599 -0.05266,0.45111l-0.03104,0.16689c0,1.00428 0,2.00856 0,3.01284c0,0.72347 0.03643,1.34894 -0.19197,2.05046c-0.46724,1.43508 -1.36648,2.25274 -2.49516,2.68755v0.14767c0,1.88327 0.49504,4.62498 -1.90119,5.0335c-0.46833,0.00107 -0.92542,-0.0222 -1.3775,-0.05732c-0.00553,0.05522 -0.01027,0.11027 -0.01424,0.16516c-1.45507,-0.10772 -2.69168,-0.3927 -4.20326,-0.78708c0,0 -0.21337,-0.05334 -0.28988,0.14017c-0.4022,-0.11575 -0.77605,-0.30044 -1.06794,-0.60545c-1.17175,-1.22439 -1.11708,-2.99635 -1.28606,-4.57128c-1.7658,-0.32363 -3.59285,-0.35032 -5.42555,-0.33968c0.02344,0.12856 0.00208,0.23537 0.00208,0.23537l-0.07403,0.35947c-0.22076,1.94277 -0.4986,3.60234 -2.50322,3.87566c0.01347,0.03934 0.02651,0.07872 0.03913,0.11814c-0.23454,0.01296 -0.47043,0.01479 -0.70573,0.01479c-1.46046,0 -3.34103,0.43575 -4.84535,0.04331c-0.00333,-0.04927 -0.00615,-0.09852 -0.00845,-0.14775c-0.36151,-0.06865 -0.70351,-0.16721 -1.01362,-0.30557c-0.03557,-0.02435 -0.07069,-0.04958 -0.10535,-0.07573c0,0 -0.06787,-0.0509 -0.15419,-0.05387c-0.38434,-0.21429 -0.70671,-0.50311 -0.93849,-0.88931c-0.78747,-1.31211 -0.48896,-3.16189 -0.48266,-4.63054c-1.63022,-1.63705 -1.41826,-5.0258 -1.1343,-7.04633c0,0 0.06413,-0.44892 0.48189,-0.47827c0.28606,-0.16467 0.58616,0.04969 0.58616,0.04969c2.1287,1.5205 5.04326,1.38896 7.57377,1.74952c1.28314,0.18283 2.59522,0.49586 3.89414,0.4909c4.9269,0 9.90589,0.21333 14.7507,-0.41803c0.61664,-0.13691 1.12832,-0.30473 1.69297,-0.58872l0.3697,-0.11181c0.09647,-0.08326 0.23807,-0.13918 0.44413,-0.10484c0.16286,0.02714 0.26933,0.09457 0.33854,0.17597c0.05311,0.05852 0.09835,0.13747 0.12861,0.24339z" fill="#b0c1ca" stroke="none" stroke-width="0.5"/><path d="M307.72734,207.97513c0.1635,0 0.27894,0.04805 0.36047,0.1159c-0.23622,0.0037 -0.47035,-0.00055 -0.70014,-0.01631c0.08003,-0.05911 0.18961,-0.09959 0.33967,-0.09959z" fill="#c7d7e0" stroke="none" stroke-width="0.5"/><path d="M323.87249,208.90609c0.26176,-0.04027 0.41808,0.06323 0.51004,0.18275c-0.21439,-0.04568 -0.43049,-0.09474 -0.6502,-0.14691c0.0414,-0.01557 0.08792,-0.0278 0.14016,-0.03584z" fill="#c7d7e0" stroke="none" stroke-width="0.5"/><path d="M304.88507,201.97489c0.27223,0.27223 0.1677,0.54447 0.07748,0.68634c-0.29094,1.7369 0.12009,2.98039 1.87637,3.60116c0,0 0.52286,0.19013 0.33273,0.71299c-0.19013,0.52286 -0.71299,0.33274 -0.71299,0.33274c-2.30751,-0.85762 -2.98383,-2.64049 -2.56574,-4.98798l0.20534,-0.34524c0,0 0.39341,-0.39341 0.78681,0z" fill="#c7d7e0" stroke="none" stroke-width="0.5"/><path d="M303.6699,195.28922c0.55635,0 0.55636,0.55635 0.55636,0.55635v0.20544c0,1.58566 0.35411,2.64881 0.89098,4.1241c0,0 0.19012,0.52286 -0.33273,0.71299c-0.52286,0.19013 -0.71299,-0.33274 -0.71299,-0.33274c-0.57556,-1.58401 -0.95798,-2.79844 -0.95798,-4.50437v-0.20544c0,0 0,-0.55635 0.55635,-0.55635z" fill="#c7d7e0" stroke="none" stroke-width="0.5"/><path d="M305.61824,200.79265c-0.4274,0.35617 -0.78358,-0.07124 -0.78358,-0.07124l-0.34295,-0.45034c-0.6492,-1.5633 -0.96626,-2.5944 -0.81091,-4.32179c0,0 0.05036,-0.55408 0.60444,-0.5037c0.55407,0.05037 0.5037,0.60444 0.5037,0.60444c-0.14587,1.58593 0.13265,2.36412 0.72988,3.79309l0.17065,0.16598c0,0 0.35617,0.4274 -0.07124,0.78357z" fill="#cdd0e0" stroke="none" stroke-width="0.5"/><path d="M307.63417,206.15564c-0.29487,0.47179 -0.76666,0.17692 -0.76666,0.17692l-0.30615,-0.20573c-1.72415,-0.63459 -1.71658,-1.62002 -1.85374,-3.2501c0,0 -0.0462,-0.55444 0.50823,-0.60064c0.55443,-0.0462 0.60063,0.50823 0.60063,0.50823c0.10024,1.2139 -0.12355,1.84929 1.12514,2.29679l0.51561,0.30787c0,0 0.4718,0.29487 0.17692,0.76666z" fill="#cdd0e0" stroke="none" stroke-width="0.5"/><path d="M323.71777,208.18944c0.3934,-0.39341 0.78681,0 0.78681,0l0.09712,0.10319c0.11984,0.15408 0.23968,0.30816 0.35952,0.46224c0,0 0.1714,0.22037 0.11526,0.47031c-0.46157,-0.08246 -0.92148,-0.18213 -1.39906,-0.29636c-0.08914,-0.11605 -0.27131,-0.42772 0.04036,-0.7394z" fill="#cdd0e0" stroke="none" stroke-width="0.5"/><path d="M324.6815,209.63796c-0.21645,0.0761 -0.39525,-0.01985 -0.49948,-0.10325c0.16739,0.036 0.33361,0.07049 0.49948,0.10325z" fill="#cdd0e0" stroke="none" stroke-width="0.5"/><path d="M320.51598,202.63369c0.55635,0 0.55635,0.55636 0.55635,0.55636v0.10272c-0.00097,1.53089 0.60088,2.62614 1.36229,3.93118c0,0 0.28033,0.48056 -0.20024,0.7609c-0.48057,0.28034 -0.7609,-0.20023 -0.7609,-0.20023c-0.86185,-1.47773 -1.51283,-2.75105 -1.51387,-4.49185v-0.10272c0,0 0.00001,-0.55636 0.55636,-0.55636z" fill="#cdd0e0" stroke="none" stroke-width="0.5"/><g stroke="none" stroke-width="0.5"><path d="M313.2131,231.22537c0,0.59714 0,1.19428 0,1.79142l0.02269,-0.08595c0,0 0.08436,0.16872 0.05659,0.3588h0.09721c0.98274,0 3.43518,-0.40818 4.17967,0.37109c0.14981,0.15681 0.12326,1.29618 0.12238,1.56955c-0.00841,2.6041 -2.03424,2.38864 -4.01833,2.67208c-1.93061,0.00444 -3.72765,-0.18262 -5.61598,-0.32571c-0.6544,-0.04959 -1.7481,-0.19356 -2.22682,-0.73155c-1.18966,-1.33698 0.07312,-2.89598 1.43429,-3.2414l0.03625,-0.25362c0.07485,-0.59884 0.15945,-1.19596 0.23938,-1.79412c-0.59932,-4.00872 -0.29454,-8.28865 -0.24857,-12.38007c1.54897,0 3.09793,0 4.6469,0c0.31776,0 0.63569,-0.00128 0.95376,-0.00352c0.04153,4.04011 0.32057,8.02914 0.32057,12.053z" fill="#b0c1ca"/><path d="M308.49015,233.39456c-0.55635,0 -0.55636,-0.55635 -0.55636,-0.55635c0,-0.18832 0,-0.9416 0,-1.12992c0,-1.4368 0.25484,-2.84407 0.30864,-4.286c0.10282,-2.75574 -0.03624,-5.50437 -0.22594,-8.24639c0.3717,0 0.7434,0 1.11511,0c0.19186,2.75697 0.32448,5.52197 0.22259,8.29263c-0.05244,1.42595 -0.30768,2.82086 -0.30768,4.23976c0,0.18832 0,0.37664 0,0.56496v0.56496c0,0 0,0.55635 -0.55635,0.55635z" fill="#c7d7e0"/><path d="M309.46599,223.63617c-0.55635,0 -0.55636,-0.55635 -0.55636,-0.55635v-0.30817c0.00077,-1.2066 0.1955,-2.38885 0.20508,-3.59575c0.37085,0 0.74169,0 1.11254,0c-0.01167,1.20682 -0.20573,2.39047 -0.2049,3.59575v0.30817c0,0 0,0.55635 -0.55635,0.55635z" fill="#cdd0e0"/><path d="M309.15783,230.98065c-0.55635,0 -0.55636,-0.55636 -0.55636,-0.55636l0.00559,-0.28412c0.27896,-1.92473 0.34966,-3.88791 0.66965,-5.81646c0,0 0.09147,-0.54879 0.64025,-0.45732c0.54878,0.09146 0.45732,0.64025 0.45732,0.64025c-0.32135,1.91895 -0.39549,3.87437 -0.66571,5.79089l0.00559,0.12676c0,0 0,0.55636 -0.55635,0.55636z" fill="#cdd0e0"/><path d="M308.85828,232.73549c0,-0.30727 0.24908,-0.55636 0.55635,-0.55636c0.30727,0 0.55635,0.24909 0.55635,0.55636c0,0.30727 -0.24908,0.55635 -0.55635,0.55635c-0.30727,0 -0.55635,-0.24909 -0.55635,-0.55635z" fill="#cdd0e0"/></g><g stroke="none" stroke-width="0.5"><path d="M327.70728,222.43116c-0.00508,3.68236 1.30285,7.28457 1.30285,10.99278v0.16195c1.18794,-0.16168 2.7959,-0.91517 3.76385,-0.40036c1.04121,0.55376 1.23816,3.57718 0.34018,4.35431c-0.07619,0.06594 -1.28752,0.26409 -1.52668,0.2811c-1.34777,0.09588 -2.76166,0.08115 -4.11084,0.08283c-1.62856,0 -3.25712,0.0011 -4.88568,0c-0.39254,-0.00027 -1.33482,0.04233 -1.63738,-0.19325c-0.86595,-0.67424 -0.63861,-3.22401 -0.37244,-4.14341c0.08691,-0.30021 0.1091,-0.66407 0.3413,-0.87327c0.40203,-0.3622 1.7207,-0.31076 2.25094,-0.37705c0,0 0.00041,-0.00005 0.00122,-0.00014v-0.11415c0,-3.99509 -0.08143,-7.97511 -0.08143,-11.96992c0,-0.33598 0.00163,-0.67186 0.00419,-1.00759c1.56752,0.15145 3.10116,0.44003 4.5841,0.93124c0.01743,0.76117 0.02582,1.52035 0.02582,2.27491z" fill="#b0c1ca"/><g><path d="M324.47171,232.47869v-0.56495c0,-3.85892 -0.02016,-7.62753 -0.71137,-11.41256c-0.0615,-0.40558 -0.10842,-0.81259 -0.14391,-1.22076c0.3777,0.04422 0.75331,0.0969 1.12658,0.15897c0.03124,0.29335 0.06907,0.58594 0.1147,0.87765c0.69616,3.84773 0.72671,7.67569 0.72671,11.59671v0.56495c0,0 0,0.55636 -0.55635,0.55636h-0.00001c-0.55635,0 -0.55636,-0.55636 -0.55636,-0.55636z" fill="#c7d7e0"/><path d="M325.95254,225.91321c0.55635,0 0.55636,0.55636 0.55636,0.55636v0.05136c0,1.94233 0.10272,3.85877 0.10272,5.80368c0,0 0,0.55636 -0.55635,0.55636c-0.55635,0 -0.55636,-0.55636 -0.55636,-0.55636c0,-1.94492 -0.10272,-3.86095 -0.10272,-5.80368v-0.05136c0,0 0,-0.55636 0.55635,-0.55636z" fill="#cdd0e0"/><path d="M325.93497,221.33677c0,0 0.09952,0.54738 -0.44786,0.64691c-0.54739,0.09952 -0.64691,-0.44786 -0.64691,-0.44786c-0.1318,-0.73242 -0.35555,-1.43213 -0.50115,-2.15986c0.39632,0.0586 0.79013,0.12732 1.18114,0.20726c0.13622,0.58474 0.30549,1.15794 0.41478,1.75355z" fill="#cdd0e0"/></g></g><path d="M304.86317,194.85172c0,0 -2.90966,-25.74851 -3.40273,-35.1332c-0.32267,-6.14144 -3.10972,-16.06148 -3.10972,-16.06148c0,0 4.40076,-16.63145 5.13351,-16.63145c1.38889,0 3.9259,1.91437 8.4684,5.29184c1.10129,0.81884 2.81587,-9.05817 3.96946,-8.24316c5.77322,4.07878 12.72886,21.14031 12.72886,21.14031c0,0 4.33329,6.06492 4.4601,11.35482c0.05922,2.47031 0.75524,6.06352 0.69908,10.42019c-0.05526,4.28593 -0.94731,9.08451 -1.15863,13.52263c-0.39713,8.34034 -0.19302,15.40772 -0.19302,15.40772z" fill="#e3a500" stroke="none" stroke-width="0"/><path d="M304.14194,194.2884c-1.11271,0 -1.11271,-1.11271 -1.11271,-1.11271l0.00114,-1.2217c0.26887,-2.9473 0.89281,-5.63266 0.59002,-8.62344c0,0 -0.03292,-0.32922 0.11665,-0.64656c-0.17281,-0.63702 -0.33948,-1.25758 -0.34658,-1.30765c-0.2276,-1.60389 0.05443,-3.2618 -0.22847,-4.8812c-0.22143,-1.26754 -0.66413,-2.50145 -0.8255,-3.7849c-0.1701,-1.35287 -0.39036,-2.64086 -0.58387,-3.96981c-0.20316,-1.39519 0.20192,-2.02232 -0.47996,-3.29493c0,0 -0.49763,-0.99524 0.49761,-1.49286c0.99524,-0.49762 1.49286,0.49762 1.49286,0.49762c0.22445,0.47108 0.55264,0.90558 0.67334,1.41325c0.19691,0.82819 -0.11265,1.71256 0.01797,2.55375c0.39858,2.56694 0.95574,5.13152 1.4017,7.70615c0.28476,1.64407 0.00639,3.3357 0.24004,4.95753c0.11993,0.83249 0.45211,1.62028 0.67341,2.43173l0.23064,0.80698c0,0 0.27205,0.9522 -0.59545,1.31667c-0.07708,2.14664 -0.45151,4.21187 -0.65128,6.4185l0.00114,1.12086c0,0 0,1.11271 -1.11271,1.11271z" fill="#e3a500" stroke="none" stroke-width="0.5"/><path d="M332.8066,195.88125c-1.06579,0.31974 -1.38552,-0.74606 -1.38552,-0.74606l-0.3771,-1.27479c-0.30794,-2.99504 -0.1846,-6.37785 0.45591,-9.35592c-0.00862,-0.06986 -0.00861,-0.11339 -0.00861,-0.11339v-0.23426c0.00251,-2.02715 -0.56475,-3.86179 -0.46737,-5.90681c0.08917,-1.87268 0.56717,-3.52792 0.96166,-5.34135c0.48405,-2.22519 0.61177,-4.39544 0.79796,-6.64766c0,0 0.0924,-1.10888 1.20127,-1.01647c1.10887,0.09241 1.01647,1.20127 1.01647,1.20127c-0.19729,2.34751 -0.33801,4.62012 -0.84184,6.93917c-0.3677,1.69246 -0.82919,3.21891 -0.91237,4.96589c-0.08594,1.80469 0.36513,3.45549 0.45449,5.2329c0.21183,0.39187 0.09906,0.84294 0.09906,0.84294c-0.71149,2.77107 -0.849,6.1414 -0.57363,9.00126l0.32567,1.06776c0,0 0.31974,1.06579 -0.74605,1.38552z" fill="#e3a500" stroke="none" stroke-width="0.5"/><path d="M333.68723,193.67777c0.55206,0.9661 -0.41405,1.51817 -0.41405,1.51817l-0.70432,0.39257c-0.20077,0.15057 -2.1855,1.63959 -2.19573,1.64427c-1.56488,0.71604 -3.83136,0.33519 -5.49957,0.33519c-5.5147,0 -10.79078,-0.90427 -16.26356,-1.41003c-1.86723,-0.17256 -4.65295,0.67264 -5.82542,-1.45259c-0.28301,-0.51298 0.01062,-1.17168 0.01592,-1.75752c0,0 0.11072,-1.10719 1.21791,-0.99647c1.10719,0.11072 0.99647,1.21791 0.99647,1.21791c-0.07277,0.19502 -0.27453,0.38462 -0.21834,0.58504c0.12591,0.44905 0.92076,0.1725 1.38699,0.18384c1.36892,0.0333 2.6041,0.06581 3.96069,0.24272c4.91376,0.64081 9.77512,1.16167 14.72933,1.16167c1.23406,0 3.42638,0.4411 4.57343,-0.13332c0.6767,-0.33889 1.18118,-0.94694 1.78661,-1.40105l0.93546,-0.54445c0,0 0.96611,-0.55206 1.51817,0.41405z" fill="#c5d8e2" stroke="none" stroke-width="0.5"/><path d="M303.70126,171.82503c0,0.55635 -0.55636,0.55636 -0.55636,0.55636l-0.0633,-0.00164c-1.4002,0.1069 -2.73958,0.07648 -4.09959,-0.29635c-0.52443,-0.2418 -0.91524,-0.3392 -1.27185,-0.83758c-0.75099,-1.04958 -0.84688,-3.29414 -0.79059,-4.53269c0.00978,-0.21525 0.11731,-1.31115 0.18364,-1.42497c0.782,-1.34185 3.00887,-1.60835 4.34351,-1.48828c0,0 0.55407,0.05037 0.5037,0.60445c-0.05037,0.55408 -0.60444,0.5037 -0.60444,0.5037c-0.92251,-0.08481 -2.72467,0.01647 -3.28652,0.94909c-0.14254,0.2366 -0.02732,1.17987 -0.02774,1.46407c-0.00182,1.24349 0.09192,3.16565 1.32812,3.71561c1.20011,0.32513 2.40313,0.32914 3.63642,0.23351l0.14865,-0.00163c0,0 0.55636,0 0.55636,0.55635z" fill="#b0c1ca" stroke="none" stroke-width="0.5"/><path d="M324.70226,217.95671c0.55205,-0.06901 0.62107,0.48305 0.62107,0.48305l0.04919,0.39529c0.01109,0.07252 0.02323,0.14467 0.03627,0.21649c-0.38217,-0.07449 -0.76708,-0.13859 -1.15437,-0.1933l-0.03521,-0.28047c0,0 -0.06901,-0.55206 0.48305,-0.62107z" fill="#cdd0e0" stroke="none" stroke-width="0.5"/><path d="M306.86029,216.46461c0,-0.12291 0.09963,-0.22254 0.22254,-0.22254c0.12291,0 0.22254,0.09964 0.22254,0.22254c0,0.12291 -0.09964,0.22254 -0.22254,0.22254c-0.12291,0 -0.22254,-0.09964 -0.22254,-0.22254z" fill="#6b767b" stroke="none" stroke-width="0.5"/><g stroke="none"><path d="M322.57249,221.72208c-0.15736,-0.15736 0,-0.31473 0,-0.31473l0.20776,-0.1549c1.2413,-0.24293 2.63513,-0.00903 3.88786,-0.00145c0.41998,0.13619 1.04475,0.1899 1.38293,0.47758c0.05994,0.051 0.13331,0.14111 0.20532,0.24417c-0.10002,-0.42907 -0.18344,-1.00193 -0.24331,-1.40936l-0.09967,-0.13288c-0.02876,-0.0375 -0.04586,-0.08442 -0.04586,-0.13532c0,-0.12291 0.09964,-0.22255 0.22254,-0.22255c0.06145,0 0.11709,0.02492 0.15736,0.06519l0.2351,0.2351c0.18649,0.18685 0.32298,0.49767 0.38483,0.66245c-0.12261,-0.48868 0.18398,-1.09778 -0.11562,-1.5564c-0.05012,-0.06774 -0.12462,-0.12299 -0.15038,-0.20323c-0.3739,-1.16413 0.6359,-0.38305 0.98782,-0.07399c-0.0597,-0.13416 -0.10968,-0.33429 -0.11219,-0.34272c-0.07335,-0.24607 -0.15275,-0.51769 -0.35572,-0.69837c-0.33692,-0.29991 -1.47844,-0.56262 -1.89948,-0.55922c-1.66703,-0.32764 -3.49772,0.07734 -5.1173,-0.38364c0,0 -0.21398,-0.06114 -0.15285,-0.27511c0.06113,-0.21398 0.27512,-0.15285 0.27512,-0.15285c1.58954,0.45601 3.3994,0.03342 5.03889,0.36868c1.11975,0.00806 2.86433,0.71941 2.7856,2.08031c-0.05345,0.92396 -0.60789,0.42507 -0.89321,0.08014c0.15528,0.44822 0.45439,2.09668 0.0761,2.25132c-0.15165,0.06199 -0.31023,-0.01883 -0.46064,-0.15496c0.15801,0.58647 0.23002,1.25446 0.0529,1.41893c-0.12436,0.11548 -0.33504,0.1594 -0.49723,0.10944c-0.24555,-0.07563 -0.37384,-0.69914 -0.57623,-0.8846c-0.24708,-0.22642 -0.83506,-0.25785 -1.15613,-0.36876c-1.19759,0.00799 -2.54457,-0.24453 -3.72928,-0.00145l0.01967,0.03318c0,0 -0.15736,0.15736 -0.31472,0z" fill="#6b767b" stroke-width="0.5"/><path d="M322.68283,221.47068c0,0 -0.04702,-1.85621 -0.04702,-2.63308c0,-0.63719 0.18808,-1.73972 0.18808,-1.73972c0,0 4.83867,0.20088 6.00599,0.51638c0.49123,0.13277 0.95287,1.3644 0.95287,1.3644c0,0 -0.88606,0.87988 -0.76709,1.68093c0.11606,0.78146 -0.69051,1.18725 -0.69051,1.18725c0,0 -1.80682,-0.58751 -2.7215,-0.64849c-0.96355,-0.06423 -2.92083,0.27233 -2.92083,0.27233z" fill="#606a6e" stroke-width="0"/><path d="M322.70203,218.13926c-0.05397,-0.2159 0.16192,-0.26988 0.16192,-0.26988l0.24205,-0.05366c0.31346,0 0.62692,0 0.94039,0c1.57422,0 2.97603,0.5908 4.51049,0.89769c0,0 0.21822,0.04364 0.17457,0.26187c-0.04364,0.21822 -0.26187,0.17458 -0.26187,0.17458c-1.50517,-0.30104 -2.88215,-0.88905 -4.4232,-0.88905c-0.31346,0 -0.62692,0 -0.94039,0l-0.1341,0.04038c0,0 -0.2159,0.05398 -0.26987,-0.16192z" fill="#303537" stroke-width="0.5"/><path d="M322.36625,219.73096c0,-0.22254 0.22254,-0.22254 0.22254,-0.22254l0.05039,0.00432c0.32175,-0.06435 0.62092,-0.17001 0.94039,-0.2351c1.37661,-0.2694 3.48508,0.0526 4.59699,0.88653c0,0 0.17803,0.13353 0.04451,0.31156c-0.13353,0.17803 -0.31156,0.04451 -0.31156,0.04451c-1.00266,-0.752 -2.99585,-1.06198 -4.24264,-0.80617c-0.31827,0.06225 -0.61935,0.17089 -0.94039,0.2351l-0.13769,0.00432c0,0 -0.22254,0 -0.22254,-0.22254z" fill="#303537" stroke-width="0.5"/></g><path d="M301.94475,196.64561c-0.17361,-0.2755 -0.17361,-0.58685 -0.17361,-0.58685v-0.48856c0.00087,-1.29442 -0.2196,-3.18255 1.18778,-3.98116c1.15463,-0.65518 3.4435,0.57776 4.64298,0.79895c4.12583,0.76081 8.22574,1.52935 12.43343,1.52935c2.83322,0 5.53193,-0.17386 8.33437,-0.56097c0.80241,-0.11084 3.09131,-0.80843 3.8124,-0.54515c2.02823,0.74054 2.01613,4.40781 0.70231,5.82024c-0.24783,0.26642 -2.0132,0.77205 -2.4575,0.90874c-2.19182,0.67428 -4.12051,0.77713 -6.40161,0.77713c-3.36271,0 -6.86554,0.28099 -10.20898,-0.08769c-3.81466,-0.42065 -7.6692,-1.53719 -11.24037,-2.91046c0,0 -0.5087,-0.19566 -0.6312,-0.67356z" fill="#606a6e" stroke="none" stroke-width="0.5"/><g stroke="none" stroke-width="0.5"><path d="M298.72138,175.85373c-0.00471,-0.22249 0.21779,-0.2272 0.21779,-0.2272c0.26718,-0.00565 0.62342,-0.01319 0.8906,-0.01884c1.79095,-0.03391 2.84437,-1.19185 3.67365,-2.64268c0,0 0.11044,-0.19321 0.30365,-0.08277c0.19321,0.11043 0.08277,0.30364 0.08277,0.30364c-0.90879,1.58997 -2.1073,2.82184 -4.05065,2.8668c-0.26718,0.00565 -0.53437,0.0113 -0.80156,0.01696l-0.08906,0.00189c0,0 -0.22249,0.00471 -0.2272,-0.21779z" fill="#3a53e0"/><path d="M304.38408,172.76062c0.21256,0.06589 0.14667,0.27846 0.14667,0.27846l-0.04791,0.15197c-0.18816,0.45227 -0.48579,0.80287 -0.82464,1.15637c-1.15343,1.20329 -2.98177,2.47692 -4.69265,2.52566c0,0 -0.22249,0.00471 -0.2272,-0.21779c-0.00471,-0.22249 0.21779,-0.2272 0.21779,-0.2272c1.57761,-0.01924 3.32238,-1.28454 4.38075,-2.38867c0.29445,-0.30718 0.57937,-0.61855 0.73324,-1.01501l0.03549,-0.11711c0,0 0.06589,-0.21257 0.27846,-0.14668z" fill="#3ae054"/><path d="M302.40813,173.7194c0.18774,0.1195 0.06823,0.30724 0.06823,0.30724l-0.18515,0.28887c-0.33297,0.32712 -0.81535,0.39164 -1.25984,0.23116c-0.20598,-0.07437 -0.40583,-0.47683 -0.56818,-0.32985c-0.13805,0.12499 0.15394,0.608 0.10114,0.77142c-0.22322,0.69085 -0.88501,0.33261 -1.3182,0.44896c0,0 -0.21725,0.04826 -0.2655,-0.16899c-0.04825,-0.21725 0.16899,-0.26551 0.16899,-0.26551c0.18363,-0.03576 0.90451,0.1732 0.98609,-0.1344c0.09869,-0.37214 -0.44754,-0.61941 0.06346,-1.00979c0.54113,-0.41342 1.24513,0.77251 1.74195,0.18217l0.15978,-0.25303c0,0 0.1195,-0.18774 0.30724,-0.06824z" fill="#e03a3a"/></g><g stroke="none"><path d="M306.45098,221.50403c-0.15736,-0.15736 0,-0.31473 0,-0.31473l0.20776,-0.1549c1.2413,-0.24293 2.63513,-0.00903 3.88786,-0.00145c0.41998,0.13619 1.04475,0.1899 1.38293,0.47758c0.05994,0.051 0.13331,0.14111 0.20532,0.24417c-0.10002,-0.42907 -0.18344,-1.00193 -0.24331,-1.40936l-0.09967,-0.13288c-0.02876,-0.0375 -0.04586,-0.08442 -0.04586,-0.13532c0,-0.12291 0.09964,-0.22255 0.22254,-0.22255c0.06145,0 0.11709,0.02492 0.15736,0.06519l0.2351,0.2351c0.18649,0.18685 0.32298,0.49767 0.38483,0.66245c-0.12261,-0.48868 0.18398,-1.09778 -0.11562,-1.5564c-0.05012,-0.06774 -0.12462,-0.12299 -0.15038,-0.20323c-0.3739,-1.16413 0.6359,-0.38305 0.98782,-0.07399c-0.0597,-0.13416 -0.10968,-0.33429 -0.11219,-0.34272c-0.07335,-0.24607 -0.15275,-0.51769 -0.35572,-0.69837c-0.33692,-0.29991 -1.47844,-0.56262 -1.89948,-0.55922c-1.66703,-0.32764 -3.49772,0.07734 -5.1173,-0.38364c0,0 -0.21398,-0.06114 -0.15285,-0.27511c0.06113,-0.21398 0.27512,-0.15285 0.27512,-0.15285c1.58954,0.45601 3.3994,0.03342 5.03889,0.36868c1.11975,0.00806 2.86433,0.71941 2.7856,2.08031c-0.05345,0.92396 -0.60789,0.42507 -0.89321,0.08014c0.15528,0.44822 0.45439,2.09668 0.0761,2.25132c-0.15165,0.06199 -0.31023,-0.01883 -0.46064,-0.15496c0.15801,0.58647 0.23002,1.25446 0.0529,1.41893c-0.12436,0.11548 -0.33504,0.1594 -0.49723,0.10944c-0.24555,-0.07563 -0.37384,-0.69914 -0.57623,-0.8846c-0.24708,-0.22642 -0.83506,-0.25785 -1.15613,-0.36876c-1.19759,0.00799 -2.54457,-0.24453 -3.72928,-0.00145l0.01967,0.03318c0,0 -0.15736,0.15736 -0.31472,0z" fill="#6b767b" stroke-width="0.5"/><path d="M306.56132,221.25263c0,0 -0.04702,-1.85621 -0.04702,-2.63308c0,-0.63719 0.18808,-1.73972 0.18808,-1.73972c0,0 4.83867,0.20088 6.00599,0.51638c0.49123,0.13277 0.95287,1.3644 0.95287,1.3644c0,0 -0.88606,0.87988 -0.76709,1.68093c0.11606,0.78146 -0.69051,1.18725 -0.69051,1.18725c0,0 -1.80682,-0.58751 -2.7215,-0.64849c-0.96355,-0.06423 -2.92083,0.27233 -2.92083,0.27233z" fill="#606a6e" stroke-width="0"/><path d="M306.58052,217.92121c-0.05397,-0.2159 0.16192,-0.26988 0.16192,-0.26988l0.24205,-0.05366c0.31346,0 0.62692,0 0.94039,0c1.57422,0 2.97603,0.5908 4.51049,0.89769c0,0 0.21822,0.04364 0.17457,0.26187c-0.04364,0.21822 -0.26187,0.17458 -0.26187,0.17458c-1.50517,-0.30104 -2.88215,-0.88905 -4.4232,-0.88905c-0.31346,0 -0.62692,0 -0.94039,0l-0.1341,0.04038c0,0 -0.2159,0.05398 -0.26987,-0.16192z" fill="#303537" stroke-width="0.5"/><path d="M306.24474,219.51291c0,-0.22254 0.22254,-0.22254 0.22254,-0.22254l0.05039,0.00432c0.32175,-0.06435 0.62092,-0.17001 0.94039,-0.2351c1.37661,-0.2694 3.48508,0.0526 4.59699,0.88653c0,0 0.17803,0.13353 0.04451,0.31156c-0.13353,0.17803 -0.31156,0.04451 -0.31156,0.04451c-1.00266,-0.752 -2.99585,-1.06198 -4.24264,-0.80617c-0.31827,0.06225 -0.61935,0.17089 -0.94039,0.2351l-0.13769,0.00432c0,0 -0.22254,0 -0.22254,-0.22254z" fill="#303537" stroke-width="0.5"/></g><g stroke="none"><path d="M334.00378,167.10794c-1.10591,-0.12288 -0.98303,-1.22879 -0.98303,-1.22879l0.11032,-0.93127c0,-2.67532 0.04436,-5.391 -0.97456,-7.90282c0,0 -0.41325,-1.03313 0.61988,-1.44638c1.03313,-0.41325 1.44638,0.61988 1.44638,0.61988c1.10949,2.80685 1.13374,5.74748 1.13374,8.72932l-0.12393,1.17703c0,0 -0.12288,1.10591 -1.22879,0.98303z" fill="#e3a500" stroke-width="0.5"/><path d="M333.22604,155.87093c-1.02742,0.42724 -1.45467,-0.60017 -1.45467,-0.60017l-0.31891,-0.77463c-0.21876,-0.68162 -0.64493,-1.27833 -0.95746,-1.92237c-0.68556,-1.41274 -0.79852,-3.05981 -1.37424,-4.51114c-0.21407,-0.53967 -0.57998,-1.01326 -0.77285,-1.56086c-1.04255,-2.96003 -1.72048,-6.09993 -3.24886,-8.87641c-1.17625,-2.13681 -2.88466,-3.83576 -4.16922,-5.88699c0,0 -0.58678,-0.94543 0.35864,-1.5322c0.94543,-0.58678 1.53221,0.35864 1.53221,0.35864c1.29324,2.10618 3.05734,3.85672 4.26028,6.04834c1.5764,2.87203 2.29528,6.10862 3.37241,9.16785c0.18171,0.5161 0.53738,0.95717 0.73803,1.4662c0.54411,1.38035 0.63164,3.00672 1.2964,4.33596c0.3666,0.73305 0.81147,1.4351 1.07638,2.21071l0.26204,0.62239c0,0 0.42725,1.02742 -0.60017,1.45467z" fill="#e3a500" stroke-width="0.5"/><path d="M300.49818,137.44275c-1.09477,-0.19905 -0.89572,-1.29381 -0.89572,-1.29381l0.2053,-1.09411c0.5565,-1.8849 0.87481,-3.82789 1.32172,-5.73575c0.16532,-0.70573 0.06397,-1.50036 0.41498,-2.13453c0.44252,-0.7995 0.97333,-1.84624 1.87395,-2.0009c0.50941,-0.08747 2.40821,1.60827 3.03906,2.09888c1.30271,1.01311 2.77553,1.82352 3.87874,3.06821c0.53169,0.59987 1.02177,1.22843 1.50548,1.85988l0.06475,-0.42217c0.46918,-1.75883 0.97875,-3.57015 1.21834,-5.37878c0.13643,-1.02983 -0.02445,-1.62334 0.37721,-2.6061c0.31663,-0.77472 0.3586,-1.93927 1.14095,-2.23656c0.64742,-0.24603 2.20647,1.38348 2.70171,1.90373c1.05221,1.10534 1.77746,2.27692 2.6737,3.49187c0.94549,1.28172 1.7397,2.02912 2.36397,3.54209c0,0 0.41325,1.03313 -0.61988,1.44638c-1.03313,0.41325 -1.44638,-0.61988 -1.44638,-0.61988c-0.69629,-1.81545 -2.33402,-3.70104 -3.57395,-5.23656c-0.33241,-0.41165 -0.81349,-0.71876 -1.20727,-1.08057c-0.05671,0.18637 -0.11155,0.32908 -0.11723,0.36942c-0.3338,2.37081 -0.74076,4.65213 -1.36088,6.97839l-0.06264,0.49377c0,0 -0.12313,0.86192 -0.91399,0.95198c0.44032,0.54594 0.89902,1.07704 1.40042,1.57552c0,0 0.78681,0.78681 0,1.57361c-0.78681,0.7868 -1.57362,0 -1.57362,0c-1.57271,-1.58087 -2.75609,-3.43439 -4.22329,-5.11556c-0.99559,-1.14078 -2.41209,-1.8839 -3.5987,-2.80691c-0.34241,-0.26635 -0.72431,-0.49521 -1.00734,-0.82396c-0.19804,-0.23003 -0.11365,-0.72888 -0.40445,-0.81588c-0.21554,-0.06448 -0.04983,0.44732 -0.08442,0.66962c-0.09262,0.59511 -0.16654,1.19428 -0.29716,1.78222c-0.43161,1.94282 -0.78717,3.92018 -1.3488,5.83648l-0.15077,0.86426c0,0 -0.19904,1.09476 -1.29381,0.89571z" fill="#e3a500" stroke-width="0.5"/><path d="M323.42835,156.92299l-7.4166,-3.8516c0,0 4.12031,-0.45886 6.33112,-1.75466c3.07912,-1.80473 10.41752,-8.06203 10.41752,-8.06203l0.98188,4.46528z" fill="#e3a500" stroke-width="0"/><path d="M302.78252,164.00629c-1.03289,0.41383 -1.44673,-0.61906 -1.44673,-0.61906l-0.19345,-0.48914c-0.42216,-1.29023 -0.83459,-2.50543 -1.08563,-3.84113c-0.99604,-5.36183 -2.13443,-10.72191 -1.89389,-16.19986c0.0994,-2.26391 0.39013,-4.43389 1.47506,-6.44022c0,0 0.53547,-0.97539 1.51087,-0.43992c0.97539,0.53547 0.43993,1.51088 0.43993,1.51088c-1.12504,2.01139 -1.17111,4.37775 -1.25335,6.64302c-0.17634,4.85648 1.02722,9.77076 1.9094,14.51967c0.22705,1.23877 0.62115,2.35885 1.01271,3.55552l0.14416,0.35354c0,0 0.41383,1.03289 -0.61906,1.44673z" fill="#e3a500" stroke-width="0.5"/><path d="M302.2679,165.94347c-1.11271,0 -1.11271,-1.11272 -1.11271,-1.11272l0.00552,-0.35779c-0.03905,-0.39042 -0.07808,-0.78086 -0.11713,-1.17128c0,0 -0.11072,-1.10719 0.99647,-1.21791c1.10719,-0.11072 1.21791,0.99647 1.21791,0.99647c0.03905,0.39042 0.07809,0.78086 0.11713,1.17128l0.00553,0.57923c0,0 0,1.11272 -1.11272,1.11272z" fill="#c5d8e2" stroke-width="0.5"/><path d="M333.88047,146.54854c-0.97465,-0.85687 -1.44967,-1.29614 -2.71884,-1.6614c0,0 -0.00108,-0.00033 -0.00315,-0.00099c-2.2273,2.18271 -4.07443,4.69808 -6.53081,6.66986c-1.1916,0.95653 -2.50829,1.97517 -4.06293,2.22146c-1.36991,0.21702 -2.92288,-0.17899 -4.23331,-0.50287c0,0 -1.07956,-0.26957 -0.81,-1.34914c0.26956,-1.07956 1.34914,-0.81 1.34914,-0.81c1.03821,0.26225 2.28644,0.60727 3.37962,0.45891c1.10243,-0.14961 2.15341,-1.08794 2.98435,-1.75378c2.61233,-2.09328 4.51814,-4.82813 6.95886,-7.08858l0.79378,-0.30777c0,0 0.65488,-0.07502 1.0143,0.39445c0.87389,0.28128 1.74362,0.64467 2.46546,1.20575c0.16845,0.13094 0.38987,0.29747 0.63643,0.48516c-0.29853,0.76475 -0.60251,1.58296 -0.9702,2.24187c-0.08683,-0.06452 -0.17163,-0.13166 -0.2527,-0.20294z" fill="#a1b9c7" stroke-width="0.5"/><path d="M326.27421,149.19696c-0.0867,-0.04302 -0.17569,-0.10074 -0.26632,-0.17602c-0.85592,-0.71102 -0.1449,-1.56694 -0.1449,-1.56694c0.9764,-1.1738 1.94589,-2.38609 2.93993,-3.53774c0.38278,-0.44347 0.67498,-1.06728 1.22971,-1.25557c1.90807,-0.64763 5.09801,1.60733 5.06522,3.61039c-0.00985,0.60173 -0.44258,1.12314 -0.73563,1.64879c-1.07253,1.92377 -2.9349,2.73833 -5.0883,2.56611c-0.8499,-0.06798 -2.48593,-0.28457 -2.9997,-1.28903z" fill="#131415" stroke-width="0.5"/><path d="M323.09987,157.40357c-0.6927,-0.72123 0.02853,-1.41393 0.02853,-1.41393l0.65491,-0.6281c3.70563,-3.30934 6.97403,-6.93033 10.16878,-10.70365c0,0 0.64737,-0.76218 1.40955,-0.11481c0.76217,0.64737 0.1148,1.40955 0.1148,1.40955c-3.26788,3.83368 -6.58596,7.52626 -10.36059,10.90032l-0.60207,0.57915c0,0 -0.72123,0.69269 -1.41392,-0.02854z" fill="#a1b9c7" stroke-width="0.5"/><path d="M305.54909,147.27521c-0.50802,-0.86135 0.35333,-1.36936 0.35333,-1.36936l0.14015,-0.07924c1.9382,-0.93369 3.99044,-0.90757 6.10213,-0.75087c0,0 0.99697,0.07777 0.91921,1.07474c-0.07776,0.99697 -1.07474,0.91921 -1.07474,0.91921c-1.71744,-0.14177 -3.5032,-0.23193 -5.06568,0.55248l-0.00503,0.00638c0,0 -0.86135,0.50802 -1.36936,-0.35333z" fill="#a1b9c7" stroke-width="0.5"/><path d="M323.39673,139.53065c0.30143,0.95349 -0.65206,1.25492 -0.65206,1.25492l-0.11473,0.00941c-1.7218,1.00691 -3.10602,2.50328 -4.15676,4.1863c0,0 -0.53318,0.84601 -1.37918,0.31283c-0.846,-0.53317 -0.31283,-1.37918 -0.31283,-1.37918c1.24373,-1.9576 2.8299,-3.65225 4.83255,-4.84253l0.5281,-0.19381c0,0 0.95349,-0.30143 1.25492,0.65206z" fill="#a1b9c7" stroke-width="0.5"/><path d="M326.03056,155.43105c0.24515,-0.04903 0.29417,0.19612 0.29417,0.19612l0.04586,0.23465c0.62919,1.62701 -0.71774,1.19282 -1.66777,1.03704c0,0 -0.2466,-0.0411 -0.2055,-0.2877c0.0411,-0.2466 0.2877,-0.2055 0.2877,-0.2055c0.64082,0.10832 1.59541,0.77433 1.1063,-0.40137l-0.05688,-0.27907c0,0 -0.04903,-0.24515 0.19612,-0.29417z" fill="#ffffff" stroke-width="0.5"/><path d="M327.26348,154.14676c0.24515,-0.04903 0.29417,0.19612 0.29417,0.19612l0.04662,0.23726c0.45972,1.22797 0.24585,1.28952 -0.9596,1.29469c0,0 -0.25,0 -0.25,-0.25c0,-0.25 0.25,-0.25 0.25,-0.25c0.29323,0.00107 0.92596,0.39641 0.87305,0.10799c-0.02253,-0.12283 -0.36007,-0.6744 -0.39425,-0.76542l-0.05612,-0.27646c0,0 -0.04903,-0.24515 0.19612,-0.29417z" fill="#ffffff" stroke-width="0.5"/><path d="M329.04988,153.07056c0.24254,-0.06063 0.30317,0.1819 0.30317,0.1819l0.05398,0.21709c0.28895,1.47841 -0.50388,2.1967 -1.53196,0.70142c0,0 -0.13868,-0.20801 0.06934,-0.34669c0.20801,-0.13868 0.34669,0.06934 0.34669,0.06934c0.76059,1.19001 0.82628,0.65833 0.62565,-0.32601l-0.04876,-0.19388c0,0 -0.06063,-0.24254 0.1819,-0.30317z" fill="#ffffff" stroke-width="0.5"/><path d="M330.21803,151.69792c0.17678,-0.17678 0.35355,0 0.35355,0l0.08897,0.09952c0.38188,0.63647 0.57413,1.10849 0.58875,1.40672c0.10243,0.07386 0.11656,0.13441 -0.01674,0.17403c-0.1132,0.38733 -0.76878,0.22934 -1.90112,-0.52491c0,0 -0.20801,-0.13868 -0.06934,-0.34669c0.13868,-0.20801 0.34669,-0.06934 0.34669,-0.06934c0.25016,0.16692 0.77647,0.36269 1.18151,0.536c-0.24436,-0.35617 -0.50323,-0.82646 -0.55849,-0.91857l-0.01378,-0.00322c0,0 -0.17678,-0.17678 0,-0.35355z" fill="#ffffff" stroke-width="0.5"/><path d="M331.56729,149.95582c0.22361,-0.1118 0.33541,0.1118 0.33541,0.1118l0.02776,0.06455c0.92172,1.23571 0.16286,1.52554 -1.06305,1.32129c0,0 -0.2466,-0.0411 -0.2055,-0.2877c0.0411,-0.2466 0.2877,-0.2055 0.2877,-0.2055c0.90376,0.15068 1.22103,0.32142 0.58085,-0.52809l-0.07498,-0.14094c0,0 -0.1118,-0.22361 0.1118,-0.33541z" fill="#ffffff" stroke-width="0.5"/><path d="M332.83798,148.41013c0.17678,-0.17678 0.35355,0 0.35355,0l0.0982,0.11634c0.79104,1.58425 0.28196,1.52557 -1.19733,1.23027c0,0 -0.24515,-0.04903 -0.19612,-0.29417c0.04903,-0.24515 0.29417,-0.19612 0.29417,-0.19612c0.08275,0.01658 0.85001,0.15275 1.12207,0.28027c-0.15333,-0.22285 -0.44593,-0.74854 -0.47002,-0.79664l-0.00454,0.0136c0,0 -0.17678,-0.17678 0,-0.35355z" fill="#ffffff" stroke-width="0.5"/><path d="M334.12227,146.86898c0.17678,-0.17678 0.35355,0 0.35355,0l0.16314,0.20046c0.37589,1.12896 -0.08166,2.20253 -1.105,0.89689c0,0 -0.15,-0.2 0.05,-0.35c0.2,-0.15 0.35,0.05 0.35,0.05c0.70008,1.00171 0.42431,0.14153 0.23066,-0.43877l-0.04235,-0.00502c0,0 -0.17678,-0.17678 0,-0.35355z" fill="#ffffff" stroke-width="0.5"/><g><path d="M321.60201,162.22702l1.69026,-3.90873l18.38158,7.1836l-3.48616,2.95795z" fill="#e3a500" stroke-width="0"/><path d="M342.30872,166.68518c-0.70711,0.70711 -1.41422,0 -1.41422,0l-0.14943,-0.15524c-1.38374,-1.16467 -2.97275,-1.512 -4.59816,-2.23443c-4.26313,-1.89479 -8.51893,-3.57786 -13.04904,-4.77944c0,0 -0.96624,-0.25766 -0.70857,-1.2239c0.25767,-0.96624 1.22389,-0.70857 1.22389,-0.70857c4.62797,1.24013 8.98632,2.94673 13.34646,4.88449c1.81128,0.80498 3.50497,1.23556 5.06577,2.52541l0.28328,0.27747c0,0 0.70711,0.7071 0,1.41421z" fill="#a1b9c7" stroke-width="0.5"/><path d="M333.0735,161.11192c-0.1118,-0.22361 0.1118,-0.33541 0.1118,-0.33541l0.01455,0.02224c1.26352,-1.66965 1.50346,-1.08227 1.88355,0.7688c0,0 0.00605,0.03023 0.00328,0.07158l0.14656,-0.05781c0.58805,-0.08582 0.94016,-1.01778 1.46728,-0.98498c0.8088,0.05034 0.31896,1.71875 0.52747,2.21169c0,0 0.00228,0.0057 0.00523,0.01566l0.04822,-0.04822c1.74441,-1.73731 2.08197,-1.20685 2.51549,0.93809c0.00941,-0.00591 0.01532,-0.00886 0.01532,-0.00886l0.1217,-0.05988c0.55604,-0.208 0.74624,-1.22118 1.52418,-0.87217c0.69923,0.3137 0.25707,1.6063 0.25707,2.18309c0,0 0,0.25 -0.25,0.25c-0.25,0 -0.25,-0.25 -0.25,-0.25c0,-0.1808 0.24599,-1.67519 0.05159,-1.72115c-0.37062,-0.08762 -0.78177,0.72166 -1.14714,0.87447l-0.08379,0.04286c0,0 -0.22361,0.1118 -0.33541,-0.1118c-0.00007,-0.00013 -0.00013,-0.00027 -0.0002,-0.0004c-0.02376,0.01338 -0.05237,0.02412 -0.08676,0.031c-0.24515,0.04903 -0.29417,-0.19612 -0.29417,-0.19612c-0.10595,-0.5301 -0.0311,-1.55301 -0.35736,-1.94825c-0.08443,-0.10228 -1.19885,1.07398 -1.32696,1.20268l-0.15411,0.15411c0,0 -0.17678,0.17678 -0.35355,0c-0.04697,-0.04697 -0.06898,-0.09394 -0.07598,-0.13759c-0.20477,0.05524 -0.28759,-0.15182 -0.28759,-0.15182c-0.22702,-0.59129 0.44746,-2.23478 -0.08899,-1.89804c-0.51472,0.32309 -0.61195,0.83957 -1.30679,0.96715l-0.23137,0.09411c0,0 -0.23212,0.09285 -0.32497,-0.13927c-0.02369,-0.05922 -0.02622,-0.10938 -0.01686,-0.15124c-0.16549,-0.02 -0.20165,-0.20081 -0.20165,-0.20081c-0.03762,-0.19235 -0.12846,-1.62694 -0.34828,-1.66145c-0.21048,-0.03305 -0.53496,0.94679 -0.64498,1.09459l-0.19094,0.12498c0,0 -0.22361,0.1118 -0.33541,-0.1118z" fill="#ffffff" stroke-width="0.5"/><path d="M330.8086,160.20083c-0.17678,-0.17678 0,-0.35355 0,-0.35355l0.00454,0.0136c1.1086,-2.19656 1.747,-0.66543 2.01135,0.89265c0,0 0.0411,0.2466 -0.2055,0.2877c-0.2466,0.0411 -0.2877,-0.2055 -0.2877,-0.2055c-0.17791,-1.08456 -0.19222,-2.52807 -1.07094,-0.75124l-0.0982,0.11634c0,0 -0.17678,0.17678 -0.35355,0z" fill="#ffffff" stroke-width="0.5"/><path d="M328.65099,159.73849c-0.17678,-0.17678 0,-0.35355 0,-0.35355l0.02815,-0.02459c1.18539,-1.53245 1.28208,-1.40632 1.32332,0.5096c0,0 0,0.25 -0.25,0.25c-0.25,0 -0.25,-0.25 -0.25,-0.25c0.00671,-0.45262 0.10247,-0.94267 0.14993,-1.39497c0.04581,-0.43651 -0.31374,0.83141 -0.57325,1.18537l-0.07459,0.07815c0,0 -0.17678,0.17678 -0.35355,0z" fill="#ffffff" stroke-width="0.5"/><path d="M320.5801,161.78381c0.50172,-0.99319 1.4949,-0.49146 1.4949,-0.49146c1.04546,0.52813 2.92727,1.47877 3.97272,2.0069c2.49616,1.2645 5.19485,2.01583 7.79564,3.02572c1.51493,0.58825 3.50448,1.27095 5.12971,0.75226c0.72711,-0.23206 0.97809,-0.85134 1.24142,-1.49322c0.73098,0.22473 1.56248,0.36329 2.3617,0.50834c-0.41046,0.83626 -0.90762,1.77545 -1.30948,2.17252c-1.61626,1.59706 -3.82357,1.26128 -5.76805,0.82142c-3.49873,-0.79145 -7.23941,-2.18075 -10.45436,-3.8007c-1.04546,-0.52813 -2.0909,-1.05626 -3.13636,-1.58439l-0.83637,-0.42251c0,0 -0.99317,-0.50172 -0.49145,-1.4949z" fill="#a1b9c7" stroke-width="0.5"/></g></g><path d="M303.70302,167.23773c1.69752,4.50185 -4.3459,6.52142 -5.88492,2.31297c-1.02594,-2.80543 0.17852,-5.4545 2.06283,-5.52148c0.15751,-0.02946 0.32035,-0.0449 0.48699,-0.0449c1.21292,0 2.2241,0.81812 2.45195,1.90353c0.2613,0.34596 0.52192,0.7453 0.7792,1.20221z" fill="#a1b9c7" stroke="none" stroke-width="0.5"/><path d="M296.63911,236.72632v-111.84076h47.29829v111.84077z" fill="none" stroke-opacity="0.01176" stroke="#ffffff" stroke-width="0.5"/><path d="M296.6391,236.72633v-111.84076h47.29829v111.84077z" fill="none" stroke-opacity="0.01176" stroke="#ffffff" stroke-width="0.5"/><path d="M296.6391,236.72633v-111.84076h47.29829v111.84077z" fill="none" stroke-opacity="0.01176" stroke="#ffffff" stroke-width="0.5"/></g></g></svg>