<svg version="1.1" xmlns="http://www.w3.org/2000/svg" xmlns:xlink="http://www.w3.org/1999/xlink" width="22.80932" height="20.08617" viewBox="0,0,22.80932,20.08617"><g transform="translate(-321.0667,-192.69585)"><g data-paper-data="{&quot;isPaintingLayer&quot;:true}" fill-rule="nonzero" stroke="none" stroke-width="0" stroke-linecap="butt" stroke-linejoin="miter" stroke-miterlimit="10" stroke-dasharray="" stroke-dashoffset="0" style="mix-blend-mode: normal"><path d="M323.25664,212.78202c0.02481,-0.34937 0.05946,-0.69783 0.12495,-1.04221c0.60699,-3.20748 0.3318,-6.1932 0.3318,-9.38728c0,-1.26562 0.70447,-3.71847 0.267,-4.82204c-0.32866,-0.82909 -1.45724,-0.78218 -1.69816,-1.80587c-0.17634,-0.74927 0.88693,-1.25002 1.34975,-1.6361c0.51808,-0.53076 1.10386,-0.97942 1.72092,-1.39267c0.21657,1.80414 5.90292,3.93569 7.28537,4.30842c0.9637,0.25554 2.44859,0.13432 3.30538,0.55982c0.52183,0.25916 0.93683,1.50904 1.3842,1.96812c1.01727,1.0439 2.41551,1.86215 3.62187,2.66655c0.53774,0.40346 2.07115,0.99925 2.29389,1.65684c0.73888,2.18145 -0.32479,5.15687 0.1062,7.45287c0.11758,0.61271 0.29579,1.0893 0.52621,1.47353z" fill="#5f4b29"/><path d="M323.32711,201.16713c-0.04018,0.2752 -0.07438,0.53781 -0.09448,0.77719c-0.74654,-0.00776 -1.46513,-0.05836 -2.16593,-0.14883c0.76322,-0.23984 1.52484,-0.4572 2.26042,-0.62836z" fill="#46371e"/><path d="M324.58187,200.91962c3.28384,-0.51485 5.44432,0.9902 5.85785,1.20015c1.17112,0.59457 1.42402,4.83945 4.47128,4.51157c1.88662,-0.203 4.99833,-2.44749 7.49531,-3.58331c0.39982,0.25062 0.74101,0.52333 0.8373,0.80759c0.73888,2.18145 -0.32479,5.15687 0.1062,7.45287c0.08813,0.45924 0.21032,0.84201 0.36302,1.16673l-20.4409,0.10844c0.02374,-0.28284 0.05657,-0.56469 0.10966,-0.84385c0.60699,-3.20748 0.3318,-6.1932 0.3318,-9.38728c0,-0.35711 0.05609,-0.80875 0.12678,-1.29793c0.25143,-0.0516 0.499,-0.09693 0.74169,-0.13498z" fill="#46371e"/><path d="M324.78508,207.41564c3.28384,-0.22984 5.44432,0.44204 5.85785,0.53577c1.17112,0.26543 1.42402,2.16042 4.47128,2.01404c1.48987,-0.07156 4.96984,-1.03215 8.24406,-1.85186c-0.10417,1.11235 -0.19232,2.21545 -0.00846,3.1949c0.09729,0.50697 0.23609,0.92076 0.41163,1.26613l-20.49276,0.04853c0.02399,-0.29609 0.05736,-0.59119 0.11292,-0.88334c0.27337,-1.44455 0.3678,-2.84411 0.38903,-4.23799c0.34545,-0.03398 0.68447,-0.06309 1.01446,-0.08618z" fill-opacity="0.66275" fill="#45423d"/></g></g></svg>