<svg version="1.1" xmlns="http://www.w3.org/2000/svg" xmlns:xlink="http://www.w3.org/1999/xlink" width="25.66708" height="32.38634" viewBox="0,0,25.66708,32.38634"><g transform="translate(-325.78759,-180.39567)"><g data-paper-data="{&quot;isPaintingLayer&quot;:true}" fill-rule="nonzero" stroke="none" stroke-width="0" stroke-linecap="butt" stroke-linejoin="miter" stroke-miterlimit="10" stroke-dasharray="" stroke-dashoffset="0" style="mix-blend-mode: normal"><path d="M342.67078,183.62133c1.61368,3.11986 4.90152,2.71601 7.90455,3.76121v25.39947h-6.10857c-0.28296,-0.38032 -0.49631,-0.87725 -0.62573,-1.56681c-0.44071,-2.29199 0.68389,-5.36547 -0.12703,-7.52909c-0.31491,-0.84021 -1.78937,-1.38112 -2.47543,-1.89547c-1.18026,-0.7877 -2.55722,-1.58592 -3.55263,-2.60738c-0.53515,-0.54916 -0.85883,-1.7035 -1.5085,-2.06114c-0.84604,-0.46574 -2.44171,-0.34412 -3.41102,-0.60115c-1.84896,-0.48092 -3.68406,-1.49804 -5.3165,-2.48515c-0.52706,-0.31871 -2.01978,-0.83647 -1.58349,-1.5613c0,0 0.02879,-0.05758 0.02793,-0.12891c1.8228,-1.144 3.81831,-2.1057 5.11324,-4.00502c1.49051,-2.20188 2.21455,-4.95378 3.37112,-7.27094c0.14474,-0.05785 0.14474,-0.23151 0.14474,-0.23151l-0.00485,-0.02569c0.00158,-0.00877 0.00326,-0.01754 0.00503,-0.0263c0.01536,-0.02933 0.0308,-0.05858 0.04633,-0.08774c0,0 0.03534,-0.07067 0.02655,-0.15242c0.02112,-0.05159 0.04545,-0.10191 0.0728,-0.15032c1.54489,2.33268 5.54735,2.75454 8.00147,3.22566z" fill="#5f4b29"/><path d="M345.46675,202.57279c2.81906,1.52671 4.78907,9.86772 4.78907,9.86772l-5.98881,0.03177c-0.18506,-0.33227 -0.32905,-0.74065 -0.42598,-1.25707c-0.44071,-2.29199 0.68389,-5.36547 -0.12703,-7.52909c-0.12292,-0.32795 -0.42249,-0.61031 -0.78289,-0.86328c1.03193,-0.41342 1.9259,-0.58026 2.53564,-0.25004z" fill="#46371e"/><path d="M335.25263,194.72425c-1.71981,-1.8876 -4.82548,-3.28275 -2.87264,-5.42611c1.95283,-2.14336 4.24108,-1.04374 6.06447,0.95755c1.8234,2.00128 1.79971,5.03115 -0.15959,7.18161c-0.68446,0.75124 -1.05086,0.87687 -1.31123,0.64184c-0.0902,-0.15825 -0.18264,-0.31275 -0.28142,-0.4528c-0.30363,-0.7063 -0.56694,-1.9443 -1.4396,-2.90209z" fill="#a4a097"/><path d="M350.10198,206.9945c2.81906,0.68155 0.35705,5.56426 0.35705,5.56426l-6.1331,0.01452c-0.21359,-0.34969 -0.37792,-0.78807 -0.4849,-1.35808c-0.18788,-0.97711 -0.09128,-2.09624 0.01857,-3.22636c2.76026,-0.68218 5.29056,-1.22446 6.24238,-0.99435z" fill-opacity="0.66275" fill="#45423d"/></g></g></svg>