<svg version="1.1" xmlns="http://www.w3.org/2000/svg" xmlns:xlink="http://www.w3.org/1999/xlink" width="39.81415" height="45.0792" viewBox="0,0,39.81415,45.0792"><g transform="translate(-220.61243,-121.54188)"><g data-paper-data="{&quot;isPaintingLayer&quot;:true}" fill-rule="nonzero" stroke="none" stroke-linecap="butt" stroke-linejoin="miter" stroke-miterlimit="10" stroke-dasharray="" stroke-dashoffset="0" style="mix-blend-mode: normal"><path d="M222.19224,159.35261c-0.32267,-6.14144 0.00042,-15.32968 0.00042,-15.32968c0,0 5.49845,-17.1803 6.2312,-17.1803c1.38889,0 4.47475,3.56091 9.01725,6.93838c1.10129,0.81884 1.71818,-11.43651 2.87177,-10.6215c5.77322,4.07878 10.89937,20.77441 10.89937,20.77441c0,0 1.772,7.34556 1.89881,12.63546c0.0517,2.1567 0.58879,5.16929 0.68695,8.79858c-1.5097,0.31221 -3.09625,0.49022 -4.48407,0.94673c-3.15727,0.4002 -6.37258,0.29348 -9.5849,0.29348c-3.27892,0 -6.12718,-0.16362 -9.2905,-0.90996c-2.52979,-0.50615 -6.07839,-1.41755 -8.06818,-3.3287c-0.07186,-1.12729 -0.13226,-2.14439 -0.1781,-3.0169z" fill="#c5d8e2" stroke-width="0"/><path d="M253.13107,164.94787c0,-2.67532 0.04436,-5.391 -0.97456,-7.90282c0,0 -0.41325,-1.03313 0.61988,-1.44638c1.03313,-0.41325 1.44638,0.61988 1.44638,0.61988c1.10949,2.80685 1.13374,5.74748 1.13374,8.72932l-0.00229,0.02168c-0.7298,0.23526 -1.50548,0.39677 -2.28974,0.5404z" fill="#c5d8e2" stroke-width="0.5"/><path d="M244.56461,164.51802c0,0 -2.08016,1.71939 -3.42135,1.01477c-0.76944,-0.40425 -5.42108,-6.46303 -5.42108,-6.46303c0,0 3.29953,-10.07767 4.36431,-10.72272c0.64764,-0.39233 4.36713,3.80959 4.86823,3.69458c2.79906,-0.64244 12.11992,-1.41179 12.11992,-1.41179l1.9789,8.62189z" fill="#c6deec" stroke-width="0"/><path d="M231.75174,158.3273c0.29543,-0.47144 0.76686,-0.17601 0.76686,-0.17601l0.0491,0.06446c4.65795,1.13018 9.63685,1.3869 14.33592,0.30262c2.86012,-0.65646 5.48606,-1.43475 8.19119,-2.512c0.97217,-0.38714 1.88476,-0.70293 2.71331,-1.39185c0,0 0.42935,-0.35382 0.78317,0.07553c0.35382,0.42935 -0.07553,0.78317 -0.07553,0.78317c-3.0284,2.47702 -7.63528,3.27401 -11.36324,4.12965c-4.87157,1.11269 -10.01787,0.86598 -14.8472,-0.30579l-0.3776,-0.20293c0,0 -0.47144,-0.29543 -0.17601,-0.76686z" fill="#a9ccdf" stroke-width="0.5"/><path d="M253.52297,158.05477c-1.0911,0.21822 -1.30933,-0.87288 -1.30933,-0.87288l-0.16138,-0.82202c-0.08133,-0.71123 -0.38267,-1.37972 -0.56331,-2.07242c-0.39625,-1.51948 -0.18515,-3.15686 -0.46614,-4.69272c-0.10448,-0.5711 -0.37078,-1.10707 -0.45291,-1.6818c-0.44397,-3.1067 -0.49521,-6.31854 -1.45151,-9.34017c-0.73598,-2.32548 -2.07942,-4.32554 -2.93834,-6.58826c0,0 -0.3907,-1.04187 0.65116,-1.43257c1.04187,-0.3907 1.43258,0.65116 1.43258,0.65116c0.8567,2.3183 2.24468,4.37985 2.99612,6.7643c0.98473,3.12472 1.05722,6.4394 1.51573,9.65014c0.07735,0.54166 0.33996,1.04373 0.43726,1.58216c0.26386,1.46007 0.03186,3.07218 0.42403,4.50571c0.21627,0.79056 0.51536,1.56601 0.62359,2.37844l0.13535,0.6616c0,0 0.21822,1.09111 -0.87288,1.30933z" fill="#c5d8e2" stroke-width="0.5"/><path d="M225.80371,137.44274c-1.09477,-0.19905 -0.89572,-1.29381 -0.89572,-1.29381l0.2053,-1.09411c0.5565,-1.8849 0.87481,-3.82789 1.32172,-5.73575c0.16532,-0.70573 0.06397,-1.50036 0.41498,-2.13453c0.44252,-0.7995 0.97333,-1.84624 1.87395,-2.0009c0.50941,-0.08747 2.40821,1.60827 3.03906,2.09888c1.30271,1.01311 2.77553,1.82352 3.87874,3.06821c0.53169,0.59987 1.02177,1.22843 1.50548,1.85988l0.06475,-0.42217c0.46918,-1.75883 0.97875,-3.57015 1.21834,-5.37878c0.13643,-1.02983 -0.02445,-1.62334 0.37721,-2.6061c0.31663,-0.77472 0.3586,-1.93927 1.14095,-2.23656c0.64742,-0.24603 2.20647,1.38348 2.70171,1.90373c1.05221,1.10534 1.77746,2.27692 2.6737,3.49187c0.94549,1.28172 1.7397,2.02912 2.36397,3.54209c0,0 0.41325,1.03313 -0.61988,1.44638c-1.03313,0.41325 -1.44638,-0.61988 -1.44638,-0.61988c-0.69629,-1.81545 -2.33402,-3.70104 -3.57395,-5.23656c-0.33241,-0.41165 -0.81349,-0.71876 -1.20727,-1.08057c-0.05671,0.18637 -0.11155,0.32908 -0.11723,0.36942c-0.3338,2.37081 -0.74076,4.65213 -1.36088,6.97839l-0.06264,0.49377c0,0 -0.12313,0.86192 -0.91399,0.95198c0.44032,0.54594 0.89902,1.07704 1.40042,1.57552c0,0 0.78681,0.78681 0,1.57361c-0.78681,0.7868 -1.57362,0 -1.57362,0c-1.57271,-1.58087 -2.75609,-3.43439 -4.22329,-5.11556c-0.99559,-1.14078 -2.41209,-1.8839 -3.5987,-2.80691c-0.34241,-0.26635 -0.72431,-0.49521 -1.00734,-0.82396c-0.19804,-0.23003 -0.11365,-0.72888 -0.40445,-0.81588c-0.21554,-0.06448 -0.04983,0.44732 -0.08442,0.66962c-0.09262,0.59511 -0.16654,1.19428 -0.29716,1.78222c-0.43161,1.94282 -0.78717,3.92018 -1.3488,5.83648l-0.15077,0.86426c0,0 -0.19904,1.09476 -1.29381,0.89571z" fill="#c0d3dd" stroke-width="0.5"/><path d="M220.61722,159.04735c0,-5.45356 -0.14028,-10.9314 1.09671,-16.27328c0.51121,-2.20768 1.19337,-4.28806 2.62649,-6.06249c0,0 0.70461,-0.86119 1.5658,-0.15658c0.86119,0.70461 0.15658,1.56581 0.15658,1.56581c-1.47348,1.77208 -1.95096,4.09022 -2.44555,6.30237c-1.06036,4.74259 -0.77459,9.79403 -0.77459,14.62418c-0.00302,1.2594 0.17988,2.43262 0.3463,3.68068l0.07622,0.36932c-0.54783,-0.38173 -1.03101,-0.81268 -1.41759,-1.3002c-0.2868,-0.35324 -0.70399,-0.71425 -1.13929,-1.01326c-0.05441,-0.57104 -0.08984,-1.14538 -0.09109,-1.73655z" fill="#c5d8e2" stroke-width="0.5"/><path d="M242.48231,137.93489c0.2023,-0.23996 0.42301,-0.45142 0.70924,-0.5616c0.59435,-0.22879 1.27227,0.06116 1.90841,0.09174c0.50284,0.2869 1.09944,0.45108 1.50853,0.86073c1.65252,1.65483 1.02979,5.00615 1.02868,7.11171c-0.00033,0.62278 0.05594,2.36466 -0.24073,2.85225c-1.70782,2.80685 -5.04687,1.07836 -6.01471,-1.29399c-0.2148,-0.5265 -0.20992,-2.31657 -0.18562,-2.8929c0.0748,-1.77497 0.2605,-3.58525 0.60628,-5.3256c0,0 0.12828,-0.64142 0.67993,-0.84232z" fill="#f1f5f7" stroke-width="0.5"/><path d="M235.28082,138.46431c1.07895,0.24797 2.00579,0.93746 2.86437,1.67532c0.3513,0.42702 0.82942,0.77572 1.05392,1.28105c0.6162,1.38702 0.21107,3.80705 0.09092,5.29126c-0.05106,0.63083 0.07723,1.33897 -0.24689,1.88256c-0.38591,0.64723 -1.05757,1.12162 -1.73775,1.44597c-2.01745,0.96203 -5.11377,-0.28636 -5.91886,-2.3109c-0.1889,-0.47502 -0.04922,-1.02132 -0.06023,-1.53239c-0.02776,-1.28806 0.00362,-2.68277 0.25283,-3.95054c0.10255,-0.52172 0.25161,-0.99002 0.43729,-1.43136l0.35072,-1.68143c0.3133,-0.1611 0.60374,-0.38929 0.91856,-0.54593c0.03357,-0.05063 0.06743,-0.10154 0.10152,-0.15276c0,0 0.61722,-0.92584 1.54305,-0.30862c0.15842,0.10561 0.27165,0.22026 0.35054,0.33775z" fill="#f1f5f7" stroke-width="0.5"/><path d="M240.17565,165.44642c-0.24892,-1.08452 0.83559,-1.33343 0.83559,-1.33343c1.1416,-0.26202 3.19647,-0.73365 4.33806,-0.99567c2.72796,-0.6229 5.2837,-1.76992 7.9294,-2.65551c1.54109,-0.51585 3.50757,-1.26241 4.42599,-2.70008c0.56863,-0.89012 -0.03803,-1.76777 -0.20664,-2.71722c-0.22692,-1.27776 -0.324,-1.91743 -1.08783,-2.99483c0,0 -0.00064,-0.00093 -0.00185,-0.00274c-3.10248,0.31576 -6.11547,1.1287 -9.26534,1.13669c-1.52802,0.00388 -3.19255,-0.02176 -4.56105,-0.79941c-1.20589,-0.68525 -2.1723,-1.96377 -2.99419,-3.03456c0,0 -0.67538,-0.88431 0.20893,-1.55969c0.8843,-0.67538 1.55968,0.20893 1.55968,0.20893c0.64763,0.85277 1.40772,1.90128 2.35453,2.46751c0.95482,0.57102 2.3616,0.4936 3.42641,0.49181c3.34754,-0.00562 6.54335,-0.95344 9.86111,-1.19677l0.81233,0.25483c0,0 0.55855,0.35002 0.54645,0.94116c0.50736,0.76511 0.96023,1.59179 1.17416,2.48066c0.2143,0.89036 0.78184,2.90182 0.69639,3.77105c-0.22229,2.26131 -2.13451,3.41385 -3.91112,4.31837c-3.19667,1.6275 -6.96154,2.94986 -10.4695,3.7588c-1.1416,0.26202 -2.28318,0.52404 -3.42478,0.78606l-0.91328,0.20962c0,0 -1.08451,0.24892 -1.33343,-0.8356z" fill="#a1b9c7" stroke-width="0.5"/><path d="M251.23607,151.66742c-0.03603,-0.08984 -0.06398,-0.19216 -0.08146,-0.30867c-0.16501,-1.10041 0.93541,-1.26542 0.93541,-1.26542c1.51008,-0.22541 3.04064,-0.48415 4.54913,-0.6813c0.58088,-0.07592 1.21429,-0.34669 1.75351,-0.11773c1.8547,0.78755 2.7327,4.59408 1.3743,6.06653c-0.40807,0.44233 -1.07811,0.54312 -1.64678,0.7401c-2.08123,0.72088 -4.01302,0.08829 -5.50476,-1.47424c-0.58876,-0.6167 -1.66499,-1.86779 -1.37934,-2.95926z" fill="#131415" stroke-width="0.5"/><path d="M237.12054,140.6491c0.74822,1.02878 0.48406,3.94051 -1.11617,3.5437c-1.21147,-0.3004 -0.97521,-1.4185 -0.56211,-2.40396c-0.116,-0.36134 -0.10905,-0.74576 0.24888,-1.07859c0.14236,-0.13238 0.27714,-0.22991 0.40408,-0.29676c0.0863,-0.13389 0.30525,-0.37793 0.6873,-0.21419c0.25698,0.11013 0.32948,0.29406 0.33801,0.4498z" fill="#2a2e30" stroke-width="0.5"/><path d="M245.38889,138.34889c0.52781,-0.17594 0.70374,0.35187 0.70374,0.35187l0.1928,0.58696c0.12225,0.95115 0.8041,3.27273 -0.8345,3.43525c-0.02195,0.00217 -0.0436,0.0037 -0.06498,0.0046c-0.17023,0.19912 -0.40285,0.31113 -0.71997,0.25752c-0.38635,-0.06531 -0.51036,-0.61944 -0.62952,-0.9927c-0.31073,-0.97342 0.31488,-2.24631 1.00277,-2.838c0,0 0.0092,-0.00736 0.02599,-0.0186l-0.02822,-0.08316c0,0 -0.17593,-0.52781 0.35187,-0.70374z" fill="#2a2e30" stroke-width="0.5"/></g></g></svg>