<svg version="1.1" xmlns="http://www.w3.org/2000/svg" xmlns:xlink="http://www.w3.org/1999/xlink" width="180.78506" height="245.85247" viewBox="0,0,180.78506,245.85247"><g transform="translate(-138.14928,-94.58247)"><g data-paper-data="{&quot;isPaintingLayer&quot;:true}" fill-rule="nonzero" stroke="none" stroke-width="0.5" stroke-linecap="butt" stroke-linejoin="miter" stroke-miterlimit="10" stroke-dasharray="" stroke-dashoffset="0" style="mix-blend-mode: normal"><path d="M261.65696,176.61812c-2.45145,0.49029 -2.94174,-1.96116 -2.94174,-1.96116l-0.36257,-1.84687c-0.18273,-1.59797 -0.85976,-3.09989 -1.26562,-4.65622c-0.89029,-3.41391 -0.41599,-7.09271 -1.04731,-10.54342c-0.23475,-1.28311 -0.83305,-2.48731 -1.01759,-3.7786c-0.99748,-6.97999 -1.11261,-14.19625 -3.26119,-20.98512c-1.65357,-5.2248 -4.67196,-9.71846 -6.60176,-14.80224c0,0 -0.87781,-2.34082 1.46301,-3.21863c2.34082,-0.87781 3.21864,1.46301 3.21864,1.46301c1.92479,5.20866 5.04326,9.84046 6.73157,15.19776c2.21245,7.02048 2.37532,14.46778 3.40549,21.68155c0.17379,1.21698 0.76379,2.345 0.98241,3.55473c0.59283,3.28043 0.0716,6.90244 0.95269,10.12324c0.4859,1.7762 1.15788,3.51844 1.40105,5.34378l0.30409,1.48646c0,0 0.49029,2.45146 -1.96116,2.94174z" fill="#c5d8e2"/><path d="M199.37846,130.30787c-2.45968,-0.44721 -2.01246,-2.90689 -2.01246,-2.90689l0.46126,-2.4582c1.25032,-4.23492 1.96548,-8.60033 2.96958,-12.88684c0.37142,-1.5856 0.14373,-3.37095 0.93236,-4.79578c0.99424,-1.7963 2.18685,-4.14806 4.21032,-4.49554c1.14452,-0.19654 5.41067,3.6134 6.82804,4.71569c2.92688,2.27621 6.23594,4.09701 8.7146,6.89354c1.19458,1.34777 2.29567,2.75999 3.38245,4.1787l0.14547,-0.94851c1.05415,-3.95166 2.19902,-8.02129 2.73733,-12.08484c0.30651,-2.31377 -0.05493,-3.64725 0.84749,-5.85527c0.71139,-1.74061 0.8057,-4.35707 2.56343,-5.02502c1.4546,-0.55276 4.9574,3.10834 6.07008,4.27721c2.36406,2.48343 3.99353,5.11569 6.00716,7.84538c2.1243,2.87972 3.90869,4.55894 5.31128,7.95822c0,0 0.92847,2.3212 -1.39272,3.24967c-2.32119,0.92848 -3.24967,-1.39272 -3.24967,-1.39272c-1.56438,-4.07888 -5.24398,-8.31535 -8.02982,-11.76529c-0.74685,-0.92489 -1.82772,-1.61489 -2.71245,-2.42779c-0.12742,0.41873 -0.25062,0.73936 -0.26338,0.83c-0.74997,5.32664 -1.66431,10.45222 -3.05757,15.67876l-0.14072,1.1094c0,0 -0.27665,1.93653 -2.05352,2.13886c0.98929,1.22659 2.01988,2.41986 3.14641,3.53982c0,0 1.76776,1.76777 0,3.53553c-1.76776,1.76776 -3.53553,0 -3.53553,0c-3.5335,-3.55185 -6.19228,-7.71626 -9.48873,-11.49342c-2.23686,-2.56307 -5.41939,-4.23268 -8.0854,-6.30646c-0.76931,-0.59842 -1.62734,-1.11262 -2.26325,-1.85124c-0.44496,-0.51683 -0.25534,-1.6376 -0.90871,-1.83307c-0.48425,-0.14487 -0.11195,1.00502 -0.18968,1.50447c-0.20809,1.33707 -0.37418,2.68326 -0.66764,4.00422c-0.96972,4.36505 -1.76858,8.80768 -3.03042,13.11316l-0.33874,1.9418c0,0 -0.44721,2.45968 -2.90688,2.01246z" fill="#c0d3dd"/><path d="M191.71596,190.89965c-2.45145,0.49029 -2.94174,-1.96116 -2.94174,-1.96116l-0.22662,-1.15988c-0.40308,-3.0233 -0.81548,-5.87691 -0.82193,-8.93041c0,-12.25284 -0.31517,-24.56022 2.46403,-36.56215c1.14857,-4.96012 2.68121,-9.63423 5.90108,-13.62095c0,0 1.58309,-1.93489 3.51798,-0.3518c1.9349,1.58309 0.3518,3.51799 0.3518,3.51799c-3.31055,3.98142 -4.38333,9.18974 -5.49457,14.15991c-2.38236,10.65546 -1.74032,22.00481 -1.74032,32.857c-0.00679,2.82956 0.40417,5.46551 0.77807,8.26959l0.17338,0.84012c0,0 0.49029,2.45145 -1.96116,2.94174z" fill="#c5d8e2"/><path d="M165.26253,283.69861c1.05244,-10.11728 5.04351,-19.78124 7.99169,-29.42994c1.69891,-5.56014 2.15988,-11.1981 3.66294,-16.76857c0,0 0.03526,-0.12928 0.11937,-0.31981c-1.67135,-0.60136 -3.24416,-1.50079 -4.66545,-2.81768c-1.07509,-0.99612 -2.7128,-4.15719 -3.45772,-5.50121c-1.10389,-2.77851 -1.94438,-5.92647 -2.42786,-9.17077c-2.62333,6.75321 -5.85321,13.26476 -8.51998,20.07975c-2.65888,6.79482 -4.1082,14.17269 -6.26624,21.18103c-2.66544,7.28105 -4.68359,14.56623 -7.92437,21.66235l-0.13348,0.44854c0.01642,0.09488 0.0211,0.15112 0.0211,0.15112c0.53167,6.43137 -0.0383,12.86973 0.26923,19.30485c0.2247,4.70191 1.36959,9.18123 1.83251,13.81431c0.50885,5.09275 -0.21233,10.27471 0.20284,15.39034c2.72426,0.7414 5.41746,1.76445 8.12835,2.41859c2.52339,0.60889 5.39332,0.38617 7.96086,0.75278c1.586,0.22646 3.18761,0.32575 4.7798,0.50353c0.37847,0.04226 0.78098,0.62156 1.0768,0.38174c0.27551,-0.22336 -0.25311,-0.67244 -0.28221,-1.02592c-0.13501,-1.63996 -0.26958,-3.2823 -0.51096,-4.91001c-0.83367,-5.62189 -0.28373,-11.47694 -0.79658,-17.15634c-1.53509,-9.20355 -1.07305,-18.64206 -1.07305,-27.95047v-0.78947c0,0 0,-0.07086 0.01193,-0.18873zM181.74098,238.81569c-1.54369,5.59178 -2.00675,11.314 -3.70548,16.91564c-2.80847,9.26106 -6.83325,18.62136 -7.78538,28.33635v0.66916c0,0.16295 -0.00015,0.32594 -0.00043,0.48898l0.00043,0.03734c0,0 0,0.00913 -0.00055,0.0263c-0.01749,8.91616 -0.43452,17.94975 1.03276,26.76007c0.60489,6.61185 0.7433,13.22372 1.32404,19.80939c0.16344,1.85346 0.12492,6.26429 -1.33484,7.62466c-1.00128,0.93311 -5.67644,1.0435 -7.18881,0.89899c-6.61094,-0.6317 -12.6926,-2.15579 -19.07323,-3.75367c-1.94433,0.64399 -2.91649,-1.30034 -2.91649,-1.30034l-1.041,-2.44822c-0.52713,-5.33165 0.2678,-10.74845 -0.2634,-16.05505c-0.47195,-4.71473 -1.62451,-9.29357 -1.8517,-14.08043c-0.26219,-5.52421 0.13919,-11.05524 -0.09819,-16.57731c-1.04995,-0.98057 -0.58841,-2.51901 -0.58841,-2.51901l0.84345,-2.79165c3.19204,-7.05158 5.24943,-14.2577 7.86511,-21.49554c2.18418,-7.10415 3.6683,-14.55801 6.36534,-21.45054c3.95276,-10.10164 9.31934,-19.54129 11.72679,-30.15867c0,0 0.37863,-1.64073 1.86095,-1.91837c0.46047,-1.79008 1.58678,-3.35441 2.1399,-5.11902c1.40065,-4.46845 2.1222,-8.20365 6.84458,-10.4521c3.65514,-1.74031 8.19241,-1.02731 12.11687,-1.02731c0,0 2.5,0 2.5,2.5c0,2.5 -2.5,2.5 -2.5,2.5c-3.65859,0 -8.7452,-1.0797 -11.70301,1.68456c-1.85836,1.73675 -1.78519,4.08181 -2.49343,6.30972c-0.19498,0.61335 -1.86562,4.05926 -2.05947,4.83704c-1.50287,6.03002 -0.6181,13.97493 1.67163,19.64788c0.15084,0.27075 1.9866,3.64626 2.33175,3.97247c5.11444,4.83373 14.60895,1.97562 20.67359,1.96939l-0.0011,-0.13487c0,0 2.37171,-0.79057 3.16228,1.58114c0.79057,2.37171 -1.58114,3.16228 -1.58114,3.16228l-1.58004,0.39145c-4.54944,-0.0051 -9.76162,0.93671 -14.6123,0.51664c-0.00886,0.37795 -0.08105,0.64266 -0.08105,0.64266z" fill="#b0c1ca"/><path d="M285.35657,218.87641c0.91903,1.39262 1.97466,2.70775 3.15986,3.8822c5.50763,6.20758 9.9079,13.37841 14.25314,20.39764c5.15292,8.32394 10.4947,16.3211 14.91873,25.07953c0.20692,0.31557 0.32006,0.65341 0.38192,0.92851c0.0674,0.27252 0.11714,0.62339 0.07421,0.99634l-0.00214,2.09451c0.44952,4.89481 0.79204,9.669 0.79204,14.58697c0,5.57485 -0.00145,11.0472 -0.53848,16.56213c-0.15953,1.6383 0.21932,4.03655 -0.01433,5.643c-1.34286,9.23285 -2.06419,18.64982 -2.07855,28.03553c0.01111,0.17342 0.00687,0.36032 -0.01551,0.56173c-0.08761,0.78848 -0.39763,1.29895 -0.78008,1.62845c-0.36972,0.34372 -0.9113,0.59547 -1.70463,0.59547c-0.21682,0 -0.41484,-0.0188 -0.59568,-0.05315l-1.77274,-0.21001c-5.6048,0 -11.38776,0.42095 -16.95539,-0.26573c-1.49044,-0.18382 -3.3328,0.34965 -4.45896,-0.6438c-1.09244,-0.9637 -0.79327,-2.80685 -1.07324,-4.23645c-0.88803,-4.53455 -0.80188,-9.06534 -0.80188,-13.66981c0,-10.98061 -0.96932,-22.43235 0.00852,-33.3641c0.54445,-6.08668 2.07861,-11.77368 2.09659,-17.8442c-2.39912,-7.80627 -6.57888,-15.17037 -10.48821,-22.33907c-1.77417,-3.25336 -2.72919,-6.78208 -6.36116,-8.07881c0,0 -1.19192,-0.47677 -1.52589,-1.60113c-3.47979,0.10811 -7.15214,-0.32532 -9.91405,-0.32532h-1.84211c0,0 -2.5,0 -2.5,-2.5c0,-2.5 2.5,-2.5 2.5,-2.5h1.84211c3.46906,0 6.96367,0.12099 10.43037,0.00184c0.96455,-0.03315 3.30261,0.07974 4.32755,-0.77289c1.45282,-1.20858 2.08865,-3.96966 2.78719,-5.62277c-0.14926,-7.1434 1.53384,-13.81534 1.53384,-20.84302c0,-0.94685 0.66087,-5.82918 -0.01469,-6.61173c-0.2796,-0.32389 -0.84866,0.15018 -1.27633,0.13684c-0.86772,-0.02707 -1.73148,-0.14024 -2.59167,-0.25751c-4.57238,-0.62339 -9.27553,-1.84371 -13.88047,-1.82022c0,0 -2.5,0 -2.5,-2.5c0,-2.5 2.5,-2.5 2.5,-2.5c4.85196,0.02051 9.72671,1.20744 14.54058,1.86399c1.6319,0.22257 5.56288,0.2997 6.65832,1.45827c1.81823,1.92303 1.55625,5.21829 1.56426,7.59879c0.01828,5.43314 -0.63887,10.69927 -1.1246,16.03027zM298.52016,245.79112c-4.1637,-6.72598 -8.35079,-13.66285 -13.6416,-19.60236c-0.1485,-0.14969 -0.29525,-0.3012 -0.44027,-0.45444c-0.00997,0.35068 -0.01763,0.70207 -0.02275,1.05424c-1.08105,2.81058 -2.07278,6.61602 -4.58123,8.58776c-0.46683,0.36695 -0.98155,0.67621 -1.5349,0.93598c2.69932,2.15248 3.97544,5.09636 5.86014,8.55087c4.13359,7.57656 8.50531,15.36291 10.98514,23.629l0.05877,0.54711c0.04666,0.2585 0.04666,0.43442 0.04666,0.43442c0,6.28035 -1.53399,12.09836 -2.11378,18.3641c-0.99731,10.77781 0.00852,22.12056 0.00852,32.95169c0,3.5578 -0.02695,6.91512 0.49879,10.41951c0.13683,0.91207 0.34367,1.83284 0.27828,2.75279c-0.02749,0.38679 -0.89531,0.85646 -0.54692,1.02671c0.44267,0.21631 0.8398,-0.59959 1.33051,-0.6438c0.96498,-0.08693 1.92686,0.21872 2.89474,0.26316c4.55019,0.2089 9.16281,0.00092 13.72024,-0.00252c0.11326,-8.79307 0.77356,-17.66048 2.11403,-26.28413c0.27697,-1.78182 -0.18181,-3.61421 -0.01433,-5.40963c0.49904,-5.34984 0.51415,-10.65793 0.51415,-16.06945c0,-4.84318 -0.35266,-9.53819 -0.78691,-14.3604l-0.00201,-2.15117c-4.33368,-8.57472 -9.57871,-16.38729 -14.62526,-24.53942z" fill="#b0c1ca"/><path d="M262.73721,196.95839c-2.48471,-0.27608 -2.20863,-2.76079 -2.20863,-2.76079l0.24787,-2.09234c0,-6.01081 0.09968,-12.11227 -2.18961,-17.75573c0,0 -0.92848,-2.32119 1.39272,-3.24967c2.32119,-0.92848 3.24967,1.39272 3.24967,1.39272c2.49275,6.3063 2.54723,12.91322 2.54723,19.61269l-0.27845,2.6445c0,0 -0.27608,2.48471 -2.76079,2.20863z" fill="#c5d8e2"/><path d="M191.43434,194.34211c-2.5,0 -2.5,-2.5 -2.5,-2.5l0.01241,-0.80387c-0.08772,-0.87719 -0.17544,-1.75439 -0.26316,-2.63158c0,0 -0.24876,-2.48759 2.23883,-2.73635c2.48759,-0.24876 2.73635,2.23883 2.73635,2.23883c0.08772,0.87719 0.17544,1.75439 0.26316,2.63158l0.01241,1.30139c0,0 0,2.5 -2.5,2.5z" fill="#c5d8e2"/></g></g></svg>