<svg version="1.1" xmlns="http://www.w3.org/2000/svg" xmlns:xlink="http://www.w3.org/1999/xlink" width="10.86527" height="10.86527" viewBox="0,0,10.86527,10.86527"><g transform="translate(-234.56736,-174.56736)"><g data-paper-data="{&quot;isPaintingLayer&quot;:true}" fill-rule="nonzero" stroke="none" stroke-linecap="butt" stroke-linejoin="miter" stroke-miterlimit="10" stroke-dasharray="" stroke-dashoffset="0" style="mix-blend-mode: normal"><path d="M234.56736,180c0,-3.00035 2.43226,-5.43264 5.43264,-5.43264c3.00035,0 5.43264,2.43226 5.43264,5.43264c0,3.00035 -2.43226,5.43264 -5.43264,5.43264c-3.00035,0 -5.43264,-2.43226 -5.43264,-5.43264z" fill="#9966ff" stroke-width="0"/><path d="M239.06928,178.42597c-0.27491,0.24742 -0.52949,0.10846 -0.64339,0.01937c-0.00313,0.27345 -0.22577,0.49417 -0.49997,0.49417c-0.27614,0 -0.5,-0.22386 -0.5,-0.5c0,-0.27363 0.2198,-0.49592 0.49247,-0.49994c-0.14885,-0.11088 -0.29769,-0.22175 -0.44654,-0.33263c0,0 -0.4,-0.3 -0.1,-0.7c0.3,-0.4 0.7,-0.1 0.7,-0.1c0.2179,0.16441 0.4358,0.32882 0.6537,0.49323l0.38089,0.41968c0,0 0.33448,0.37165 -0.03716,0.70613z" fill="#ff1818" stroke-width="0.5"/><path d="M239.73206,178.17513c-0.39043,-0.31235 -0.07809,-0.70278 -0.07809,-0.70278l0.21002,-0.25189c0.30243,-0.27111 0.57694,-0.57297 0.84255,-0.88025c0,0 0.32747,-0.37784 0.70531,-0.05038c0.37784,0.32747 0.05038,0.70531 0.05038,0.70531c-0.26445,0.30439 -0.53729,0.60325 -0.83166,0.87883c0.03452,-0.00754 0.07037,-0.01151 0.10715,-0.01151c0.27614,0 0.5,0.22386 0.5,0.5c0,0.27614 -0.22386,0.5 -0.5,0.5c-0.27614,0 -0.5,-0.22386 -0.5,-0.5c0,-0.04145 0.00504,-0.08172 0.01455,-0.12024c-0.12819,0.06656 -0.31323,0.09849 -0.52022,-0.0671z" fill="#ff1818" stroke-width="0.5"/><path d="M241.66216,182.36758c-0.42269,0 -0.48805,-0.35733 -0.49815,-0.46783c-0.98221,-1.09817 -1.27551,0.05983 -2.63275,0.27086c0,0 -0.49561,0.06608 -0.5617,-0.42953c-0.06608,-0.49561 0.42953,-0.5617 0.42953,-0.5617c1.70233,-0.16957 2.16975,-1.58774 3.65004,0.21751l0.11302,0.47069c0,0 0,0.5 -0.5,0.5z" fill="#ff1818" stroke-width="0.5"/></g></g></svg>