<svg version="1.1" xmlns="http://www.w3.org/2000/svg" xmlns:xlink="http://www.w3.org/1999/xlink" width="79.79596" height="51.59156" viewBox="0,0,79.79596,51.59156"><g transform="translate(-296.52805,-137.98693)"><g data-paper-data="{&quot;isPaintingLayer&quot;:true}" fill-rule="nonzero" stroke-linecap="butt" stroke-linejoin="miter" stroke-miterlimit="10" stroke-dasharray="" stroke-dashoffset="0" style="mix-blend-mode: normal"><path d="M349.28134,153.87538c-1.01968,0 -1.84629,-1.79086 -1.84629,-4v-3.07778c0,-2.20914 0.82662,-4 1.84629,-4v0c1.01968,0 1.84629,1.79086 1.84629,4v3.07778c0,2.20914 -0.82662,4 -1.84629,4z" fill="#4d4aff" stroke="none" stroke-width="0"/><path d="M315.87999,179.3896v-2.40024h5.85058v2.40024z" fill="#4d4aff" stroke="none" stroke-width="0"/><path d="M304.9509,186.46564l7.5331,-16.51486l6.82432,3.11285l-7.5331,16.51487z" fill="#ff4747" stroke="none" stroke-width="0"/><path d="M300.20342,171.4388c-2.02985,0 -3.67537,-1.79086 -3.67537,-4v-1.90099c0,-2.20914 1.64552,-4 3.67537,-4v0c2.02985,0 3.67536,1.79086 3.67536,4v1.90099c0,2.20914 -1.64551,4 -3.67536,4z" fill="#6c47ff" stroke="none" stroke-width="0"/><path d="M310.57906,157.78744c-2.20914,0 -4,-1.79086 -4,-4v-10.60186c0,-2.20914 1.79086,-4 4,-4h34.75428c2.20914,0 4,1.79086 4,4v10.60186c0,2.20914 -1.79086,4 -4,4z" fill="#47dfff" stroke="none" stroke-width="0"/><path d="M305.77858,175.33919c-2.20914,0 -4,-1.79086 -4,-4v-9.70177c0,-2.20914 1.79086,-4 4,-4h56.65647c2.20914,0 4,1.79086 4,4v9.70177c0,2.20914 -1.79086,4 -4,4z" fill="#ff4747" stroke="none" stroke-width="0"/><path d="M354.62016,157.1364c0.12105,0.06435 0.2385,0.18924 0.2385,0.43157c0,0.5 -0.5,0.5 -0.5,0.5l-0.57963,-0.3143c-0.35913,-0.97364 0.04998,-1.7533 0.76667,-2.40907c-0.72346,0.2867 -1.51151,0.51425 -2.00544,0.82424c-0.21119,0.37911 0.00558,0.5514 0.25671,0.86835l0.06895,0.06184c0,0 0.35355,0.35355 0,0.70711c-0.35355,0.35355 -0.70711,0 -0.70711,0l-0.16184,-0.16895c-0.59639,-0.82577 -0.65049,-1.21229 -0.20486,-2.13188c0.74112,-0.50613 2.89838,-0.93876 3.39504,-1.63506c0.2649,-0.37138 -0.43626,-1.38627 -0.49507,-1.56765c-0.20637,-0.63648 0.29638,-3.04284 -0.57967,-3.25274c-0.88923,-0.21305 -2.495,0.46317 -3.37563,0.58937c0,0 -0.49497,0.07071 -0.56568,-0.42426c-0.07071,-0.49498 0.42426,-0.56569 0.42426,-0.56569c0.90646,-0.12906 2.86934,-0.90968 3.77876,-0.56456c1.89667,0.71977 0.79061,2.51591 1.26664,3.90165c0.20412,0.59421 0.86327,1.52417 0.48002,2.26629c0.72764,-0.41818 1.46928,-0.78611 1.99766,-1.13837c1.04465,-0.69644 2.12056,-1.30974 0.97172,-2.51283c-1.10641,-1.42407 -2.08323,-4.89275 -4.08841,-5.1138c-1.43219,-0.15788 -2.89053,2.48504 -4.38077,3.0823c0,0 -0.46424,0.1857 -0.64993,-0.27854c-0.1857,-0.46424 0.27854,-0.64993 0.27854,-0.64993c1.88425,-0.75213 2.73642,-3.26802 4.85071,-3.14896c2.52909,0.14243 3.42635,3.75879 4.75545,5.4656c2.63448,3.01968 -2.35022,4.26455 -4.00342,5.78425c-0.63505,0.58377 -1.40553,0.68353 -1.23216,1.39405z" fill="#71b3ff" stroke="none" stroke-width="0.5"/><path d="M365.4287,172.23888v-11.29007h5.44765v11.29007z" fill="#4d4aff" stroke="none" stroke-width="0"/><path d="M370.4816,169.47557v-6.31612h5.84242v6.31612z" fill="#3f3dd2" stroke="none" stroke-width="0"/><path d="M307.63336,165.44883v-6.53279h14.88023v6.53279z" fill="#ff9898" stroke="#4d4aff" stroke-width="0.5"/><path d="M327.15066,165.48875v-6.53279h14.88023v6.53279z" fill="#ff9898" stroke="#4d4aff" stroke-width="0.5"/><path d="M346.30503,165.52867v-6.53279h14.88023v6.53279z" fill="#ff9898" stroke="#4d4aff" stroke-width="0.5"/><path d="M364.66139,171.67183c-0.17413,1.74132 -1.91545,1.56718 -1.91545,1.56718l-1.15205,-0.11617c-5.73798,-0.38571 -11.48085,-0.65245 -17.09053,0.71663c-3.72556,0.02043 -6.81711,-0.34511 -10.39832,-0.97479c-1.7236,-0.30306 -1.6108,0.46289 -3.30826,0.72027c-0.21286,0.03228 -3.92425,0.02575 -4.41191,0.02568c-6.31449,-0.00092 -12.62009,-0.43891 -18.93125,0.23234c0,0 -1.74038,0.1832 -1.92358,-1.55719c-0.1832,-1.74038 1.55719,-1.92358 1.55719,-1.92358c6.43512,-0.67087 12.8598,-0.25061 19.29764,-0.25157c2.70751,-0.0004 5.63453,-1.03862 8.24886,-0.70578c3.2322,0.4115 6.06263,0.93829 9.44199,0.96085c5.76892,-1.48231 11.84114,-1.12603 17.75099,-0.7351l1.2675,0.12579c0,0 1.74132,0.17413 1.56718,1.91545z" fill-opacity="0.39608" fill="#8c2727" stroke="none" stroke-width="0.5"/><path d="M313.3193,158.19018v-20.20324h3.99226v20.20324z" fill="#ffffff" stroke="none" stroke-width="0"/><path d="M338.52255,158.2301v-20.20324h3.99226v20.20324z" fill="#ffffff" stroke="none" stroke-width="0"/></g></g></svg>