<svg version="1.1" xmlns="http://www.w3.org/2000/svg" xmlns:xlink="http://www.w3.org/1999/xlink" width="31.52455" height="13.18583" viewBox="0,0,31.52455,13.18583"><g transform="translate(-288.49393,-148.85142)"><g data-paper-data="{&quot;isPaintingLayer&quot;:true}" fill-rule="nonzero" stroke="none" stroke-width="0" stroke-linecap="butt" stroke-linejoin="miter" stroke-miterlimit="10" stroke-dasharray="" stroke-dashoffset="0" style="mix-blend-mode: normal"><path d="M289.7644,151.97109h29.86776c0.00733,1.38507 0.04944,2.76842 0.14551,4.15121c0.07949,1.14411 0.56379,3.03507 -0.11871,4.02038c-1.7535,5.16816 -3.44642,-1.87794 -6.40548,-1.85467c-1.53489,0.60106 -1.3445,2.794 -3.14666,3.14972c-1.62157,0.32007 -2.69072,-1.11236 -3.83881,-1.97052c-0.29898,-0.15059 -0.98936,-0.6358 -1.29937,-0.60912c-0.63506,0.05465 -0.97849,1.75931 -1.42596,2.20449c-0.03798,0.03778 -0.09891,0.07201 -0.17908,0.1028l-0.06062,-0.01259c0,0 -0.12351,0 -0.1969,0.08681c-1.16487,0.25869 -4.06711,0.1539 -4.46085,-0.17622c-0.88999,-0.71847 -1.63652,-3.70423 -3.01988,-3.48827c-0.62054,0.09687 -0.94107,1.02529 -1.36518,1.32111c-0.63411,0.44229 -2.17121,0.55444 -2.96468,0.67759c-0.62655,-0.00095 -1.12385,-0.13494 -1.53107,-0.36688z" fill="#5f4b29"/><path d="M289.61107,154.50881l-1.11714,-3.03224c0,0 2.50107,-2.58598 4.14396,-2.62459c1.50565,-0.03538 3.59801,1.59195 7.98505,1.66377c1.93748,0.03172 5.68685,-1.2272 7.97936,-1.22046c1.55156,0.00456 1.23892,2.40814 2.87075,2.42205c1.66309,0.01417 5.92937,-1.42766 7.66525,-1.44905c0.16206,-0.002 0.32926,0.01342 0.5005,0.04261c-0.01714,1.36687 -0.00793,2.73162 0.046,4.09535c-0.91945,1.05339 -2.20619,3.52596 -2.8218,3.41553c-0.85058,-0.15258 -1.85819,-2.53257 -2.70164,-2.67045c-0.53265,-0.08707 -6.32597,3.3373 -6.84618,3.25118c-0.59672,-0.09878 -2.46073,-4.02144 -3.03744,-4.1071c-0.92014,-0.13667 -1.97148,6.26754 -2.83,6.12623c-0.36802,-0.06058 -0.88946,-6.0242 -1.24476,-6.081c-0.55303,-0.08841 -1.24964,4.13298 -1.76922,4.04639c-0.46266,-0.07711 -0.91148,-4.938 -1.34544,-5.00693c-0.43912,-0.06975 -1.18201,2.41663 -1.58921,2.3524c-1.22914,-0.1939 -1.03845,-2.26621 -1.95304,-2.38016c-0.93202,-0.11612 -1.40276,5.61902 -1.92061,6.17502c-0.06189,0.00816 -0.12153,0.01618 -0.17845,0.02417c-1.80826,-0.44688 -1.83598,-5.04274 -1.83598,-5.04274z" fill="#6ce13e"/></g></g></svg>