<svg version="1.1" xmlns="http://www.w3.org/2000/svg" xmlns:xlink="http://www.w3.org/1999/xlink" width="126.74381" height="119.59114" viewBox="0,0,126.74381,119.59114"><defs><radialGradient cx="166.6755" cy="62.51032" r="0.00125" gradientUnits="userSpaceOnUse" id="color-1"><stop offset="0" stop-color="#ffffff" stop-opacity="0.61176"/><stop offset="1" stop-color="#ffffff" stop-opacity="0"/></radialGradient></defs><g transform="translate(-253.35098,-120.64564)"><g data-paper-data="{&quot;isPaintingLayer&quot;:true}" fill-rule="nonzero" stroke-linejoin="miter" stroke-miterlimit="10" stroke-dasharray="" stroke-dashoffset="0" style="mix-blend-mode: normal"><path d="M277.73913,180c0,-23.34005 18.92084,-42.26088 42.26089,-42.26088c23.34004,0 42.26088,18.92084 42.26088,42.26089c0,23.34005 -18.92084,42.26089 -42.26088,42.26089c-23.34005,0 -42.26088,-18.92084 -42.26088,-42.26088z" fill="#ffed48" stroke="none" stroke-width="0" stroke-linecap="butt"/><g><path d="M309.81895,140.70723l9.74533,-17.51049" fill="none" stroke="#ffe600" stroke-width="5" stroke-linecap="round"/><path d="M320.08094,123.14564l9.74533,17.51049" data-paper-data="{&quot;index&quot;:null}" fill="none" stroke="#ffe600" stroke-width="5" stroke-linecap="round"/><path d="M309.9873,140.85591h19.78656" fill="none" stroke="#ffe600" stroke-width="5" stroke-linecap="round"/><path d="M310.31707,141.40288l4.45198,-15.86195l7.09019,-2.5525l10.55283,18.14096c0,0 -1.69964,0.21604 -2.32864,0.14981c-2.56966,-0.2706 -19.76635,0.12367 -19.76635,0.12367z" fill="#ffe600" stroke="none" stroke-width="0" stroke-linecap="butt"/></g><g><path d="M377.54369,178.74716l-17.51049,-9.74533" fill="none" stroke="#ffe600" stroke-width="5" stroke-linecap="round"/><path d="M377.59479,179.26382l-17.51049,9.74533" data-paper-data="{&quot;index&quot;:null}" fill="none" stroke="#ffe600" stroke-width="5" stroke-linecap="round"/><path d="M359.88452,188.95672v-19.78655" fill="none" stroke="#ffe600" stroke-width="5" stroke-linecap="round"/><path d="M359.33755,169.49995l15.86195,4.45198l2.5525,7.09019l-18.14096,10.55283c0,0 -0.21604,-1.69964 -0.14981,-2.32864c0.2706,-2.56966 -0.12367,-19.76635 -0.12367,-19.76635z" fill="#ffe600" stroke="none" stroke-width="0" stroke-linecap="butt"/></g><g><path d="M262.85033,180.7883l17.51049,9.74533" fill="none" stroke="#ffe600" stroke-width="5" stroke-linecap="round"/><path d="M280.30973,170.52631l-17.51049,9.74533" data-paper-data="{&quot;index&quot;:null}" fill="none" stroke="#ffe600" stroke-width="5" stroke-linecap="round"/><path d="M280.50951,190.36529v-19.78655" fill="none" stroke="#ffe600" stroke-width="5" stroke-linecap="round"/><path d="M281.05647,190.03551l-15.86195,-4.45198l-2.5525,-7.0902l18.14096,-10.55283c0,0 0.21604,1.69964 0.14981,2.32863c-0.2706,2.56966 0.12367,19.76636 0.12367,19.76636z" fill="#ffe600" stroke="none" stroke-width="0" stroke-linecap="butt"/></g><g><path d="M320.493,237.68568l9.74533,-17.51049" fill="none" stroke="#ffe600" stroke-width="5" stroke-linecap="round"/><path d="M319.97634,237.73678l-9.74533,-17.51049" data-paper-data="{&quot;index&quot;:null}" fill="none" stroke="#ffe600" stroke-width="5" stroke-linecap="round"/><path d="M330.06998,220.02651h-19.78655" fill="none" stroke="#ffe600" stroke-width="5" stroke-linecap="round"/><path d="M329.74021,219.47954l-4.45198,15.86195l-7.0902,2.5525l-10.55283,-18.14096c0,0 1.69964,-0.21604 2.32864,-0.14981c2.56966,0.2706 19.76635,-0.12367 19.76635,-0.12367z" fill="#ffe600" stroke="none" stroke-width="0" stroke-linecap="butt"/></g><g><path d="M284.56545,159.24223l-5.4908,-19.27278" fill="none" stroke="#ffe600" stroke-width="5" stroke-linecap="round"/><path d="M298.67662,145.05879l-19.27278,-5.4908" data-paper-data="{&quot;index&quot;:null}" fill="none" stroke="#ffe600" stroke-width="5" stroke-linecap="round"/><path d="M284.78962,159.22833l13.99121,-13.99121" fill="none" stroke="#ffe600" stroke-width="5" stroke-linecap="round"/><path d="M285.40957,159.38191l-8.06807,-14.36412l3.20863,-6.81842l20.28957,5.36562c0,0 -1.04906,1.35459 -1.54066,1.75253c-2.00836,1.62568 -13.88948,14.06437 -13.88948,14.06437z" fill="#ffe600" stroke="none" stroke-width="0" stroke-linecap="butt"/></g><g><path d="M359.35236,138.2519l-19.27278,5.4908" fill="none" stroke="#ffe600" stroke-width="5" stroke-linecap="round"/><path d="M359.75382,138.5811l-5.4908,19.27278" data-paper-data="{&quot;index&quot;:null}" fill="none" stroke="#ffe600" stroke-width="5" stroke-linecap="round"/><path d="M340.09348,143.96687l13.99121,13.99121" fill="none" stroke="#ffe600" stroke-width="5" stroke-linecap="round"/><path d="M339.9399,144.58682l14.36412,-8.06807l6.81842,3.20863l-5.36562,20.28957c0,0 -1.35459,-1.04906 -1.75253,-1.54066c-1.62568,-2.00836 -14.06437,-13.88948 -14.06437,-13.88948z" fill="#ffe600" stroke="none" stroke-width="0" stroke-linecap="butt"/></g><g><path d="M298.96799,215.30485l-19.27278,5.4908" fill="none" stroke="#ffe600" stroke-width="5" stroke-linecap="round"/><path d="M284.78454,201.19368l-5.4908,19.27278" data-paper-data="{&quot;index&quot;:null}" fill="none" stroke="#ffe600" stroke-width="5" stroke-linecap="round"/><path d="M298.95409,215.08069l-13.99121,-13.99121" fill="none" stroke="#ffe600" stroke-width="5" stroke-linecap="round"/><path d="M299.10767,214.46073l-14.36412,8.06807l-6.81842,-3.20863l5.36562,-20.28957c0,0 1.35459,1.04906 1.75253,1.54066c1.62568,2.00836 14.06437,13.88948 14.06437,13.88948z" fill="#ffe600" stroke="none" stroke-width="0" stroke-linecap="butt"/></g><g><path d="M360.68726,220.26866l-5.4908,-19.27278" fill="none" stroke="#ffe600" stroke-width="5" stroke-linecap="round"/><path d="M360.35807,220.67012l-19.27278,-5.4908" data-paper-data="{&quot;index&quot;:null}" fill="none" stroke="#ffe600" stroke-width="5" stroke-linecap="round"/><path d="M340.98108,215.00099l13.99121,-13.99121" fill="none" stroke="#ffe600" stroke-width="5" stroke-linecap="round"/><path d="M354.35234,200.8562l8.06807,14.36412l-3.20863,6.81842l-20.28957,-5.36562c0,0 1.04906,-1.35459 1.54066,-1.75253c2.00836,-1.62568 13.88948,-14.06437 13.88948,-14.06437z" fill="#ffe600" stroke="none" stroke-width="0" stroke-linecap="butt"/></g><path d="M253.35098,125.02063v0v0v0z" fill="url(#color-1)" stroke="none" stroke-width="0" stroke-linecap="butt"/></g></g></svg>