<svg version="1.1" xmlns="http://www.w3.org/2000/svg" xmlns:xlink="http://www.w3.org/1999/xlink" width="25.67785" height="26.99308" viewBox="0,0,25.67785,26.99308"><g transform="translate(-299.91263,-173.65406)"><g data-paper-data="{&quot;isPaintingLayer&quot;:true}" fill-rule="nonzero" stroke="none" stroke-linecap="butt" stroke-linejoin="miter" stroke-miterlimit="10" stroke-dasharray="" stroke-dashoffset="0" style="mix-blend-mode: normal"><path d="M301.69811,187.74892c0.12696,-0.01193 0.22631,-0.11881 0.22631,-0.24889c0,-0.08768 -0.04514,-0.16482 -0.11345,-0.20944l-0.3582,-0.24137c-0.58669,-1.98084 1.82093,-1.95225 1.85979,-3.10429c0.0172,-0.50981 -1.98632,-1.02033 -2.44043,-1.16805c4.42246,-0.67252 -0.3347,-2.40549 -0.95819,-4.03648c-0.04478,-0.11714 1.07073,-0.44174 1.84329,-0.65921l0.00946,0.05678l0.48914,-0.08152c0.1205,-0.0179 0.21295,-0.12179 0.21295,-0.24727c0,-0.07348 -0.0317,-0.13955 -0.08216,-0.18529l-0.24963,-0.22788c-0.25614,-0.23285 -0.53472,-0.44315 -0.82885,-0.62569l0.03658,-0.00217c1.74912,-0.59671 3.80328,-0.42142 5.46322,-1.29344c0.85118,-0.44715 0.6492,-1.18409 1.90976,-1.58092c0.66504,-0.10627 1.88636,-0.11787 3.03527,-0.23973c0.05131,0.05982 0.12183,0.08333 0.12183,0.08333c0.94724,0.30025 1.46163,2.15056 2.01772,3.02333c0.8906,1.3978 2.37057,2.43725 3.68575,3.40492c1.44787,1.0653 3.14051,2.05777 4.79822,2.76954c0.46042,0.19769 0.92099,0.42614 1.3921,0.59651c0.20212,0.0731 0.67788,0.15132 0.92884,0.18694c-0.47958,0.00827 -1.12665,0.60625 -1.49141,0.83072c-2.94981,1.83178 1.0307,5.92148 2.0698,7.99969l-0.00669,0.42134c0,0 0,0.25 0.25,0.25c0.02649,0 0.05018,-0.00281 0.07135,-0.00783c-0.58766,0.43612 -1.03225,1.02892 -1.24661,1.86921c-1.59585,1.58629 -2.39029,2.74555 -4.868,2.74555c-0.37775,0 -1.32749,0.17721 -1.62985,-0.06329c-0.02728,-0.03869 -0.0547,-0.07732 -0.08229,-0.11587c-0.00019,-0.00061 -0.00038,-0.00122 -0.00057,-0.00183c0,0 -0.01601,-0.03202 -0.04803,-0.06577c-0.56884,-0.7872 -1.21476,-1.53924 -2.18229,-2.11117c-2.95912,-2.13195 -5.23551,-2.75177 -8.74989,-3.57214c-0.68974,-1.01249 -2.02278,-0.709 -2.97938,-1.18962c-0.75449,-0.37908 -0.32762,-1.35549 -0.76853,-1.89803c-0.37205,-0.45781 -0.9804,-0.7786 -1.57526,-1.03514z" fill="#8b8b8b" stroke-width="0"/><path d="M301.60877,174.35989l-0.03093,-0.06295c0.01769,0.02153 0.02853,0.04262 0.03093,0.06295z" fill="#6a6a6a" stroke-width="0.5"/><path d="M304.32338,180.21233c-0.19612,0.98058 -1.1767,0.78446 -1.1767,0.78446l-0.29057,-0.17134c-0.23732,0.06761 -0.46578,0.1272 -0.6828,0.18329c-0.48962,-0.46389 -1.19856,-0.97288 -1.70469,-1.49009c0.54705,-0.22654 1.16697,-0.424 1.83805,-0.61625l1.23224,0.13322c0,0 0.98058,0.19612 0.78446,1.1767z" fill="#6a6a6a" stroke-width="0.5"/><path d="M309.66259,182.89869c-0.14142,0.98995 -1.13137,0.84853 -1.13137,0.84853l-0.8564,-0.14456c-1.66913,0.41098 -2.39977,2.7835 -2.57834,4.30392c0,0 -0.12403,0.99228 -1.11631,0.86824c-0.99228,-0.12403 -0.86824,-1.11631 -0.86824,-1.11631c0.36698,-2.79835 1.65924,-5.21886 4.4266,-6.0512l1.27554,0.16001c0,0 0.98995,0.14142 0.84853,1.13137z" fill="#6a6a6a" stroke-width="0.5"/><path d="M308.09457,174.67956c0,0 0.76822,0.64018 0.12804,1.40841c-0.64018,0.76822 -1.40841,0.12804 -1.40841,0.12804c-0.18314,-0.16647 -0.34742,-0.33932 -0.49393,-0.51779c0.16578,-0.06595 0.32855,-0.13993 0.48769,-0.22354c0.5454,-0.28652 0.6584,-0.69201 1.00083,-1.05077c0.08398,0.09448 0.17896,0.18024 0.28578,0.25565z" fill="#6a6a6a" stroke-width="0.5"/><path d="M313.14644,183.87943c0.85749,0.5145 0.343,1.37199 0.343,1.37199l-0.31434,0.24691c-0.0402,1.08289 -0.48652,2.21901 -1.22647,3.01067c-0.40102,0.42905 -1.25271,0.50083 -1.40027,1.06927c-0.16053,0.61841 0.25553,1.25329 0.3348,1.88727c0,0 0.12403,0.99228 -0.86824,1.11631c-0.99228,0.12403 -1.11631,-0.86824 -1.11631,-0.86824c-0.03633,-0.29075 -0.33032,-2.50953 -0.27432,-2.68117c0.55736,-1.70828 2.68005,-1.64605 2.55082,-3.53411l0.59935,-1.2759c0,0 0.5145,-0.85749 1.37199,-0.343z" fill="#6a6a6a" stroke-width="0.5"/><path d="M313.83094,178.95987c0,0 0.44721,0.89443 -0.44721,1.34164c-0.89443,0.44721 -1.34164,-0.44721 -1.34164,-0.44721c-0.94866,-2.00325 -0.62608,-3.75196 0.54878,-5.54016c0.43963,0.58247 0.77395,1.45839 1.10291,2.09539c-0.33088,0.81295 -0.34794,1.65693 0.13716,2.55035z" fill="#6a6a6a" stroke-width="0.5"/><path d="M317.37078,193.17223c-0.66896,-0.74329 0.07433,-1.41226 0.07433,-1.41226l0.03622,-0.0326c0.18218,-0.16361 2.80589,-2.26875 2.84113,-2.71871c0.14023,-1.79054 -0.44725,-2.11447 0.75235,-3.86824c0.25036,-0.36601 -0.88679,-0.21729 -1.23714,-0.48912c-0.49112,-0.38106 -1.00708,-0.79909 -1.27694,-1.35907c-0.36461,-0.75661 -0.35873,-1.64544 -0.19379,-2.57003c0.60683,0.41092 1.24456,0.8045 1.89561,1.16767c0.01973,0.2294 0.06619,0.44335 0.14595,0.637c0.58244,1.41409 2.3016,0.33236 2.61477,2.14516c-0.7252,0.52703 -0.94859,1.21585 -0.87181,1.97923c-0.15233,0.21045 -0.27616,0.41581 -0.32306,0.59963c-0.17312,0.67845 0.5999,1.35798 0.47311,2.0466c-0.24177,1.31307 -2.60997,3.12983 -3.48223,3.91646l-0.03622,0.0326c0,0 -0.74329,0.66896 -1.41226,-0.07433z" fill="#6a6a6a" stroke-width="0.5"/><path d="M323.06883,185.29735c-0.0227,0.17019 -0.16479,0.38732 -0.34594,0.62412c0.06265,-0.22874 0.17471,-0.43855 0.34594,-0.62412z" fill="#6a6a6a" stroke-width="0.5"/><path d="M317.42331,190.57803c0,0 0.5547,0.83205 -0.27735,1.38675c-0.83205,0.5547 -1.38675,-0.27735 -1.38675,-0.27735c-0.25677,-1.32041 -2.31288,1.22936 -1.91711,2.06677c0.26009,0.55033 2.35727,1.53851 2.81948,1.97465c0.70427,0.66454 1.03687,1.38755 1.3699,2.11979c-0.07461,-0.01947 -0.13799,-0.04692 -0.18543,-0.08465c-0.02728,-0.03869 -0.0547,-0.07732 -0.08229,-0.11587c-0.00019,-0.00061 -0.00038,-0.00122 -0.00057,-0.00183c0,0 -0.01601,-0.03202 -0.04803,-0.06577c-0.56884,-0.7872 -1.21476,-1.53924 -2.18229,-2.11117c-1.32857,-0.9572 -2.51952,-1.60958 -3.74668,-2.11215c0.01253,-2.77387 3.54337,-5.22586 5.63713,-2.77917z" fill="#6a6a6a" stroke-width="0.5"/><path d="M318.29407,198.41302c-0.01013,-0.01476 -0.02025,-0.02952 -0.03037,-0.04429c0.00305,0.00019 0.00611,0.00038 0.00916,0.00056c0.00703,0.01458 0.0141,0.02916 0.02121,0.04374z" fill="#6a6a6a" stroke-width="0.5"/><path d="M319.87411,200.19035c0.16936,0.10938 0.30355,0.26854 0.38188,0.45679c-0.31046,-0.23156 -0.58368,-0.48671 -0.83301,-0.75754z" fill="#6a6a6a" stroke-width="0.5"/><path d="M323.24996,193.72366c0.75926,-0.65079 1.41005,0.10847 1.41005,0.10847l0.154,0.18281c-0.20506,0.30339 -0.36517,0.65543 -0.47011,1.06679c-0.23492,0.23351 -0.45247,0.45777 -0.66058,0.67044l-0.54182,-0.61845c0,0 -0.65079,-0.75926 0.10847,-1.41005z" fill="#6a6a6a" stroke-width="0.5"/></g></g></svg>