<svg version="1.1" xmlns="http://www.w3.org/2000/svg" xmlns:xlink="http://www.w3.org/1999/xlink" width="20.83958" height="22.98475" viewBox="0,0,20.83958,22.98475"><g transform="translate(-312.81634,-152.36872)"><g data-paper-data="{&quot;isPaintingLayer&quot;:true}" fill-rule="nonzero" stroke="none" stroke-width="0.5" stroke-linecap="butt" stroke-linejoin="miter" stroke-miterlimit="10" stroke-dasharray="" stroke-dashoffset="0" style="mix-blend-mode: normal"><path d="M317.49571,175.08114c-0.26714,0.11212 -0.49178,0.13254 -0.49178,0.13254c-0.83218,-0.02866 -1.80845,0.38293 -2.49654,-0.08598c-1.57812,-1.07545 -1.62946,-4.80452 -1.68572,-6.44921c-0.10794,-3.15573 1.44935,-4.5088 2.50873,-7.25332c0.84108,-2.17897 1.45517,-4.89769 3.18005,-6.61173c3.51433,-3.49223 8.81191,-3.2911 11.20196,0.91343c0.69622,2.20791 1.16519,4.15993 1.51603,6.43779c0.14409,0.93554 -0.19274,2.00977 0.2882,2.82506c0.80448,1.36377 2.30681,2.676 2.12401,4.24877c-0.8965,7.71345 -10.90966,5.92474 -16.14494,5.84264z" fill="#131313"/><path d="M324.21017,157.39608c-1.31982,1.53979 -3.08979,2.70087 -4.29029,4.36303c-1.01693,1.408 -1.30075,3.18807 -2.5685,4.63875c-0.7064,0.80833 -1.24894,2.9229 -2.59651,2.75446c-1.34079,-0.1676 -1.6278,-1.3184 -1.34164,-2.46305c0.31568,-1.26271 1.76524,-2.26877 2.3181,-3.4673c1.1863,-2.57173 1.40581,-5.7917 3.32037,-7.92975c0.43296,-0.4835 1.8584,-1.22378 3.33892,-1.65817c0.16148,-0.07688 0.33887,-0.12575 0.52588,-0.14031c1.7745,-0.42454 3.46889,-0.314 3.46889,1.3006c0,1.25215 -1.04791,1.16579 -1.51084,1.93734z" fill="#303030"/><path d="M326.29565,170.33181c2.15146,-1.01519 -0.77094,-4.84154 0.81025,-6.84252c3.53693,-4.47593 6.66881,5.87212 4.94542,8.58031c-1.16937,1.83758 -6.21599,1.18152 -7.83734,1.51874c-1.26995,0.26413 -5.24249,1.53541 -5.93441,0.32455c-0.44211,-0.26093 -0.7387,-0.74219 -0.7387,-1.29272c0,-0.82843 0.67157,-1.5 1.5,-1.5c0.10316,0 0.20388,0.01041 0.30118,0.03025c2.03857,-0.68539 4.8865,0.15678 6.95359,-0.81861z" fill="#000000"/><path d="M324.10614,157.2166c0.27614,0 0.5,0.22386 0.5,0.5c0,0.17113 -0.08597,0.32218 -0.21708,0.41231c0.0038,0.00155 0.00761,0.00315 0.01145,0.00479c0.45957,0.19696 0.26261,0.65653 0.26261,0.65653l-0.28769,0.67127c-0.07389,0.18384 -0.25384,0.31363 -0.46411,0.31363c-0.22492,0 -0.41515,-0.14851 -0.47799,-0.35282l-0.28858,-0.86574c-0.02509,-0.07547 -0.05763,-0.1556 -0.0943,-0.23906c-0.02019,0.07067 -0.04434,0.1416 -0.07316,0.21386l0.13195,0.05278l-0.19049,0.47623c-0.0709,0.1899 -0.25394,0.32512 -0.46856,0.32512c-0.1996,0 -0.37189,-0.11696 -0.45206,-0.28608l-0.10033,-0.20066c-0.01638,0.10989 -0.03587,0.21998 -0.05904,0.33078l0.13232,0.0189l-0.09637,0.67459c-0.03117,0.24619 -0.24136,0.43657 -0.49601,0.43657c-0.18532,0 -0.3471,-0.10082 -0.43346,-0.25061l-0.28751,-0.47919l0.02034,-0.0122l-0.05028,-0.04603c-0.00308,-0.01055 -0.00632,-0.02128 -0.00971,-0.03217c-0.01487,1.28976 -0.10023,2.53354 -0.459,3.77877l0.12387,0.02064l-0.16305,0.97829c-0.0358,0.24101 -0.24358,0.42591 -0.49455,0.42591c-0.14484,0 -0.2753,-0.06159 -0.36661,-0.16c-0.07208,1.06862 -0.20402,2.17875 -0.44798,3.11993l0.14066,0.02009l-0.09637,0.67459c-0.03117,0.24619 -0.24136,0.43657 -0.49601,0.43657c-0.21462,0 -0.39766,-0.13522 -0.46856,-0.32512l-0.19049,-0.47623l0.0047,-0.00188l-0.00952,-0.01066c-0.21502,-0.63405 -0.36328,-1.39753 -0.55124,-2.13076c-0.25321,1.26938 -0.75787,2.42713 -1.96329,1.62929c0,0 -0.35355,-0.35355 0,-0.70711c0.35355,-0.35355 0.70711,0 0.70711,0c-0.03446,0.34023 0.43061,-2.15625 0.51403,-2.82555l-0.00224,-0.07689c-0.01733,-0.10742 -0.00756,-0.24196 0.09395,-0.36251c0.05386,-0.07928 0.13808,-0.15055 0.26976,-0.17959c0.12786,-0.04285 0.23674,-0.02507 0.32372,0.01521c0.14709,0.05047 0.22461,0.15858 0.26545,0.25851c0.2187,0.38568 0.38567,0.81992 0.52718,1.275c0.1742,-1.16736 0.47351,-2.35618 0.46726,-2.94095l0.01095,-0.0266l-0.00866,-0.00096l0.09674,-0.87068c0.02472,-0.25304 0.23807,-0.45078 0.49761,-0.45078c0.16248,0 0.30686,0.0775 0.39818,0.19755c0.07986,-1.30093 0.27072,-2.67623 0.27072,-3.52241v-0.55854c0,-0.27614 0.22386,-0.5 0.5,-0.5c0.21462,0 0.39766,0.13522 0.46856,0.32512l0.19049,0.47623l-0.08922,0.03569c0.08893,0.13623 0.16927,0.27369 0.24291,0.41393c0.024,-0.28473 0.05179,-0.55412 0.05457,-0.77244l-0.04902,-0.19608l-0.04518,0.00753l-0.09586,-0.57516c-0.00548,-0.02966 -0.00835,-0.06024 -0.00835,-0.09149c0,-0.27614 0.22386,-0.5 0.5,-0.5c0.23795,0 0.43708,0.16622 0.48761,0.38888l0.19228,0.76912l-0.0218,0.00545c0.07928,0.07573 0.1435,0.17178 0.19833,0.28067c0.00448,-0.06019 0.0073,-0.11568 0.0073,-0.16485v-0.58445c0,-0.27614 0.22386,-0.5 0.5,-0.5c0.15962,0 0.30178,0.0748 0.39332,0.19126l0.38675,0.48344l-0.14079,0.11263c0.23067,0.29906 0.37158,0.60644 0.50598,0.98101c0.08611,-0.07026 0.19607,-0.11239 0.31587,-0.11239z" fill="#000000"/><path d="M326.16387,160.8675c0.17678,0.17678 0,0.35355 0,0.35355l-0.14392,0.12578c-0.26953,0.13477 -0.53923,0.26919 -0.809,0.40348c-0.14119,0.04287 -0.32934,0.05163 -0.53177,0.04788c0.65286,2.84072 1.79913,5.00492 -1.27185,6.53929c-0.69062,0.28795 -3.27561,0.78433 -3.48919,1.58693c-0.07318,0.275 1.54272,1.84308 1.73251,1.60369l-0.01903,-0.22014c0,0 0,-0.25 0.25,-0.25c0.25,0 0.25,0.25 0.25,0.25l-0.01903,0.41148c-0.7512,0.71566 -2.87199,-0.85145 -2.68877,-1.87017c0.20322,-1.12995 2.8794,-1.59318 3.77542,-1.96643c2.79647,-1.39929 1.57721,-3.42325 0.96344,-6.10761c-0.48739,-0.02308 -0.90057,-0.01489 -0.7907,0.32092c0.52333,1.59949 -1.60625,3.62152 -3.05549,4.23313c0,0 -0.23212,0.09285 -0.32497,-0.13927c-0.09285,-0.23212 0.13927,-0.32497 0.13927,-0.32497c0.89418,-0.33102 2.73,-1.96488 2.9274,-2.97784c0.03542,-0.18176 -0.16142,-0.9579 -0.14048,-0.99998c0.09765,-0.19626 0.65115,-0.32856 1.17671,-0.4265c-0.00352,-0.01718 -0.007,-0.03438 -0.01046,-0.05162c0,0 -0.04903,-0.24515 0.19612,-0.29417c0.24515,-0.04903 0.29417,0.19612 0.29417,0.19612c0.0042,0.02106 0.00845,0.04209 0.01273,0.06308c0.19184,-0.03313 0.35039,-0.06188 0.43932,-0.08848c0.25657,-0.1289 0.51322,-0.25763 0.77003,-0.38603l0.01398,-0.03212c0,0 0.17678,-0.17678 0.35355,0z" fill="#2f2f2f"/><path d="M326.55807,170.60309c-0.24254,-0.06063 -0.1819,-0.30317 -0.1819,-0.30317l0.09286,-0.35631c0.32068,-0.45331 0.39947,-1.98584 0.35749,-2.53806c-0.05338,-0.73663 -1.01065,-0.96249 -1.24416,-1.7968c-0.47738,-1.70559 0.43669,-4.38655 1.64909,-5.60972c0,0 0.17678,-0.17678 0.35355,0c0.17678,0.17678 0,0.35355 0,0.35355c-1.09488,1.08347 -1.94222,3.59495 -1.52092,5.1222c0.25245,0.91516 1.10973,0.9396 1.26037,1.88532c0.03086,0.68193 -0.03217,2.20916 -0.39816,2.78578l-0.06504,0.2753c0,0 -0.06063,0.24254 -0.30317,0.1819z" fill="#2f2f2f"/></g></g></svg>