<svg version="1.1" xmlns="http://www.w3.org/2000/svg" xmlns:xlink="http://www.w3.org/1999/xlink" width="39.29804" height="45.0792" viewBox="0,0,39.29804,45.0792"><g transform="translate(-220.61243,-121.54188)"><g data-paper-data="{&quot;isPaintingLayer&quot;:true}" fill-rule="nonzero" stroke="none" stroke-linecap="butt" stroke-linejoin="miter" stroke-miterlimit="10" stroke-dasharray="" stroke-dashoffset="0" style="mix-blend-mode: normal"><path d="M222.19224,159.35261c-0.32267,-6.14144 0.00042,-15.32968 0.00042,-15.32968c0,0 5.49845,-17.1803 6.2312,-17.1803c1.38889,0 4.47475,3.56091 9.01725,6.93838c1.10129,0.81884 1.71818,-11.43651 2.87177,-10.6215c5.77322,4.07878 10.89937,20.77441 10.89937,20.77441c0,0 1.772,7.34556 1.89881,12.63546c0.0517,2.1567 0.58879,5.16929 0.68695,8.79858c-1.5097,0.31221 -3.09625,0.49022 -4.48407,0.94673c-3.15727,0.4002 -6.37258,0.29348 -9.5849,0.29348c-3.27892,0 -6.12718,-0.16362 -9.2905,-0.90996c-2.52979,-0.50615 -6.07839,-1.41755 -8.06818,-3.3287c-0.07186,-1.12729 -0.13226,-2.14439 -0.1781,-3.0169z" fill="#c5d8e2" stroke-width="0"/><path d="M253.13107,164.94787c0,-2.67532 0.04436,-5.391 -0.97456,-7.90282c0,0 -0.41325,-1.03313 0.61988,-1.44638c1.03313,-0.41325 1.44638,0.61988 1.44638,0.61988c1.10949,2.80685 1.13374,5.74748 1.13374,8.72932l-0.00229,0.02168c-0.7298,0.23526 -1.50548,0.39677 -2.28974,0.5404z" fill="#c5d8e2" stroke-width="0.5"/><path d="M241.80424,165.25908c0,0 -2.41208,1.21048 -3.56165,0.22368c-0.65951,-0.56613 -3.83789,-7.51195 -3.83789,-7.51195c0,0 5.47032,-9.08416 6.65242,-9.47466c0.71899,-0.23751 3.40423,4.68999 3.91836,4.68999c2.87184,0 12.12859,1.33526 12.12859,1.33526v8.84607z" fill="#c6deec" stroke-width="0"/><path d="M230.70097,156.35898c0.3934,-0.3934 0.7868,0 0.7868,0l0.03344,0.07381c4.28708,2.14354 9.08237,3.50755 13.90491,3.50195c2.93449,0 5.66799,-0.17114 8.54555,-0.61594c1.03414,-0.15985 1.99424,-0.26349 2.95591,-0.7496c0,0 0.49762,-0.24881 0.74643,0.24881c0.24881,0.49762 -0.24881,0.74643 -0.24881,0.74643c-3.50577,1.73678 -8.17419,1.483 -11.99908,1.483c-4.99702,-0.0053 -9.95771,-1.397 -14.40252,-3.61941l-0.32263,-0.28226c0,0 -0.3934,-0.3934 0,-0.7868z" fill="#a9ccdf" stroke-width="0.5"/><path d="M253.52297,158.05477c-1.0911,0.21822 -1.30933,-0.87288 -1.30933,-0.87288l-0.16138,-0.82202c-0.08133,-0.71123 -0.38267,-1.37972 -0.56331,-2.07242c-0.39625,-1.51948 -0.18515,-3.15686 -0.46614,-4.69272c-0.10448,-0.5711 -0.37078,-1.10707 -0.45291,-1.6818c-0.44397,-3.1067 -0.49521,-6.31854 -1.45151,-9.34017c-0.73598,-2.32548 -2.07942,-4.32554 -2.93834,-6.58826c0,0 -0.3907,-1.04187 0.65116,-1.43257c1.04187,-0.3907 1.43258,0.65116 1.43258,0.65116c0.8567,2.3183 2.24468,4.37985 2.99612,6.7643c0.98473,3.12472 1.05722,6.4394 1.51573,9.65014c0.07735,0.54166 0.33996,1.04373 0.43726,1.58216c0.26386,1.46007 0.03186,3.07218 0.42403,4.50571c0.21627,0.79056 0.51536,1.56601 0.62359,2.37844l0.13535,0.6616c0,0 0.21822,1.09111 -0.87288,1.30933z" fill="#c5d8e2" stroke-width="0.5"/><path d="M225.80371,137.44274c-1.09477,-0.19905 -0.89572,-1.29381 -0.89572,-1.29381l0.2053,-1.09411c0.5565,-1.8849 0.87481,-3.82789 1.32172,-5.73575c0.16532,-0.70573 0.06397,-1.50036 0.41498,-2.13453c0.44252,-0.7995 0.97333,-1.84624 1.87395,-2.0009c0.50941,-0.08747 2.40821,1.60827 3.03906,2.09888c1.30271,1.01311 2.77553,1.82352 3.87874,3.06821c0.53169,0.59987 1.02177,1.22843 1.50548,1.85988l0.06475,-0.42217c0.46918,-1.75883 0.97875,-3.57015 1.21834,-5.37878c0.13643,-1.02983 -0.02445,-1.62334 0.37721,-2.6061c0.31663,-0.77472 0.3586,-1.93927 1.14095,-2.23656c0.64742,-0.24603 2.20647,1.38348 2.70171,1.90373c1.05221,1.10534 1.77746,2.27692 2.6737,3.49187c0.94549,1.28172 1.7397,2.02912 2.36397,3.54209c0,0 0.41325,1.03313 -0.61988,1.44638c-1.03313,0.41325 -1.44638,-0.61988 -1.44638,-0.61988c-0.69629,-1.81545 -2.33402,-3.70104 -3.57395,-5.23656c-0.33241,-0.41165 -0.81349,-0.71876 -1.20727,-1.08057c-0.05671,0.18637 -0.11155,0.32908 -0.11723,0.36942c-0.3338,2.37081 -0.74076,4.65213 -1.36088,6.97839l-0.06264,0.49377c0,0 -0.12313,0.86192 -0.91399,0.95198c0.44032,0.54594 0.89902,1.07704 1.40042,1.57552c0,0 0.78681,0.78681 0,1.57361c-0.78681,0.7868 -1.57362,0 -1.57362,0c-1.57271,-1.58087 -2.75609,-3.43439 -4.22329,-5.11556c-0.99559,-1.14078 -2.41209,-1.8839 -3.5987,-2.80691c-0.34241,-0.26635 -0.72431,-0.49521 -1.00734,-0.82396c-0.19804,-0.23003 -0.11365,-0.72888 -0.40445,-0.81588c-0.21554,-0.06448 -0.04983,0.44732 -0.08442,0.66962c-0.09262,0.59511 -0.16654,1.19428 -0.29716,1.78222c-0.43161,1.94282 -0.78717,3.92018 -1.3488,5.83648l-0.15077,0.86426c0,0 -0.19904,1.09476 -1.29381,0.89571z" fill="#c0d3dd" stroke-width="0.5"/><path d="M220.61722,159.04735c0,-5.45356 -0.14028,-10.9314 1.09671,-16.27328c0.51121,-2.20768 1.19337,-4.28806 2.62649,-6.06249c0,0 0.70461,-0.86119 1.5658,-0.15658c0.86119,0.70461 0.15658,1.56581 0.15658,1.56581c-1.47348,1.77208 -1.95096,4.09022 -2.44555,6.30237c-1.06036,4.74259 -0.77459,9.79403 -0.77459,14.62418c-0.00302,1.2594 0.17988,2.43262 0.3463,3.68068l0.07622,0.36932c-0.54783,-0.38173 -1.03101,-0.81268 -1.41759,-1.3002c-0.2868,-0.35324 -0.70399,-0.71425 -1.13929,-1.01326c-0.05441,-0.57104 -0.08984,-1.14538 -0.09109,-1.73655z" fill="#c5d8e2" stroke-width="0.5"/><path d="M237.31882,165.18213c0,-1.11272 1.11271,-1.11271 1.11271,-1.11271c1.17128,0 3.27958,0 4.45086,0c2.79817,0.00314 5.54573,-0.54308 8.32249,-0.81438c1.61743,-0.15803 3.70108,-0.44576 4.91784,-1.64154c0.75334,-0.74036 0.35839,-1.73148 0.40645,-2.69458c0.06467,-1.29614 0.11315,-1.94132 -0.39031,-3.16228c0,0 -0.00042,-0.00105 -0.00119,-0.00308c-3.09449,-0.38628 -6.21298,-0.26796 -9.28481,-0.96481c-1.49016,-0.33804 -3.10677,-0.73539 -4.26663,-1.79947c-1.02204,-0.93765 -1.67795,-2.39995 -2.23947,-3.62747c0,0 -0.46044,-1.01298 0.55254,-1.47343c1.01297,-0.46044 1.47342,0.55254 1.47342,0.55254c0.44045,0.97604 0.94672,2.16801 1.74287,2.93169c0.80288,0.77014 2.19133,1.00939 3.22955,1.24585c3.26396,0.74338 6.59081,0.53449 9.87892,1.03952l0.73474,0.43009c0,0 0.46609,0.4661 0.32206,1.03955c0.32334,0.85922 0.5798,1.76626 0.58947,2.68046c0.00969,0.91574 0.11288,3.00318 -0.16486,3.83127c-0.72252,2.15427 -2.84411,2.84984 -4.77804,3.334c-3.47974,0.87115 -7.44501,1.31778 -11.04503,1.32148c-1.17128,0 -2.34255,0 -3.51383,0h-0.93703c0,0 -1.11271,0 -1.11271,-1.11272z" fill="#a1b9c7" stroke-width="0.5"/><path d="M251.18135,154.22658c-0.01502,-0.09562 -0.01937,-0.2016 -0.01034,-0.31907c0.08534,-1.10944 1.19478,-1.0241 1.19478,-1.0241c1.52224,0.11811 3.07189,0.20832 4.58625,0.35362c0.58314,0.05595 1.26107,-0.06626 1.73541,0.27752c1.63152,1.18249 1.63573,5.08897 -0.01763,6.22022c-0.49668,0.33983 -1.17229,0.28818 -1.77061,0.35295c-2.18975,0.23703 -3.93107,-0.81167 -5.03546,-2.66831c-0.43588,-0.73278 -1.20496,-2.19292 -0.68239,-3.19283z" fill="#131415" stroke-width="0.5"/><path d="M248.56309,149.60414c-0.00017,0.32266 0.01485,0.94573 -0.01189,1.53912c-1.99714,-0.27918 -4.06803,-0.08165 -5.93674,0.62609c-0.11872,-0.19561 -0.22189,-0.3988 -0.30681,-0.60694c-0.2148,-0.5265 -0.20992,-2.31657 -0.18562,-2.8929c0.06286,-1.49156 0.20403,-3.00806 0.45269,-4.48704c0.70393,0.15705 1.43584,0.23989 2.1871,0.23989c1.19835,0 2.34746,-0.21079 3.41229,-0.5973c0.82617,1.78256 0.3899,4.41704 0.38898,6.17909z" fill="#f1f5f7" stroke-width="0.5"/><path d="M239.56948,144.47625c0.6162,1.38702 0.21107,3.80705 0.09092,5.29126c-0.05106,0.63083 0.07723,1.33897 -0.24689,1.88256c-0.08052,0.13505 -0.17349,0.26258 -0.27638,0.38279c-1.91713,-0.29074 -4.08867,-0.12516 -6.12916,0.3252c-0.56241,-0.42878 -1.0097,-0.96597 -1.25107,-1.57292c-0.1889,-0.47502 -0.04922,-1.02132 -0.06023,-1.53239c-0.02776,-1.28806 0.00362,-2.68277 0.25283,-3.95054c0.09612,-0.489 0.2331,-0.93108 0.40279,-1.34801c0.23245,-0.02718 0.46247,-0.06233 0.68977,-0.10517c1.89199,0.07435 3.84359,-0.04029 5.6337,-0.47171c0.32484,0.34967 0.70188,0.66712 0.89372,1.09893z" fill="#f1f5f7" stroke-width="0.5"/><path d="M238.41683,145.74171c0.74822,1.02878 0.48406,3.94051 -1.11617,3.5437c-1.21147,-0.3004 -0.97521,-1.4185 -0.56211,-2.40396c-0.116,-0.36134 -0.10905,-0.74576 0.24888,-1.07859c0.14236,-0.13238 0.27714,-0.22991 0.40408,-0.29676c0.0863,-0.13389 0.30525,-0.37793 0.6873,-0.21419c0.25698,0.11013 0.32948,0.29406 0.33801,0.4498z" fill="#2a2e30" stroke-width="0.5"/><path d="M246.4074,144.83039c0.52781,-0.17594 0.70374,0.35187 0.70374,0.35187l0.1928,0.58696c0.12225,0.95115 0.8041,3.27273 -0.8345,3.43525c-0.02195,0.00217 -0.0436,0.0037 -0.06498,0.0046c-0.17023,0.19912 -0.40285,0.31113 -0.71997,0.25752c-0.38635,-0.06531 -0.51036,-0.61944 -0.62952,-0.9927c-0.31073,-0.97342 0.31488,-2.24631 1.00277,-2.838c0,0 0.0092,-0.00736 0.02599,-0.0186l-0.02822,-0.08316c0,0 -0.17593,-0.52781 0.35187,-0.70374z" fill="#2a2e30" stroke-width="0.5"/><path d="M232.21576,153.10855c-0.50802,-0.86135 0.35333,-1.36936 0.35333,-1.36936l0.14015,-0.07924c1.9382,-0.93369 3.99044,-0.90757 6.10213,-0.75087c0,0 0.99697,0.07777 0.91921,1.07474c-0.07776,0.99697 -1.07474,0.91921 -1.07474,0.91921c-1.71744,-0.14177 -3.5032,-0.23193 -5.06568,0.55248l-0.00503,0.00638c0,0 -0.86135,0.50802 -1.36936,-0.35333z" fill="#a1b9c7" stroke-width="0.5"/><path d="M242.29909,152.27522c-0.50802,-0.86135 0.35333,-1.36936 0.35333,-1.36936l0.14015,-0.07924c1.9382,-0.93369 3.99044,-0.90757 6.10213,-0.75087c0,0 0.99697,0.07777 0.91921,1.07474c-0.07776,0.99697 -1.07474,0.91921 -1.07474,0.91921c-1.71744,-0.14177 -3.5032,-0.23193 -5.06568,0.55248l-0.00503,0.00638c0,0 -0.86135,0.50802 -1.36936,-0.35333z" fill="#a1b9c7" stroke-width="0.5"/><path d="M232.04909,144.44188c-0.50802,-0.86135 0.35333,-1.36936 0.35333,-1.36936l0.14015,-0.07924c1.9382,-0.93369 3.99044,-0.90757 6.10213,-0.75087c0,0 0.99697,0.07777 0.91921,1.07474c-0.07776,0.99697 -1.07474,0.91921 -1.07474,0.91921c-1.71744,-0.14177 -3.5032,-0.23193 -5.06568,0.55248l-0.00503,0.00638c0,0 -0.86135,0.50802 -1.36936,-0.35333z" fill="#a1b9c7" stroke-width="0.5"/><path d="M241.63243,144.60855c-0.50802,-0.86135 0.35333,-1.36936 0.35333,-1.36936l0.14015,-0.07924c1.9382,-0.93369 3.99044,-0.90757 6.10213,-0.75087c0,0 0.99697,0.07777 0.91921,1.07474c-0.07776,0.99697 -1.07474,0.91921 -1.07474,0.91921c-1.71744,-0.14177 -3.5032,-0.23193 -5.06568,0.55248l-0.00503,0.00638c0,0 -0.86135,0.50802 -1.36936,-0.35333z" fill="#a1b9c7" stroke-width="0.5"/></g></g></svg>