<svg version="1.1" xmlns="http://www.w3.org/2000/svg" xmlns:xlink="http://www.w3.org/1999/xlink" width="32.31163" height="27.48467" viewBox="0,0,32.31163,27.48467"><g transform="translate(-318.2637,-185.29735)"><g data-paper-data="{&quot;isPaintingLayer&quot;:true}" fill-rule="nonzero" stroke="none" stroke-linecap="butt" stroke-linejoin="miter" stroke-miterlimit="10" stroke-dasharray="" stroke-dashoffset="0" style="mix-blend-mode: normal"><path d="M350.57533,212.78202h-18.71986c-0.89839,-1.42014 -2.52563,-2.88603 -3.22798,-4.02096c-1.89495,-2.72022 -3.13447,-5.83893 -6.21503,-7.12915c-2.24675,-0.54391 -3.20361,-1.8842 -4.14875,-3.26317c0.38837,0.02441 0.82068,-0.04146 1.2122,-0.04146c2.68231,0 3.59388,-1.26336 5.3034,-2.99974c0.83285,-3.40291 6.00883,-2.53127 8.39452,-4.12877c2.9742,-1.29025 6.76277,0.10829 8.21807,2.95091c1.01148,1.09903 1.02856,2.26601 1.79284,3.42695c1.14564,1.74022 3.58996,2.01022 5.47479,2.02739c0.63554,0 1.27375,0.02981 1.9158,0.06366z" fill="#8b8b8b" stroke-width="0"/><path d="M323.06883,185.29735c-0.0227,0.17019 -0.16479,0.38732 -0.34594,0.62412c0.06265,-0.22874 0.17471,-0.43855 0.34594,-0.62412z" fill="#6a6a6a" stroke-width="0.5"/><path d="M318.29407,198.41302c-0.01013,-0.01476 -0.02025,-0.02952 -0.03037,-0.04429c0.00305,0.00019 0.00611,0.00038 0.00916,0.00056c0.00703,0.01458 0.0141,0.02916 0.02121,0.04374z" fill="#6a6a6a" stroke-width="0.5"/><path d="M319.87411,200.19035c0.16936,0.10938 0.30355,0.26854 0.38188,0.45679c-0.31046,-0.23156 -0.58368,-0.48671 -0.83301,-0.75754z" fill="#6a6a6a" stroke-width="0.5"/><path d="M325.66979,195.03084c0.58764,1.47903 1.36715,4.26897 0.67765,5.92601c-0.28118,0.67575 -1.35265,1.43797 -2.10669,1.79836c-0.53518,-0.4501 -1.13513,-0.83299 -1.82829,-1.12331c-0.32386,-0.0784 -0.62092,-0.17335 -0.895,-0.28258c0.6272,-0.13321 1.27333,-0.19078 1.72807,-0.34113c1.96865,-0.65088 1.34847,-3.3334 0.74366,-4.86587c0.24941,-0.25646 0.50897,-0.52923 0.79012,-0.81479c0.08399,-0.34318 0.21216,-0.64289 0.37718,-0.90604z" fill="#6a6a6a" stroke-width="0.5"/><path d="M323.24996,193.72366c0.75926,-0.65079 1.41005,0.10847 1.41005,0.10847l0.154,0.18281c-0.20506,0.30339 -0.36517,0.65543 -0.47011,1.06679c-0.23492,0.23351 -0.45247,0.45777 -0.66058,0.67044l-0.54182,-0.61845c0,0 -0.65079,-0.75926 0.10847,-1.41005z" fill="#6a6a6a" stroke-width="0.5"/><path d="M341.70285,195.92028c-0.02109,-0.05272 -0.03798,-0.10364 -0.0511,-0.1528c-0.77086,-0.34027 -1.44918,-0.7772 -2.37004,-1.09329c-2.59669,-0.89132 -6.50316,1.19638 -7.22805,-2.90619c-0.00189,-0.01069 -0.00376,-0.02139 -0.00561,-0.03211c0.41576,-0.14396 0.79723,-0.31713 1.12578,-0.53713c0.24352,-0.10564 0.4925,-0.19326 0.7452,-0.26353c-0.72473,2.0693 4.81608,1.45721 5.97067,1.83361c0.29817,0.09721 0.56281,0.21041 0.80856,0.33034c0.26726,0.32291 0.50091,0.67404 0.69364,1.05049c0.71274,0.77443 0.93173,1.5826 1.26632,2.39862c-0.30345,0.01938 -0.73103,-0.06719 -0.95537,-0.62802z" fill="#6a6a6a" stroke-width="0.5"/><path d="M332.09973,189.8721c0.19223,-0.55146 0.72821,-0.91321 1.09232,-1.36981c0,0 0.65079,-0.75926 1.41005,-0.10847c0.75926,0.65079 0.10847,1.41005 0.10847,1.41005c-0.18986,0.19685 -0.34493,0.3794 -0.46835,0.54874c-0.44839,0.08793 -0.88727,0.22282 -1.30796,0.40728c-0.28701,0.19057 -0.6086,0.34693 -0.95449,0.4798c-0.04492,-0.46383 -0.03032,-0.93646 0.11997,-1.36759z" fill="#6a6a6a" stroke-width="0.5"/><path d="M343.51677,194.25205l-0.40161,1.73856l0.15354,0.24599c-0.06907,-0.00936 -0.13676,-0.01979 -0.20315,-0.03122l-0.00493,0.02133c-0.32281,-0.80443 -0.54999,-1.60803 -1.25848,-2.36288c-0.04018,-0.08042 -0.08215,-0.1597 -0.12585,-0.23782c0.53372,0.28949 1.07904,0.54132 1.84048,0.62603z" fill="#6a6a6a" stroke-width="0.5"/><path d="M345.86423,199.64881c0.31623,0.94868 -0.63246,1.26491 -0.63246,1.26491l-1.22991,0.35588c-5.38926,0 -12.91487,-1.31252 -15.6657,-6.64403c0,0 -0.44721,-0.89443 0.44721,-1.34164c0.89443,-0.44721 1.34164,0.44721 1.34164,0.44721c2.22157,4.63858 9.39478,5.53846 13.87684,5.53846l0.59746,-0.25325c0,0 0.12453,-0.04151 0.2984,-0.04933c0.23303,0.10291 0.47572,0.18969 0.72438,0.26276c0.09667,0.1002 0.18116,0.2361 0.24214,0.41903z" fill="#6a6a6a" stroke-width="0.5"/><path d="M333.36727,205.3339c-0.09412,0.28935 -0.33291,0.65641 -0.93877,0.65641c-1,0 -1,-1 -1,-1l0.01605,-1.24439c0.37794,-0.66385 0.40183,-1.77311 1.13382,-1.99154c3.29478,-0.98318 1.61466,1.28246 2.12138,2.11589c0.07443,0.12243 2.74371,0.04421 2.98111,-0.00549c2.78684,-0.58341 5.96232,-0.09311 8.65592,-1.31109c0,0 0.91381,-0.40614 1.31995,0.50767c0.40614,0.91381 -0.50767,1.31995 -0.50767,1.31995c-2.92091,1.27936 -7.45918,1.43711 -10.60897,1.45672c-0.93202,0.0058 -2.32886,0.1165 -3.17282,-0.50413z" fill="#6a6a6a" stroke-width="0.5"/><path d="M348.56117,211.72928c-0.8,0.6 -1.4,-0.2 -1.4,-0.2l0.06844,-0.2476c-3.15568,-0.91499 -6.27819,0.12564 -9.45769,-0.27575c-1.19986,-0.15148 -1.95156,-0.94779 -3.04442,-1.25149c-2.41476,-0.67105 -4.53336,-0.77963 -6.59455,-1.73129c-0.66204,-1.02149 -1.26548,-2.07001 -1.935,-3.03433c0.5491,-0.29884 1.08406,0.14696 1.08406,0.14696c2.51226,2.09889 5.05495,1.83747 8.02506,2.70447c0.96134,0.28062 1.71251,1.0756 2.74226,1.18501c3.29311,0.34989 6.44541,-0.59319 9.72973,0.33337l0.98212,0.97065c0,0 0.6,0.8 -0.2,1.4z" fill="#6a6a6a" stroke-width="0.5"/></g></g></svg>