<svg version="1.1" xmlns="http://www.w3.org/2000/svg" xmlns:xlink="http://www.w3.org/1999/xlink" width="63.42057" height="117.53806" viewBox="0,0,63.42057,117.53806"><g transform="translate(-208.28972,-121.23097)"><g data-paper-data="{&quot;isPaintingLayer&quot;:true}" fill-rule="nonzero" stroke="none" stroke-linecap="butt" stroke-linejoin="miter" stroke-miterlimit="10" stroke-dasharray="" stroke-dashoffset="0" style="mix-blend-mode: normal"><g><g stroke-width="0.5"><path d="M223.05294,212.1421c-0.48769,1.9581 -1.20073,3.99304 -1.97669,5.87436c-0.06047,0.14661 -0.12051,0.2933 -0.18015,0.44006c-0.29369,-0.11872 -0.5869,-0.23828 -0.87945,-0.35895c-1.43063,-0.59008 -2.86127,-1.18015 -4.2919,-1.77022c0.03632,-0.08667 0.07244,-0.17331 0.10836,-0.2599c0.59346,-2.17099 1.9029,-4.17217 2.44523,-6.34429c0.29978,-1.20068 0.39474,-2.50617 0.71696,-3.71146c1.2842,0.87896 3.0776,1.20564 4.45391,1.7733c0.26123,0.10774 0.52255,0.21039 0.78794,0.29788c-0.22074,1.39792 -0.8396,2.67564 -1.18421,4.05921z" fill="#b0c1ca"/><path d="M218.23013,209.64848c0.2956,-1.11342 0.91002,-2.22185 1.35083,-3.28802c0.32376,0.16875 0.66726,0.31448 1.01932,0.44678c-0.41971,1.00881 -1.02401,2.07171 -1.29429,3.12523c-0.61446,2.39507 -0.96068,4.76251 -1.91594,7.08175c-0.34271,-0.14136 -0.68542,-0.2827 -1.02813,-0.42406c0.92753,-2.2768 1.24573,-4.59712 1.8682,-6.94168z" fill="#c7d7e0"/><path d="M218.946,210.1957c0.31418,-1.01762 1.2803,-2.00204 1.16563,-3.08202c0,0 -0.01906,-0.26253 0.14962,-0.43954c0.31261,0.12854 0.63521,0.24353 0.9595,0.35205c0.0005,0.00452 0.00066,0.00695 0.00066,0.00695c0.06932,1.3514 -0.81534,2.25552 -1.21283,3.49275c-0.72655,2.26141 -0.75268,4.66074 -1.58112,6.91624c-0.34271,-0.14135 -0.68541,-0.2827 -1.02812,-0.42406c0.81655,-2.21464 0.85723,-4.58946 1.54664,-6.82236z" fill="#cdd0e0"/></g><g stroke-width="0.5"><path d="M245.25328,210.42296c1.20479,1.56755 2.36615,3.20662 3.46898,4.87096c-1.505,0.37245 -2.95272,0.94181 -4.35695,1.64143c-1.76018,-2.89028 -3.46245,-5.7971 -5.70459,-8.30535c1.38475,-0.46659 2.55861,-0.86544 3.80706,-1.50955c0.77087,1.22429 1.88272,2.12789 2.78551,3.3025z" fill="#b0c1ca"/><path d="M239.38663,208.56895c0,0 -0.05122,-0.05965 -0.09273,-0.15337c0.37544,-0.12828 0.73754,-0.25506 1.09278,-0.38741c2.1106,2.52825 3.48934,5.60928 5.4377,8.23668c-0.34561,0.14506 -0.68842,0.29898 -1.02863,0.46085c-1.89227,-2.64147 -3.27823,-5.67512 -5.40912,-8.15675z" fill="#c7d7e0"/><path d="M241.92901,209.37714c0.4723,-0.29403 0.76634,0.17827 0.76634,0.17827l0.13572,0.21801c0.45001,0.72284 0.83954,1.37949 1.10429,2.19396c0,0 0.17071,0.52953 -0.35881,0.70023c-0.52952,0.1707 -0.70023,-0.35881 -0.70023,-0.35881c-0.23247,-0.72806 -0.58783,-1.3015 -0.98988,-1.94729l-0.13572,-0.21801c0,0 -0.29403,-0.47231 0.17828,-0.76634z" fill="#cdd0e0"/></g><path d="M247.36799,195.47623c0.05703,0.19959 0.0183,0.34599 -0.05266,0.45111l-0.03104,0.16689c0,1.00428 0,2.00856 0,3.01284c0,0.72347 0.03643,1.34894 -0.19197,2.05046c-0.46724,1.43508 -1.36648,2.25274 -2.49516,2.68755v0.14767c0,1.88327 0.49504,4.62498 -1.90119,5.0335c-0.46833,0.00107 -0.92542,-0.0222 -1.3775,-0.05732c-0.00553,0.05522 -0.01027,0.11027 -0.01424,0.16516c-1.45507,-0.10772 -2.69168,-0.3927 -4.20326,-0.78708c0,0 -0.21337,-0.05334 -0.28988,0.14017c-0.4022,-0.11575 -0.77605,-0.30044 -1.06794,-0.60545c-1.17175,-1.22439 -1.11708,-2.99635 -1.28606,-4.57128c-1.7658,-0.32363 -3.59285,-0.35032 -5.42555,-0.33968c0.02344,0.12856 0.00208,0.23537 0.00208,0.23537l-0.07403,0.35947c-0.22076,1.94277 -0.4986,3.60234 -2.50322,3.87566c0.01347,0.03934 0.02651,0.07872 0.03913,0.11814c-0.23454,0.01296 -0.47043,0.01479 -0.70573,0.01479c-1.46046,0 -3.34103,0.43575 -4.84535,0.04331c-0.00333,-0.04927 -0.00615,-0.09852 -0.00845,-0.14775c-0.36151,-0.06865 -0.70351,-0.16721 -1.01362,-0.30557c-0.03557,-0.02435 -0.07069,-0.04958 -0.10535,-0.07573c0,0 -0.06787,-0.0509 -0.15419,-0.05387c-0.38434,-0.21429 -0.70671,-0.50311 -0.93849,-0.88931c-0.78747,-1.31211 -0.48896,-3.16189 -0.48266,-4.63054c-1.63022,-1.63705 -1.41826,-5.0258 -1.1343,-7.04633c0,0 0.06413,-0.44892 0.48189,-0.47827c0.28606,-0.16467 0.58616,0.04969 0.58616,0.04969c2.1287,1.5205 5.04326,1.38896 7.57377,1.74952c1.28314,0.18283 2.59522,0.49586 3.89414,0.4909c4.9269,0 9.90589,0.21333 14.7507,-0.41803c0.61664,-0.13691 1.12832,-0.30473 1.69297,-0.58872l0.3697,-0.11181c0.09647,-0.08326 0.23807,-0.13918 0.44413,-0.10484c0.16286,0.02714 0.26933,0.09457 0.33854,0.17597c0.05311,0.05852 0.09835,0.13747 0.12861,0.24339z" fill="#b0c1ca" stroke-width="0.5"/><path d="M222.22694,207.66421c0.1635,0 0.27894,0.04805 0.36047,0.1159c-0.23622,0.0037 -0.47035,-0.00055 -0.70014,-0.01631c0.08003,-0.05911 0.18961,-0.09959 0.33967,-0.09959z" fill="#c7d7e0" stroke-width="0.5"/><path d="M238.37209,208.59517c0.26176,-0.04027 0.41808,0.06323 0.51004,0.18275c-0.21439,-0.04568 -0.43049,-0.09474 -0.6502,-0.14691c0.0414,-0.01557 0.08792,-0.0278 0.14016,-0.03584z" fill="#c7d7e0" stroke-width="0.5"/><path d="M219.38467,201.66397c0.27223,0.27223 0.1677,0.54447 0.07748,0.68634c-0.29094,1.7369 0.12009,2.98039 1.87637,3.60116c0,0 0.52286,0.19013 0.33273,0.71299c-0.19013,0.52286 -0.71299,0.33274 -0.71299,0.33274c-2.30751,-0.85762 -2.98383,-2.64049 -2.56574,-4.98798l0.20534,-0.34524c0,0 0.39341,-0.39341 0.78681,0z" fill="#c7d7e0" stroke-width="0.5"/><path d="M218.1695,194.9783c0.55635,0 0.55636,0.55635 0.55636,0.55635v0.20544c0,1.58566 0.35411,2.64881 0.89098,4.1241c0,0 0.19012,0.52286 -0.33273,0.71299c-0.52286,0.19013 -0.71299,-0.33274 -0.71299,-0.33274c-0.57556,-1.58401 -0.95798,-2.79844 -0.95798,-4.50437v-0.20544c0,0 0,-0.55635 0.55635,-0.55635z" fill="#c7d7e0" stroke-width="0.5"/><path d="M220.11783,200.48173c-0.4274,0.35617 -0.78358,-0.07124 -0.78358,-0.07124l-0.34295,-0.45034c-0.6492,-1.5633 -0.96626,-2.5944 -0.81091,-4.32179c0,0 0.05036,-0.55408 0.60444,-0.5037c0.55407,0.05037 0.5037,0.60444 0.5037,0.60444c-0.14587,1.58593 0.13265,2.36412 0.72988,3.79309l0.17065,0.16598c0,0 0.35617,0.4274 -0.07124,0.78357z" fill="#cdd0e0" stroke-width="0.5"/><path d="M222.13377,205.84472c-0.29487,0.47179 -0.76666,0.17692 -0.76666,0.17692l-0.30615,-0.20573c-1.72415,-0.63459 -1.71658,-1.62002 -1.85374,-3.2501c0,0 -0.0462,-0.55444 0.50823,-0.60064c0.55443,-0.0462 0.60063,0.50823 0.60063,0.50823c0.10024,1.2139 -0.12355,1.84929 1.12514,2.29679l0.51561,0.30787c0,0 0.4718,0.29487 0.17692,0.76666z" fill="#cdd0e0" stroke-width="0.5"/><path d="M238.21737,207.87852c0.3934,-0.39341 0.78681,0 0.78681,0l0.09712,0.10319c0.11984,0.15408 0.23968,0.30816 0.35952,0.46224c0,0 0.1714,0.22037 0.11526,0.47031c-0.46157,-0.08246 -0.92148,-0.18213 -1.39906,-0.29636c-0.08914,-0.11605 -0.27131,-0.42772 0.04036,-0.7394z" fill="#cdd0e0" stroke-width="0.5"/><path d="M239.1811,209.32704c-0.21645,0.0761 -0.39525,-0.01985 -0.49948,-0.10325c0.16739,0.036 0.33361,0.07049 0.49948,0.10325z" fill="#cdd0e0" stroke-width="0.5"/><path d="M235.01557,202.32277c0.55635,0 0.55635,0.55636 0.55635,0.55636v0.10272c-0.00097,1.53089 0.60088,2.62614 1.36229,3.93118c0,0 0.28033,0.48056 -0.20024,0.7609c-0.48057,0.28034 -0.7609,-0.20023 -0.7609,-0.20023c-0.86185,-1.47773 -1.51283,-2.75105 -1.51387,-4.49185v-0.10272c0,0 0.00001,-0.55636 0.55636,-0.55636z" fill="#cdd0e0" stroke-width="0.5"/><path d="M217.24264,232.21441c-0.17913,0.56964 -0.35826,1.13928 -0.53739,1.70892l0.04743,-0.07518c0,0 0.01905,0.1188 -0.01583,0.25477c-1.54473,-0.04337 -3.72164,-1.14082 -4.91321,-1.94083c-0.18152,-0.13432 -0.36696,-0.24514 -0.554,-0.35007c0.15376,-0.32811 0.30883,-0.65558 0.4624,-0.98391c0.6308,-4.00388 2.20542,-7.99529 3.47661,-11.88449c1.47764,0.46465 2.95526,0.9293 4.4329,1.39396c0.30313,0.09532 0.60679,0.18948 0.91089,0.28275c-1.17232,3.86651 -2.10274,7.75553 -3.3098,11.59408z" fill="#b0c1ca" stroke-width="0.5"/><path d="M219.16778,236.58436c0.00734,0.21675 -0.77117,1.04908 -0.95386,1.25244c-1.74034,1.93717 -3.10823,0.42743 -4.77718,-0.68232c-1.44327,-1.28228 -2.65937,-2.61848 -3.97286,-3.98267c-0.45519,-0.47276 -1.17526,-1.30846 -1.17416,-2.02861c0.00276,-1.78963 1.98298,-2.11183 3.22849,-1.46313l0.19593,-0.16507c0.05675,-0.04955 0.1136,-0.09898 0.17053,-0.14831c0.11002,0.1513 0.21486,0.30697 0.30626,0.47596c0.84378,1.3387 2.48169,3.3519 3.98948,4.03254c0,0 0.22786,0.10286 0.33072,-0.125c0.00531,-0.01175 0.00973,-0.02317 0.01335,-0.03426c0.86568,0.69902 2.61008,1.88791 2.64331,2.86843z" fill="#b0c1ca" stroke-width="0.5"/><path d="M212.0616,231.09142c0.43101,-1.37063 1.09626,-2.63664 1.58013,-3.99603c0.92474,-2.59799 1.61661,-5.26175 2.25818,-7.93439c0.35458,0.1115 0.70917,0.223 1.06376,0.33451c-0.644,2.68755 -1.34692,5.365 -2.27525,7.9775c-0.47778,1.34455 -1.1397,2.59865 -1.56534,3.9522c-0.05649,0.17964 -0.11298,0.3593 -0.16947,0.53894l-0.16948,0.53894c0,0 -0.02875,0.09144 -0.10035,0.18648c-0.31983,-0.18059 -0.61144,-0.36052 -0.86013,-0.52749c-0.02676,-0.0198 -0.0536,-0.03909 -0.08052,-0.05792c0.07755,-0.24662 0.26736,-0.85023 0.31847,-1.01274z" fill="#c7d7e0" stroke-width="0.5"/><path d="M215.94468,223.85068c-0.53073,-0.16689 -0.36385,-0.69763 -0.36385,-0.69763l0.09244,-0.29397c0.36268,-1.1508 0.9031,-2.22019 1.27427,-3.36864c0.35377,0.11125 0.70753,0.22249 1.0613,0.33374c-0.37315,1.14774 -0.91333,2.21867 -1.2741,3.36869l-0.09244,0.29398c0,0 -0.16689,0.53072 -0.69762,0.36383z" fill="#cdd0e0" stroke-width="0.5"/><path d="M213.44753,230.76447c-0.53073,-0.16689 -0.36384,-0.69763 -0.36384,-0.69763l0.09056,-0.26936c0.84348,-1.75241 1.49984,-3.60396 2.38361,-5.34771c0,0 0.25188,-0.49608 0.74794,-0.2442c0.49607,0.25187 0.2442,0.74795 0.2442,0.74795c-0.88219,1.73418 -1.53949,3.5773 -2.37218,5.3245l-0.03269,0.1226c0,0 -0.16689,0.53073 -0.69762,0.36384z" fill="#cdd0e0" stroke-width="0.5"/><path d="M212.63538,232.34864c0.09217,-0.29312 0.4045,-0.45602 0.69762,-0.36385c0.29312,0.09217 0.45601,0.40451 0.36383,0.69763c-0.05526,0.17572 -0.18963,0.30463 -0.35155,0.35986c-0.25026,-0.1258 -0.49106,-0.25536 -0.71704,-0.38422c-0.02617,-0.09838 -0.02567,-0.20512 0.00713,-0.30942z" fill="#cdd0e0" stroke-width="0.5"/><g stroke-width="0.5"><path d="M248.32132,221.87411c-1.93884,3.13061 -2.71834,6.8828 -4.66644,10.03808l-0.08508,0.1378c1.09574,0.48651 2.85978,0.69011 3.41294,1.63666c0.59504,1.01818 -0.82572,3.69424 -1.99807,3.88374c-0.09947,0.01608 -1.23427,-0.45168 -1.44671,-0.56285c-1.19717,-0.62646 -2.3925,-1.38178 -3.54138,-2.08914c-1.38572,-0.85556 -2.77202,-1.71018 -4.15717,-2.56667c-0.33387,-0.20645 -1.15802,-0.66522 -1.2917,-1.02463c-0.38262,-1.02863 1.15034,-3.07876 1.85982,-3.72124c0.23166,-0.20979 0.4417,-0.50773 0.74918,-0.56375c0.53236,-0.09699 1.62738,0.63954 2.11338,0.8617c0,0 0.00038,0.00017 0.00111,0.00052l0.05997,-0.09713c2.09881,-3.39938 4.12041,-6.82871 6.21907,-10.22785c0.17651,-0.28588 0.35435,-0.57082 0.5329,-0.85515c1.25422,0.95236 2.40757,2.0036 3.41133,3.20062c-0.38505,0.65683 -0.77674,1.30721 -1.17315,1.94926z" fill="#b0c1ca"/><g><path d="M240.28978,228.72364l0.29679,-0.48071c2.02727,-3.28351 3.98994,-6.50077 5.39025,-10.08453c0.16074,-0.37741 0.33464,-0.74838 0.51887,-1.11433c0.29815,0.23605 0.59008,0.4782 0.87508,0.72711c-0.12753,0.26602 -0.24905,0.53486 -0.36347,0.80704c-1.42904,3.63971 -3.41405,6.91293 -5.47394,10.24928l-0.29679,0.48071c0,0 -0.29228,0.4734 -0.76567,0.18112l-0.00001,-0.00001c-0.47339,-0.29228 -0.18112,-0.76568 -0.18112,-0.76568z" fill="#c7d7e0"/><path d="M244.99895,223.9151c0.47339,0.29228 0.18112,0.76568 0.18112,0.76568l-0.02698,0.0437c-1.0204,1.65271 -1.93979,3.33735 -2.96154,4.99225c0,0 -0.29228,0.4734 -0.76567,0.18112c-0.47339,-0.29228 -0.18112,-0.76568 -0.18112,-0.76568c1.02176,-1.65491 1.94093,-3.3392 2.96154,-4.99225l0.02698,-0.0437c0,0 0.29228,-0.4734 0.76567,-0.18112z" fill="#cdd0e0"/><path d="M247.38822,220.01183c0,0 -0.20288,0.51804 -0.72093,0.31517c-0.51805,-0.20289 -0.31517,-0.72093 -0.31517,-0.72093c0.27263,-0.69245 0.44983,-1.40537 0.70825,-2.10108c0.30644,0.25807 0.60543,0.52343 0.89614,0.79686c-0.19128,0.56911 -0.34838,1.14577 -0.56829,1.70998z" fill="#cdd0e0"/></g></g><path d="M219.36277,194.5408c0,0 -2.17786,-26.11441 -2.67093,-35.4991c-0.32267,-6.14144 0.00042,-15.32968 0.00042,-15.32968c0,0 5.49845,-17.1803 6.2312,-17.1803c1.38889,0 4.47475,3.56091 9.01725,6.93838c1.10129,0.81884 1.71818,-11.43651 2.87177,-10.6215c5.77322,4.07878 10.89937,20.77441 10.89937,20.77441c0,0 1.772,7.34556 1.89881,12.63546c0.05922,2.47031 0.75524,6.06352 0.69908,10.42019c-0.05526,4.28593 -0.94731,9.08451 -1.15863,13.52263c-0.39713,8.34034 -0.19302,15.40772 -0.19302,15.40772z" fill="#c5d8e2" stroke-width="0"/><path d="M248.50338,166.79702c-1.10591,-0.12288 -0.98303,-1.22879 -0.98303,-1.22879l0.11032,-0.93127c0,-2.67532 0.04436,-5.391 -0.97456,-7.90282c0,0 -0.41325,-1.03313 0.61988,-1.44638c1.03313,-0.41325 1.44638,0.61988 1.44638,0.61988c1.10949,2.80685 1.13374,5.74748 1.13374,8.72932l-0.12393,1.17703c0,0 -0.12288,1.10591 -1.22879,0.98303z" fill="#c5d8e2" stroke-width="0.5"/><path d="M236.30384,164.94817c0,0 -2.41208,1.21048 -3.56165,0.22368c-0.65951,-0.56613 -3.83789,-7.51195 -3.83789,-7.51195c0,0 5.47032,-9.08416 6.65242,-9.47466c0.71899,-0.23751 3.40423,4.68999 3.91836,4.68999c2.87184,0 12.12859,1.33526 12.12859,1.33526v8.84607z" fill="#c6deec" stroke-width="0"/><path d="M225.20057,156.04807c0.3934,-0.3934 0.7868,0 0.7868,0l0.03344,0.07381c4.28708,2.14354 9.08237,3.50755 13.90491,3.50195c2.93449,0 5.66799,-0.17114 8.54555,-0.61594c1.03414,-0.15985 1.99424,-0.26349 2.95591,-0.7496c0,0 0.49762,-0.24881 0.74643,0.24881c0.24881,0.49762 -0.24881,0.74643 -0.24881,0.74643c-3.50577,1.73678 -8.17419,1.483 -11.99908,1.483c-4.99702,-0.0053 -9.95771,-1.397 -14.40252,-3.61941l-0.32263,-0.28226c0,0 -0.3934,-0.3934 0,-0.7868z" fill="#a9ccdf" stroke-width="0.5"/><path d="M248.02257,157.74386c-1.0911,0.21822 -1.30933,-0.87288 -1.30933,-0.87288l-0.16138,-0.82202c-0.08133,-0.71123 -0.38267,-1.37972 -0.56331,-2.07242c-0.39625,-1.51948 -0.18515,-3.15686 -0.46614,-4.69272c-0.10448,-0.5711 -0.37078,-1.10707 -0.45291,-1.6818c-0.44397,-3.1067 -0.49521,-6.31854 -1.45151,-9.34017c-0.73598,-2.32548 -2.07942,-4.32554 -2.93834,-6.58826c0,0 -0.3907,-1.04187 0.65116,-1.43257c1.04187,-0.3907 1.43258,0.65116 1.43258,0.65116c0.8567,2.3183 2.24468,4.37985 2.99612,6.7643c0.98473,3.12472 1.05722,6.4394 1.51573,9.65014c0.07735,0.54166 0.33996,1.04373 0.43726,1.58216c0.26386,1.46007 0.03186,3.07218 0.42403,4.50571c0.21627,0.79056 0.51536,1.56601 0.62359,2.37844l0.13535,0.6616c0,0 0.21822,1.09111 -0.87288,1.30933z" fill="#c5d8e2" stroke-width="0.5"/><path d="M220.30331,137.13183c-1.09477,-0.19905 -0.89572,-1.29381 -0.89572,-1.29381l0.2053,-1.09411c0.5565,-1.8849 0.87481,-3.82789 1.32172,-5.73575c0.16532,-0.70573 0.06397,-1.50036 0.41498,-2.13453c0.44252,-0.7995 0.97333,-1.84624 1.87395,-2.0009c0.50941,-0.08747 2.40821,1.60827 3.03906,2.09888c1.30271,1.01311 2.77553,1.82352 3.87874,3.06821c0.53169,0.59987 1.02177,1.22843 1.50548,1.85988l0.06475,-0.42217c0.46918,-1.75883 0.97875,-3.57015 1.21834,-5.37878c0.13643,-1.02983 -0.02445,-1.62334 0.37721,-2.6061c0.31663,-0.77472 0.3586,-1.93927 1.14095,-2.23656c0.64742,-0.24603 2.20647,1.38348 2.70171,1.90373c1.05221,1.10534 1.77746,2.27692 2.6737,3.49187c0.94549,1.28172 1.7397,2.02912 2.36397,3.54209c0,0 0.41325,1.03313 -0.61988,1.44638c-1.03313,0.41325 -1.44638,-0.61988 -1.44638,-0.61988c-0.69629,-1.81545 -2.33402,-3.70104 -3.57395,-5.23656c-0.33241,-0.41165 -0.81349,-0.71876 -1.20727,-1.08057c-0.05671,0.18637 -0.11155,0.32908 -0.11723,0.36942c-0.3338,2.37081 -0.74076,4.65213 -1.36088,6.97839l-0.06264,0.49377c0,0 -0.12313,0.86192 -0.91399,0.95198c0.44032,0.54594 0.89902,1.07704 1.40042,1.57552c0,0 0.78681,0.78681 0,1.57361c-0.78681,0.7868 -1.57362,0 -1.57362,0c-1.57271,-1.58087 -2.75609,-3.43439 -4.22329,-5.11556c-0.99559,-1.14078 -2.41209,-1.8839 -3.5987,-2.80691c-0.34241,-0.26635 -0.72431,-0.49521 -1.00734,-0.82396c-0.19804,-0.23003 -0.11365,-0.72888 -0.40445,-0.81588c-0.21554,-0.06448 -0.04983,0.44732 -0.08442,0.66962c-0.09262,0.59511 -0.16654,1.19428 -0.29716,1.78222c-0.43161,1.94282 -0.78717,3.92018 -1.3488,5.83648l-0.15077,0.86426c0,0 -0.19904,1.09476 -1.29381,0.89571z" fill="#c0d3dd" stroke-width="0.5"/><path d="M216.89284,164.10036c-1.0911,0.21822 -1.30933,-0.87288 -1.30933,-0.87288l-0.10086,-0.51624c-0.17941,-1.34563 -0.36296,-2.61572 -0.36583,-3.9748c0,-5.45356 -0.14028,-10.9314 1.09671,-16.27328c0.51121,-2.20768 1.19337,-4.28806 2.62649,-6.06249c0,0 0.70461,-0.86119 1.5658,-0.15658c0.86119,0.70461 0.15658,1.56581 0.15658,1.56581c-1.47348,1.77208 -1.95096,4.09022 -2.44555,6.30237c-1.06036,4.74259 -0.77459,9.79403 -0.77459,14.62418c-0.00302,1.2594 0.17988,2.43262 0.3463,3.68068l0.07717,0.37392c0,0 0.21822,1.0911 -0.87288,1.30933z" fill="#c5d8e2" stroke-width="0.5"/><path d="M216.7675,165.63255c-1.11271,0 -1.11271,-1.11272 -1.11271,-1.11272l0.00552,-0.35779c-0.03905,-0.39042 -0.07808,-0.78086 -0.11713,-1.17128c0,0 -0.11072,-1.10719 0.99647,-1.21791c1.10719,-0.11072 1.21791,0.99647 1.21791,0.99647c0.03905,0.39042 0.07809,0.78086 0.11713,1.17128l0.00553,0.57923c0,0 0,1.11272 -1.11272,1.11272z" fill="#c5d8e2" stroke-width="0.5"/><path d="M218.64154,193.97748c-1.11271,0 -1.11271,-1.11271 -1.11271,-1.11271l0.00114,-1.2217c0.26887,-2.9473 0.89281,-5.63266 0.59002,-8.62344c0,0 -0.03292,-0.32922 0.11665,-0.64656c-0.17281,-0.63702 -0.33948,-1.25758 -0.34658,-1.30765c-0.2276,-1.60389 0.05443,-3.2618 -0.22847,-4.8812c-0.22143,-1.26754 -0.66413,-2.50145 -0.8255,-3.7849c-0.1701,-1.35287 -0.39036,-2.64086 -0.58387,-3.96981c-0.20316,-1.39519 0.20192,-2.02232 -0.47996,-3.29493c0,0 -0.49763,-0.99524 0.49761,-1.49286c0.99524,-0.49762 1.49286,0.49762 1.49286,0.49762c0.22445,0.47108 0.55264,0.90558 0.67334,1.41325c0.19691,0.82819 -0.11265,1.71256 0.01797,2.55375c0.39858,2.56694 0.95574,5.13152 1.4017,7.70615c0.28476,1.64407 0.00639,3.3357 0.24004,4.95753c0.11993,0.83249 0.45211,1.62028 0.67341,2.43173l0.23064,0.80698c0,0 0.27205,0.9522 -0.59545,1.31667c-0.07708,2.14664 -0.45151,4.21187 -0.65128,6.4185l0.00114,1.12086c0,0 0,1.11271 -1.11271,1.11271z" fill="#c5d8e2" stroke-width="0.5"/><path d="M247.3062,195.57033c-1.06579,0.31974 -1.38552,-0.74606 -1.38552,-0.74606l-0.3771,-1.27479c-0.30794,-2.99504 -0.1846,-6.37785 0.45591,-9.35592c-0.00862,-0.06986 -0.00861,-0.11339 -0.00861,-0.11339v-0.23426c0.00251,-2.02715 -0.56475,-3.86179 -0.46737,-5.90681c0.08917,-1.87268 0.56717,-3.52792 0.96166,-5.34135c0.48405,-2.22519 0.61177,-4.39544 0.79796,-6.64766c0,0 0.0924,-1.10888 1.20127,-1.01647c1.10887,0.09241 1.01647,1.20127 1.01647,1.20127c-0.19729,2.34751 -0.33801,4.62012 -0.84184,6.93917c-0.3677,1.69246 -0.82919,3.21891 -0.91237,4.96589c-0.08594,1.80469 0.36513,3.45549 0.45449,5.2329c0.21183,0.39187 0.09906,0.84294 0.09906,0.84294c-0.71149,2.77107 -0.849,6.1414 -0.57363,9.00126l0.32567,1.06776c0,0 0.31974,1.06579 -0.74605,1.38552z" fill="#c5d8e2" stroke-width="0.5"/><path d="M248.18683,193.36685c0.55206,0.9661 -0.41405,1.51817 -0.41405,1.51817l-0.70432,0.39257c-0.20077,0.15057 -2.1855,1.63959 -2.19573,1.64427c-1.56488,0.71604 -3.83136,0.33519 -5.49957,0.33519c-5.5147,0 -10.79078,-0.90427 -16.26356,-1.41003c-1.86723,-0.17256 -4.65295,0.67264 -5.82542,-1.45259c-0.28301,-0.51298 0.01062,-1.17168 0.01592,-1.75752c0,0 0.11072,-1.10719 1.21791,-0.99647c1.10719,0.11072 0.99647,1.21791 0.99647,1.21791c-0.07277,0.19502 -0.27453,0.38462 -0.21834,0.58504c0.12591,0.44905 0.92076,0.1725 1.38699,0.18384c1.36892,0.0333 2.6041,0.06581 3.96069,0.24272c4.91376,0.64081 9.77512,1.16167 14.72933,1.16167c1.23406,0 3.42638,0.4411 4.57343,-0.13332c0.6767,-0.33889 1.18118,-0.94694 1.78661,-1.40105l0.93546,-0.54445c0,0 0.96611,-0.55206 1.51817,0.41405z" fill="#c5d8e2" stroke-width="0.5"/><path d="M237.90784,141.79065c0.2023,-0.23996 0.42301,-0.45142 0.70924,-0.5616c0.59435,-0.22879 1.27227,0.06116 1.90841,0.09174c0.50284,0.2869 1.09944,0.45108 1.50853,0.86073c1.65252,1.65483 1.02979,5.00615 1.02868,7.11171c-0.00033,0.62278 0.05594,2.36466 -0.24073,2.85225c-1.70782,2.80685 -5.04687,1.07836 -6.01471,-1.29399c-0.2148,-0.5265 -0.20992,-2.31657 -0.18562,-2.8929c0.0748,-1.77497 0.2605,-3.58525 0.60628,-5.3256c0,0 0.12828,-0.64142 0.67993,-0.84232z" fill="#f1f5f7" stroke-width="0.5"/><path d="M230.15079,141.20896c1.07895,0.24797 2.00579,0.93746 2.86437,1.67532c0.3513,0.42702 0.82942,0.77572 1.05392,1.28105c0.6162,1.38702 0.21107,3.80705 0.09092,5.29126c-0.05106,0.63083 0.07723,1.33897 -0.24689,1.88256c-0.38591,0.64723 -1.05757,1.12162 -1.73775,1.44597c-2.01745,0.96203 -5.11377,-0.28636 -5.91886,-2.3109c-0.1889,-0.47502 -0.04922,-1.02132 -0.06023,-1.53239c-0.02776,-1.28806 0.00362,-2.68277 0.25283,-3.95054c0.10255,-0.52172 0.25161,-0.99002 0.43729,-1.43136l0.35072,-1.68143c0.3133,-0.1611 0.60374,-0.38929 0.91856,-0.54593c0.03357,-0.05063 0.06743,-0.10154 0.10152,-0.15276c0,0 0.61722,-0.92584 1.54305,-0.30862c0.15842,0.10561 0.27165,0.22026 0.35054,0.33775z" fill="#f1f5f7" stroke-width="0.5"/><path d="M231.81841,164.87122c0,-1.11272 1.11271,-1.11271 1.11271,-1.11271c1.17128,0 3.27958,0 4.45086,0c2.79817,0.00314 5.54573,-0.54308 8.32249,-0.81438c1.61743,-0.15803 3.70108,-0.44576 4.91784,-1.64154c0.75334,-0.74036 0.35839,-1.73148 0.40645,-2.69458c0.06467,-1.29614 0.11315,-1.94132 -0.39031,-3.16228c0,0 -0.00042,-0.00105 -0.00119,-0.00308c-3.09449,-0.38628 -6.21298,-0.26796 -9.28481,-0.96481c-1.49016,-0.33804 -3.10677,-0.73539 -4.26663,-1.79947c-1.02204,-0.93765 -1.67795,-2.39995 -2.23947,-3.62747c0,0 -0.46044,-1.01298 0.55254,-1.47343c1.01297,-0.46044 1.47342,0.55254 1.47342,0.55254c0.44045,0.97604 0.94672,2.16801 1.74287,2.93169c0.80288,0.77014 2.19133,1.00939 3.22955,1.24585c3.26396,0.74338 6.59081,0.53449 9.87892,1.03952l0.73474,0.43009c0,0 0.46609,0.4661 0.32206,1.03955c0.32334,0.85922 0.5798,1.76626 0.58947,2.68046c0.00969,0.91574 0.11288,3.00318 -0.16486,3.83127c-0.72252,2.15427 -2.84411,2.84984 -4.77804,3.334c-3.47974,0.87115 -7.44501,1.31778 -11.04503,1.32148c-1.17128,0 -2.34255,0 -3.51383,0h-0.93703c0,0 -1.11271,0 -1.11271,-1.11272z" fill="#a1b9c7" stroke-width="0.5"/><path d="M245.68095,153.91567c-0.01502,-0.09562 -0.01937,-0.2016 -0.01034,-0.31907c0.08534,-1.10944 1.19478,-1.0241 1.19478,-1.0241c1.52224,0.11811 3.07189,0.20832 4.58625,0.35362c0.58314,0.05595 1.26107,-0.06626 1.73541,0.27752c1.63152,1.18249 1.63573,5.08897 -0.01763,6.22022c-0.49668,0.33983 -1.17229,0.28818 -1.77061,0.35295c-2.18975,0.23703 -3.93107,-0.81167 -5.03546,-2.66831c-0.43588,-0.73278 -1.20496,-2.19292 -0.68239,-3.19283z" fill="#131415" stroke-width="0.5"/><path d="M232.91644,145.43079c0.74822,1.02878 0.48406,3.94051 -1.11617,3.5437c-1.21147,-0.3004 -0.97521,-1.4185 -0.56211,-2.40396c-0.116,-0.36134 -0.10905,-0.74576 0.24888,-1.07859c0.14236,-0.13238 0.27714,-0.22991 0.40408,-0.29676c0.0863,-0.13389 0.30525,-0.37793 0.6873,-0.21419c0.25698,0.11013 0.32948,0.29406 0.33801,0.4498z" fill="#2a2e30" stroke-width="0.5"/><path d="M240.90701,144.51947c0.52781,-0.17594 0.70374,0.35187 0.70374,0.35187l0.1928,0.58696c0.12225,0.95115 0.8041,3.27273 -0.8345,3.43525c-0.02195,0.00217 -0.0436,0.0037 -0.06498,0.0046c-0.17023,0.19912 -0.40285,0.31113 -0.71997,0.25752c-0.38635,-0.06531 -0.51036,-0.61944 -0.62952,-0.9927c-0.31073,-0.97342 0.31488,-2.24631 1.00277,-2.838c0,0 0.0092,-0.00736 0.02599,-0.0186l-0.02822,-0.08316c0,0 -0.17593,-0.52781 0.35187,-0.70374z" fill="#2a2e30" stroke-width="0.5"/><path d="M218.20086,171.51411c0,0.55635 -0.55636,0.55636 -0.55636,0.55636l-0.0633,-0.00164c-1.4002,0.1069 -2.73958,0.07648 -4.09959,-0.29635c-0.52443,-0.2418 -0.91524,-0.3392 -1.27185,-0.83758c-0.75099,-1.04958 -0.84688,-3.29414 -0.79059,-4.53269c0.00978,-0.21525 0.11731,-1.31115 0.18364,-1.42497c0.782,-1.34185 3.00887,-1.60835 4.34351,-1.48828c0,0 0.55407,0.05037 0.5037,0.60445c-0.05037,0.55408 -0.60444,0.5037 -0.60444,0.5037c-0.92251,-0.08481 -2.72467,0.01647 -3.28652,0.94909c-0.14254,0.2366 -0.02732,1.17987 -0.02774,1.46407c-0.00182,1.24349 0.09192,3.16565 1.32812,3.71561c1.20011,0.32513 2.40313,0.32914 3.63642,0.23351l0.14865,-0.00163c0,0 0.55636,0 0.55636,0.55635z" fill="#b0c1ca" stroke-width="0.5"/><path d="M214.00958,192.17012c-0.3107,0.43213 -0.6947,0.75622 -1.12039,0.86067c-0.76185,0.18695 -1.25733,-0.07909 -1.55891,-0.55463c-0.11093,-0.11988 -0.21753,-0.26577 -0.31813,-0.44022c-0.16399,-0.28438 -0.27155,-0.60398 -0.3351,-0.92603c-0.09078,-0.45997 0.02348,-1.06893 0.08383,-1.52711c0.1752,-0.42923 0.45468,-1.23345 0.80518,-1.54842c0.00063,-0.00057 0.00128,-0.00114 0.00191,-0.00171c0.09093,-1.77778 0.49778,-3.55413 0.4748,-5.34134c0.09999,-3.91915 -0.27417,-7.85659 -0.18034,-11.78114c0,0 0.01377,-0.55619 0.56995,-0.54242c0.55619,0.01377 0.54242,0.56995 0.54242,0.56995c-0.10053,3.9171 0.27465,7.84801 0.18066,11.76017c0.02148,1.64171 -0.33677,3.28482 -0.45803,4.92123c0.2132,0.00672 0.42671,0.0524 0.63209,0.1295c0.1318,-1.23646 0.22746,-2.48172 0.31328,-3.69939c0.29066,-2.55056 0.28278,-5.21444 0.09895,-7.7775c-0.1138,-1.58658 -0.55875,-3.4018 -0.23934,-4.96414c0,0 0.1171,-0.54389 0.661,-0.42678c0.5439,0.11711 0.4268,0.66098 0.4268,0.66098c-0.32547,1.41473 0.15669,3.19537 0.26104,4.64539c0.18881,2.62354 0.1979,5.35348 -0.10044,7.96417c-0.10012,1.42851 -0.21756,2.89132 -0.38696,4.33578c0.08889,0.10547 0.16839,0.21743 0.23647,0.33408c0.01232,0.0211 0.02405,0.04277 0.03522,0.06502c-0.1859,1.02797 -0.30748,2.17508 -0.41151,3.20624c-0.07182,0.02514 -0.14331,0.05101 -0.21449,0.07767zM212.33613,191.74919c-0.02611,-0.02137 -0.0517,-0.04377 -0.07673,-0.06711c-0.01002,-0.00223 -0.02004,-0.00463 -0.0301,-0.00723c0.0229,0.03107 0.05091,0.05654 0.08461,0.07543c0.00738,-0.00012 0.01478,-0.00048 0.0222,-0.00108z" fill="#b0c1ca" stroke-width="0.5"/><path d="M221.30936,200.96422c-0.0283,0.24653 0.0535,0.54487 -0.10324,0.73726c-0.03426,0.04206 -0.0712,0.08121 -0.11029,0.11796l0.02537,0.02115l-0.36152,0.43355c-0.11489,0.14193 -0.29721,0.22445 -0.49227,0.20349c-0.30551,-0.03284 -0.52655,-0.30711 -0.49372,-0.61262l0.06399,-0.59545c-0.04107,-0.62106 -0.23835,-0.98776 -0.63023,-1.32896c-0.36239,0.39551 -0.92624,0.66996 -1.48862,0.7556c-0.07961,0.74891 0.15874,1.32949 0.45251,1.96671l0.05518,-0.05009l0.42698,0.47035c0.10422,0.11374 0.16089,0.27003 0.14311,0.43546c-0.03283,0.30551 -0.3071,0.52657 -0.61262,0.49374c-0.09292,-0.00999 -0.17802,-0.04229 -0.25054,-0.09104l-0.47536,-0.30515c-1.52874,-0.83649 -1.41771,-1.91025 -0.99016,-3.11643c-0.23659,-0.14523 -0.42275,-0.36479 -0.52424,-0.67011c-0.09112,-0.27412 -0.09669,-0.51736 -0.03947,-0.73092c-0.05642,-0.10828 -0.11283,-0.21658 -0.16924,-0.32487c-0.67083,-1.08288 -1.48978,-2.06059 -2.15453,-3.14649c-1.14769,-1.87477 -1.8995,-4.10288 -3.1089,-5.96525c0.3686,-0.0735 0.76,-0.14801 1.15605,-0.21631c1.06864,1.79854 1.81207,3.8331 2.8995,5.59677c0.67505,1.09484 1.49723,2.08416 2.1741,3.17953c0.13599,-0.07083 0.28099,-0.13015 0.42883,-0.17827c-0.34485,-1.02534 -1.21404,-1.933 -1.75331,-2.87901c-1.11129,-1.94943 -2.1155,-3.95907 -3.43768,-5.77122c0.4212,-0.06845 0.84232,-0.12776 1.24172,-0.16935c1.1807,1.71674 2.12747,3.57638 3.16299,5.39013c0.62213,1.08968 1.4451,2.02943 1.84561,3.20961c0.60446,-0.02027 1.16437,0.19698 1.34978,0.7581c1.2636,0.23521 1.95015,0.81455 1.77017,2.38208z" fill="#b0c1ca" stroke-width="0.5"/><path d="M268.12562,189.27978c0.12547,0.6002 0.93348,1.05591 1.13784,1.63867c0.34842,0.9935 -0.7481,0.79574 -1.29993,0.58822c-0.9158,-0.34439 -2.22887,-2.94441 -1.34665,-3.3903c-0.02356,-0.06151 -0.04288,-0.12803 -0.05752,-0.19968l-0.0589,-0.10262c-0.78536,-1.40054 -2.27998,-2.45476 -3.3133,-3.67191c-1.33954,-1.57784 -2.60161,-2.98513 -4.15543,-4.38345c0.90336,-0.19941 1.47878,-0.88584 2.44581,-1.23235c0.70203,0.76954 1.59338,1.34192 2.29662,2.13657c1.54569,1.74662 3.05979,3.36445 4.3079,5.34303c0.38465,-0.15598 0.72977,-0.17462 0.87947,0.07014c0.20122,-0.01666 0.40526,-0.00554 0.59403,0.03875c0.54067,0.12685 3.42079,1.76954 1.5057,2.1564c-0.03754,0.00759 -0.07697,0.00868 -0.11488,0.0032c-0.62842,-0.09094 -1.16778,-0.32921 -1.6963,-0.50147c-0.01694,0.02975 -0.0369,0.05904 -0.06024,0.08778c-0.3153,0.38827 -0.73955,0.66386 -1.15666,0.78823c0.02978,0.21615 0.05147,0.43472 0.09246,0.6308zM262.05798,180.47496c-0.52606,-0.47747 -1.03115,-0.82515 -1.48618,-1.31c-0.08316,0.09136 -0.17947,0.17047 -0.28498,0.2368c1.35848,1.27761 2.5176,2.58704 3.7432,4.014c0.94133,1.09599 2.16985,2.06635 3.03937,3.24567c0.02339,-0.02124 0.0473,-0.04236 0.07164,-0.06331c-1.38259,-2.22036 -3.15121,-4.36975 -5.08305,-6.12314z" fill="#b0c1ca" stroke-width="0.5"/><path d="M260.21413,180.0744c-0.03284,0.03229 -0.06533,0.05998 -0.09687,0.08239c-0.54381,0.38635 -1.51172,0.2558 -1.9732,-0.19512c-0.43203,-0.42216 -0.58449,-0.8755 -0.54686,-1.31368c-0.41373,-0.38917 -0.81921,-0.73868 -1.19174,-1.20078c-2.56267,-2.55724 -4.37871,-6.07159 -7.35637,-8.14213c0,0 -0.45579,-0.31905 -0.13674,-0.77483c0.31905,-0.45578 0.77483,-0.13673 0.77483,-0.13673c3.05267,2.14933 4.91814,5.67704 7.54738,8.31161c0.26246,0.33084 0.54388,0.59638 0.83362,0.86403c0.12283,-0.15391 0.26439,-0.29854 0.41857,-0.43077c-0.54318,-0.47447 -0.96101,-1.00878 -1.44887,-1.56707c-1.22398,-1.75543 -2.65368,-3.39656 -3.89216,-5.15003c-0.80673,-1.14219 -1.76542,-3.13367 -3.10933,-3.68663c0,0 -0.50841,-0.22595 -0.28245,-0.73436c0.22596,-0.50841 0.73436,-0.28244 0.73436,-0.28244c1.58562,0.74001 2.59099,2.67893 3.56755,4.06331c1.22649,1.73868 2.63821,3.36799 3.85779,5.10375c0.51717,0.59026 0.93147,1.15418 1.56515,1.62696l0.01582,0.01529c0.2875,-0.11371 0.57664,-0.18004 0.84267,-0.18617c0,0 0.14566,0.00001 0.28791,0.07453c0.25732,1.20825 1.06057,1.98735 0.52837,3.32358c-0.26023,0.201 -0.60518,0.33197 -0.93946,0.33533z" fill="#b0c1ca" stroke-width="0.5"/><path d="M221.4702,216.7052c0,-0.12291 0.09963,-0.22254 0.22254,-0.22254c0.12291,0 0.22254,0.09964 0.22254,0.22254c0,0.12291 -0.09964,0.22254 -0.22254,0.22254c-0.12291,0 -0.22254,-0.09964 -0.22254,-0.22254z" fill="#6b767b" stroke-width="0.5"/><g><path d="M242.95207,218.96244c-0.15736,-0.15736 0,-0.31473 0,-0.31473l0.20776,-0.1549c1.2413,-0.24293 2.63513,-0.00903 3.88786,-0.00145c0.41998,0.13619 1.04475,0.1899 1.38293,0.47758c0.05994,0.051 0.13331,0.14111 0.20532,0.24417c-0.10002,-0.42907 -0.18344,-1.00193 -0.24331,-1.40936l-0.09967,-0.13288c-0.02876,-0.0375 -0.04586,-0.08442 -0.04586,-0.13532c0,-0.12291 0.09964,-0.22255 0.22254,-0.22255c0.06145,0 0.11709,0.02492 0.15736,0.06519l0.2351,0.2351c0.18649,0.18685 0.32298,0.49767 0.38483,0.66245c-0.12261,-0.48868 0.18398,-1.09778 -0.11562,-1.5564c-0.05012,-0.06774 -0.12462,-0.12299 -0.15038,-0.20323c-0.3739,-1.16413 0.6359,-0.38305 0.98782,-0.07399c-0.0597,-0.13416 -0.10968,-0.33429 -0.11219,-0.34272c-0.07335,-0.24607 -0.15275,-0.51769 -0.35572,-0.69837c-0.33692,-0.29991 -1.47844,-0.56262 -1.89948,-0.55922c-1.66703,-0.32764 -3.49772,0.07734 -5.1173,-0.38364c0,0 -0.21398,-0.06114 -0.15285,-0.27511c0.06113,-0.21398 0.27512,-0.15285 0.27512,-0.15285c1.58954,0.45601 3.3994,0.03342 5.03889,0.36868c1.11975,0.00806 2.86433,0.71941 2.7856,2.08031c-0.05345,0.92396 -0.60789,0.42507 -0.89321,0.08014c0.15528,0.44822 0.45439,2.09668 0.0761,2.25132c-0.15165,0.06199 -0.31023,-0.01883 -0.46064,-0.15496c0.15801,0.58647 0.23002,1.25446 0.0529,1.41893c-0.12436,0.11548 -0.33504,0.1594 -0.49723,0.10944c-0.24555,-0.07563 -0.37384,-0.69914 -0.57623,-0.8846c-0.24708,-0.22642 -0.83506,-0.25785 -1.15613,-0.36876c-1.19759,0.00799 -2.54457,-0.24453 -3.72928,-0.00145l0.01967,0.03318c0,0 -0.15736,0.15736 -0.31472,0z" fill="#6b767b" stroke-width="0.5"/><path d="M243.06241,218.71104c0,0 -0.04702,-1.85621 -0.04702,-2.63308c0,-0.63719 0.18808,-1.73972 0.18808,-1.73972c0,0 4.83867,0.20088 6.00599,0.51638c0.49123,0.13277 0.95287,1.3644 0.95287,1.3644c0,0 -0.88606,0.87988 -0.76709,1.68093c0.11606,0.78146 -0.69051,1.18725 -0.69051,1.18725c0,0 -1.80682,-0.58751 -2.7215,-0.64849c-0.96355,-0.06423 -2.92083,0.27233 -2.92083,0.27233z" fill="#606a6e" stroke-width="0"/><path d="M243.08161,215.37962c-0.05397,-0.2159 0.16192,-0.26988 0.16192,-0.26988l0.24205,-0.05366c0.31346,0 0.62692,0 0.94039,0c1.57422,0 2.97603,0.5908 4.51049,0.89769c0,0 0.21822,0.04364 0.17457,0.26187c-0.04364,0.21822 -0.26187,0.17458 -0.26187,0.17458c-1.50517,-0.30104 -2.88215,-0.88905 -4.4232,-0.88905c-0.31346,0 -0.62692,0 -0.94039,0l-0.1341,0.04038c0,0 -0.2159,0.05398 -0.26987,-0.16192z" fill="#303537" stroke-width="0.5"/><path d="M242.74583,216.97132c0,-0.22254 0.22254,-0.22254 0.22254,-0.22254l0.05039,0.00432c0.32175,-0.06435 0.62092,-0.17001 0.94039,-0.2351c1.37661,-0.2694 3.48508,0.0526 4.59699,0.88653c0,0 0.17803,0.13353 0.04451,0.31156c-0.13353,0.17803 -0.31156,0.04451 -0.31156,0.04451c-1.00266,-0.752 -2.99585,-1.06198 -4.24264,-0.80617c-0.31827,0.06225 -0.61935,0.17089 -0.94039,0.2351l-0.13769,0.00432c0,0 -0.22254,0 -0.22254,-0.22254z" fill="#303537" stroke-width="0.5"/></g><path d="M216.44435,196.33469c-0.17361,-0.2755 -0.17361,-0.58685 -0.17361,-0.58685v-0.48856c0.00087,-1.29442 -0.2196,-3.18255 1.18778,-3.98116c1.15463,-0.65518 3.4435,0.57776 4.64298,0.79895c4.12583,0.76081 8.22574,1.52935 12.43343,1.52935c2.83322,0 5.53193,-0.17386 8.33437,-0.56097c0.80241,-0.11084 3.09131,-0.80843 3.8124,-0.54515c2.02823,0.74054 2.01613,4.40781 0.70231,5.82024c-0.24783,0.26642 -2.0132,0.77205 -2.4575,0.90874c-2.19182,0.67428 -4.12051,0.77713 -6.40161,0.77713c-3.36271,0 -6.86554,0.28099 -10.20898,-0.08769c-3.81466,-0.42065 -7.6692,-1.53719 -11.24037,-2.91046c0,0 -0.5087,-0.19566 -0.6312,-0.67356z" fill="#606a6e" stroke-width="0.5"/><g stroke-width="0.5"><path d="M213.22098,175.54281c-0.00471,-0.22249 0.21779,-0.2272 0.21779,-0.2272c0.26718,-0.00565 0.62342,-0.01319 0.8906,-0.01884c1.79095,-0.03391 2.84437,-1.19185 3.67365,-2.64268c0,0 0.11044,-0.19321 0.30365,-0.08277c0.19321,0.11043 0.08277,0.30364 0.08277,0.30364c-0.90879,1.58997 -2.1073,2.82184 -4.05065,2.8668c-0.26718,0.00565 -0.53437,0.0113 -0.80156,0.01696l-0.08906,0.00189c0,0 -0.22249,0.00471 -0.2272,-0.21779z" fill="#3a53e0"/><path d="M218.88368,172.4497c0.21256,0.06589 0.14667,0.27846 0.14667,0.27846l-0.04791,0.15197c-0.18816,0.45227 -0.48579,0.80287 -0.82464,1.15637c-1.15343,1.20329 -2.98177,2.47692 -4.69265,2.52566c0,0 -0.22249,0.00471 -0.2272,-0.21779c-0.00471,-0.22249 0.21779,-0.2272 0.21779,-0.2272c1.57761,-0.01924 3.32238,-1.28454 4.38075,-2.38867c0.29445,-0.30718 0.57937,-0.61855 0.73324,-1.01501l0.03549,-0.11711c0,0 0.06589,-0.21257 0.27846,-0.14668z" fill="#3ae054"/><path d="M216.90773,173.40848c0.18774,0.1195 0.06823,0.30724 0.06823,0.30724l-0.18515,0.28887c-0.33297,0.32712 -0.81535,0.39164 -1.25984,0.23116c-0.20598,-0.07437 -0.40583,-0.47683 -0.56818,-0.32985c-0.13805,0.12499 0.15394,0.608 0.10114,0.77142c-0.22322,0.69085 -0.88501,0.33261 -1.3182,0.44896c0,0 -0.21725,0.04826 -0.2655,-0.16899c-0.04825,-0.21725 0.16899,-0.26551 0.16899,-0.26551c0.18363,-0.03576 0.90451,0.1732 0.98609,-0.1344c0.09869,-0.37214 -0.44754,-0.61941 0.06346,-1.00979c0.54113,-0.41342 1.24513,0.77251 1.74195,0.18217l0.15978,-0.25303c0,0 0.1195,-0.18774 0.30724,-0.06824z" fill="#e03a3a"/></g><g><path d="M214.4781,220.7475c-0.15736,-0.15736 0,-0.31473 0,-0.31473l0.20776,-0.1549c1.2413,-0.24293 2.63513,-0.00903 3.88786,-0.00145c0.41998,0.13619 1.04475,0.1899 1.38293,0.47758c0.05994,0.051 0.13331,0.14111 0.20532,0.24417c-0.10002,-0.42907 -0.18344,-1.00193 -0.24331,-1.40936l-0.09967,-0.13288c-0.02876,-0.0375 -0.04586,-0.08442 -0.04586,-0.13532c0,-0.12291 0.09964,-0.22255 0.22254,-0.22255c0.06145,0 0.11709,0.02492 0.15736,0.06519l0.2351,0.2351c0.18649,0.18685 0.32298,0.49767 0.38483,0.66245c-0.12261,-0.48868 0.18398,-1.09778 -0.11562,-1.5564c-0.05012,-0.06774 -0.12462,-0.12299 -0.15038,-0.20323c-0.3739,-1.16413 0.6359,-0.38305 0.98782,-0.07399c-0.0597,-0.13416 -0.10968,-0.33429 -0.11219,-0.34272c-0.07335,-0.24607 -0.15275,-0.51769 -0.35572,-0.69837c-0.33692,-0.29991 -1.47844,-0.56262 -1.89948,-0.55922c-1.66703,-0.32764 -3.49772,0.07734 -5.1173,-0.38364c0,0 -0.21398,-0.06114 -0.15285,-0.27511c0.06113,-0.21398 0.27512,-0.15285 0.27512,-0.15285c1.58954,0.45601 3.3994,0.03342 5.03889,0.36868c1.11975,0.00806 2.86433,0.71941 2.7856,2.08031c-0.05345,0.92396 -0.60789,0.42507 -0.89321,0.08014c0.15528,0.44822 0.45439,2.09668 0.0761,2.25132c-0.15165,0.06199 -0.31023,-0.01883 -0.46064,-0.15496c0.15801,0.58647 0.23002,1.25446 0.0529,1.41893c-0.12436,0.11548 -0.33504,0.1594 -0.49723,0.10944c-0.24555,-0.07563 -0.37384,-0.69914 -0.57623,-0.8846c-0.24708,-0.22642 -0.83506,-0.25785 -1.15613,-0.36876c-1.19759,0.00799 -2.54457,-0.24453 -3.72928,-0.00145l0.01967,0.03318c0,0 -0.15736,0.15736 -0.31472,0z" fill="#6b767b" stroke-width="0.5"/><path d="M214.58844,220.4961c0,0 -0.04702,-1.85621 -0.04702,-2.63308c0,-0.63719 0.18808,-1.73972 0.18808,-1.73972c0,0 4.83867,0.20088 6.00599,0.51638c0.49123,0.13277 0.95287,1.3644 0.95287,1.3644c0,0 -0.88606,0.87988 -0.76709,1.68093c0.11606,0.78146 -0.69051,1.18725 -0.69051,1.18725c0,0 -1.80682,-0.58751 -2.7215,-0.64849c-0.96355,-0.06423 -2.92083,0.27233 -2.92083,0.27233z" fill="#606a6e" stroke-width="0"/><path d="M214.60764,217.16468c-0.05397,-0.2159 0.16192,-0.26988 0.16192,-0.26988l0.24205,-0.05366c0.31346,0 0.62692,0 0.94039,0c1.57422,0 2.97603,0.5908 4.51049,0.89769c0,0 0.21822,0.04364 0.17457,0.26187c-0.04364,0.21822 -0.26187,0.17458 -0.26187,0.17458c-1.50517,-0.30104 -2.88215,-0.88905 -4.4232,-0.88905c-0.31346,0 -0.62692,0 -0.94039,0l-0.1341,0.04038c0,0 -0.2159,0.05398 -0.26987,-0.16192z" fill="#303537" stroke-width="0.5"/><path d="M214.27186,218.75638c0,-0.22254 0.22254,-0.22254 0.22254,-0.22254l0.05039,0.00432c0.32175,-0.06435 0.62092,-0.17001 0.94039,-0.2351c1.37661,-0.2694 3.48508,0.0526 4.59699,0.88653c0,0 0.17803,0.13353 0.04451,0.31156c-0.13353,0.17803 -0.31156,0.04451 -0.31156,0.04451c-1.00266,-0.752 -2.99585,-1.06198 -4.24264,-0.80617c-0.31827,0.06225 -0.61935,0.17089 -0.94039,0.2351l-0.13769,0.00432c0,0 -0.22254,0 -0.22254,-0.22254z" fill="#303537" stroke-width="0.5"/></g></g></g></g></svg>