<svg version="1.1" xmlns="http://www.w3.org/2000/svg" xmlns:xlink="http://www.w3.org/1999/xlink" width="76.27121" height="112.34077" viewBox="0,0,76.27121,112.34077"><g transform="translate(-280.93947,-124.63555)"><g data-paper-data="{&quot;isPaintingLayer&quot;:true}" fill-rule="nonzero" stroke-linecap="butt" stroke-linejoin="miter" stroke-miterlimit="10" stroke-dasharray="" stroke-dashoffset="0" style="mix-blend-mode: normal"><path d="M298.20213,197.13373c-2.52133,0.32009 -6.03893,1.15977 -8.33132,2.30627c-1.82194,0.91122 -9.72921,4.65335 -8.86568,0.3357c0.24405,-1.22027 4.26851,-2.44851 5.17494,-2.72892c5.35508,-1.65667 10.53507,-3.7529 16.21459,-4.09246c2.5844,-0.15451 6.47953,-2.03184 7.76404,0.21605c0.5158,0.30441 0.86182,0.86589 0.86182,1.50818c0,0.9665 -0.7835,1.75 -1.75,1.75c-0.03394,0 -0.06766,-0.00097 -0.10112,-0.00287c-2.86022,1.43171 -7.43443,0.25955 -10.96727,0.70805z" fill="#e3a500" stroke="none" stroke-width="0.5"/><path d="M304.86317,194.85176c0,0 -1.78802,-21.4399 -2.49064,-32.44801c1.29725,0.86339 2.7477,1.93135 4.19077,1.8985c1.86102,0.93051 5.20728,1.36792 7.29781,1.32687c1.88999,0.94499 5.06894,0.91274 7.22256,0.9355c2.80698,-0.05511 5.87643,0.27043 8.77799,0.26452c1.3559,-0.2237 2.65723,-0.51758 3.94858,-0.84312c0.00409,0.32979 0.00428,0.66438 -0.00009,1.00359c-0.05526,4.28593 -0.94731,9.08451 -1.15863,13.52263c-0.39713,8.34034 -0.19302,15.40772 -0.19302,15.40772z" fill="#e3a500" stroke="none" stroke-width="0"/><g stroke="none" stroke-width="0.5"><path d="M308.19466,211.40015c-1.23426,1.59644 -2.70573,3.17255 -4.17301,4.58272c-0.11434,0.10989 -0.22832,0.22004 -0.34197,0.3304c-0.22111,-0.22685 -0.44144,-0.45427 -0.66072,-0.68243c-1.07235,-1.11579 -2.1447,-2.23157 -3.21704,-3.34735c0.06812,-0.06473 0.13604,-0.12951 0.20377,-0.19433c1.41674,-1.74878 3.42064,-3.05406 4.79103,-4.82445c0.75751,-0.97862 1.36965,-2.13558 2.14956,-3.10939c0.82206,1.32135 2.33249,2.34193 3.36412,3.41535c0.1958,0.20373 0.39375,0.40283 0.60152,0.5897c-0.7645,1.19099 -1.84512,2.11176 -2.71724,3.23979z" fill="#b0c1ca"/><path d="M304.78262,207.17692c0.71857,-0.90041 1.72701,-1.66798 2.55951,-2.46672c0.22851,0.28474 0.48435,0.55636 0.75344,0.81911c-0.79011,0.75471 -1.77097,1.48468 -2.44226,2.34043c-1.52611,1.94548 -2.79555,3.97358 -4.60316,5.71253c-0.25688,-0.26729 -0.51377,-0.53457 -0.77065,-0.80186c1.76515,-1.71125 2.98997,-3.70748 4.5031,-5.60349z" fill="#c7d7e0"/><path d="M305.21784,207.96594c0.69703,-0.80523 1.97757,-1.31777 2.30708,-2.35263c0,0 0.08818,-0.24801 0.31381,-0.3422c0.23449,0.24345 0.48356,0.47851 0.73679,0.70833c-0.00137,0.00434 -0.00219,0.00663 -0.00219,0.00663c-0.48023,1.2651 -1.65388,1.7369 -2.51554,2.70967c-1.57496,1.77802 -2.56418,3.96409 -4.23004,5.69571c-0.25688,-0.26728 -0.51376,-0.53457 -0.77064,-0.80186c1.63854,-1.699 2.63121,-3.85678 4.16071,-5.62363z" fill="#cdd0e0"/></g><g stroke="none" stroke-width="0.5"><path d="M329.96925,208.19527c1.65072,1.08805 3.28376,2.25788 4.86973,3.47071c-1.3008,0.8436 -2.48314,1.85461 -3.58183,2.97453c-2.6077,-2.15682 -5.16607,-4.34819 -8.10451,-5.9865c1.1564,-0.8933 2.13559,-1.6537 3.10518,-2.67026c1.12849,0.90535 2.4745,1.39622 3.71143,2.21152z" fill="#b0c1ca"/><path d="M323.8188,208.3592c0,0 -0.0679,-0.03965 -0.13774,-0.11467c0.31295,-0.24388 0.61378,-0.48197 0.9063,-0.7231c2.82065,1.70018 5.13013,4.16188 7.82983,6.00877c-0.27927,0.24999 -0.553,0.50744 -0.82169,0.77156c-2.65127,-1.87851 -4.95211,-4.29306 -7.77671,-5.94256z" fill="#c7d7e0"/><path d="M326.48571,208.29262c0.35036,-0.43218 0.78253,-0.08182 0.78253,-0.08182l0.19948,0.16172c0.66143,0.5362 1.24408,1.02961 1.76034,1.71292c0,0 0.3343,0.44472 -0.11041,0.77902c-0.44472,0.3343 -0.77902,-0.11041 -0.77902,-0.11041c-0.45753,-0.61219 -0.9807,-1.0381 -1.57163,-1.51716l-0.19948,-0.16172c0,0 -0.43217,-0.35036 -0.08181,-0.78254z" fill="#cdd0e0"/></g><path d="M332.86839,195.78717c0.05703,0.19959 0.0183,0.34599 -0.05266,0.45111l-0.03104,0.16689c0,1.00428 0,2.00856 0,3.01284c0,0.72347 0.03643,1.34894 -0.19197,2.05046c-0.46724,1.43508 -1.36648,2.25274 -2.49516,2.68755v0.14767c0,1.88327 0.49504,4.62498 -1.90119,5.0335c-0.46833,0.00107 -0.92542,-0.0222 -1.3775,-0.05732c-0.00553,0.05522 -0.01027,0.11027 -0.01424,0.16516c-1.45507,-0.10772 -2.69168,-0.3927 -4.20326,-0.78708c0,0 -0.21337,-0.05334 -0.28988,0.14017c-0.4022,-0.11575 -0.77605,-0.30044 -1.06794,-0.60545c-1.17175,-1.22439 -1.11708,-2.99635 -1.28606,-4.57128c-1.7658,-0.32363 -3.59285,-0.35032 -5.42555,-0.33968c0.02344,0.12856 0.00208,0.23537 0.00208,0.23537l-0.07403,0.35947c-0.22076,1.94277 -0.4986,3.60234 -2.50322,3.87566c0.01347,0.03934 0.02651,0.07872 0.03913,0.11814c-0.23454,0.01296 -0.47043,0.01479 -0.70573,0.01479c-1.46046,0 -3.34103,0.43575 -4.84535,0.04331c-0.00333,-0.04927 -0.00615,-0.09852 -0.00845,-0.14775c-0.36151,-0.06865 -0.70351,-0.16721 -1.01362,-0.30557c-0.03557,-0.02435 -0.07069,-0.04958 -0.10535,-0.07573c0,0 -0.06787,-0.0509 -0.15419,-0.05387c-0.38434,-0.21429 -0.70671,-0.50311 -0.93849,-0.88931c-0.78747,-1.31211 -0.48896,-3.16189 -0.48266,-4.63054c-1.63022,-1.63705 -1.41826,-5.0258 -1.1343,-7.04633c0,0 0.06413,-0.44892 0.48189,-0.47827c0.28606,-0.16467 0.58616,0.04969 0.58616,0.04969c2.1287,1.5205 5.04326,1.38896 7.57377,1.74952c1.28314,0.18283 2.59522,0.49586 3.89414,0.4909c4.9269,0 9.90589,0.21333 14.7507,-0.41803c0.61664,-0.13691 1.12832,-0.30473 1.69297,-0.58872l0.3697,-0.11181c0.09647,-0.08326 0.23807,-0.13918 0.44413,-0.10484c0.16286,0.02714 0.26933,0.09457 0.33854,0.17597c0.05311,0.05852 0.09835,0.13747 0.12861,0.24339z" fill="#b0c1ca" stroke="none" stroke-width="0.5"/><path d="M307.72734,207.97517c0.1635,0 0.27894,0.04805 0.36047,0.1159c-0.23622,0.0037 -0.47035,-0.00055 -0.70014,-0.01631c0.08003,-0.05911 0.18961,-0.09959 0.33967,-0.09959z" fill="#c7d7e0" stroke="none" stroke-width="0.5"/><path d="M323.87249,208.90613c0.26176,-0.04027 0.41808,0.06323 0.51004,0.18275c-0.21439,-0.04568 -0.43049,-0.09474 -0.6502,-0.14691c0.0414,-0.01557 0.08792,-0.0278 0.14016,-0.03584z" fill="#c7d7e0" stroke="none" stroke-width="0.5"/><path d="M304.88507,201.97492c0.27223,0.27223 0.1677,0.54447 0.07748,0.68634c-0.29094,1.7369 0.12009,2.98039 1.87637,3.60116c0,0 0.52286,0.19013 0.33273,0.71299c-0.19013,0.52286 -0.71299,0.33274 -0.71299,0.33274c-2.30751,-0.85762 -2.98383,-2.64049 -2.56574,-4.98798l0.20534,-0.34524c0,0 0.39341,-0.39341 0.78681,0z" fill="#c7d7e0" stroke="none" stroke-width="0.5"/><path d="M303.6699,195.28926c0.55635,0 0.55636,0.55635 0.55636,0.55635v0.20544c0,1.58566 0.35411,2.64881 0.89098,4.1241c0,0 0.19012,0.52286 -0.33273,0.71299c-0.52286,0.19013 -0.71299,-0.33274 -0.71299,-0.33274c-0.57556,-1.58401 -0.95798,-2.79844 -0.95798,-4.50437v-0.20544c0,0 0,-0.55635 0.55635,-0.55635z" fill="#c7d7e0" stroke="none" stroke-width="0.5"/><path d="M305.61824,200.79269c-0.4274,0.35617 -0.78358,-0.07124 -0.78358,-0.07124l-0.34295,-0.45034c-0.6492,-1.5633 -0.96626,-2.5944 -0.81091,-4.32179c0,0 0.05036,-0.55408 0.60444,-0.5037c0.55407,0.05037 0.5037,0.60444 0.5037,0.60444c-0.14587,1.58593 0.13265,2.36412 0.72988,3.79309l0.17065,0.16598c0,0 0.35617,0.4274 -0.07124,0.78357z" fill="#cdd0e0" stroke="none" stroke-width="0.5"/><path d="M307.63417,206.15568c-0.29487,0.47179 -0.76666,0.17692 -0.76666,0.17692l-0.30615,-0.20573c-1.72415,-0.63459 -1.71658,-1.62002 -1.85374,-3.2501c0,0 -0.0462,-0.55444 0.50823,-0.60064c0.55443,-0.0462 0.60063,0.50823 0.60063,0.50823c0.10024,1.2139 -0.12355,1.84929 1.12514,2.29679l0.51561,0.30787c0,0 0.4718,0.29487 0.17692,0.76666z" fill="#cdd0e0" stroke="none" stroke-width="0.5"/><path d="M323.71777,208.18946c0.3934,-0.39341 0.78681,0 0.78681,0l0.09712,0.10319c0.11984,0.15408 0.23968,0.30816 0.35952,0.46224c0,0 0.1714,0.22037 0.11526,0.47031c-0.46157,-0.08246 -0.92148,-0.18213 -1.39906,-0.29636c-0.08914,-0.11605 -0.27131,-0.42772 0.04036,-0.7394z" fill="#cdd0e0" stroke="none" stroke-width="0.5"/><path d="M324.6815,209.63797c-0.21645,0.0761 -0.39525,-0.01985 -0.49948,-0.10325c0.16739,0.036 0.33361,0.07049 0.49948,0.10325z" fill="#cdd0e0" stroke="none" stroke-width="0.5"/><path d="M320.51598,202.63373c0.55635,0 0.55635,0.55636 0.55635,0.55636v0.10272c-0.00097,1.53089 0.60088,2.62614 1.36229,3.93118c0,0 0.28033,0.48056 -0.20024,0.7609c-0.48057,0.28034 -0.7609,-0.20023 -0.7609,-0.20023c-0.86185,-1.47773 -1.51283,-2.75105 -1.51387,-4.49185v-0.10272c0,0 0.00001,-0.55636 0.55636,-0.55636z" fill="#cdd0e0" stroke="none" stroke-width="0.5"/><g stroke="none" stroke-width="0.5"><path d="M297.41326,224.97487c-0.37219,0.46696 -0.74438,0.93392 -1.11658,1.40087l0.07132,-0.05307c0,0 -0.03919,0.18452 -0.17938,0.31585l0.07602,0.06059c0.76849,0.61253 2.94069,1.82192 3.03716,2.89534c0.01941,0.216 -0.71151,1.09043 -0.88259,1.30365c-1.62969,2.03114 -3.07957,0.59997 -4.80778,-0.41505c-1.51249,-1.19986 -2.80116,-2.46622 -4.18863,-3.75509c-0.48083,-0.44666 -1.24635,-1.24094 -1.28538,-1.96002c-0.09698,-1.78701 1.86222,-2.21905 3.14193,-1.64076l0.18643,-0.17573c0.43178,-0.42163 0.87012,-0.83585 1.30545,-1.25378c2.02993,-3.50833 4.93591,-6.66523 7.522,-9.83603c1.21128,0.96546 2.42255,1.93091 3.63383,2.89637c0.24849,0.19806 0.4979,0.39522 0.74803,0.59172c-2.48569,3.18521 -4.7538,6.47852 -7.26184,9.62514z" fill="#b0c1ca"/><path d="M292.36793,223.72738c-0.43506,-0.34677 -0.0883,-0.78183 -0.0883,-0.78183c0.11738,-0.14726 0.58689,-0.73632 0.70427,-0.88359c0.89554,-1.12356 1.97196,-2.0652 2.91278,-3.15924c1.79803,-2.09088 3.40248,-4.32695 4.96321,-6.58942c0.29067,0.23168 0.58133,0.46335 0.87201,0.69504c-1.56836,2.27551 -3.18805,4.52037 -4.99465,6.6235c-0.92979,1.08239 -1.99882,2.01411 -2.8832,3.12368c-0.11738,0.14726 -0.23476,0.29453 -0.35213,0.44179l-0.35213,0.44179c0,0 -0.34677,0.43506 -0.78183,0.08829z" fill="#c7d7e0"/><path d="M299.21334,216.70465c-0.43506,-0.34677 -0.0883,-0.78183 -0.0883,-0.78183l0.19208,-0.24099c0.75266,-0.94307 1.64183,-1.7462 2.40157,-2.68402c0.29,0.23115 0.57999,0.46229 0.87,0.69344c-0.76133,0.93645 -1.65084,1.74109 -2.40143,2.68413l-0.19208,0.24099c0,0 -0.34677,0.43506 -0.78183,0.08829z" fill="#cdd0e0"/><path d="M294.39461,222.25589c-0.43506,-0.34677 -0.08829,-0.78184 -0.08829,-0.78184l0.18146,-0.21869c1.41781,-1.33125 2.69673,-2.82237 4.149,-4.13103c0,0 0.41358,-0.37214 0.78571,0.04144c0.37213,0.41357 -0.04144,0.78571 -0.04144,0.78571c-1.44736,1.30031 -2.72413,2.78321 -4.12999,4.11349l-0.07464,0.10261c0,0 -0.34677,0.43507 -0.78183,0.0883z" fill="#cdd0e0"/><path d="M293.06659,223.44142c0.19152,-0.24028 0.54155,-0.27982 0.78183,-0.0883c0.24028,0.19152 0.2798,0.54155 0.08829,0.78184c-0.19152,0.24028 -0.54155,0.27981 -0.78183,0.08829c-0.24028,-0.19152 -0.2798,-0.54155 -0.08829,-0.78183z" fill="#cdd0e0"/></g><g stroke="none" stroke-width="0.5"><path d="M338.17105,214.33852c2.83968,2.34436 6.45201,3.62408 9.31488,5.98094l0.12503,0.10293c0.63021,-1.01989 1.07047,-2.7402 2.08313,-3.16029c1.08929,-0.45189 3.54866,1.31768 3.57789,2.50488c0.00248,0.10073 -0.61443,1.16186 -0.75331,1.35731c-0.78259,1.10147 -1.6926,2.18368 -2.54882,3.22636c-1.03508,1.25731 -2.06931,2.51531 -3.10524,3.77192c-0.2497,0.30288 -0.8157,1.05743 -1.18988,1.14129c-1.07092,0.24001 -2.89494,-1.55609 -3.43557,-2.34593c-0.17653,-0.2579 -0.44334,-0.5063 -0.45727,-0.81853c-0.02411,-0.54059 0.85372,-1.52595 1.13956,-1.97745c0,0 0.00022,-0.00035 0.00067,-0.00103l-0.08813,-0.07255c-3.08435,-2.5392 -6.20882,-5.00595 -9.29296,-7.54497c-0.25939,-0.21354 -0.51766,-0.42828 -0.77523,-0.64364c1.11321,-1.11392 2.31075,-2.11453 3.63251,-2.94721c0.59873,0.47033 1.19017,0.94637 1.77272,1.42595z" fill="#b0c1ca"/><g><path d="M343.87163,223.22249l-0.43616,-0.35907c-2.97922,-2.45265 -5.90154,-4.83234 -9.26303,-6.70439c-0.35221,-0.2103 -0.69626,-0.43276 -1.03394,-0.66479c0.2742,-0.26349 0.5536,-0.51999 0.83876,-0.76872c0.24633,0.16233 0.49627,0.31909 0.75048,0.46926c3.41305,1.90808 6.38779,4.31747 9.41495,6.80959l0.43616,0.35907c0,0 0.42953,0.35361 0.07592,0.78313l-0.00001,0.00001c-0.3536,0.42952 -0.78314,0.07592 -0.78314,0.07592z" fill="#c7d7e0"/><path d="M339.74404,217.90634c0.3536,-0.42952 0.78314,-0.07592 0.78314,-0.07592l0.03965,0.03264c1.49955,1.23451 3.04439,2.37325 4.54593,3.6094c0,0 0.42953,0.35361 0.07592,0.78313c-0.3536,0.42952 -0.78314,0.07592 -0.78314,0.07592c-1.50155,-1.23615 -3.04608,-2.37464 -4.54593,-3.6094l-0.03965,-0.03264c0,0 -0.42953,-0.35361 -0.07592,-0.78313z" fill="#cdd0e0"/><path d="M336.1997,215.01123c0,0 0.48585,0.27107 0.21479,0.75693c-0.27108,0.48586 -0.75693,0.21479 -0.75693,0.21479c-0.64922,-0.36376 -1.33164,-0.63574 -1.98601,-0.98586c0.29713,-0.26873 0.60049,-0.52909 0.91072,-0.78015c0.53802,0.26648 1.08813,0.50011 1.61743,0.7943z" fill="#cdd0e0"/></g></g><path d="M334.00378,167.10798c-0.73182,-0.08131 -0.92556,-0.59309 -0.97289,-0.93002c0.75576,-0.18136 1.5051,-0.37609 2.25682,-0.57658l-0.05513,0.52357c0,0 -0.12288,1.10591 -1.22879,0.98303z" fill="#c5d8e2" stroke="none" stroke-width="0.5"/><path d="M302.39324,164.41129c-1.0911,0.21822 -1.30933,-0.87288 -1.30933,-0.87288l-0.10086,-0.51624c-0.07265,-0.54487 -0.14597,-1.07735 -0.20771,-1.60837c0.23357,0.14744 0.44719,0.28744 0.55455,0.34551c0.59518,0.32191 1.23905,0.78345 1.912,1.22525l0.02424,0.11743c0,0 0.21822,1.0911 -0.87288,1.30933z" fill="#c5d8e2" stroke="none" stroke-width="0.5"/><path d="M302.2679,165.94349c-1.11271,0 -1.11271,-1.11272 -1.11271,-1.11272l0.00552,-0.35779c-0.03905,-0.39042 -0.07808,-0.78086 -0.11713,-1.17128c0,0 -0.10182,-1.01814 0.86617,-1.19938c0.42623,0.26937 0.87228,0.58032 1.3319,0.88207c0.01265,0.05925 0.01631,0.09587 0.01631,0.09587c0.03905,0.39042 0.07809,0.78086 0.11713,1.17128l0.00553,0.57923c0,0 0,1.11272 -1.11272,1.11272z" fill="#c5d8e2" stroke="none" stroke-width="0.5"/><path d="M304.14194,194.28841c-1.11271,0 -1.11271,-1.11271 -1.11271,-1.11271l0.00114,-1.2217c0.26887,-2.9473 0.89281,-5.63266 0.59002,-8.62344c0,0 -0.03292,-0.32922 0.11665,-0.64656c-0.17281,-0.63702 -0.33948,-1.25758 -0.34658,-1.30765c-0.2276,-1.60389 0.05443,-3.2618 -0.22847,-4.8812c-0.22143,-1.26754 -0.66413,-2.50145 -0.8255,-3.7849c-0.1701,-1.35287 -0.39036,-2.64086 -0.58387,-3.96981c-0.20316,-1.39519 0.20192,-2.02232 -0.47996,-3.29493c0,0 -0.49763,-0.99524 0.49761,-1.49286c0.99524,-0.49762 1.49286,0.49762 1.49286,0.49762c0.22445,0.47108 0.55264,0.90558 0.67334,1.41325c0.19691,0.82819 -0.11265,1.71256 0.01797,2.55375c0.39858,2.56694 0.95574,5.13152 1.4017,7.70615c0.28476,1.64407 0.00639,3.3357 0.24004,4.95753c0.11993,0.83249 0.45211,1.62028 0.67341,2.43173l0.23064,0.80698c0,0 0.27205,0.9522 -0.59545,1.31667c-0.07708,2.14664 -0.45151,4.21187 -0.65128,6.4185l0.00114,1.12086c0,0 0,1.11271 -1.11271,1.11271z" fill="#e3a500" stroke="none" stroke-width="0.5"/><path d="M332.8066,195.88126c-1.06579,0.31974 -1.38552,-0.74606 -1.38552,-0.74606l-0.3771,-1.27479c-0.30794,-2.99504 -0.1846,-6.37785 0.45591,-9.35592c-0.00862,-0.06986 -0.00861,-0.11339 -0.00861,-0.11339v-0.23426c0.00251,-2.02715 -0.56475,-3.86179 -0.46737,-5.90681c0.08917,-1.87268 0.56717,-3.52792 0.96166,-5.34135c0.48405,-2.22519 0.61177,-4.39544 0.79796,-6.64766c0,0 0.00074,-0.00887 0.00288,-0.02495c0.68538,-0.16146 1.36471,-0.33454 2.04454,-0.51361c0.20261,0.33593 0.17033,0.72336 0.17033,0.72336c-0.19729,2.34751 -0.33801,4.62012 -0.84184,6.93917c-0.3677,1.69246 -0.82919,3.21891 -0.91237,4.96589c-0.08594,1.80469 0.36513,3.45549 0.45449,5.2329c0.21183,0.39187 0.09906,0.84294 0.09906,0.84294c-0.71149,2.77107 -0.849,6.1414 -0.57363,9.00126l0.32567,1.06776c0,0 0.31974,1.06579 -0.74605,1.38552z" fill="#e3a500" stroke="none" stroke-width="0.5"/><path d="M333.68723,193.67781c0.55206,0.9661 -0.41405,1.51817 -0.41405,1.51817l-0.70432,0.39257c-0.20077,0.15057 -2.1855,1.63959 -2.19573,1.64427c-1.56488,0.71604 -3.83136,0.33519 -5.49957,0.33519c-5.5147,0 -10.79078,-0.90427 -16.26356,-1.41003c-1.86723,-0.17256 -4.65295,0.67264 -5.82542,-1.45259c-0.28301,-0.51298 0.01062,-1.17168 0.01592,-1.75752c0,0 0.11072,-1.10719 1.21791,-0.99647c1.10719,0.11072 0.99647,1.21791 0.99647,1.21791c-0.07277,0.19502 -0.27453,0.38462 -0.21834,0.58504c0.12591,0.44905 0.92076,0.1725 1.38699,0.18384c1.36892,0.0333 2.6041,0.06581 3.96069,0.24272c4.91376,0.64081 9.77512,1.16167 14.72933,1.16167c1.23406,0 3.42638,0.4411 4.57343,-0.13332c0.6767,-0.33889 1.18118,-0.94694 1.78661,-1.40105l0.93546,-0.54445c0,0 0.96611,-0.55206 1.51817,0.41405z" fill="#c5d8e2" stroke="none" stroke-width="0.5"/><path d="M303.70126,171.82507c0,0.55635 -0.55636,0.55636 -0.55636,0.55636l-0.0633,-0.00164c-1.4002,0.1069 -2.73958,0.07648 -4.09959,-0.29635c-0.52443,-0.2418 -0.91524,-0.3392 -1.27185,-0.83758c-0.75099,-1.04958 -0.84688,-3.29414 -0.79059,-4.53269c0.00978,-0.21525 0.11731,-1.31115 0.18364,-1.42497c0.782,-1.34185 3.00887,-1.60835 4.34351,-1.48828c0,0 0.55407,0.05037 0.5037,0.60445c-0.05037,0.55408 -0.60444,0.5037 -0.60444,0.5037c-0.92251,-0.08481 -2.72467,0.01647 -3.28652,0.94909c-0.14254,0.2366 -0.02732,1.17987 -0.02774,1.46407c-0.00182,1.24349 0.09192,3.16565 1.32812,3.71561c1.20011,0.32513 2.40313,0.32914 3.63642,0.23351l0.14865,-0.00163c0,0 0.55636,0 0.55636,0.55635z" fill="#b0c1ca" stroke="none" stroke-width="0.5"/><path d="M353.62602,189.59074c0.12547,0.6002 0.93348,1.05591 1.13784,1.63867c0.34842,0.9935 -0.7481,0.79574 -1.29993,0.58822c-0.9158,-0.34439 -2.22887,-2.94441 -1.34665,-3.3903c-0.02356,-0.06151 -0.04288,-0.12803 -0.05752,-0.19968l-0.0589,-0.10262c-0.78536,-1.40054 -2.27998,-2.45476 -3.3133,-3.67191c-1.33954,-1.57784 -2.60161,-2.98513 -4.15543,-4.38345c0.90336,-0.19941 1.47878,-0.88584 2.44581,-1.23235c0.70203,0.76954 1.59338,1.34192 2.29662,2.13657c1.54569,1.74662 3.05979,3.36445 4.3079,5.34303c0.38465,-0.15598 0.72977,-0.17462 0.87947,0.07014c0.20122,-0.01666 0.40526,-0.00554 0.59403,0.03875c0.54067,0.12685 3.42079,1.76954 1.5057,2.1564c-0.03754,0.00759 -0.07697,0.00868 -0.11488,0.0032c-0.62842,-0.09094 -1.16778,-0.32921 -1.6963,-0.50147c-0.01694,0.02975 -0.0369,0.05904 -0.06024,0.08778c-0.3153,0.38827 -0.73955,0.66386 -1.15666,0.78823c0.02978,0.21615 0.05147,0.43472 0.09246,0.6308zM347.55838,180.78589c-0.52606,-0.47747 -1.03115,-0.82515 -1.48618,-1.31c-0.08316,0.09136 -0.17947,0.17047 -0.28498,0.2368c1.35848,1.27761 2.5176,2.58704 3.7432,4.014c0.94133,1.09599 2.16985,2.06635 3.03937,3.24567c0.02339,-0.02124 0.0473,-0.04236 0.07164,-0.06331c-1.38259,-2.22036 -3.15121,-4.36975 -5.08305,-6.12314z" fill="#b0c1ca" stroke="none" stroke-width="0.5"/><path d="M345.71452,180.38536c-0.03284,0.03229 -0.06533,0.05998 -0.09687,0.08239c-0.54381,0.38635 -1.51172,0.2558 -1.9732,-0.19512c-0.43203,-0.42216 -0.58449,-0.8755 -0.54686,-1.31368c-0.41373,-0.38917 -0.81921,-0.73868 -1.19174,-1.20078c-2.56267,-2.55724 -4.37871,-6.07159 -7.35637,-8.14213c0,0 -0.45579,-0.31905 -0.13674,-0.77483c0.31905,-0.45578 0.77483,-0.13673 0.77483,-0.13673c3.05267,2.14933 4.91814,5.67704 7.54738,8.31161c0.26246,0.33084 0.54388,0.59638 0.83362,0.86403c0.12283,-0.15391 0.26439,-0.29854 0.41857,-0.43077c-0.54318,-0.47447 -0.96101,-1.00878 -1.44887,-1.56707c-1.22398,-1.75543 -2.65368,-3.39656 -3.89216,-5.15003c-0.80673,-1.14219 -1.76542,-3.13367 -3.10933,-3.68663c0,0 -0.50841,-0.22595 -0.28245,-0.73436c0.22596,-0.50841 0.73436,-0.28244 0.73436,-0.28244c1.58562,0.74001 2.59099,2.67893 3.56755,4.06331c1.22649,1.73868 2.63821,3.36799 3.85779,5.10375c0.51717,0.59026 0.93147,1.15418 1.56515,1.62696l0.01582,0.01529c0.2875,-0.11371 0.57664,-0.18004 0.84267,-0.18617c0,0 0.14566,0.00001 0.28791,0.07453c0.25732,1.20825 1.06057,1.98735 0.52837,3.32358c-0.26023,0.201 -0.60518,0.33197 -0.93946,0.33533z" fill="#b0c1ca" stroke="none" stroke-width="0.5"/><g stroke="none"><path d="M333.00616,217.49399c-0.22239,-0.00812 -0.21428,-0.23052 -0.21428,-0.23052l0.04671,-0.2549c0.74378,-1.02305 1.92391,-1.80071 2.84662,-2.64806c0.40033,-0.18619 0.8945,-0.57222 1.33806,-0.59175c0.07862,-0.00346 0.19371,0.01259 0.31662,0.03905c-0.36539,-0.24617 -0.81651,-0.60896 -1.13775,-0.86661l-0.16347,-0.02947c-0.0466,-0.00789 -0.09107,-0.03061 -0.12572,-0.06789c-0.08368,-0.09002 -0.07854,-0.23084 0.01148,-0.31452c0.04501,-0.04184 0.10273,-0.06147 0.15964,-0.05939l0.33226,0.01213c0.26381,0.00989 0.57539,0.14461 0.73288,0.22319c-0.42252,-0.27445 -0.61266,-0.92931 -1.14434,-1.06124c-0.08283,-0.01549 -0.17501,-0.00524 -0.24851,-0.04647c-1.06644,-0.59808 0.20496,-0.7135 0.67314,-0.72674c-0.13507,-0.05762 -0.30793,-0.17017 -0.31551,-0.17464c-0.22126,-0.13029 -0.46434,-0.27518 -0.73602,-0.26932c-0.45096,0.00972 -1.46591,0.5945 -1.77198,0.88365c-1.44406,0.895 -2.50919,2.43803 -4.00928,3.20306c0,0 -0.19835,0.1009 -0.29926,-0.09743c-0.10091,-0.19835 0.09744,-0.29926 0.09744,-0.29926c1.4747,-0.74822 2.51259,-2.28996 3.94167,-3.16063c0.82563,-0.75646 2.58774,-1.42322 3.45662,-0.37285c0.58992,0.71313 -0.15584,0.72521 -0.59966,0.66683c0.4189,0.22257 1.76031,1.22632 1.58852,1.59713c-0.06887,0.14865 -0.24004,0.19742 -0.44289,0.20012c0.51502,0.32197 1.02256,0.7622 1.00481,1.00326c-0.01246,0.16925 -0.13687,0.34486 -0.28968,0.41869c-0.23134,0.11179 -0.74981,-0.25755 -1.02432,-0.25559c-0.33513,0.00238 -0.78718,0.37968 -1.09786,0.51704c-0.87172,0.82122 -2.03022,1.55334 -2.73244,2.53797l0.037,0.01091c0,0 -0.00812,0.22239 -0.23051,0.21427z" fill="#6b767b" stroke-width="0.5"/><path d="M332.91581,217.23476c0,0 -1.29822,-1.32754 -1.82714,-1.89655c-0.43382,-0.4667 -1.04671,-1.40228 -1.04671,-1.40228c0,0 3.68078,-3.14722 4.75057,-3.71089c0.45019,-0.2372 1.62685,0.35058 1.62685,0.35058c0,0 -0.04993,1.24772 0.5826,1.75343c0.61705,0.49335 0.30257,1.33971 0.30257,1.33971c0,0 -1.72338,0.79984 -2.43484,1.37792c-0.74947,0.60898 -1.9539,2.18807 -1.9539,2.18807z" fill="#606a6e" stroke-width="0"/><path d="M330.66172,214.78164c-0.18652,-0.12139 -0.06515,-0.30791 -0.06515,-0.30791l0.14075,-0.2041c0.22959,-0.21342 0.45918,-0.42683 0.68877,-0.64025c1.15301,-1.07179 2.58199,-1.59347 3.91482,-2.41341c0,0 0.18954,-0.11661 0.30615,0.07295c0.11661,0.18954 -0.07294,0.30616 -0.07294,0.30616c-1.3074,0.80428 -2.71628,1.3111 -3.845,2.36031c-0.22959,0.21342 -0.45918,0.42683 -0.68877,0.64025l-0.07073,0.12088c0,0 -0.12138,0.18653 -0.3079,0.06514z" fill="#303537" stroke-width="0.5"/><path d="M331.49947,216.17604c-0.15151,-0.163 0.01148,-0.31451 0.01148,-0.31451l0.03985,-0.03114c0.19185,-0.26619 0.33903,-0.54727 0.52871,-0.81245c0.82486,-1.13457 2.5884,-2.33425 3.97058,-2.48048c0,0 0.22131,-0.02341 0.24472,0.19789c0.02341,0.22131 -0.19789,0.24472 -0.19789,0.24472c-1.24637,0.13186 -2.9173,1.26186 -3.65633,2.29808c-0.19073,0.26228 -0.33729,0.54684 -0.52871,0.81245l-0.09791,0.09691c0,0 -0.163,0.15151 -0.31451,-0.01148z" fill="#303537" stroke-width="0.5"/></g><path d="M301.94475,196.64565c-0.17361,-0.2755 -0.17361,-0.58685 -0.17361,-0.58685v-0.48856c0.00087,-1.29442 -0.2196,-3.18255 1.18778,-3.98116c1.15463,-0.65518 3.4435,0.57776 4.64298,0.79895c4.12583,0.76081 8.22574,1.52935 12.43343,1.52935c2.83322,0 5.53193,-0.17386 8.33437,-0.56097c0.80241,-0.11084 3.09131,-0.80843 3.8124,-0.54515c2.02823,0.74054 2.01613,4.40781 0.70231,5.82024c-0.24783,0.26642 -2.0132,0.77205 -2.4575,0.90874c-2.19182,0.67428 -4.12051,0.77713 -6.40161,0.77713c-3.36271,0 -6.86554,0.28099 -10.20898,-0.08769c-3.81466,-0.42065 -7.6692,-1.53719 -11.24037,-2.91046c0,0 -0.5087,-0.19566 -0.6312,-0.67356z" fill="#606a6e" stroke="none" stroke-width="0.5"/><g stroke="none" stroke-width="0.5"><path d="M298.72138,175.85377c-0.00471,-0.22249 0.21779,-0.2272 0.21779,-0.2272c0.26718,-0.00565 0.62342,-0.01319 0.8906,-0.01884c1.79095,-0.03391 2.84437,-1.19185 3.67365,-2.64268c0,0 0.11044,-0.19321 0.30365,-0.08277c0.19321,0.11043 0.08277,0.30364 0.08277,0.30364c-0.90879,1.58997 -2.1073,2.82184 -4.05065,2.8668c-0.26718,0.00565 -0.53437,0.0113 -0.80156,0.01696l-0.08906,0.00189c0,0 -0.22249,0.00471 -0.2272,-0.21779z" fill="#3a53e0"/><path d="M304.38408,172.76065c0.21256,0.06589 0.14667,0.27846 0.14667,0.27846l-0.04791,0.15197c-0.18816,0.45227 -0.48579,0.80287 -0.82464,1.15637c-1.15343,1.20329 -2.98177,2.47692 -4.69265,2.52566c0,0 -0.22249,0.00471 -0.2272,-0.21779c-0.00471,-0.22249 0.21779,-0.2272 0.21779,-0.2272c1.57761,-0.01924 3.32238,-1.28454 4.38075,-2.38867c0.29445,-0.30718 0.57937,-0.61855 0.73324,-1.01501l0.03549,-0.11711c0,0 0.06589,-0.21257 0.27846,-0.14668z" fill="#3ae054"/><path d="M302.40813,173.71944c0.18774,0.1195 0.06823,0.30724 0.06823,0.30724l-0.18515,0.28887c-0.33297,0.32712 -0.81535,0.39164 -1.25984,0.23116c-0.20598,-0.07437 -0.40583,-0.47683 -0.56818,-0.32985c-0.13805,0.12499 0.15394,0.608 0.10114,0.77142c-0.22322,0.69085 -0.88501,0.33261 -1.3182,0.44896c0,0 -0.21725,0.04826 -0.2655,-0.16899c-0.04825,-0.21725 0.16899,-0.26551 0.16899,-0.26551c0.18363,-0.03576 0.90451,0.1732 0.98609,-0.1344c0.09869,-0.37214 -0.44754,-0.61941 0.06346,-1.00979c0.54113,-0.41342 1.24513,0.77251 1.74195,0.18217l0.15978,-0.25303c0,0 0.1195,-0.18774 0.30724,-0.06824z" fill="#e03a3a"/></g><g stroke="none"><path d="M298.7589,213.69205c-0.03552,-0.21969 0.18417,-0.25522 0.18417,-0.25522l0.25912,-0.00403c1.14873,0.52939 2.14212,1.5347 3.15353,2.27392c0.26087,0.3562 0.73607,0.76536 0.84195,1.19653c0.01876,0.07643 0.02553,0.19244 0.02361,0.31815c0.16998,-0.40646 0.43756,-0.91981 0.62743,-1.28524l-0.00306,-0.16608c-0.00138,-0.04724 0.01221,-0.09529 0.042,-0.13657c0.07192,-0.09967 0.21103,-0.12216 0.31069,-0.05024c0.04983,0.03596 0.08037,0.08873 0.08946,0.14495l0.05307,0.32822c0.04188,0.26065 -0.02932,0.59256 -0.07559,0.76238c0.18654,-0.46802 0.79159,-0.78253 0.81702,-1.32975c-0.001,-0.08426 -0.02908,-0.17266 -0.00302,-0.2528c0.37803,-1.1628 0.73981,0.0615 0.84432,0.51805c0.0301,-0.14373 0.10668,-0.33526 0.10958,-0.34356c0.08452,-0.24246 0.17908,-0.50918 0.12022,-0.77447c-0.09771,-0.44036 -0.86964,-1.32138 -1.21305,-1.56501c-1.16007,-1.2412 -2.88157,-1.98408 -3.92514,-3.30563c0,0 -0.13774,-0.1748 0.03704,-0.31253c0.17479,-0.13775 0.31254,0.03705 0.31254,0.03705c1.02212,1.29995 2.73703,2.01636 3.87031,3.24762c0.90329,0.66179 1.90171,2.25952 1.0415,3.31701c-0.58402,0.71797 -0.74168,-0.01103 -0.7712,-0.4577c-0.13637,0.45433 -0.85847,1.96611 -1.25572,1.87014c-0.15925,-0.03847 -0.24055,-0.19681 -0.28286,-0.39521c-0.21506,0.56804 -0.54756,1.15185 -0.78743,1.18157c-0.16842,0.02087 -0.36496,-0.0668 -0.46725,-0.20222c-0.15486,-0.20502 0.10597,-0.7857 0.05038,-1.05452c-0.06786,-0.32819 -0.52627,-0.69775 -0.72172,-0.97557c-0.97581,-0.69433 -1.92031,-1.68732 -3.02324,-2.18347l-0.00347,0.03842c0,0 -0.21969,0.03552 -0.25521,-0.18417z" fill="#6b767b" stroke-width="0.5"/><path d="M298.99549,213.55275c0,0 1.04809,-1.53272 1.50269,-2.16269c0.37287,-0.5167 1.17056,-1.30069 1.17056,-1.30069c0,0 3.80615,2.99438 4.56811,3.93331c0.32065,0.39512 -0.02573,1.664 -0.02573,1.664c0,0 -1.2334,0.19499 -1.60568,0.91419c-0.36318,0.70161 -1.25469,0.55867 -1.25469,0.55867c0,0 -1.12136,-1.53373 -1.82739,-2.11843c-0.74376,-0.61593 -2.52788,-1.48837 -2.52788,-1.48837z" fill="#606a6e" stroke-width="0"/><path d="M300.96053,210.86253c0.08258,-0.20666 0.28923,-0.12409 0.28923,-0.12409l0.22768,0.09813c0.25419,0.18343 0.50837,0.36686 0.76257,0.5503c1.27654,0.9212 2.06755,2.22059 3.13227,3.36738c0,0 0.15142,0.16309 -0.01168,0.31451c-0.16309,0.15142 -0.31451,-0.01167 -0.31451,-0.01167c-1.04439,-1.12491 -1.81689,-2.40751 -3.06654,-3.3093c-0.25419,-0.18343 -0.50837,-0.36686 -0.76257,-0.5503l-0.13237,-0.04573c0,0 -0.20666,-0.08257 -0.12409,-0.28922z" fill="#303537" stroke-width="0.5"/><path d="M299.75682,211.95673c0.13023,-0.18046 0.31068,-0.05023 0.31068,-0.05023l0.03833,0.03299c0.29856,0.1361 0.60299,0.22549 0.90014,0.35965c1.27395,0.58711 2.79529,2.08205 3.20894,3.40895c0,0 0.06623,0.21246 -0.14622,0.27869c-0.21246,0.06623 -0.27869,-0.14622 -0.27869,-0.14622c-0.37301,-1.19654 -1.8079,-2.61427 -2.96862,-3.13643c-0.29451,-0.13577 -0.60223,-0.22386 -0.90014,-0.35965l-0.11418,-0.07707c0,0 -0.18046,-0.13023 -0.05023,-0.31068z" fill="#303537" stroke-width="0.5"/></g><path d="M303.82852,167.36325c1.69752,4.50185 -4.3459,6.52142 -5.88492,2.31297c-1.02594,-2.80543 0.17852,-5.4545 2.06283,-5.52148c0.15751,-0.02946 0.32035,-0.0449 0.48699,-0.0449c1.21292,0 2.2241,0.81812 2.45195,1.90353c0.2613,0.34596 0.52192,0.7453 0.7792,1.20221z" fill="#a1b9c7" stroke="none" stroke-width="0.5"/><path d="M334.88236,166.89254c0,0.99605 -6.92442,0.25764 -16.03114,0.25764c-9.10672,0 -16.60369,-1.60901 -16.60369,-2.60506c0,-0.39774 -2.02903,-2.65481 -0.03491,-2.953c2.99962,-0.44855 11.85545,-1.42694 17.32564,-1.42694c6.45987,0 11.81947,1.79605 14.18959,3.82797c0.97112,0.83255 1.15451,2.60989 1.15451,2.89939z" fill="#e3a500" stroke="none" stroke-width="0"/><path d="M296.63911,236.72632v-111.84076h47.29829v111.84077z" fill="none" stroke-opacity="0.01176" stroke="#ffffff" stroke-width="0.5"/></g></g></svg>