<svg version="1.1" xmlns="http://www.w3.org/2000/svg" xmlns:xlink="http://www.w3.org/1999/xlink" width="180.78505" height="250.19531" viewBox="0,0,180.78505,250.19531"><g transform="translate(-138.14928,-94.58247)"><g data-paper-data="{&quot;isPaintingLayer&quot;:true}" fill-rule="nonzero" stroke="none" stroke-linecap="butt" stroke-linejoin="miter" stroke-miterlimit="10" stroke-dasharray="" stroke-dashoffset="0" style="mix-blend-mode: normal"><path d="M197.2653,259.29197c0,0 -4.89314,-58.67277 -6.00094,-79.75792c-0.72495,-13.79832 0.00094,-34.44208 0.00094,-34.44208c0,0 12.35369,-38.6 14,-38.6c3.12049,0 10.05368,8.0005 20.25958,15.58886c2.47434,1.83974 3.86034,-25.69507 6.45217,-23.86395c12.97103,9.16403 24.48825,46.67509 24.48825,46.67509c0,0 3.98125,16.50369 4.26617,28.38882c0.13305,5.5502 1.69685,13.62327 1.57066,23.41165c-0.12414,9.62946 -2.12837,20.41069 -2.60316,30.38208c-0.89225,18.73873 -0.43367,34.61744 -0.43367,34.61744z" fill="#c5d8e2" stroke-width="0"/><path d="M262.73721,196.95839c-2.48471,-0.27608 -2.20863,-2.76079 -2.20863,-2.76079l0.24787,-2.09234c0,-6.01081 0.09968,-12.11227 -2.18961,-17.75573c0,0 -0.92848,-2.32119 1.39272,-3.24967c2.32119,-0.92848 3.24967,1.39272 3.24967,1.39272c2.49275,6.3063 2.54723,12.91322 2.54723,19.61269l-0.27845,2.6445c0,0 -0.27608,2.48471 -2.76079,2.20863z" fill="#c5d8e2" stroke-width="0.5"/><path d="M210.38142,172.80808c0.88388,-0.88388 1.76776,0 1.76776,0l0.07513,0.16585c9.63204,4.81601 20.40589,7.88061 31.24098,7.86803c6.5931,0 12.73461,-0.38451 19.19978,-1.38386c2.32346,-0.35915 4.48057,-0.59201 6.64121,-1.68417c0,0 1.11804,-0.55901 1.67705,0.55902c0.55901,1.11803 -0.55902,1.67705 -0.55902,1.67705c-7.87663,3.90214 -18.36541,3.33196 -26.95902,3.33196c-11.22709,-0.01191 -22.37258,-3.13874 -32.35901,-8.13196l-0.72486,-0.63415c0,0 -0.88388,-0.88389 0,-1.76777z" fill="#a9ccdf" stroke-width="0.5"/><path d="M261.65696,176.61812c-2.45145,0.49029 -2.94174,-1.96116 -2.94174,-1.96116l-0.36257,-1.84687c-0.18273,-1.59797 -0.85976,-3.09989 -1.26562,-4.65622c-0.89029,-3.41391 -0.41599,-7.09271 -1.04731,-10.54342c-0.23475,-1.28311 -0.83305,-2.48731 -1.01759,-3.7786c-0.99748,-6.97999 -1.11261,-14.19625 -3.26119,-20.98512c-1.65357,-5.2248 -4.67196,-9.71846 -6.60176,-14.80224c0,0 -0.87781,-2.34082 1.46301,-3.21863c2.34082,-0.87781 3.21864,1.46301 3.21864,1.46301c1.92479,5.20866 5.04326,9.84046 6.73157,15.19776c2.21245,7.02048 2.37532,14.46778 3.40549,21.68155c0.17379,1.21698 0.76379,2.345 0.98241,3.55473c0.59283,3.28043 0.0716,6.90244 0.95269,10.12324c0.4859,1.7762 1.15788,3.51844 1.40105,5.34378l0.30409,1.48646c0,0 0.49029,2.45146 -1.96116,2.94174z" fill="#c5d8e2" stroke-width="0.5"/><path d="M199.37846,130.30787c-2.45968,-0.44721 -2.01246,-2.90689 -2.01246,-2.90689l0.46126,-2.4582c1.25032,-4.23492 1.96548,-8.60033 2.96958,-12.88684c0.37142,-1.5856 0.14373,-3.37095 0.93236,-4.79578c0.99424,-1.7963 2.18685,-4.14806 4.21032,-4.49554c1.14452,-0.19654 5.41067,3.6134 6.82804,4.71569c2.92688,2.27621 6.23594,4.09701 8.7146,6.89354c1.19458,1.34777 2.29567,2.75999 3.38245,4.1787l0.14547,-0.94851c1.05415,-3.95166 2.19902,-8.02129 2.73733,-12.08484c0.30651,-2.31377 -0.05493,-3.64725 0.84749,-5.85527c0.71139,-1.74061 0.8057,-4.35707 2.56343,-5.02502c1.4546,-0.55276 4.9574,3.10834 6.07008,4.27721c2.36406,2.48343 3.99353,5.11569 6.00716,7.84538c2.1243,2.87972 3.90869,4.55894 5.31128,7.95822c0,0 0.92847,2.3212 -1.39272,3.24967c-2.32119,0.92848 -3.24967,-1.39272 -3.24967,-1.39272c-1.56438,-4.07888 -5.24398,-8.31535 -8.02982,-11.76529c-0.74685,-0.92489 -1.82772,-1.61489 -2.71245,-2.42779c-0.12742,0.41873 -0.25062,0.73936 -0.26338,0.83c-0.74997,5.32664 -1.66431,10.45222 -3.05757,15.67876l-0.14072,1.1094c0,0 -0.27665,1.93653 -2.05352,2.13886c0.98929,1.22659 2.01988,2.41986 3.14641,3.53982c0,0 1.76776,1.76777 0,3.53553c-1.76776,1.76776 -3.53553,0 -3.53553,0c-3.5335,-3.55185 -6.19228,-7.71626 -9.48873,-11.49342c-2.23686,-2.56307 -5.41939,-4.23268 -8.0854,-6.30646c-0.76931,-0.59842 -1.62734,-1.11262 -2.26325,-1.85124c-0.44496,-0.51683 -0.25534,-1.6376 -0.90871,-1.83307c-0.48425,-0.14487 -0.11195,1.00502 -0.18968,1.50447c-0.20809,1.33707 -0.37418,2.68326 -0.66764,4.00422c-0.96972,4.36505 -1.76858,8.80768 -3.03042,13.11316l-0.33874,1.9418c0,0 -0.44721,2.45968 -2.90688,2.01246z" fill="#c0d3dd" stroke-width="0.5"/><path d="M191.71596,190.89965c-2.45145,0.49029 -2.94174,-1.96116 -2.94174,-1.96116l-0.22662,-1.15988c-0.40308,-3.0233 -0.81548,-5.87691 -0.82193,-8.93041c0,-12.25284 -0.31517,-24.56022 2.46403,-36.56215c1.14857,-4.96012 2.68121,-9.63423 5.90108,-13.62095c0,0 1.58309,-1.93489 3.51798,-0.3518c1.9349,1.58309 0.3518,3.51799 0.3518,3.51799c-3.31055,3.98142 -4.38333,9.18974 -5.49457,14.15991c-2.38236,10.65546 -1.74032,22.00481 -1.74032,32.857c-0.00679,2.82956 0.40417,5.46551 0.77807,8.26959l0.17338,0.84012c0,0 0.49029,2.45145 -1.96116,2.94174z" fill="#c5d8e2" stroke-width="0.5"/><path d="M165.26253,283.69861c1.05244,-10.11728 5.04351,-19.78124 7.99169,-29.42994c1.69891,-5.56014 2.15988,-11.1981 3.66294,-16.76857c0,0 0.03526,-0.12928 0.11937,-0.31981c-1.67135,-0.60136 -3.24416,-1.50079 -4.66545,-2.81768c-1.07509,-0.99612 -2.7128,-4.15719 -3.45772,-5.50121c-1.10389,-2.77851 -1.94438,-5.92647 -2.42786,-9.17077c-2.62333,6.75321 -5.85321,13.26476 -8.51998,20.07975c-2.65888,6.79482 -4.1082,14.17269 -6.26624,21.18103c-2.66544,7.28105 -4.68359,14.56623 -7.92437,21.66235l-0.13348,0.44854c0.01642,0.09488 0.0211,0.15112 0.0211,0.15112c0.53167,6.43137 -0.0383,12.86973 0.26923,19.30485c0.2247,4.70191 1.36959,9.18123 1.83251,13.81431c0.50885,5.09275 -0.21233,10.27471 0.20284,15.39034c2.72426,0.7414 5.41746,1.76445 8.12835,2.41859c2.52339,0.60889 5.39332,0.38617 7.96086,0.75278c1.586,0.22646 3.18761,0.32575 4.7798,0.50353c0.37847,0.04226 0.78098,0.62156 1.0768,0.38174c0.27551,-0.22336 -0.25311,-0.67244 -0.28221,-1.02592c-0.13501,-1.63996 -0.26958,-3.2823 -0.51096,-4.91001c-0.83367,-5.62189 -0.28373,-11.47694 -0.79658,-17.15634c-1.53509,-9.20355 -1.07305,-18.64206 -1.07305,-27.95047v-0.78947c0,0 0,-0.07086 0.01193,-0.18873zM181.74098,238.81569c-1.54369,5.59178 -2.00675,11.314 -3.70548,16.91564c-2.80847,9.26106 -6.83325,18.62136 -7.78538,28.33635v0.66916c0,0.16295 -0.00015,0.32594 -0.00043,0.48898l0.00043,0.03734c0,0 0,0.00913 -0.00055,0.0263c-0.01749,8.91616 -0.43452,17.94975 1.03276,26.76007c0.60489,6.61185 0.7433,13.22372 1.32404,19.80939c0.16344,1.85346 0.12492,6.26429 -1.33484,7.62466c-1.00128,0.93311 -5.67644,1.0435 -7.18881,0.89899c-6.61094,-0.6317 -12.6926,-2.15579 -19.07323,-3.75367c-1.94433,0.64399 -2.91649,-1.30034 -2.91649,-1.30034l-1.041,-2.44822c-0.52713,-5.33165 0.2678,-10.74845 -0.2634,-16.05505c-0.47195,-4.71473 -1.62451,-9.29357 -1.8517,-14.08043c-0.26219,-5.52421 0.13919,-11.05524 -0.09819,-16.57731c-1.04995,-0.98057 -0.58841,-2.51901 -0.58841,-2.51901l0.84345,-2.79165c3.19204,-7.05158 5.24943,-14.2577 7.86511,-21.49554c2.18418,-7.10415 3.6683,-14.55801 6.36534,-21.45054c3.95276,-10.10164 9.31934,-19.54129 11.72679,-30.15867c0,0 0.37863,-1.64073 1.86095,-1.91837c0.46047,-1.79008 1.58678,-3.35441 2.1399,-5.11902c1.40065,-4.46845 2.1222,-8.20365 6.84458,-10.4521c3.65514,-1.74031 8.19241,-1.02731 12.11687,-1.02731c0,0 2.5,0 2.5,2.5c0,2.5 -2.5,2.5 -2.5,2.5c-3.65859,0 -8.7452,-1.0797 -11.70301,1.68456c-1.85836,1.73675 -1.78519,4.08181 -2.49343,6.30972c-0.19498,0.61335 -1.86562,4.05926 -2.05947,4.83704c-1.50287,6.03002 -0.6181,13.97493 1.67163,19.64788c0.15084,0.27075 1.9866,3.64626 2.33175,3.97247c5.11444,4.83373 14.60895,1.97562 20.67359,1.96939l-0.0011,-0.13487c0,0 2.37171,-0.79057 3.16228,1.58114c0.79057,2.37171 -1.58114,3.16228 -1.58114,3.16228l-1.58004,0.39145c-4.54944,-0.0051 -9.76162,0.93671 -14.6123,0.51664c-0.00886,0.37795 -0.08105,0.64266 -0.08105,0.64266z" fill="#b0c1ca" stroke-width="0.5"/><path d="M285.35657,218.87641c0.91903,1.39262 1.97466,2.70775 3.15986,3.8822c5.50763,6.20758 9.9079,13.37841 14.25314,20.39764c5.15292,8.32394 10.4947,16.3211 14.91873,25.07953c0.20692,0.31557 0.32006,0.65341 0.38192,0.92851c0.0674,0.27252 0.11714,0.62339 0.07421,0.99634l-0.00214,2.09451c0.44952,4.89481 0.79204,9.669 0.79204,14.58697c0,5.57485 -0.00145,11.0472 -0.53848,16.56213c-0.15953,1.6383 0.21932,4.03655 -0.01433,5.643c-1.34286,9.23285 -2.06419,18.64982 -2.07855,28.03553c0.01111,0.17342 0.00687,0.36032 -0.01551,0.56173c-0.08761,0.78848 -0.39763,1.29895 -0.78008,1.62845c-0.36972,0.34372 -0.9113,0.59547 -1.70463,0.59547c-0.21682,0 -0.41484,-0.0188 -0.59568,-0.05315l-1.77274,-0.21001c-5.6048,0 -11.38776,0.42095 -16.95539,-0.26573c-1.49044,-0.18382 -3.3328,0.34965 -4.45896,-0.6438c-1.09244,-0.9637 -0.79327,-2.80685 -1.07324,-4.23645c-0.88803,-4.53455 -0.80188,-9.06534 -0.80188,-13.66981c0,-10.98061 -0.96932,-22.43235 0.00852,-33.3641c0.54445,-6.08668 2.07861,-11.77368 2.09659,-17.8442c-2.39912,-7.80627 -6.57888,-15.17037 -10.48821,-22.33907c-1.77417,-3.25336 -2.72919,-6.78208 -6.36116,-8.07881c0,0 -1.19192,-0.47677 -1.52589,-1.60113c-3.47979,0.10811 -7.15214,-0.32532 -9.91405,-0.32532h-1.84211c0,0 -2.5,0 -2.5,-2.5c0,-2.5 2.5,-2.5 2.5,-2.5h1.84211c3.46906,0 6.96367,0.12099 10.43037,0.00184c0.96455,-0.03315 3.30261,0.07974 4.32755,-0.77289c1.45282,-1.20858 2.08865,-3.96966 2.78719,-5.62277c-0.14926,-7.1434 1.53384,-13.81534 1.53384,-20.84302c0,-0.94685 0.66087,-5.82918 -0.01469,-6.61173c-0.2796,-0.32389 -0.84866,0.15018 -1.27633,0.13684c-0.86772,-0.02707 -1.73148,-0.14024 -2.59167,-0.25751c-4.57238,-0.62339 -9.27553,-1.84371 -13.88047,-1.82022c0,0 -2.5,0 -2.5,-2.5c0,-2.5 2.5,-2.5 2.5,-2.5c4.85196,0.02051 9.72671,1.20744 14.54058,1.86399c1.6319,0.22257 5.56288,0.2997 6.65832,1.45827c1.81823,1.92303 1.55625,5.21829 1.56426,7.59879c0.01828,5.43314 -0.63887,10.69927 -1.1246,16.03027zM298.52016,245.79112c-4.1637,-6.72598 -8.35079,-13.66285 -13.6416,-19.60236c-0.1485,-0.14969 -0.29525,-0.3012 -0.44027,-0.45444c-0.00997,0.35068 -0.01763,0.70207 -0.02275,1.05424c-1.08105,2.81058 -2.07278,6.61602 -4.58123,8.58776c-0.46683,0.36695 -0.98155,0.67621 -1.5349,0.93598c2.69932,2.15248 3.97544,5.09636 5.86014,8.55087c4.13359,7.57656 8.50531,15.36291 10.98514,23.629l0.05877,0.54711c0.04666,0.2585 0.04666,0.43442 0.04666,0.43442c0,6.28035 -1.53399,12.09836 -2.11378,18.3641c-0.99731,10.77781 0.00852,22.12056 0.00852,32.95169c0,3.5578 -0.02695,6.91512 0.49879,10.41951c0.13683,0.91207 0.34367,1.83284 0.27828,2.75279c-0.02749,0.38679 -0.89531,0.85646 -0.54692,1.02671c0.44267,0.21631 0.8398,-0.59959 1.33051,-0.6438c0.96498,-0.08693 1.92686,0.21872 2.89474,0.26316c4.55019,0.2089 9.16281,0.00092 13.72024,-0.00252c0.11326,-8.79307 0.77356,-17.66048 2.11403,-26.28413c0.27697,-1.78182 -0.18181,-3.61421 -0.01433,-5.40963c0.49904,-5.34984 0.51415,-10.65793 0.51415,-16.06945c0,-4.84318 -0.35266,-9.53819 -0.78691,-14.3604l-0.00201,-2.15117c-4.33368,-8.57472 -9.57871,-16.38729 -14.62526,-24.53942z" fill="#b0c1ca" stroke-width="0.5"/><path d="M191.43434,194.34211c-2.5,0 -2.5,-2.5 -2.5,-2.5l0.01241,-0.80387c-0.08772,-0.87719 -0.17544,-1.75439 -0.26316,-2.63158c0,0 -0.24876,-2.48759 2.23883,-2.73635c2.48759,-0.24876 2.73635,2.23883 2.73635,2.23883c0.08772,0.87719 0.17544,1.75439 0.26316,2.63158l0.01241,1.30139c0,0 0,2.5 -2.5,2.5z" fill="#c5d8e2" stroke-width="0.5"/><path d="M195.64487,258.02632c-2.5,0 -2.5,-2.5 -2.5,-2.5l0.00257,-2.74487c0.60408,-6.62187 2.00594,-12.65524 1.32563,-19.3748c0,0 -0.07397,-0.73966 0.26209,-1.45265c-0.38826,-1.43123 -0.76273,-2.82546 -0.77869,-2.93796c-0.51137,-3.60355 0.12229,-7.32848 -0.51332,-10.96688c-0.4975,-2.84786 -1.49214,-5.62017 -1.8547,-8.50376c-0.38216,-3.03956 -0.87705,-5.93338 -1.31182,-8.91921c-0.45645,-3.13465 0.45366,-4.54365 -1.07835,-7.4029c0,0 -1.11804,-2.23607 1.11803,-3.3541c2.23607,-1.11803 3.3541,1.11804 3.3541,1.11804c0.50428,1.05841 1.24166,2.03462 1.51284,3.17523c0.4424,1.86074 -0.25309,3.84771 0.04038,5.73766c0.89553,5.76729 2.14732,11.52927 3.14927,17.31387c0.6398,3.69384 0.01437,7.49453 0.53932,11.13839c0.26946,1.8704 1.01576,3.64038 1.51298,5.46351l0.51821,1.8131c0,0 0.61125,2.13938 -1.33783,2.95823c-0.17318,4.82298 -1.01444,9.46305 -1.46329,14.42081l0.00257,2.51829c0,0 0,2.5 -2.5,2.5z" fill="#c5d8e2" stroke-width="0.5"/><path d="M260.04745,261.60508c-2.39456,0.71837 -3.11293,-1.6762 -3.11293,-1.6762l-0.84725,-2.86415c-0.69186,-6.72913 -0.41474,-14.32949 1.02433,-21.02049c-0.01936,-0.15696 -0.01936,-0.25478 -0.01936,-0.25478v-0.52632c0.00564,-4.55452 -1.26885,-8.67651 -1.05006,-13.27119c0.20036,-4.20747 1.2743,-7.9264 2.16062,-12.00074c1.08756,-4.99945 1.37449,-9.8755 1.79281,-14.93569c0,0 0.20762,-2.49137 2.69898,-2.28375c2.49136,0.20762 2.28375,2.69897 2.28375,2.69897c-0.44326,5.27428 -0.75943,10.3803 -1.89141,15.59063c-0.82613,3.80256 -1.86299,7.23211 -2.04989,11.15715c-0.19308,4.0547 0.82036,7.76366 1.02114,11.75706c0.47593,0.88045 0.22257,1.89389 0.22257,1.89389c-1.59855,6.22593 -1.9075,13.79824 -1.2888,20.22365l0.7317,2.39901c0,0 0.71837,2.39457 -1.6762,3.11293z" fill="#c5d8e2" stroke-width="0.5"/><path d="M198.27754,256.83882c2.37171,0.79057 1.58114,3.16227 1.58114,3.16227l-0.18341,0.4892c-0.8479,4.13214 -0.47777,8.45516 -0.47777,12.6676c0,9.6397 0.26316,19.29142 0.26316,28.94737c0,5.83099 -0.8811,12.40785 0.70138,18.02642c0,0 0.02373,0.08699 0.04564,0.23243c6.44235,-0.13955 13.26664,-0.63932 19.49137,0.58447c1.56014,0.15543 5.62738,0.43504 6.65635,1.26194c1.2053,0.96861 1.77919,2.58401 2.24891,4.0572c0.3247,1.01837 0.05463,2.13715 0.06688,3.20596c0.03677,3.20941 0.7038,7.25236 -1.75185,9.89201c-2.27473,2.44517 -6.48312,2.08012 -9.43237,2.08167c-7.75687,0.00407 -15.65895,0.42225 -23.38423,-0.27342c0,0 -1.39288,-0.12663 -2.00028,-1.23227c-0.41305,-0.31529 -0.64298,-0.66019 -0.64298,-0.66019l-0.73072,-1.16088c-1.43373,-3.3843 -1.98592,-8.15555 -1.24598,-11.87349c0.29633,-1.48898 0.43167,-3.2077 1.47745,-4.30826c1.04115,-1.09569 2.58593,-1.42863 4.12745,-1.52196c-1.30301,-5.88202 -0.62703,-12.30471 -0.62703,-18.31163c0,-9.65621 -0.26316,-19.30724 -0.26316,-28.94737c0,-4.57038 -0.30445,-9.15465 0.57487,-13.64819l0.3429,-1.08975c0,0 0.79057,-2.37171 3.16228,-1.58114zM195.43669,336.27028c7.29046,0.58549 14.74246,0.17308 22.05028,0.17709c1.11979,0.00061 4.87221,0.48865 5.83079,-0.5499c1.10191,-1.19385 0.33345,-5.02411 0.35342,-6.42378c0.00097,-0.06762 0.32333,-2.88533 -0.31579,-3.26316c-1.26475,-0.7477 -2.9344,-0.17027 -4.39629,-0.317c-5.86905,-1.19572 -12.32939,-0.49878 -18.31424,-0.49878c-0.63195,0 -5.60452,-0.55601 -6.10484,0.03482c-0.87131,1.02895 -0.08512,2.69583 -0.07938,4.04413c0.01111,2.60953 -0.28548,4.25911 0.83716,6.61624z" fill="#b0c1ca" stroke-width="0.5"/><path d="M220.74243,260.11532l0.28477,1.74119c0.181,1.83067 0.27349,3.67232 0.27556,5.51192c-0.01887,1.61518 0.44465,3.2011 0.74398,4.78841c0.55521,2.94413 0.25431,6.03505 0.79526,8.97834c0.76671,4.17162 1.3903,8.32385 1.86575,12.52931c0.55301,4.89141 0.2682,11.35245 -0.53805,16.18095c-0.67879,4.06514 -3.05642,7.64877 -3.40567,11.71912c0,0 -0.24876,2.48759 -2.73635,2.23883c-2.48759,-0.24876 -2.23883,-2.73635 -2.23883,-2.73635c0.4669,-4.22452 2.742,-7.78891 3.43644,-11.96509c0.72939,-4.3864 1.04116,-10.40583 0.51458,-14.87168c-0.48446,-4.10862 -1.08511,-8.13336 -1.81846,-12.20754c-0.52658,-2.92545 -0.22261,-6.00137 -0.78369,-8.9164c-0.36531,-1.89794 -0.81786,-3.8052 -0.83496,-5.7379c0.002,-1.61491 -0.07638,-3.23192 -0.23334,-4.83933l-0.95087,0.23406c-6.86243,0 -13.65366,0.0848 -20.4895,-0.53658c0,0 -2.48973,-0.22634 -2.26339,-2.71607c0.22634,-2.48973 2.71607,-2.26339 2.71607,-2.26339c6.68401,0.6077 13.32584,0.51605 20.03682,0.51605l1.1553,-0.43013c0,0 1.64105,-0.46887 2.59872,0.72411c1.5767,0.29921 1.86986,2.05818 1.86986,2.05818z" fill="#b0c1ca" stroke-width="0.5"/><path d="M257.63095,320.51192c-0.45144,-4.56898 -0.57785,-8.95744 -0.79878,-13.54528c-0.08642,-1.79467 -0.78645,-3.53502 -0.79195,-5.33176c-0.00912,-2.9799 0.52567,-6.09156 0.52879,-9.12783c0.73348,-7.41877 1.92114,-14.31201 1.57841,-21.86744c-0.07582,-1.67137 -0.34485,-3.32939 -0.44553,-4.99945c-0.0183,-0.30356 0.28398,-0.7991 0.00174,-0.91235c-0.41206,-0.16533 -0.82767,0.35806 -1.2693,0.40377c-0.87253,0.09031 -1.75439,0 -2.63158,0c-3.98268,0 -7.96206,0.0855 -11.93534,-0.10982c0.07117,0.70304 0.14233,1.40607 0.2135,2.10911c0.52942,5.8231 1.66884,11.54086 2.361,17.30051c1.40513,11.69252 1.64651,23.53988 2.74224,35.2622c3.45745,0.57867 6.88818,1.29743 10.4368,1.67725zM253.80276,260.13158c1.24466,0 5.91554,-0.08823 6.62544,0.40377c2.68538,1.86113 2.58569,7.05814 2.7141,9.87768c0.35041,7.69449 -0.81502,14.79243 -1.57948,22.34308c0.00329,2.93354 -0.51324,5.8937 -0.52384,8.76691c-0.00646,1.75126 0.69675,3.4456 0.787,5.19455c0.23285,4.51243 0.32585,8.8026 0.78017,13.29683l0.0115,1.44987c1.16668,0.0463 2.2571,0.21681 2.91329,0.72049c3.22395,2.47465 2.1694,7.32055 1.53378,10.55363c-0.16823,1.68867 -0.4246,5.70707 -1.39834,6.82277c-0.96854,1.10974 -5.08124,1.80441 -6.658,2.10502c-3.74629,0.71425 -7.69734,0.7436 -11.37346,1.79381c-3.4256,0.97864 -7.90443,2.49073 -11.18889,-0.19647c-2.35055,-1.92311 -2.2184,-4.12256 -2.49927,-6.69898c-0.51512,-4.72512 -0.69432,-9.32915 -0.29641,-14.06498c-0.14965,-0.31382 -0.24231,-0.70247 -0.24231,-1.18378c0,-2.5 2.5,-2.5 2.5,-2.5h2.36842c1.29298,0 2.56681,0.07005 3.82817,0.18807c-0.98952,-11.29894 -1.27626,-22.7027 -2.62523,-33.96156c-0.69517,-5.80207 -1.8425,-11.56896 -2.37584,-17.43633c-0.09046,-0.91487 -0.18091,-1.82973 -0.27137,-2.7446l-0.0031,-2.75611c0,0 0,-2.5 2.5,-2.5c0.57952,0 1.02471,0.13434 1.36669,0.34073c4.36037,0.30546 8.73455,0.18558 13.10699,0.18558zM238.56452,323.81699c-0.27291,4.12801 -0.0117,8.10727 0.35741,12.25004c0.02963,0.33261 -0.02097,2.79562 0.65862,3.30102c1.83257,1.36285 5.00647,-0.23719 6.70585,-0.72278c3.82373,-1.09261 7.89173,-1.1497 11.78443,-1.8904c0.83313,-0.15853 1.65502,-0.38196 2.49535,-0.49635c0.45358,-0.06174 1.08675,0.32705 1.37297,-0.03021c0.32907,-0.41074 -0.10815,-1.05076 -0.0857,-1.57658c0.03792,-0.88806 0.17754,-1.76885 0.26631,-2.65328c0.10364,-0.50868 1.30833,-5.36552 0.48114,-5.76216c-1.37513,-0.65938 -3.05221,0.339 -4.5708,0.19891c-6.61867,-0.61058 -12.80963,-2.56286 -19.46558,-2.61821z" fill="#b0c1ca" stroke-width="0.5"/><path d="M262.026,256.65439c1.24035,2.17061 -0.93026,3.41096 -0.93026,3.41096l-1.58245,0.88202c-0.45107,0.33828 -4.9103,3.68377 -4.93328,3.69428c-3.5159,1.60877 -8.60812,0.75309 -12.35619,0.75309c-12.39019,0 -24.24428,-2.03168 -36.5403,-3.168c-4.19523,-0.3877 -10.45407,1.51127 -13.08833,-3.26362c-0.63584,-1.15253 0.02385,-2.63248 0.03578,-3.94872c0,0 0.24876,-2.48759 2.73635,-2.23883c2.48759,0.24876 2.23883,2.73635 2.23883,2.73635c-0.16351,0.43815 -0.61679,0.86414 -0.49054,1.31444c0.28288,1.00892 2.06871,0.38757 3.11623,0.41305c3.07562,0.07482 5.85079,0.14785 8.89872,0.54533c11.04005,1.43974 21.96233,2.61 33.09326,2.61c2.77264,0 7.69825,0.99105 10.27539,-0.29954c1.52039,-0.76139 2.65382,-2.12755 4.01409,-3.14783l2.10176,-1.22324c0,0 2.17061,-1.24035 3.41096,0.93026z" fill="#c5d8e2" stroke-width="0.5"/><path d="M238.93159,140.77511c0.45451,-0.53912 0.9504,-1.01424 1.59349,-1.26179c1.33537,-0.51404 2.85848,0.13741 4.28772,0.20612c1.12977,0.64461 2.47019,1.01345 3.38931,1.93385c3.71283,3.718 2.31367,11.24761 2.31118,15.9783c-0.00073,1.39924 0.12569,5.31282 -0.54086,6.40832c-3.83707,6.30631 -11.3391,2.4228 -13.51361,-2.9073c-0.4826,-1.18293 -0.47163,-5.20477 -0.41705,-6.49965c0.16807,-3.98792 0.58528,-8.05518 1.36218,-11.96534c0,0 0.28823,-1.44112 1.52765,-1.89249z" fill="#f1f5f7" stroke-width="0.5"/><path d="M221.5034,139.46819c2.42414,0.55713 4.50653,2.10626 6.43555,3.76405c0.7893,0.95941 1.8635,1.74286 2.36789,2.87822c1.38444,3.11631 0.47423,8.55353 0.20429,11.88818c-0.11473,1.41733 0.17353,3.00833 -0.55469,4.22967c-0.86706,1.45418 -2.37612,2.52 -3.90432,3.24874c-4.53272,2.16145 -11.48942,-0.64337 -13.29825,-5.19202c-0.4244,-1.06724 -0.11057,-2.29466 -0.13531,-3.44292c-0.06237,-2.89397 0.00814,-6.02753 0.56804,-8.87591c0.23041,-1.17218 0.56531,-2.22435 0.9825,-3.21592l0.78798,-3.77778c0.70391,-0.36195 1.35647,-0.87463 2.06379,-1.22656c0.07544,-0.11375 0.15149,-0.22813 0.22809,-0.34321c0,0 1.38675,-2.08013 3.46687,-0.69338c0.35592,0.23728 0.61034,0.49486 0.78757,0.75884z" fill="#f1f5f7" stroke-width="0.5"/><path d="M225.25013,192.63158c0,-2.5 2.5,-2.5 2.5,-2.5c2.63158,0 7.36842,0 10,0c6.28681,0.00705 12.45991,-1.22016 18.69861,-1.8297c3.63398,-0.35505 8.31545,-1.00151 11.04921,-3.68814c1.69259,-1.66341 0.80521,-3.89022 0.91318,-6.05407c0.14531,-2.91211 0.25421,-4.36169 -0.87693,-7.10488c0,0 -0.00094,-0.00235 -0.00268,-0.00692c-6.95257,-0.86787 -13.95907,-0.60205 -20.86073,-2.1677c-3.34803,-0.7595 -6.98016,-1.65225 -9.58607,-4.04298c-2.29627,-2.10666 -3.76995,-5.39212 -5.03156,-8.15005c0,0 -1.03451,-2.27592 1.24141,-3.31043c2.27591,-1.0345 3.31042,1.24141 3.31042,1.24141c0.98958,2.19294 2.12705,4.87099 3.91581,6.58679c1.80388,1.73031 4.92339,2.26785 7.25603,2.79912c7.33333,1.6702 14.80795,1.20088 22.19555,2.33555l1.65078,0.96632c0,0 1.04721,1.0472 0.72361,2.33561c0.72647,1.93046 1.30266,3.96836 1.32439,6.02236c0.02177,2.05744 0.2536,6.74742 -0.37041,8.60794c-1.62333,4.84011 -6.39002,6.40291 -10.7351,7.4907c-7.81812,1.95727 -16.72714,2.96073 -24.81553,2.96905c-2.63158,0 -5.26315,0 -7.89473,0h-2.10527c0,0 -2.5,0 -2.5,-2.5z" fill="#acd0e3" stroke-width="0.5"/><path d="M256.39589,168.01709c-0.03374,-0.21483 -0.04353,-0.45295 -0.02323,-0.71686c0.19174,-2.49264 2.68438,-2.3009 2.68438,-2.3009c3.42012,0.26538 6.90181,0.46804 10.3042,0.79448c1.31018,0.1257 2.83331,-0.14886 3.89903,0.62354c3.66563,2.65677 3.6751,11.43368 -0.03962,13.97534c-1.11593,0.76352 -2.63385,0.64748 -3.97813,0.79299c-4.91983,0.53256 -8.83215,-1.82364 -11.31346,-5.99506c-0.97932,-1.64637 -2.70726,-4.92696 -1.53317,-7.17353z" fill="#131415" stroke-width="0.5"/><path d="M227.71711,148.95363c1.68107,2.31142 1.08757,8.85336 -2.50775,7.96185c-2.72187,-0.67492 -2.19108,-3.18703 -1.26294,-5.40113c-0.26062,-0.81185 -0.245,-1.67554 0.55918,-2.42333c0.31986,-0.29743 0.62268,-0.51656 0.90788,-0.66677c0.1939,-0.30083 0.68582,-0.84911 1.54421,-0.48123c0.57737,0.24744 0.74025,0.66068 0.75942,1.0106z" fill="#2a2e30" stroke-width="0.5"/><path d="M245.67001,146.90611c1.18585,-0.39528 1.58114,0.79057 1.58114,0.79057l0.43318,1.31877c0.27466,2.13701 1.80662,7.35302 -1.87492,7.71817c-0.04931,0.00489 -0.09797,0.00832 -0.14599,0.01034c-0.38247,0.44736 -0.9051,0.69903 -1.6176,0.57857c-0.86802,-0.14675 -1.14667,-1.39171 -1.41438,-2.23035c-0.69814,-2.18704 0.70744,-5.04693 2.25299,-6.37631c0,0 0.02067,-0.01654 0.0584,-0.04179l-0.06339,-0.18684c0,0 -0.39528,-1.18585 0.79057,-1.58114z" fill="#2a2e30" stroke-width="0.5"/></g></g></svg>