<svg version="1.1" xmlns="http://www.w3.org/2000/svg" xmlns:xlink="http://www.w3.org/1999/xlink" width="69.10403" height="112.34077" viewBox="0,0,69.10403,112.34077"><g transform="translate(-291.44574,-124.63558)"><g data-paper-data="{&quot;isPaintingLayer&quot;:true}" fill-rule="nonzero" stroke-linecap="butt" stroke-linejoin="miter" stroke-miterlimit="10" stroke-dasharray="" stroke-dashoffset="0" style="mix-blend-mode: normal"><path d="M313.35874,197.01679c-0.18974,0.69792 -0.65173,1.24646 -1.25292,1.6784c-1.10895,0.79675 -2.69149,1.19679 -3.91244,1.40593c-7.20079,1.23344 -11.03229,-3.55454 -14.31618,-9.64418c-0.75086,-1.39239 -2.44884,-9.01443 1.53108,-5.60307c0.91364,0.78312 1.01386,2.96285 1.5761,3.98788c1.5015,2.73746 3.79979,6.17489 6.4974,7.8421c2.25335,1.39264 7.54167,-1.79791 8.17141,-1.41652z" fill="#e3a500" stroke="none" stroke-width="0.5"/><g stroke="none" stroke-width="0.5"><path d="M311.26394,212.47019c-0.9428,1.78414 -2.12278,3.58886 -3.32703,5.22937c-0.09385,0.12784 -0.18729,0.25587 -0.28038,0.38406c-0.25668,-0.18565 -0.51267,-0.37201 -0.76778,-0.55927c-1.24751,-0.91577 -2.49501,-1.83154 -3.74251,-2.74731c0.05603,-0.07543 0.11187,-0.15089 0.1675,-0.22635c1.0965,-1.96546 2.84742,-3.59448 3.89455,-5.5733c0.57882,-1.09383 0.9839,-2.33851 1.58562,-3.43144c1.0361,1.16114 2.69892,1.90813 3.89905,2.78913c0.22778,0.16721 0.4569,0.32949 0.69358,0.47804c-0.54936,1.30427 -1.45642,2.39641 -2.1226,3.65707z" fill="#b0c1ca"/><path d="M307.17938,208.89332c0.55385,-1.01011 1.41603,-1.93897 2.09953,-2.86841c0.27388,0.24142 0.57243,0.46525 0.88252,0.67806c-0.64928,0.87882 -1.49071,1.76589 -2.00562,2.72391c-1.1706,2.17799 -2.07416,4.39344 -3.55745,6.41613c-0.29885,-0.21938 -0.59768,-0.43874 -0.89652,-0.65812c1.4462,-1.98813 2.31126,-4.16454 3.47753,-6.29157z" fill="#c7d7e0"/><path d="M307.74322,209.59617c0.54892,-0.91265 1.72283,-1.63682 1.87035,-2.7128c0,0 0.04442,-0.25945 0.2506,-0.39087c0.27269,0.19972 0.55832,0.38868 0.84716,0.57176c-0.0006,0.0045 -0.00102,0.0069 -0.00102,0.0069c-0.2566,1.32863 -1.33218,1.99436 -2.01462,3.10026c-1.24738,2.02136 -1.84782,4.34448 -3.19271,6.33568c-0.29883,-0.21937 -0.59767,-0.43874 -0.89652,-0.65812c1.32355,-1.95439 1.93224,-4.25023 3.13674,-6.2528z" fill="#cdd0e0"/></g><g stroke="none" stroke-width="0.5"><path d="M333.71217,211.81779c1.25227,1.52989 2.46333,3.13258 3.61666,4.76234c-1.49288,0.41841 -2.92246,1.03187 -4.30459,1.77422c-1.84795,-2.83497 -3.63853,-5.68824 -5.9565,-8.12658c1.3698,-0.50881 2.53088,-0.94346 3.759,-1.62554c0.80804,1.20009 1.94707,2.06918 2.88543,3.21557z" fill="#b0c1ca"/><path d="M327.79144,210.14448c0,0 -0.05303,-0.05805 -0.09738,-0.15046c0.37133,-0.13973 0.72938,-0.27754 1.08039,-0.42072c2.18711,2.46236 3.65964,5.49968 5.68763,8.06612c-0.341,0.15558 -0.67893,0.31994 -1.01402,0.49216c-1.97235,-2.58223 -3.45065,-5.57196 -5.65661,-7.98711z" fill="#c7d7e0"/><path d="M330.3574,210.87435c0.46307,-0.30837 0.77144,0.15469 0.77144,0.15469l0.14234,0.21374c0.47195,0.7087 0.88143,1.35311 1.17103,2.15907c0,0 0.18686,0.52404 -0.33718,0.7109c-0.52404,0.18685 -0.7109,-0.33718 -0.7109,-0.33718c-0.25468,-0.72059 -0.62745,-1.28286 -1.0491,-1.91603l-0.14234,-0.21374c0,0 -0.30837,-0.46307 0.1547,-0.77145z" fill="#cdd0e0"/></g><path d="M295.93505,217.34429c0.26176,-0.04027 0.41808,0.06323 0.51004,0.18275c-0.21439,-0.04568 -0.43049,-0.09474 -0.6502,-0.14691c0.0414,-0.01557 0.08792,-0.0278 0.14016,-0.03584z" fill="#c7d7e0" stroke="none" stroke-width="0.5"/><path d="M296.74406,218.07615c-0.21645,0.0761 -0.39525,-0.01985 -0.49948,-0.10325c0.16739,0.036 0.33361,0.07049 0.49948,0.10325z" fill="#cdd0e0" stroke="none" stroke-width="0.5"/><path d="M298.76535,228.33603c-0.41633,0.38458 -0.83267,0.76915 -1.249,1.15372c-1.40672,-0.41136 -2.82896,-2.31261 -3.50726,-3.33005c-0.20714,-0.31071 -0.38747,-0.60736 -0.52796,-0.92979c0.39629,-0.2805 0.79506,-0.55717 1.19227,-0.83653c2.53802,-3.1603 5.88872,-5.84051 8.92533,-8.58291c1.05103,1.13782 2.10206,2.27563 3.15309,3.41346c0.21561,0.23342 0.43228,0.46609 0.64974,0.69822c-2.93955,2.77186 -5.68043,5.68354 -8.63622,8.41387z" fill="#b0c1ca" stroke="none" stroke-width="0.5"/><path d="M303.68869,225.90398c0.14739,0.15909 0.10337,1.29792 0.0983,1.57124c-0.04833,2.60367 -2.07062,2.35718 -4.05882,2.61017c-1.93045,-0.02516 -3.72441,-0.23974 -5.61033,-0.41176c-0.65357,-0.05962 -1.74493,-0.22033 -2.21534,-0.7656c-1.16903,-1.35506 0.1175,-2.89452 1.48381,-3.21903l0.0162,-0.10212c0.32735,0.11168 0.6641,0.18746 1.02544,0.25064c1.41935,0.24817 3.82712,0.47779 5.24012,-0.36901c1.06395,-0.01777 3.32366,-0.31681 4.02062,0.43547z" fill="#b0c1ca" stroke="none" stroke-width="0.5"/><path d="M293.99841,225.55239c0.13833,-0.12778 0.69167,-0.63891 0.83,-0.76669c1.05542,-0.97492 2.26208,-1.7426 3.35778,-2.68148c2.09404,-1.79434 4.01874,-3.76153 5.90422,-5.76144c0.25221,0.27304 0.50442,0.54608 0.75664,0.81912c-1.89499,2.01164 -3.83609,3.98521 -5.94046,5.79036c-1.08304,0.92903 -2.28088,1.68804 -3.32316,2.65081c-0.13833,0.12778 -0.27667,0.25556 -0.415,0.38334l-0.415,0.38335c0,0 -0.22749,0.21013 -0.49979,0.14712c-0.08954,-0.12736 -0.17138,-0.24741 -0.24456,-0.35718c-0.06615,-0.09922 -0.12956,-0.19701 -0.18981,-0.29466c0.04202,-0.186 0.17914,-0.31266 0.17914,-0.31266z" fill="#c7d7e0" stroke="none" stroke-width="0.5"/><path d="M301.79758,220.43401c-0.3775,-0.40867 0.03117,-0.78619 0.03117,-0.78619l0.22637,-0.2091c0.88685,-0.81815 1.88742,-1.47731 2.78047,-2.2892c0.25163,0.27241 0.50327,0.54482 0.7549,0.81724c-0.89441,0.8103 -1.89556,1.47089 -2.78035,2.28933l-0.22637,0.20911c0,0 -0.40868,0.3775 -0.78618,-0.03118z" fill="#cdd0e0" stroke="none" stroke-width="0.5"/><path d="M296.19347,225.19113c-0.3775,-0.40867 0.03118,-0.78619 0.03118,-0.78619l0.2125,-0.18868c1.60313,-1.10109 3.09319,-2.38124 4.72696,-3.45477c0,0 0.46519,-0.30518 0.77036,0.16c0.30518,0.46517 -0.16,0.77036 -0.16,0.77036c-1.62765,1.06602 -3.11434,2.33838 -4.70551,3.44031l-0.08932,0.09012c0,0 -0.40869,0.37751 -0.78619,-0.03116z" fill="#cdd0e0" stroke="none" stroke-width="0.5"/><path d="M294.70116,226.16181c0.22571,-0.20849 0.5777,-0.19455 0.78619,0.03116c0.20849,0.22571 0.19453,0.57769 -0.03118,0.78619c-0.22571,0.20849 -0.57769,0.19454 -0.78618,-0.03117c-0.20849,-0.22571 -0.19454,-0.5777 0.03117,-0.78618z" fill="#cdd0e0" stroke="none" stroke-width="0.5"/><g stroke="none" stroke-width="0.5"><path d="M340.11987,220.29427c1.97193,3.10987 5.00875,5.44746 6.99884,8.57642l0.08691,0.13665c0.91561,-0.77396 1.86801,-2.27269 2.96104,-2.35777c1.17575,-0.09153 2.96452,2.35391 2.62387,3.49157c-0.0289,0.09653 -0.94467,0.91381 -1.13734,1.05651c-1.08578,0.80421 -2.28672,1.55058 -3.42424,2.27606c-1.37417,0.874 -2.74774,1.74893 -4.1225,2.622c-0.33137,0.21044 -1.10359,0.75208 -1.48532,0.71567c-1.09253,-0.10419 -2.26909,-2.37767 -2.53791,-3.2963c-0.08778,-0.29996 -0.26433,-0.61889 -0.18067,-0.92002c0.14485,-0.52138 1.28514,-1.18567 1.69697,-1.52617c0,0 0.00032,-0.00026 0.00095,-0.00077l-0.06126,-0.09632c-2.14405,-3.37102 -4.34872,-6.68563 -6.49262,-10.05642c-0.18031,-0.2835 -0.35919,-0.56778 -0.53721,-0.85244c1.40394,-0.71345 2.85288,-1.29301 4.3678,-1.67438c0.4232,0.63291 0.83771,1.269 1.24266,1.90569z" fill="#b0c1ca"/><g><path d="M342.78193,230.50874l-0.30319,-0.4767c-2.07097,-3.25612 -4.11048,-6.42523 -6.72503,-9.24805c-0.26956,-0.30922 -0.52758,-0.62747 -0.77658,-0.95283c0.34243,-0.16539 0.68764,-0.32252 1.03591,-0.47046c0.18379,0.23076 0.37274,0.45734 0.56779,0.679c2.65238,2.87307 4.73251,6.08668 6.83681,9.3952l0.30319,0.4767c0,0 0.29858,0.46945 -0.17086,0.76803l-0.00001,0.00001c-0.46944,0.29858 -0.76803,-0.17087 -0.76803,-0.17087z" fill="#c7d7e0"/><path d="M340.50795,224.17412c0.46944,-0.29858 0.76803,0.17087 0.76803,0.17087l0.02756,0.04334c1.04239,1.63892 2.15756,3.20087 3.20134,4.84197c0,0 0.29858,0.46945 -0.17086,0.76803c-0.46944,0.29858 -0.76803,-0.17087 -0.76803,-0.17087c-1.04378,-1.64111 -2.15873,-3.20271 -3.20134,-4.84197l-0.02756,-0.04334c0,0 -0.29858,-0.46945 0.17086,-0.76803z" fill="#cdd0e0"/><path d="M338.03708,220.32199c0,0 0.37774,0.40847 -0.03072,0.78621c-0.40847,0.37774 -0.78621,-0.03072 -0.78621,-0.03072c-0.50428,-0.54728 -1.06859,-1.01761 -1.582,-1.55352c0.36586,-0.16325 0.73503,-0.31661 1.10787,-0.459c0.42875,0.42029 0.8792,0.81311 1.29107,1.25703z" fill="#cdd0e0"/></g></g><path d="M296.87513,226.94641c0.55205,-0.06901 0.62107,0.48305 0.62107,0.48305l0.04919,0.39529c0.01109,0.07252 0.02323,0.14467 0.03627,0.21649c-0.38217,-0.07449 -0.76708,-0.13859 -1.15437,-0.1933l-0.03521,-0.28047c0,0 -0.06901,-0.55206 0.48305,-0.62107z" fill="#cdd0e0" stroke="none" stroke-width="0.5"/><g stroke="none"><path d="M333.88463,221.76719c-0.21581,-0.05432 -0.16149,-0.27014 -0.16149,-0.27014l0.09884,-0.23956c0.94079,-0.84544 2.25716,-1.35986 3.33629,-1.99615c0.43036,-0.0986 0.99417,-0.37308 1.43205,-0.29968c0.07762,0.01302 0.18683,0.05272 0.30152,0.10422c-0.30601,-0.31696 -0.67155,-0.76585 -0.932,-1.08484l-0.15373,-0.06291c-0.04393,-0.01743 -0.08268,-0.04893 -0.1088,-0.09262c-0.06307,-0.1055 -0.02867,-0.24215 0.07682,-0.30521c0.05274,-0.03153 0.11329,-0.03869 0.16852,-0.02479l0.32242,0.08116c0.25594,0.06469 0.53258,0.26144 0.67022,0.37114c-0.35599,-0.35653 -0.40537,-1.03665 -0.89784,-1.27657c-0.07778,-0.03243 -0.17007,-0.04162 -0.23335,-0.09728c-0.91825,-0.80735 0.34926,-0.65507 0.8099,-0.57037c-0.12008,-0.08452 -0.26567,-0.23065 -0.27215,-0.2366c-0.18922,-0.17357 -0.39674,-0.36597 -0.66366,-0.4169c-0.44307,-0.08454 -1.55766,0.27569 -1.91731,0.49465c-1.59897,0.57415 -2.96249,1.8611 -4.58914,2.29645c0,0 -0.21504,0.05732 -0.27236,-0.1577c-0.05733,-0.21503 0.15771,-0.27236 0.15771,-0.27236c1.59832,-0.42421 2.93493,-1.71558 4.51417,-2.26906c0.96524,-0.56764 2.82766,-0.85223 3.45837,0.35626c0.42822,0.82048 -0.30366,0.67676 -0.72554,0.5271c0.36327,0.30504 1.46584,1.56648 1.22049,1.89331c-0.09836,0.13102 -0.27594,0.14302 -0.47489,0.10335c0.43655,0.4223 0.84111,0.95871 0.77347,1.19076c-0.04749,0.16293 -0.20578,0.30873 -0.37063,0.34907c-0.24957,0.06108 -0.67961,-0.40827 -0.94849,-0.4636c-0.32825,-0.06756 -0.84906,0.20716 -1.18155,0.27671c-1.02382,0.62135 -2.30953,1.09576 -3.20167,1.91229l0.03391,0.01839c0,0 -0.05432,0.21581 -0.27013,0.16149z" fill="#6b767b" stroke-width="0.5"/><path d="M333.85034,221.49478c0,0 -0.9928,-1.5691 -1.39142,-2.23591c-0.32695,-0.54691 -0.73124,-1.58975 -0.73124,-1.58975c0,0 4.25621,-2.31035 5.42004,-2.63852c0.48976,-0.1381 1.51796,0.68217 1.51796,0.68217c0,0 -0.30905,1.20987 0.20409,1.83638c0.50059,0.61119 0.01651,1.37335 0.01651,1.37335c0,0 -1.85229,0.42283 -2.66867,0.83982c-0.85999,0.43928 -2.36728,1.73246 -2.36728,1.73246z" fill="#606a6e" stroke-width="0"/><path d="M332.15744,218.6255c-0.1571,-0.15762 0.0005,-0.31473 0.0005,-0.31473l0.18022,-0.17026c0.26905,-0.16084 0.5381,-0.32168 0.80716,-0.48252c1.35119,-0.80775 2.85754,-1.01993 4.33207,-1.54387c0,0 0.2097,-0.07451 0.28421,0.1352c0.07451,0.2097 -0.13519,0.28421 -0.13519,0.28421c-1.44639,0.51393 -2.93,0.71577 -4.25271,1.5065c-0.26905,0.16084 -0.5381,0.32168 -0.80716,0.48252l-0.09438,0.10347c0,0 -0.15761,0.15711 -0.31472,-0.00051z" fill="#303537" stroke-width="0.5"/><path d="M332.68595,220.16397c-0.11419,-0.19101 0.07682,-0.3052 0.07682,-0.3052l0.04547,-0.02215c0.24315,-0.22033 0.44572,-0.46452 0.68653,-0.68432c1.04334,-0.93759 3.01831,-1.74308 4.40059,-1.59783c0,0 0.22132,0.02326 0.19807,0.24458c-0.02326,0.22132 -0.24458,0.19807 -0.24458,0.19807c-1.24646,-0.13098 -3.11632,0.62568 -4.05521,1.48499c-0.24124,0.21674 -0.44392,0.46447 -0.68653,0.68432l-0.11597,0.07436c0,0 -0.19101,0.11419 -0.3052,-0.07682z" fill="#303537" stroke-width="0.5"/></g><path d="M336.20748,197.43223c0.05703,0.19959 0.0183,0.34599 -0.05266,0.45111l-0.03104,0.16689c0,1.00428 0,2.00856 0,3.01284c0,0.72347 0.03643,1.34894 -0.19197,2.05046c-0.46724,1.43508 -1.36648,2.25274 -2.49516,2.68755v0.14767c0,1.88327 0.49504,4.62498 -1.90119,5.0335c-0.46833,0.00107 -0.92542,-0.0222 -1.3775,-0.05732c-0.00553,0.05522 -0.01027,0.11027 -0.01424,0.16516c-1.45507,-0.10772 -2.69168,-0.3927 -4.20326,-0.78708c0,0 -0.21337,-0.05334 -0.28988,0.14017c-0.4022,-0.11575 -0.77605,-0.30044 -1.06794,-0.60545c-1.17175,-1.22439 -1.11708,-2.99635 -1.28606,-4.57128c-1.7658,-0.32363 -3.59285,-0.35032 -5.42555,-0.33968c0.02344,0.12856 0.00208,0.23537 0.00208,0.23537l-0.07403,0.35947c-0.22076,1.94277 -0.4986,3.60234 -2.50322,3.87566c0.01347,0.03934 0.02651,0.07872 0.03913,0.11814c-0.23454,0.01296 -0.47043,0.01479 -0.70573,0.01479c-1.46046,0 -3.34103,0.43575 -4.84535,0.04331c-0.00333,-0.04927 -0.00615,-0.09852 -0.00845,-0.14775c-0.36151,-0.06865 -0.70351,-0.16721 -1.01362,-0.30557c-0.03557,-0.02435 -0.07069,-0.04958 -0.10535,-0.07573c0,0 -0.06787,-0.0509 -0.15419,-0.05387c-0.38434,-0.21429 -0.70671,-0.50311 -0.93849,-0.88931c-0.78747,-1.31211 -0.48896,-3.16189 -0.48266,-4.63054c-1.63022,-1.63705 -1.41826,-5.0258 -1.1343,-7.04633c0,0 0.06413,-0.44892 0.48189,-0.47827c0.28606,-0.16467 0.58616,0.04969 0.58616,0.04969c2.1287,1.5205 5.04326,1.38896 7.57377,1.74952c1.28314,0.18283 2.59522,0.49586 3.89414,0.4909c4.9269,0 9.90589,0.21333 14.7507,-0.41803c0.61664,-0.13691 1.12832,-0.30473 1.69297,-0.58872l0.3697,-0.11181c0.09647,-0.08326 0.23807,-0.13918 0.44413,-0.10484c0.16286,0.02714 0.26933,0.09457 0.33854,0.17597c0.05311,0.05852 0.09835,0.13747 0.12861,0.24339z" fill="#b0c1ca" stroke="none" stroke-width="0.5"/><path d="M308.22416,203.62c0.27223,0.27223 0.1677,0.54447 0.07748,0.68634c-0.29094,1.7369 0.12009,2.98039 1.87637,3.60116c0,0 0.52286,0.19013 0.33273,0.71299c-0.19013,0.52286 -0.71299,0.33274 -0.71299,0.33274c-2.30751,-0.85762 -2.98383,-2.64049 -2.56574,-4.98798l0.20534,-0.34524c0,0 0.39341,-0.39341 0.78681,0z" fill="#c7d7e0" stroke="none" stroke-width="0.5"/><path d="M307.00899,196.93433c0.55635,0 0.55636,0.55635 0.55636,0.55635v0.20544c0,1.58566 0.35411,2.64881 0.89098,4.1241c0,0 0.19012,0.52286 -0.33273,0.71299c-0.52286,0.19013 -0.71299,-0.33274 -0.71299,-0.33274c-0.57556,-1.58401 -0.95798,-2.79844 -0.95798,-4.50437v-0.20544c0,0 0,-0.55635 0.55635,-0.55635z" fill="#c7d7e0" stroke="none" stroke-width="0.5"/><path d="M308.95733,202.43776c-0.4274,0.35617 -0.78358,-0.07124 -0.78358,-0.07124l-0.34295,-0.45034c-0.6492,-1.5633 -0.96626,-2.5944 -0.81091,-4.32179c0,0 0.05036,-0.55408 0.60444,-0.5037c0.55407,0.05037 0.5037,0.60444 0.5037,0.60444c-0.14587,1.58593 0.13265,2.36412 0.72988,3.79309l0.17065,0.16598c0,0 0.35617,0.4274 -0.07124,0.78357z" fill="#cdd0e0" stroke="none" stroke-width="0.5"/><path d="M310.97326,207.80073c-0.29487,0.47179 -0.76666,0.17692 -0.76666,0.17692l-0.30615,-0.20573c-1.72415,-0.63459 -1.71658,-1.62002 -1.85374,-3.2501c0,0 -0.0462,-0.55444 0.50823,-0.60064c0.55443,-0.0462 0.60063,0.50823 0.60063,0.50823c0.10024,1.2139 -0.12355,1.84929 1.12514,2.29679l0.51561,0.30787c0,0 0.4718,0.29487 0.17692,0.76666z" fill="#cdd0e0" stroke="none" stroke-width="0.5"/><path d="M323.85507,204.27879c0.55635,0 0.55635,0.55636 0.55635,0.55636v0.10272c-0.00097,1.53089 0.60088,2.62614 1.36229,3.93118c0,0 0.28033,0.48056 -0.20024,0.7609c-0.48057,0.28034 -0.7609,-0.20023 -0.7609,-0.20023c-0.86185,-1.47773 -1.51283,-2.75105 -1.51387,-4.49185v-0.10272c0,0 0.00001,-0.55636 0.55636,-0.55636z" fill="#cdd0e0" stroke="none" stroke-width="0.5"/><path d="M308.20226,196.49683c0,0 -1.65563,-19.85247 -2.40662,-31.15908c1.57515,0.81106 3.54837,1.29441 4.69443,1.29441c2.42848,1.23205 6.81687,1.36104 9.46971,1.69581c3.3989,0.06364 6.80258,0.01525 10.20206,0.01525c2.30188,0 4.70164,-0.30869 6.98581,-0.833c0.00565,0.36883 0.00649,0.74374 0.00158,1.12447c-0.05526,4.28593 -0.94731,9.08451 -1.15863,13.52263c-0.39713,8.34034 -0.19302,15.40772 -0.19302,15.40772z" fill="#ffbb00" stroke="none" stroke-width="0"/><path d="M337.34287,168.75302c-0.84449,-0.09383 -0.97246,-0.76089 -0.98578,-1.071c0.77345,-0.15872 1.53668,-0.34285 2.28163,-0.5489l-0.06706,0.63687c0,0 -0.12288,1.10591 -1.22879,0.98303z" fill="#c5d8e2" stroke="none" stroke-width="0.5"/><path d="M305.73233,166.05636c-1.0911,0.21822 -1.30933,-0.87288 -1.30933,-0.87288l-0.10086,-0.51624c-0.01584,-0.1188 -0.03171,-0.23702 -0.04749,-0.35476c0.55703,0.5161 1.32685,0.96461 2.15618,1.32607c-0.13075,0.18616 -0.34648,0.34742 -0.69849,0.41782z" fill="#c5d8e2" stroke="none" stroke-width="0.5"/><path d="M305.60699,167.58855c-1.11271,0 -1.11271,-1.11272 -1.11271,-1.11272l0.00552,-0.35779c-0.03905,-0.39042 -0.07808,-0.78086 -0.11713,-1.17128c0,0 -0.0229,-0.22899 0.05627,-0.48911c0.60343,0.50932 1.41003,0.94747 2.26077,1.29426c0.00482,0.04823 0.00965,0.09646 0.01447,0.1447l0.00553,0.57923c0,0 0,1.11272 -1.11272,1.11272z" fill="#c5d8e2" stroke="none" stroke-width="0.5"/><path d="M307.48103,195.93349c-1.11271,0 -1.11271,-1.11271 -1.11271,-1.11271l0.00114,-1.2217c0.26887,-2.9473 0.89281,-5.63266 0.59002,-8.62344c0,0 -0.03292,-0.32922 0.11665,-0.64656c-0.17281,-0.63702 -0.33948,-1.25758 -0.34658,-1.30765c-0.2276,-1.60389 0.05443,-3.2618 -0.22847,-4.8812c-0.22143,-1.26754 -0.66413,-2.50145 -0.8255,-3.7849c-0.1701,-1.35287 -0.39036,-2.64086 -0.58387,-3.96981c-0.20316,-1.39519 0.20192,-2.02232 -0.47996,-3.29493c0,0 -0.49763,-0.99524 0.49761,-1.49286c0.99524,-0.49762 1.49286,0.49762 1.49286,0.49762c0.22445,0.47108 0.55264,0.90558 0.67334,1.41325c0.19691,0.82819 -0.11265,1.71256 0.01797,2.55375c0.39858,2.56694 0.95574,5.13152 1.4017,7.70615c0.28476,1.64407 0.00639,3.3357 0.24004,4.95753c0.11993,0.83249 0.45211,1.62028 0.67341,2.43173l0.23064,0.80698c0,0 0.27205,0.9522 -0.59545,1.31667c-0.07708,2.14664 -0.45151,4.21187 -0.65128,6.4185l0.00114,1.12086c0,0 0,1.11271 -1.11271,1.11271z" fill="#e3a500" stroke="none" stroke-width="0.5"/><path d="M336.14569,197.52634c-1.06579,0.31974 -1.38552,-0.74606 -1.38552,-0.74606l-0.3771,-1.27479c-0.30794,-2.99504 -0.1846,-6.37785 0.45591,-9.35592c-0.00862,-0.06986 -0.00861,-0.11339 -0.00861,-0.11339v-0.23426c0.00251,-2.02715 -0.56475,-3.86179 -0.46737,-5.90681c0.08917,-1.87268 0.56717,-3.52792 0.96166,-5.34135c0.48405,-2.22519 0.61177,-4.39544 0.79796,-6.64766c0,0 0.00622,-0.0747 0.03483,-0.18371c0.65846,-0.13109 1.31004,-0.28074 1.94981,-0.4468c0.27166,0.35254 0.2331,0.81531 0.2331,0.81531c-0.19729,2.34751 -0.33801,4.62012 -0.84184,6.93917c-0.3677,1.69246 -0.82919,3.21891 -0.91237,4.96589c-0.08594,1.80469 0.36513,3.45549 0.45449,5.2329c0.21183,0.39187 0.09906,0.84294 0.09906,0.84294c-0.71149,2.77107 -0.849,6.1414 -0.57363,9.00126l0.32567,1.06776c0,0 0.31974,1.06579 -0.74605,1.38552z" fill="#e3a500" stroke="none" stroke-width="0.5"/><path d="M337.32389,166.88963c0.06469,0.00539 0.12529,0.01424 0.18206,0.02613c-0.34007,0.08293 -0.68307,0.16104 -1.02827,0.23403c0.17884,-0.17068 0.44648,-0.29348 0.84621,-0.26016z" fill="#c5d8e2" stroke="none" stroke-width="0.5"/><path d="M337.02632,195.32286c0.55206,0.9661 -0.41405,1.51817 -0.41405,1.51817l-0.70432,0.39257c-0.20077,0.15057 -2.1855,1.63959 -2.19573,1.64427c-1.56488,0.71604 -3.83136,0.33519 -5.49957,0.33519c-5.5147,0 -10.79078,-0.90427 -16.26356,-1.41003c-1.86723,-0.17256 -4.65295,0.67264 -5.82542,-1.45259c-0.28301,-0.51298 0.01062,-1.17168 0.01592,-1.75752c0,0 0.11072,-1.10719 1.21791,-0.99647c1.10719,0.11072 0.99647,1.21791 0.99647,1.21791c-0.07277,0.19502 -0.27453,0.38462 -0.21834,0.58504c0.12591,0.44905 0.92076,0.1725 1.38699,0.18384c1.36892,0.0333 2.6041,0.06581 3.96069,0.24272c4.91376,0.64081 9.77512,1.16167 14.72933,1.16167c1.23406,0 3.42638,0.4411 4.57343,-0.13332c0.6767,-0.33889 1.18118,-0.94694 1.78661,-1.40105l0.93546,-0.54445c0,0 0.96611,-0.55206 1.51817,0.41405z" fill="#c5d8e2" stroke="none" stroke-width="0.5"/><path d="M307.04035,173.47013c0,0.55635 -0.55636,0.55636 -0.55636,0.55636l-0.0633,-0.00164c-1.4002,0.1069 -2.73958,0.07648 -4.09959,-0.29635c-0.52443,-0.2418 -0.91524,-0.3392 -1.27185,-0.83758c-0.75099,-1.04958 -0.84688,-3.29414 -0.79059,-4.53269c0.00978,-0.21525 0.11731,-1.31115 0.18364,-1.42497c0.782,-1.34185 3.00887,-1.60835 4.34351,-1.48828c0,0 0.55407,0.05037 0.5037,0.60445c-0.05037,0.55408 -0.60444,0.5037 -0.60444,0.5037c-0.92251,-0.08481 -2.72467,0.01647 -3.28652,0.94909c-0.14254,0.2366 -0.02732,1.17987 -0.02774,1.46407c-0.00182,1.24349 0.09192,3.16565 1.32812,3.71561c1.20011,0.32513 2.40313,0.32914 3.63642,0.23351l0.14865,-0.00163c0,0 0.55636,0 0.55636,0.55635z" fill="#b0c1ca" stroke="none" stroke-width="0.5"/><path d="M356.96511,191.2358c0.12547,0.6002 0.93348,1.05591 1.13784,1.63867c0.34842,0.9935 -0.7481,0.79574 -1.29993,0.58822c-0.9158,-0.34439 -2.22887,-2.94441 -1.34665,-3.3903c-0.02356,-0.06151 -0.04288,-0.12803 -0.05752,-0.19968l-0.0589,-0.10262c-0.78536,-1.40054 -2.27998,-2.45476 -3.3133,-3.67191c-1.33954,-1.57784 -2.60161,-2.98513 -4.15543,-4.38345c0.90336,-0.19941 1.47878,-0.88584 2.44581,-1.23235c0.70203,0.76954 1.59338,1.34192 2.29662,2.13657c1.54569,1.74662 3.05979,3.36445 4.3079,5.34303c0.38465,-0.15598 0.72977,-0.17462 0.87947,0.07014c0.20122,-0.01666 0.40526,-0.00554 0.59403,0.03875c0.54067,0.12685 3.42079,1.76954 1.5057,2.1564c-0.03754,0.00759 -0.07697,0.00868 -0.11488,0.0032c-0.62842,-0.09094 -1.16778,-0.32921 -1.6963,-0.50147c-0.01694,0.02975 -0.0369,0.05904 -0.06024,0.08778c-0.3153,0.38827 -0.73955,0.66386 -1.15666,0.78823c0.02978,0.21615 0.05147,0.43472 0.09246,0.6308zM350.89747,182.43097c-0.52606,-0.47747 -1.03115,-0.82515 -1.48618,-1.31c-0.08316,0.09136 -0.17947,0.17047 -0.28498,0.2368c1.35848,1.27761 2.5176,2.58704 3.7432,4.014c0.94133,1.09599 2.16985,2.06635 3.03937,3.24567c0.02339,-0.02124 0.0473,-0.04236 0.07164,-0.06331c-1.38259,-2.22036 -3.15121,-4.36975 -5.08305,-6.12314z" fill="#b0c1ca" stroke="none" stroke-width="0.5"/><path d="M349.05361,182.03042c-0.03284,0.03229 -0.06533,0.05998 -0.09687,0.08239c-0.54381,0.38635 -1.51172,0.2558 -1.9732,-0.19512c-0.43203,-0.42216 -0.58449,-0.8755 -0.54686,-1.31368c-0.41373,-0.38917 -0.81921,-0.73868 -1.19174,-1.20078c-2.56267,-2.55724 -4.37871,-6.07159 -7.35637,-8.14213c0,0 -0.45579,-0.31905 -0.13674,-0.77483c0.31905,-0.45578 0.77483,-0.13673 0.77483,-0.13673c3.05267,2.14933 4.91814,5.67704 7.54738,8.31161c0.26246,0.33084 0.54388,0.59638 0.83362,0.86403c0.12283,-0.15391 0.26439,-0.29854 0.41857,-0.43077c-0.54318,-0.47447 -0.96101,-1.00878 -1.44887,-1.56707c-1.22398,-1.75543 -2.65368,-3.39656 -3.89216,-5.15003c-0.80673,-1.14219 -1.76542,-3.13367 -3.10933,-3.68663c0,0 -0.50841,-0.22595 -0.28245,-0.73436c0.22596,-0.50841 0.73436,-0.28244 0.73436,-0.28244c1.58562,0.74001 2.59099,2.67893 3.56755,4.06331c1.22649,1.73868 2.63821,3.36799 3.85779,5.10375c0.51717,0.59026 0.93147,1.15418 1.56515,1.62696l0.01582,0.01529c0.2875,-0.11371 0.57664,-0.18004 0.84267,-0.18617c0,0 0.14566,0.00001 0.28791,0.07453c0.25732,1.20825 1.06057,1.98735 0.52837,3.32358c-0.26023,0.201 -0.60518,0.33197 -0.93946,0.33533z" fill="#b0c1ca" stroke="none" stroke-width="0.5"/><path d="M305.28384,198.29071c-0.17361,-0.2755 -0.17361,-0.58685 -0.17361,-0.58685v-0.48856c0.00087,-1.29442 -0.2196,-3.18255 1.18778,-3.98116c1.15463,-0.65518 3.4435,0.57776 4.64298,0.79895c4.12583,0.76081 8.22574,1.52935 12.43343,1.52935c2.83322,0 5.53193,-0.17386 8.33437,-0.56097c0.80241,-0.11084 3.09131,-0.80843 3.8124,-0.54515c2.02823,0.74054 2.01613,4.40781 0.70231,5.82024c-0.24783,0.26642 -2.0132,0.77205 -2.4575,0.90874c-2.19182,0.67428 -4.12051,0.77713 -6.40161,0.77713c-3.36271,0 -6.86554,0.28099 -10.20898,-0.08769c-3.81466,-0.42065 -7.6692,-1.53719 -11.24037,-2.91046c0,0 -0.5087,-0.19566 -0.6312,-0.67356z" fill="#606a6e" stroke="none" stroke-width="0.5"/><g stroke="none" stroke-width="0.5"><path d="M302.06047,177.49884c-0.00471,-0.22249 0.21779,-0.2272 0.21779,-0.2272c0.26718,-0.00565 0.62342,-0.01319 0.8906,-0.01884c1.79095,-0.03391 2.84437,-1.19185 3.67365,-2.64268c0,0 0.11044,-0.19321 0.30365,-0.08277c0.19321,0.11043 0.08277,0.30364 0.08277,0.30364c-0.90879,1.58997 -2.1073,2.82184 -4.05065,2.8668c-0.26718,0.00565 -0.53437,0.0113 -0.80156,0.01696l-0.08906,0.00189c0,0 -0.22249,0.00471 -0.2272,-0.21779z" fill="#3a53e0"/><path d="M307.72317,174.40569c0.21256,0.06589 0.14667,0.27846 0.14667,0.27846l-0.04791,0.15197c-0.18816,0.45227 -0.48579,0.80287 -0.82464,1.15637c-1.15343,1.20329 -2.98177,2.47692 -4.69265,2.52566c0,0 -0.22249,0.00471 -0.2272,-0.21779c-0.00471,-0.22249 0.21779,-0.2272 0.21779,-0.2272c1.57761,-0.01924 3.32238,-1.28454 4.38075,-2.38867c0.29445,-0.30718 0.57937,-0.61855 0.73324,-1.01501l0.03549,-0.11711c0,0 0.06589,-0.21257 0.27846,-0.14668z" fill="#3ae054"/><path d="M305.74722,175.36449c0.18774,0.1195 0.06823,0.30724 0.06823,0.30724l-0.18515,0.28887c-0.33297,0.32712 -0.81535,0.39164 -1.25984,0.23116c-0.20598,-0.07437 -0.40583,-0.47683 -0.56818,-0.32985c-0.13805,0.12499 0.15394,0.608 0.10114,0.77142c-0.22322,0.69085 -0.88501,0.33261 -1.3182,0.44896c0,0 -0.21725,0.04826 -0.2655,-0.16899c-0.04825,-0.21725 0.16899,-0.26551 0.16899,-0.26551c0.18363,-0.03576 0.90451,0.1732 0.98609,-0.1344c0.09869,-0.37214 -0.44754,-0.61941 0.06346,-1.00979c0.54113,-0.41342 1.24513,0.77251 1.74195,0.18217l0.15978,-0.25303c0,0 0.1195,-0.18774 0.30724,-0.06824z" fill="#e03a3a"/></g><g stroke="none"><path d="M301.66612,217.09292c-0.05311,-0.21611 0.163,-0.26922 0.163,-0.26922l0.25795,-0.0249c1.18766,0.43511 2.25881,1.35711 3.3265,2.01243c0.28872,0.33402 0.79534,0.70356 0.93563,1.12481c0.02486,0.07467 0.04094,0.18975 0.04916,0.3152c0.13667,-0.41884 0.36203,-0.95209 0.52183,-1.33161l-0.01643,-0.1653c-0.00518,-0.04698 0.00449,-0.09597 0.03086,-0.13951c0.06366,-0.10514 0.20049,-0.13876 0.30562,-0.0751c0.05257,0.03182 0.08726,0.08195 0.10085,0.13726l0.07934,0.32287c0.06275,0.25643 0.01852,0.593 -0.01392,0.76599c0.14822,-0.48153 0.72597,-0.84377 0.70722,-1.39126c-0.00779,-0.0839 -0.0429,-0.16975 -0.02338,-0.25172c0.28311,-1.18947 0.74236,0.00168 0.88332,0.44833c0.01842,-0.14568 0.07932,-0.34276 0.08154,-0.35127c0.06471,-0.24848 0.13746,-0.52196 0.05742,-0.78164c-0.13287,-0.43105 -0.97327,-1.24702 -1.3352,-1.46218c-1.25631,-1.14369 -3.03209,-1.74544 -4.17874,-2.9786c0,0 -0.15138,-0.16313 0.01175,-0.3145c0.16312,-0.15138 0.3145,0.01174 0.3145,0.01174c1.12354,1.21336 2.8906,1.78925 4.11941,2.9252c0.95368,0.58686 2.0776,2.09895 1.30539,3.22231c-0.52428,0.76269 -0.74016,0.04876 -0.80557,-0.39407c-0.09932,0.46384 -0.69726,2.02888 -1.10095,1.96523c-0.16183,-0.02552 -0.25562,-0.17678 -0.31378,-0.37113c-0.16859,0.58352 -0.45297,1.19223 -0.68966,1.24119c-0.16619,0.03438 -0.36915,-0.03717 -0.48203,-0.16392c-0.17087,-0.19188 0.04232,-0.79169 -0.03475,-1.05517c-0.09409,-0.32165 -0.58077,-0.65307 -0.79797,-0.91425c-1.02858,-0.61344 -2.05003,-1.5271 -3.18935,-1.93277l-0.00036,0.03857c0,0 -0.21611,0.0531 -0.26922,-0.163z" fill="#6b767b" stroke-width="0.5"/><path d="M301.89072,216.935c0,0 0.92118,-1.6122 1.32355,-2.27675c0.33003,-0.54506 1.06195,-1.39078 1.06195,-1.39078c0,0 4.03504,2.67797 4.87019,3.55245c0.35144,0.368 0.10843,1.66066 0.10843,1.66066c0,0 -1.21368,0.29375 -1.5268,1.0406c-0.30546,0.72859 -1.2056,0.65795 -1.2056,0.65795c0,0 -1.2413,-1.43838 -1.99215,-1.96429c-0.79096,-0.55399 -2.63958,-1.27984 -2.63958,-1.27984z" fill="#606a6e" stroke-width="0"/><path d="M303.63261,214.09519c0.06566,-0.21264 0.27829,-0.14699 0.27829,-0.14699l0.23485,0.07946c0.26814,0.16235 0.53628,0.32471 0.80442,0.48707c1.34662,0.81535 2.23976,2.04676 3.39342,3.10404c0,0 0.16407,0.15037 0.01371,0.31443c-0.15036,0.16406 -0.31443,0.01371 -0.31443,0.01371c-1.13162,-1.03709 -2.00496,-2.25328 -3.32321,-3.05145c-0.26814,-0.16235 -0.53629,-0.32471 -0.80443,-0.48707l-0.13562,-0.03492c0,0 -0.21265,-0.06565 -0.14699,-0.27829z" fill="#303537" stroke-width="0.5"/><path d="M302.52098,215.28287c0.11526,-0.19037 0.30562,-0.0751 0.30562,-0.0751l0.04087,0.02979c0.30856,0.1116 0.6192,0.17617 0.92619,0.28596c1.31711,0.48254 2.95396,1.85005 3.47318,3.13932c0,0 0.08315,0.20643 -0.12329,0.28957c-0.20643,0.08313 -0.28957,-0.1233 -0.28957,-0.1233c-0.4682,-1.16259 -2.01267,-2.4601 -3.2117,-2.88703c-0.3045,-0.11159 -0.61832,-0.17461 -0.92619,-0.28595l-0.12002,-0.06762c0,0 -0.19036,-0.11526 -0.0751,-0.30562z" fill="#303537" stroke-width="0.5"/></g><path d="M338.27612,167.17881c0,0.99605 -7.38246,1.8035 -16.48918,1.8035c-9.10672,0 -16.48918,-0.80746 -16.48918,-1.8035c0,-0.39775 -2.02902,-2.6548 -0.03491,-2.953c2.99961,-0.44855 11.85545,-1.42694 17.32564,-1.42694c9.10672,0 15.68762,3.38389 15.68762,4.37994z" fill="#ffbb00" stroke="none" stroke-width="0"/><path d="M307.02872,169.0575c1.69752,4.50184 -4.3459,6.52142 -5.88492,2.31297c-1.02594,-2.80543 0.17852,-5.4545 2.06283,-5.52149c0.15751,-0.02946 0.32035,-0.0449 0.48699,-0.0449c1.21292,0 2.2241,0.81812 2.45195,1.90353c0.2613,0.34596 0.52192,0.7453 0.7792,1.20221z" fill="#a1b9c7" stroke="none" stroke-width="0.5"/><path d="M296.6391,236.72634v-111.84076h47.29829v111.84077z" fill="none" stroke-opacity="0.01176" stroke="#ffffff" stroke-width="0.5"/><path d="M296.6391,236.72634v-111.84076h47.29829v111.84077z" fill="none" stroke-opacity="0.01176" stroke="#ffffff" stroke-width="0.5"/><path d="M313.72137,163.31156c0.42912,-0.05998 0.8747,-0.04188 1.34189,-0.02503c0.90703,-0.21419 1.81457,-0.43736 2.74707,-0.56898c4.465,-0.00782 8.4466,0.36606 12.79253,1.07804c0.80147,0.13612 2.6593,0.07624 3.10171,0.96607c0.38534,0.77503 -0.41795,2.38608 -0.54795,3.13165c-0.49067,2.81393 -2.34949,4.42986 -4.48642,6.25695c-1.63281,1.00282 -2.93961,2.43341 -4.80172,3.08763c-2.63249,0.92487 -5.55162,-1.23 -7.2943,-2.98898c-1.65255,-2.72702 -4.77702,-6.90558 -4.78586,-10.15512c0,0 0,-0.28229 0.21211,-0.42265c0.05728,-0.21303 0.25177,-0.36985 0.48289,-0.36985h0.68249c0.20999,0 0.39097,0.00263 0.55555,0.01027z" fill="#ffffff" stroke="none" stroke-width="0.5"/><path d="M310.24085,176.37868c0,0 9.28276,2.53498 12.38239,2.53498c3.26202,0 9.06742,-2.33998 9.06742,-2.33998c0,0 -5.57145,4.33327 -8.86988,4.30328c-3.78448,-0.0344 -12.57993,-4.49828 -12.57993,-4.49828z" fill="#e3a500" stroke="none" stroke-width="0"/><path d="M310.17089,180.40369c0,0 9.28276,2.53498 12.38239,2.53498c3.26202,0 9.06742,-2.33998 9.06742,-2.33998c0,0 -5.57145,4.33327 -8.86988,4.30328c-3.78448,-0.0344 -12.57993,-4.49828 -12.57993,-4.49828z" fill="#e3a500" stroke="none" stroke-width="0"/><path d="M310.88093,184.81869c0,0 9.28276,2.53498 12.38239,2.53498c3.26202,0 9.06742,-2.33998 9.06742,-2.33998c0,0 -5.57145,4.33327 -8.86988,4.30328c-3.78448,-0.0344 -12.57993,-4.49828 -12.57993,-4.49828z" fill="#e3a500" stroke="none" stroke-width="0"/><path d="M311.20097,188.55121c0,0 9.28276,2.53498 12.38239,2.53498c3.26202,0 9.06742,-2.33998 9.06742,-2.33998c0,0 -5.57145,4.33327 -8.86988,4.30328c-3.78448,-0.0344 -12.57993,-4.49828 -12.57993,-4.49828z" fill="#e3a500" stroke="none" stroke-width="0"/></g></g></svg>