<svg version="1.1" xmlns="http://www.w3.org/2000/svg" xmlns:xlink="http://www.w3.org/1999/xlink" width="53.17647" height="53.17647" viewBox="0,0,53.17647,53.17647"><g transform="translate(-213.41176,-153.41177)"><g data-paper-data="{&quot;isPaintingLayer&quot;:true}" fill-rule="nonzero" stroke-width="2" stroke-linecap="butt" stroke-linejoin="miter" stroke-miterlimit="10" stroke-dasharray="" stroke-dashoffset="0" style="mix-blend-mode: normal"><path d="M218.41176,205.58824c-2.20914,0 -4,-1.79086 -4,-4v-43.17647c0,-2.20914 1.79086,-4 4,-4h43.17647c2.20914,0 4,1.79086 4,4v43.17647c0,2.20914 -1.79086,4 -4,4z" fill="#00ff1a" stroke="#0e8500"/><path d="M216.89978,179.74999c0,-12.61983 10.23039,-22.85022 22.85022,-22.85022c12.61983,0 22.85022,10.23039 22.85022,22.85022c0,12.61983 -10.23039,22.85023 -22.85022,22.85023c-12.61983,0 -22.85022,-10.23039 -22.85022,-22.85023zM239.63999,197.48907c15.71161,0.07777 17.33327,-14.69862 17.33327,-14.69862h-33.69588c0,0 1.20641,14.62359 16.36261,14.69862zM248.08471,175.72312c1.70678,0 3.09039,-1.38362 3.09039,-3.09039c0,-1.70678 -1.38362,-3.09039 -3.09039,-3.09039c-1.70678,0 -3.09039,1.38362 -3.09039,3.09039c0,1.70678 1.38362,3.09039 3.09039,3.09039zM231.4153,175.72312c1.70678,0 3.09039,-1.38362 3.09039,-3.09039c0,-1.70678 -1.38362,-3.09039 -3.09039,-3.09039c-1.70678,0 -3.09039,1.38362 -3.09039,3.09039c0,1.70678 1.38362,3.09039 3.09039,3.09039z" fill="#b5ffb2" stroke="#00ff22"/></g></g></svg>