<svg version="1.1" xmlns="http://www.w3.org/2000/svg" xmlns:xlink="http://www.w3.org/1999/xlink" width="65.31093" height="65.31093" viewBox="0,0,65.31093,65.31093"><g transform="translate(-287.41567,-149.72112)"><g data-paper-data="{&quot;isPaintingLayer&quot;:true}" fill-rule="nonzero" stroke-linejoin="miter" stroke-miterlimit="10" stroke-dasharray="" stroke-dashoffset="0" style="mix-blend-mode: normal"><path d="M289.66567,212.78206v-60.81093h60.81093v60.81093z" fill="#887151" stroke="#6a5940" stroke-width="4.5" stroke-linecap="butt"/><path d="M313.91519,169.01225c0.24419,-0.16552 0.75509,-0.39287 1.26598,0.11802c0.70711,0.70711 0,1.41421 0,1.41421l-0.78511,0.44465c-5.35847,0.01911 -1.80883,-6.54193 -2.98199,-9.63988c-0.72793,-1.92225 -3.4082,-2.82093 -5.09387,-3.59838c0,0 -0.90796,-0.41906 -0.4889,-1.32702c0.41906,-0.90796 1.32701,-0.4889 1.32701,-0.4889c3.43178,1.58498 5.887,2.90554 6.44083,6.89363c0.13786,0.99276 -0.96916,5.90162 0.31605,6.18367z" fill="#735f45" stroke="none" stroke-width="0.5" stroke-linecap="butt"/><path d="M315.32973,168.84773c-0.78935,-0.61394 -0.17541,-1.40329 -0.17541,-1.40329l0.37739,-0.48216c-0.02182,0.0024 -0.04418,0.00432 -0.0671,0.00576c-0.99806,0.06238 -1.06043,-0.93567 -1.06043,-0.93567c-0.10537,-1.73172 -0.36951,-5.14184 1.02339,-6.52702c0.95486,-0.94957 3.87716,-0.59842 3.69583,-1.65625l-0.00023,-0.01873c-1.69034,-0.22171 -3.6885,0.05582 -5.31585,-0.41419c0,0 -0.96,-0.28 -0.68,-1.24c0.28,-0.96 1.24,-0.68 1.24,-0.68c2.06908,0.61005 5.02884,-0.12548 6.86041,0.8219c2.54893,1.31845 1.33261,4.05293 2.62223,6.08879c0.68105,1.07513 3.35993,-2.48478 3.6037,-2.71712l0.60582,-0.51573c0,0 0.76281,-0.64662 1.40943,0.1162c0.64661,0.76282 -0.1162,1.40943 -0.1162,1.40943l-0.51973,0.43837c-1.49057,1.41844 -3.98274,5.2005 -6.40886,2.67132c-0.86678,-0.9036 -0.74685,-3.84354 -1.46008,-5.12286c-0.70022,2.33125 -2.49234,0.57764 -4.04017,2.14593c-0.93766,0.95005 -0.60008,3.8861 -0.52357,5.07518c0,0 0.00041,0.00656 0.00063,0.01865c0.175,-0.19016 0.36831,-0.34264 0.61514,-0.38497c0.86204,-0.14783 1.48146,0.04863 1.94375,0.45612c0.00732,-0.07259 0.02239,-0.14992 0.0466,-0.23223c0.28217,-0.95936 1.24153,-0.6772 1.24153,-0.6772c1.76306,0.52769 4.61581,1.23331 6.36539,0.27616c1.15542,-0.6321 1.41231,-2.99732 2.52173,-3.94076c1.6998,-1.44548 2.93844,-1.96382 4.01692,-4.106l0.15842,-0.66021c0,0 0.26312,-0.96476 1.22788,-0.70165c0.29376,0.08012 0.47368,0.22528 0.58185,0.38846c0.13317,0.07187 0.21445,0.14576 0.21445,0.14576c0.38959,0.45889 1.12961,0.77597 1.16876,1.37665c0.09154,1.4044 -2.16639,3.22994 -2.83377,4.2756c-1.61317,2.52754 -2.56334,7.12672 -5.2379,8.89933c-1.36038,0.90161 -3.14651,1.00074 -4.66129,1.52116l-0.03141,0.0257c0,0 -0.89442,0.44721 -1.34164,-0.44721c-0.44722,-0.89443 0.44721,-1.34164 0.44721,-1.34164l0.27799,-0.129c1.32072,-0.45077 2.97568,-0.50857 4.15638,-1.26336c2.01253,-1.28655 2.98873,-4.83187 4.10373,-7.2169c-0.29929,0.23571 -0.61203,0.48085 -0.93973,0.74645c-1.3465,1.09133 -1.18816,3.17473 -2.73793,4.10343c-2.27939,1.36593 -5.6473,0.65455 -8.02135,-0.03323c0,0 -0.00232,-0.00068 -0.00668,-0.00209c0.74118,1.55963 0.84069,3.90687 1.63902,4.95179c0,0 0.58817,0.80873 -0.22057,1.3969c-0.80874,0.58817 -1.39691,-0.22056 -1.39691,-0.22056c-0.58291,-0.82922 -1.83899,-6.36945 -2.47342,-5.09782l-0.49203,0.6374c0,0 -0.61394,0.78936 -1.40329,0.17541z" fill="#735f45" stroke="none" stroke-width="0.5" stroke-linecap="butt"/><path d="M297.63322,178.32501c0.15443,0.26426 0.29904,0.72806 -0.16475,1.19185c-0.70711,0.70711 -1.41421,0 -1.41421,0l-0.36019,-0.64303c-0.45045,-3.26334 -1.63156,-7.21836 -0.83412,-10.58111c0.29051,-1.22506 1.87235,-1.9634 1.75612,-3.24031c-0.35105,-3.8567 -0.27027,-7.78284 4.77121,-7.50589c0,0 0.99806,0.06238 0.93568,1.06043c-0.06238,0.99805 -1.06043,0.93567 -1.06043,0.93567c-3.79408,-0.27343 -2.6574,2.84032 -2.6542,5.33389c0.00265,2.06116 -1.47512,2.2157 -1.80189,3.8757c-0.60183,3.05736 0.35646,6.58537 0.82679,9.5728z" fill="#735f45" stroke="none" stroke-width="0.5" stroke-linecap="butt"/><path d="M300.00998,178.34014c-1,0 -1,-1 -1,-1l0.00221,-0.53061c0.1836,-2.73379 -1.02623,-4.6086 -1.23724,-7.2103c0,0 -0.07125,-0.99746 0.92621,-1.0687c0.99746,-0.07125 1.0687,0.92621 1.0687,0.92621c0.15368,2.62366 1.42455,4.66642 1.2379,7.48583l0.00221,0.39757c0,0 0,1 -1,1z" fill="#735f45" stroke="none" stroke-width="0.5" stroke-linecap="butt"/><path d="M306.23116,173.90215c-0.0311,0.10885 -0.071,0.20186 -0.11731,0.28122c0.5426,1.4502 0.83534,3.07381 0.03166,4.49014c-0.4096,0.72185 -1.23374,1.15102 -1.636,1.87699c-0.2858,0.51581 -0.22933,1.24295 -0.66646,1.63876c-1.34078,1.21404 -3.91493,0.18063 -5.42371,0.89112c-1.67402,0.7883 -1.19702,5.10301 -0.54546,6.23869c0,0 0.4741,0.88047 -0.40637,1.35457c-0.88047,0.4741 -1.35458,-0.40637 -1.35458,-0.40637c-1.15951,-2.25051 -1.39771,-7.39955 1.31089,-8.92152c0.6296,-0.35378 4.69727,-0.16223 5.09562,-0.65584c1.71274,-2.12235 2.56442,-4.15839 1.30394,-6.79137l1.72098,-1.23262c0,0 0.96152,0.27472 0.6868,1.23624z" fill="#735f45" stroke="none" stroke-width="0.5" stroke-linecap="butt"/><path d="M311.21218,205.2042c0.83205,-0.5547 1.38675,0.27735 1.38675,0.27735l0.32043,0.72022c0.092,1.76045 1.69122,3.93945 -0.21256,5.40622c-2.0188,1.55539 -4.77602,0.59124 -6.94612,1.40314c0,0 -0.94174,0.33634 -1.27808,-0.6054c-0.23073,-0.64603 0.13999,-1.00716 0.39556,-1.17025c-3.25013,-0.02436 -5.96664,-5.41978 -6.62287,-8.71899c-0.13496,-0.67851 -0.14036,-1.34586 -0.11997,-2.00579l-0.32871,0.32234c0,0 -0.1232,0.10779 -0.31351,0.18631l0.18214,1.17204c0,0 0.13216,0.99123 -0.85906,1.12339c-0.99123,0.13216 -1.12339,-0.85906 -1.12339,-0.85906l-0.09188,-0.92084c0.05639,-0.19449 -1.46193,2.12633 -1.65019,3.079c-0.51974,2.63001 -2.30984,4.76744 -2.29984,7.37817c0,0 0,1 -1,1c-1,0 -1,-1 -1,-1c0.00838,-2.57333 1.45294,-3.78768 2.04455,-6.13511c0.40783,-1.61825 0.3869,-3.11652 1.38107,-4.56552c1.09341,-1.59362 2.05116,-2.08985 3.12104,-1.54486c0.10617,-0.25602 0.29207,-0.41868 0.29207,-0.41868l0.83007,-0.68329c0.52633,0.20891 -0.7227,-0.38609 0.00944,-2.24479c0.04091,-0.10387 0.08906,-0.20244 0.14374,-0.29619c-0.60507,-1.057 -1.43281,-2.08209 -2.21017,-3.06422c0.1352,0.70635 0.14999,1.41798 -0.01494,2.13347l-0.13564,0.69487c0,0 -0.19612,0.98058 -1.17669,0.78447c-0.98058,-0.19611 -0.78447,-1.17669 -0.78447,-1.17669l0.17376,-0.85209c0.45006,-1.11322 -0.33933,-1.3628 -0.74526,-2.4601c-0.85879,-2.32147 -2.28034,-4.70638 -2.89871,-6.92318c0,0 -0.24254,-0.97015 0.7276,-1.21268c0.97015,-0.24254 1.21268,0.72761 1.21268,0.72761c0.41226,2.01126 2.02466,4.13177 2.99485,6.31754c0.05786,-0.07438 0.13164,-0.14774 0.22454,-0.21851c0.79543,-0.60604 1.40148,0.18939 1.40148,0.18939c0.90887,1.19348 1.96596,2.44077 2.77449,3.78832c1.24729,-0.61212 2.81048,-0.9663 3.63113,-1.79404c0.50612,-0.51048 -1.19504,-0.8699 -1.55951,-1.48951c-0.33451,-0.56869 -0.47781,-1.29796 -0.35782,-1.94674c0.79813,-4.31545 7.63844,-5.46617 8.03115,-10.27765c0,0 0.10468,-0.99451 1.09919,-0.88982c0.99451,0.10468 0.88982,1.09919 0.88982,1.09919c-0.36239,2.96092 -2.39615,5.08994 -4.58076,7.03169c-1.0269,0.91274 -2.96183,2.04501 -3.47648,3.41993c-0.6317,1.68762 3.11021,1.00474 1.79539,3.83446c-0.74976,1.61362 -3.30779,1.77202 -4.65139,2.66799c0.07963,0.2082 0.15069,0.4189 0.212,0.63225c0.47307,1.64645 -0.15631,3.38588 0.16863,5.01106c0.23176,1.15911 1.04552,2.46362 1.6,3.5072c0.87905,1.65444 2.38388,5.68514 4.59931,2.67891l0.48043,-1.19161c0,0 0.38074,-0.92468 1.30543,-0.54393c0.92468,0.38075 0.54393,1.30542 0.54393,1.30542l-0.60244,1.43823c-0.57549,0.70793 -1.14984,1.19746 -1.71589,1.50368c1.6793,-0.21564 3.44808,0.00111 5.01726,-0.77286c0.57518,-0.2837 -0.48358,-3.22537 -0.52195,-3.72085l0.01104,0.25614c0,0 -0.5547,-0.83205 0.27735,-1.38675z" fill="#735f45" stroke="none" stroke-width="0.5" stroke-linecap="butt"/><path d="M317.18715,182.37515c-0.78087,0.6247 -1.40556,-0.15617 -1.40556,-0.15617l-0.39,-0.56439c-0.19809,-0.26288 -0.30449,-0.94471 -0.59428,-0.78862c-1.00721,0.54251 -0.62226,2.2579 -1.30974,3.17231c-0.74802,0.99493 -2.10167,1.44182 -2.79682,2.47438c-0.4961,0.73691 0.95752,1.51425 1.25342,2.35186c0.39213,1.10998 -0.00592,2.80354 -0.41575,3.79152c-0.96652,2.32999 -4.49545,5.64454 -2.49737,8.24747c0,0 0.5692,0.82219 -0.25299,1.3914c-0.82219,0.56921 -1.3914,-0.25298 -1.3914,-0.25298c-2.41496,-3.72122 0.82935,-6.80683 2.29821,-10.16136c1.1405,-2.60464 -1.85988,-3.74776 -0.86398,-6.0776c0.59311,-1.38754 3.02409,-3.16144 3.91232,-4.60062c0.48347,-0.78335 0.6914,-1.99076 1.56736,-2.27371c0.77301,-0.24969 1.46344,0.70559 2.19517,1.05838l0.84757,0.98257c0,0 0.6247,0.78087 -0.15617,1.40556z" fill="#735f45" stroke="none" stroke-width="0.5" stroke-linecap="butt"/><path d="M341.41272,172.36653c0.87415,0.48565 0.38852,1.3598 0.38852,1.3598l-0.64308,0.99681c-0.94862,0.73985 -2.50798,1.87032 -4.16237,2.73662c0.25725,0.12115 0.52245,0.37093 0.52245,0.8859c0,1 -1,1 -1,1l-1.28691,-0.00557c-1.34073,0.24432 -2.20885,1.48111 -3.4158,2.12614c-1.30832,0.69921 -2.7629,0.98563 -4.12887,1.54093c-0.17964,0.0719 -1.99109,0.63957 -2.38284,1.15335c-1.29951,1.7043 0.33639,4.64417 -0.19348,6.65792c-0.59398,2.25742 -3.30354,4.4336 -5.45612,4.99343c-2.14288,0.55731 -7.02495,0.5745 -6.29433,-2.81985c0.32448,-1.50752 2.50414,-2.92393 3.53542,-3.86145c0,0 0.73993,-0.67267 1.41261,0.06727c0.67268,0.73994 -0.06726,1.41261 -0.06726,1.41261c-0.81865,0.74424 -1.70986,1.4147 -2.46171,2.22636c-0.25655,0.27695 -1.01562,0.79974 -0.6583,0.92159c2.69034,0.91744 5.8777,-0.11658 7.52619,-2.40002c1.87468,-2.59678 -0.92827,-5.7241 1.10795,-8.46295c0.6855,-0.92204 2.25235,-1.36123 3.18048,-1.74174c1.62045,-0.65527 3.3643,-1.74457 5.0772,-2.615c-0.01469,-0.00505 -0.02932,-0.01023 -0.04388,-0.01554c-0.44946,-0.1638 0.04838,-1.04287 -0.2557,-1.41217c-0.54811,-0.66568 -1.70429,-0.26426 -2.55434,-0.40909c-2.77339,-0.47251 -5.56333,-0.80066 -8.36169,-1.07367c0,0 -0.99527,-0.09709 -0.89817,-1.09237c0.0971,-0.99527 1.09238,-0.89818 1.09238,-0.89818c2.84415,0.27748 5.68209,0.60766 8.50018,1.09208c0.91803,0.1578 3.12676,0.5146 3.78821,1.13787c0.25903,0.24409 -0.41409,0.89371 -0.101,1.06297c0.34289,0.18536 0.67831,-0.38462 1.0245,-0.56374c1.93921,-1.00334 4.00604,-1.85838 5.7196,-3.21635l0.1304,-0.39545c0,0 0.48565,-0.87416 1.3598,-0.38851z" fill="#735f45" stroke="none" stroke-width="0.5" stroke-linecap="butt"/><path d="M341.15913,161.40092c-0.1893,0 -0.34276,-0.03583 -0.46717,-0.09393c0.43398,1.34212 -1.1344,1.51797 -1.56646,2.37996c-0.42663,0.85116 0.48799,3.57259 0.39435,4.35384c-0.22253,1.85665 -0.8635,2.04597 -2.1398,3.35452c0,0 -0.70711,0.70711 -1.41422,0c-0.70711,-0.70711 0,-1.41421 0,-1.41421c2.05055,-1.98682 1.23552,-2.37148 1.11079,-4.86599c-0.0381,-0.762 -0.03705,-1.5647 0.23769,-2.27646c0.08977,-0.23256 0.22543,-0.43487 0.37648,-0.60028c-0.27614,-0.04299 -0.85762,-0.22407 -0.85762,-0.98661c0,-1 1,-1 1,-1l0.76738,0.00254c0.4828,0.14257 1.14748,0.05577 1.56981,0.27461c-0.01123,-0.07783 -0.01123,-0.12798 -0.01123,-0.12798l0.10557,-0.98865c0.33326,-0.65879 1.12426,-1.29651 0.93187,-2.0093c-0.64328,-2.38336 -3.24758,-4.24087 0.53175,-5.90224c0,0 0.93335,-0.35898 1.29233,0.57437c0.35898,0.93335 -0.57437,1.29233 -0.57437,1.29233c-2.3014,0.64415 0.48568,2.48846 0.68644,3.53422c0.21821,1.13667 -0.61487,2.46699 -1.07918,3.40506l0.10558,0.09422c0,0 0,1 -1,1z" fill="#735f45" stroke="none" stroke-width="0.5" stroke-linecap="butt"/><path d="M348.49392,169.77881c0,0 0.83205,-0.5547 1.38675,0.27735c0.5547,0.83205 -0.27735,1.38675 -0.27735,1.38675c-1.17401,0.78267 -2.29631,1.63623 -3.46541,2.41994c0.16602,0.28037 0.30839,0.57738 0.39808,0.906c0.24376,0.89311 -0.36615,1.81646 -0.61032,2.70946c-0.2839,1.03831 0.61682,1.39088 0.89946,2.32745c0.64909,2.15081 -0.23647,3.6375 -0.64878,5.67711l0.00486,0.98433c0,0 0,1 -1,1c-1,0 -1,-1 -1,-1l0.00486,-1.18141c0.22866,-1.15342 0.77746,-2.23714 0.92818,-3.40331c0.25126,-1.94407 -1.49963,-2.75176 -1.14158,-4.83522c0.09938,-0.57826 0.89475,-1.08391 0.62725,-1.77672c-0.81457,-2.1097 -2.20887,-2.64084 -1.70067,-5.30103c0.37637,-1.97015 3.65044,-3.63892 3.85065,-5.26171c0.18584,-1.50632 -2.52038,-3.54504 -3.44644,-4.31214c0,0 -0.76822,-0.64019 -0.12804,-1.40841c0.64018,-0.76822 1.40841,-0.12803 1.40841,-0.12803c1.64437,1.37769 4.43406,3.71067 4.13366,6.20719c-0.24687,2.0516 -3.39978,3.32231 -3.88415,5.41232c-0.15586,0.67252 -0.02788,1.21288 0.21844,1.7064c1.16217,-0.77685 2.27627,-1.62907 3.44214,-2.40632z" fill="#735f45" stroke="none" stroke-width="0.5" stroke-linecap="butt"/><path d="M338.83316,198.92023c0,1 -1,1 -1,1l-1.53009,-0.10557c-0.73516,-0.92471 -0.90781,-2.19119 -1.18919,-3.33853c-0.22977,-0.93692 -1.37595,-1.3941 -1.81871,-2.25118c-1.14286,-2.2123 -0.61883,-4.55157 1.22008,-5.46326c-1.17224,-0.22707 -2.49906,-0.5116 -2.63261,-0.66782c-3.56925,-4.17515 4.77543,-6.25522 7.23658,-6.92353c0,0 0.96536,-0.26091 1.22627,0.70445c0.26091,0.96536 -0.70445,1.22628 -0.70445,1.22628c-1.85856,0.49978 -3.63571,1.15172 -5.37144,1.99639c-0.55515,0.27016 -1.51694,1.24546 -0.98922,1.56591c0.90659,0.55051 2.10886,0.23665 3.15303,0.42813h1.09036c0.55228,0 1,0.44771 1,1c0,0.3613 -0.19161,0.67785 -0.47875,0.85358l-1.67472,1.06202l-0.16303,-0.25709c-0.92166,0.83036 -1.77155,1.71086 -1.7812,2.17687c-0.03285,1.58605 2.15922,2.52198 2.56837,3.86839c0.21707,0.71433 -0.15983,1.57808 0.20308,2.23053l0.63566,-0.10557c0,0 1,0 1,1z" fill="#735f45" stroke="none" stroke-width="0.5" stroke-linecap="butt"/><path d="M338.2891,206.14922c0.35113,-0.93633 1.28745,-0.58521 1.28745,-0.58521l0.20529,0.17032c4.08932,-0.1506 1.97892,-5.59874 2.32204,-8.04521c0.39345,-2.80535 2.00947,-4.90138 0.16972,-7.39984c0,0 -0.57346,-0.81923 0.24577,-1.3927c0.81923,-0.57346 1.3927,0.24577 1.3927,0.24577c2.14598,3.18543 0.76432,5.37836 0.16972,8.84323c-0.64313,3.74771 1.86285,9.26003 -4.17519,9.74484l-1.03229,-0.29377c0,0 -0.93633,-0.35112 -0.58521,-1.28745z" fill="#735f45" stroke="none" stroke-width="0.5" stroke-linecap="butt"/><path d="M328.7266,205.03756c-0.31623,0.94869 -1.26491,0.63245 -1.26491,0.63245l-0.51925,-0.1749c-2.88013,-1.18256 -5.26781,-3.95392 -3.76713,-7.26307c0.42951,-0.9471 1.61749,-1.86711 2.63871,-1.90675c0.01683,-0.64942 0.03807,-1.29647 0.46627,-1.72573c1.54628,-1.55013 4.8393,0.22206 5.73284,1.45813c1.29167,1.78681 1.01042,3.64925 2.47627,5.30152c0,0 0.65494,0.75569 -0.10075,1.41062c-0.75569,0.65493 -1.41062,-0.10075 -1.41062,-0.10075c-1.38624,-1.62954 -1.58856,-5.30709 -3.46332,-6.32619c-0.27675,-0.15044 -1.30012,-0.2636 -1.77551,-0.1395l0.77523,0.31009c0.37979,0.14181 0.65024,0.50789 0.65024,0.93713c0,0.55229 -0.44772,1 -1,1c-0.0447,0 -0.08871,-0.00293 -0.13187,-0.00862l-1.29989,-0.15293l0.00326,-0.0277c-0.44634,0.1172 -0.88547,0.25506 -1.30891,0.43785c-2.72175,1.17487 1.06404,4.47758 2.25797,4.93894l0.40893,0.13449c0,0 0.94869,0.31623 0.63245,1.26491z" fill="#735f45" stroke="none" stroke-width="0.5" stroke-linecap="butt"/><path d="M334.08671,207.90948c0.44722,0.89443 -0.44721,1.34164 -0.44721,1.34164l-1.01344,0.41359c-1.603,0.08399 -3.67683,0.3691 -5.26274,0.06193c-1.52373,-0.29513 -1.77653,-1.69087 -3.1452,-1.94462c-2.63477,-0.48848 -6.01899,-0.19502 -8.35174,-1.75581c-0.7876,-0.52696 -1.31716,-1.80756 -1.45009,-3.08283c-0.15166,0.02206 -0.32865,0.00547 -0.53324,-0.07322c-0.93334,-0.35898 -0.57437,-1.29233 -0.57437,-1.29233c0.33522,-0.82062 0.8773,-1.57232 1.52191,-2.18081l0.03003,-0.01293l-0.00572,-0.00715l1.54074,-1.23259c0.1721,-0.14011 0.3917,-0.22411 0.63092,-0.22411c0.55228,0 1,0.44771 1,1c0,0.19407 -0.05528,0.37523 -0.15096,0.52859l-0.68768,1.14612l-0.23557,-0.14134c-0.42172,1.26061 -0.79017,2.62784 -0.42889,3.50075c0.38846,0.93859 3.00486,1.19672 3.83411,1.32677c1.67367,0.2625 4.22825,0.08435 5.6592,1.08636c0.88911,0.62258 0.73296,1.27286 1.71167,1.39274c1.51954,0.18612 3.27015,-0.01228 4.79251,-0.09277l0.22413,-0.2052c0,0 0.89442,-0.44722 1.34164,0.44721z" fill="#735f45" stroke="none" stroke-width="0.5" stroke-linecap="butt"/><path d="M289.88003,174.07437c-0.98837,-0.15205 -0.83632,-1.14043 -0.83632,-1.14043l0.20706,-1.20545c0.43458,-0.70759 1.27503,-1.86218 1.25279,-2.75823c-0.0122,-0.49151 -0.5537,-1.01039 -0.31597,-1.44075c0.44172,-0.79963 2.34887,-1.30748 3.16362,-1.58004c0,0 0.94868,-0.31623 1.26491,0.63246c0.31623,0.94869 -0.63246,1.26491 -0.63246,1.26491c-0.6291,0.20889 -1.77378,-0.21034 -1.94135,0.431c-0.06161,0.23579 0.44665,0.32683 0.45752,0.5703c0.05534,1.24007 -0.71724,2.59286 -1.37704,3.58431l-0.10233,0.8056c0,0 -0.15206,0.98837 -1.14043,0.83632z" fill="#735f45" stroke="none" stroke-width="0.5" stroke-linecap="butt"/><path d="M314.55693,208.27934c0,-1 1,-1 1,-1l1.48574,0.05447c2.15184,1.59742 4.45195,1.65757 6.82985,2.74803c1.40102,0.64248 2.24262,1.7728 3.29758,2.8274c0,0 0.70711,0.70711 0,1.41421c-0.70711,0.70711 -1.41421,0 -1.41421,0c-0.8578,-0.85808 -1.59154,-1.9298 -2.73556,-2.43226c-2.28726,-1.00457 -4.64221,-1.01443 -6.62871,-2.66633l-0.83469,0.05446c0,0 -1,0 -1,-1z" fill="#735f45" stroke="none" stroke-width="0.5" stroke-linecap="butt"/><path d="M338.54617,208.23575c0.89443,-0.44721 1.34164,0.44721 1.34164,0.44721l-0.05782,-0.04888c0.92789,1.0837 1.57887,2.18578 3.10814,2.12593c0,0 1,0 1,1c0,1 -1,1 -1,1c-2.23528,-0.05347 -3.24939,-1.21917 -4.62666,-2.82434l-0.21252,-0.35828c0,0 -0.44721,-0.89442 0.44721,-1.34164z" fill="#735f45" stroke="none" stroke-width="0.5" stroke-linecap="butt"/><path d="M350.37451,191.71589c0.70711,0.70711 0,1.41421 0,1.41421l-0.27043,0.254c-0.62952,0.45958 -2.03986,0.44882 -1.99069,1.22669c0.02112,0.33406 0.72035,0.10171 0.93941,0.3548c0.4237,0.48948 1.35985,2.70327 1.45038,3.43018c0.28963,2.32575 -2.1529,5.14176 0.31301,6.48309c0,0 0.848,0.52999 0.318,1.37799c-0.53,0.848 -1.378,0.318 -1.378,0.318c-3.72918,-2.52507 -0.80732,-4.50869 -1.23395,-7.90364c-0.1363,-1.08462 -2.43296,-3.47634 -2.40579,-3.94982c0.06333,-1.10387 1.95848,-2.3269 2.80489,-2.9501l0.03896,-0.0554c0,0 0.7071,-0.70711 1.41421,0z" fill="#735f45" stroke="none" stroke-width="0.5" stroke-linecap="butt"/><path d="M303.50599,162.56696c-0.92847,-0.37139 -0.55709,-1.29986 -0.55709,-1.29986l0.09323,0.12607c-0.24802,-1.76334 0.49744,-3.62099 0.16507,-5.27737c-0.35938,-1.79098 -1.76441,-3.01198 -2.02375,-4.94996c0,0 -0.12404,-0.99228 0.86824,-1.11631c0.99228,-0.12403 1.11631,0.86824 1.11631,0.86824c0.21244,1.86839 1.64047,3.00285 1.99834,4.7959c0.3547,1.77715 -0.41051,3.56553 -0.14432,5.39666l-0.21617,0.89955c0,0 -0.3714,0.92847 -1.29987,0.55709z" fill="#735f45" stroke="none" stroke-width="0.5" stroke-linecap="butt"/><path d="M294.67296,159.00313c-1,0 -1,-1 -1,-1c0,-1.10865 0,-2.6814 0,-3.79005c0,0 0,-1 1,-1c1,0 1,1 1,1c0,1.10865 0,2.21731 0,3.32596v0.46409c0,0 0,1 -1,1z" fill="#735f45" stroke="none" stroke-width="0.5" stroke-linecap="butt"/><path d="M302.41874,165.51686c-0.70711,0.70711 -1.41422,0 -1.41422,0l-0.54341,-0.58998c-1.37413,-2.53136 0.26952,-5.31895 0.63894,-7.98736c0.157,-1.13404 -1.15476,-3.00136 -1.16191,-4.42811c0,0 0,-1 1,-1c1,0 1,1 1,1c-0.01054,1.7197 1.22026,2.91493 1.15853,4.54427c-0.07899,2.08519 -2.06185,5.1066 -0.90801,6.86346l0.23007,0.1835c0,0 0.70711,0.70711 0,1.41422z" fill="#987d5b" stroke="none" stroke-width="0.5" stroke-linecap="butt"/><path d="M297.91605,183.21859c0,1 -1,1 -1,1l-1.62478,-0.36676c-0.30574,-0.52785 -0.916,-0.97357 -0.91721,-1.58357c-0.00088,-0.44014 0.71789,-0.55976 0.91217,-0.9547c0.28147,-0.57217 -0.44284,-1.22105 -0.4527,-1.85862c-0.0233,-1.5065 0.79748,-2.86875 1.51331,-4.1393c0.52651,-0.93452 2.14324,-1.63184 1.81914,-2.65434c-0.2581,-0.81426 -0.63973,-1.61265 -0.70172,-2.46458c0,0 -0.04994,-0.99875 0.94881,-1.04869c0.99875,-0.04994 1.04869,0.94882 1.04869,0.94882c0.01382,0.81026 0.6405,1.52216 0.69054,2.33099c0.18054,2.91842 -3.50232,4.78548 -3.10133,8.07009c0.16486,1.35039 -0.63835,1.98141 -0.21179,2.08744l0.07687,-0.36676c0,0 1,0 1,1z" fill="#987d5b" stroke="none" stroke-width="0.5" stroke-linecap="butt"/><path d="M314.71163,172.08047l0.07152,0.06199c-0.33225,-0.85473 -0.15724,-3.63082 -0.45045,-4.00209c-0.69099,-0.87496 -1.87845,-1.48263 -2.33238,-2.46143c-2.05484,0.84349 -4.87513,1.79447 -5.56529,3.82129c0,0 -0.35898,0.93335 -1.29233,0.57437c-0.93334,-0.35898 -0.57437,-1.29233 -0.57437,-1.29233c1.23582,-2.99456 4.65556,-3.98659 7.39444,-5.26543l0.12771,-0.28605c0,0 0.21771,-0.254 0.5482,-0.34225c0.02643,-0.08113 0.04852,-0.16279 0.06493,-0.24508c0.16906,-0.84767 -0.83456,-1.51601 -1.31026,-2.2377c0,0 -0.54627,-0.83761 0.29134,-1.38388c0.83761,-0.54627 1.38388,0.29135 1.38388,0.29135c0.55419,0.85774 1.72703,2.28227 1.62896,3.48605c-0.0633,0.77699 -1.02996,1.4151 -0.85826,2.17553c0.23453,1.03868 1.71359,1.33967 2.27023,2.24743c0.55153,0.89942 0.05246,3.02496 0.5306,4.17747l0.07153,0.68078c0,0 0,0.8651 -0.80464,0.98603c0.15233,0.4499 -0.1368,0.88359 -0.1368,0.88359l-0.23348,0.32844c-0.19488,0.40097 -0.27739,0.87989 -0.58466,1.20292c-3.31493,3.48507 -3.62892,-1.25313 -6.16431,-1.4736c-0.93851,-0.08161 -3.72598,2.78532 -4.28061,3.34326c0,0 -0.70711,0.70711 -1.41422,0c-0.70711,-0.70711 0,-1.41422 0,-1.41422c1.08616,-1.08035 3.97118,-3.9515 5.77463,-3.92745c2.40861,0.03212 3.54789,4.50181 4.85324,1.43097l0.3853,-0.59973c0,0 0.24594,-0.36891 0.65593,-0.45168c-0.0504,-0.17209 -0.0504,-0.30854 -0.0504,-0.30854z" fill="#987d5b" stroke="none" stroke-width="0.5" stroke-linecap="butt"/><path d="M330.77103,161.13059c0.73994,0.67267 0.06727,1.41261 0.06727,1.41261l-0.73064,0.80046c-0.34889,0.42833 -0.53099,1.08685 -1.04668,1.28498c-4.18237,1.60684 -2.58921,-4.9992 -5.40531,-5.40935c-2.18635,-0.31842 -4.05543,2.06502 -5.65422,3.22792c0,0 -0.80874,0.58817 -1.39691,-0.22056c-0.58817,-0.80874 0.22057,-1.39691 0.22057,-1.39691c2.17957,-1.58495 4.18797,-4.09592 7.18555,-3.5787c1.41575,0.24428 2.27639,0.85255 2.82542,2.12653c0.21697,0.50345 0.74005,4.75092 1.70603,2.72147l0.81631,-0.9012c0,0 0.67268,-0.73994 1.41262,-0.06726z" fill="#987d5b" stroke="none" stroke-width="0.5" stroke-linecap="butt"/><path d="M339.49273,166.3261c-0.58817,0.80874 -1.39691,0.22056 -1.39691,0.22056l-1.15377,-0.97374c-0.06714,-1.09069 0.22575,-2.21222 -0.01448,-3.27824c-0.17768,-0.78851 -5.04886,-1.79653 -5.7491,-2.02661c0,0 -0.95003,-0.31216 -0.63788,-1.26219c0.31216,-0.95003 1.26218,-0.63787 1.26218,-0.63787c3.86456,1.26979 7.5457,1.36075 6.9215,6.29735l0.54789,0.26382c0,0 0.80874,0.58817 0.22057,1.39691z" fill="#987d5b" stroke="none" stroke-width="0.5" stroke-linecap="butt"/><path d="M333.81106,177.56666c-1,0 -1,-1 -1,-1l0.13622,0.27183c-0.3829,-1.03401 -0.54512,-1.78095 -0.2121,-2.22206c-1.9135,-0.21928 -3.79574,-0.45858 -5.59012,-1.23306c0,0 -0.91616,-0.40082 -0.51534,-1.31697c0.40082,-0.91616 1.31698,-0.51534 1.31698,-0.51534c1.98534,0.88264 4.15841,0.95951 6.29829,1.23108h1.19039c0.55228,0 1,0.44771 1,1c0,0.28874 -0.12237,0.54889 -0.31807,0.73143l-1.23556,1.15833l-0.18249,-0.19466c-0.18559,0.21414 -0.20925,0.29611 -0.02441,0.35352l0.13622,0.73592c0,0 0,1 -1,1z" fill="#987d5b" stroke="none" stroke-width="0.5" stroke-linecap="butt"/><path d="M340.93757,173.43735c-0.97015,0.24254 -1.21267,-0.72761 -1.21267,-0.72761l-0.17771,-0.97816c0.17378,-1.31495 -0.07939,-2.02952 -0.49697,-3.27964c0,0 -0.31623,-0.94868 0.63245,-1.26491c0.94869,-0.31623 1.26491,0.63245 1.26491,0.63245c0.50576,1.52025 0.75747,2.537 0.5859,4.14577l0.13169,0.25941c0,0 0.24253,0.97014 -0.72761,1.21268z" fill="#987d5b" stroke="none" stroke-width="0.5" stroke-linecap="butt"/><path d="M318.25314,183.92569c-0.70711,-0.70711 0,-1.41422 0,-1.41422l-0.02763,0.21944c0.57576,-2.17112 0.76793,-4.12917 0.59067,-6.37274c-0.27202,-3.44285 -3.1821,-4.791 0.79347,-7.71627c0,0 0.80874,-0.58817 1.39691,0.22056c0.58817,0.80874 -0.22057,1.39691 -0.22057,1.39691c-2.90138,2.07959 -0.26263,3.05649 0.01999,5.89698c0.24498,2.46222 -0.01933,4.70578 -0.64691,7.08581l-0.49171,0.68353c0,0 -0.70711,0.70711 -1.41422,0z" fill="#987d5b" stroke="none" stroke-width="0.5" stroke-linecap="butt"/><path d="M300.54589,191.95891c0,1 -1,1 -1,1l-0.67926,-0.10558c-1.16801,-0.73047 -2.27205,-0.90084 -1.35262,-2.85414c0.44429,-0.94389 2.16009,-0.57878 2.79631,-1.40555c0.18764,-0.24384 -0.5371,-0.5378 -0.41961,-0.82217c0.74442,-1.80183 2.64524,-1.10593 3.53544,-2.26285c0.6716,-0.87283 1.26861,-3.11554 1.8085,-4.14631c0,0 0.464,-0.88583 1.34983,-0.42183c0.88583,0.464 0.42183,1.34984 0.42183,1.34984c-0.54342,1.03737 -1.35173,3.6766 -2.0589,4.51667c-0.73786,0.87652 -3.06667,0.30519 -3.11649,1.44985c-0.01585,0.364 0.57601,0.74538 0.35387,1.03418c-0.37126,0.48266 -3.77604,1.52761 -2.42372,1.77345l-0.21517,-0.10557c0,0 1,0 1,1z" fill="#987d5b" stroke="none" stroke-width="0.5" stroke-linecap="butt"/><path d="M298.75414,200.30681c-0.99984,-0.01827 -0.98156,-1.0181 -0.98156,-1.0181l0.04519,-0.74551c0.877,-3.06882 2.58742,-4.9266 5.3223,-6.58202c0.87187,-0.52775 2.15301,-0.45078 2.79294,-1.24398c0.03832,-0.04749 -0.2611,-2.95104 -0.01553,-3.45009c0.76312,-1.55078 2.15025,-2.15396 2.47104,-3.93524c0,0 0.19612,-0.98058 1.1767,-0.78447c0.98058,0.19611 0.78446,1.17669 0.78446,1.17669c-0.43381,2.0234 -1.69279,2.73578 -2.63393,4.41836c-0.57565,1.02915 0.57386,2.56659 -0.01553,3.51122c-0.21881,0.3507 -3.1346,1.78395 -3.52675,2.01984c-2.279,1.37087 -3.74472,2.83725 -4.42825,5.4035l0.02703,0.24823c0,0 -0.01826,0.99983 -1.0181,0.98156z" fill="#987d5b" stroke="none" stroke-width="0.5" stroke-linecap="butt"/><path d="M300.73985,203.46689c-0.44722,-0.89443 0.44722,-1.34164 0.44722,-1.34164l0.84229,-0.41572c3.7697,-2.95285 5.8268,-6.07409 8.62813,-9.80919c0,0 0.6,-0.8 1.4,-0.2c0.8,0.6 0.2,1.4 0.2,1.4c-2.94194,3.92259 -5.17853,7.22399 -9.16192,10.30129l-1.01406,0.51247c0,0 -0.89443,0.44721 -1.34165,-0.44721z" fill="#987d5b" stroke="none" stroke-width="0.5" stroke-linecap="butt"/><path d="M310.5398,208.1468c-0.09951,-0.99504 0.89553,-1.09454 0.89553,-1.09454l0.31829,0.08564c1.5752,-0.94022 0.52755,-2.90434 0.64009,-4.57585c0.09954,-1.47839 0.73642,-2.51988 1.58101,-3.68855c0,0 0.58817,-0.80873 1.39691,-0.22056c0.80874,0.58817 0.22056,1.39691 0.22056,1.39691c-2.15169,2.93682 0.32337,6.58399 -2.72917,8.75216l-1.22867,0.24034c0,0 -0.99503,0.0995 -1.09454,-0.89553z" fill="#987d5b" stroke="none" stroke-width="0.5" stroke-linecap="butt"/><path d="M311.85749,196.15448c0.83205,0.5547 0.27735,1.38675 0.27735,1.38675l-0.14144,-0.09061c-0.00313,4.75633 -5.47425,6.36183 -5.72629,11.05467c0,0 -0.07125,0.99746 -1.06871,0.92621c-0.99746,-0.07125 -0.92621,-1.06871 -0.92621,-1.06871c0.39288,-4.66724 5.72421,-6.65704 5.72121,-10.91217l0.47734,-1.01879c0,0 0.5547,-0.83205 1.38675,-0.27735z" fill="#987d5b" stroke="none" stroke-width="0.5" stroke-linecap="butt"/><path d="M320.74974,200.7412c-0.97015,0.24254 -1.21267,-0.7276 -1.21267,-0.7276l0.04913,-0.01505c-1.32956,-2.08931 -2.16715,-3.69233 -1.38769,-6.25075c0.25274,-0.82957 1.39796,-1.42534 1.25254,-2.28027c-0.11386,-0.66933 -1.30015,-0.40496 -1.91655,-0.68959c-1.00338,-0.46334 -1.90313,-1.13845 -2.76285,-1.83296c0,0 -0.77612,-0.63059 -0.14552,-1.40671c0.6306,-0.77612 1.4067,-0.14552 1.4067,-0.14552c1.30463,1.06693 4.89845,2.00236 5.37584,3.66529c0.09127,0.31795 -1.23882,3.08596 -1.28659,3.23734c-0.62833,1.99106 0.13424,3.03098 1.15143,4.62942l0.20383,0.60374c0,0 0.24253,0.97014 -0.72761,1.21267z" fill="#987d5b" stroke="none" stroke-width="0.5" stroke-linecap="butt"/><path d="M331.81941,207.05614c0.91381,0.40614 0.50768,1.31995 0.50768,1.31995l-0.80415,1.19795c-2.56058,1.16103 -5.88889,1.68851 -4.37369,-2.10053c0.05124,-0.12814 -0.19011,0.24029 -0.32751,0.2533c-0.63115,0.0598 -1.29302,0.13593 -1.90148,-0.04214c-0.52358,-0.15323 -0.90595,-0.60802 -1.35893,-0.91204c0,0 -0.81374,-0.58123 -0.2325,-1.39497c0.58124,-0.81374 1.39497,-0.2325 1.39497,-0.2325c0.99761,0.78507 3.54069,0.15066 4.14688,1.31017c0.21465,0.41058 -0.08869,1.37591 -0.35188,1.97956c0.55001,-0.36434 1.69932,-0.45656 2.16602,-0.67677l-0.18536,-0.19432c0,0 0.40614,-0.91381 1.31995,-0.50767z" fill="#987d5b" stroke="none" stroke-width="0.5" stroke-linecap="butt"/><path d="M329.02118,193.28281c0.99655,0.08304 0.9135,1.07959 0.9135,1.07959l-0.16593,1.26419c-0.3029,0.64778 -1.82932,2.20992 -1.51201,2.88325c0.65939,1.39924 1.24968,1.96287 1.44386,3.70902c0,0 0.10468,0.99451 -0.88982,1.09919c-0.99451,0.10468 -1.09919,-0.88982 -1.09919,-0.88982c-0.19124,-1.94915 -1.91711,-3.28698 -1.25778,-5.24861c0.29971,-0.89171 1.11001,-1.53463 1.49902,-2.39115l-0.01124,-0.59216c0,0 0.08304,-0.99654 1.07959,-0.9135z" fill="#987d5b" stroke="none" stroke-width="0.5" stroke-linecap="butt"/><path d="M329.05141,183.55292c0.98058,-0.19611 1.1767,0.78447 1.1767,0.78447l0.08671,0.44143c0.70966,5.04543 -2.16795,6.58211 -6.67195,5.35908c0,0 -0.96352,-0.26765 -0.69588,-1.23117c0.26765,-0.96352 1.23116,-0.69587 1.23116,-0.69587c3.28086,0.93612 4.66911,0.37525 4.15677,-3.14921l-0.06798,-0.33204c0,0 -0.19612,-0.98058 0.78446,-1.17669z" fill="#987d5b" stroke="none" stroke-width="0.5" stroke-linecap="butt"/><path d="M339.52929,189.87052c0,1 -1,1 -1,1l-0.55192,-0.02986c-0.60742,-0.23923 -1.46947,-0.16837 -1.82227,-0.71767c-0.49581,-0.77199 0.81236,-1.79298 0.60158,-2.68593c-0.21449,-0.90868 -1.16467,-1.48348 -1.54577,-2.33582c-1.77328,-3.96599 -1.80063,-4.73373 -6.39332,-3.83986c0,0 -0.98201,0.18884 -1.17086,-0.79316c-0.18885,-0.982 0.79316,-1.17086 0.79316,-1.17086c2.23992,-0.42602 5.49356,-1.20498 7.04945,1.11661c0.94058,1.40347 1.19886,3.49267 2.04789,5.00881c0.3718,0.66393 1.09491,1.17996 1.21771,1.93093c0.19126,1.16963 -1.78164,1.77223 -0.2925,1.54667l0.06685,-0.02985c0,0 1,0 1,1z" fill="#987d5b" stroke="none" stroke-width="0.5" stroke-linecap="butt"/><path d="M344.94071,179.81462c-0.07669,0.99705 -1.07375,0.92036 -1.07375,0.92036l-1.08003,-0.0859c-1.42327,-0.37345 -3.11756,0.23777 -4.64437,0.24354c0,0 -1,0 -1,-1c0,-1 1,-1 1,-1c1.74543,0.00749 3.2634,-0.57077 4.94678,-0.22055l0.93102,0.0688c0,0 0.99705,0.0767 0.92035,1.07375z" fill="#987d5b" stroke="none" stroke-width="0.5" stroke-linecap="butt"/><path d="M343.00938,192.10554c-0.99746,0.07125 -1.0687,-0.92621 -1.0687,-0.92621l-0.07925,-1.11847c0.1155,-0.54199 -0.91031,-0.84721 -0.89474,-1.40115c0.02579,-0.91751 0.62047,-1.74543 1.11962,-2.51571c1.25224,-1.93241 4.85081,-2.4419 4.57179,-4.95508c0,0 -0.05872,-0.99828 0.93955,-1.057c0.99827,-0.05872 1.05699,0.93955 1.05699,0.93955c0.082,3.02901 -1.93508,3.66361 -4.03859,5.49551c-0.5858,0.51016 -1.78677,0.80141 -1.71751,1.57512c0.02623,0.29307 0.69354,0.04118 0.82939,0.30218c0.23869,0.45857 0.08815,1.03019 0.13223,1.54529l0.07544,1.04727c0,0 0.07125,0.99746 -0.92621,1.0687z" fill="#987d5b" stroke="none" stroke-width="0.5" stroke-linecap="butt"/><path d="M337.89516,194.27905l0.40209,0.23787c1.57401,0 3.11502,-0.02065 4.68038,0.16154c0,0 0.99315,0.11684 0.87631,1.10999c-0.01844,0.15675 -0.05872,0.28585 -0.11347,0.39212c0.47255,-0.52364 0.91658,-1.02419 1.9717,-1.32441c0,0 0.97015,-0.24254 1.21268,0.72761c0.24253,0.97015 -0.72761,1.21268 -0.72761,1.21268c-1.5638,0.30325 -1.43207,1.50901 -2.78122,2.22872c-1.22106,0.65138 -5.31137,0.86622 -6.63726,0.28724c-1.80164,-0.78673 -0.90665,-3.31625 -2.03176,-3.49694c-0.19819,0.07886 -0.90681,0.29412 -1.28893,-0.47012c-0.44722,-0.89443 0.44721,-1.34164 0.44721,-1.34164l0.66843,-0.1807c0.71314,0.10789 1.50414,0.46551 2.02436,1.00624c0.37322,-0.91975 1.29709,-0.55019 1.29709,-0.55019zM342.74394,196.66477c-1.48653,-0.17693 -2.9516,-0.14784 -4.4467,-0.14784l-1.14487,-0.38091c0,0 -0.00099,-0.0004 -0.00291,-0.0012c-0.00219,0.57528 -0.11766,1.23906 0.34582,1.31037c1.10665,0.17027 4.02907,0.34581 4.96495,-0.17685c0.4161,-0.23237 0.71256,-0.49023 0.96821,-0.75172c-0.31482,0.19165 -0.68451,0.14816 -0.68451,0.14816zM334.6235,195.80533c-0.05649,-0.00063 -0.11729,0.00366 -0.18282,0.01324z" fill="#987d5b" stroke="none" stroke-width="0.5" stroke-linecap="butt"/><path d="M341.40214,210.66616c0.70711,0.70711 0,1.41421 0,1.41421l-1.09384,0.67964c-0.7659,-0.14646 -1.8036,0.16388 -2.29768,-0.43938c-0.52427,-0.64012 0.82032,-4.27165 1.07136,-4.94001c0.3909,-1.04074 -2.15634,-0.63383 -3.10949,-1.20605c-1.66402,-0.99899 -2.82317,-2.42576 -4.41778,-3.48306c0,0 -0.83205,-0.5547 -0.27735,-1.38675c0.5547,-0.83205 1.38675,-0.27735 1.38675,-0.27735c1.54836,1.03718 2.6948,2.44782 4.30149,3.41117c0.92852,0.55673 2.12979,0.59282 3.00718,1.22708c0.50243,0.3632 0.98757,0.89128 1.09775,1.50137c0.21601,1.19615 -2.18185,4.56522 -0.76224,3.59298l-0.32036,-0.09385c0,0 0.7071,-0.70711 1.41421,0z" fill="#987d5b" stroke="none" stroke-width="0.5" stroke-linecap="butt"/><path d="M351.01435,214.51294c-0.81923,0.57346 -1.3927,-0.24577 -1.3927,-0.24577l-0.56338,-0.80618c-0.77326,-1.29313 -1.16716,-1.36235 -0.72864,-2.93822c0.14647,-0.52635 0.71722,-1.00132 0.5845,-1.53131c-0.35816,-1.43025 -0.77841,-2.57411 -0.27465,-4.1165c0.28882,-0.88431 2.12859,-2.237 1.90532,-3.19819c-0.17372,-0.74786 -1.35619,-1.49125 -1.87384,-1.88655c0,0 -0.79262,-0.60971 -0.18291,-1.40233c0.60971,-0.79262 1.40233,-0.18291 1.40233,-0.18291c1.58521,1.22711 3.34111,2.71813 2.3865,5.00204c-0.3693,0.88357 -1.44367,1.37706 -1.73624,2.2889c-0.53424,1.66501 0.74815,2.97364 0.32101,4.60274c-0.1931,0.73645 -0.56648,1.6634 -0.12102,2.28082l0.51949,0.74077c0,0 0.57346,0.81923 -0.24577,1.3927z" fill="#987d5b" stroke="none" stroke-width="0.5" stroke-linecap="butt"/><path d="M345.567,210.30323c-0.78632,0.61782 -1.40414,-0.1685 -1.40414,-0.1685l-0.89591,-1.14502c-1.15799,-2.16436 -1.25137,-3.11983 0.71425,-4.69537c0,0 0.81373,-0.58124 1.39497,0.2325c0.58124,0.81374 -0.2325,1.39497 -0.2325,1.39497c-1.17043,0.65772 -0.88596,0.85489 -0.21393,1.95655l0.80575,1.02073c0,0 0.61782,0.78632 -0.1685,1.40414z" fill="#987d5b" stroke="none" stroke-width="0.5" stroke-linecap="butt"/><path d="M291.46934,191.94729c0.9398,-0.34175 1.28154,0.59805 1.28154,0.59805l0.36705,1.26381c-0.06703,0.81175 -1.13031,2.65989 -1.02973,3.25701c0.12009,0.71293 1.02536,1.11787 1.17016,1.8262c0.1572,0.769 0.02916,1.56979 0.06813,2.35372c0.62703,1.44995 2.05242,0.9849 2.66547,2.183c0.42683,0.83415 0.14222,1.91871 -0.15709,2.80664c-0.16055,0.47626 -1.05554,0.5044 -1.12674,1.00192c-0.04629,0.32342 0.68541,-0.11695 0.97983,0.02465c0.81563,0.3923 1.70028,0.80411 2.2454,1.5266c0.18881,0.25024 -0.71194,0.58753 -0.48618,0.80502c0.2444,0.23544 0.61536,-0.34806 0.95467,-0.35369c0.13774,-0.00229 4.16847,0.64474 4.20186,0.65508c0.90711,0.28104 1.74073,1.70643 2.54368,1.88788c0.89236,0.20165 1.75941,-0.54167 2.66902,-0.63954c1.66534,-0.17918 6.8172,-0.85349 5.63474,1.32093l0.08905,0.07333c2.11108,-0.01491 4.22024,-0.17553 6.32079,-0.07501c0,0 0.99876,0.04994 0.94882,1.04869c-0.04994,0.99875 -1.04869,0.94881 -1.04869,0.94881c-2.16343,-0.11334 -4.34842,0.0786 -6.52464,0.0786h-1.16023c-0.55228,0 -1,-0.44771 -1,-1c0,-0.14855 0.0324,-0.28954 0.0905,-0.41629c-0.4079,-0.00655 -0.82072,-0.06036 -1.22805,-0.05347c-1.26123,0.02135 -2.52363,0.16527 -3.76309,0.39959c-2.3401,0.4424 -2.35859,-1.16512 -4.27321,-1.70051c-1.20301,-0.3364 -2.48217,-0.30136 -3.70853,-0.53893c-0.81475,-0.15784 -1.78643,-0.02521 -2.42775,-0.55193c-0.31935,-0.26229 0.49842,-0.85077 0.2873,-1.20603c-0.62771,-1.05624 -2.99083,-0.50127 -3.27201,-1.69736c-0.27705,-1.17854 2.30447,-2.40211 1.5007,-3.30747c-0.37381,-0.42106 -1.16138,-0.12808 -1.63133,-0.43821c-0.57396,-0.37876 -1.03089,-1.73644 -1.27227,-2.32907c-0.05773,-0.80419 0.16082,-2.34816 -0.3286,-3.08502c-0.26147,-0.39366 -0.84625,-0.62014 -0.90823,-1.08864c-0.16016,-1.21063 0.91096,-2.60882 0.98131,-3.85901l-0.25173,-0.43784c0,0 -0.34174,-0.93979 0.59805,-1.28154z" fill="#987d5b" stroke="none" stroke-width="0.5" stroke-linecap="butt"/><path d="M292.58457,175.33461c1,0 1,1 1,1l-0.02561,0.45691c-0.30559,1.30209 -1.29194,3.69898 -1.22577,4.94651c0.04485,0.84561 0.93099,1.96268 0.94199,3.10487c0,0 0,1 -1,1c-1,0 -1,-1 -1,-1c0.0153,-1.17935 -0.85422,-1.76287 -0.91436,-2.77358c-0.08803,-1.47944 0.89949,-4.18921 1.24937,-5.72752l-0.02561,-0.00718c0,0 0,-1 1,-1z" fill="#987d5b" stroke="none" stroke-width="0.5" stroke-linecap="butt"/><path d="M295.18137,165.54853c0.18402,0.24041 0.34367,0.63672 0.01425,1.13084c-0.5547,0.83205 -1.38675,0.27735 -1.38675,0.27735l-0.67284,-1.08155c0.36894,-3.84496 0.72102,-5.02293 -3.28118,-4.48302c0,0 -0.99123,0.13217 -1.12339,-0.85906c-0.13216,-0.99123 0.85906,-1.12339 0.85906,-1.12339c0.82201,-0.10841 3.15881,-0.54982 4.02533,-0.15178c2.22713,1.02305 1.79721,4.217 1.56552,6.29062z" fill="#987d5b" stroke="none" stroke-width="0.5" stroke-linecap="butt"/><path d="M300.48374,174.39159c-0.9962,0.08702 -1.08323,-0.90919 -1.08323,-0.90919l-0.08463,-1.09229c-0.3912,-0.98824 -0.75394,-2.03144 -0.76999,-3.09417c0,0 0,-0.29727 0.16208,-0.56765c-0.07355,-0.04324 -0.1424,-0.09129 -0.20402,-0.14651c-1.17217,-1.05043 -1.53355,-1.4569 -2.01608,-3.06337c-0.47415,-1.57855 0.23073,-2.3923 0.60474,-3.67311c0.21781,-0.74591 -0.9971,-3.63894 -1.21685,-4.42337c0,0 -0.26963,-0.96296 0.69333,-1.2326c0.96296,-0.26963 1.2326,0.69333 1.2326,0.69333c0.38169,1.36385 1.52359,3.87858 1.25829,5.32249c-0.22762,1.23882 -1.03962,1.39524 -0.63283,2.82412c0.74378,2.61261 3.94993,2.56204 3.32801,5.6047l0.49075,-0.06933c0,0 0.97439,0.22486 0.74953,1.19925c-0.22486,0.97439 -1.19925,0.74954 -1.19925,0.74954l-0.49542,-0.17383l0.09218,0.96877c0,0 0.08702,0.99621 -0.90919,1.08322z" fill="#7e684c" stroke="none" stroke-width="0.5" stroke-linecap="butt"/><path d="M309.52409,158.40522c0.37139,0.92847 -0.55709,1.29986 -0.55709,1.29986l-0.85078,0.33669c-1.37798,0.4149 -1.77442,0.65205 -2.54844,1.90792c0,0 -0.54325,0.83957 -1.38282,0.29632c-0.83957,-0.54325 -0.29632,-1.38282 -0.29632,-1.38282c1.06991,-1.5964 1.81667,-2.16227 3.6394,-2.73297l0.69618,-0.28209c0,0 0.92848,-0.37138 1.29987,0.55709z" fill="#7e684c" stroke="none" stroke-width="0.5" stroke-linecap="butt"/><path d="M318.67215,162.36405c-0.95761,-0.28809 -0.66951,-1.2457 -0.66951,-1.2457l0.61221,-1.9534c0.17842,-0.20506 0.35684,-0.41012 0.53526,-0.61518c-0.25125,-0.06612 -0.5025,-0.13224 -0.75375,-0.19836c0,0 -0.96708,-0.25449 -0.71258,-1.22157c0.2545,-0.96707 1.22156,-0.71258 1.22156,-0.71258c0.48987,0.12892 0.97974,0.25782 1.46961,0.38674l0.67368,-0.03293c0,0 1,0 1,1c0,0.35987 -0.1295,0.59022 -0.2953,0.73768c-0.08006,0.19048 -0.18933,0.31342 -0.18933,0.31342c-0.40104,0.43938 -0.80208,0.87876 -1.20312,1.31814l-0.44304,1.5542c0,0 -0.28809,0.9576 -1.2457,0.66951z" fill="#7e684c" stroke="none" stroke-width="0.5" stroke-linecap="butt"/><path d="M333.2641,159.31805c0,1 -1,1 -1,1h-0.93922c-1.95918,-0.00433 -3.44599,-0.26329 -5.36278,-0.6373c0,0 -0.98149,-0.19151 -0.78998,-1.173c0.19151,-0.98149 1.173,-0.78998 1.173,-0.78998c1.81128,0.35342 3.13664,0.60477 4.97976,0.60028h0.93922c0,0 1,0 1,1z" fill="#7e684c" stroke="none" stroke-width="0.5" stroke-linecap="butt"/><path d="M326.63667,171.07171c-0.77024,0.63775 -1.40799,-0.13249 -1.40799,-0.13249l-0.45265,-0.5656c-1.2613,-1.11464 -2.52641,-2.22494 -3.77757,-3.35096c0,0 -0.74329,-0.66897 -0.07432,-1.41226c0.66897,-0.74329 1.41226,-0.07433 1.41226,-0.07433c1.24665,1.122 2.50726,2.22825 3.76403,3.33889l0.66874,0.78875c0,0 0.63775,0.77024 -0.13249,1.40799z" fill="#7e684c" stroke="none" stroke-width="0.5" stroke-linecap="butt"/><path d="M319.40382,179.20332c-0.31623,-0.94869 0.63246,-1.26491 0.63246,-1.26491l0.53459,-0.16184c1.54564,-0.84061 3.84953,-1.44253 4.52186,-3.10241c0,0 0.42288,-0.90618 1.32906,-0.4833c0.90618,0.42289 0.4833,1.32907 0.4833,1.32907c-1.11205,2.1996 -3.27146,2.86757 -5.37869,4.01361l-0.85767,0.30224c0,0 -0.94869,0.31623 -1.26492,-0.63246z" fill="#7e684c" stroke="none" stroke-width="0.5" stroke-linecap="butt"/><path d="M310.41888,172.63355c0.99388,-0.11043 1.10431,0.88345 1.10431,0.88345l0.08853,0.79676c0.21432,1.94271 0.62567,3.76332 1.05353,5.66921c0,0 0.21903,0.97572 -0.75668,1.19476c-0.97571,0.21904 -1.19475,-0.75668 -1.19475,-0.75668c-0.44384,-1.97711 -0.86442,-3.87096 -1.08986,-5.88643l-0.08853,-0.79676c0,0 -0.11043,-0.99389 0.88345,-1.10432z" fill="#7e684c" stroke="none" stroke-width="0.5" stroke-linecap="butt"/><path d="M308.53384,166.03405c-0.14142,-0.98995 0.84852,-1.13138 0.84852,-1.13138c0.65996,-0.09428 2.04721,-0.29246 2.70718,-0.38674c0,0 0.98996,-0.14142 1.13137,0.84853c0.14142,0.98995 -0.84853,1.13137 -0.84853,1.13137c-0.65996,0.09428 -1.31993,0.18857 -1.9799,0.28285l-0.72728,0.10389c0,0 -0.98995,0.14142 -1.13137,-0.84852z" fill="#7e684c" stroke="none" stroke-width="0.5" stroke-linecap="butt"/><path d="M343.01762,181.97063c0.78386,0.62093 0.16294,1.4048 0.16294,1.4048l-0.92142,1.16052c-1.20977,1.21174 -2.47808,2.32471 -3.4491,3.73803c0,0 -0.56921,0.82219 -1.3914,0.25298c-0.82219,-0.56921 -0.25299,-1.3914 -0.25299,-1.3914c1.03171,-1.48049 2.32522,-2.65725 3.60002,-3.92987l0.84715,-1.07212c0,0 0.62093,-0.78386 1.4048,-0.16294z" fill="#7e684c" stroke="none" stroke-width="0.5" stroke-linecap="butt"/><path d="M345.96315,169.4975c0.88131,0.47253 0.40877,1.35385 0.40877,1.35385l-0.28266,0.52717c-0.96633,1.80044 -2.05196,3.47672 -3.16282,5.1906c0,0 -0.54389,0.83915 -1.38304,0.29525c-0.83916,-0.54389 -0.29526,-1.38305 -0.29526,-1.38305c1.08083,-1.66757 2.13986,-3.29541 3.0785,-5.04788l0.28266,-0.52717c0,0 0.47254,-0.88131 1.35385,-0.40877z" fill="#7e684c" stroke="none" stroke-width="0.5" stroke-linecap="butt"/><path d="M333.03758,170.38434c1,0 1,1 1,1v1.23757c-0.26201,3.16544 2.18374,-2.79489 2.33629,-2.9665c2.2721,-2.55579 4.65694,-3.07676 7.90947,-2.98332c0,0 0.99954,0.03029 0.96925,1.02983c-0.03029,0.99954 -1.02983,0.96925 -1.02983,0.96925c-2.75304,-0.08812 -4.39738,0.22949 -6.36986,2.33053c-1.26922,1.35194 -0.54666,3.61565 -2.47028,4.38805c-2.44357,0.98118 -3.26185,-0.86507 -3.34503,-2.76784v-1.23757c0,0 0,-1 1,-1z" fill="#7e684c" stroke="none" stroke-width="0.5" stroke-linecap="butt"/><path d="M343.23072,162.59151c-0.41159,0.91137 -1.32296,0.49978 -1.32296,0.49978l-0.47125,-0.21282c-0.89455,0.45617 -1.7923,0.90623 -2.69205,1.3561c0,0 -0.89442,0.44721 -1.34164,-0.44721c-0.44722,-0.89443 0.44721,-1.34164 0.44721,-1.34164c0.41548,-0.20774 0.83024,-0.41609 1.24516,-0.62358c-0.37694,-0.16986 -0.75393,-0.33963 -1.13097,-0.5093c0,0 -0.91192,-0.41037 -0.50155,-1.32229c0.03757,-0.08349 0.07934,-0.15589 0.12423,-0.21854c-0.1567,0.00682 -0.26916,-0.01685 -0.26916,-0.01685l-1.46961,-0.30939c0,0 -0.97855,-0.20601 -0.77254,-1.18456c0.20601,-0.97855 1.18456,-0.77254 1.18456,-0.77254l1.46961,0.30939c0,0 0.97855,0.20601 0.77254,1.18456c-0.03627,0.17231 -0.09651,0.3079 -0.17113,0.41434c0.25432,0.00228 0.45378,0.09203 0.45378,0.09203c0.88031,0.39614 1.76036,0.79286 2.64023,1.18997c0.46258,-0.2202 0.92745,-0.4361 1.39584,-0.64577l0.2715,-0.8545c0,0 0.37139,-0.92848 1.29986,-0.55709c0.92847,0.37139 0.55709,1.29987 0.55709,1.29987l-0.65668,1.46594c-0.32819,0.17625 -0.657,0.3508 -0.98637,0.52393c0.05203,0.18446 0.0461,0.41042 -0.07572,0.68016z" fill="#7e684c" stroke="none" stroke-width="0.5" stroke-linecap="butt"/><path d="M341.1747,156.98433c-0.14142,-0.98995 0.84853,-1.13137 0.84853,-1.13137c1.31993,-0.18856 3.01155,-0.43023 4.33149,-0.61879c0,0 0.98995,-0.14142 1.13137,0.84853c0.08904,0.62326 -0.27038,0.91017 -0.54886,1.03722c0.01147,0.0606 0.01747,0.12314 0.01747,0.18707c0,0.55229 -0.44772,1 -1,1c-0.5027,0 -0.91877,-0.37093 -0.98942,-0.85403c-0.7625,0.10893 -1.52502,0.21786 -2.28752,0.32679l-0.37169,0.0531c0,0 -0.98995,0.14142 -1.13137,-0.84853z" fill="#7e684c" stroke="none" stroke-width="0.5" stroke-linecap="butt"/><path d="M324.94165,190.72821c0.73184,-0.03791 0.95515,0.48827 1.02224,0.77214c0.3137,0 0.62741,0 0.9411,0h0.17679c0,0 1,0 1,1c0,1 -1,1 -1,1c-0.35485,0 -0.71022,0 -1.06605,0c-0.0197,0.58263 -0.06453,1.15923 -0.1296,1.73288c1.93225,-0.37602 3.84023,-0.90547 5.74868,-1.38258c0,0 0.97015,-0.24254 1.21268,0.72761c0.24253,0.97015 -0.72761,1.21268 -0.72761,1.21268c-2.17649,0.54412 -4.34667,1.1411 -6.55238,1.52905c-0.15232,0.8124 -0.33353,1.62634 -0.5295,2.45066c0,0 -0.23162,0.9728 -1.20442,0.74119c-0.9728,-0.23162 -0.74119,-1.20442 -0.74119,-1.20442c0.13531,-0.56742 0.26475,-1.13027 0.38195,-1.69155c-0.21585,0.02229 -0.43216,0.04186 -0.64897,0.05847l-0.69387,0.00283c0,0 -1,0 -1,-1c0,-1 1,-1 1,-1l0.54369,0.00282c0.38867,-0.02873 0.77587,-0.06786 1.16177,-0.11582c0.09469,-0.68305 0.15983,-1.36919 0.18401,-2.06379c-4.70901,0 -9.47953,0 -14.1854,0c-0.15031,0.01818 -0.30313,0.0366 -0.45879,0.05554l-0.11891,0.01448c0,0 -0.25917,0.03155 -0.52878,-0.07002c-0.5354,0 -1.06984,0 -1.60311,0c0,0 -1,0 -1,-1c0,-1 1,-1 1,-1c0.86801,0 1.73602,0 2.60403,0c1.77492,-0.20521 3.15299,-0.3498 4.83826,-1.20935c0,0 0.31145,-0.15572 0.65867,-0.0996l-0.82358,-0.47879c-3.14423,-0.81445 -6.24509,-1.74981 -9.41271,-2.50148c-1.00194,-0.23776 -3.4966,-0.72323 -4.2666,-1.40129c-1.8055,-1.5899 -1.52486,-4.70848 -2.66073,-6.57356c0,0 -0.50387,-0.86378 0.35991,-1.36765c0.86378,-0.50387 1.36765,0.3599 1.36765,0.3599c0.94277,1.66725 0.79627,4.78337 2.28954,6.11151c0.28184,0.25067 3.23449,0.89262 3.37108,0.9249c3.27292,0.77331 6.47377,1.71315 9.71202,2.59775l1.19894,0.6755c0,0 0.86825,0.49614 0.3721,1.36438c-0.32295,0.56517 -0.80356,0.55222 -1.09975,0.47433c0.10089,0.08436 0.19514,0.2014 0.2751,0.36132c0.1533,0.30659 0.14896,0.56064 0.07703,0.76213c2.67829,0 5.35659,0 8.03489,0c0.06292,-0.29963 0.26682,-0.73831 0.91981,-0.77214z" fill="#7e684c" stroke="none" stroke-width="0.5" stroke-linecap="butt"/><path d="M300.57955,194.60936c0.21143,-0.9774 1.18882,-0.76596 1.18882,-0.76596l0.25637,0.05546c3.93813,0.85229 7.53399,1.78062 11.59849,1.77829c0,0 1,0 1,1c0,1 -1,1 -1,1c-4.20754,-0.00231 -7.94538,-0.94222 -12.02135,-1.82351l-0.25637,-0.05545c0,0 -0.97739,-0.21143 -0.76596,-1.18883z" fill="#7e684c" stroke="none" stroke-width="0.5" stroke-linecap="butt"/><path d="M299.70077,202.30596c-0.98793,0.15489 -1.14281,-0.83305 -1.14281,-0.83305l-0.23575,-1.51159c-0.34617,-1.36263 -0.47532,-2.79588 -0.39303,-4.19939c0,0 0.06438,-0.99793 1.06231,-0.93355c0.99793,0.06438 0.93354,1.06231 0.93354,1.06231c-0.08742,1.22387 0.03961,2.4781 0.35536,3.66377l0.25343,1.60868c0,0 0.15488,0.98793 -0.83305,1.14282z" fill="#7e684c" stroke="none" stroke-width="0.5" stroke-linecap="butt"/><path d="M310.05928,207.76678c-0.02887,0.99958 -1.02846,0.97072 -1.02846,0.97072l-1.0544,-0.03092c-3.95204,-0.35566 -7.90872,-0.81704 -11.87382,-0.97499c0,0 -0.9992,-0.03996 -0.95923,-1.03916c0.00331,-0.08265 0.01318,-0.15818 0.0285,-0.22722l-0.41506,0.22136c0,0 -0.88235,0.47059 -1.35294,-0.41176c-0.47059,-0.88235 0.41177,-1.35295 0.41177,-1.35295c0.58823,-0.31373 1.73221,-0.92384 2.32044,-1.23757c0,0 0.88235,-0.47059 1.35294,0.41177c0.47059,0.88235 -0.41177,1.35294 -0.41177,1.35294c-0.18647,0.09945 -0.37295,0.1989 -0.55942,0.29835c3.86604,0.17129 7.72371,0.61414 11.57738,0.96276l0.99336,0.02822c0,0 0.99958,0.02886 0.97071,1.02845z" fill="#7e684c" stroke="none" stroke-width="0.5" stroke-linecap="butt"/><path d="M327.77139,211.10877c-0.0449,0.99899 -1.04389,0.95409 -1.04389,0.95409l-0.89002,-0.04c-2.76382,-0.12421 -5.41752,-0.08173 -8.0854,-0.84982c0,0 -0.96,-0.28 -0.68,-1.24c0.28,-0.96 1.24,-0.68 1.24,-0.68c2.49259,0.73764 5.02519,0.65544 7.6152,0.77184l0.89003,0.04c0,0 0.99899,0.0449 0.95409,1.04389z" fill="#7e684c" stroke="none" stroke-width="0.5" stroke-linecap="butt"/><path d="M343.8183,205.89667c0.21693,-0.97618 1.19312,-0.75926 1.19312,-0.75926l0.62062,0.14094c0.76669,0.10956 1.53456,0.21103 2.30306,0.30706c0,0 0.99228,0.12403 0.86824,1.11631c-0.12403,0.99228 -1.11631,0.86825 -1.11631,0.86825c-0.7801,-0.09753 -1.55955,-0.20057 -2.33783,-0.31172l-0.77164,-0.16846c0,0 -0.97618,-0.21694 -0.75925,-1.19312z" fill="#7e684c" stroke="none" stroke-width="0.5" stroke-linecap="butt"/><path d="M325.49362,203.27372c0.90618,0.42289 0.4833,1.32906 0.4833,1.32906l-0.54144,1.16022c0,0 -0.42288,0.90618 -1.32906,0.48329c-0.90618,-0.42289 -0.4833,-1.32907 -0.4833,-1.32907l0.54144,-1.16022c0,0 0.42289,-0.90618 1.32907,-0.48329z" fill="#7e684c" stroke="none" stroke-width="0.5" stroke-linecap="butt"/><path d="M320.35803,186.00311c0,-0.55229 0.44772,-1 1,-1c0.55228,0 1,0.44771 1,1c0,0.55229 -0.44772,1 -1,1c-0.55228,0 -1,-0.44771 -1,-1z" fill="#7e684c" stroke="none" stroke-width="0.5" stroke-linecap="butt"/><path d="M348.49409,209.87508l-56.62669,-56.62669" fill="none" stroke-opacity="0.87059" stroke="#6b5a40" stroke-width="4.5" stroke-linecap="round"/><path d="M290.75161,212.66459l58.99776,-58.99776" fill="none" stroke-opacity="0.87059" stroke="#6b5a40" stroke-width="4.5" stroke-linecap="round"/><path d="M289.5074,153.85924c0,-1.25944 1.02097,-2.28041 2.28041,-2.28041c1.25944,0 2.28041,1.02097 2.28041,2.28041c0,1.25944 -1.02097,2.28041 -2.28041,2.28041c-1.25944,0 -2.28041,-1.02097 -2.28041,-2.28041z" fill="#737373" stroke="none" stroke-width="0" stroke-linecap="butt"/><path d="M347.15229,153.25595c0,-1.25943 1.02098,-2.28041 2.28041,-2.28041c1.25943,0 2.28041,1.02097 2.28041,2.28041c0,1.25943 -1.02098,2.28041 -2.28041,2.28041c-1.25943,0 -2.28041,-1.02098 -2.28041,-2.28041z" fill="#737373" stroke="none" stroke-width="0" stroke-linecap="butt"/><path d="M289.34329,211.813c0,-1.25943 1.02098,-2.28041 2.28041,-2.28041c1.25943,0 2.28041,1.02097 2.28041,2.28041c0,1.25943 -1.02097,2.28041 -2.28041,2.28041c-1.25943,0 -2.28041,-1.02098 -2.28041,-2.28041z" fill="#737373" stroke="none" stroke-width="0" stroke-linecap="butt"/><path d="M346.72756,211.47033c0,-1.25943 1.02098,-2.28041 2.28041,-2.28041c1.25943,0 2.28041,1.02097 2.28041,2.28041c0,1.25943 -1.02097,2.28041 -2.28041,2.28041c-1.25944,0 -2.28041,-1.02098 -2.28041,-2.28041z" fill="#737373" stroke="none" stroke-width="0" stroke-linecap="butt"/><path d="M295.62351,167.05932l15.20465,15.88743l-15.20465,14.25989z" fill="#3d3d3d" stroke="#4e4e4e" stroke-width="1" stroke-linecap="butt"/><path d="M345.55219,197.66666l-15.20466,-15.88743l15.20465,-14.25989z" fill="#3d3d3d" stroke="#4e4e4e" stroke-width="1" stroke-linecap="butt"/><path d="M298.70474,181.64481c0,-1.25944 1.02097,-2.28041 2.28041,-2.28041c1.25944,0 2.28041,1.02097 2.28041,2.28041c0,1.25944 -1.02097,2.28041 -2.28041,2.28041c-1.25944,0 -2.28041,-1.02097 -2.28041,-2.28041z" fill="#737373" stroke="none" stroke-width="0" stroke-linecap="butt"/><path d="M337.6261,181.59087c0,-1.25944 1.02097,-2.28041 2.28041,-2.28041c1.25944,0 2.28041,1.02097 2.28041,2.28041c0,1.25944 -1.02097,2.28041 -2.28041,2.28041c-1.25944,0 -2.28041,-1.02097 -2.28041,-2.28041z" fill="#737373" stroke="none" stroke-width="0" stroke-linecap="butt"/></g></g></svg>