<svg version="1.1" xmlns="http://www.w3.org/2000/svg" xmlns:xlink="http://www.w3.org/1999/xlink" width="18.81419" height="11.42695" viewBox="0,0,18.81419,11.42695"><g transform="translate(-318.094,-151.97109)"><g data-paper-data="{&quot;isPaintingLayer&quot;:true}" fill-rule="nonzero" stroke="none" stroke-linecap="butt" stroke-linejoin="miter" stroke-miterlimit="10" stroke-dasharray="" stroke-dashoffset="0" style="mix-blend-mode: normal"><path d="M334.48239,151.97109c0.54235,1.26113 1.65805,2.3111 2.12864,3.56826c0.56665,1.51377 0.1487,3.84906 0.1487,5.47026c0,0.27434 0.09611,0.54571 0.07714,0.81939c-0.02382,0.34361 -0.52067,-0.45191 -0.79591,-0.65897c-0.522,-0.3927 -1.07247,-0.68582 -1.72305,-0.68715c-1.38619,-0.00284 -3.10434,0.69114 -3.86587,1.83993c-2.48658,-0.90003 -4.9233,-2.79748 -7.48634,-2.79748c-0.71686,0.00909 -1.57866,0.28833 -2.35161,0.48259c-0.04706,-0.00647 -0.08336,-0.00042 -0.08336,-0.00042c-0.09322,0.01554 -0.18636,0.03247 -0.27944,0.05072c0.18563,-0.18935 0.32685,-0.41325 0.53169,-0.61926c3.33501,-3.3542 -2.6742,-4.1829 -2.6742,-6.08974c0,-0.46865 0.00183,-0.92853 -0.01478,-1.37813z" fill="#8b8b8b" stroke-width="0"/><path d="M325.18497,158.24001l0.29289,-0.35886c-1.17535,0.44337 -2.59533,0.46401 -3.96705,0.6373c0.48876,-0.85966 0.28538,-1.52749 -0.20686,-2.09817c1.95991,-0.2785 4.01866,-0.15511 5.58811,0.04666l0.29289,1.77307c0,0 0,0.99999 -0.99999,1h-0.00001c-0.99999,-0.00001 -0.99999,-1 -0.99999,-1z" fill="#6a6a6a" stroke-width="0.5"/><path d="M330.99982,158.32334c0.23786,-0.60594 -1.31735,-0.24491 -1.85405,-0.61328c-2.24409,-1.54024 -3.47162,-3.32191 -0.91821,-4.95763c0,0 0.91915,-0.39392 1.31306,0.52523c0.39392,0.91915 -0.52523,1.31306 -0.52523,1.31306c-1.37165,-0.31163 3.84431,2.7594 3.92811,3.2614c0.12575,0.75324 -0.53054,2.05929 -1.22326,3.33863c-0.51882,0.29673 -0.9679,0.67903 -1.26821,1.13205c-0.44416,-0.16076 -0.88672,-0.35335 -1.3287,-0.56127c0.62547,-1.18398 1.41225,-2.25557 1.87649,-3.4382z" fill="#6a6a6a" stroke-width="0.5"/><path d="M331.10167,162.32943c-0.20434,0.38251 -0.38976,0.74481 -0.53271,1.06861c0.02275,-0.17601 0.07702,-0.34877 0.1576,-0.51604c0.05393,-0.02053 0.10668,-0.06499 0.13668,-0.15498c0.01376,-0.04129 0.01794,-0.0778 0.01546,-0.10992c0.06588,-0.09858 0.1406,-0.19465 0.22298,-0.28768z" fill="#6a6a6a" stroke-width="0.5"/><path d="M320.60499,152.53497c0,0 0.83205,-0.5547 1.38675,0.27735c0.5547,0.83205 -0.27735,1.38675 -0.27735,1.38675c-0.68706,0.42798 -1.44074,0.67538 -2.22683,0.79256c-0.74312,-0.51608 -1.3788,-1.02222 -1.3788,-1.64241c0,-0.07417 0.00005,-0.14811 0.00006,-0.22183c0.9449,0.03742 1.84003,-0.10284 2.49617,-0.59242z" fill="#6a6a6a" stroke-width="0.5"/><path d="M336.14921,156.41265c0,-0.47832 0.22879,-0.72785 0.4675,-0.85802c0.19554,0.53046 0.27163,1.16044 0.28796,1.82458c-0.29605,-0.07036 -0.75546,-0.28875 -0.75546,-0.96655z" fill="#6a6a6a" stroke-width="0.5"/></g></g></svg>