<svg version="1.1" xmlns="http://www.w3.org/2000/svg" xmlns:xlink="http://www.w3.org/1999/xlink" width="61.27222" height="61.0335" viewBox="0,0,61.27222,61.0335"><g transform="translate(-289.39706,-151.74852)"><g data-paper-data="{&quot;isPaintingLayer&quot;:true}" fill-rule="nonzero" stroke="none" stroke-linecap="butt" stroke-linejoin="miter" stroke-miterlimit="10" stroke-dasharray="" stroke-dashoffset="0" style="mix-blend-mode: normal"><path d="M314.24169,172.88726c1.24584,-1.25368 -0.96671,-2.96597 0.6255,-4.1806c0.52006,-0.49796 2.16303,-1.18242 2.41895,-1.73737c1.04116,-2.25768 -1.30001,-4.11534 -3.38969,-4.07048c1.97442,-0.68243 3.95525,-1.75365 5.98171,-2.24672l0.37496,-0.04951l-0.00026,-0.00198l0.00908,0.00066c0.81524,-0.16948 1.91174,-0.58866 2.70373,-0.57593c2.45158,0 4.8527,1.8489 7.25064,2.74285c-0.1027,0.2552 -0.15943,0.52792 -0.15943,0.81611c0.02846,1.69625 -1.97015,1.10499 -2.70727,2.267c-0.58563,0.9232 0.95819,1.89433 0.97319,2.91948c0.00559,0.38192 -0.49386,0.24931 -1.0047,0.12686c-0.00552,-0.00602 -0.01105,-0.01203 -0.0166,-0.01802l0.02866,-0.17197l-0.48855,-0.08143c-0.01483,-0.00274 -0.03012,-0.00418 -0.04575,-0.00418c-0.13807,0 -0.25,0.11193 -0.25,0.25c0,0.09662 0.05481,0.18044 0.13504,0.22206l0.29627,0.16112c0.19738,0.2117 0.36068,0.45817 0.48862,0.71774c0.60246,1.20124 0.2069,4.02438 1.09899,4.84719c0.17726,0.16349 1.17315,0.29082 1.47752,0.48474c1.01331,0.64561 1.47896,1.62381 2.17908,2.53662c0.77933,0.35434 1.49538,-0.24336 2.29628,-0.46838c1.83266,-0.51489 4.12224,-1.35937 6.03661,-1.38797c-2.04127,1.42724 -3.43607,3.30567 -4.58636,5.79095c-0.02457,2.22043 -0.74874,6.29794 0.05871,8.46631c-1.05655,-0.06948 -2.12277,0.09234 -3.09237,0.51747c-1.88193,1.24955 -5.25055,1.02855 -7.20808,2.35638c0.04298,-0.06863 0.04298,-0.14593 0.04298,-0.14593l-0.00669,-0.53621c-0.89205,-1.7841 -4.7546,-5.95701 -2.29438,-7.45898c0.32257,-0.1985 1.79112,-0.87479 1.82205,-1.27211c0.02845,-0.36555 -1.55475,-0.72907 -1.7975,-0.8333c-1.94869,-0.83664 -3.91155,-1.85129 -5.61802,-3.10686c-1.17797,-0.86672 -2.40187,-1.7605 -3.33177,-2.90802c-0.75239,-0.92846 -1.09563,-2.57074 -2.00435,-3.30692c0.7352,-0.12555 1.36891,-0.32428 1.70321,-0.66069z" fill="#8b8b8b" stroke-width="0"/><path d="M301.69811,187.74892c0.12696,-0.01193 0.22631,-0.11881 0.22631,-0.24889c0,-0.08768 -0.04514,-0.16482 -0.11345,-0.20944l-0.3582,-0.24137c-0.58669,-1.98084 1.82093,-1.95225 1.85979,-3.10429c0.0172,-0.50981 -1.98632,-1.02033 -2.44043,-1.16805c4.42246,-0.67252 -0.3347,-2.40549 -0.95819,-4.03648c-0.04478,-0.11714 1.07073,-0.44174 1.84329,-0.65921l0.00946,0.05678l0.48914,-0.08152c0.1205,-0.0179 0.21295,-0.12179 0.21295,-0.24727c0,-0.07348 -0.0317,-0.13955 -0.08216,-0.18529l-0.24963,-0.22788c-0.25614,-0.23285 -0.53472,-0.44315 -0.82885,-0.62569l0.03658,-0.00217c1.74912,-0.59671 3.80328,-0.42142 5.46322,-1.29344c0.85118,-0.44715 0.6492,-1.18409 1.90976,-1.58092c0.66504,-0.10627 1.88636,-0.11787 3.03527,-0.23973c0.05131,0.05982 0.12183,0.08333 0.12183,0.08333c0.94724,0.30025 1.46163,2.15056 2.01772,3.02333c0.8906,1.3978 2.37057,2.43725 3.68575,3.40492c1.44787,1.0653 3.14051,2.05777 4.79822,2.76954c0.46042,0.19769 0.92099,0.42614 1.3921,0.59651c0.20212,0.0731 0.67788,0.15132 0.92884,0.18694c-0.47958,0.00827 -1.12665,0.60625 -1.49141,0.83072c-2.94981,1.83178 1.0307,5.92148 2.0698,7.99969l-0.00669,0.42134c0,0 0,0.25 0.25,0.25c0.02649,0 0.05018,-0.00281 0.07135,-0.00783c-0.58766,0.43612 -1.03225,1.02892 -1.24661,1.86921c-1.59585,1.58629 -2.39029,2.74555 -4.868,2.74555c-0.37775,0 -1.32749,0.17721 -1.62985,-0.06329c-0.02728,-0.03869 -0.0547,-0.07732 -0.08229,-0.11587c-0.00019,-0.00061 -0.00038,-0.00122 -0.00057,-0.00183c0,0 -0.01601,-0.03202 -0.04803,-0.06577c-0.56884,-0.7872 -1.21476,-1.53924 -2.18229,-2.11117c-2.95912,-2.13195 -5.23551,-2.75177 -8.74989,-3.57214c-0.68974,-1.01249 -2.02278,-0.709 -2.97938,-1.18962c-0.75449,-0.37908 -0.32762,-1.35549 -0.76853,-1.89803c-0.37205,-0.45781 -0.9804,-0.7786 -1.57526,-1.03514z" fill="#8b8b8b" stroke-width="0"/><path d="M302.10735,174.4096c0.01117,-0.90847 -0.76971,-0.5416 -1.14411,-0.92539c-0.25367,-0.26003 -0.0667,-1.00743 -0.20541,-1.29932c-0.23919,-0.50332 -0.92539,-1.03048 -1.42865,-1.47104c0.24026,-0.06124 0.48234,-0.1168 0.72653,-0.16585c2.74429,-1.08813 3.98839,-3.00655 3.36477,-6.03874c-0.1498,-0.72838 -0.80436,-1.43037 -0.80859,-2.13452c-0.092,-2.35998 -1.91243,-2.59869 -2.3767,-4.38864c-0.3118,-1.20212 2.30646,-2.36472 3.03058,-3.03731c0.45213,-0.42226 1.21163,-0.70149 1.45546,-1.29285c0.15713,-0.3811 0.27539,-0.98993 0.33221,-1.68486h12.54384c0.01577,0.44976 0.01149,0.90999 0.01149,1.37813c0,2.09714 2.17762,1.37583 3.23944,2.90714c0.9043,1.30413 -0.27151,2.52261 -0.95636,3.64503l-0.07511,-0.04507l-0.20892,0.3482c-2.08676,0.53657 -4.1394,1.63726 -6.16368,2.32365l-0.02341,0.02394l-0.00507,-0.00764l-0.31994,0.21217c-0.06923,0.04446 -0.1151,0.12213 -0.1151,0.21052c0,0.11246 0.07426,0.20758 0.17641,0.23899l0.46887,0.15629l0.01871,-0.05613c1.79042,0.6956 4.11482,0.82219 3.19086,3.44646c-0.10633,0.30201 -1.92562,1.22159 -2.2932,1.57387c-1.71204,1.30171 0.43189,3.20433 -0.65017,4.20317c-0.89368,0.82494 -4.09696,0.68362 -5.28953,0.8774c-0.38407,0.12092 -1.17372,0.29508 -1.49591,0.506c-0.30022,0.19653 -0.3257,1.04969 -0.53989,1.12351c-1.7678,0.60923 -3.59657,0.67437 -5.38013,1.25707l-0.08722,-0.01134c0,0 -0.1657,0.00149 -0.22608,0.13695c-0.48753,-0.69685 1.22539,-1.30755 1.23403,-2.00978z" fill="#8b8b8b" stroke-width="0"/><path d="M334.48239,151.97109c0.54235,1.26113 1.65805,2.3111 2.12864,3.56826c0.56665,1.51377 0.1487,3.84906 0.1487,5.47026c0,0.27434 0.09611,0.54571 0.07714,0.81939c-0.02382,0.34361 -0.52067,-0.45191 -0.79591,-0.65897c-0.522,-0.3927 -1.07247,-0.68582 -1.72305,-0.68715c-1.38619,-0.00284 -3.10434,0.69114 -3.86587,1.83993c-2.48658,-0.90003 -4.9233,-2.79748 -7.48634,-2.79748c-0.71686,0.00909 -1.57866,0.28833 -2.35161,0.48259c-0.04706,-0.00647 -0.08336,-0.00042 -0.08336,-0.00042c-0.09322,0.01554 -0.18636,0.03247 -0.27944,0.05072c0.18563,-0.18935 0.32685,-0.41325 0.53169,-0.61926c3.33501,-3.3542 -2.6742,-4.1829 -2.6742,-6.08974c0,-0.46865 0.00183,-0.92853 -0.01478,-1.37813z" fill="#8b8b8b" stroke-width="0"/><path d="M350.57533,151.97109l0,19.99485c-2.6758,0.72216 -5.32619,1.31764 -7.77585,2.74866c-0.67704,0.30909 -1.29747,0.64723 -1.86915,1.01749c-0.00158,-0.24762 -0.24999,-0.24762 -0.24999,-0.24762c-1.99792,0.00735 -4.36914,0.86409 -6.29806,1.40734c-0.42091,0.11854 -1.50653,0.77819 -1.84051,0.56582c-0.69242,-0.95165 -1.19712,-1.91074 -2.23001,-2.57394c-0.19437,-0.1248 -1.45033,-0.46399 -1.4546,-0.46917c-0.75163,-0.91178 -0.33182,-3.43705 -0.94413,-4.66518c-0.08496,-0.16783 -0.18416,-0.32931 -0.2946,-0.48279c0.45493,0.12973 1.00763,0.11378 1.16154,-0.29325c0.35076,-0.92765 -1.40168,-2.35342 -1.01855,-2.8384c0.94482,-1.19601 2.76883,-0.52648 2.79549,-2.5506c0,-0.24043 0.06084,-0.47636 0.16968,-0.70229c0.05393,-0.02053 0.10668,-0.06499 0.13668,-0.15498c0.01376,-0.04129 0.01794,-0.0778 0.01546,-0.10992c0.7349,-1.09973 2.57078,-1.886 3.83931,-1.64092c0.55045,0.10634 1.92436,1.79885 2.46458,1.21403c0.09591,-0.10382 0.07714,-0.9942 0.07714,-1.18061c0,-1.67015 0.42129,-4.05484 -0.17048,-5.61624c-0.46035,-1.21463 -1.51404,-2.22445 -2.06977,-3.42228z" fill="#8b8b8b" stroke-width="0"/><path d="M350.57533,199.1676c-0.64096,-0.03382 -1.27846,-0.06359 -1.91504,-0.06359c-1.69351,0.00692 -4.02701,-0.23536 -5.05825,-1.80281c-0.7573,-1.15107 -0.77486,-2.34525 -1.7999,-3.43736c-0.9823,-1.96604 -3.03387,-3.24824 -5.20884,-3.56193c-0.98297,-1.86773 -0.1081,-6.27354 -0.13766,-8.41565c1.54983,-3.15189 3.33397,-5.24192 6.57412,-6.72783c2.38054,-1.38674 4.9482,-1.97968 7.54558,-2.6757z" fill="#8b8b8b" stroke-width="0"/><path d="M350.57533,212.78202l-18.71986,0c-0.89839,-1.42014 -2.52563,-2.88603 -3.22798,-4.02096c-1.89495,-2.72022 -3.13447,-5.83893 -6.21503,-7.12915c-2.24675,-0.54391 -3.20361,-1.8842 -4.14875,-3.26317c0.38837,0.02441 0.82068,-0.04146 1.2122,-0.04146c2.68231,0 3.59388,-1.26336 5.3034,-2.99974c0.83285,-3.40291 6.00883,-2.53127 8.39452,-4.12877c2.9742,-1.29025 6.76277,0.10829 8.21807,2.95091c1.01148,1.09903 1.02856,2.26601 1.79284,3.42695c1.14564,1.74022 3.58996,2.01022 5.47479,2.02739c0.63554,0 1.27375,0.02981 1.9158,0.06366z" fill="#8b8b8b" stroke-width="0"/><path d="M289.7644,212.78202v-25.65487c0.65852,-0.20673 1.44039,-0.29046 2.51728,-0.29046c2.53293,0 5.56479,1.21975 8.14802,1.02835c0.04566,0.04904 0.10034,0.07091 0.10034,0.07091c0.72497,0.28999 1.5906,0.60471 2.11515,1.18664c0.51843,0.57514 -0.01288,1.53933 0.9302,2.02988c0.93892,0.48838 2.23685,0.17178 2.91824,1.15251c1.55807,0.46857 3.45939,0.38135 4.89872,0.90127c1.35006,0.48767 2.71948,1.85666 3.8669,2.68159c0.87177,0.51622 1.48984,1.1779 2.0299,1.88097c0.00523,0.0579 0.02682,0.10108 0.02682,0.10108c0.07411,0.12364 0.16335,0.21832 0.26429,0.29033c1.14592,1.58334 2.06754,3.27584 4.67452,3.94616c2.92717,1.22633 4.13761,4.3188 5.95479,6.92916c0.55748,0.90158 2.17009,2.40947 3.09318,3.74648z" fill="#8b8b8b" stroke-width="0"/><path d="M289.7644,174.27521c0.29601,-0.07307 0.58958,-0.15277 0.87951,-0.24199c2.80643,-0.86352 5.35437,-2.35215 8.11495,-3.16278c0.45709,0.43043 1.3026,1.014 1.54737,1.52906c0.21684,0.4563 -0.11757,0.98027 0.29252,1.42698c0.01898,0.02068 1.04812,0.33849 1.00946,0.5539c-0.18385,1.02446 -2.47355,1.55502 -0.56583,2.81344c0.22706,0.13933 0.44365,0.29768 0.64561,0.4719l0.00466,0.02795c-0.78926,-0.04173 -2.34033,0.34213 -2.27593,1.09937c0.07818,0.91916 3.23884,2.53925 3.17646,2.79335c-0.19864,0.80913 -1.56422,0.63494 -2.21938,1.14964c0.50187,0.54821 0.74016,0.83472 1.46707,0.99369c0.09103,0.01991 1.00209,0.1103 0.97506,0.15722c-0.75736,1.31459 -2.48888,1.24292 -1.79004,3.38227c-0.5138,-0.09067 -1.17936,0.11014 -1.65922,0.02855c-2.41674,-0.41089 -4.51353,-0.96106 -7.085,-0.96106c-1.04211,0 -1.83698,0.08352 -2.51728,0.27943z" fill="#8b8b8b" stroke-width="0"/><path d="M289.7644,151.97109h14.75315c-0.05128,0.64864 -0.14519,1.19828 -0.25597,1.48808c-0.17663,0.46207 -0.97709,0.79019 -1.33646,1.12363c-0.95043,0.88664 -3.56374,1.91268 -3.17515,3.52394c0.44714,1.85402 2.27348,1.95352 2.3623,4.28725c0.04853,0.79074 0.65407,1.43034 0.81994,2.22288c0.58517,2.79608 -0.51791,4.44349 -3.01889,5.45184c-3.27692,0.65252 -6.17766,2.49007 -9.41645,3.48662c-0.2426,0.07465 -0.48692,0.14291 -0.73247,0.20633z" fill="#8b8b8b" stroke-width="0"/><path d="M300.17548,164.63723c-1.46306,1.9727 -2.17371,3.86088 -2.42409,6.02849c-0.69971,0.24105 -1.38873,0.51823 -2.07496,0.8092c0.169,-2.95722 0.98844,-5.54689 2.91506,-8.05877c0.90015,-1.17359 2.06108,-1.67492 3.1047,-2.54665c0.22954,0.39106 0.39116,0.86988 0.41608,1.52449c0.01095,0.17843 0.05027,0.34917 0.10649,0.5157c-0.74362,0.50237 -1.49161,0.98368 -2.04328,1.72753z" fill="#6a6a6a" stroke-width="0.5"/><path d="M305.72487,159.99674c0,0 0.83205,0.5547 0.27735,1.38675c-0.5547,0.83205 -1.38675,0.27735 -1.38675,0.27735c-0.20845,-0.13913 -0.44926,-0.30415 -0.71175,-0.47553c-0.03486,0.37935 -0.31066,0.65515 -0.31066,0.65515c-0.29716,0.29317 -0.62173,0.54455 -0.95498,0.78057c-0.01635,-0.0821 -0.02568,-0.16418 -0.02618,-0.24628c-0.03122,-0.80088 -0.26149,-1.35746 -0.57026,-1.81328c0.04608,-0.04403 0.09182,-0.08907 0.13721,-0.13522c0,0 0.0549,-0.0549 0.14939,-0.1188c-0.22261,-0.09498 -0.44645,-0.17463 -0.66739,-0.23143c-0.51853,-0.59049 -1.10802,-1.08058 -1.38018,-1.93257c1.81512,-0.34025 3.6951,0.68854 5.4442,1.85329z" fill="#6a6a6a" stroke-width="0.5"/><path d="M297.76282,161.66084c-0.83205,-0.5547 -0.27735,-1.38675 -0.27735,-1.38675l0.66783,-0.99298c0.53514,-0.50281 1.08391,-0.82808 1.64055,-1.01213c0.23338,0.7759 0.71883,1.23128 1.18579,1.7124c-0.48072,-0.00129 -0.92368,0.15802 -1.27966,0.56772l-0.55042,0.8344c0,0 -0.5547,0.83205 -1.38675,0.27735z" fill="#6a6a6a" stroke-width="0.5"/><path d="M297.64243,172.70672l0.10096,0.14062c0,0 0.31623,0.94868 -0.63246,1.26491c-0.94868,0.31623 -1.26491,-0.63246 -1.26491,-0.63246l-0.2036,-0.77307c0,-0.22856 0.00328,-0.45486 0.01001,-0.67901c0.67722,-0.28922 1.35652,-0.56692 2.0456,-0.81175c-0.03806,0.48109 -0.0556,0.97677 -0.0556,1.49077z" fill="#6a6a6a" stroke-width="0.5"/><path d="M303.18089,175.27624c-0.75229,0.37614 -1.18821,-0.19682 -1.30776,-0.38842c0.13767,-0.15593 0.23221,-0.31459 0.23423,-0.47821c0.00806,-0.65517 -0.39583,-0.64704 -0.76211,-0.73552c-0.35,-1.18933 -0.40711,-2.44232 -0.19984,-3.64782c1.71653,-0.9924 2.57197,-2.46775 2.4146,-4.5431c0.38265,-0.35785 0.80548,-0.67873 1.26632,-0.95418c0,0 0.86824,-0.49614 1.36438,0.3721c0.49614,0.86824 -0.3721,1.36438 -0.3721,1.36438c-2.3959,1.27844 -3.41365,4.70202 -2.45315,7.1561l0.26266,0.51303c0,0 0.44721,0.89443 -0.44721,1.34164z" fill="#6a6a6a" stroke-width="0.5"/><path d="M301.60877,174.35989l-0.03093,-0.06295c0.01769,0.02153 0.02853,0.04262 0.03093,0.06295z" fill="#6a6a6a" stroke-width="0.5"/><path d="M301.29025,169.35172c0.32211,-1.24716 0.93175,-2.41839 1.79558,-3.38373c0.00589,1.49381 -0.61558,2.58146 -1.79558,3.38373z" fill="#6a6a6a" stroke-width="0.5"/><path d="M300.31981,183.62439c0,0 0.35112,0.93633 -0.58521,1.28745c-0.93633,0.35112 -1.28745,-0.58521 -1.28745,-0.58521c-0.93516,-2.57849 -0.10611,-3.8093 1.63023,-4.63467c0.55765,0.48751 1.34949,0.99619 1.89532,1.36862c-1.51572,0.39296 -2.39129,0.67718 -1.65289,2.5638z" fill="#6a6a6a" stroke-width="0.5"/><path d="M304.32338,180.21233c-0.19612,0.98058 -1.1767,0.78446 -1.1767,0.78446l-0.29057,-0.17134c-0.23732,0.06761 -0.46578,0.1272 -0.6828,0.18329c-0.48962,-0.46389 -1.19856,-0.97288 -1.70469,-1.49009c0.54705,-0.22654 1.16697,-0.424 1.83805,-0.61625l1.23224,0.13322c0,0 0.98058,0.19612 0.78446,1.1767z" fill="#6a6a6a" stroke-width="0.5"/><path d="M299.3098,194.91152c-0.12403,0.99228 -1.11631,0.86824 -1.11631,0.86824l-1.69552,-0.34554c-1.712,-3.41106 0.32875,-4.71387 0.66701,-7.85036c0.66711,0.12369 1.33031,0.22707 1.97666,0.27418c-0.34948,2.15291 -1.83352,3.64034 -1.44106,5.97814l0.74098,-0.04098c0,0 0.99228,0.12403 0.86824,1.11631z" fill="#6a6a6a" stroke-width="0.5"/><path d="M298.28927,186.63799c0.50163,0.0627 0.71797,0.3473 0.80927,0.61341c-0.5716,-0.10035 -1.12665,-0.20717 -1.67596,-0.3111c0.16402,-0.19681 0.43207,-0.35664 0.86669,-0.30231z" fill="#6a6a6a" stroke-width="0.5"/><path d="M309.66259,182.89869c-0.14142,0.98995 -1.13137,0.84853 -1.13137,0.84853l-0.8564,-0.14456c-1.66913,0.41098 -2.39977,2.7835 -2.57834,4.30392c0,0 -0.12403,0.99228 -1.11631,0.86824c-0.99228,-0.12403 -0.86824,-1.11631 -0.86824,-1.11631c0.36698,-2.79835 1.65924,-5.21886 4.4266,-6.0512l1.27554,0.16001c0,0 0.98995,0.14142 0.84853,1.13137z" fill="#6a6a6a" stroke-width="0.5"/><path d="M308.591,169.1064c0.5547,0.83205 -0.27735,1.38675 -0.27735,1.38675l-0.69959,0.41657c-0.32937,0.84002 -0.48985,1.98104 -0.18575,2.85015c-0.12784,0.04856 -0.23983,0.09976 -0.32167,0.15333c-0.30022,0.19653 -0.3257,1.04969 -0.53989,1.12351c-0.19565,0.06743 -0.39205,0.12819 -0.58905,0.18372c-1.02452,-1.65162 -0.7454,-3.68751 0.09876,-5.5897l1.12778,-0.80168c0,0 0.83205,-0.5547 1.38675,0.27735z" fill="#6a6a6a" stroke-width="0.5"/><path d="M308.09457,174.67956c0,0 0.76822,0.64018 0.12804,1.40841c-0.64018,0.76822 -1.40841,0.12804 -1.40841,0.12804c-0.18314,-0.16647 -0.34742,-0.33932 -0.49393,-0.51779c0.16578,-0.06595 0.32855,-0.13993 0.48769,-0.22354c0.5454,-0.28652 0.6584,-0.69201 1.00083,-1.05077c0.08398,0.09448 0.17896,0.18024 0.28578,0.25565z" fill="#6a6a6a" stroke-width="0.5"/><path d="M294.49964,170.34648c-0.98995,0.14142 -1.13137,-0.84853 -1.13137,-0.84853l-0.15982,-1.1365c-0.00816,-3.68868 -2.98268,-8.78819 0.74735,-11.41034c0,0 0.83205,-0.5547 1.38675,0.27735c0.04512,0.06767 0.08106,0.13351 0.10902,0.19737c1.54273,-2.08932 4.0525,-2.80646 6.92965,-2.74111l0.25456,0.13794c-0.74461,0.56348 -1.96281,1.19485 -2.56487,1.99827c-1.8172,0.38386 -3.24431,1.36252 -3.8375,3.52115c0,0 -0.27472,0.96152 -1.23625,0.6868c-0.96152,-0.27472 -0.6868,-1.23625 -0.6868,-1.23625c0.07402,-0.25159 0.15616,-0.49224 0.24605,-0.7223c-1.5198,1.96461 0.65251,6.96381 0.64699,9.14931l0.14475,0.99544c0,0 0.14142,0.98995 -0.84853,1.13137z" fill="#6a6a6a" stroke-width="0.5"/><path d="M303.68666,155.3921c0,0 0.86824,0.49614 0.3721,1.36438c-0.49614,0.86824 -1.36438,0.3721 -1.36438,0.3721l-0.8265,-0.51087c-0.34958,0.01218 -0.69158,0.03675 -1.02371,0.07677c0.67909,-0.63253 1.73063,-1.19846 2.26593,-1.6148z" fill="#6a6a6a" stroke-width="0.5"/><path d="M312.62232,167.81446c-0.89443,0.44721 -1.34164,-0.44721 -1.34164,-0.44721l-0.26952,-0.65379c-0.74106,-0.30195 -1.61915,-0.31491 -2.27046,-0.77982c-4.40191,-3.1421 0.95533,-5.64335 2.08314,-8.14084c0,0 0.44721,-0.89443 1.34164,-0.44721c0.89443,0.44721 0.44721,1.34164 0.44721,1.34164c-0.58825,1.10864 -4.26325,3.17468 -3.46079,4.83546c0.50771,1.05076 2.31815,1.25828 3.27347,1.77656l0.64416,1.17358c0,0 0.44721,0.89443 -0.44721,1.34164z" fill="#6a6a6a" stroke-width="0.5"/><path d="M317.8558,160.04785c-0.19807,0.20921 -0.21836,0.49079 -0.19313,0.79459c-0.82244,0.31587 -1.63975,0.67271 -2.4523,1.00881c0.28589,-1.12905 0.57232,-2.41013 1.03002,-2.98257c1.10582,-1.38303 2.861,-2.0858 4.73839,-2.39828c0.39821,0.75416 0.13852,1.47907 -0.2709,2.17266c-1.06686,0.20345 -2.06668,0.5752 -2.85208,1.40478z" fill="#6a6a6a" stroke-width="0.5"/><path d="M317.70062,162.03226c-0.20503,0.70307 -0.71994,1.27668 -1.03746,1.93706c-0.48201,-0.45777 -1.11626,-0.79362 -1.783,-0.95802c0.05802,-0.16765 0.11382,-0.35199 0.16851,-0.54734c0.8877,-0.35763 1.77823,-0.75569 2.67512,-1.10685c0.02646,0.23521 0.03743,0.46735 -0.02317,0.67515z" fill="#6a6a6a" stroke-width="0.5"/><path d="M315.28365,164.64128c-0.56378,-0.24162 -0.63355,-0.68084 -0.60323,-0.98435c0.64971,0.20634 1.27822,0.41323 1.72376,0.75184c-0.20068,0.22858 -0.5645,0.47081 -1.12053,0.23251z" fill="#6a6a6a" stroke-width="0.5"/><path d="M325.18497,158.24001l0.29289,-0.35886c-1.17535,0.44337 -2.59533,0.46401 -3.96705,0.6373c0.48876,-0.85966 0.28538,-1.52749 -0.20686,-2.09817c1.95991,-0.2785 4.01866,-0.15511 5.58811,0.04666l0.29289,1.77307c0,0 0,0.99999 -0.99999,1l-0.00001,0c-0.99999,-0.00001 -0.99999,-1 -0.99999,-1z" fill="#6a6a6a" stroke-width="0.5"/><path d="M330.99982,158.32334c0.23786,-0.60594 -1.31735,-0.24491 -1.85405,-0.61328c-2.24409,-1.54024 -3.47162,-3.32191 -0.91821,-4.95763c0,0 0.91915,-0.39392 1.31306,0.52523c0.39392,0.91915 -0.52523,1.31306 -0.52523,1.31306c-1.37165,-0.31163 3.84431,2.7594 3.92811,3.2614c0.12575,0.75324 -0.53054,2.05929 -1.22326,3.33863c-0.51882,0.29673 -0.9679,0.67903 -1.26821,1.13205c-0.44416,-0.16076 -0.88672,-0.35335 -1.3287,-0.56127c0.62547,-1.18398 1.41225,-2.25557 1.87649,-3.4382z" fill="#6a6a6a" stroke-width="0.5"/><path d="M327.80361,164.11695c-0.24254,-0.97014 0.72761,-1.21268 0.72761,-1.21268l-0.10986,0.54314c0.12537,-0.43598 0.29144,-0.84909 0.48117,-1.2472c0.43823,0.20977 0.87606,0.40478 1.31379,0.56797c-0.1027,0.2552 -0.15943,0.52792 -0.15943,0.81611c0.00487,0.29009 -0.04955,0.51327 -0.14681,0.68977l-0.8938,0.57049c0,0 -0.97014,0.24254 -1.21268,-0.72761z" fill="#6a6a6a" stroke-width="0.5"/><path d="M331.10167,162.32943c-0.20434,0.38251 -0.38976,0.74481 -0.53271,1.06861c0.02275,-0.17601 0.07702,-0.34877 0.1576,-0.51604c0.05393,-0.02053 0.10668,-0.06499 0.13668,-0.15498c0.01376,-0.04129 0.01794,-0.0778 0.01546,-0.10992c0.06588,-0.09858 0.1406,-0.19465 0.22298,-0.28768z" fill="#6a6a6a" stroke-width="0.5"/><path d="M312.22055,152.26175c0.49614,-0.86824 1.36438,-0.3721 1.36438,-0.3721l0.95807,0.55581c0.85466,0.23745 1.97125,0.53885 3.06604,0.64686c-0.00014,0.08536 -0.00028,0.17099 -0.00028,0.2569c0,1.09824 0.5972,1.42353 1.31861,1.70418c-1.72114,0.12625 -3.5552,-0.29614 -5.16085,-0.76481l-1.17387,-0.66244c0,0 -0.86824,-0.49614 -0.3721,-1.36438z" fill="#6a6a6a" stroke-width="0.5"/><path d="M320.60499,152.53497c0,0 0.83205,-0.5547 1.38675,0.27735c0.5547,0.83205 -0.27735,1.38675 -0.27735,1.38675c-0.68706,0.42798 -1.44074,0.67538 -2.22683,0.79256c-0.74312,-0.51608 -1.3788,-1.02222 -1.3788,-1.64241c0,-0.07417 0.00005,-0.14811 0.00006,-0.22183c0.9449,0.03742 1.84003,-0.10284 2.49617,-0.59242z" fill="#6a6a6a" stroke-width="0.5"/><path d="M291.76943,181.47306c-1,0 -1,-1 -1,-1l0.00772,-0.4286c0.28167,-1.92741 1.4851,-4.53302 2.94087,-5.82174c0,0 0.76822,-0.64018 1.40841,0.12804c0.64018,0.76822 -0.12804,1.40841 -0.12804,1.40841c-1.05868,0.79689 -2.11349,3.21581 -2.23669,4.53337l0.00772,0.18053c0,0 0,1 -1,1z" fill="#6a6a6a" stroke-width="0.5"/><path d="M290.02751,191.45209c-0.92848,-0.37139 -0.55709,-1.29987 -0.55709,-1.29987l0.46482,-1.0302c0.70079,-0.83881 1.14338,-1.4758 1.38025,-2.2572c0.29461,-0.01921 0.61468,-0.02813 0.96619,-0.02813c0.34745,0 0.70429,0.02295 1.06808,0.06206c-0.27267,1.2816 -0.86688,2.28737 -1.87807,3.50364l-0.14431,0.49261c0,0 -0.37139,0.92848 -1.29987,0.55709z" fill="#6a6a6a" stroke-width="0.5"/><path d="M291.53083,185.04149c0,0 0,-1 1,-1c1,0 1,1 1,1c-0.00371,0.48338 -0.03264,0.923 -0.08938,1.33199c-0.37723,-0.02368 -0.76285,-0.03679 -1.15977,-0.03679c-0.30132,0 -0.58197,0.00698 -0.84515,0.02165c0.06923,-0.3848 0.09908,-0.81326 0.0943,-1.31684z" fill="#6a6a6a" stroke-width="0.5"/><path d="M296.91715,199.55603c-0.96152,0.27472 -1.23625,-0.6868 -1.23625,-0.6868l0.11288,-0.50166c-1.20562,0.9608 -3.47517,1.38428 -4.90819,1.03618c0,0 -0.96152,-0.27472 -0.6868,-1.23625c0.27472,-0.96152 1.23625,-0.6868 1.23625,-0.6868c1.29481,0.47682 3.83233,-0.78994 5.44692,-0.79119l0.722,1.63028c0,0 0.27472,0.96152 -0.6868,1.23625z" fill="#6a6a6a" stroke-width="0.5"/><path d="M293.14959,209.84405c-0.66868,-0.33434 -0.5875,-0.91863 -0.50392,-1.19228c-2.09619,-4.65098 1.27873,-5.27058 5.51957,-5.27058c0,0 1,0 1,1c0,1 -1,1 -1,1c-3.15791,0 -5.26248,-0.64194 -3.52173,2.81666l-0.15228,1.19899c0,0 -0.44721,0.89443 -1.34164,0.44721z" fill="#6a6a6a" stroke-width="0.5"/><path d="M301.55472,201.5333c0.86824,0.49614 0.3721,1.36438 0.3721,1.36438l-0.5852,1.02154c-0.85094,1.60874 0.66296,2.87351 0.06493,4.71107c-0.69541,2.13676 -3.49605,2.66122 -5.37324,2.68987c0,0 -1,0 -1,-1c0,-1 1,-1 1,-1c5.08905,0.10528 2.30283,-3.24938 3.52399,-6.30436l0.63304,-1.11039c0,0 0.49614,-0.86824 1.36438,-0.3721z" fill="#6a6a6a" stroke-width="0.5"/><path d="M307.18089,199.36273c-0.76822,0.64018 -1.40841,-0.12804 -1.40841,-0.12804l-0.88482,-1.10111c-0.2339,-0.87191 -0.40112,-3.03596 -0.85235,-3.7137c-0.35635,-0.53524 -1.78044,1.52501 -1.86293,1.86057c0,0 -0.27472,0.96152 -1.23625,0.6868c-0.96152,-0.27472 -0.6868,-1.23625 -0.6868,-1.23625c0.45317,-1.45564 2.80122,-4.44925 4.83744,-3.01243c0.94531,0.66704 1.33368,3.3967 1.58415,4.50948l0.63799,0.72626c0,0 0.64018,0.76822 -0.12804,1.40841z" fill="#6a6a6a" stroke-width="0.5"/><path d="M313.14644,183.87943c0.85749,0.5145 0.343,1.37199 0.343,1.37199l-0.31434,0.24691c-0.0402,1.08289 -0.48652,2.21901 -1.22647,3.01067c-0.40102,0.42905 -1.25271,0.50083 -1.40027,1.06927c-0.16053,0.61841 0.25553,1.25329 0.3348,1.88727c0,0 0.12403,0.99228 -0.86824,1.11631c-0.99228,0.12403 -1.11631,-0.86824 -1.11631,-0.86824c-0.03633,-0.29075 -0.33032,-2.50953 -0.27432,-2.68117c0.55736,-1.70828 2.68005,-1.64605 2.55082,-3.53411l0.59935,-1.2759c0,0 0.5145,-0.85749 1.37199,-0.343z" fill="#6a6a6a" stroke-width="0.5"/><path d="M313.83094,178.95987c0,0 0.44721,0.89443 -0.44721,1.34164c-0.89443,0.44721 -1.34164,-0.44721 -1.34164,-0.44721c-0.94866,-2.00325 -0.62608,-3.75196 0.54878,-5.54016c0.43963,0.58247 0.77395,1.45839 1.10291,2.09539c-0.33088,0.81295 -0.34794,1.65693 0.13716,2.55035z" fill="#6a6a6a" stroke-width="0.5"/><path d="M314.60248,173.27725c0.8,0.6 0.2,1.4 0.2,1.4l-0.44311,0.59036c-0.15086,0.20241 -0.28691,0.40629 -0.40495,0.61196c-0.33597,-0.68285 -0.63395,-1.43962 -1.0692,-1.97899l0.31727,-0.42333c0,0 0.03113,-0.0415 0.08865,-0.09851c0.29053,-0.08569 0.54476,-0.19161 0.74374,-0.32392c0.17168,0.00716 0.36311,0.06905 0.56761,0.22243z" fill="#6a6a6a" stroke-width="0.5"/><path d="M327.2704,178.96582c-0.6247,0.78087 -1.40556,0.15617 -1.40556,0.15617l-1.12899,-1.26596c-0.26911,-2.15325 -1.22658,-4.26804 -1.22597,-6.36756c0.00002,-0.07271 0.18468,-2.33866 -0.26024,-2.63577c-0.18485,-0.12344 -3.87469,0.73998 -4.37416,0.74243c0,0 -1,0 -1,-1c0,-1 1,-1 1,-1c1.19438,0.00685 4.405,-1.12003 5.37183,-0.47582c0.73217,0.48785 0.99566,1.48486 1.23991,2.33009c0.28222,0.97662 -0.24038,2.0622 0.00088,3.04973c0.43024,1.76102 0.99972,3.2484 1.23231,5.10883l0.39382,-0.04771c0,0 0.78087,0.6247 0.15617,1.40556z" fill="#6a6a6a" stroke-width="0.5"/><path d="M317.37078,193.17223c-0.66896,-0.74329 0.07433,-1.41226 0.07433,-1.41226l0.03622,-0.0326c0.18218,-0.16361 2.80589,-2.26875 2.84113,-2.71871c0.14023,-1.79054 -0.44725,-2.11447 0.75235,-3.86824c0.25036,-0.36601 -0.88679,-0.21729 -1.23714,-0.48912c-0.49112,-0.38106 -1.00708,-0.79909 -1.27694,-1.35907c-0.36461,-0.75661 -0.35873,-1.64544 -0.19379,-2.57003c0.60683,0.41092 1.24456,0.8045 1.89561,1.16767c0.01973,0.2294 0.06619,0.44335 0.14595,0.637c0.58244,1.41409 2.3016,0.33236 2.61477,2.14516c-0.7252,0.52703 -0.94859,1.21585 -0.87181,1.97923c-0.15233,0.21045 -0.27616,0.41581 -0.32306,0.59963c-0.17312,0.67845 0.5999,1.35798 0.47311,2.0466c-0.24177,1.31307 -2.60997,3.12983 -3.48223,3.91646l-0.03622,0.0326c0,0 -0.74329,0.66896 -1.41226,-0.07433z" fill="#6a6a6a" stroke-width="0.5"/><path d="M319.55669,176.09875c0,0 0.11043,-0.99388 1.10432,-0.88345c0.99388,0.11043 0.88345,1.10432 0.88345,1.10432c-0.14462,1.26949 -1.15153,3.35665 -1.27976,4.97261c-0.61349,-0.34417 -1.21241,-0.71103 -1.78738,-1.10276c0.33575,-1.43988 0.95316,-2.92095 1.07938,-4.09072z" fill="#6a6a6a" stroke-width="0.5"/><path d="M323.06883,185.29735c-0.0227,0.17019 -0.16479,0.38732 -0.34594,0.62412c0.06265,-0.22874 0.17471,-0.43855 0.34594,-0.62412z" fill="#6a6a6a" stroke-width="0.5"/><path d="M317.42331,190.57803c0,0 0.5547,0.83205 -0.27735,1.38675c-0.83205,0.5547 -1.38675,-0.27735 -1.38675,-0.27735c-0.25677,-1.32041 -2.31288,1.22936 -1.91711,2.06677c0.26009,0.55033 2.35727,1.53851 2.81948,1.97465c0.70427,0.66454 1.03687,1.38755 1.3699,2.11979c-0.07461,-0.01947 -0.13799,-0.04692 -0.18543,-0.08465c-0.02728,-0.03869 -0.0547,-0.07732 -0.08229,-0.11587c-0.00019,-0.00061 -0.00038,-0.00122 -0.00057,-0.00183c0,0 -0.01601,-0.03202 -0.04803,-0.06577c-0.56884,-0.7872 -1.21476,-1.53924 -2.18229,-2.11117c-1.32857,-0.9572 -2.51952,-1.60958 -3.74668,-2.11215c0.01253,-2.77387 3.54337,-5.22586 5.63713,-2.77917z" fill="#6a6a6a" stroke-width="0.5"/><path d="M318.29407,198.41302c-0.01013,-0.01476 -0.02025,-0.02952 -0.03037,-0.04429c0.00305,0.00019 0.00611,0.00038 0.00916,0.00056c0.00703,0.01458 0.0141,0.02916 0.02121,0.04374z" fill="#6a6a6a" stroke-width="0.5"/><path d="M317.12179,201.30732c-0.04331,-0.34648 0.04949,-0.5871 0.18862,-0.75354c-0.54713,-0.8893 -0.71805,-1.74645 -1.27646,-2.67039c-0.86755,-1.43545 -3.373,-1.75766 -4.00303,-3.28088c-0.16844,-0.40724 -0.24477,-0.82225 -0.24478,-1.23048c1.22024,0.58275 2.43715,1.77102 3.47311,2.51582c0.87177,0.51622 1.48984,1.1779 2.0299,1.88097c0.00523,0.0579 0.02682,0.10108 0.02682,0.10108c0.07411,0.12364 0.16335,0.21832 0.26429,0.29033c0.80112,1.10692 1.49261,2.26719 2.72698,3.09426c-0.09351,0.40965 -0.43859,0.72351 -0.86406,0.77044l-1.20509,0.15064c0,0 -0.99228,0.12403 -1.11631,-0.86824z" fill="#6a6a6a" stroke-width="0.5"/><path d="M319.87411,200.19035c0.16936,0.10938 0.30355,0.26854 0.38188,0.45679c-0.31046,-0.23156 -0.58368,-0.48671 -0.83301,-0.75754z" fill="#6a6a6a" stroke-width="0.5"/><path d="M310.47121,206.4736c-0.87416,-0.48564 -0.38851,-1.3598 -0.38851,-1.3598l0.66004,-0.66498c-2.37339,-1.26889 -0.37626,-4.92048 0.53794,-6.75837c0,0 0.44721,-0.89443 1.34164,-0.44721c0.89443,0.44721 0.44721,1.34164 0.44721,1.34164c-1.04464,2.07736 -2.23098,3.81561 -0.37575,5.42412l-0.86277,2.07608c0,0 -0.48564,0.87416 -1.3598,0.38851z" fill="#6a6a6a" stroke-width="0.5"/><path d="M318.97346,208.3948c0.70711,0.70711 0,1.41421 0,1.41421l-0.25939,0.24517c-4.51213,3.32037 -12.08209,3.80394 -13.8963,-2.50493c0,0 -0.27472,-0.96152 0.6868,-1.23625c0.96152,-0.27472 1.23625,0.6868 1.23625,0.6868c1.36654,4.81781 7.42545,4.02572 10.77325,1.45438l0.04517,-0.05939c0,0 0.70711,-0.70711 1.41421,0z" fill="#6a6a6a" stroke-width="0.5"/><path d="M325.66979,195.03084c0.58764,1.47903 1.36715,4.26897 0.67765,5.92601c-0.28118,0.67575 -1.35265,1.43797 -2.10669,1.79836c-0.53518,-0.4501 -1.13513,-0.83299 -1.82829,-1.12331c-0.32386,-0.0784 -0.62092,-0.17335 -0.895,-0.28258c0.6272,-0.13321 1.27333,-0.19078 1.72807,-0.34113c1.96865,-0.65088 1.34847,-3.3334 0.74366,-4.86587c0.24941,-0.25646 0.50897,-0.52923 0.79012,-0.81479c0.08399,-0.34318 0.21216,-0.64289 0.37718,-0.90604z" fill="#6a6a6a" stroke-width="0.5"/><path d="M323.24996,193.72366c0.75926,-0.65079 1.41005,0.10847 1.41005,0.10847l0.154,0.18281c-0.20506,0.30339 -0.36517,0.65543 -0.47011,1.06679c-0.23492,0.23351 -0.45247,0.45777 -0.66058,0.67044l-0.54182,-0.61845c0,0 -0.65079,-0.75926 0.10847,-1.41005z" fill="#6a6a6a" stroke-width="0.5"/><path d="M322.39791,203.19513c-0.28482,0.03424 -0.96499,-0.29135 -0.86026,-0.02429c0.13702,0.3494 0.76949,0.18523 1.02951,0.45587c0.39411,0.41021 0.55814,0.99139 0.83721,1.48708c0,0 0.48564,0.87416 -0.38851,1.3598c-0.87416,0.48564 -1.3598,-0.38851 -1.3598,-0.38851c-0.61604,-1.12675 -2.36927,-1.98061 -2.09258,-3.2346c0.15514,-0.7031 0.64342,-1.07581 1.2382,-1.29965c0.42037,0.22417 0.89862,0.41298 1.4531,0.55556c0.53914,0.22587 1.02004,0.51505 1.45722,0.85286c-0.4256,0.12628 -0.87302,0.18285 -1.31409,0.23588z" fill="#6a6a6a" stroke-width="0.5"/><path d="M326.08699,181.59332c0.70711,-0.70711 1.41421,0 1.41421,0l0.15216,0.17962c2.8999,2.11669 1.48522,5.04666 -0.609,7.17356c0,0 -0.70711,0.70711 -1.41421,0c-0.70711,-0.70711 0,-1.41421 0,-1.41421c1.02616,-1.00667 2.76479,-3.068 0.91381,-4.09524l-0.45697,-0.42951c0,0 -0.70711,-0.70711 0,-1.41421z" fill="#6a6a6a" stroke-width="0.5"/><path d="M331.66709,173.99094c1,0 1,1 1,1c0,0.40608 0,1.87813 0,2.28422c0,0 0,0.09102 -0.02746,0.21813c-0.03726,-0.00642 -0.07015,-0.01804 -0.09786,-0.03566c-0.60805,-0.83569 -1.07134,-1.67713 -1.87468,-2.31888v-0.14781c0,0 0,-1 1,-1z" fill="#6a6a6a" stroke-width="0.5"/><path d="M331.66709,178.27516c-1,0 -1,-1 -1,-1c0,-0.40608 0,-0.81217 0,-1.21825v-0.25573c0.61643,0.59821 1.01608,1.33859 1.55431,2.04032c0.07781,0.03538 0.15499,0.06127 0.23169,0.07898c-0.14377,0.19318 -0.38414,0.35467 -0.78599,0.35467z" fill="#6a6a6a" stroke-width="0.5"/><path d="M334.19384,169.30008c0.97014,0.24254 0.72761,1.21268 0.72761,1.21268l-0.47163,1.12585c-0.65984,0.56556 -1.32265,1.12769 -1.99026,1.68406c0,0 -0.76822,0.64018 -1.40841,-0.12804c-0.64018,-0.76822 0.12804,-1.40841 0.12804,-1.40841c0.66052,-0.55041 1.31626,-1.10657 1.96905,-1.66613l-0.16707,-0.0924c0,0 0.24254,-0.97014 1.21268,-0.72761z" fill="#6a6a6a" stroke-width="0.5"/><path d="M340.33545,157.29133c0.94868,-0.31623 1.26491,0.63246 1.26491,0.63246l0.49525,1.52658c0.01648,2.34245 0.54969,6.41165 -1.41442,8.23919c-1.1228,1.04473 -3.73914,1.22743 -5.21793,1.43869c0,0 -0.98995,0.14142 -1.13137,-0.84853c-0.14142,-0.98995 0.84853,-1.13137 0.84853,-1.13137c1.14705,-0.16386 3.36685,-0.2588 4.2235,-0.99781c1.24926,-1.0777 0.70573,-4.99752 0.71752,-6.3798l-0.41844,-1.21448c0,0 -0.31623,-0.94868 0.63246,-1.26491z" fill="#6a6a6a" stroke-width="0.5"/><path d="M345.25511,157.33799c-0.31623,0.94868 -1.26491,0.63246 -1.26491,0.63246l-0.69532,-0.26891c-1.37562,-1.02642 -4.10914,-0.35814 -5.89178,-0.29374c-0.01293,-0.72377 -0.0908,-1.41369 -0.30564,-1.99253c0.03275,-0.00262 0.05175,-0.00262 0.05175,-0.00262c2.44829,0 5.11815,-0.70632 7.25507,0.62479l0.21837,0.03565c0,0 0.94868,0.31623 0.63246,1.26491z" fill="#6a6a6a" stroke-width="0.5"/><path d="M336.14921,156.41265c0,-0.47832 0.22879,-0.72785 0.4675,-0.85802c0.19554,0.53046 0.27163,1.16044 0.28796,1.82458c-0.29605,-0.07036 -0.75546,-0.28875 -0.75546,-0.96655z" fill="#6a6a6a" stroke-width="0.5"/><path d="M348.88449,167.35762c-0.6639,-0.33195 -0.58862,-0.91029 -0.50571,-1.18636c-1.63947,-3.47689 -2.98536,-8.66931 -0.41546,-11.77994c0,0 0.65079,-0.75926 1.41005,-0.10847c0.75926,0.65079 0.10847,1.41005 0.10847,1.41005c-2.16263,2.39562 -0.39156,7.44899 0.89658,10.01852l-0.15228,1.19899c0,0 -0.44721,0.89443 -1.34164,0.44721z" fill="#6a6a6a" stroke-width="0.5"/><path d="M339.23731,174.92404l0.5636,-0.09085c1.21627,-0.07237 -0.8546,-2.92142 0.05241,-4.25148c0.7148,-1.0482 3.10315,-0.70237 4.14853,-0.70237c0,0 1,0 1,1c0,1 -1,1 -1,1c-0.85118,0 -2.23641,-0.88382 -2.55184,-0.09324c-0.35293,0.88457 0.78953,2.01453 0.85875,3.16254c-0.48939,0.2438 -0.94774,0.50451 -1.37843,0.78345c-0.00158,-0.24762 -0.24999,-0.24762 -0.24999,-0.24762c-0.71461,0.00263 -1.47699,0.11392 -2.2498,0.28067c0.05854,-0.69145 0.80677,-0.8411 0.80677,-0.8411z" fill="#6a6a6a" stroke-width="0.5"/><path d="M339.39946,176.90085c-0.27789,-0.00654 -0.73003,-0.10529 -0.90659,-0.64613c0.70882,-0.15469 1.40703,-0.25979 2.06141,-0.26957c-0.40993,0.28662 -0.79378,0.59143 -1.15482,0.91569z" fill="#6a6a6a" stroke-width="0.5"/><path d="M342.12822,175.79305c-0.27869,0.52096 -1.02632,0.58562 -1.53948,0.87844l-0.16256,0.03622c0.54485,-0.42019 1.14266,-0.80394 1.80665,-1.15621c-0.02705,0.08065 -0.06162,0.16119 -0.10461,0.24155z" fill="#6a6a6a" stroke-width="0.5"/><path d="M341.87905,181.88218c-0.8,-0.6 -0.2,-1.4 -0.2,-1.4l0.25684,-0.00912c0.01774,-1.06148 -0.22305,-2.401 0.93111,-3.13487c0.9475,-0.60247 6.0512,0.17701 5.77675,-2.07279c-0.0511,-0.41893 -1.13821,-1.24324 -1.73735,-1.76303c0.74728,-0.23622 1.50365,-0.44429 2.26509,-0.64723c0.27755,0.22143 0.54753,0.4499 0.76818,0.72477c2.38495,2.97088 -1.63266,5.09944 -4.08429,5.59289c-0.63444,0.1277 -1.30285,-0.26289 -1.93691,-0.1333c-0.46821,0.09569 0.00622,0.95581 0.01743,1.43357l-0.65684,1.20912c0,0 -0.6,0.8 -1.4,0.2z" fill="#6a6a6a" stroke-width="0.5"/><path d="M346.71186,171.78621c0.76822,-0.64018 1.40841,0.12804 1.40841,0.12804c0.16803,0.20482 0.36323,0.38401 0.56786,0.55427c-0.72953,0.19679 -1.45402,0.40117 -2.16982,0.6331c-0.14098,-0.22342 -0.41365,-0.80941 0.19355,-1.31541z" fill="#6a6a6a" stroke-width="0.5"/><path d="M345.98837,189.00844c0.04804,-0.08511 0.11333,-0.17151 0.19973,-0.25791c0.70711,-0.70711 1.41421,0 1.41421,0l-0.18561,1.98786c-2.27444,0.50255 -5.84993,1.22324 -7.87829,-0.37408c-0.69996,-0.55122 -0.98513,-3.20617 -1.4622,-3.45373c-0.31916,-0.16562 -0.73769,0.11127 -1.0787,-0.00273c-0.30484,-0.10191 -0.58723,-0.22327 -0.84863,-0.36234c0.03595,-0.78504 0.10686,-1.58896 0.17154,-2.34014c0.32817,0.34415 0.74785,0.61857 1.28508,0.79712c0.53443,0.17763 1.20935,-0.03276 1.66236,0.30184c1.08932,0.80457 0.60475,2.78578 1.58343,3.5512c1.1347,0.88745 3.48771,0.50695 5.13711,0.1529z" fill="#6a6a6a" stroke-width="0.5"/><path d="M333.26593,181.83272c0,0 -0.14142,-0.98995 0.84853,-1.13137c0.98995,-0.14142 1.13137,0.84853 1.13137,0.84853c0.09798,0.74324 0.27848,1.44923 0.6186,2.0406c-0.06675,0.83763 -0.14852,1.75767 -0.19057,2.66775c-1.44194,-0.98649 -2.13108,-2.59615 -2.40793,-4.42551z" fill="#6a6a6a" stroke-width="0.5"/><path d="M341.70285,195.92028c-0.02109,-0.05272 -0.03798,-0.10364 -0.0511,-0.1528c-0.77086,-0.34027 -1.44918,-0.7772 -2.37004,-1.09329c-2.59669,-0.89132 -6.50316,1.19638 -7.22805,-2.90619c-0.00189,-0.01069 -0.00376,-0.02139 -0.00561,-0.03211c0.41576,-0.14396 0.79723,-0.31713 1.12578,-0.53713c0.24352,-0.10564 0.4925,-0.19326 0.7452,-0.26353c-0.72473,2.0693 4.81608,1.45721 5.97067,1.83361c0.29817,0.09721 0.56281,0.21041 0.80856,0.33034c0.26726,0.32291 0.50091,0.67404 0.69364,1.05049c0.71274,0.77443 0.93173,1.5826 1.26632,2.39862c-0.30345,0.01938 -0.73103,-0.06719 -0.95537,-0.62802z" fill="#6a6a6a" stroke-width="0.5"/><path d="M332.09973,189.8721c0.19223,-0.55146 0.72821,-0.91321 1.09232,-1.36981c0,0 0.65079,-0.75926 1.41005,-0.10847c0.75926,0.65079 0.10847,1.41005 0.10847,1.41005c-0.18986,0.19685 -0.34493,0.3794 -0.46835,0.54874c-0.44839,0.08793 -0.88727,0.22282 -1.30796,0.40728c-0.28701,0.19057 -0.6086,0.34693 -0.95449,0.4798c-0.04492,-0.46383 -0.03032,-0.93646 0.11997,-1.36759z" fill="#6a6a6a" stroke-width="0.5"/><path d="M343.51677,194.25205l-0.40161,1.73856l0.15354,0.24599c-0.06907,-0.00936 -0.13676,-0.01979 -0.20315,-0.03122l-0.00493,0.02133c-0.32281,-0.80443 -0.54999,-1.60803 -1.25848,-2.36288c-0.04018,-0.08042 -0.08215,-0.1597 -0.12585,-0.23782c0.53372,0.28949 1.07904,0.54132 1.84048,0.62603z" fill="#6a6a6a" stroke-width="0.5"/><path d="M345.86423,199.64881c0.31623,0.94868 -0.63246,1.26491 -0.63246,1.26491l-1.22991,0.35588c-5.38926,0 -12.91487,-1.31252 -15.6657,-6.64403c0,0 -0.44721,-0.89443 0.44721,-1.34164c0.89443,-0.44721 1.34164,0.44721 1.34164,0.44721c2.22157,4.63858 9.39478,5.53846 13.87684,5.53846l0.59746,-0.25325c0,0 0.12453,-0.04151 0.2984,-0.04933c0.23303,0.10291 0.47572,0.18969 0.72438,0.26276c0.09667,0.1002 0.18116,0.2361 0.24214,0.41903z" fill="#6a6a6a" stroke-width="0.5"/><path d="M333.36727,205.3339c-0.09412,0.28935 -0.33291,0.65641 -0.93877,0.65641c-1,0 -1,-1 -1,-1l0.01605,-1.24439c0.37794,-0.66385 0.40183,-1.77311 1.13382,-1.99154c3.29478,-0.98318 1.61466,1.28246 2.12138,2.11589c0.07443,0.12243 2.74371,0.04421 2.98111,-0.00549c2.78684,-0.58341 5.96232,-0.09311 8.65592,-1.31109c0,0 0.91381,-0.40614 1.31995,0.50767c0.40614,0.91381 -0.50767,1.31995 -0.50767,1.31995c-2.92091,1.27936 -7.45918,1.43711 -10.60897,1.45672c-0.93202,0.0058 -2.32886,0.1165 -3.17282,-0.50413z" fill="#6a6a6a" stroke-width="0.5"/><path d="M348.56117,211.72928c-0.8,0.6 -1.4,-0.2 -1.4,-0.2l0.06844,-0.2476c-3.15568,-0.91499 -6.27819,0.12564 -9.45769,-0.27575c-1.19986,-0.15148 -1.95156,-0.94779 -3.04442,-1.25149c-2.41476,-0.67105 -4.53336,-0.77963 -6.59455,-1.73129c-0.66204,-1.02149 -1.26548,-2.07001 -1.935,-3.03433c0.5491,-0.29884 1.08406,0.14696 1.08406,0.14696c2.51226,2.09889 5.05495,1.83747 8.02506,2.70447c0.96134,0.28062 1.71251,1.0756 2.74226,1.18501c3.29311,0.34989 6.44541,-0.59319 9.72973,0.33337l0.98212,0.97065c0,0 0.6,0.8 -0.2,1.4z" fill="#6a6a6a" stroke-width="0.5"/><path d="M326.00164,206.67223c0,0 -0.73435,-0.61196 -0.16877,-1.35723c0.4939,0.71755 0.95026,1.48343 1.4208,2.24534c-0.41764,-0.24875 -0.83431,-0.54082 -1.25203,-0.88811z" fill="#6a6a6a" stroke-width="0.5"/></g></g></svg>