<svg version="1.1" xmlns="http://www.w3.org/2000/svg" xmlns:xlink="http://www.w3.org/1999/xlink" width="22.9569" height="26.30407" viewBox="0,0,22.9569,26.30407"><g transform="translate(-327.61843,-151.97109)"><g data-paper-data="{&quot;isPaintingLayer&quot;:true}" fill-rule="nonzero" stroke="none" stroke-linecap="butt" stroke-linejoin="miter" stroke-miterlimit="10" stroke-dasharray="" stroke-dashoffset="0" style="mix-blend-mode: normal"><path d="M350.57533,151.97109v19.99485c-2.6758,0.72216 -5.32619,1.31764 -7.77585,2.74866c-0.67704,0.30909 -1.29747,0.64723 -1.86915,1.01749c-0.00158,-0.24762 -0.24999,-0.24762 -0.24999,-0.24762c-1.99792,0.00735 -4.36914,0.86409 -6.29806,1.40734c-0.42091,0.11854 -1.50653,0.77819 -1.84051,0.56582c-0.69242,-0.95165 -1.19712,-1.91074 -2.23001,-2.57394c-0.19437,-0.1248 -1.45033,-0.46399 -1.4546,-0.46917c-0.75163,-0.91178 -0.33182,-3.43705 -0.94413,-4.66518c-0.08496,-0.16783 -0.18416,-0.32931 -0.2946,-0.48279c0.45493,0.12973 1.00763,0.11378 1.16154,-0.29325c0.35076,-0.92765 -1.40168,-2.35342 -1.01855,-2.8384c0.94482,-1.19601 2.76883,-0.52648 2.79549,-2.5506c0,-0.24043 0.06084,-0.47636 0.16968,-0.70229c0.05393,-0.02053 0.10668,-0.06499 0.13668,-0.15498c0.01376,-0.04129 0.01794,-0.0778 0.01546,-0.10992c0.7349,-1.09973 2.57078,-1.886 3.83931,-1.64092c0.55045,0.10634 1.92436,1.79885 2.46458,1.21403c0.09591,-0.10382 0.07714,-0.9942 0.07714,-1.18061c0,-1.67015 0.42129,-4.05484 -0.17048,-5.61624c-0.46035,-1.21463 -1.51404,-2.22445 -2.06977,-3.42228z" fill="#8b8b8b" stroke-width="0"/><path d="M327.80361,164.11695c-0.24254,-0.97014 0.72761,-1.21268 0.72761,-1.21268l-0.10986,0.54314c0.12537,-0.43598 0.29144,-0.84909 0.48117,-1.2472c0.43823,0.20977 0.87606,0.40478 1.31379,0.56797c-0.1027,0.2552 -0.15943,0.52792 -0.15943,0.81611c0.00487,0.29009 -0.04955,0.51327 -0.14681,0.68977l-0.8938,0.57049c0,0 -0.97014,0.24254 -1.21268,-0.72761z" fill="#6a6a6a" stroke-width="0.5"/><path d="M331.10167,162.32943c-0.20434,0.38251 -0.38976,0.74481 -0.53271,1.06861c0.02275,-0.17601 0.07702,-0.34877 0.1576,-0.51604c0.05393,-0.02053 0.10668,-0.06499 0.13668,-0.15498c0.01376,-0.04129 0.01794,-0.0778 0.01546,-0.10992c0.06588,-0.09858 0.1406,-0.19465 0.22298,-0.28768z" fill="#6a6a6a" stroke-width="0.5"/><path d="M331.66709,173.99094c1,0 1,1 1,1c0,0.40608 0,1.87813 0,2.28422c0,0 0,0.09102 -0.02746,0.21813c-0.03726,-0.00642 -0.07015,-0.01804 -0.09786,-0.03566c-0.60805,-0.83569 -1.07134,-1.67713 -1.87468,-2.31888v-0.14781c0,0 0,-1 1,-1z" fill="#6a6a6a" stroke-width="0.5"/><path d="M331.66709,178.27516c-1,0 -1,-1 -1,-1c0,-0.40608 0,-0.81217 0,-1.21825v-0.25573c0.61643,0.59821 1.01608,1.33859 1.55431,2.04032c0.07781,0.03538 0.15499,0.06127 0.23169,0.07898c-0.14377,0.19318 -0.38414,0.35467 -0.78599,0.35467z" fill="#6a6a6a" stroke-width="0.5"/><path d="M334.19384,169.30008c0.97014,0.24254 0.72761,1.21268 0.72761,1.21268l-0.47163,1.12585c-0.65984,0.56556 -1.32265,1.12769 -1.99026,1.68406c0,0 -0.76822,0.64018 -1.40841,-0.12804c-0.64018,-0.76822 0.12804,-1.40841 0.12804,-1.40841c0.66052,-0.55041 1.31626,-1.10657 1.96905,-1.66613l-0.16707,-0.0924c0,0 0.24254,-0.97014 1.21268,-0.72761z" fill="#6a6a6a" stroke-width="0.5"/><path d="M340.33545,157.29133c0.94868,-0.31623 1.26491,0.63246 1.26491,0.63246l0.49525,1.52658c0.01648,2.34245 0.54969,6.41165 -1.41442,8.23919c-1.1228,1.04473 -3.73914,1.22743 -5.21793,1.43869c0,0 -0.98995,0.14142 -1.13137,-0.84853c-0.14142,-0.98995 0.84853,-1.13137 0.84853,-1.13137c1.14705,-0.16386 3.36685,-0.2588 4.2235,-0.99781c1.24926,-1.0777 0.70573,-4.99752 0.71752,-6.3798l-0.41844,-1.21448c0,0 -0.31623,-0.94868 0.63246,-1.26491z" fill="#6a6a6a" stroke-width="0.5"/><path d="M345.25511,157.33799c-0.31623,0.94868 -1.26491,0.63246 -1.26491,0.63246l-0.69532,-0.26891c-1.37562,-1.02642 -4.10914,-0.35814 -5.89178,-0.29374c-0.01293,-0.72377 -0.0908,-1.41369 -0.30564,-1.99253c0.03275,-0.00262 0.05175,-0.00262 0.05175,-0.00262c2.44829,0 5.11815,-0.70632 7.25507,0.62479l0.21837,0.03565c0,0 0.94868,0.31623 0.63246,1.26491z" fill="#6a6a6a" stroke-width="0.5"/><path d="M336.14921,156.41265c0,-0.47832 0.22879,-0.72785 0.4675,-0.85802c0.19554,0.53046 0.27163,1.16044 0.28796,1.82458c-0.29605,-0.07036 -0.75546,-0.28875 -0.75546,-0.96655z" fill="#6a6a6a" stroke-width="0.5"/><path d="M348.88449,167.35762c-0.6639,-0.33195 -0.58862,-0.91029 -0.50571,-1.18636c-1.63947,-3.47689 -2.98536,-8.66931 -0.41546,-11.77994c0,0 0.65079,-0.75926 1.41005,-0.10847c0.75926,0.65079 0.10847,1.41005 0.10847,1.41005c-2.16263,2.39562 -0.39156,7.44899 0.89658,10.01852l-0.15228,1.19899c0,0 -0.44721,0.89443 -1.34164,0.44721z" fill="#6a6a6a" stroke-width="0.5"/><path d="M339.23731,174.92404l0.5636,-0.09085c1.21627,-0.07237 -0.8546,-2.92142 0.05241,-4.25148c0.7148,-1.0482 3.10315,-0.70237 4.14853,-0.70237c0,0 1,0 1,1c0,1 -1,1 -1,1c-0.85118,0 -2.23641,-0.88382 -2.55184,-0.09324c-0.35293,0.88457 0.78953,2.01453 0.85875,3.16254c-0.48939,0.2438 -0.94774,0.50451 -1.37843,0.78345c-0.00158,-0.24762 -0.24999,-0.24762 -0.24999,-0.24762c-0.71461,0.00263 -1.47699,0.11392 -2.2498,0.28067c0.05854,-0.69145 0.80677,-0.8411 0.80677,-0.8411z" fill="#6a6a6a" stroke-width="0.5"/><path d="M339.39946,176.90085c-0.27789,-0.00654 -0.73003,-0.10529 -0.90659,-0.64613c0.70882,-0.15469 1.40703,-0.25979 2.06141,-0.26957c-0.40993,0.28662 -0.79378,0.59143 -1.15482,0.91569z" fill="#6a6a6a" stroke-width="0.5"/><path d="M342.12822,175.79305c-0.27869,0.52096 -1.02632,0.58562 -1.53948,0.87844l-0.16256,0.03622c0.54485,-0.42019 1.14266,-0.80394 1.80665,-1.15621c-0.02705,0.08065 -0.06162,0.16119 -0.10461,0.24155z" fill="#6a6a6a" stroke-width="0.5"/><path d="M346.71186,171.78621c0.76822,-0.64018 1.40841,0.12804 1.40841,0.12804c0.16803,0.20482 0.36323,0.38401 0.56786,0.55427c-0.72953,0.19679 -1.45402,0.40117 -2.16982,0.6331c-0.14098,-0.22342 -0.41365,-0.80941 0.19355,-1.31541z" fill="#6a6a6a" stroke-width="0.5"/></g></g></svg>