<svg version="1.1" xmlns="http://www.w3.org/2000/svg" xmlns:xlink="http://www.w3.org/1999/xlink" width="56.32648" height="106.41866" viewBox="0,0,56.32648,106.41866"><g transform="translate(-287.96751,-126.71258)"><g data-paper-data="{&quot;isPaintingLayer&quot;:true}" fill-rule="nonzero" stroke="none" stroke-linecap="butt" stroke-linejoin="miter" stroke-miterlimit="10" stroke-dasharray="" stroke-dashoffset="0" style="mix-blend-mode: normal"><path d="M308.20226,196.49678c0,0 -1.65563,-19.85247 -2.40662,-31.15908c1.57515,0.81106 3.54837,1.29441 4.69443,1.29441c2.42848,1.23205 6.81687,1.36104 9.46971,1.69581c3.3989,0.06364 6.80258,0.01525 10.20206,0.01525c2.30188,0 4.70164,-0.30869 6.98581,-0.833c0.00565,0.36883 0.00649,0.74374 0.00158,1.12447c-0.05526,4.28593 -0.94731,9.08451 -1.15863,13.52263c-0.39713,8.34034 -0.19302,15.40772 -0.19302,15.40772z" fill="#ff9a31" stroke-width="0"/><path d="M307.48103,195.93346c-1.11271,0 -1.11271,-1.11271 -1.11271,-1.11271l0.00114,-1.2217c0.26887,-2.9473 0.89281,-5.63266 0.59002,-8.62344c0,0 -0.03292,-0.32922 0.11665,-0.64656c-0.17281,-0.63702 -0.33948,-1.25758 -0.34658,-1.30765c-0.2276,-1.60389 0.05443,-3.2618 -0.22847,-4.8812c-0.22143,-1.26754 -0.66413,-2.50145 -0.8255,-3.7849c-0.1701,-1.35287 -0.39036,-2.64086 -0.58387,-3.96981c-0.20316,-1.39519 0.20192,-2.02232 -0.47996,-3.29493c0,0 -0.49763,-0.99524 0.49761,-1.49286c0.99524,-0.49762 1.49286,0.49762 1.49286,0.49762c0.22445,0.47108 0.55264,0.90558 0.67334,1.41325c0.19691,0.82819 -0.11265,1.71256 0.01797,2.55375c0.39858,2.56694 0.95574,5.13152 1.4017,7.70615c0.28476,1.64407 0.00639,3.3357 0.24004,4.95753c0.11993,0.83249 0.45211,1.62028 0.67341,2.43173l0.23064,0.80698c0,0 0.27205,0.9522 -0.59545,1.31667c-0.07708,2.14664 -0.45151,4.21187 -0.65128,6.4185l0.00114,1.12086c0,0 0,1.11271 -1.11271,1.11271z" fill="#ff9a31" stroke-width="0.5"/><path d="M339.65811,168.27432c0.54351,1.39807 -0.85456,1.94158 -0.85456,1.94158l-1.13067,0.42927c-0.58012,0.15242 -1.16024,0.30483 -1.74036,0.45725c-1.08032,0.1833 -2.07161,0.72259 -3.13255,0.99662c-6.83219,1.76468 -14.26456,0.28835 -20.85494,-1.43472c-2.55475,-0.66794 -4.63786,-0.50338 -6.77315,-2.16014c0,0 -1.15408,-0.95818 -0.1959,-2.11226c0.95818,-1.15408 2.11226,-0.1959 2.11226,-0.1959c1.39067,1.29872 3.75755,1.07794 5.62412,1.56808c6.01766,1.58019 13.0446,3.12762 19.29649,1.44112c1.10634,-0.29844 2.15192,-0.82524 3.27887,-1.0327c0.54027,-0.14279 1.08053,-0.28557 1.6208,-0.42836l0.80801,-0.32441c0,0 1.39807,-0.54351 1.94158,0.85456z" fill-opacity="0.30588" fill="#000000" stroke-width="0.5"/><path d="M336.14569,197.52631c-1.06579,0.31974 -1.38552,-0.74606 -1.38552,-0.74606l-0.3771,-1.27479c-0.30794,-2.99504 -0.1846,-6.37785 0.45591,-9.35592c-0.00862,-0.06986 -0.00861,-0.11339 -0.00861,-0.11339v-0.23426c0.00251,-2.02715 -0.56475,-3.86179 -0.46737,-5.90681c0.08917,-1.87268 0.56717,-3.52792 0.96166,-5.34135c0.48405,-2.22519 0.61177,-4.39544 0.79796,-6.64766c0,0 0.00622,-0.0747 0.03483,-0.18371c0.65846,-0.13109 1.31004,-0.28074 1.94981,-0.4468c0.27166,0.35254 0.2331,0.81531 0.2331,0.81531c-0.19729,2.34751 -0.33801,4.62012 -0.84184,6.93917c-0.3677,1.69246 -0.82919,3.21891 -0.91237,4.96589c-0.08594,1.80469 0.36513,3.45549 0.45449,5.2329c0.21183,0.39187 0.09906,0.84294 0.09906,0.84294c-0.71149,2.77107 -0.849,6.1414 -0.57363,9.00126l0.32567,1.06776c0,0 0.31974,1.06579 -0.74605,1.38552z" fill="#ff9a31" stroke-width="0.5"/><path d="M337.32389,166.8896c0.06469,0.00539 0.12529,0.01424 0.18206,0.02613c-0.34007,0.08293 -0.68307,0.16104 -1.02827,0.23403c0.17884,-0.17068 0.44648,-0.29348 0.84621,-0.26016z" fill="#c5d8e2" stroke-width="0.5"/><path d="M338.27612,167.1788c0,0.99605 -7.38246,1.8035 -16.48918,1.8035c-9.10672,0 -16.48918,-0.80746 -16.48918,-1.8035c0,-0.39775 -2.02902,-2.6548 -0.03491,-2.953c2.99961,-0.44855 11.85545,-1.42694 17.32564,-1.42694c9.10672,0 15.68762,3.38389 15.68762,4.37994z" fill="#ff9a31" stroke-width="0"/><g fill="#ff9a31" stroke-width="0.5"><path d="M317.18939,227.8836c-0.67976,0.49165 -1.17141,-0.18811 -1.17141,-0.18811l-0.28267,-0.39083c-3.8496,-5.35048 -8.68078,-9.55778 -12.74303,-14.46436c-0.02187,-4.48366 4.55069,-13.84569 7.77025,-17.01436c0,0 0.60339,-0.58284 1.18623,0.02055c0.58285,0.6034 -0.02054,1.18623 -0.02054,1.18623c-2.732,2.57534 -4.56179,7.91823 -5.67853,11.4124c-0.41096,1.28589 -1.56548,2.50061 -1.67899,3.82616c4.37013,4.65208 8.67415,8.75905 12.52412,14.05007l0.28269,0.39084c0,0 0.49166,0.67975 -0.1881,1.17141z"/><path d="M320.0053,224.24603c-0.25146,-0.80035 0.54888,-1.05181 0.54888,-1.05181l0.71706,-0.21334c2.43688,-0.33335 3.74999,-0.91128 6.11495,0.35053c3.6644,3.85945 -1.72758,8.12593 -5.61794,8.41326c-3.53007,0.26073 -3.76103,-1.968 -5.87273,-3.67647c0,0 -0.6274,-0.5569 -0.0705,-1.18431c0.55691,-0.6274 1.18432,-0.07048 1.18432,-0.07048c1.62482,1.52368 1.80993,3.49252 4.62031,3.25917c2.04714,-0.16998 7.28156,-2.86449 4.75209,-5.39722c-1.91216,-0.96403 -2.88996,-0.31732 -4.87754,-0.03287l-0.44707,0.15244c0,0 -0.80035,0.25146 -1.05181,-0.54889z"/><path d="M321.24835,224.89471c-0.80035,0.25146 -1.05181,-0.54888 -1.05181,-0.54888l0.07487,0.09467c-3.41265,-4.71831 -8.37345,-7.98749 -12.39938,-12.13716c0,0 -0.58286,-0.6034 0.02054,-1.18625c0.6034,-0.58285 1.18623,0.02055 1.18623,0.02055c4.06288,4.22256 9.08741,7.52923 12.55212,12.31952l0.16631,0.3857c0,0 0.25146,0.80035 -0.54888,1.05181z"/><path d="M307.78058,212.01232c-0.58285,-0.6034 0.02055,-1.18623 0.02055,-1.18623l0.69053,-0.66344c1.16158,-1.52517 1.11671,-3.06943 1.76656,-4.82587c1.45455,-3.93139 4.19545,-7.00532 5.43141,-11.08754c0,0 0.2431,-0.80293 1.04603,-0.55983c0.80293,0.2431 0.55984,1.04603 0.55984,1.04603c-1.25051,4.13031 -4.01065,7.23818 -5.4715,11.20426c-0.73238,1.98836 -0.75202,3.56611 -2.07582,5.33485l-0.78136,0.75831c0,0 -0.60339,0.58285 -1.18623,-0.02054z"/></g><path d="M329.81424,194.5844c0,0 0.79815,-0.25838 1.05651,0.53976c0.25837,0.79815 -0.53977,1.05651 -0.53977,1.05651c-3.58582,1.1127 -7.57746,5.10787 -10.11615,7.75577c-0.86645,0.90374 -2.28048,1.47143 -3.02718,2.45907c-0.52894,-0.12942 -1.0558,-0.3247 -1.60328,-0.37419c2.29355,-4.04676 10.09508,-10.05555 14.22987,-11.43693z" fill="#ff9a31" stroke-width="0.5"/><path d="M317.90193,225.89792c-0.83822,-0.03439 -0.80382,-0.87261 -0.80382,-0.87261l0.01977,-0.48194c0.28581,-6.56653 -0.89846,-12.84405 -1.05897,-19.19368c0.57851,0.11731 1.08611,0.42442 1.60939,0.68849c0.55438,6.27739 1.37276,12.10829 1.126,18.57397l-0.01976,0.48195c0,0 -0.0344,0.83821 -0.87261,0.80382z" fill="#ff9a31" stroke-width="0.5"/><path d="M322.36486,224.78278c0.29769,-0.78433 1.08202,-0.48664 1.08202,-0.48664l0.69531,0.27611c2.1206,1.24602 3.50974,1.60454 4.5868,4.05915c0.4905,5.2993 -6.38525,5.31448 -9.61919,3.13294c-2.93444,-1.9795 -1.73681,-3.87324 -2.33853,-6.52203c0,0 -0.14826,-0.82572 0.67745,-0.97398c0.82571,-0.14826 0.97398,0.67746 0.97398,0.67746c0.33359,2.20235 -0.73927,3.86355 1.61287,5.41923c1.71335,1.13319 7.49262,2.25541 7.07275,-1.29941c-0.90562,-1.94051 -2.07391,-2.03751 -3.8113,-3.04393l-0.44552,-0.15688c0,0 -0.78433,-0.29769 -0.48663,-1.08202z" fill="#ff9a31" stroke-width="0.5"/><path d="M322.93997,226.06154c-0.78433,-0.29769 -0.48663,-1.08202 -0.48663,-1.08202l0.00023,0.1207c0.23871,-5.81822 -1.63544,-11.45601 -2.23038,-17.207c0,0 -0.0845,-0.83466 0.75016,-0.91916c0.83466,-0.0845 0.91915,0.75016 0.91915,0.75016c0.57885,5.83112 2.47986,11.53779 2.23751,17.44477l-0.10802,0.40591c0,0 -0.2977,0.78432 -1.08203,0.48663z" fill="#ff9a31" stroke-width="0.5"/><path d="M320.02232,207.8135c-0.25837,-0.79815 0.53977,-1.05652 0.53977,-1.05652l0.91184,-0.29246c1.71367,-0.85952 2.35201,-2.26639 3.70764,-3.55853c3.03427,-2.89218 6.84721,-4.44883 9.7514,-7.57256c0,0 0.57123,-0.6144 1.18563,-0.04318c0.6144,0.57123 0.04319,1.18564 0.04319,1.18564c-2.93842,3.16054 -6.78354,4.73921 -9.83872,7.65979c-1.53168,1.46421 -2.2427,2.8728 -4.20911,3.87981l-1.03511,0.33779c0,0 -0.79815,0.25837 -1.05652,-0.53978z" fill="#ff9a31" stroke-width="0.5"/><path d="M310.15714,193.06784c-0.5964,1.0437 -1.46196,1.50152 -2.45345,1.60288c-2.01092,0.20557 -4.5399,-1.05517 -6.39207,-1.86812c-7.99054,-3.50718 -11.48731,-7.21257 -11.51495,-15.72427c-0.00502,-1.54468 -2.66722,-1.29848 -1.55944,-3.51404c1.08281,-2.16561 3.16107,-0.39327 3.95157,0.62585c4.08529,5.26675 -1.57174,8.28464 5.80139,13.00073c2.55394,1.63359 5.46375,2.79419 8.31553,3.7418c0.53994,0.17942 2.73013,0.17292 2.9896,0.62699z" fill="#ff9a31" stroke-width="0.5"/><g fill="#ea8f2d" stroke-width="0.5"><path d="M307.67605,167.88323c0.28008,1.26039 -0.96535,3.1209 -1.49114,4.18419c-1.32328,2.67606 -1.42699,7.43255 -1.40359,10.16178c0.02196,2.56137 4.28541,10.92194 2.01508,12.21928c-2.93323,1.67613 -3.21867,-4.77701 -3.95414,-5.9933c-3.98485,-6.59 -0.31051,-13.94699 1.29084,-20.35239c-0.02929,-0.12694 -0.04476,-0.25916 -0.04476,-0.39499c0,-0.02235 0.00042,-0.0446 0.00125,-0.06675c0.04559,-1.85131 0.97634,-2.09219 1.88213,-1.67824c0.86844,0.06545 1.55999,0.76473 1.61331,1.6365c0.0396,0.09587 0.07036,0.19096 0.09103,0.28392z"/><path d="M307.06217,171.1268c-0.23859,2.39345 -1.39423,4.38028 -1.40366,7.01957c-0.01245,3.48236 -0.25669,4.55615 0.6495,7.11945c0.51379,1.45334 4.63114,7.79105 1.75039,8.7513c-2.12127,0.70709 -5.87826,-8.42212 -5.89989,-10.3444c-0.02172,-1.9297 -0.02172,-3.85978 0,-5.78948c0.01151,-1.02337 0.24685,-2.05111 0.26315,-3.07015c0.01759,-1.0997 1.7163,-8.11037 3.61913,-7.97914c0.23046,-0.11173 0.48914,-0.17439 0.76245,-0.17439c0.9665,0 1.75,0.7835 1.75,1.75c0.5124,0.54167 -1.4386,2.1908 -1.49108,2.71725z"/><path d="M309.08145,190.60515c2.11351,1.77283 3.96227,8.68459 0.01608,8.90382c-1.24788,0.06933 -4.22017,0.44991 -5.03881,-0.40949c-1.10354,-1.1585 -1.42182,-6.79581 0.17186,-7.70648c0.30441,-0.5158 0.86589,-0.86182 1.50818,-0.86182c0.12452,0 0.24601,0.01301 0.36317,0.03773c1.00748,-0.00729 1.89897,-0.87015 2.97953,0.03623z"/></g><g fill="#ea8f2d" stroke-width="0.5"><path d="M340.08984,168.91771c0.28008,1.26039 -0.96535,3.1209 -1.49114,4.18419c-1.32328,2.67606 -1.42699,7.43255 -1.40359,10.16178c0.02196,2.56137 4.28541,10.92194 2.01508,12.21928c-2.93323,1.67613 -3.21867,-4.77701 -3.95414,-5.9933c-3.98485,-6.59 -0.31051,-13.94699 1.29084,-20.35239c-0.02929,-0.12694 -0.04476,-0.25916 -0.04476,-0.39499c0,-0.02235 0.00042,-0.0446 0.00125,-0.06675c0.04559,-1.85131 0.97634,-2.09219 1.88213,-1.67824c0.86844,0.06545 1.55999,0.76473 1.61331,1.6365c0.0396,0.09587 0.07036,0.19096 0.09103,0.28392z"/><path d="M339.47596,172.16128c-0.23859,2.39345 -1.39423,4.38028 -1.40366,7.01957c-0.01245,3.48236 -0.25669,4.55615 0.6495,7.11945c0.51379,1.45334 4.63114,7.79105 1.75039,8.7513c-2.12127,0.70709 -5.87826,-8.42212 -5.89989,-10.3444c-0.02172,-1.9297 -0.02172,-3.85978 0,-5.78948c0.01151,-1.02337 0.24685,-2.05111 0.26315,-3.07015c0.01759,-1.0997 1.7163,-8.11037 3.61913,-7.97914c0.23046,-0.11173 0.48914,-0.17439 0.76245,-0.17439c0.9665,0 1.75,0.7835 1.75,1.75c0.5124,0.54167 -1.4386,2.1908 -1.49108,2.71725z"/><path d="M341.49524,191.63963c2.11352,1.77283 3.96227,8.68459 0.01608,8.90382c-1.24788,0.06932 -4.22017,0.44991 -5.03881,-0.40949c-1.10354,-1.15849 -1.42182,-6.79581 0.17186,-7.70648c0.30442,-0.51579 0.86588,-0.86182 1.50817,-0.86182c0.12452,0 0.24601,0.01301 0.36317,0.03773c1.00747,-0.00729 1.89897,-0.87015 2.97953,0.03624z"/></g><path d="M308.09302,165.12173c-0.87156,0.40798 -1.74098,-0.22431 -1.74098,-0.22431l-1.83704,-1.47021c-0.77064,-1.16266 -1.69066,-2.35559 -2.03549,-3.74728c-0.53733,-2.1686 -0.19769,-4.67004 0.23949,-6.80916c1.05009,-5.13804 2.44153,-11.40294 6.76931,-14.85376c3.77026,-3.00627 8.58733,-3.07976 13.14945,-3.07976c2.92987,0 5.85388,-0.34305 8.57795,0.94164c3.84906,1.81524 6.56495,5.44588 8.58951,9.05507c3.62549,6.46316 6.30796,14.69011 2.96175,21.89066c-3.73253,3.45448 -7.12101,3.15109 -11.92409,3.15109c-7.70333,0 -16.0692,-0.64374 -22.74986,-4.85399z" fill="#ff9a31" stroke-width="0.5"/><path d="M316.20095,136.48285c-0.56944,0.48809 -1.05753,-0.08135 -1.05753,-0.08135l-0.51613,-0.61053c-1.58096,-2.37993 -1.23318,-5.23818 -2.50223,-7.59981c-0.74818,0.61938 -1.57343,1.06187 -2.32699,1.61455c-2.60826,1.91297 -2.43449,8.33086 -1.246,10.95694c0,0 0.30461,0.68535 -0.38075,0.98996c-0.68536,0.30461 -0.98997,-0.38075 -0.98997,-0.38075c-2.30812,-5.27026 -0.60459,-12.82317 5.19624,-14.65928c2.36839,1.85261 1.80482,5.71704 3.49777,8.24634l0.40694,0.4664c0,0 0.48809,0.56944 -0.08135,1.05754z" fill="#dc862a" stroke-width="0.5"/><path d="M333.6837,138.0713c-0.69636,0.27855 -0.9749,-0.41781 -0.9749,-0.41781l-0.3478,-0.90595c-0.02319,-1.56146 -0.06073,-3.06455 0.25249,-4.59983c0.24833,-0.5634 0.55487,-1.20029 0.75361,-1.7546c0.20298,-0.56614 -1.17005,0.31632 -1.77073,0.34628c-1.10601,0.05518 -2.30297,-0.10897 -3.36292,0.32728c-2.15454,0.88675 -3.00266,3.3699 -4.01882,5.21096c0,0 -0.36423,0.65561 -1.01985,0.29138c-0.65562,-0.36423 -0.29138,-1.01985 -0.29138,-1.01985c1.22071,-2.18078 2.22282,-4.80362 4.75041,-5.86597c0.91195,-0.3833 6.12794,-1.22216 6.86635,-0.24951c0.59627,0.78543 -0.13766,2.41132 -0.47716,3.16848c-0.25005,1.28556 -0.18093,2.55763 -0.20905,3.86171l0.26758,0.63252c0,0 0.27855,0.69635 -0.41782,0.9749z" fill="#dc862a" stroke-width="0.5"/><path d="M329.35596,156.70412c0.67082,0.33541 0.33541,1.00623 0.33541,1.00623l-0.29434,0.50261c-3.44399,3.43166 -5.45666,-0.10918 -7.10197,-2.91575c-1.28839,2.31689 -3.29098,3.75367 -6.33075,3.61679l-0.78178,-0.70104c0,0 -0.53033,-0.53033 0,-1.06066c0.53033,-0.53033 1.06066,0 1.06066,0l0.29514,0.37589c2.13766,-0.23498 3.47951,-1.24442 4.39428,-2.83846c-0.94723,0.59455 -2.03946,0.5973 -2.48066,-0.95951c-0.48086,-1.69676 3.20068,-3.778 4.37954,-2.52676c0.00741,0.00786 0.0147,0.01573 0.02189,0.02361c0.07106,-0.02754 0.1438,-0.05271 0.21779,-0.07532c0.3048,-0.15374 0.60993,-0.25606 0.87475,-0.29232c0,0 0.39207,-0.03921 0.63626,0.2234c0.72364,0.17911 1.30449,0.71581 1.33977,1.77012c0.03776,1.12854 -1.05571,1.92216 -2.17789,2.07002c1.03789,2.0471 2.30628,4.52464 4.59231,2.22933l0.01335,-0.11277c0,0 0.33541,-0.67082 1.00623,-0.33541z" fill="#2f1c09" stroke-width="0.5"/><path d="M316.40665,145.60829c0.22577,0.2463 0.24124,0.48345 0.18897,0.67073l0.04447,0.05151c0.00358,0.29915 0.02062,0.6758 0.01911,1.07894c0.01781,-0.00091 0.03607,-0.00138 0.0548,-0.00138c0.75,0 0.75,0.75 0.75,0.75l-0.0437,0.30602c-0.32018,0.70877 -0.35505,1.11652 -0.78483,1.29783c-0.05079,0.15774 -0.11548,0.30875 -0.19515,0.45046c0.17426,1.1273 -0.09693,2.08917 -2.08273,1.8075c-1.53071,-0.21712 -2.70913,-1.95399 -2.03517,-3.42035c0.09398,-1.44052 0.71837,-3.05903 1.2647,-3.79468c0,0 0.45,-0.6 1.05,-0.15c0.10181,0.07636 0.17338,0.15703 0.22206,0.23835c0.04361,-0.00789 0.08851,-0.01201 0.13439,-0.01201c0.18059,0 0.34627,0.06383 0.47573,0.17016c0.03771,-0.00583 0.07634,-0.00887 0.11568,-0.00887c0.30388,0 0.56554,0.18072 0.68338,0.44055c0.04618,0.03384 0.09243,0.0752 0.1383,0.12524z" fill="#ffffff" stroke-width="0.5"/><path d="M327.5432,147.26654c0.11647,-0.9971 0.9013,-3.35191 2.47798,-1.85946c0.32477,0.30742 0.45209,0.61942 0.43625,0.92297c0.88306,0.744 0.88526,2.63563 0.59896,3.72286c-0.22574,3.02273 -3.38109,2.80671 -4.52934,0.37609c-0.37531,-0.79446 -0.20468,-1.28977 0.09442,-1.68866c-0.06218,-0.00305 -0.11825,-0.01045 -0.16727,-0.02239c0,0 -0.72114,-0.20603 -0.5151,-0.92718c0.20604,-0.72115 0.92719,-0.51511 0.92719,-0.51511c0.26705,0.09833 0.48724,0.0759 0.67692,-0.00912z" fill="#ffffff" stroke-width="0.5"/><path d="M318.24319,148.98219c-0.53033,0.53033 -1.06066,0 -1.06066,0l-0.26664,-0.2983c-1.19714,-1.99765 -2.27611,-3.75159 -2.85372,-6.05012c0,0 -0.1819,-0.72761 0.5457,-0.90951c0.7276,-0.1819 0.90951,0.5457 0.90951,0.5457c0.53521,2.15308 1.56273,3.77429 2.68474,5.64219l0.04106,0.00939c0,0 0.53033,0.53033 0,1.06066z" fill="#2f1c09" stroke-width="0.5"/><path d="M325.14298,148.3836c-0.62404,-0.41602 -0.20801,-1.04007 -0.20801,-1.04007l0.44248,-0.48556c1.66544,-0.82361 2.84072,-2.03909 3.21744,-3.87094c0,0 0.15715,-0.73335 0.8905,-0.5762c0.73335,0.15715 0.57621,0.89049 0.57621,0.89049c-0.5077,2.29343 -1.92544,3.84465 -4.01333,4.89829l0.13478,-0.02402c0,0 -0.41602,0.62404 -1.04006,0.20802z" fill="#2f1c09" stroke-width="0.5"/><path d="M318.00829,146.76251c0.68936,0.29544 0.39392,0.98479 0.39392,0.98479l-0.22377,0.52157c-0.10435,0.26077 -0.20871,0.52154 -0.31307,0.78231c-0.40008,0.89888 -0.6054,2.05239 -1.27009,2.80561c-1.49017,1.68864 -4.59603,1.30076 -5.29149,-0.95332c-0.88804,-2.87825 0.93464,-5.75741 3.35252,-7.10722c0,0 0.65562,-0.36424 1.01985,0.29138c0.36423,0.65562 -0.29139,1.01985 -0.29139,1.01985c-1.83981,1.01646 -3.28035,3.13774 -2.64748,5.35431c0.30881,1.08159 2.03644,1.3012 2.70851,0.4313c0.52402,-0.67827 0.69298,-1.6487 1.0376,-2.42516c0.10077,-0.25205 0.20155,-0.5041 0.30232,-0.75615l0.23777,-0.55535c0,0 0.29544,-0.68936 0.9848,-0.39392z" fill="#2f1c09" stroke-width="0.5"/><path d="M328.99993,144.66975c0.3975,-0.636 1.0335,-0.2385 1.0335,-0.2385l0.77844,0.52234c1.50353,1.70262 2.45251,7.1228 -0.708,8.05594c-2.62724,0.77569 -5.1105,-3.32275 -5.14101,-5.40382c0,0 0,-0.75 0.75,-0.75c0.75,0 0.75,0.75 0.75,0.75c-0.02016,0.96766 1.75599,4.50824 3.16667,3.9808c1.92941,-0.7214 0.98437,-4.60574 0.06123,-5.63637l-0.45233,-0.24689c0,0 -0.636,-0.3975 -0.2385,-1.0335z" fill="#2f1c09" stroke-width="0.5"/><path d="M315.36991,150.10971c-0.5,0 -0.5,-0.5 -0.5,-0.5c0,-0.57348 0,-1.41577 0,-1.98925c0,0 0,-0.5 0.5,-0.5c0.5,0 0.5,0.5 0.5,0.5c0,0.57348 0,1.14695 0,1.72043v0.26882c0,0 0,0.5 -0.5,0.5z" fill="#000000" stroke-width="0.5"/><path d="M329.67099,149.89465c-0.5,0 -0.5,-0.5 -0.5,-0.5c0,-0.57348 0,-1.25448 0,-1.82796c0,0 0,-0.5 0.5,-0.5c0.5,0 0.5,0.5 0.5,0.5c0,0.57348 0,1.14695 0,1.72043v0.10753c0,0 0,0.5 -0.5,0.5z" fill="#000000" stroke-width="0.5"/></g></g></svg>