<svg version="1.1" xmlns="http://www.w3.org/2000/svg" xmlns:xlink="http://www.w3.org/1999/xlink" width="61.62583" height="68.87689" viewBox="0,0,61.62583,68.87689"><g transform="translate(-290.27178,-147.22306)"><g data-paper-data="{&quot;isPaintingLayer&quot;:true}" fill-rule="nonzero" stroke="none" stroke-linecap="butt" stroke-linejoin="miter" stroke-miterlimit="10" stroke-dasharray="" stroke-dashoffset="0" style="mix-blend-mode: normal"><path d="M313.94931,166.60645c0.07072,0.1972 -0.08126,0.55052 0.11725,0.61745c3.92656,1.32395 3.36809,2.64896 4.07617,6.39143c0.96421,5.09623 4.79176,10.31496 2.54517,15.83114c-1.63314,4.00995 -3.40386,8.19838 -5.75471,11.93438c1.76293,1.19946 1.94278,3.33767 -0.18619,4.45809c-1.34732,0.70906 -2.94204,1.09644 -4.54225,1.43081c-0.68951,0.65425 -1.41861,1.2698 -2.19188,1.84016c-1.71567,1.26545 -12.46215,8.51412 -10.95179,0.89366c-2.64185,-0.26725 -4.305,-1.86547 -1.71573,-5.85758c4.13335,-6.37274 7.89628,-6.76334 14.30549,-10.73637c0.40716,-0.2524 0.38374,-0.71488 0.23735,-1.24003c-0.88471,-1.00805 -1.81026,-2.04948 -1.74824,-3.35178c0.02396,-0.50315 0.24747,-0.93185 0.56166,-1.31413c-1.18031,-3.04066 -3.6287,-5.80806 -5.13891,-8.54531c-1.0472,-1.89805 -0.05726,-3.59693 0.04016,-5.44973c0.01315,-0.25014 -1.79255,-1.9243 -1.94157,-2.5949c-0.63133,-2.84096 3.28515,-5.55627 2.97766,-8.44483c-0.11255,-1.05734 -1.93739,-0.87725 -2.89822,-1.33269c-1.56374,-0.74122 -7.45898,-2.5307 -7.90492,-3.65618c-0.5724,-0.45813 -0.93899,-1.16269 -0.93899,-1.95288c0,-1.38071 1.11929,-2.5 2.5,-2.5c0.32066,0 0.62722,0.06037 0.90894,0.17037c1.28862,0.13894 2.64031,1.23991 4.42808,2.40192l-0.00002,0c2.34848,1.52646 5.62519,1.50761 7.70994,3.40284c0.32972,0.29974 0.56818,0.62167 0.73915,0.96053c1.95973,-0.81241 4.42638,5.69547 4.76639,6.64362z" fill="#ffebc9" stroke-width="0.5"/><path d="M296.74436,212.78202c2.60906,-2.31094 4.3582,-5.96458 6.75135,-8.41893c1.09701,-1.12506 4.17071,-1.3445 5.61973,-2.27647c2.74574,-1.76601 4.29554,-3.45095 6.10059,-5.95024c2.27808,-3.15426 1.16837,-9.08156 -0.11725,-12.34506c-0.45349,-1.15116 -4.39295,-4.3031 -4.18113,-5.5778c0.28726,-1.72868 1.80259,-3.63184 2.0308,-5.72035c1.47345,-13.48458 -9.84727,-13.50732 -17.75612,-17.69916c-0.82576,-0.43767 -2.09305,-1.33622 -3.4808,-2.28482c-0.18133,-0.18657 -0.36987,-0.36609 -0.56518,-0.53811h55.81033c-6.62744,2.9586 -12.72008,8.41037 -14.44998,14.74664c-1.13989,4.1752 0.03733,8.0057 1.76649,11.72813c0.63953,1.37673 4.60325,3.31697 4.74927,4.55405c0.51164,4.33458 -2.65946,8.52628 -1.47318,13.2714c0.59658,2.38632 4.13353,7.71606 4.17635,9.92321c0.03074,1.58448 -0.16686,4.52238 0.3677,6.5875z" fill="#ad7c29" stroke-width="0"/><path d="" fill="#ad7c29" stroke-width="0"/><path d="M298.97673,154.38157l2.14796,-0.42959c0,0 -0.25765,1.26396 -0.61004,3.10895c-0.61125,-0.22793 -1.22258,-0.45807 -1.82822,-0.6967c0.14922,-1.16255 0.2903,-1.98266 0.2903,-1.98266z" fill="#91661c" stroke-width="0"/><path d="M301.12469,209.79875l-1.23633,-0.73055c0.14626,-0.20545 0.29167,-0.41181 0.43671,-0.61828c0.46827,0.93178 0.79963,1.34884 0.79963,1.34884z" fill="#91661c" stroke-width="0"/><path d="M295.8264,153.8088c0,0 -0.05111,0.44909 -0.13702,1.24117c-0.03845,-0.01925 -0.07683,-0.03858 -0.11514,-0.058z" fill="#91661c" stroke-width="0"/><path d="M335.49194,159.53666c0,0 -0.58024,-3.87513 1.4155,-4.9109c0.48457,-0.25148 0.72525,1.7257 1.38165,3.07245c-0.55442,0.52344 -1.08268,1.06612 -1.5803,1.62615c-0.61954,-0.10897 -1.21685,0.2123 -1.21685,0.2123z" fill="#91661c" stroke-width="0"/><path d="M339.02245,182.99991c0.09876,0.83665 0.06031,1.66797 -0.05753,2.49898c0.02974,-0.84179 0.04749,-1.68192 0.05512,-2.51713c0.00089,0.00607 0.0017,0.01212 0.00241,0.01815z" fill="#91661c" stroke-width="0"/><path d="M308.51488,154.50982c0,0 0.87416,-0.48564 1.3598,0.38852c0.48564,0.87416 -0.38851,1.3598 -0.38851,1.3598c-1.81724,0.9562 -2.62035,2.08519 -2.89425,3.33529c-0.6066,-0.3211 -1.23814,-0.61794 -1.88654,-0.89931c0.79799,-1.75811 2.29144,-3.30792 3.8095,-4.1843z" fill="#91661c" stroke-width="0.5"/><path d="M309.7165,204.9277c-1,0 -1,-1 -1,-1v-0.85918c0,-0.25256 -0.0032,-0.50452 -0.00933,-0.75591c0.14661,-0.07073 0.28346,-0.14572 0.40826,-0.22599c0.55724,-0.35841 1.06522,-0.71347 1.53608,-1.07269c0.04149,0.68091 0.06499,1.36538 0.06499,2.0546v0.85918c0,0 0,1 -1,1z" fill="#91661c" stroke-width="0.5"/><path d="M325.90662,206.06677c-0.70711,-0.70711 0,-1.41421 0,-1.41421l-0.05737,0.14423c1.89308,-4.0801 1.93246,-8.80219 1.02017,-13.16976c-2.39402,-8.6413 -4.95625,-16.65134 -4.54707,-25.71202c0.12432,-2.75282 0.13161,-7.20723 3.14758,-7.94107c0,0 0.98995,-0.14142 1.13137,0.84853c0.14142,0.98995 -0.84853,1.13137 -0.84853,1.13137c-0.49601,-0.0779 -0.71882,0.77994 -0.80178,1.27513c-0.37579,2.24323 -0.63203,4.48175 -0.63079,6.75157c0.00444,8.13268 2.33538,15.37139 4.49325,23.17669c0.99313,4.83005 0.93292,9.96214 -1.14885,14.47893l-0.34377,0.43062c0,0 -0.70711,0.70711 -1.41422,0z" fill="#91661c" stroke-width="0.5"/><path d="M315.88284,204.778c-0.65453,-0.65453 -0.09733,-1.30906 -0.01085,-1.40277c0.88926,-2.50702 0.47527,-6.08915 0.25208,-9.14082c0.89714,-3.01151 0.16699,-7.06872 -0.78267,-9.78866c-0.66592,-4.21661 -1.67754,-8.40881 -2.33095,-12.60234c0.19849,-2.4436 -0.04235,-4.42528 -0.61613,-6.06078c-0.09437,-2.72748 0.10512,-5.46075 0.79114,-8.20685c0,0 0.24254,-0.97015 1.21268,-0.72761c0.97015,0.24254 0.7276,1.21268 0.7276,1.21268c-2.80774,11.22242 2.84324,22.50824 2.88863,33.83705c0.0152,3.79405 0.94233,8.82504 -0.3449,12.38092l-0.37242,0.49918c0,0 -0.70711,0.70711 -1.41422,0z" fill="#91661c" stroke-width="0.5"/><path d="M335.79594,199.52384c-0.89443,0.44721 -1.34164,-0.44721 -1.34164,-0.44721l-0.23872,-0.59219c-0.50725,-3.61104 -0.00978,-7.38358 -0.01005,-11.02163c-0.03122,-5.66424 -2.10411,-10.45585 -2.57525,-15.97309c-0.42914,-5.02547 0.14178,-10.21133 0.1409,-15.24658c0,0 0,-1 1,-1c1,0 1,1 1,1c-0.00043,2.56152 -0.15299,5.16552 -0.24263,7.76689c-0.42531,0.88048 -0.76987,1.7847 -1.02186,2.7077c-1.13989,4.1752 0.03733,8.0057 1.76649,11.72813c0.14076,0.30302 0.44256,0.63334 0.82925,0.97745c0.57363,2.59207 1.08752,5.2065 1.10309,8.03399c-0.00025,3.53346 -0.52028,7.24005 -0.01005,10.74429l0.04767,-0.0194c0,0 0.44721,0.89443 -0.44721,1.34164z" fill="#91661c" stroke-width="0.5"/><path d="" fill="#91661c" stroke-width="0.5"/><path d="M301.21918,154.31191c0.07887,-0.23326 1.45297,-1.74728 1.66965,-1.99106l0.54234,-0.43183c0,0 0.8,-0.6 1.4,0.2c0.6,0.8 -0.2,1.4 -0.2,1.4l-0.24752,0.16056c-0.9504,1.06919 -1.14472,2.20676 -1.22145,3.39942c0.14418,0.05124 0.29273,0.14835 0.43678,0.31297c0.31638,0.36158 0.30703,0.70144 0.21192,0.95699c-0.89836,-0.36514 -1.82103,-0.70913 -2.74784,-1.0539c-0.07946,-0.96824 -0.18633,-1.94041 0.15612,-2.95315z" fill="#976d24" stroke-width="0.5"/><path d="" fill="#976d24" stroke-width="0.5"/><path d="M306.25099,206.93589l0.18202,-0.03483c0,0 0.78086,0.6247 0.15617,1.40557c-0.62469,0.78087 -1.40556,0.15617 -1.40556,0.15617l-0.80529,-0.82467c-0.43439,-1.17275 -0.62287,-2.30579 -0.70493,-3.43621c0.46213,-0.37383 1.15696,-0.64084 1.91678,-0.87639c0.04463,1.19976 0.19776,2.39282 0.66081,3.61036z" fill="#976d24" stroke-width="0.5"/><path d="M300.29449,211.14766l0.16638,-0.81599c0,0 0.70711,-0.70711 1.41422,0c0.70711,0.70711 0,1.41422 0,1.41422l-2.00569,1.35608c-0.55344,-1.00257 -0.91345,-1.77419 -1.12968,-2.48674c0.60759,-0.77225 1.18271,-1.5913 1.75501,-2.40702c-0.07242,0.97717 -0.11447,1.95068 -0.20023,2.93945z" fill="#976d24" stroke-width="0.5"/><path d="M290.49493,150.41061c0.6,-0.8 1.4,-0.2 1.4,-0.2l0.62697,0.54149c0.576,0.91058 0.85599,1.92389 0.96914,2.9756c-0.54871,-0.37058 -1.15179,-0.78942 -1.77951,-1.2185c-0.4225,-0.43472 -0.88419,-0.83116 -1.37936,-1.18362c-0.09398,-0.24167 -0.10462,-0.55846 0.16276,-0.91497z" fill="#976d24" stroke-width="0.5"/><path d="" fill="#976d24" stroke-width="0.5"/><path d="M294.79806,153.96096c0.99887,0.04756 0.9513,1.04644 0.9513,1.04644c-0.00113,0.02361 -0.00225,0.04722 -0.00335,0.07083c-0.18625,-0.09265 -0.37088,-0.18732 -0.55369,-0.28421c-0.3017,-0.15991 -0.66235,-0.38134 -1.06627,-0.64426c0.15318,-0.12123 0.36875,-0.20324 0.67201,-0.1888z" fill="#976d24" stroke-width="0.5"/><path d="" fill="#976d24" stroke-width="0.5"/><path d="M325.46331,207.96797c0.8,0.6 0.2,1.4 0.2,1.4l-0.63139,0.68033c-0.45691,0.22197 -0.86322,0.64391 -1.37072,0.66592c-3.92209,0.17009 -3.87694,-2.54652 -3.49481,-5.27197c-0.4399,-5.80836 -1.2455,-11.70978 -1.23456,-17.5201c0.00645,-3.2296 1.41613,-7.86316 0.63914,-10.92392c-0.70999,-2.79678 -4.37234,-4.72948 -5.15867,-7.68863c-0.69626,-2.62019 0.13377,-5.62355 1.45062,-8.20586c0.29758,-2.28349 0.64724,-4.6169 1.00251,-6.89068c0,0 0.15438,-0.98801 1.14239,-0.83363c0.98801,0.15437 0.83364,1.14239 0.83364,1.14239c-0.15393,0.98513 -0.2301,1.94025 -0.28181,2.89112c0.22458,-0.05054 0.49791,-0.01899 0.79631,0.2131c0.78935,0.61394 0.17541,1.40329 0.17541,1.40329c-0.37495,0.47738 -0.7598,1.02271 -1.12935,1.61525c-0.01364,0.20716 -0.0289,0.41543 -0.04627,0.62507c-0.10557,1.27401 -0.8055,2.02392 -0.88864,3.25884l-0.36131,0.76036c0,0 -0.30984,0.46478 -0.81376,0.46802c-0.19435,1.06794 -0.20241,2.12266 0.06601,3.09012c0.79537,2.86669 4.38294,4.69031 5.10931,7.51588c0.86133,3.35062 -0.52882,8.06628 -0.53553,11.56321c-0.00819,4.02063 0.37899,8.08937 0.76362,12.13848c2.79138,-9.41315 1.6107,-20.04135 -1.3383,-29.19876c0,0 -0.30653,-0.95186 0.64533,-1.25839c0.37178,-0.11972 0.64512,-0.04748 0.84019,0.08505c-0.55552,-1.70651 -1.0834,-3.41936 -1.261,-5.16067c-0.3665,-3.5935 1.5371,-9.02109 -1.10199,-11.86489l-0.30412,-0.64893c0,0 -0.31622,-0.94868 0.63246,-1.26491c0.94869,-0.31623 1.26491,0.63245 1.26491,0.63245l-0.10666,-0.05654c0.69718,0.79282 1.14157,1.66509 1.41615,2.59014c0.11239,-0.26058 0.35266,-0.53268 0.86551,-0.551c0.99937,-0.03569 1.03505,0.96367 1.03505,0.96367c0.10989,3.07927 0.69902,5.8474 1.05409,8.66381c0.00467,-0.37444 0.0072,-0.74927 0.0072,-1.12459v-1.77715c0,0 0,-1 1,-1c1,0 1,1 1,1v1.77715c0,3.08384 -0.16809,6.13437 -0.29775,9.21434c-0.02302,0.54653 -0.04519,1.09289 -0.06655,1.63913c0.16096,0.32605 0.07639,0.62938 -0.03206,0.83607c-0.39328,10.46001 -0.49222,20.87292 -0.49222,31.35697c0,0 0,1 -1,1c-1,0 -1,-1 -1,-1c0,-2.51731 0.0057,-5.03057 0.0198,-7.54136c-0.47584,2.31447 -1.16613,4.56769 -2.10297,6.71839c-0.04228,0.34386 -0.1255,0.7906 -0.20676,1.27104c0.0144,0.18902 0.02841,0.37792 0.04198,0.56671l0.09873,-0.13383c0,0 0.6,0.8 -0.2,1.4c-0.05212,0.0391 -0.10341,0.07225 -0.15373,0.10007c-0.00063,1.21295 0.43165,1.99789 2.14956,0.97898l-0.039,-0.10951c0,0 0.6,-0.8 1.4,-0.2zM323.94705,165.10049c-0.11388,-1.85713 -0.94844,-2.91986 -1.33173,-4.64014c-0.09168,1.3188 -0.16453,2.62853 -0.04353,3.8729c0.14983,1.54087 0.6001,3.07392 1.09737,4.60063c0.16179,-1.20243 0.36216,-2.45902 0.27788,-3.83338zM324.89189,175.07179c-0.12337,-0.15562 -0.23673,-0.31029 -0.34076,-0.46415c-0.07571,0.03562 -0.16214,0.06528 -0.26074,0.08719c-0.36216,0.08048 -0.61981,-0.00326 -0.80066,-0.14044c0.5051,2.0219 0.92282,4.09971 1.23084,6.20472c0.04854,-1.89489 0.10526,-3.79044 0.17132,-5.68732z" fill="#976d24" stroke-width="0.5"/><path d="M309.94721,160.19239l0.09794,-1.07768c0,0 0.01758,-0.19343 0.1225,-0.40204c-0.16755,-2.13076 -0.6171,-3.82307 -1.18545,-6.18694c0,0 -0.23162,-0.9728 0.74118,-1.20442c0.9728,-0.23162 1.20443,0.74119 1.20443,0.74119c0.24829,1.05417 0.59941,2.28802 0.90883,3.59032c0.4592,-0.96767 0.96926,-1.85726 1.39122,-2.84209c-0.29802,-1.28539 -0.51567,-2.56017 -0.79509,-3.86138l-0.19798,-0.07849c0,0 -0.6247,-0.78087 0.15617,-1.40556c0.78087,-0.6247 1.40557,0.15618 1.40557,0.15618l0.59186,0.90881c0.10271,0.48027 0.19663,0.95693 0.28943,1.4318c0.48557,0.18382 0.60112,0.74974 0.60112,0.74974l0.25594,1.42347c-0.0776,0.24079 -0.15954,0.47327 -0.24493,0.69933c0.02438,0.09692 0.04937,0.19393 0.07501,0.29103c0,0 0.2545,0.96707 -0.71258,1.22156c-0.00385,0.00101 -0.00768,0.002 -0.01151,0.00298c-0.4629,0.98849 -0.95684,1.93356 -1.38432,3.04542c0,0 -0.26893,0.69153 -0.93915,0.6516c0.33948,2.20144 0.33458,4.40748 -0.64931,6.12979c-0.53597,-0.94745 -1.20612,-1.7562 -1.97788,-2.4617c0.10874,-0.52272 0.20486,-1.03365 0.25701,-1.52291z" fill="#976d24" stroke-width="0.5"/><path d="M310.92163,210.94558c-0.99284,-0.1194 -0.87345,-1.11225 -0.87345,-1.11225l0.13372,-1.10619c0.03952,-0.86906 0.0944,-1.7361 0.15292,-2.60283c-0.40178,1.1065 -0.76972,2.2205 -0.86424,3.41781l0.26532,-0.13085c0,0 0.64018,0.76823 -0.12804,1.40841c-0.76822,0.64019 -1.4084,-0.12804 -1.4084,-0.12804l-0.72198,-1.31561c0.22123,-2.54124 1.54921,-4.67535 1.98909,-7.15412c0.02435,-0.13723 0.04754,-0.27441 0.06963,-0.41156c0.86899,-0.58269 1.61521,-1.16163 2.2913,-1.7693c0.2853,0.75668 0.57033,1.5109 0.84443,2.26388c0,0 0.207,0.56924 -0.14423,0.98277c-0.11151,1.87006 -0.26656,3.73279 -0.35264,5.60465l-0.14119,1.17979c0,0 -0.1194,0.99284 -1.11225,0.87344z" fill="#976d24" stroke-width="0.5"/><path d="M317.27375,205.50986c0,0 0,1 -1,1c-1,0 -1,-1 -1,-1c0.00767,-2.66147 -0.51558,-5.31169 -1.11956,-7.96719c0.35147,-0.44107 0.70157,-0.90746 1.06184,-1.40629c0.1664,-0.23041 0.31473,-0.47561 0.44624,-0.73349c0.77099,3.36557 1.60299,6.71483 1.61149,10.10697z" fill="#976d24" stroke-width="0.5"/><path d="M313.14338,180.37576c0.82927,-0.94015 2.87185,-1.86547 4.03375,-2.49976l0.22035,-0.15161c0,0 0.83205,-0.5547 1.38675,0.27735c0.5547,0.83205 -0.27735,1.38675 -0.27735,1.38675l-0.37204,0.24331c-1.00317,0.5467 -2.6763,1.26193 -3.46977,2.04184c-0.2187,0.21496 -0.36246,0.53783 -0.45207,0.92715c-0.4398,-0.48762 -0.98088,-1.04163 -1.49689,-1.5979c0.11871,-0.22707 0.25996,-0.43743 0.42727,-0.62712z" fill="#976d24" stroke-width="0.5"/><path d="M312.8215,173.46037c-0.47924,1.74825 -1.15935,3.50278 -1.82088,5.26911c-0.07597,-0.19338 -0.10766,-0.36741 -0.08297,-0.51595c0.25373,-1.52687 1.46552,-3.18987 1.90225,-4.99647c0.00126,0.08027 0.0018,0.16136 0.0016,0.24331z" fill="#976d24" stroke-width="0.5"/><path d="M298.63247,151.69752c-0.05986,0.1313 -0.44313,0.87709 -1.29145,0.53776c-0.92847,-0.37139 -0.55709,-1.29987 -0.55709,-1.29987l0.97388,-1.11064c0.51641,-0.06753 1.04419,-0.32975 1.54924,-0.2026c4.36511,1.09889 0.74283,4.25429 0.14161,7.03738c-0.65062,-0.24837 -1.29751,-0.50341 -1.93364,-0.77277c0.10566,-0.82246 0.25647,-1.7651 0.59557,-2.37924c0.88251,-1.59832 2.3564,-2.1256 0.52188,-1.81003z" fill="#976d24" stroke-width="0.5"/><path d="M305.49128,157.19955c0,0 -0.8575,-0.51449 -0.343,-1.37199c0.5145,-0.8575 1.37199,-0.343 1.37199,-0.343c1.83999,1.42853 1.12608,2.7693 0.742,4.48014c-0.55631,-0.32279 -1.13775,-0.62084 -1.73744,-0.90161c0.17396,-0.98535 0.27163,-1.81373 -0.03356,-1.86355z" fill="#976d24" stroke-width="0.5"/><path d="M332.12629,212.73005c0.09609,0.21116 0.12105,0.48759 -0.0498,0.82928c-0.44722,0.89443 -1.34164,0.44721 -1.34164,0.44721l-0.72167,-1.72512c2.57524,-3.06215 0.49327,-8.34994 -0.01905,-11.86652c-0.6519,-4.47473 -0.38085,-9.10777 -0.60073,-13.61511c0,0 -0.04872,-0.99881 0.95009,-1.04754c0.02711,-0.00132 0.05351,-0.00188 0.07923,-0.0017c-0.04321,-0.15985 -0.04321,-0.28299 -0.04321,-0.28299v-0.69111c0.01024,-10.3771 -1.49845,-20.28009 0.71331,-30.61854c0,0 0.00876,-0.04089 0.03107,-0.10416c-0.1351,0.07837 -0.30939,0.12893 -0.53422,0.12893c-1,0 -1,-1 -1,-1v-0.29619c0.03883,-0.51767 -0.25345,-2.04342 -0.30623,-1.52698c-0.26405,2.58378 -0.16893,5.60362 0.49616,8.08489c0,0 0.2545,0.96707 -0.71258,1.22157c-0.96708,0.25449 -1.22156,-0.71258 -1.22156,-0.71258c-0.59649,-2.30405 -0.53131,-4.39793 -0.52658,-6.77071c0.00186,-0.93288 -0.09485,-2.65774 0.62781,-3.31081c2.5,-2.25929 3.58117,1.61343 3.64299,3.01462v0.29619c0,0 0,0.13874 -0.05167,0.31286c0.17588,-0.11372 0.41638,-0.17571 0.74217,-0.1059c0.9778,0.20953 0.76827,1.18733 0.76827,1.18733c-2.18642,10.18591 -0.67819,19.97182 -0.66891,30.19948v0.69111c0,0 0,1 -1,1c-0.01067,0 -0.02123,-0.00011 -0.03167,-0.00034c0.0383,0.13514 0.04318,0.23511 0.04318,0.23511c0.21684,4.44515 -0.06107,9.02458 0.58403,13.43705c0.5866,4.0123 2.33139,8.89739 0.15122,12.59065z" fill="#976d24" stroke-width="0.5"/><path d="M332.38673,163.81449c0.12182,-2.3761 0.40117,-4.60083 2.20542,-5.6713c-0.17255,-1.70745 0.01686,-3.30474 1.85523,-4.92325l-0.43526,-0.13522c0,0 -0.0995,-0.99504 0.89553,-1.09454c0.99503,-0.0995 1.09454,0.89553 1.09454,0.89553l-0.23781,1.83938c-0.9835,0.85438 -1.29785,1.85251 -1.32346,2.93634c0.27974,0.07896 0.59797,0.2874 0.66889,0.81925c0.0216,0.16199 0.01319,0.30104 -0.01598,0.42031c-0.76003,0.81664 -1.45526,1.67242 -2.07107,2.56122c-0.02092,-0.30712 -0.05322,-0.60921 -0.09141,-0.90683c-0.25007,0.49519 -0.40711,1.13758 -0.50175,1.81347c-0.83051,1.34804 -1.47609,2.76395 -1.8893,4.22779c-0.13987,-0.87107 -0.20467,-1.78553 -0.15358,-2.78216z" fill="#976d24" stroke-width="0.5"/><path d="M336.86199,185.37469c-0.89443,0.44721 -1.34164,-0.44721 -1.34164,-0.44721l-0.17546,-0.40623c-0.44322,-1.8057 -0.9967,-3.51167 -1.11306,-5.38548c-0.01491,-0.24013 -0.01194,-0.4998 0.0028,-0.77313c0.01282,0.02775 0.02567,0.05549 0.03856,0.08322c0.27813,0.59874 1.18499,1.30406 2.13312,2.01177c0.21943,1.20942 0.58398,2.37777 0.8809,3.58673l0.022,-0.01131c0,0 0.44721,0.89443 -0.44722,1.34164z" fill="#976d24" stroke-width="0.5"/><path d="M341.23988,152.88649c0,0 0,-1 1,-1c1,0 1,1 1,1c-0.0001,0.33924 0.00435,0.68547 0.01154,1.03719c-0.66724,0.40884 -1.32022,0.84232 -1.95437,1.29853c-0.03022,-0.80591 -0.05695,-1.59133 -0.05717,-2.33572z" fill="#976d24" stroke-width="0.5"/><path d="M339.11234,204.27709c0.05883,3.79074 0.1368,7.83219 -1.64128,11.1482l-2.5506,-1.05632c0,0 -0.86194,-0.50702 -0.35492,-1.36895c0.50702,-0.86193 1.36896,-0.35491 1.36896,-0.35491l0.73266,0.83449c-0.30539,-0.42038 -0.27078,-1.41357 -0.13606,-2.48619c-0.16165,-0.21627 -0.20832,-0.44962 -0.20832,-0.44962l-0.11814,-0.68977c0.00016,-1.84306 -0.15185,-3.81909 0.59281,-5.56815c0.08848,-0.20782 0.20628,-0.40374 0.34505,-0.59112c0.07394,-2.51485 0.1729,-4.99445 0.38987,-7.49229c0.00554,0.02294 0.01118,0.04589 0.01692,0.06886c0.22722,0.90887 0.88097,2.24472 1.60575,3.6724c-0.03073,0.6184 -0.05064,1.24205 -0.05828,1.87387c0.24086,-0.22691 0.46462,-0.46054 0.65139,-0.7089c0.29215,0.57569 0.58044,1.15165 0.84276,1.70703c-0.51485,0.46795 -1.05478,0.9115 -1.47855,1.46139z" fill="#976d24" stroke-width="0.5"/><path d="M345.19205,151.58095l-0.08226,-0.37423c0,0 -0.19611,-0.98058 0.78447,-1.17669c0.98058,-0.19611 1.17669,0.78446 1.17669,0.78446l0.11521,0.61307c0.01071,0.14932 0.01518,0.29451 0.01429,0.43593c-0.75592,0.32984 -1.50552,0.69225 -2.24315,1.08485c0.1643,-0.44676 0.27365,-0.90003 0.23475,-1.36739z" fill="#976d24" stroke-width="0.5"/><path d="M349.94093,150.35772c0,0 0.15924,-0.98724 1.14648,-0.82801c0.55565,0.08962 0.74812,0.44154 0.81021,0.73211c-0.67675,0.16585 -1.35772,0.36155 -2.03889,0.58541c0.02847,-0.1635 0.05594,-0.32668 0.0822,-0.4895z" fill="#976d24" stroke-width="0.5"/><path d="M314.04802,214.08226c-0.97015,0.24254 -1.21267,-0.72761 -1.21267,-0.72761l-0.12859,-0.6387c0.00241,-1.89889 0.0835,-3.50403 0.52085,-5.36436c0,0 0.23163,-0.97281 1.20443,-0.74119c0.9728,0.23162 0.74119,1.20443 0.74119,1.20443c-0.41168,1.70503 -0.46432,3.16242 -0.46646,4.90361l0.06887,0.15114c0,0 0.24254,0.97014 -0.72761,1.21267z" fill="#976d24" stroke-width="0.5"/><path d="M292.27638,149.57609c0,0 0.44721,-0.89443 1.34164,-0.44721c0.89443,0.44721 0.44721,1.34164 0.44721,1.34164c-0.50497,0.98685 -0.79569,1.99 -0.9451,3.0052c-0.44519,-0.30395 -0.91941,-0.63212 -1.40861,-0.96651c-0.11157,-0.1148 -0.22587,-0.22692 -0.3428,-0.33627c0.19038,-0.86264 0.48104,-1.72684 0.90765,-2.59684z" fill="#b9862c" stroke-width="0.5"/><path d="" fill="#b9862c" stroke-width="0.5"/><path d="M302.51927,157.40091c0.11256,-0.54353 0.17521,-1.00794 0.24358,-1.42614c-0.01325,-0.05167 -0.01782,-0.08366 -0.01782,-0.08366c-0.06783,-0.53782 -0.13565,-1.07564 -0.20348,-1.61346l0.13015,-0.19879l-0.08287,-0.02763l0.62516,-1.87549c0.12567,-0.40863 0.50613,-0.70565 0.95597,-0.70565c0.55228,0 1,0.44771 1,1c0,0.02868 -0.0012,0.05708 -0.00357,0.08515l-0.14814,1.98377l-0.4103,-0.03064c-0.00385,0.10288 -0.00877,0.20571 -0.01468,0.30848c0.04388,0.2638 0.08776,0.52761 0.13164,0.79142c0,0 0.08127,0.56886 -0.31063,0.90574c-0.09434,0.63829 -0.21481,1.27482 -0.34701,1.91005c-0.53491,-0.22112 -1.07922,-0.43392 -1.62861,-0.64309c0.02789,-0.12875 0.05481,-0.25548 0.0806,-0.38005z" fill="#b9862c" stroke-width="0.5"/><path d="M297.12527,212.42966c-0.07093,0.09539 -0.17524,0.20875 -0.31464,0.2932c0.10627,-0.09558 0.21111,-0.19337 0.31464,-0.2932z" fill="#b9862c" stroke-width="0.5"/><path d="" fill="#b9862c" stroke-width="0.5"/><path d="M312.11874,178.94597c-0.09203,-1.03768 -0.20257,-2.07437 -0.32578,-3.11042c0.49418,-1.05705 1.02743,-2.17054 1.15548,-3.34237c0.08283,-0.75801 0.12522,-1.47347 0.13007,-2.14953c0.40629,2.80259 0.79019,5.60568 1.03149,8.41562c0.10577,1.23172 0.06661,2.47451 -0.00602,3.72152c-0.57912,-0.63325 -1.30544,-1.36546 -1.91913,-2.0647c-0.00325,-0.49219 -0.02287,-0.98246 -0.06612,-1.47012z" fill="#b9862c" stroke-width="0.5"/><path d="M309.55048,158.39537c0,0 -0.0787,-0.9969 0.9182,-1.0756c0.9969,-0.0787 1.0756,0.91819 1.0756,0.91819c0.20189,2.55728 0.52799,5.10741 0.88812,7.65516c-0.5522,-1.63158 -1.43183,-2.92258 -2.53623,-3.98472c-0.13511,-1.16972 -0.25313,-2.34057 -0.34569,-3.51304z" fill="#b9862c" stroke-width="0.5"/><path d="M325.53843,212.04207c-0.18642,-0.18642 -0.27454,-0.37285 -0.30325,-0.54631c-0.86847,-0.95964 -1.63358,-1.77139 -1.86281,-3.24643c-0.11959,-0.76954 0.7193,-1.49125 0.59326,-2.25976c-0.25117,-1.53155 -1.07707,-2.93694 -1.1863,-4.56213c-0.15927,-2.36949 0.47446,-4.58992 1.19851,-6.79029c-0.54784,0.19072 -1.00641,-0.26784 -1.00641,-0.26784l-0.44972,-0.6224c-0.60715,-2.15958 -0.60373,-3.84915 0.47895,-5.89966c0.41708,-0.78991 1.18805,-1.30543 1.35813,-2.24266c0.12791,-0.70486 -0.64647,-1.29982 -0.77474,-2.00462c-0.01742,-0.09569 -0.20981,-4.00053 -0.2141,-4.17883c-0.10685,-4.43548 0.02341,-8.88668 0.09858,-13.3217c0,0 0.01695,-0.99985 1.0168,-0.98291c0.99986,0.01694 0.98291,1.0168 0.98291,1.0168c-0.0747,4.40763 -0.20507,8.83154 -0.09887,13.23964c0.03063,1.27154 -0.05445,2.56014 0.17112,3.81189c0.1372,0.76132 0.93014,1.71345 0.81464,2.54062c-0.43529,3.11748 -2.99553,3.98035 -1.91468,7.4571l-0.0548,-0.22748c0,0 0.06259,0.06258 0.1319,0.16913c0.16046,-0.25859 0.5129,-0.62496 1.15564,-0.41071c0.94869,0.31623 0.63245,1.26491 0.63245,1.26491c-0.79183,2.37547 -1.70395,4.75618 -1.53043,7.32049c0.10586,1.56445 1.01866,3.01911 1.18323,4.52108c0.08558,0.78108 -0.7043,1.50423 -0.5915,2.28186c0.12667,0.87334 1.19948,1.88388 1.72624,2.47171l-0.14053,1.4685c0,0 -0.70711,0.70711 -1.41421,0z" fill="#b9862c" stroke-width="0.5"/><path d="M327.90796,182.12672c-0.46351,-0.46351 -0.31936,-0.92703 -0.16503,-1.19137c0.16759,-1.95737 0.37037,-4.05634 0.36617,-6.00438c-0.00482,-2.23371 -1.29141,-4.45199 -1.70913,-6.61566c-0.89265,-4.6237 -0.85825,-9.46162 -0.85825,-14.14533c0,0 0,-1 1,-1c1,0 1,1 1,1c0,4.55613 -0.04639,9.26826 0.82199,13.76621c0.44482,2.30401 1.71754,4.55713 1.74463,6.93963c0.02396,2.10819 -0.22419,4.4246 -0.39799,6.5281l-0.38817,0.7228c0,0 -0.70711,0.70711 -1.41422,0z" fill="#b9862c" stroke-width="0.5"/><path d="M317.15088,178.10997c0.00389,0.15785 0.01111,0.31736 0.02193,0.47868zM317.1476,177.89315c0.08501,0.02669 0.94124,0.32004 0.68006,1.23419c-0.27472,0.96152 -1.23624,0.6868 -1.23624,0.6868l-1.41418,-1.09247c-0.13579,-2.04813 -0.12676,-4.1444 0.33539,-6.16263c0.28916,-1.26276 1.11955,-2.38774 1.26372,-3.67514c0.04235,-0.37815 -0.48159,-3.37473 -0.51054,-3.65746c-0.45648,-4.45856 -0.74236,-9.55327 0.42541,-13.88657c0,0 0.26312,-0.96476 1.22788,-0.70165c0.96476,0.26311 0.70164,1.22788 0.70164,1.22788c-1.12462,4.06936 -0.79727,8.97648 -0.36444,13.16559c0.09855,0.95387 0.60565,3.17553 0.50797,4.07153c-0.33873,3.10727 -1.63469,5.62185 -1.61668,8.78991z" fill="#b9862c" stroke-width="0.5"/><path d="M332.94322,176.79527l-0.30062,-0.38903c-3.4713,-7.64891 0.58063,-16.90051 -1.05889,-24.80459c0,0 -0.19611,-0.98058 0.78447,-1.17669c0.98058,-0.19611 1.1767,0.78447 1.1767,0.78447c0.81382,4.19309 -0.01003,8.92942 -0.35827,13.55501c-0.27126,0.64025 -0.49935,1.29196 -0.6799,1.9533c-1.004,3.67745 -0.21043,7.08748 1.17458,10.3918c-0.42141,0.0024 -0.73806,-0.31426 -0.73806,-0.31426z" fill="#b9862c" stroke-width="0.5"/><path d="M341.8675,153.4458c0,0 -0.26312,-0.96476 0.70164,-1.22788c0.96476,-0.26311 1.22788,0.70165 1.22788,0.70165c0.05248,0.19241 0.10492,0.38771 0.15717,0.58564c-0.60391,0.34936 -1.19774,0.71888 -1.77822,1.10721c-0.10227,-0.39967 -0.20558,-0.78933 -0.30847,-1.16662z" fill="#b9862c" stroke-width="0.5"/><path d="" fill="#b9862c" stroke-width="0.5"/><path d="" fill="#b9862c" stroke-width="0.5"/><path d="M340.30559,213.27899c-0.75925,-0.65079 -0.10846,-1.41004 -0.10846,-1.41004l0.38812,0.22732c-0.43719,-1.60262 -0.53029,-2.63307 -0.52979,-4.24316c0.09789,-1.64457 0.68947,-2.67367 0.94628,-4.13093c0.42261,0.98145 0.71182,1.85074 0.72387,2.47234c0.02951,1.52109 -0.15141,4.28947 0.30699,6.3356l-0.31697,0.64041c0,0 -0.6508,0.75925 -1.41005,0.10846z" fill="#b9862c" stroke-width="0.5"/><path d="M331.03104,208.28017c-0.89443,-0.44721 -0.44722,-1.34164 -0.44722,-1.34164l-0.00339,0.16671c0.5836,-6.9401 0.88862,-14.3743 0.88512,-21.34148c0,0 0,-1 1,-1c1,0 1,1 1,1c-0.00338,7.027 -0.31354,14.5064 -0.89202,21.50757l-0.20085,0.56163c0,0 -0.44721,0.89443 -1.34164,0.44721z" fill="#b9862c" stroke-width="0.5"/><path d="M315.7641,212.437c-0.64963,-0.64963 -0.1056,-1.29927 -0.01287,-1.40059c0.18984,-0.78389 0.5461,-1.52818 0.71832,-2.31784c0.22873,-1.04881 -0.9643,-2.93368 -1.08208,-3.76646c-0.61913,-4.37763 0.64214,-9.3025 1.69328,-13.50706c0,0 0.24253,-0.97014 1.21268,-0.72761c0.97015,0.24254 0.72761,1.21268 0.72761,1.21268c-0.98768,3.95072 -2.23503,8.62856 -1.65327,12.74191c0.21913,1.54936 1.34946,2.67997 1.07971,4.3428c-0.14927,0.92017 -0.64404,1.76167 -0.79242,2.68199l-0.47674,0.74017c0,0 -0.70711,0.70711 -1.41422,0z" fill="#b9862c" stroke-width="0.5"/><path d="M308.22429,209.36621c-0.89443,-0.44721 -0.44722,-1.34164 -0.44722,-1.34164l0.4502,-0.88704c0.41182,-1.63659 0.44927,-3.20516 0.29376,-4.73952c0.21785,-0.09519 0.41815,-0.19802 0.59441,-0.31138c0.56292,-0.36206 1.07558,-0.72071 1.55047,-1.08368c0.14734,2.35285 -0.09173,4.93549 -0.56287,6.82848l-0.53711,1.08757c0,0 -0.44721,0.89443 -1.34164,0.44721z" fill="#b9862c" stroke-width="0.5"/><path d="M306.21148,213.79782c0.23377,0.17706 0.61943,0.59122 0.29381,1.24247c-0.44722,0.89443 -1.34164,0.44721 -1.34164,0.44721l-0.67872,-0.62177c-0.62295,-1.79021 0.51388,-2.36892 0.42554,-3.94194c-0.14992,-2.66929 -1.20087,-4.12779 -0.35833,-7.07615c0,0 0.02265,-0.07765 0.07714,-0.18233c0.39918,-0.16622 0.84811,-0.30928 1.31111,-0.44521c0.78161,0.33086 0.53175,1.18754 0.53175,1.18754c-0.81437,2.72764 0.34152,3.88294 0.43151,6.35119c0.04816,1.3208 -1.00261,1.9631 -0.69216,3.03899z" fill="#b9862c" stroke-width="0.5"/><path d="M319.01817,216.03541c-0.94869,-0.31623 -0.63245,-1.26491 -0.63245,-1.26491l0.30412,-0.64893c1.55797,-1.59207 0.96026,-5.22411 1.33777,-7.40082c0,0 0.17134,-0.98521 1.15655,-0.81387c0.98521,0.17134 0.81387,1.15655 0.81387,1.15655c-0.50104,2.87265 0.12125,6.11762 -1.8216,8.39606l0.10666,-0.05654c0,0 -0.31622,0.94868 -1.26491,0.63245z" fill="#b9862c" stroke-width="0.5"/><path d="M329.42967,212.90481c0.1651,0.19955 0.27476,0.49642 0.13408,0.91846c-0.31623,0.94869 -1.26491,0.63246 -1.26491,0.63246l-0.96383,-1.2263c0.35748,-1.9425 0.77371,-3.45229 0.77371,-5.44876c0,0 0,-1 1,-1c1,0 1,1 1,1c0,1.87654 -0.34435,3.37665 -0.67905,5.12414z" fill="#b9862c" stroke-width="0.5"/><path d="M338.38939,215.19815c-1,0 -1,-1 -1,-1v-0.9873c0.00104,-2.20664 -0.09873,-4.40551 -0.09873,-6.61495c0,0 0,-1 1,-1c1,0 1,1 1,1c0,2.20972 0.09774,4.40777 0.09873,6.61495v0.9873c0,0 0,1 -1,1z" fill="#b9862c" stroke-width="0.5"/><path d="M338.29157,150.74748c0,0 0.1644,-0.98639 1.1508,-0.82199c0.9864,0.1644 0.822,1.15079 0.822,1.15079c-0.31292,1.86292 -0.5349,3.64111 -0.65922,5.45548c-0.73637,0.61331 -1.43755,1.25863 -2.0949,1.93234c0.07619,-2.61805 0.34716,-5.08893 0.78133,-7.71661z" fill="#b9862c" stroke-width="0.5"/><path d="M323.26763,158.72759c-0.70711,-0.70711 0,-1.41422 0,-1.41422l0.21394,-0.20302c1.45979,-0.03708 -0.61576,0.05932 -0.84675,-0.33425c-0.52476,-0.89411 0.10319,-3.68356 0.25124,-4.72214c0,0 0.14142,-0.98995 1.13137,-0.84853c0.98995,0.14142 0.84853,1.13137 0.84853,1.13137c-0.03422,0.23896 -0.65492,3.22414 -0.53861,3.37377c0.37193,0.47848 1.43706,0.27985 1.59989,0.8636c0.17604,0.6311 -0.57797,1.17604 -0.86696,1.76406l-0.37843,0.38936c0,0 -0.70711,0.70711 -1.41422,0z" fill="#b9862c" stroke-width="0.5"/><path d="M307.83896,156.54216c-0.98995,-0.14142 -0.84853,-1.13137 -0.84853,-1.13137l0.1081,-0.7458c0.3317,-1.62622 0.79307,-2.67607 1.95189,-3.86783c0,0 0.7071,-0.70711 1.41421,0c0.70711,0.70711 0,1.41421 0,1.41421c-0.91095,0.87636 -1.16503,1.61704 -1.40494,2.84585l-0.08936,0.63642c0,0 -0.14142,0.98995 -1.13137,0.84852z" fill="#b9862c" stroke-width="0.5"/><path d="M296.42682,154.12351c0.41969,-1.44007 0.69184,-2.24963 1.81185,-3.27309c0,0 0.75258,-0.65851 1.41109,0.09407c0.6585,0.75258 -0.09408,1.41109 -0.09408,1.41109c-0.77852,0.63595 -0.85433,1.11202 -1.15006,2.05836l0.0106,1.03955c0,0 0,0.40519 -0.25792,0.69972c-0.58942,-0.23907 -1.17178,-0.48803 -1.74166,-0.75276z" fill="#b9862c" stroke-width="0.5"/><path d="M298.97673,154.38158l2.14796,-0.42959c0,0 -0.31715,1.55581 -0.72894,3.73479c-0.58107,-0.31511 -1.16787,-0.61943 -1.76082,-0.90938c0.16648,-1.37663 0.3418,-2.39582 0.3418,-2.39582z" fill="#91661c" stroke-width="0"/><path d="M301.12469,209.79876l-2.49766,-1.47588c0.08312,-0.05174 0.16631,-0.1041 0.2496,-0.1571c0.36686,-0.18814 0.70929,-0.39322 1.03101,-0.61282c0.67622,1.56509 1.21705,2.2458 1.21705,2.2458z" fill="#91661c" stroke-width="0"/><path d="M295.8264,153.8088c0,0 -0.06957,0.61131 -0.1828,1.6654c-0.05307,-0.02009 -0.1062,-0.04004 -0.15937,-0.05982z" fill="#91661c" stroke-width="0"/><path d="M335.49194,159.53666c0,0 -0.58024,-3.87513 1.4155,-4.9109c0.72032,-0.37383 0.90172,4.17705 2.71082,4.26121c-0.6459,0.45809 -1.255,0.94417 -1.80339,1.47192c-0.65056,-1.72174 -2.32294,-0.82223 -2.32294,-0.82223z" fill="#91661c" stroke-width="0"/><path d="M308.51488,154.50982c0,0 0.87416,-0.48564 1.3598,0.38852c0.48564,0.87416 -0.38851,1.3598 -0.38851,1.3598c-2.59972,1.36793 -3.12393,3.08948 -2.99244,5.01334c-0.58541,-0.35212 -1.21839,-0.6867 -1.8432,-1.07681c-0.12726,-0.07946 -0.25476,-0.15882 -0.38252,-0.23804c0.53774,-2.2584 2.37357,-4.36535 4.24687,-5.4468z" fill="#91661c" stroke-width="0.5"/><path d="M325.90662,206.06677c-0.70711,-0.70711 0,-1.41421 0,-1.41421l-0.05737,0.14423c1.89308,-4.0801 1.93246,-8.80219 1.02017,-13.16976c-2.39402,-8.6413 -4.95625,-16.65134 -4.54707,-25.71202c0.12432,-2.75282 0.13161,-7.20723 3.14758,-7.94107c0,0 0.98995,-0.14142 1.13137,0.84853c0.14142,0.98995 -0.84853,1.13137 -0.84853,1.13137c-0.49601,-0.0779 -0.71882,0.77994 -0.80178,1.27513c-0.37579,2.24323 -0.63203,4.48175 -0.63079,6.75157c0.00444,8.13268 2.33538,15.37139 4.49325,23.17669c0.99313,4.83005 0.93292,9.96214 -1.14885,14.47893l-0.34377,0.43062c0,0 -0.70711,0.70711 -1.41422,0z" fill="#91661c" stroke-width="0.5"/><path d="M315.88284,204.778c-0.65453,-0.65453 -0.09733,-1.30906 -0.01085,-1.40277c1.12983,-3.18526 0.15589,-8.106 0.14241,-11.46931c-0.04633,-11.56315 -5.70081,-22.83414 -2.82894,-34.33014c0,0 0.24254,-0.97015 1.21268,-0.72761c0.97015,0.24254 0.7276,1.21268 0.7276,1.21268c-2.80774,11.22242 2.84324,22.50824 2.88863,33.83705c0.0152,3.79405 0.94233,8.82504 -0.3449,12.38092l-0.37242,0.49918c0,0 -0.70711,0.70711 -1.41422,0z" fill="#91661c" stroke-width="0.5"/><path d="M334.20553,187.46281c-0.03122,-5.66424 -2.10411,-10.45585 -2.57525,-15.97309c-0.42914,-5.02547 0.14178,-10.21133 0.1409,-15.24658c0,0 0,-1 1,-1c1,0 1,1 1,1c-0.00082,4.88798 -0.55558,9.93061 -0.17008,14.8146c-0.14394,1.79937 0.03631,3.75313 0.78647,5.24574c0.01312,0.0261 0.02667,0.05189 0.04064,0.07739c0.72956,3.43336 1.65351,6.77594 1.76624,10.46494c-0.79717,1.31207 -1.59446,2.63093 -1.92824,4.09222c-0.11949,0.52312 -0.1937,1.0506 -0.22921,1.58038c0.06435,-1.69445 0.16866,-3.38913 0.16854,-5.0556z" fill="#91661c" stroke-width="0.5"/><path d="M334.4543,199.07663l-0.23872,-0.59219c-0.24109,-1.71632 -0.25522,-3.46912 -0.20369,-5.22663c-0.00402,2.15384 0.57727,4.3298 1.3055,6.39124c-0.5754,0.00297 -0.86309,-0.57242 -0.86309,-0.57242z" fill="#91661c" stroke-width="0.5"/><path d="M344.09752,152.05787c0.20714,0.01593 0.46358,0.04381 0.74617,0.08835c0.06562,-0.00429 0.13182,-0.00646 0.19852,-0.00646c0.66322,0 1.27618,0.21521 1.77284,0.57962c0.94615,0.45821 1.63122,1.20865 1.22716,2.42038c0,1.54063 -1.16131,2.81001 -2.6563,2.98053c-0.49425,0.16599 -1.04446,0.30592 -1.66353,0.54237c-0.86739,0.33129 -2.383,0.10126 -2.59809,1.00451c-1.28719,5.40552 -2.43903,11.29333 -2.11055,16.84654c0.15988,2.70294 4.46923,3.72463 5.00517,6.40431c0.63653,3.18259 -2.00373,7.04953 -1.83935,10.60384c0.23272,5.03192 2.38348,11.95343 2.79429,17.08637c0.19674,2.45816 -2.13632,3.49409 -4.26952,3.5652c-3.55083,0.11836 -3.85183,-5.95286 -4.29027,-8.36289c-0.50047,-2.751 -3.53628,-3.47568 -3.53628,-6.76777c0,-2.28848 3.28322,-3.56347 3.30177,-4.98163c0.05107,-3.90485 1.0866,-6.13006 1.57656,-9.68389c0.09029,-0.65486 -1.98523,-1.56499 -2.45667,-2.14131c-0.26683,-0.32619 -1.27063,-2.1417 -1.43143,-2.10248c-1.33482,0.32564 -2.01299,-0.00762 -2.9292,-0.92382c-0.19435,-0.19435 -0.57955,-0.17045 -0.71591,-0.40909c-1.3998,-2.44966 1.21645,-4.31458 1.14929,-6.69748c-0.06814,-2.41745 -1.16602,-4.6275 -0.32852,-6.97252c0.62112,-1.73914 2.81518,-1.03714 3.21399,-1.85176c1.06184,-2.16894 0.13032,-5.36656 1.83455,-7.18832c1.56015,-1.66775 3.30024,-2.15209 5.41758,-3.00761c0.76183,-0.30782 1.64298,-0.92113 2.50372,-0.94982z" fill="#ffebc9" stroke-width="0.5"/></g></g></svg>