<svg version="1.1" xmlns="http://www.w3.org/2000/svg" xmlns:xlink="http://www.w3.org/1999/xlink" width="14.75315" height="22.3888" viewBox="0,0,14.75315,22.3888"><g transform="translate(-289.7644,-151.97109)"><g data-paper-data="{&quot;isPaintingLayer&quot;:true}" fill-rule="nonzero" stroke="none" stroke-linecap="butt" stroke-linejoin="miter" stroke-miterlimit="10" stroke-dasharray="" stroke-dashoffset="0" style="mix-blend-mode: normal"><path d="M289.7644,151.97109h14.75315c-0.05128,0.64864 -0.14519,1.19828 -0.25597,1.48808c-0.17663,0.46207 -0.97709,0.79019 -1.33646,1.12363c-0.95043,0.88664 -3.56374,1.91268 -3.17515,3.52394c0.44714,1.85402 2.27348,1.95352 2.3623,4.28725c0.04853,0.79074 0.65407,1.43034 0.81994,2.22288c0.58517,2.79608 -0.51791,4.44349 -3.01889,5.45184c-3.27692,0.65252 -6.17766,2.49007 -9.41645,3.48662c-0.2426,0.07465 -0.48692,0.14291 -0.73247,0.20633z" fill="#8b8b8b" stroke-width="0"/><path d="M300.17548,164.63723c-1.46306,1.9727 -2.17371,3.86088 -2.42409,6.02849c-0.69971,0.24105 -1.38873,0.51823 -2.07496,0.8092c0.169,-2.95722 0.98844,-5.54689 2.91506,-8.05877c0.90015,-1.17359 2.06108,-1.67492 3.1047,-2.54665c0.22954,0.39106 0.39116,0.86988 0.41608,1.52449c0.01095,0.17843 0.05027,0.34917 0.10649,0.5157c-0.74362,0.50237 -1.49161,0.98368 -2.04328,1.72753z" fill="#6a6a6a" stroke-width="0.5"/><path d="M297.76282,161.66084c-0.83205,-0.5547 -0.27735,-1.38675 -0.27735,-1.38675l0.66783,-0.99298c0.53514,-0.50281 1.08391,-0.82808 1.64055,-1.01213c0.23338,0.7759 0.71883,1.23128 1.18579,1.7124c-0.48072,-0.00129 -0.92368,0.15802 -1.27966,0.56772l-0.55042,0.8344c0,0 -0.5547,0.83205 -1.38675,0.27735z" fill="#6a6a6a" stroke-width="0.5"/><path d="M301.60877,174.35989l-0.03093,-0.06295c0.01769,0.02153 0.02853,0.04262 0.03093,0.06295z" fill="#6a6a6a" stroke-width="0.5"/><path d="M301.29025,169.35172c0.32211,-1.24716 0.93175,-2.41839 1.79558,-3.38373c0.00589,1.49381 -0.61558,2.58146 -1.79558,3.38373z" fill="#6a6a6a" stroke-width="0.5"/><path d="M294.49964,170.34648c-0.98995,0.14142 -1.13137,-0.84853 -1.13137,-0.84853l-0.15982,-1.1365c-0.00816,-3.68868 -2.98268,-8.78819 0.74735,-11.41034c0,0 0.83205,-0.5547 1.38675,0.27735c0.04512,0.06767 0.08106,0.13351 0.10902,0.19737c1.54273,-2.08932 4.0525,-2.80646 6.92965,-2.74111l0.25456,0.13794c-0.74461,0.56348 -1.96281,1.19485 -2.56487,1.99827c-1.8172,0.38386 -3.24431,1.36252 -3.8375,3.52115c0,0 -0.27472,0.96152 -1.23625,0.6868c-0.96152,-0.27472 -0.6868,-1.23625 -0.6868,-1.23625c0.07402,-0.25159 0.15616,-0.49224 0.24605,-0.7223c-1.5198,1.96461 0.65251,6.96381 0.64699,9.14931l0.14475,0.99544c0,0 0.14142,0.98995 -0.84853,1.13137z" fill="#6a6a6a" stroke-width="0.5"/></g></g></svg>