<svg version="1.1" xmlns="http://www.w3.org/2000/svg" xmlns:xlink="http://www.w3.org/1999/xlink" width="52.36742" height="113.82047" viewBox="0,0,52.36742,113.82047"><g transform="translate(-291.81997,-124.63558)"><g data-paper-data="{&quot;isPaintingLayer&quot;:true}" fill-rule="nonzero" stroke-linecap="butt" stroke-linejoin="miter" stroke-miterlimit="10" stroke-dasharray="" stroke-dashoffset="0" style="mix-blend-mode: normal"><path d="M312.31057,194.7592c-0.18974,0.69792 -0.65174,1.24645 -1.25293,1.67839c-1.10895,0.79675 -2.69149,1.1968 -3.91244,1.40593c-7.20079,1.23344 -11.0323,-3.55454 -14.31618,-9.64418c-0.75086,-1.39239 -2.44884,-9.01442 1.53107,-5.60307c0.91364,0.78312 1.01387,2.96284 1.5761,3.98788c1.5015,2.73746 3.79979,6.17489 6.4974,7.84211c2.25334,1.39264 7.54166,-1.79791 8.1714,-1.41652z" fill="#e3a500" stroke="none" stroke-width="0.5"/><g stroke="none" stroke-width="0.5"><path d="M326.90047,223.89055c-3.67923,0.15189 -7.22241,1.61219 -10.92725,1.77027l-0.1618,0.0069c0.21218,1.17997 1.03352,2.75435 0.56044,3.74337c-0.50887,1.06387 -3.52114,1.38952 -4.33585,0.52549c-0.06913,-0.07331 -0.31873,-1.27509 -0.34592,-1.51331c-0.15325,-1.34246 -0.19881,-2.75569 -0.25799,-4.10357c-0.06942,-1.62708 -0.13994,-3.25411 -0.20826,-4.88124c-0.01647,-0.3922 -0.0992,-1.33181 0.12327,-1.64413c0.63671,-0.89391 3.19385,-0.77546 4.12376,-0.54872c0.30364,0.07403 0.66812,0.08069 0.88702,0.30376c0.37901,0.38622 0.38383,1.70589 0.47266,2.23282c0,0 0.00007,0.00041 0.00019,0.00121l0.11405,-0.00486c3.99146,-0.1703 7.96439,-0.42132 11.95557,-0.59161c0.33568,-0.01432 0.67132,-0.02701 1.00685,-0.03877c-0.08449,1.57255 -0.30743,3.1171 -0.73498,4.61963c-0.75973,0.04986 -1.51787,0.09061 -2.27174,0.12277z" fill="#b0c1ca"/><g><path d="M316.72416,221.08628l0.56443,-0.02409c3.85541,-0.1645 7.61974,-0.34528 11.37187,-1.19722c0.40259,-0.07873 0.80723,-0.14297 1.21352,-0.19582c-0.02808,0.37924 -0.06471,0.75676 -0.11081,1.13234c-0.29175,0.04372 -0.58246,0.09398 -0.87196,0.15201c-3.81456,0.85955 -7.63774,1.05325 -11.55519,1.22039l-0.56444,0.02409c0,0 -0.55586,0.02372 -0.57957,-0.53213v-0.00001c-0.02372,-0.55585 0.53214,-0.57957 0.53214,-0.57957z" fill="#c7d7e0"/><path d="M323.34679,222.28588c0.02372,0.55584 -0.53213,0.57957 -0.53213,0.57957l-0.05132,0.00219c-1.94056,0.0828 -3.85089,0.26712 -5.79403,0.35003c0,0 -0.55585,0.02372 -0.57957,-0.53213c-0.02371,-0.55584 0.53214,-0.57957 0.53214,-0.57957c1.94315,-0.08291 3.85307,-0.26721 5.79403,-0.35003l0.05131,-0.00219c0,0 0.55586,-0.02372 0.57957,0.53213z" fill="#cdd0e0"/><path d="M327.91833,222.07323c0,0 -0.54264,0.12277 -0.66541,-0.41987c-0.12277,-0.54265 0.41987,-0.66542 0.41987,-0.66542c0.72613,-0.1629 1.41568,-0.41627 2.13653,-0.59276c-0.04165,0.39846 -0.09352,0.79484 -0.15672,1.1889c-0.5784,0.16102 -1.14387,0.35458 -1.73428,0.48915z" fill="#cdd0e0"/></g></g><g stroke="none" stroke-width="0.5"><path d="M315.91411,211.78194c0.29577,1.99613 0.41252,4.14921 0.41252,6.18427c0,0.15859 0.00043,0.31709 0.00125,0.47551c-0.31677,0.00223 -0.63341,0.0035 -0.94987,0.0035c-1.54755,0 -3.0951,0 -4.64264,0c0.00053,-0.09397 0.00089,-0.18783 0.00108,-0.28158c-0.27916,-2.23326 0.1683,-4.58255 -0.15856,-6.79736c-0.18068,-1.22428 -0.59068,-2.46734 -0.75237,-3.70444c1.52233,0.3229 3.3048,-0.05892 4.79358,-0.05892c0.28257,0 0.56329,-0.00476 0.84199,-0.02507c0.32896,1.37648 0.24404,2.79364 0.45302,4.20409z" fill="#b0c1ca"/><path d="M310.50485,211.3156c-0.15127,-1.14201 -0.00591,-2.40098 -0.00493,-3.55468c0.36364,0.03255 0.73676,0.0363 1.11266,0.02436c-0.00335,1.09264 -0.15671,2.30565 -0.00487,3.38263c0.3452,2.44842 0.92782,4.76902 0.92905,7.27729c-0.37072,0 -0.74143,0 -1.11215,0c-0.01068,-2.45846 -0.60124,-4.72481 -0.91977,-7.12959z" fill="#c7d7e0"/><path d="M311.37529,211.54851c-0.09757,-1.06053 0.42021,-2.33896 -0.09759,-3.29363c0,0 -0.11772,-0.23543 -0.02928,-0.46338c0.33801,-0.00037 0.68008,-0.01707 1.02125,-0.0404c0.00218,0.00399 0.00326,0.00617 0.00326,0.00617c0.57937,1.22288 0.10628,2.39601 0.21057,3.69133c0.19061,2.3676 1.08131,4.59563 1.17547,6.99661c-0.37071,0 -0.74142,0 -1.11214,0c-0.08958,-2.35868 -0.95748,-4.5696 -1.17155,-6.89668z" fill="#cdd0e0"/></g><g stroke="none" stroke-width="0.5"><path d="M330.96771,213.56499c0.01419,1.977 -0.04941,3.9848 -0.17493,5.97741c-1.42466,-0.61161 -2.92254,-1.03166 -4.46437,-1.3216c0.34154,-3.3668 0.73922,-6.71182 0.46589,-10.065c1.38563,0.46397 2.56225,0.85463 3.94638,1.09479c-0.12452,1.4414 0.2164,2.83297 0.22704,4.3144z" fill="#b0c1ca"/><path d="M327.40987,208.54538c0,0 -0.00482,-0.07848 0.01866,-0.17826c0.37675,0.12437 0.74196,0.2419 1.10506,0.35084c0.15638,3.28972 -0.6044,6.57831 -0.63722,9.84914c-0.36309,-0.09299 -0.72931,-0.17723 -1.09826,-0.25356c0.08603,-3.24818 0.81245,-6.50336 0.61175,-9.76816z" fill="#c7d7e0"/><path d="M328.94883,210.72446c0.55403,0.0507 0.50332,0.60474 0.50332,0.60474l-0.0234,0.25573c-0.07761,0.84793 -0.16346,1.60658 -0.44407,2.41572c0,0 -0.18357,0.52521 -0.70877,0.34164c-0.52519,-0.18357 -0.34164,-0.70877 -0.34164,-0.70877c0.25418,-0.72077 0.31705,-1.39244 0.38639,-2.15l0.02341,-0.25573c0,0 0.05071,-0.55403 0.60475,-0.50333z" fill="#cdd0e0"/></g><path d="M336.39341,195.78928c0.05703,0.19959 0.0183,0.34599 -0.05266,0.45111l-0.03104,0.16689c0,1.00428 0,2.00856 0,3.01284c0,0.72347 0.03643,1.34894 -0.19197,2.05046c-0.46724,1.43508 -1.36648,2.25274 -2.49516,2.68755v0.14767c0,1.88327 0.49504,4.62498 -1.90119,5.0335c-0.46833,0.00107 -0.92542,-0.0222 -1.3775,-0.05732c-0.00553,0.05522 -0.01027,0.11027 -0.01424,0.16516c-1.45507,-0.10772 -2.69168,-0.3927 -4.20326,-0.78708c0,0 -0.21337,-0.05334 -0.28988,0.14017c-0.4022,-0.11575 -0.77605,-0.30044 -1.06794,-0.60545c-1.17175,-1.22439 -1.11708,-2.99635 -1.28606,-4.57128c-1.7658,-0.32363 -3.59285,-0.35032 -5.42555,-0.33968c0.02344,0.12856 0.00208,0.23537 0.00208,0.23537l-0.07403,0.35947c-0.22076,1.94277 -0.4986,3.60234 -2.50322,3.87566c0.01347,0.03934 0.02651,0.07872 0.03913,0.11814c-0.23454,0.01296 -0.47043,0.01479 -0.70573,0.01479c-1.46046,0 -3.34103,0.43575 -4.84535,0.04331c-0.00333,-0.04927 -0.00615,-0.09852 -0.00845,-0.14775c-0.36151,-0.06865 -0.70351,-0.16721 -1.01362,-0.30557c-0.03557,-0.02435 -0.07069,-0.04958 -0.10535,-0.07573c0,0 -0.06787,-0.0509 -0.15419,-0.05387c-0.38434,-0.21429 -0.70671,-0.50311 -0.93849,-0.88931c-0.78747,-1.31211 -0.48896,-3.16189 -0.48266,-4.63054c-1.63022,-1.63705 -1.41826,-5.0258 -1.1343,-7.04633c0,0 0.06413,-0.44892 0.48189,-0.47827c0.28606,-0.16467 0.58616,0.04969 0.58616,0.04969c2.1287,1.5205 5.04326,1.38896 7.57377,1.74952c1.28314,0.18283 2.59522,0.49586 3.89414,0.4909c4.9269,0 9.90589,0.21333 14.7507,-0.41803c0.61664,-0.13691 1.12832,-0.30473 1.69297,-0.58872l0.3697,-0.11181c0.09647,-0.08326 0.23807,-0.13918 0.44413,-0.10484c0.16286,0.02714 0.26933,0.09457 0.33854,0.17597c0.05311,0.05852 0.09835,0.13747 0.12861,0.24339z" fill="#b0c1ca" stroke="none" stroke-width="0.5"/><path d="M311.25236,207.97723c0.1635,0 0.27894,0.04805 0.36047,0.1159c-0.23622,0.0037 -0.47035,-0.00055 -0.70014,-0.01631c0.08003,-0.05911 0.18961,-0.09959 0.33967,-0.09959z" fill="#c7d7e0" stroke="none" stroke-width="0.5"/><path d="M327.39751,208.9082c0.26176,-0.04027 0.41808,0.06323 0.51004,0.18275c-0.21439,-0.04568 -0.43049,-0.09474 -0.6502,-0.14691c0.0414,-0.01557 0.08792,-0.0278 0.14016,-0.03584z" fill="#c7d7e0" stroke="none" stroke-width="0.5"/><path d="M308.41008,201.97703c0.27223,0.27223 0.1677,0.54447 0.07748,0.68634c-0.29094,1.7369 0.12009,2.98039 1.87637,3.60116c0,0 0.52286,0.19013 0.33273,0.71299c-0.19013,0.52286 -0.71299,0.33274 -0.71299,0.33274c-2.30751,-0.85762 -2.98383,-2.64049 -2.56574,-4.98798l0.20534,-0.34524c0,0 0.39341,-0.39341 0.78681,0z" fill="#c7d7e0" stroke="none" stroke-width="0.5"/><path d="M307.19491,195.29135c0.55635,0 0.55636,0.55635 0.55636,0.55635v0.20544c0,1.58566 0.35411,2.64881 0.89098,4.1241c0,0 0.19012,0.52286 -0.33273,0.71299c-0.52286,0.19013 -0.71299,-0.33274 -0.71299,-0.33274c-0.57556,-1.58401 -0.95798,-2.79844 -0.95798,-4.50437v-0.20544c0,0 0,-0.55635 0.55635,-0.55635z" fill="#c7d7e0" stroke="none" stroke-width="0.5"/><path d="M309.14326,200.79475c-0.4274,0.35617 -0.78358,-0.07124 -0.78358,-0.07124l-0.34295,-0.45034c-0.6492,-1.5633 -0.96626,-2.5944 -0.81091,-4.32179c0,0 0.05036,-0.55408 0.60444,-0.5037c0.55407,0.05037 0.5037,0.60444 0.5037,0.60444c-0.14587,1.58593 0.13265,2.36412 0.72988,3.79309l0.17065,0.16598c0,0 0.35617,0.4274 -0.07124,0.78357z" fill="#cdd0e0" stroke="none" stroke-width="0.5"/><path d="M311.15918,206.15775c-0.29487,0.47179 -0.76666,0.17692 -0.76666,0.17692l-0.30615,-0.20573c-1.72415,-0.63459 -1.71658,-1.62002 -1.85374,-3.2501c0,0 -0.0462,-0.55444 0.50823,-0.60064c0.55443,-0.0462 0.60063,0.50823 0.60063,0.50823c0.10024,1.2139 -0.12355,1.84929 1.12514,2.29679l0.51561,0.30787c0,0 0.4718,0.29487 0.17692,0.76666z" fill="#cdd0e0" stroke="none" stroke-width="0.5"/><path d="M327.24279,208.19158c0.3934,-0.39341 0.78681,0 0.78681,0l0.09712,0.10319c0.11984,0.15408 0.23968,0.30816 0.35952,0.46224c0,0 0.1714,0.22037 0.11526,0.47031c-0.46157,-0.08246 -0.92148,-0.18213 -1.39906,-0.29636c-0.08914,-0.11605 -0.27131,-0.42772 0.04036,-0.7394z" fill="#cdd0e0" stroke="none" stroke-width="0.5"/><path d="M328.20652,209.6401c-0.21645,0.0761 -0.39525,-0.01985 -0.49948,-0.10325c0.16739,0.036 0.33361,0.07049 0.49948,0.10325z" fill="#cdd0e0" stroke="none" stroke-width="0.5"/><path d="M324.041,202.6358c0.55635,0 0.55635,0.55636 0.55635,0.55636v0.10272c-0.00097,1.53089 0.60088,2.62614 1.36229,3.93118c0,0 0.28033,0.48056 -0.20024,0.7609c-0.48057,0.28034 -0.7609,-0.20023 -0.7609,-0.20023c-0.86185,-1.47773 -1.51283,-2.75105 -1.51387,-4.49185v-0.10272c0,0 0.00001,-0.55636 0.55636,-0.55636z" fill="#cdd0e0" stroke="none" stroke-width="0.5"/><g stroke="none" stroke-width="0.5"><path d="M316.84843,231.77899c0,0.59714 0,1.19428 0,1.79142l0.02269,-0.08595c0,0 0.08436,0.16872 0.05659,0.3588h0.09721c0.98274,0 3.43518,-0.40818 4.17967,0.37109c0.14981,0.15681 0.12326,1.29618 0.12238,1.56955c-0.00841,2.6041 -2.03424,2.38864 -4.01833,2.67208c-1.93061,0.00444 -3.72765,-0.18262 -5.61598,-0.32571c-0.6544,-0.04959 -1.7481,-0.19356 -2.22682,-0.73155c-1.18966,-1.33698 0.07312,-2.89598 1.43429,-3.2414l0.03625,-0.25362c0.07485,-0.59884 0.15945,-1.19596 0.23938,-1.79412c-0.59932,-4.00872 -0.29454,-8.28865 -0.24857,-12.38007c1.54897,0 3.09793,0 4.6469,0c0.31776,0 0.63569,-0.00128 0.95376,-0.00352c0.04153,4.04011 0.32057,8.02914 0.32057,12.053z" fill="#b0c1ca"/><path d="M312.12548,233.94821c-0.55635,0 -0.55636,-0.55635 -0.55636,-0.55635c0,-0.18832 0,-0.9416 0,-1.12992c0,-1.4368 0.25484,-2.84407 0.30864,-4.286c0.10282,-2.75574 -0.03624,-5.50437 -0.22594,-8.24639c0.3717,0 0.7434,0 1.11511,0c0.19186,2.75697 0.32448,5.52197 0.22259,8.29263c-0.05244,1.42595 -0.30768,2.82086 -0.30768,4.23976c0,0.18832 0,0.37664 0,0.56496v0.56496c0,0 0,0.55635 -0.55635,0.55635z" fill="#c7d7e0"/><path d="M313.10132,224.18981c-0.55635,0 -0.55636,-0.55635 -0.55636,-0.55635v-0.30817c0.00077,-1.2066 0.1955,-2.38885 0.20508,-3.59575c0.37085,0 0.74169,0 1.11254,0c-0.01167,1.20682 -0.20573,2.39047 -0.2049,3.59575v0.30817c0,0 0,0.55635 -0.55635,0.55635z" fill="#cdd0e0"/><path d="M312.79316,231.53426c-0.55635,0 -0.55636,-0.55636 -0.55636,-0.55636l0.00559,-0.28412c0.27896,-1.92473 0.34966,-3.88791 0.66965,-5.81646c0,0 0.09147,-0.54879 0.64025,-0.45732c0.54878,0.09146 0.45732,0.64025 0.45732,0.64025c-0.32135,1.91895 -0.39549,3.87437 -0.66571,5.79089l0.00559,0.12676c0,0 0,0.55636 -0.55635,0.55636z" fill="#cdd0e0"/><path d="M312.49361,233.2891c0,-0.30727 0.24908,-0.55636 0.55635,-0.55636c0.30727,0 0.55635,0.24909 0.55635,0.55636c0,0.30727 -0.24908,0.55635 -0.55635,0.55635c-0.30727,0 -0.55635,-0.24909 -0.55635,-0.55635z" fill="#cdd0e0"/></g><path d="M308.38819,194.85385c0,0 -1.62371,-19.46965 -2.38454,-30.82806c1.39199,0.4575 2.9552,0.69362 3.99742,1.05257c2.95968,0.96468 5.51357,1.76079 8.70302,1.74186c2.92843,0.73211 6.7028,0.11727 9.7236,0.11727c2.96922,0 5.9389,0.01493 8.90812,0.00074c-0.0002,0.01782 -0.00042,0.03564 -0.00065,0.05348c-0.05526,4.28593 -0.94731,9.08451 -1.15863,13.52263c-0.39713,8.34034 -0.19302,15.40772 -0.19302,15.40772z" fill="#ffbb00" stroke="none" stroke-width="0"/><path d="M337.5288,167.11004c-0.21726,-0.02414 -0.38709,-0.08622 -0.51976,-0.1704c0.34546,-0.00141 0.69091,-0.00319 1.03635,-0.00541c0.13678,-0.04445 0.27096,-0.0869 0.40314,-0.12731c-0.18242,0.19964 -0.46968,0.35313 -0.91972,0.30313z" fill="#c5d8e2" stroke="none" stroke-width="0.5"/><path d="M305.91826,164.41338c-1.0911,0.21822 -1.30933,-0.87288 -1.30933,-0.87288l-0.02315,-0.11851c0.55496,0.31346 1.20417,0.54971 1.87483,0.74493c-0.1292,0.11003 -0.30472,0.19896 -0.54233,0.24648z" fill="#c5d8e2" stroke="none" stroke-width="0.5"/><path d="M305.79292,165.94556c-1.11271,0 -1.11271,-1.11272 -1.11271,-1.11272l0.00552,-0.35779c-0.03522,-0.35209 -0.07042,-0.70419 -0.10563,-1.05628c0.67676,0.38334 1.49436,0.65141 2.32034,0.87006l0.00519,0.54401c0,0 0,1.11272 -1.11272,1.11272z" fill="#c5d8e2" stroke="none" stroke-width="0.5"/><path d="M307.66695,194.29054c-1.11271,0 -1.11271,-1.11271 -1.11271,-1.11271l0.00114,-1.2217c0.26887,-2.9473 0.89281,-5.63266 0.59002,-8.62344c0,0 -0.03292,-0.32922 0.11665,-0.64656c-0.17281,-0.63702 -0.33948,-1.25758 -0.34658,-1.30765c-0.2276,-1.60389 0.05443,-3.2618 -0.22847,-4.8812c-0.22143,-1.26754 -0.66413,-2.50145 -0.8255,-3.7849c-0.1701,-1.35287 -0.39036,-2.64086 -0.58387,-3.96981c-0.20316,-1.39519 0.20192,-2.02232 -0.47996,-3.29493c0,0 -0.49763,-0.99524 0.49761,-1.49286c0.08317,-0.04159 0.16287,-0.07275 0.23909,-0.09493c0.34987,0.13345 0.7167,0.24922 1.08828,0.3534c0.11033,0.12882 0.16549,0.23915 0.16549,0.23915c0.22445,0.47108 0.55264,0.90558 0.67334,1.41325c0.19691,0.82819 -0.11265,1.71256 0.01797,2.55375c0.39858,2.56694 0.95574,5.13152 1.4017,7.70615c0.28476,1.64407 0.00639,3.3357 0.24004,4.95753c0.11993,0.83249 0.45211,1.62028 0.67341,2.43173l0.23064,0.80698c0,0 0.27205,0.9522 -0.59545,1.31667c-0.07708,2.14664 -0.45151,4.21187 -0.65128,6.4185l0.00114,1.12086c0,0 0,1.11271 -1.11271,1.11271z" fill="#e3a500" stroke="none" stroke-width="0.5"/><path d="M336.33162,195.88339c-1.06579,0.31974 -1.38552,-0.74606 -1.38552,-0.74606l-0.3771,-1.27479c-0.30794,-2.99504 -0.1846,-6.37785 0.45591,-9.35592c-0.00862,-0.06986 -0.00861,-0.11339 -0.00861,-0.11339v-0.23426c0.00251,-2.02715 -0.56475,-3.86179 -0.46737,-5.90681c0.08917,-1.87268 0.56717,-3.52792 0.96166,-5.34135c0.43523,-2.00078 0.58238,-3.95714 0.74299,-5.96861c0.59729,-0.00156 1.19456,-0.00409 1.79182,-0.00793c0.15377,-0.04997 0.30425,-0.09741 0.4523,-0.14228c-0.18333,2.22596 -0.33406,4.38954 -0.81324,6.59513c-0.3677,1.69246 -0.82919,3.21891 -0.91237,4.96589c-0.08594,1.80469 0.36513,3.45549 0.45449,5.2329c0.21183,0.39187 0.09906,0.84294 0.09906,0.84294c-0.71149,2.77107 -0.849,6.1414 -0.57363,9.00126l0.32567,1.06776c0,0 0.31974,1.06579 -0.74605,1.38552z" fill="#e3a500" stroke="none" stroke-width="0.5"/><path d="M337.21225,193.67986c0.55206,0.9661 -0.41405,1.51817 -0.41405,1.51817l-0.70432,0.39257c-0.20077,0.15057 -2.1855,1.63959 -2.19573,1.64427c-1.56488,0.71604 -3.83136,0.33519 -5.49957,0.33519c-5.5147,0 -10.79078,-0.90427 -16.26356,-1.41003c-1.86723,-0.17256 -4.65295,0.67264 -5.82542,-1.45259c-0.28301,-0.51298 0.01062,-1.17168 0.01592,-1.75752c0,0 0.11072,-1.10719 1.21791,-0.99647c1.10719,0.11072 0.99647,1.21791 0.99647,1.21791c-0.07277,0.19502 -0.27453,0.38462 -0.21834,0.58504c0.12591,0.44905 0.92076,0.1725 1.38699,0.18384c1.36892,0.0333 2.6041,0.06581 3.96069,0.24272c4.91376,0.64081 9.77512,1.16167 14.72933,1.16167c1.23406,0 3.42638,0.4411 4.57343,-0.13332c0.6767,-0.33889 1.18118,-0.94694 1.78661,-1.40105l0.93546,-0.54445c0,0 0.96611,-0.55206 1.51817,0.41405z" fill="#c5d8e2" stroke="none" stroke-width="0.5"/><path d="M307.22628,171.82717c0,0.55635 -0.55636,0.55636 -0.55636,0.55636l-0.0633,-0.00164c-1.4002,0.1069 -2.73958,0.07648 -4.09959,-0.29635c-0.52443,-0.2418 -0.91524,-0.3392 -1.27185,-0.83758c-0.75099,-1.04958 -0.84688,-3.29414 -0.79059,-4.53269c0.00978,-0.21525 0.11731,-1.31115 0.18364,-1.42497c0.782,-1.34185 3.00887,-1.60835 4.34351,-1.48828c0,0 0.55407,0.05037 0.5037,0.60445c-0.05037,0.55408 -0.60444,0.5037 -0.60444,0.5037c-0.92251,-0.08481 -2.72467,0.01647 -3.28652,0.94909c-0.14254,0.2366 -0.02732,1.17987 -0.02774,1.46407c-0.00182,1.24349 0.09192,3.16565 1.32812,3.71561c1.20011,0.32513 2.40313,0.32914 3.63642,0.23351l0.14865,-0.00163c0,0 0.55636,0 0.55636,0.55635z" fill="#b0c1ca" stroke="none" stroke-width="0.5"/><path d="M337.47371,194.86047c-0.32766,0.51829 -0.06467,1.40789 -0.32354,1.96856c-0.44132,0.95586 -1.091,0.05067 -1.34279,-0.48242c-0.41787,-0.88469 0.44897,-3.66549 1.39278,-3.37161c0.0259,-0.06056 0.05832,-0.12177 0.09768,-0.18341l0.02913,-0.11468c0.41089,-1.55225 0.07147,-3.34948 0.17668,-4.94264c0.13638,-2.06527 0.20968,-3.95416 0.06725,-6.03968c0.78743,0.48557 1.67836,0.3932 2.61389,0.81747c-0.03154,1.04117 0.21009,2.07255 0.16194,3.1326c-0.10583,2.32994 -0.1447,4.54543 -0.62565,6.8348c0.38475,0.15573 0.64553,0.38255 0.58266,0.66249c0.15608,0.12809 0.29484,0.27809 0.39956,0.44128c0.29993,0.4674 1.22459,3.6515 -0.41976,2.59634c-0.03224,-0.02068 -0.06131,-0.04734 -0.08471,-0.07766c-0.38793,-0.50269 -0.60936,-1.04918 -0.86896,-1.54072c-0.03287,0.00957 -0.06759,0.01671 -0.10435,0.0211c-0.49664,0.05933 -0.99307,-0.03807 -1.37913,-0.23909c-0.12906,0.17593 -0.26562,0.34796 -0.37266,0.51728zM339.24529,184.31525c-0.0454,-0.70898 -0.16607,-1.31018 -0.15533,-1.97502c-0.1233,0.00772 -0.24751,-0.00251 -0.36944,-0.02832c0.08619,1.86288 0.00708,3.60985 -0.1061,5.48748c-0.08693,1.44213 0.11979,2.99394 -0.07669,4.44593c0.03158,0.00103 0.06345,0.00251 0.0955,0.0044c0.55267,-2.55658 0.77877,-5.33089 0.61205,-7.93446z" fill="#b0c1ca" stroke="none" stroke-width="0.5"/><path d="M338.53233,183.62388c-0.04548,0.00724 -0.08801,0.01093 -0.1267,0.01087c-0.66708,-0.00099 -1.37953,-0.66905 -1.49364,-1.30408c-0.10682,-0.59452 0.03213,-1.05219 0.31708,-1.38718c-0.11106,-0.55704 -0.23842,-1.07699 -0.2736,-1.66951c-0.60277,-3.56979 -0.04204,-7.48569 -1.26522,-10.89998c0,0 -0.18601,-0.52435 0.33833,-0.71034c0.52434,-0.186 0.71034,0.33834 0.71034,0.33834c1.23854,3.52199 0.71031,7.47746 1.32241,11.14886c0.02173,0.42174 0.09679,0.80132 0.1774,1.18743c0.18935,-0.05405 0.38857,-0.08967 0.59087,-0.10787c-0.16697,-0.70163 -0.19713,-1.37924 -0.27041,-2.11703c0.02205,-2.1399 -0.18977,-4.30611 -0.18066,-6.45283c0.0058,-1.36832 0.36508,-3.48331 -0.34422,-4.72622c0.00369,-0.00002 0.00739,-0.00005 0.01108,-0.00007c0.36964,-0.12011 0.72027,-0.22567 1.06382,-0.31576c0.65509,1.49431 0.38961,3.47402 0.382,5.04899c-0.01028,2.12772 0.19375,4.27387 0.17953,6.3952c0.07859,0.78083 0.08869,1.48051 0.33034,2.23329l0.00401,0.02163c0.30012,0.07426 0.57408,0.18805 0.79428,0.33745c0,0 0.11861,0.08454 0.19121,0.22779c-0.49168,1.13328 -0.28972,2.23393 -1.49863,3.01322c-0.32857,0.01265 -0.6855,-0.08089 -0.95967,-0.27216z" fill="#b0c1ca" stroke="none" stroke-width="0.5"/><path d="M338.18224,166.09178c0.31143,-0.18389 0.53995,-0.04579 0.66175,0.07338c-0.28588,0.0799 -0.57691,0.17161 -0.87869,0.27551c-0.01754,-0.00013 -0.03507,-0.00027 -0.05261,-0.0004c0.02409,-0.12065 0.09793,-0.24716 0.26955,-0.34849z" fill="#b0c1ca" stroke="none" stroke-width="0.5"/><path d="M328.33759,218.51036c0.55205,-0.06901 0.62107,0.48305 0.62107,0.48305l0.04919,0.39529c0.01109,0.07252 0.02323,0.14467 0.03627,0.21649c-0.38217,-0.07449 -0.76708,-0.13859 -1.15437,-0.1933l-0.03521,-0.28047c0,0 -0.06901,-0.55206 0.48305,-0.62107z" fill="#cdd0e0" stroke="none" stroke-width="0.5"/><path d="M310.93694,221.64244c-0.15736,-0.15736 0,-0.31472 0,-0.31472l0.20776,-0.1549c1.2413,-0.24293 2.63513,-0.00903 3.88786,-0.00145c0.41998,0.13619 1.04475,0.1899 1.38293,0.47758c0.05994,0.051 0.1333,0.14111 0.20531,0.24417c-0.10002,-0.42907 -0.18344,-1.00194 -0.24331,-1.40936l-0.09967,-0.13289c-0.02876,-0.0375 -0.04586,-0.08442 -0.04586,-0.13532c0,-0.12291 0.09964,-0.22254 0.22254,-0.22254c0.06145,0 0.11709,0.02491 0.15736,0.06518l0.2351,0.2351c0.18649,0.18685 0.32298,0.49767 0.38483,0.66245c-0.12261,-0.48868 0.18398,-1.09779 -0.11562,-1.5564c-0.05012,-0.06774 -0.12462,-0.12299 -0.15038,-0.20322c-0.3739,-1.16413 0.6359,-0.38305 0.98782,-0.07399c-0.0597,-0.13416 -0.10968,-0.33429 -0.11219,-0.34272c-0.07335,-0.24607 -0.15275,-0.51769 -0.35572,-0.69837c-0.33692,-0.29991 -1.47843,-0.56263 -1.89947,-0.55922c-1.66703,-0.32764 -3.49773,0.07735 -5.1173,-0.38363c0,0 -0.21398,-0.06114 -0.15284,-0.27512c0.06113,-0.21398 0.27511,-0.15285 0.27511,-0.15285c1.58954,0.45601 3.3994,0.03341 5.03889,0.36867c1.11975,0.00806 2.86433,0.71941 2.7856,2.08031c-0.05345,0.92396 -0.60789,0.42507 -0.89321,0.08014c0.15528,0.44822 0.45439,2.09668 0.0761,2.25132c-0.15165,0.06199 -0.31023,-0.01883 -0.46064,-0.15496c0.15801,0.58647 0.23002,1.25447 0.05291,1.41894c-0.12436,0.11548 -0.33504,0.1594 -0.49724,0.10944c-0.24555,-0.07563 -0.37384,-0.69914 -0.57623,-0.88461c-0.24708,-0.22642 -0.83505,-0.25785 -1.15612,-0.36877c-1.19759,0.00799 -2.54458,-0.24452 -3.72928,-0.00144l0.01967,0.03318c0,0 -0.15736,0.15736 -0.31472,0z" fill="#6b767b" stroke="none" stroke-width="0.5"/><path d="M310.49562,217.01825c0,-0.12291 0.09963,-0.22254 0.22254,-0.22254c0.12291,0 0.22254,0.09964 0.22254,0.22254c0,0.12291 -0.09964,0.22254 -0.22254,0.22254c-0.12291,0 -0.22254,-0.09964 -0.22254,-0.22254z" fill="#6b767b" stroke="none" stroke-width="0.5"/><path d="M310.94187,221.73869c-0.20663,0.08265 -0.28927,-0.12398 -0.28927,-0.12398l-0.10594,-0.27567c0.01127,-0.52916 0.23571,-0.75005 0.2345,-1.31164c0.89565,-0.18623 -0.01299,-0.52132 -0.16801,-0.93487c-0.105,-0.28011 0.82952,-2.12645 -0.17711,-2.03987c0,0 -0.22254,0 -0.22254,-0.22254c0,-0.22254 0.22254,-0.22255 0.22254,-0.22255c0.94563,0.04361 0.99692,1.07169 0.82948,1.81783c-0.03888,0.17326 -0.3926,0.35676 -0.25427,0.46809c0.31463,0.25319 0.94109,1.85034 0.11411,1.41609c0.45016,0.24341 -0.1589,0.65961 -0.14165,0.94529l0.08213,0.19453c0,0 0.08265,0.20663 -0.12398,0.28928z" fill="#6b767b" stroke="none" stroke-width="0.5"/><path d="M310.75317,220.99891c0,0 -0.04702,-1.85622 -0.04702,-2.63309c0,-0.63719 0.18807,-1.73972 0.18807,-1.73972c0,0 4.83867,0.20089 6.006,0.51638c0.49123,0.13277 0.95287,1.3644 0.95287,1.3644c0,0 -0.88606,0.87989 -0.76709,1.68093c0.11606,0.78146 -0.69051,1.18725 -0.69051,1.18725c0,0 -1.80682,-0.58751 -2.7215,-0.64849c-0.96354,-0.06423 -2.92082,0.27234 -2.92082,0.27234z" fill="#606a6e" stroke="none" stroke-width="0"/><path d="M311.06649,218.05961c-0.05397,-0.2159 0.16192,-0.26988 0.16192,-0.26988l0.24205,-0.05366c0.31346,0 0.62693,0 0.94039,0c1.57422,0 2.97603,0.59079 4.51049,0.89768c0,0 0.21822,0.04365 0.17458,0.26187c-0.04364,0.21822 -0.26187,0.17458 -0.26187,0.17458c-1.50516,-0.30104 -2.88214,-0.88905 -4.42319,-0.88905c-0.31346,0 -0.62693,0 -0.94039,0l-0.1341,0.04037c0,0 -0.2159,0.05398 -0.26987,-0.16192z" fill="#303537" stroke="none" stroke-width="0.5"/><path d="M310.73071,219.65131c0,-0.22254 0.22254,-0.22254 0.22254,-0.22254l0.05039,0.00432c0.32175,-0.06435 0.62092,-0.17001 0.94039,-0.2351c1.37661,-0.2694 3.48508,0.0526 4.59699,0.88654c0,0 0.17804,0.13352 0.04451,0.31156c-0.13353,0.17803 -0.31156,0.04451 -0.31156,0.04451c-1.00266,-0.752 -2.99585,-1.06198 -4.24265,-0.80616c-0.31827,0.06225 -0.61935,0.17088 -0.94038,0.2351l-0.13769,0.00432c0,0 -0.22254,0 -0.22254,-0.22254z" fill="#303537" stroke="none" stroke-width="0.5"/><g stroke="none"><path d="M324.4734,221.2343c-0.06743,-0.21208 0.14466,-0.27952 0.14466,-0.27952l0.25571,-0.04209c1.21408,0.35476 2.34447,1.2031 3.45357,1.7856c0.3104,0.31398 0.84059,0.64882 1.00871,1.05975c0.02979,0.07285 0.05354,0.1866 0.07013,0.31122c0.10838,-0.42704 0.29757,-0.97415 0.43166,-1.36351l-0.02744,-0.16382c-0.00831,-0.04652 -0.00193,-0.09605 0.02146,-0.14126c0.05649,-0.10916 0.19077,-0.15185 0.29992,-0.09537c0.05457,0.02824 0.09254,0.07595 0.1098,0.13022l0.10075,0.31685c0.07975,0.25166 0.05811,0.59044 0.03731,0.76521c0.11571,-0.49036 0.66795,-0.8904 0.61265,-1.43541c-0.01338,-0.0832 -0.05415,-0.16651 -0.04015,-0.24961c0.20297,-1.20574 0.74081,-0.04793 0.91131,0.3883c0.00864,-0.14659 0.05624,-0.3473 0.05788,-0.35594c0.04795,-0.25225 0.10227,-0.52998 0.00505,-0.78373c-0.16138,-0.4212 -1.05445,-1.17917 -1.42995,-1.36967c-1.32995,-1.05716 -3.14196,-1.53888 -4.36847,-2.69266c0,0 -0.16194,-0.15265 -0.00931,-0.31458c0.15264,-0.16195 0.31459,-0.00931 0.31459,-0.00931c1.20212,1.13555 3.00373,1.59207 4.30571,2.64333c0.99077,0.5218 2.21324,1.95538 1.51783,3.12784c-0.47213,0.79602 -0.73524,0.09812 -0.83011,-0.33935c-0.06809,0.46944 -0.56009,2.07095 -0.96713,2.03442c-0.16318,-0.01464 -0.26687,-0.15931 -0.33789,-0.34933c-0.12921,0.59348 -0.37227,1.21983 -0.60516,1.2845c-0.16352,0.04541 -0.37082,-0.01242 -0.4919,-0.13133c-0.18332,-0.18003 -0.01069,-0.79274 -0.1052,-1.05047c-0.11537,-0.31465 -0.62313,-0.6128 -0.8573,-0.85887c-1.06728,-0.54332 -2.1475,-1.38667 -3.31139,-1.71528l0.00222,0.03851c0,0 -0.21208,0.06744 -0.27951,-0.14464z" fill="#6b767b" stroke-width="0.5"/><path d="M324.68694,221.06175c0,0 0.81137,-1.67016 1.16842,-2.36011c0.29285,-0.56591 0.96662,-1.45864 0.96662,-1.45864c0,0 4.20501,2.40228 5.09673,3.21899c0.37525,0.34369 0.21918,1.6497 0.21918,1.6497c0,0 -1.19133,0.37421 -1.45384,1.14031c-0.25608,0.74738 -1.15892,0.73706 -1.15892,0.73706c0,0 -1.33466,-1.3522 -2.11898,-1.82675c-0.82623,-0.49989 -2.71922,-1.10057 -2.71922,-1.10057z" fill="#606a6e" stroke-width="0"/><path d="M326.23513,218.11182c0.0513,-0.21655 0.26785,-0.16527 0.26785,-0.16527l0.23963,0.06359c0.27839,0.14407 0.55678,0.28814 0.83518,0.43221c1.3981,0.72352 2.37155,1.89251 3.59329,2.87031c0,0 0.17375,0.13905 0.03468,0.31281c-0.13905,0.17375 -0.31281,0.03469 -0.31281,0.03469c-1.19841,-0.95914 -2.15109,-2.11424 -3.51973,-2.82251c-0.27839,-0.14407 -0.55678,-0.28814 -0.83518,-0.4322l-0.13766,-0.02578c0,0 -0.21655,-0.05129 -0.16526,-0.26783z" fill="#303537" stroke-width="0.5"/><path d="M325.20536,219.37112c0.10228,-0.19765 0.29992,-0.09537 0.29992,-0.09537l0.04277,0.027c0.31533,0.09073 0.62959,0.13439 0.94323,0.22341c1.34642,0.39343 3.07101,1.64847 3.67524,2.90014c0,0 0.09674,0.20042 -0.10366,0.29716c-0.20042,0.09674 -0.29716,-0.10366 -0.29716,-0.10366c-0.54487,-1.12869 -2.17259,-2.32008 -3.39747,-2.66592c-0.31127,-0.091 -0.6286,-0.13288 -0.94324,-0.22341l-0.12427,-0.05944c0,0 -0.19764,-0.10228 -0.09536,-0.29993z" fill="#303537" stroke-width="0.5"/></g><path d="M305.46977,196.64771c-0.17361,-0.2755 -0.17361,-0.58685 -0.17361,-0.58685v-0.48856c0.00087,-1.29442 -0.2196,-3.18255 1.18778,-3.98116c1.15463,-0.65518 3.4435,0.57776 4.64298,0.79895c4.12583,0.76081 8.22574,1.52935 12.43343,1.52935c2.83322,0 5.53193,-0.17386 8.33437,-0.56097c0.80241,-0.11084 3.09131,-0.80843 3.8124,-0.54515c2.02823,0.74054 2.01613,4.40781 0.70231,5.82024c-0.24783,0.26642 -2.0132,0.77205 -2.4575,0.90874c-2.19182,0.67428 -4.12051,0.77713 -6.40161,0.77713c-3.36271,0 -6.86554,0.28099 -10.20898,-0.08769c-3.81466,-0.42065 -7.6692,-1.53719 -11.24037,-2.91046c0,0 -0.5087,-0.19566 -0.6312,-0.67356z" fill="#606a6e" stroke="none" stroke-width="0.5"/><g stroke="none" stroke-width="0.5"><path d="M302.2464,175.85587c-0.00471,-0.22249 0.21779,-0.2272 0.21779,-0.2272c0.26718,-0.00565 0.62342,-0.01319 0.8906,-0.01884c1.79095,-0.03391 2.84437,-1.19185 3.67365,-2.64268c0,0 0.11044,-0.19321 0.30365,-0.08277c0.19321,0.11043 0.08277,0.30364 0.08277,0.30364c-0.90879,1.58997 -2.1073,2.82184 -4.05065,2.8668c-0.26718,0.00565 -0.53437,0.0113 -0.80156,0.01696l-0.08906,0.00189c0,0 -0.22249,0.00471 -0.2272,-0.21779z" fill="#3a53e0"/><path d="M307.90909,172.76276c0.21256,0.06589 0.14667,0.27846 0.14667,0.27846l-0.04791,0.15197c-0.18816,0.45227 -0.48579,0.80287 -0.82464,1.15637c-1.15343,1.20329 -2.98177,2.47692 -4.69265,2.52566c0,0 -0.22249,0.00471 -0.2272,-0.21779c-0.00471,-0.22249 0.21779,-0.2272 0.21779,-0.2272c1.57761,-0.01924 3.32238,-1.28454 4.38075,-2.38867c0.29445,-0.30718 0.57937,-0.61855 0.73324,-1.01501l0.03549,-0.11711c0,0 0.06589,-0.21257 0.27846,-0.14668z" fill="#3ae054"/><path d="M305.93315,173.72151c0.18774,0.1195 0.06823,0.30724 0.06823,0.30724l-0.18515,0.28887c-0.33297,0.32712 -0.81535,0.39164 -1.25984,0.23116c-0.20598,-0.07437 -0.40583,-0.47683 -0.56818,-0.32985c-0.13805,0.12499 0.15394,0.608 0.10114,0.77142c-0.22322,0.69085 -0.88501,0.33261 -1.3182,0.44896c0,0 -0.21725,0.04826 -0.2655,-0.16899c-0.04825,-0.21725 0.16899,-0.26551 0.16899,-0.26551c0.18363,-0.03576 0.90451,0.1732 0.98609,-0.1344c0.09869,-0.37214 -0.44754,-0.61941 0.06346,-1.00979c0.54113,-0.41342 1.24513,0.77251 1.74195,0.18217l0.15978,-0.25303c0,0 0.1195,-0.18774 0.30724,-0.06824z" fill="#e03a3a"/></g><path d="M339.02044,165.17493c0,0.29247 -0.00669,1.77101 -1.13643,2.01529c-2.7178,0.58766 -9.26352,0.3035 -15.69627,0.3035c-9.10672,0 -16.14566,-1.32274 -16.14566,-2.31879c0,-0.39774 -2.02903,-2.65481 -0.03491,-2.953c2.99962,-0.44855 11.85545,-1.42694 17.32564,-1.42694c9.10672,0 15.68762,3.38389 15.68762,4.37994z" fill="#ffbb00" stroke="none" stroke-width="0"/><path d="M307.09148,167.48872c1.69752,4.50185 -4.3459,6.52142 -5.88492,2.31297c-1.02594,-2.80543 0.17852,-5.4545 2.06283,-5.52148c0.15751,-0.02946 0.32035,-0.0449 0.48699,-0.0449c1.21292,0 2.2241,0.81812 2.45195,1.90353c0.2613,0.34596 0.52192,0.7453 0.7792,1.20221z" fill="#a1b9c7" stroke="none" stroke-width="0.5"/><path d="M296.6391,236.72635v-111.84076h47.29829v111.84077z" fill="none" stroke-opacity="0.01176" stroke="#ffffff" stroke-width="0.5"/><path d="M296.6391,236.72635v-111.84076h47.29829v111.84077z" fill="none" stroke-opacity="0.01176" stroke="#ffffff" stroke-width="0.5"/><path d="M313.72137,161.55657c0.42912,-0.05998 0.8747,-0.04188 1.34189,-0.02503c0.90703,-0.21419 1.81457,-0.43736 2.74707,-0.56898c4.465,-0.00782 8.4466,0.36606 12.79253,1.07804c0.80147,0.13612 2.6593,0.07624 3.10171,0.96607c0.38534,0.77503 -0.41795,2.38608 -0.54795,3.13165c-0.49067,2.81393 -2.34949,4.42986 -4.48642,6.25695c-1.63281,1.00282 -2.93961,2.43341 -4.80172,3.08763c-2.63249,0.92487 -5.55162,-1.23 -7.2943,-2.98898c-1.65255,-2.72702 -4.77702,-6.90558 -4.78586,-10.15512c0,0 0,-0.28229 0.21211,-0.42265c0.05728,-0.21303 0.25177,-0.36985 0.48289,-0.36985h0.68249c0.20999,0 0.39097,0.00263 0.55555,0.01027z" fill="#ffffff" stroke="none" stroke-width="0.5"/><path d="M310.24084,174.62369c0,0 9.28276,2.53498 12.38239,2.53498c3.26202,0 9.06742,-2.33998 9.06742,-2.33998c0,0 -5.57145,4.33327 -8.86988,4.30328c-3.78448,-0.0344 -12.57993,-4.49828 -12.57993,-4.49828z" fill="#e3a500" stroke="none" stroke-width="0"/><path d="M310.17089,178.6487c0,0 9.28276,2.53498 12.38239,2.53498c3.26202,0 9.06742,-2.33998 9.06742,-2.33998c0,0 -5.57145,4.33327 -8.86988,4.30328c-3.78448,-0.0344 -12.57993,-4.49828 -12.57993,-4.49828z" fill="#e3a500" stroke="none" stroke-width="0"/><path d="M310.88093,183.0637c0,0 9.28276,2.53498 12.38239,2.53498c3.26202,0 9.06742,-2.33998 9.06742,-2.33998c0,0 -5.57145,4.33327 -8.86988,4.30328c-3.78448,-0.0344 -12.57993,-4.49828 -12.57993,-4.49828z" fill="#e3a500" stroke="none" stroke-width="0"/><path d="M311.20097,186.79622c0,0 9.28276,2.53498 12.38239,2.53498c3.26202,0 9.06742,-2.33998 9.06742,-2.33998c0,0 -5.57145,4.33327 -8.86988,4.30328c-3.78448,-0.0344 -12.57993,-4.49828 -12.57993,-4.49828z" fill="#e3a500" stroke="none" stroke-width="0"/></g></g></svg>