<svg version="1.1" xmlns="http://www.w3.org/2000/svg" xmlns:xlink="http://www.w3.org/1999/xlink" width="70.54177" height="76.46554" viewBox="0,0,70.54177,76.46554"><g transform="translate(-285.34469,-144.3817)"><g data-paper-data="{&quot;isPaintingLayer&quot;:true}" fill-rule="nonzero" stroke="none" stroke-linecap="butt" stroke-linejoin="miter" stroke-miterlimit="10" stroke-dasharray="" stroke-dashoffset="0" style="mix-blend-mode: normal"><path d="M289.7644,212.78202v-60.81093h60.81093v60.81093z" fill="#47b40e" stroke-width="0"/><path d="M338.04695,201.47216c-0.9374,0 -1.17183,-0.70298 -1.23045,-1.05458c-0.90406,-1.7068 -3.51847,-1.31766 -4.4075,-3.6591c-1.5682,-4.13019 1.23372,-11.06055 -4.8455,-11.82994c0,0 -1.23903,-0.1652 -1.07383,-1.40424c0.1652,-1.23903 1.40424,-1.07383 1.40424,-1.07383c1.35291,0.18802 2.59084,0.18556 3.75254,1.06125c3.66508,2.76274 2.09006,8.73824 3.12724,12.43542c0.34029,1.21302 2.7105,1.21936 3.37772,1.79695c0.52101,0.45102 0.67572,1.20119 1.01358,1.80179l0.13197,0.67627c0,0 0,1.25 -1.25,1.25z" fill="#337f0a" stroke-width="0.5"/><path d="M326.12925,187.4293c0.59857,1.09737 -0.4988,1.69593 -0.4988,1.69593l-1.23238,0.6702c-1.36311,0.94216 -4.11114,2.57994 -4.61234,4.31825c-0.3732,1.29436 0.2582,2.93111 -0.10703,4.29993c-0.81245,3.04487 -3.31243,6.20423 -6.00803,7.71328c0,0 -1.09737,0.59857 -1.69593,-0.4988c-0.59857,-1.09737 0.4988,-1.69593 0.4988,-1.69593c2.09996,-1.10551 4.14436,-3.79336 4.77923,-6.12255c0.37869,-1.38936 -0.30583,-3.0185 0.12747,-4.37678c0.78595,-2.46375 3.70976,-4.38164 5.70591,-5.7655l1.34718,-0.73683c0,0 1.09737,-0.59857 1.69593,0.4988z" fill="#4fc410" stroke-width="0.5"/><path d="M302.62595,206.72426c-1.22573,-0.24515 -0.98058,-1.47087 -0.98058,-1.47087l0.21023,-0.92738c0,-1.26782 0.67264,-4.26002 0.10293,-5.36593c-0.51076,-0.99146 -1.27009,-1.978 -1.27534,-3.09328c-0.00933,-1.98003 1.34351,-2.47913 1.96352,-4.07751c0.21002,-0.54143 0.16112,-1.95663 0.14746,-2.43493c-0.10358,-3.62618 -1.73221,-3.00782 -4.84769,-3.00782c0,0 -1.25,0 -1.25,-1.25c0,-1.25 1.25,-1.25 1.25,-1.25c1.33534,0 3.33266,-0.2811 4.60454,0.17752c3.13439,1.13019 3.45227,5.94615 2.42051,8.68458c-0.45416,1.20541 -1.77485,1.83367 -1.78857,3.19217c-0.00783,0.77542 0.7763,1.34804 1.06972,2.06585c0.70031,1.71322 0.10293,4.53388 0.10293,6.35936l-0.25878,1.41767c0,0 -0.24515,1.22573 -1.47087,0.98058z" fill="#56d611" stroke-width="0.5"/><path d="M333.5746,193.2509c0.44713,4.76933 -0.31842,10.02573 -6.01813,11.31854c-3.6522,0.82839 -8.75804,-1.6103 -7.79821,-5.92955c1.01906,-4.58578 6.64677,-12.07508 11.23079,-12.99188c0.17418,-0.03842 0.35518,-0.05867 0.54091,-0.05867c0.57568,0 1.10592,0.19458 1.52852,0.52156c0.08965,0.0644 0.16713,0.13287 0.23349,0.20494c0.45579,0.45286 0.73799,1.08022 0.73799,1.7735c0,1.10844 -0.72137,2.04839 -1.72025,2.376c-0.36814,0.951 1.1697,1.77025 1.26489,2.78556z" fill="#2e7109" stroke-width="0.5"/><path d="M302.48833,191.50154c4.71823,2.35912 7.93211,7.0737 11.28349,10.99548c1.51667,1.77481 3.00341,4.07274 0.89103,6.00349c-1.38758,1.26827 -13.82389,-3.35466 -15.30195,-3.84633c-6.43824,-2.14162 -14.74438,-17.44926 -1.17762,-14.3909c1.35832,0.30621 2.84402,0.47639 4.07657,1.18747z" fill="#398d0b" stroke-width="0.5"/><path d="M311.41468,155.3231c4.4712,-0.5693 10.38272,-5.03397 14.59706,-3.98039c2.02954,0.50739 2.79483,3.16356 2.66335,5.57392c7.3561,-5.31322 10.84204,11.78351 12.30238,15.4819c0.60664,1.53633 3.12952,5.11619 -0.24506,5.53801c0.00763,0.07952 0.01153,0.16014 0.01153,0.24166c0,1.38071 -1.11929,2.5 -2.5,2.5c-0.16835,0 -0.33282,-0.01664 -0.49185,-0.04837c-2.29543,0.22594 -4.66304,-2.54452 -6.3455,-4.84371c-2.73098,-3.73206 -6.49371,-8.94339 -5.99491,-13.55147c-2.98532,1.74612 -7.27719,2.23169 -10.14093,1.51576c-1.02182,-0.25546 -1.51388,-2.04127 -1.58707,-2.88678c-0.02491,-0.28781 0.45607,-0.87386 0.16816,-0.85018c-3.02505,0.24873 -6.3966,2.34474 -9.16547,2.43828c-0.03942,0.00185 -0.07908,0.00278 -0.11895,0.00278c-1.38071,0 -2.5,-1.11929 -2.5,-2.5c0,-1.00665 0.59497,-1.87434 1.45243,-2.2706c2.01956,-1.68201 5.53115,-2.05987 7.89481,-2.36083z" fill="#398d0b" stroke-width="0.5"/><path d="M327.33716,163.28752c0,1.25 -1.25,1.25 -1.25,1.25h-0.46901c-2.42489,0 -4.98568,0.2313 -5.89476,-2.67513c-0.24265,-0.77578 0.79654,-1.93282 0.15622,-2.43353c-0.65087,-0.50896 -1.62298,0.32228 -2.4445,0.41046c-2.13076,0.22873 -4.23772,0.82195 -6.32892,1.27012c0,0 -1.22225,0.26191 -1.48416,-0.96034c-0.26191,-1.22225 0.96034,-1.48416 0.96034,-1.48416c2.75598,-0.5905 5.70075,-1.54917 8.54786,-1.43417c0.79806,0.03224 1.77755,-0.22691 2.37721,0.30068c1.59729,1.40536 -0.27063,3.11592 0.97342,4.25266c0.64737,0.59152 2.42394,0.25342 3.13728,0.25342h0.46901c0,0 1.25,0 1.25,1.25z" fill="#225507" stroke-width="0.5"/><path d="M293.44214,149.14577c0.08922,-1.60603 3.9845,-2.04142 4.8328,-1.85291c0.75462,0.16769 1.25134,1.92124 1.8365,1.41611c1.75936,-1.51872 5.67782,-7.59994 7.73983,-2.00694c0.76988,2.08822 -1.74404,3.74638 -3.07478,4.93745c-1.56387,1.39973 -3.50963,3.65216 -5.2831,4.65304c-1.08109,0.61012 -1.94342,-0.13464 -2.79303,-0.57446c-0.09874,0.01186 -0.19925,0.01796 -0.30118,0.01796c-0.37037,0 -0.72193,-0.08054 -1.03812,-0.22506c-0.15532,0.05608 -0.3051,0.10735 -0.44952,0.15399c0.51376,0.45787 0.83731,1.12464 0.83731,1.86697c0,0.09767 -0.0056,0.19403 -0.0165,0.28878c3.02606,3.93917 4.14552,8.28868 1.05827,14.2355c-0.10813,0.20828 3.41282,4.15414 0.93688,6.63008c-4.60951,4.60951 -3.73133,-2.50192 -4.95849,-3.64193c-1.34925,-1.25343 -3.63563,2.63183 -6.01342,1.00936c-1.7524,-1.19574 -0.65959,-3.96123 -0.73223,-5.63882c-0.10106,-2.33383 -1.06656,-5.85203 -0.50347,-8.10441c0.39156,-1.56625 2.85023,-2.80749 3.88906,-3.90142c0.26223,-0.27613 1.20795,-2.04345 2.21495,-2.92658c-0.78847,-1.15042 0.41653,-3.80072 1.05692,-5.32164z" fill="#41a00d" stroke-width="0.5"/><path d="M305.07156,186.2399c0.19674,3.54133 -2.60812,2.66846 -4.69325,4.29451c-0.41507,0.32368 -0.41635,1.54163 -0.97415,2.0191c-1.08401,0.92787 -3.22419,1.25818 -3.33747,2.68057c-0.54912,6.89469 -5.35463,8.7527 -8.97712,2.53799c-0.59941,-1.02834 -1.32061,-0.76066 -1.56434,-2.25943c-0.57372,-3.52796 1.08777,-4.77534 2.01261,-7.66217c0.33949,-1.05971 -0.08433,-2.27184 0.27321,-3.34447c0.514,-1.54201 1.9627,-1.95219 3.30557,-2.57702c1.03513,-0.48164 5.5312,-2.59734 6.40822,-1.06256l1.23117,2.15454c0,0.33805 -0.06709,0.66042 -0.18869,0.95454c-0.12398,2.93319 6.26933,-1.96428 6.50426,2.26441z" fill="#41a00d" stroke-width="0.5"/><path d="M302.33096,204.34018c3.86657,0.77331 4.54634,3.9675 6.96472,5.80386c0.71823,0.54538 2.32124,-0.61778 3.75178,0.87496c0.88104,0.91935 -0.45344,3.67041 -1.65101,4.09409c-3.42962,1.21333 -7.02565,-0.42078 -10.53411,0.19281c-4.8717,0.852 -6.41104,5.64178 -12.58661,2.69463c-2.42588,-1.1577 -0.97667,-6.46109 0.0611,-8.06026c0.74315,-1.14516 1.86416,-3.42666 3.19603,-4.02917c1.46114,-0.66099 2.76941,-0.0223 4.17478,-0.3307c2.73967,-0.60119 3.16066,-2.03186 6.37458,-1.22838z" fill="#41a00d" stroke-width="0.5"/><path d="M322.13208,207.05316c2.66796,2.82733 4.61054,10.49187 -0.00055,12.95112c-7.26859,3.87658 -6.32267,-6.64408 -4.27474,-10.73993c-0.0287,-0.15159 -0.04372,-0.30802 -0.04372,-0.46796c0,-1.38071 1.11929,-2.5 2.5,-2.5c0.07089,0 0.1411,0.00295 0.2105,0.00874c0.55558,0.00637 1.11921,0.2295 1.60852,0.74804z" fill="#41a00d" stroke-width="0.5"/><path d="M316.67244,152.64612c1.5204,0.0724 7.52534,3.16603 6.50203,5.22331c-1.09011,2.19157 -4.14087,2.00432 -5.60408,3.61411c-1.65541,1.82124 -2.43334,4.57504 -4.79495,6.39513c-0.81055,0.62469 -1.778,1.16924 -2.79585,1.50267c0.69741,0.07679 1.39408,0.21394 2.07171,0.40452c5.39252,1.51665 3.23702,14.01352 -1.37672,12.86009l-0.06876,0.02456c-1.08453,-0.54226 -2.25045,0.9909 -3.67077,0.51075c-0.8205,-0.27738 -4.45612,-4.02146 -5.27713,-4.92457c-1.08568,-1.19424 -0.31735,-3.64168 0.20806,-4.93573c0.86824,-2.13842 2.62919,-3.32619 4.6929,-3.78592c-0.08057,-0.02374 -0.16071,-0.0498 -0.24034,-0.07824c-1.59297,-0.56892 -1.67604,-1.56293 -2.07091,-2.83233c-0.10349,-0.10098 -0.19826,-0.21085 -0.28306,-0.3284c-0.65698,0.34863 -0.91597,3.75062 -2.96449,2.58003c-3.03645,-1.73512 -2.23607,-3.44347 -2.06097,-7.30361c0.35284,-7.7784 10.84412,-10.53341 17.47717,-8.87514z" fill="#41a00d" stroke-width="0.5"/><path d="M340.28308,156.81593c0.12087,0.96697 -7.01633,7.61261 -7.10984,7.67755c-0.60806,0.42225 -1.44944,0.45392 -2.13272,0.6608c-0.08212,0.02486 -0.19789,0.03713 -0.32675,0.04297c-0.25303,0.08619 -0.52431,0.13295 -0.80651,0.13295c-0.03199,0 -0.06384,-0.0006 -0.09554,-0.00179c2.62488,1.72628 -0.33824,5.63844 -2.29354,6.64514c-2.8383,1.46131 -5.7576,0.38109 -5.76527,-2.3567c-0.42908,0.14659 -0.78954,0.25605 -1.03779,0.31811c-2.94654,0.73663 -7.36278,-2.70777 -4.63013,-5.62757c1.65502,-1.76836 5.39449,-0.00684 6.42199,-1.20168c1.12614,-1.30955 1.15947,-3.8227 2.01388,-5.40305c1.43387,-2.65215 5.75599,-4.55768 8.41479,-5.6212c0.30123,-0.12865 0.63286,-0.19986 0.98112,-0.19986c1.38071,0 2.5,1.11929 2.5,2.5c0,0.06088 -0.00218,0.12125 -0.00645,0.18104c1.939,-0.60899 3.55445,-0.29323 3.87277,2.25331z" fill="#41a00d" stroke-width="0.5"/><path d="M349.03697,156.15354c-0.9593,3.83719 -5.07272,5.6885 -6.88352,9.26373c-0.80572,1.59081 1.13269,2.71539 -1.12206,4.21855c-0.69877,0.46585 -1.68998,0.33805 -2.51349,0.17334c-2.03876,-0.40775 -1.78253,-3.92022 -1.44419,-5.27357c0.97708,-3.90833 5.29382,-5.75133 6.81211,-8.81224c0.33476,-0.67489 -0.21233,-1.50005 -0.07493,-2.00384c-0.0517,-0.20027 -0.0792,-0.41027 -0.0792,-0.6267c0,-1.38071 1.11929,-2.5 2.5,-2.5c0.61384,0 1.17601,0.22123 1.61112,0.58831c1.3152,0.40128 1.8692,2.27222 1.19416,4.97242z" fill="#41a00d" stroke-width="0.5"/><path d="M348.66604,161.04618c0.63268,0.36153 1.50434,0.48569 1.99291,0.99036c0.07451,0.07697 0.14011,0.16278 0.19459,0.25964c0.8493,1.50985 0.20448,3.32404 1.29362,4.82867c1.15804,1.59982 4.53875,2.79269 3.56557,5.22563c-1.55058,3.87644 -2.66662,0.19072 -4.32506,0.96256c-1.0124,0.47117 -1.78935,1.81039 -2.89837,1.6799c-5.19037,-0.61071 -4.35575,-5.26562 -2.07186,-8.33206c0.51236,-0.68791 -1.20425,-3.64164 0.09407,-4.38353z" fill="#41a00d" stroke-width="0.5"/><path d="M353.3289,184.52154c0.40065,1.91161 -0.32845,5.12792 -0.71598,6.73623c-0.8492,3.52428 -4.54682,5.90769 -7.97243,3.18054c-2.80264,-2.2312 -0.11807,-7.26455 0.44037,-9.94055c0.05016,-0.24039 -0.74939,-1.58487 -0.77638,-2.04958c-0.04153,-0.71525 -0.07529,-3.16537 0.86812,-3.61714c1.0221,-0.48945 3.38477,-3.62307 4.57042,-3.15375c0.11596,-0.01648 0.23448,-0.02501 0.35499,-0.02501c1.38071,0 2.5,1.11929 2.5,2.5c0,0.34498 -0.06988,0.67365 -0.19625,0.97261c-0.15272,0.3613 -0.38796,0.67923 -0.6821,0.93015c-0.53453,0.98223 1.40661,3.49976 1.60924,4.46652z" fill="#41a00d" stroke-width="0.5"/><path d="M348.09325,200.85491c0.92876,0.53072 1.69919,1.03056 2.34782,1.6391c0.48753,0.45739 0.90624,0.97619 1.27165,1.61565c0.7933,1.38827 -0.41641,2.62919 0.04258,3.73855c1.25374,3.03024 5.03633,5.11591 3.10775,8.92843c-1.99718,3.94814 -5.39077,-0.62245 -7.53729,-0.20032c-0.70365,0.13838 -1.67074,0.83055 -2.31423,0.46285c-1.0497,-0.59983 -1.94364,-1.96189 -2.57754,-2.43435c-0.67337,-0.50187 -1.30438,-1.12645 -1.67996,-1.8776c-0.4529,-0.9058 0.97389,-6.24126 1.88004,-6.75906c0.49676,-0.28387 1.92615,-0.83318 2.45443,-0.56871c0.21834,0.10931 0.44623,0.76791 0.50475,0.53086c0.30837,-1.24907 -0.7716,-3.20591 0.34546,-3.84423z" fill="#41a00d" stroke-width="0.5"/><path d="M328.61185,188.43093c3.41508,0.18914 2.60814,1.26605 3.93859,3.62792c0.87408,1.5517 10.1968,1.69152 6.60952,6.39982c-0.79138,1.03868 -1.71566,1.66068 -2.72275,2.00698c0.97793,0.44882 1.65016,1.23336 1.68262,2.59255c0.0206,0.86253 -1.20049,1.88219 -0.61356,2.51457c4.25402,4.58335 3.07256,9.73313 -3.57213,9.73313c-0.19921,0.10488 -0.41431,0.18365 -0.64074,0.23177c-0.79073,0.7075 -3.45299,-1.02069 -3.63487,-1.74823c-0.4962,-1.98478 0.06617,-2.97412 0.24435,-4.64209c0.06386,-0.5978 -1.20009,-0.08195 -1.79715,-0.15237c-1.38937,-0.16389 -2.19635,-0.68475 -2.75026,-1.94613c-1.45154,-3.30549 1.69324,-5.61524 5.02334,-6.5888c-1.10899,-0.18517 -2.2096,-0.38688 -3.25603,-0.47621c-1.92862,-0.16464 -4.44422,-0.22641 -5.62162,-2.18874c-0.66774,-1.1129 -1.21099,-2.41936 -1.44588,-3.693c0.38736,4.17145 -2.60124,5.16991 -5.43614,7.39224c-0.05047,0.03956 -0.07558,0.07183 -0.07959,0.09841c0.10862,-0.01441 0.21945,-0.02185 0.33201,-0.02185c0.41295,0 0.80252,0.10012 1.14575,0.27742c0.80437,0.41549 1.35425,1.25482 1.35425,2.22258c0,0.96355 -0.54512,1.79979 -1.34378,2.21714c-0.08598,0.05947 -0.17972,0.10886 -0.28285,0.14609c-2.29369,0.82803 -7.10033,-1.62398 -8.32407,-3.43223c-0.01537,-0.02271 -3.8389,1.38441 -4.68661,0.73097c-1.36167,-1.04963 -1.61494,-2.99846 -1.31421,-4.56421c0.07552,-0.39319 0.60893,-0.94603 0.27632,-1.16891c-1.17564,-0.78781 -3.86257,-1.17638 -3.37368,-3.37639c0.73597,-3.31188 3.74856,-2.7274 6.51834,-2.78984c0.42781,-0.00964 2.78912,-3.1093 3.05265,-3.26742c0.93297,-0.55978 2.80493,0.71448 3.25226,-0.27732c0.35385,-0.78455 1.34716,-1.1419 2.167,-1.40379c4.46266,-1.42556 6.04047,2.01216 6.62467,6.23005c-0.09923,-2.00917 0.73559,-3.77733 3.28468,-4.34379c0.19081,-0.24046 0.42494,-0.44498 0.69061,-0.60177c0.54558,-0.95477 3.98194,0.22176 4.69893,0.26147z" fill="#41a00d" stroke-width="0.5"/><path d="M331.83446,177.00669c0,5.80509 -3.54211,6.95713 -8.75348,6.79591c-2.17893,-0.06741 -5.2892,0.18253 -5.41112,-2.78639c-0.17363,-4.22812 2.31415,-7.84747 6.04712,-7.68421c0.23641,-0.07412 0.48793,-0.11407 0.74879,-0.11407c0.70898,0 1.34903,0.29512 1.80401,0.76923c1.87581,0.8604 5.32468,-1.98183 5.48011,2.68125z" fill="#41a00d" stroke-width="0.5"/><path d="M306.20832,183.04911c-0.88388,-0.88388 0,-1.76777 0,-1.76777l-0.07073,0.12351c2.19306,-3.05864 3.95201,-0.80474 7.0031,-1.18208c1.28526,-0.15896 2.27899,-1.10137 3.45311,-1.56293c2.44814,-0.9624 4.88332,-1.37715 7.50007,-1.37945c0,0 1.25,0 1.25,1.25c0,1.25 -1.25,1.25 -1.25,1.25c-4.07438,-0.00387 -6.8495,2.37273 -10.62134,2.92026c-1.56263,0.22683 -4.76497,-1.26296 -5.1912,-0.00956l-0.30524,0.35802c0,0 -0.88388,0.88388 -1.76777,0z" fill="#225507" stroke-width="0.5"/><path d="M343.89636,176.78275c1.63103,4.37413 -2.25109,17.07049 -9.65405,14.02551c-7.64641,-3.14512 1.02779,-11.93143 2.90516,-15.68618c-0.00188,-0.03981 -0.00284,-0.07987 -0.00284,-0.12014c0,-0.02698 0.00043,-0.05387 0.00128,-0.08065c0.0691,-3.6808 1.57217,-3.543 3.143,-2.33555c0.83697,0.2226 1.50138,0.86854 1.75,1.69458c1.00282,1.14329 1.78101,2.29744 1.85745,2.50244z" fill="#41a00d" stroke-width="0.5"/><path d="M305.90662,167.81213c1.01449,3.04348 0.7438,8.04931 -1.48644,10.55404c-2.53148,2.84305 -8.49094,2.25871 -10.03309,-1.28253c-1.62836,-3.73919 1.48458,-9.95307 5.23535,-11.71439c0.44996,-0.66047 1.20812,-1.09416 2.06757,-1.09416c0.97695,0 1.82302,0.56038 2.23431,1.37725c0.64827,0.46043 1.26772,1.14419 1.83531,2.09017z" fill="#398d0b" stroke-width="0.5"/><path d="M321.78984,172.17703c0.29215,1.46073 -0.66449,4.01672 -0.76158,5.56865c-0.27205,4.34852 1.44835,8.98552 -1.82139,13.22132c-3.863,5.00435 -8.30825,0.03328 -8.99721,-4.33524c-0.8627,-5.47019 2.98055,-9.01285 5.77281,-13.24002c0.07474,-0.11315 -0.25503,-0.52852 -0.61243,-1.01738c-0.23099,-0.2323 -0.41663,-0.50975 -0.54252,-0.81795c-0.20122,-0.36333 -0.31047,-0.70062 -0.18461,-0.92499c-0.00005,-0.00659 -0.00008,-0.01319 -0.00008,-0.01979c0,-1.38071 1.11929,-2.5 2.5,-2.5c1.20363,-0.71554 4.48296,3.2452 4.647,4.06539z" fill="#2e7109" stroke-width="0.5"/><path d="M344.48032,189.15166c0.195,0.63515 0.95733,1.28642 1.19613,2.02076c0.90483,2.78251 1.5393,5.3041 1.5665,8.22395c0.03868,4.15182 -7.20624,12.83371 -10.33393,6.35493c-2.10112,-4.35233 0.91995,-12.35727 2.26523,-16.51216c0.3736,-1.15385 1.74179,-6.13123 3.3604,-5.98258c0.31612,-0.14445 0.66759,-0.22494 1.03787,-0.22494c1.38071,0 2.5,1.11929 2.5,2.5c0.71206,0.77009 -1.87676,2.69318 -1.59219,3.62003z" fill="#398d0b" stroke-width="0.5"/><path d="M350.62447,161.51999c-3.61739,7.05391 -13.5047,0.49968 -9.50117,-6.52007c0.84746,-1.48593 1.86229,-2.59869 3.01932,-2.91164c0.28526,-0.11323 0.59631,-0.17547 0.92189,-0.17547c0.90197,0 1.69238,0.47766 2.13206,1.19382c0.04341,0.03959 1.6699,-0.43666 1.90777,-0.41522c2.09256,0.18869 5.66604,-0.36815 4.76727,3.51608c-0.52273,2.25912 -1.93926,3.43133 -3.28782,5.19483z" fill="#2e7109" stroke-width="0.5"/><path d="M328.25554,206.43475c0.08092,0.01582 8.92317,2.53747 8.80157,4.30071c-0.31525,4.57107 -2.88218,2.89497 -5.76537,4.41914c-1.75826,0.92949 -3.38535,2.05617 -5.78209,1.06761c-2.97867,-1.22859 -6.70681,-2.68511 -8.5551,-5.53177c-0.47693,-0.73456 -1.08821,-3.40759 -0.15454,-3.94112c0.43488,-0.73685 1.23698,-1.23117 2.15454,-1.23117c0.64277,0 1.22888,0.24257 1.67178,0.64117c2.37852,0.56533 4.43661,-0.34855 7.62921,0.27542z" fill="#2e7109" stroke-width="0.5"/><path d="M292.89346,176.57964c0,1.54821 0.90208,8.23016 -0.09936,9.34942c-0.93147,1.04106 -1.8135,1.37624 -2.95859,0.80938c-4.18486,-2.07167 -3.78779,-4.37621 -3.54062,-10.37193v0c0,-0.4362 0.11171,-0.8463 0.30809,-1.20326c1.34494,-2.70174 6.5818,-3.06128 6.2398,1.21369z" fill="#2e7109" stroke-width="0.5"/><path d="M294.15752,157.5154c0.20713,-0.23446 0.25709,-1.97928 0.4742,-2.46777c0.71854,-1.61671 4.25377,-5.43748 5.88468,-6.12522c0.79221,-0.33407 1.75523,0.52491 2.56775,0.24381c1.99833,-0.69134 4.74787,-2.19759 6.17049,0.29199c1.46531,2.56429 -1.85713,3.13256 -2.86469,4.60282c-4.07535,5.9469 -7.44341,5.9578 -12.78724,9.58836c-0.12467,0.0847 -0.27179,0.15546 -0.43469,0.21154c-0.29635,0.12378 -0.62162,0.19215 -0.96285,0.19215c-0.22761,0 -0.44812,-0.03042 -0.65769,-0.08741c-1.13115,-0.19118 -2.15682,-0.92764 -1.84146,-2.34675c-0.00057,-0.02188 -0.00085,-0.04382 -0.00085,-0.06584c0,-1.19989 0.84532,-2.20235 1.97293,-2.44434c0.78717,-0.38222 1.67608,-0.684 2.47943,-1.59335z" fill="#398d0b" stroke-width="0.5"/><path d="M297.46733,177.34265c-1.04006,0.69338 -1.73344,-0.34669 -1.73344,-0.34669l-0.37162,-0.62471c-1.68945,-4.73816 -4.29149,-7.99045 -0.63039,-12.67848c0.83005,-1.06287 1.9991,-1.91315 3.25644,-2.40076c0,0 1.17474,-0.42718 1.60192,0.74756c0.42718,1.17474 -0.74756,1.60192 -0.74756,1.60192c-0.84318,0.27568 -1.60746,0.87428 -2.13719,1.58584c-2.88064,3.86939 -0.42764,6.28136 1.01115,10.30307l0.09739,0.0788c0,0 0.69338,1.04006 -0.34669,1.73344z" fill="#225507" stroke-width="0.5"/><path d="M308.5373,165.67248c0.78087,0.97609 -0.19522,1.75695 -0.19522,1.75695l-0.92805,0.6769c-0.74962,2.63623 -2.40767,4.77206 -2.35491,7.49274c0,0 0,1.25 -1.25,1.25c-1.25,0 -1.25,-1.25 -1.25,-1.25c0.04777,-3.23963 1.69439,-5.88007 2.80422,-8.92266l1.417,-1.19915c0,0 0.97609,-0.78087 1.75695,0.19522z" fill="#337f0a" stroke-width="0.5"/><path d="M339.68849,174.62126c-1.25,0 -1.25,-1.25 -1.25,-1.25l0.02016,-0.34086c0.15412,-0.7808 0.94129,-1.3547 1.05345,-2.14261c0.03091,-0.21716 -0.46838,0.0247 -0.65087,-0.09701c-0.39959,-0.26652 -0.69066,-0.66817 -1.02023,-1.01758c-1.4764,-1.56526 -2.46513,-3.07281 -3.38738,-5.01541c0,0 -0.53225,-1.13102 0.59878,-1.66327c1.13102,-0.53225 1.66327,0.59878 1.66327,0.59878c0.79937,1.71587 1.65091,2.98719 2.94427,4.36482c0.38026,0.40504 2.2888,2.23925 2.31549,2.40299c0.17144,1.05157 -0.88937,1.96434 -1.0571,3.01651l0.02016,-0.10635c0,0 0,1.25 -1.25,1.25z" fill="#4ec10f" stroke-width="0.5"/><path d="M330.44689,180.48022c-1.24632,-0.09587 -1.15045,-1.34219 -1.15045,-1.34219l0.11447,-1.381c-0.0996,-0.8043 -0.76778,-1.4415 -0.98852,-2.2213c-0.56824,-2.00745 0.61062,-4.24251 0.75679,-6.24693c0,0 0.09587,-1.24632 1.34219,-1.15045c1.24632,0.09587 1.15045,1.34219 1.15045,1.34219c-0.10193,1.26855 -1.33299,4.05432 -0.88475,5.24385c0.36964,0.98093 0.9461,1.90442 1.12203,2.93782l-0.12004,1.66757c0,0 -0.09587,1.24632 -1.34219,1.15045z" fill="#225507" stroke-width="0.5"/><path d="M299.76803,209.22338c-0.55902,1.11803 -1.67705,0.55902 -1.67705,0.55902l-1.21637,-0.82667c-2.32649,-3.93976 -2.05418,-8.06343 -2.05418,-12.48566c0,0 0,-1.25 1.25,-1.25c1.25,0 1.25,1.25 1.25,1.25c0,3.88901 -0.41387,7.74977 1.69791,11.19942l0.19067,-0.12316c0,0 1.11803,0.55902 0.55902,1.67705z" fill="#225507" stroke-width="0.5"/><path d="M339.57123,204.60029c1.25,0 1.25,1.25 1.25,1.25l-0.00432,0.1307c-0.12841,0.83864 0.28513,1.99589 -0.38523,2.51591c-0.64545,0.50069 -1.63593,-0.1332 -2.4278,-0.33378c-2.91616,-0.73866 -5.4977,-0.81148 -8.55419,-1.18973c0,0 -1.24035,-0.15504 -1.0853,-1.39539c0.15504,-1.24035 1.39539,-1.0853 1.39539,-1.0853c2.05605,0.25979 4.22286,-0.08283 6.24523,0.23875c0.5179,0.08235 1.64077,0.72767 2.31712,1.18903l-0.0009,-0.07018c0,0 0,-1.25 1.25,-1.25z" fill="#225507" stroke-width="0.5"/><path d="M344.3786,167.3139c1.25,0 1.25,1.25 1.25,1.25l-0.13197,0.26175c1.21857,2.43714 2.33829,5.5507 1.35777,8.34072c-1.26774,3.60729 -4.78904,4.69143 -4.16969,8.80867c0,0 0.17678,1.23744 -1.06066,1.41421c-1.23744,0.17678 -1.41421,-1.06066 -1.41421,-1.06066c-0.20393,-1.49208 -0.52782,-2.64713 0.08131,-4.16963c0.85668,-2.14121 3.38501,-3.57739 4.1912,-5.78215c0.78195,-2.13846 -0.3031,-4.59575 -1.22179,-6.43313l-0.13197,-1.37979c0,0 0,-1.25 1.25,-1.25z" fill="#225507" stroke-width="0.5"/><path d="M323.90427,155.31841c0.11317,-1.24487 1.35804,-1.1317 1.35804,-1.1317l1.46837,0.14665c1.87043,0.73073 3.72269,1.39752 5.58264,2.17218c0,0 1.15385,0.48077 0.67308,1.63462c-0.48077,1.15385 -1.63462,0.67308 -1.63462,0.67308c-1.73383,-0.72272 -3.47571,-1.33805 -5.20462,-2.04892l-1.11119,-0.08786c0,0 -1.24487,-0.11317 -1.1317,-1.35804z" fill="#225507" stroke-width="0.5"/></g></g></svg>