<svg version="1.1" xmlns="http://www.w3.org/2000/svg" xmlns:xlink="http://www.w3.org/1999/xlink" width="26.38215" height="14.83523" viewBox="0,0,26.38215,14.83523"><g transform="translate(-286.95033,-204.11303)"><g data-paper-data="{&quot;isPaintingLayer&quot;:true}" fill="#41a00d" fill-rule="nonzero" stroke="none" stroke-width="0.5" stroke-linecap="butt" stroke-linejoin="miter" stroke-miterlimit="10" stroke-dasharray="" stroke-dashoffset="0" style="mix-blend-mode: normal"><path d="M302.33096,204.34018c3.86657,0.77331 4.54634,3.9675 6.96472,5.80386c0.71823,0.54538 2.32124,-0.61778 3.75178,0.87496c0.88104,0.91935 -0.45344,3.67041 -1.65101,4.09409c-3.42962,1.21333 -7.02565,-0.42078 -10.53411,0.19281c-4.8717,0.852 -6.41104,5.64178 -12.58661,2.69463c-2.42588,-1.1577 -0.97667,-6.46109 0.0611,-8.06026c0.74315,-1.14516 1.86416,-3.42666 3.19603,-4.02917c1.46114,-0.66099 2.76941,-0.0223 4.17478,-0.3307c2.73967,-0.60119 3.16066,-2.03186 6.37458,-1.22838z"/></g></g></svg>