<svg version="1.1" xmlns="http://www.w3.org/2000/svg" xmlns:xlink="http://www.w3.org/1999/xlink" width="186.86339" height="262.68258" viewBox="0,0,186.86339,262.68258"><g transform="translate(-133.69627,-94.58247)"><g data-paper-data="{&quot;isPaintingLayer&quot;:true}" fill-rule="nonzero" stroke="none" stroke-linecap="butt" stroke-linejoin="miter" stroke-miterlimit="10" stroke-dasharray="" stroke-dashoffset="0" style="mix-blend-mode: normal"><path d="M197.26531,259.29197c0,0 -4.89314,-58.67277 -6.00094,-79.75792c-0.72495,-13.79832 0.00094,-34.44208 0.00094,-34.44208c0,0 12.35369,-38.6 14,-38.6c3.12049,0 10.05368,8.0005 20.25958,15.58886c2.47434,1.83974 3.86034,-25.69507 6.45217,-23.86395c12.97103,9.16403 24.48825,46.67509 24.48825,46.67509c0,0 3.98125,16.50369 4.26617,28.38882c0.13305,5.5502 1.69685,13.62327 1.57066,23.41165c-0.12414,9.62946 -2.12837,20.41069 -2.60316,30.38208c-0.89225,18.73873 -0.43367,34.61744 -0.43367,34.61744z" fill="#c5d8e2" stroke-width="0"/><path d="M262.73722,196.95839c-2.48471,-0.27608 -2.20863,-2.76079 -2.20863,-2.76079l0.24787,-2.09234c0,-6.01081 0.09968,-12.11227 -2.18961,-17.75573c0,0 -0.92848,-2.32119 1.39272,-3.24967c2.32119,-0.92848 3.24967,1.39272 3.24967,1.39272c2.49275,6.3063 2.54723,12.91322 2.54723,19.61269l-0.27845,2.6445c0,0 -0.27608,2.48471 -2.76079,2.20863z" fill="#c5d8e2" stroke-width="0.5"/><path d="M235.32781,192.80447c0,0 -5.41938,2.71965 -8.00219,0.50255c-1.48177,-1.27196 -8.62281,-16.87755 -8.62281,-16.87755c0,0 12.2905,-20.40991 14.9464,-21.28727c1.6154,-0.53363 7.64849,10.53727 8.8036,10.53727c6.45233,0 27.25,3 27.25,3v19.875z" fill="#c6deec" stroke-width="0"/><path d="M210.38143,172.80808c0.88388,-0.88388 1.76776,0 1.76776,0l0.07513,0.16585c9.63204,4.81601 20.40589,7.88061 31.24098,7.86803c6.5931,0 12.73461,-0.38451 19.19978,-1.38386c2.32346,-0.35915 4.48057,-0.59201 6.64121,-1.68417c0,0 1.11804,-0.55901 1.67705,0.55902c0.55901,1.11803 -0.55902,1.67705 -0.55902,1.67705c-7.87663,3.90214 -18.36541,3.33196 -26.95902,3.33196c-11.22709,-0.01191 -22.37258,-3.13874 -32.35901,-8.13196l-0.72486,-0.63415c0,0 -0.88388,-0.88389 0,-1.76777z" fill="#a9ccdf" stroke-width="0.5"/><path d="M261.65697,176.61812c-2.45145,0.49029 -2.94174,-1.96116 -2.94174,-1.96116l-0.36257,-1.84687c-0.18273,-1.59797 -0.85976,-3.09989 -1.26562,-4.65622c-0.89029,-3.41391 -0.41599,-7.09271 -1.04731,-10.54342c-0.23475,-1.28311 -0.83305,-2.48731 -1.01759,-3.7786c-0.99748,-6.97999 -1.11261,-14.19625 -3.26119,-20.98512c-1.65357,-5.2248 -4.67196,-9.71846 -6.60176,-14.80224c0,0 -0.87781,-2.34082 1.46301,-3.21863c2.34082,-0.87781 3.21864,1.46301 3.21864,1.46301c1.92479,5.20866 5.04326,9.84046 6.73157,15.19776c2.21245,7.02048 2.37532,14.46778 3.40549,21.68155c0.17379,1.21698 0.76379,2.345 0.98241,3.55473c0.59283,3.28043 0.0716,6.90244 0.95269,10.12324c0.4859,1.7762 1.15788,3.51844 1.40105,5.34378l0.30409,1.48646c0,0 0.49029,2.45146 -1.96116,2.94174z" fill="#c5d8e2" stroke-width="0.5"/><path d="M199.37847,130.30787c-2.45968,-0.44721 -2.01246,-2.90689 -2.01246,-2.90689l0.46126,-2.4582c1.25032,-4.23492 1.96548,-8.60033 2.96958,-12.88684c0.37142,-1.5856 0.14373,-3.37095 0.93236,-4.79578c0.99424,-1.7963 2.18685,-4.14806 4.21032,-4.49554c1.14452,-0.19654 5.41067,3.6134 6.82804,4.71569c2.92688,2.27621 6.23594,4.09701 8.7146,6.89354c1.19458,1.34777 2.29567,2.75999 3.38245,4.1787l0.14547,-0.94851c1.05415,-3.95166 2.19902,-8.02129 2.73733,-12.08484c0.30651,-2.31377 -0.05493,-3.64725 0.84749,-5.85527c0.71139,-1.74061 0.8057,-4.35707 2.56343,-5.02502c1.4546,-0.55276 4.9574,3.10834 6.07008,4.27721c2.36406,2.48343 3.99353,5.11569 6.00716,7.84538c2.1243,2.87972 3.90869,4.55894 5.31128,7.95822c0,0 0.92847,2.3212 -1.39272,3.24967c-2.32119,0.92848 -3.24967,-1.39272 -3.24967,-1.39272c-1.56438,-4.07888 -5.24398,-8.31535 -8.02982,-11.76529c-0.74685,-0.92489 -1.82772,-1.61489 -2.71245,-2.42779c-0.12742,0.41873 -0.25062,0.73936 -0.26338,0.83c-0.74997,5.32664 -1.66431,10.45222 -3.05757,15.67876l-0.14072,1.1094c0,0 -0.27665,1.93653 -2.05352,2.13886c0.98929,1.22659 2.01988,2.41986 3.14641,3.53982c0,0 1.76776,1.76777 0,3.53553c-1.76776,1.76776 -3.53553,0 -3.53553,0c-3.5335,-3.55185 -6.19228,-7.71626 -9.48873,-11.49342c-2.23686,-2.56307 -5.41939,-4.23268 -8.0854,-6.30646c-0.76931,-0.59842 -1.62734,-1.11262 -2.26325,-1.85124c-0.44496,-0.51683 -0.25534,-1.6376 -0.90871,-1.83307c-0.48425,-0.14487 -0.11195,1.00502 -0.18968,1.50447c-0.20809,1.33707 -0.37418,2.68326 -0.66764,4.00422c-0.96972,4.36505 -1.76858,8.80768 -3.03042,13.11316l-0.33874,1.9418c0,0 -0.44721,2.45968 -2.90688,2.01246z" fill="#c0d3dd" stroke-width="0.5"/><path d="M191.71597,190.89965c-2.45145,0.49029 -2.94174,-1.96116 -2.94174,-1.96116l-0.22662,-1.15988c-0.40308,-3.0233 -0.81548,-5.87691 -0.82193,-8.93041c0,-12.25284 -0.31517,-24.56022 2.46403,-36.56215c1.14857,-4.96012 2.68121,-9.63423 5.90108,-13.62095c0,0 1.58309,-1.93489 3.51798,-0.3518c1.9349,1.58309 0.3518,3.51799 0.3518,3.51799c-3.31055,3.98142 -4.38333,9.18974 -5.49457,14.15991c-2.38236,10.65546 -1.74032,22.00481 -1.74032,32.857c-0.00679,2.82956 0.40417,5.46551 0.77807,8.26959l0.17338,0.84012c0,0 0.49029,2.45145 -1.96116,2.94174z" fill="#c5d8e2" stroke-width="0.5"/><path d="M191.43435,194.34211c-2.5,0 -2.5,-2.5 -2.5,-2.5l0.01241,-0.80387c-0.08772,-0.87719 -0.17544,-1.75439 -0.26316,-2.63158c0,0 -0.24876,-2.48759 2.23883,-2.73635c2.48759,-0.24876 2.73635,2.23883 2.73635,2.23883c0.08772,0.87719 0.17544,1.75439 0.26316,2.63158l0.01241,1.30139c0,0 0,2.5 -2.5,2.5z" fill="#c5d8e2" stroke-width="0.5"/><path d="M195.64488,258.02632c-2.5,0 -2.5,-2.5 -2.5,-2.5l0.00257,-2.74487c0.60408,-6.62187 2.00594,-12.65524 1.32563,-19.3748c0,0 -0.07397,-0.73966 0.26209,-1.45265c-0.38826,-1.43123 -0.76273,-2.82546 -0.77869,-2.93796c-0.51137,-3.60355 0.12229,-7.32848 -0.51332,-10.96688c-0.4975,-2.84786 -1.49214,-5.62017 -1.8547,-8.50376c-0.38216,-3.03956 -0.87705,-5.93338 -1.31182,-8.91921c-0.45645,-3.13465 0.45366,-4.54365 -1.07835,-7.4029c0,0 -1.11804,-2.23607 1.11803,-3.3541c2.23607,-1.11803 3.3541,1.11804 3.3541,1.11804c0.50428,1.05841 1.24166,2.03462 1.51284,3.17523c0.4424,1.86074 -0.25309,3.84771 0.04038,5.73766c0.89553,5.76729 2.14732,11.52927 3.14927,17.31387c0.6398,3.69384 0.01437,7.49453 0.53932,11.13839c0.26946,1.8704 1.01576,3.64038 1.51298,5.46351l0.51821,1.8131c0,0 0.61125,2.13938 -1.33783,2.95823c-0.17318,4.82298 -1.01444,9.46305 -1.46329,14.42081l0.00257,2.51829c0,0 0,2.5 -2.5,2.5z" fill="#c5d8e2" stroke-width="0.5"/><path d="M260.04746,261.60508c-2.39456,0.71837 -3.11293,-1.6762 -3.11293,-1.6762l-0.84725,-2.86415c-0.69186,-6.72913 -0.41474,-14.32949 1.02433,-21.02049c-0.01936,-0.15696 -0.01936,-0.25478 -0.01936,-0.25478v-0.52632c0.00564,-4.55452 -1.26885,-8.67651 -1.05006,-13.27119c0.20036,-4.20747 1.2743,-7.9264 2.16062,-12.00074c1.08756,-4.99945 1.37449,-9.8755 1.79281,-14.93569c0,0 0.20762,-2.49137 2.69898,-2.28375c2.49136,0.20762 2.28375,2.69897 2.28375,2.69897c-0.44326,5.27428 -0.75943,10.3803 -1.89141,15.59063c-0.82613,3.80256 -1.86299,7.23211 -2.04989,11.15715c-0.19308,4.0547 0.82036,7.76366 1.02114,11.75706c0.47593,0.88045 0.22257,1.89389 0.22257,1.89389c-1.59855,6.22593 -1.9075,13.79824 -1.2888,20.22365l0.7317,2.39901c0,0 0.71837,2.39457 -1.6762,3.11293z" fill="#c5d8e2" stroke-width="0.5"/><path d="M262.02601,256.65439c1.24035,2.17061 -0.93026,3.41096 -0.93026,3.41096l-1.58245,0.88202c-0.45107,0.33828 -4.9103,3.68377 -4.93328,3.69428c-3.5159,1.60877 -8.60812,0.75309 -12.35619,0.75309c-12.39019,0 -24.24428,-2.03168 -36.5403,-3.168c-4.19523,-0.3877 -10.45407,1.51127 -13.08833,-3.26362c-0.63584,-1.15253 0.02385,-2.63248 0.03578,-3.94872c0,0 0.24876,-2.48759 2.73635,-2.23883c2.48759,0.24876 2.23883,2.73635 2.23883,2.73635c-0.16351,0.43815 -0.61679,0.86414 -0.49054,1.31444c0.28288,1.00892 2.06871,0.38757 3.11623,0.41305c3.07562,0.07482 5.85079,0.14785 8.89872,0.54533c11.04005,1.43974 21.96233,2.61 33.09326,2.61c2.77264,0 7.69825,0.99105 10.27539,-0.29954c1.52039,-0.76139 2.65382,-2.12755 4.01409,-3.14783l2.10176,-1.22324c0,0 2.17061,-1.24035 3.41096,0.93026z" fill="#c5d8e2" stroke-width="0.5"/><path d="M238.9316,140.77511c0.45451,-0.53912 0.9504,-1.01424 1.59349,-1.26179c1.33537,-0.51404 2.85848,0.13741 4.28772,0.20612c1.12977,0.64461 2.47019,1.01345 3.38931,1.93385c3.71283,3.718 2.31367,11.24761 2.31118,15.9783c-0.00073,1.39924 0.12569,5.31282 -0.54086,6.40832c-3.83707,6.30631 -11.3391,2.4228 -13.51361,-2.9073c-0.4826,-1.18293 -0.47163,-5.20477 -0.41705,-6.49965c0.16807,-3.98792 0.58528,-8.05518 1.36218,-11.96534c0,0 0.28823,-1.44112 1.52765,-1.89249z" fill="#f1f5f7" stroke-width="0.5"/><path d="M221.50341,139.46819c2.42414,0.55713 4.50653,2.10626 6.43555,3.76405c0.7893,0.95941 1.8635,1.74286 2.36789,2.87822c1.38444,3.11631 0.47423,8.55353 0.20429,11.88818c-0.11473,1.41733 0.17353,3.00833 -0.55469,4.22967c-0.86706,1.45418 -2.37612,2.52 -3.90432,3.24874c-4.53272,2.16145 -11.48942,-0.64337 -13.29825,-5.19202c-0.4244,-1.06724 -0.11057,-2.29466 -0.13531,-3.44292c-0.06237,-2.89397 0.00814,-6.02753 0.56804,-8.87591c0.23041,-1.17218 0.56531,-2.22435 0.9825,-3.21592l0.78798,-3.77778c0.70391,-0.36195 1.35647,-0.87463 2.06379,-1.22656c0.07544,-0.11375 0.15149,-0.22813 0.22809,-0.34321c0,0 1.38675,-2.08013 3.46687,-0.69338c0.35592,0.23728 0.61034,0.49486 0.78757,0.75884z" fill="#f1f5f7" stroke-width="0.5"/><path d="M225.25014,192.63158c0,-2.5 2.5,-2.5 2.5,-2.5c2.63158,0 7.36842,0 10,0c6.28681,0.00705 12.45991,-1.22016 18.69861,-1.8297c3.63398,-0.35505 8.31545,-1.00151 11.04921,-3.68814c1.69259,-1.66341 0.80521,-3.89022 0.91318,-6.05407c0.14531,-2.91211 0.25421,-4.36169 -0.87693,-7.10488c0,0 -0.00094,-0.00235 -0.00268,-0.00692c-6.95257,-0.86787 -13.95907,-0.60205 -20.86073,-2.1677c-3.34803,-0.7595 -6.98016,-1.65225 -9.58607,-4.04298c-2.29627,-2.10666 -3.76995,-5.39212 -5.03156,-8.15005c0,0 -1.03451,-2.27592 1.24141,-3.31043c2.27591,-1.0345 3.31042,1.24141 3.31042,1.24141c0.98958,2.19294 2.12705,4.87099 3.91581,6.58679c1.80388,1.73031 4.92339,2.26785 7.25603,2.79912c7.33333,1.6702 14.80795,1.20088 22.19555,2.33555l1.65078,0.96632c0,0 1.04721,1.0472 0.72361,2.33561c0.72647,1.93046 1.30266,3.96836 1.32439,6.02236c0.02177,2.05744 0.2536,6.74742 -0.37041,8.60794c-1.62333,4.84011 -6.39002,6.40291 -10.7351,7.4907c-7.81812,1.95727 -16.72714,2.96073 -24.81553,2.96905c-2.63158,0 -5.26315,0 -7.89473,0h-2.10527c0,0 -2.5,0 -2.5,-2.5z" fill="#a1b9c7" stroke-width="0.5"/><path d="M256.3959,168.01709c-0.03374,-0.21483 -0.04353,-0.45295 -0.02323,-0.71686c0.19174,-2.49264 2.68438,-2.3009 2.68438,-2.3009c3.42012,0.26538 6.90181,0.46804 10.3042,0.79448c1.31018,0.1257 2.83331,-0.14886 3.89903,0.62354c3.66563,2.65677 3.6751,11.43368 -0.03962,13.97534c-1.11593,0.76352 -2.63385,0.64748 -3.97813,0.79299c-4.91983,0.53256 -8.83215,-1.82364 -11.31346,-5.99506c-0.97932,-1.64637 -2.70726,-4.92696 -1.53317,-7.17353z" fill="#131415" stroke-width="0.5"/><path d="M227.71712,148.95362c1.68107,2.31142 1.08757,8.85336 -2.50775,7.96185c-2.72187,-0.67492 -2.19108,-3.18703 -1.26294,-5.40113c-0.26062,-0.81185 -0.245,-1.67554 0.55918,-2.42333c0.31986,-0.29743 0.62268,-0.51656 0.90788,-0.66677c0.1939,-0.30083 0.68582,-0.84911 1.54421,-0.48123c0.57737,0.24744 0.74025,0.66068 0.75942,1.0106z" fill="#2a2e30" stroke-width="0.5"/><path d="M245.67002,146.90611c1.18585,-0.39528 1.58114,0.79057 1.58114,0.79057l0.43318,1.31877c0.27466,2.13701 1.80662,7.35302 -1.87492,7.71817c-0.04931,0.00489 -0.09797,0.00832 -0.14599,0.01034c-0.38247,0.44736 -0.9051,0.69903 -1.6176,0.57857c-0.86802,-0.14675 -1.14667,-1.39171 -1.41438,-2.23035c-0.69814,-2.18704 0.70744,-5.04693 2.25299,-6.37631c0,0 0.02067,-0.01654 0.0584,-0.04179l-0.06339,-0.18684c0,0 -0.39528,-1.18585 0.79057,-1.58114z" fill="#2a2e30" stroke-width="0.5"/><path d="M194.65476,207.55655c0,1.25 -1.25,1.25 -1.25,1.25l-0.14222,-0.00368c-3.14591,0.24017 -6.15517,0.17183 -9.21079,-0.66582c-1.17827,-0.54328 -2.05634,-0.7621 -2.85754,-1.88184c-1.68729,-2.35814 -1.90274,-7.40112 -1.77626,-10.18386c0.02198,-0.4836 0.26355,-2.94584 0.41258,-3.20157c1.75698,-3.01481 6.76022,-3.61357 9.75883,-3.3438c0,0 1.24487,0.11317 1.1317,1.35804c-0.11317,1.24487 -1.35804,1.1317 -1.35804,1.1317c-2.07266,-0.19055 -6.12167,0.03698 -7.38403,2.13238c-0.32025,0.53159 -0.0614,2.65089 -0.06233,3.28941c-0.0041,2.79383 0.20652,7.11245 2.98397,8.34807c2.69636,0.73048 5.39924,0.73951 8.17016,0.52465l0.33397,-0.00368c0,0 1.25,0 1.25,1.25z" fill="#b0c1ca" stroke-width="0.5"/><path d="M165.25,242.91369c-0.00405,0.55752 0.25033,1.20436 -0.05364,1.67175c-0.06645,0.10218 -0.13955,0.19848 -0.21806,0.28997l0.06177,0.04118l-0.70353,1.05529c-0.22257,0.34463 -0.61005,0.57276 -1.05081,0.57276c-0.69036,0 -1.25,-0.55964 -1.25,-1.25v-1.34554c-0.24085,-1.37753 -0.76958,-2.14937 -1.72691,-2.81748c-0.71457,0.97054 -1.90829,1.71898 -3.14402,2.0453c0.00194,1.69208 0.67376,2.93182 1.483,4.2848l0.11124,-0.12516l1.06676,0.94823c0.26011,0.22906 0.42422,0.56458 0.42422,0.93842c0,0.69036 -0.55964,1.25 -1.25,1.25c-0.20995,0 -0.4078,-0.05176 -0.58151,-0.14321l-1.13514,-0.56757c-3.61585,-1.50165 -3.62559,-3.92695 -2.96004,-6.72408c-0.56337,-0.26762 -1.03195,-0.7134 -1.33195,-1.3711c-0.26935,-0.59051 -0.34021,-1.13254 -0.26364,-1.6233c-0.15202,-0.22836 -0.30404,-0.45672 -0.45606,-0.68508c-1.75853,-2.25801 -3.82268,-4.24551 -5.56836,-6.51171c-3.35993,-4.36177 -5.72619,-9.82264 -9.50119,-13.87308c-1.16394,-0.27429 -2.16639,-0.7935 -2.74859,-1.58775c-1.04197,-1.42148 -0.91481,-2.67864 -0.18619,-3.71292c0.15371,-0.3332 0.36517,-0.67973 0.64106,-1.03833c0.44974,-0.58455 1.02107,-1.08218 1.63526,-1.49053c0.87716,-0.58321 2.23968,-0.86857 3.24282,-1.13646c1.04161,-0.00457 2.95136,-0.11441 3.90614,0.34306c0.00173,0.00083 0.00347,0.00167 0.0052,0.0025c3.76941,-1.33688 7.80696,-2.01648 11.49822,-3.59796c8.22354,-3.15573 16.07818,-7.31169 24.30764,-10.48486c0,0 1.16669,-0.44872 1.61541,0.71796c0.44872,1.16668 -0.71796,1.61541 -0.71796,1.61541c-8.21973,3.15285 -16.05992,7.30534 -24.26379,10.46752c-3.3904,1.45349 -7.10961,2.11971 -10.61151,3.27228c0.16904,0.44844 0.25738,0.93098 0.27356,1.42361c2.68052,-0.78744 5.34824,-1.65748 7.95025,-2.52426c5.54542,-1.58533 11.06996,-3.88777 16.23414,-6.46905c3.19671,-1.59786 6.58401,-4.07955 10.10216,-4.7571c0,0 1.22984,-0.22361 1.45344,1.00623c0.2236,1.22984 -1.00623,1.45344 -1.00623,1.45344c-3.21684,0.53829 -6.50037,3.06756 -9.42165,4.52862c-5.28548,2.64352 -10.94613,5.0052 -16.623,6.62618c-3.05208,1.01803 -6.19026,2.02954 -9.33492,2.91742c-0.14273,0.27507 -0.30698,0.53623 -0.49074,0.7777c-0.21877,0.28751 -0.5119,0.54511 -0.86115,0.77069c3.25993,3.69142 5.94225,7.82587 8.83143,11.82342c1.65137,2.28489 3.71539,4.1866 4.8934,6.72688c1.34544,-0.1904 2.64833,0.16053 3.19724,1.3695c2.87921,0.22209 4.55201,1.35147 4.52626,4.89641zM150.605,231.38268c-3.0257,-4.19231 -5.81507,-8.55305 -9.32536,-12.35143c-0.23041,0.04344 -0.4653,0.07916 -0.70286,0.10694c2.95865,3.84228 5.15452,8.37565 8.10087,12.17537c1.77083,2.28372 3.845,4.29639 5.62002,6.58083c0.2868,-0.19088 0.59646,-0.35819 0.91518,-0.50118c-1.01651,-2.20776 -3.17608,-4.0267 -4.60786,-6.01053zM136.64004,215.13808c0.02196,-0.07256 0.0465,-0.1449 0.0735,-0.2169c-0.00397,-0.02269 -0.00758,-0.04559 -0.0108,-0.0687c-0.04486,0.07421 -0.07373,0.15422 -0.08402,0.24042c0.00659,0.01522 0.01369,0.03028 0.02132,0.04518z" fill="#b0c1ca" stroke-width="0.5"/><path d="M314.94274,217.87268c1.37763,-0.0093 2.74069,-1.58601 4.11501,-1.77684c2.34298,-0.32533 1.41961,2.00153 0.71711,3.12448c-1.16586,1.86363 -7.47596,3.5987 -8.06546,1.45745c-0.14594,0.02452 -0.30102,0.03748 -0.46533,0.03786l-0.25222,0.08407c-3.43376,1.10652 -6.42034,3.92911 -9.56053,5.66329c-4.17177,2.30388 -7.91287,4.50828 -11.78312,7.41097c0,0 -0.05988,0.0449 -0.16131,0.09808c-0.06396,0.22975 -0.16082,0.46636 -0.2985,0.71238c-0.49629,0.88684 -1.69803,1.56581 -2.84394,1.57733c-0.0738,0.07254 -0.14677,0.13477 -0.21764,0.18512c-1.22181,0.86802 -3.39647,0.57472 -4.43329,-0.43839c-0.97068,-0.94849 -1.31321,-1.96703 -1.22867,-2.95153c-0.92955,-0.87437 -1.84058,-1.65962 -2.67755,-2.69786c-5.75771,-5.7455 -9.8379,-13.6414 -16.52798,-18.29341c0,0 -1.02404,-0.71683 -0.30721,-1.74087c0.71683,-1.02404 1.74086,-0.30721 1.74086,-0.30721c6.85863,4.82901 11.04987,12.75494 16.95715,18.67418c0.58968,0.74332 1.22195,1.33991 1.87294,1.94127c0.27596,-0.34579 0.59401,-0.67076 0.94043,-0.96784c-1.22039,-1.06602 -2.15915,-2.2665 -3.25525,-3.52083c-2.74999,-3.94402 -5.96218,-7.63124 -8.74475,-11.57087c-1.81252,-2.56621 -3.96648,-7.0406 -6.98591,-8.28298c0,0 -1.14227,-0.50767 -0.63459,-1.64994c0.50768,-1.14227 1.64994,-0.63459 1.64994,-0.63459c3.56252,1.66264 5.82133,6.01891 8.01543,9.12928c2.75563,3.90639 5.92743,7.56705 8.66752,11.4669c1.16197,1.32618 2.09278,2.59316 3.51651,3.65538l0.03553,0.03435c0.64594,-0.25548 1.29557,-0.40451 1.89328,-0.41829c0,0 0.49176,0 0.85839,0.30844c2.39583,-1.19115 4.2126,-3.205 6.55064,-4.55962c4.53418,-2.62702 8.77066,-5.24175 13.68328,-7.11022c-0.17239,-0.91649 -0.05989,-1.68483 0.54573,-1.90561c0.05282,-0.45054 0.16807,-0.89496 0.34959,-1.291c0.51988,-1.13429 5.41881,-6.74631 5.41881,-2.35665c0,0.08606 -0.01512,0.17335 -0.04406,0.2544c-0.47983,1.3435 -1.24451,2.42534 -1.85901,3.51265c0.05799,0.05054 0.1136,0.10751 0.16652,0.17171c0.71481,0.86711 1.133,1.92403 1.22133,2.89794c0.48926,0.03058 0.98026,0.08004 1.43032,0.07701zM292.85278,227.3183c-1.28555,0.94612 -2.27594,1.90379 -3.54615,2.69019c0.16422,0.22379 0.29559,0.47107 0.39472,0.73295c3.418,-2.42338 6.81736,-4.39354 10.50516,-6.45785c2.83243,-1.5855 5.51598,-3.85935 8.49998,-5.24964c-0.03638,-0.06098 -0.07225,-0.12301 -0.10756,-0.18592c-5.50491,2.05709 -11.02529,4.99586 -15.74615,8.47028z" fill="#b0c1ca" stroke-width="0.5"/><path d="M260.18628,261.39365c0.12813,0.44844 0.04113,0.77736 -0.1183,1.01353l-0.06974,0.37497c0,2.25637 0,4.51274 0,6.76911c0,1.62545 0.08186,3.03074 -0.43131,4.60689c-1.04977,3.22428 -3.07015,5.06137 -5.60602,6.03827v0.33179c0,4.23125 1.11223,10.39121 -4.27152,11.30906c-1.05223,0.00241 -2.07919,-0.04988 -3.09492,-0.1288c-0.38315,3.82306 0.9467,7.2779 1.32304,11.08823c0.64153,6.4953 0.92083,13.17379 0.92083,19.69873c-0.01141,8.27337 2.92719,16.36668 2.92719,24.69813v0.36386c2.66902,-0.36326 6.28172,-2.05615 8.45648,-0.89951c2.33934,1.24418 2.78184,8.03704 0.76429,9.78308c-0.17118,0.14815 -2.89274,0.59334 -3.43008,0.63157c-3.02811,0.21542 -6.20479,0.18231 -9.23607,0.18609c-3.65898,0 -7.31797,0.00248 -10.97695,0c-0.88195,-0.0006 -2.99902,0.09512 -3.67881,-0.43417c-1.94558,-1.51486 -1.4348,-7.24357 -0.83678,-9.30924c0.19527,-0.67449 0.24513,-1.49202 0.76682,-1.96202c0.90327,-0.81376 3.86601,-0.69819 5.05732,-0.84713c0,0 0.00093,-0.00011 0.00274,-0.00032v-0.25646c0,-8.97602 -0.18295,-17.91816 -0.18295,-26.89353c0,-8.98834 0.51975,-17.94177 -1.12931,-26.72537c-1.22737,-0.22845 -2.41044,-0.6621 -3.27415,-1.56461c-2.63264,-2.75092 -2.50981,-6.73207 -2.88947,-10.27055c-3.96733,-0.72712 -8.07228,-0.78708 -12.18991,-0.76318c0.05267,0.28884 0.00467,0.52882 0.00467,0.52882l-0.16632,0.80764c-0.496,4.36493 -1.12024,8.09358 -5.62414,8.70768c1.204,3.51624 0.87291,7.17371 1.41188,10.81128c0.66451,4.48482 0.92682,9.32227 0.92682,13.89456c0,9.82822 0.7318,19.50436 0.7318,29.27186c0,1.34163 0,2.68325 0,4.02488l0.05098,-0.19312c0,0 0.18954,0.37909 0.12715,0.80615h0.21841c2.20798,0 7.71802,-0.91709 9.39071,0.83374c0.33658,0.35231 0.27693,2.91222 0.27495,3.5264c-0.01891,5.85077 -4.57044,5.36671 -9.0282,6.00353c-4.33762,0.00996 -8.37515,-0.41031 -12.61776,-0.7318c-1.47029,-0.11142 -3.92755,-0.43487 -5.00311,-1.64361c-2.67288,-3.00387 0.16428,-6.50657 3.2225,-7.28264l0.08143,-0.56982c0.16818,-1.34544 0.35826,-2.68703 0.53784,-4.03095c-1.43253,-9.58191 -0.56599,-19.85352 -0.54648,-29.57105c-0.6272,-5.0176 0.37813,-10.29588 -0.35623,-15.27202c-0.47857,-3.24286 -1.67327,-6.54433 -1.82568,-9.8134c-2.11979,-0.40254 -3.94098,-1.26281 -4.96902,-2.97577c-1.76925,-2.94798 -1.09859,-7.10401 -1.08442,-10.4037c-3.6627,-3.67804 -3.18649,-11.29176 -2.5485,-15.83142c0,0 0.14409,-1.00862 1.08269,-1.07457c0.64271,-0.36996 1.31695,0.11164 1.31695,0.11164c4.78269,3.41621 11.33099,3.12066 17.01643,3.93075c2.8829,0.41077 5.83084,1.11407 8.7492,1.10294c11.06956,0 22.25614,0.47929 33.14127,-0.93921c1.38544,-0.30759 2.53506,-0.68464 3.8037,-1.3227l0.83063,-0.2512c0.21675,-0.18705 0.53487,-0.3127 0.99785,-0.23554c0.36591,0.06099 0.60513,0.21247 0.76063,0.39535c0.11931,0.13148 0.22096,0.30886 0.28896,0.54684z" fill="#b0c1ca" stroke-width="0.5"/><path d="M205.66209,347.12756c-1.25,0 -1.25,-1.25 -1.25,-1.25c0,-0.42311 0,-2.11554 0,-2.53866c0,-3.22815 0.57256,-6.38993 0.69344,-9.62961c0.24343,-6.52409 -0.11655,-13.03045 -0.57725,-19.52038c-0.00337,-5.57398 -1.34552,-10.70358 -2.06682,-16.14913c-0.341,-2.57445 -0.01106,-5.41346 -0.01106,-8.01268c0,0 0,-1.25 1.25,-1.25c1.25,0 1.25,1.25 1.25,1.25c0,2.47582 -0.35596,5.23452 -0.01106,7.68085c0.77748,5.51451 2.09102,10.74045 2.08735,16.39184c0.47115,6.55269 0.81891,13.12591 0.57668,19.7134c-0.11781,3.20378 -0.69128,6.33778 -0.69128,9.52571c0,0.42311 0,0.84622 0,1.26933v1.26933c0,0 0,1.25 -1.25,1.25z" fill="#c7d7e0" stroke-width="0.5"/><path d="M242.8188,346.31981c-1.25,0 -1.25,-1.25 -1.25,-1.25v-1.26932c0,-8.67007 -0.0453,-17.13722 -1.59828,-25.64128c-1.29065,-8.5116 0.27579,-17.30514 -1.04124,-25.86493c0,0 -0.19007,-1.23546 1.04539,-1.42553c1.23547,-0.19007 1.42553,1.04539 1.42553,1.04539c1.3143,8.54388 -0.29033,17.35273 1.03584,25.83135c1.56411,8.64492 1.63275,17.24541 1.63275,26.055v1.26932c0,0 0,1.25 -1.25,1.25z" fill="#c7d7e0" stroke-width="0.5"/><path d="M197.3145,275.29601c0.61165,0.61165 0.37678,1.22329 0.17407,1.54204c-0.65367,3.90238 0.26982,6.69621 4.21575,8.09094c0,0 1.17474,0.42718 0.74756,1.60192c-0.42718,1.17474 -1.60192,0.74757 -1.60192,0.74757c-5.18443,-1.92687 -6.70393,-5.93255 -5.76458,-11.20679l0.46135,-0.77567c0,0 0.88388,-0.88389 1.76777,0z" fill="#c7d7e0" stroke-width="0.5"/><path d="M194.58432,260.27492c1.25,0 1.25,1.25 1.25,1.25v0.46157c0,3.56259 0.7956,5.95125 2.00182,9.26587c0,0 0.42717,1.17474 -0.74757,1.60192c-1.17474,0.42718 -1.60192,-0.74757 -1.60192,-0.74757c-1.29314,-3.5589 -2.15234,-6.28742 -2.15234,-10.12023v-0.46157c0,0 0,-1.25 1.25,-1.25z" fill="#c7d7e0" stroke-width="0.5"/><path d="M198.96175,272.63982c-0.96027,0.80023 -1.76051,-0.16005 -1.76051,-0.16005l-0.77053,-1.01182c-1.45858,-3.51236 -2.17097,-5.82899 -1.82192,-9.71003c0,0 0.11317,-1.24487 1.35804,-1.13169c1.24487,0.11317 1.1317,1.35803 1.1317,1.35803c-0.32772,3.5632 0.29805,5.31161 1.63988,8.52215l0.3834,0.3729c0,0 0.80023,0.96028 -0.16004,1.76051z" fill="#cdd0e0" stroke-width="0.5"/><path d="M203.49107,284.68915c-0.6625,1.06 -1.7225,0.3975 -1.7225,0.3975l-0.68783,-0.46223c-3.87375,-1.42577 -3.85674,-3.63979 -4.16492,-7.30218c0,0 -0.1038,-1.24568 1.14187,-1.34949c1.24568,-0.10381 1.34949,1.14187 1.34949,1.14187c0.22522,2.72733 -0.27761,4.1549 2.52791,5.16032l1.15847,0.69171c0,0 1.06,0.6625 0.3975,1.7225z" fill="#cdd0e0" stroke-width="0.5"/><path d="M207.85457,325.2028c-1.25,0 -1.25,-1.25 -1.25,-1.25v-0.69237c0.00179,-2.7874 0.46427,-5.51695 0.46157,-8.30833c0.00501,-5.63751 -2.14108,-10.86774 -2.649,-16.38901c-0.2192,-2.38275 0.94411,-5.25507 -0.21926,-7.4c0,0 -0.55902,-1.11804 0.55902,-1.67705c1.11803,-0.55901 1.67705,0.55901 1.67705,0.55901c1.30172,2.74752 0.2388,5.38326 0.4731,8.29352c0.45181,5.61203 2.65436,10.87503 2.6591,16.61353c-0.00249,2.791 -0.46349,5.52399 -0.46157,8.30833v0.69237c0,0 0,1.25 -1.25,1.25z" fill="#cdd0e0" stroke-width="0.5"/><path d="M207.16221,341.70407c-1.25,0 -1.25,-1.25 -1.25,-1.25l0.01256,-0.63835c0.62677,-4.32442 0.78561,-8.7352 1.50456,-13.06819c0,0 0.2055,-1.23299 1.43849,-1.02749c1.23299,0.2055 1.0275,1.43849 1.0275,1.43849c-0.72201,4.31142 -0.88856,8.70478 -1.49568,13.01074l0.01256,0.2848c0,0 0,1.25 -1.25,1.25z" fill="#cdd0e0" stroke-width="0.5"/><path d="M206.48918,345.64678c0,-0.69036 0.55964,-1.25 1.25,-1.25c0.69036,0 1.25,0.55964 1.25,1.25c0,0.69036 -0.55964,1.25 -1.25,1.25c-0.69036,0 -1.25,-0.55964 -1.25,-1.25z" fill="#cdd0e0" stroke-width="0.5"/><path d="M244.89588,330.31877c1.25,0 1.25,1.25 1.25,1.25v0.11539c0,4.36395 0.23079,8.66971 0.23079,13.03947c0,0 0,1.25 -1.25,1.25c-1.25,0 -1.25,-1.25 -1.25,-1.25c0,-4.36975 -0.23079,-8.67462 -0.23079,-13.03947v-0.11539c0,0 0,-1.25 1.25,-1.25z" fill="#cdd0e0" stroke-width="0.5"/><path d="M242.08679,312.44243c1.24034,-0.15504 1.39539,1.08531 1.39539,1.08531l0.11051,0.88812c0.29327,1.91793 0.91467,3.71848 1.2637,5.62075c0,0 0.22361,1.22984 -1.00623,1.45344c-1.22984,0.22361 -1.45344,-1.00623 -1.45344,-1.00623c-0.34617,-1.9237 -0.97468,-3.74698 -1.27496,-5.68782l-0.12028,-0.95817c0,0 -0.15504,-1.24035 1.08531,-1.39539z" fill="#cdd0e0" stroke-width="0.5"/><path d="M242.8188,296.85465c1.25,0 1.25,1.25 1.25,1.25v0.57697c0,1.91305 -0.03678,3.62804 -0.4989,5.49588c0,0 -0.30317,1.21268 -1.51585,0.90951c-1.21268,-0.30317 -0.90951,-1.51585 -0.90951,-1.51585c0.42112,-1.66469 0.42425,-3.1804 0.42425,-4.88954v-0.57697c0,0 0,-1.25 1.25,-1.25z" fill="#cdd0e0" stroke-width="0.5"/><path d="M239.62704,289.25862c0.88388,-0.88389 1.76777,0 1.76777,0l0.2182,0.23185c0.26925,0.34618 0.5385,0.69236 0.80775,1.03854c0,0 0.76743,0.98669 -0.21926,1.75412c-0.98669,0.76743 -1.75412,-0.21927 -1.75412,-0.21927c-0.26925,-0.34618 -0.5385,-0.69236 -0.80775,-1.03854l-0.01259,0.00106c0,0 -0.88388,-0.88388 0,-1.76777z" fill="#cdd0e0" stroke-width="0.5"/><path d="M232.43338,276.77619c1.25,0 1.25,1.25 1.25,1.25v0.23079c-0.00218,3.43955 1.35002,5.90031 3.06074,8.83243c0,0 0.62984,1.07972 -0.44989,1.70956c-1.07972,0.62984 -1.70956,-0.44988 -1.70956,-0.44988c-1.93637,-3.32011 -3.39897,-6.18094 -3.4013,-10.09211v-0.23079c0,0 0,-1.25 1.25,-1.25z" fill="#cdd0e0" stroke-width="0.5"/></g></g></svg>