<svg version="1.1" xmlns="http://www.w3.org/2000/svg" xmlns:xlink="http://www.w3.org/1999/xlink" width="31.4359" height="15.03329" viewBox="0,0,31.4359,15.03329"><g transform="translate(-320.13127,-148.22611)"><g data-paper-data="{&quot;isPaintingLayer&quot;:true}" fill-rule="nonzero" stroke="none" stroke-width="0" stroke-linecap="butt" stroke-linejoin="miter" stroke-miterlimit="10" stroke-dasharray="" stroke-dashoffset="0" style="mix-blend-mode: normal"><path d="M320.26073,151.97109h30.3146v5.85835c-0.8255,0.37524 -1.45287,1.06971 -2.40537,1.3224c-1.89378,0.5024 -4.19608,-0.22429 -5.49651,-1.52145c-2.43401,-1.87472 -2.71963,1.00257 -4.18714,2.50512c-0.33456,0.34255 -0.84181,0.02927 -1.2285,0.17257c-0.55232,0.20467 -1.30713,1.11359 -1.79275,1.47969c-0.92196,1.0489 -3.7535,2.43012 -4.75406,0.51717c-0.66078,-1.26334 0.57995,-2.44566 -1.5814,-2.81433c-2.70789,-0.43661 -5.6948,-1.26833 -8.45018,-1.344c0.12513,-1.88162 -0.21663,-4.30526 -0.41869,-6.17552z" fill="#5f4b29"/><path d="M324.2392,151.81135c1.24578,-0.0132 4.70797,-3.54949 5.91106,-3.58456c1.63455,-0.04765 3.35512,2.41409 4.7972,2.21755c9.00384,-1.2271 14.66999,-0.4041 14.66999,-0.4041l1.59591,5.10693c0,0 2.34887,3.00595 -5.05754,-0.74897c-0.56484,-0.28636 -1.32281,3.41486 -1.95654,3.12544c-0.3911,-0.17861 -2.54783,-4.97686 -2.95929,-5.13734c-0.32791,-0.12789 -2.41588,4.53272 -2.75282,4.40655c-0.46403,-0.17376 1.13401,-3.69048 0.64454,-3.84623c-0.31983,-0.10177 -2.87768,4.58457 -3.20496,4.48364c-0.82665,-0.25494 -2.15347,-2.73074 -3.02198,-2.95578c-0.55587,-0.14404 -2.71337,2.58649 -3.28018,2.44669c-0.70105,-0.17291 -2.04696,-2.25282 -2.75997,-2.40836c-1.20982,-0.26391 -2.11818,3.30535 -3.35872,3.04947c-0.68725,-0.14176 -2.23957,-3.15222 -3.01847,-3.57205c-0.14652,-1.36273 -0.31911,-2.64786 -0.35616,-3.56355c1.35858,0.39632 2.89216,1.39755 4.10793,1.38467z" fill="#6ce13e"/></g></g></svg>