<svg version="1.1" xmlns="http://www.w3.org/2000/svg" xmlns:xlink="http://www.w3.org/1999/xlink" width="8.05828" height="14.4431" viewBox="0,0,8.05828,14.4431"><g transform="translate(-320.51249,-179.39932)"><g data-paper-data="{&quot;isPaintingLayer&quot;:true}" fill-rule="nonzero" stroke-linecap="butt" stroke-linejoin="miter" stroke-miterlimit="10" stroke-dasharray="" stroke-dashoffset="0" style="mix-blend-mode: normal"><path d="M326.08721,193.27984c-0.52317,0.23077 -1.21832,-0.1966 -1.55266,-0.95457l-0.86832,-1.96852c-0.33434,-0.75797 -0.18126,-1.55949 0.34191,-1.79026v0c0.52317,-0.23077 1.21832,0.1966 1.55266,0.95457l0.86832,1.96852c0.33434,0.75797 0.18126,1.55949 -0.34191,1.79026z" fill="#c5d8e2" stroke="#b5c7d0" stroke-width="1"/><path d="M321.09699,190.87182l-0.07494,-9.07498l6.65144,6.17407z" fill="#c5d8e2" stroke="#b5c7d0" stroke-width="1"/><path d="M324.75241,186.5394c-1.33471,0.60379 -1.97587,-0.34342 -2.16387,-1.53047c-0.13262,-0.08991 -0.21977,-0.24186 -0.21977,-0.41415v-0.66434h0.05662l-0.0159,-0.00571c0.00445,-0.0178 0.00916,-0.03552 0.01411,-0.05317c-0.00441,-0.02113 -0.00858,-0.04229 -0.01252,-0.06348c-0.06082,-0.00749 -0.12718,-0.02813 -0.19894,-0.06677c-0.44024,-0.23705 -0.20319,-0.67729 -0.20319,-0.67729c0.26408,-0.48946 0.48029,-0.99592 0.71545,-1.49977l0.23705,-0.57569c0.07217,-0.18739 0.25394,-0.32036 0.46676,-0.32036c0.26321,0 0.47892,0.20339 0.49855,0.46157l0.0695,0.79931l-0.13001,0.01131c0.13805,0.75667 0.13189,1.4742 0.13189,2.37467v0.52448c0,0.22692 -0.15117,0.41854 -0.3583,0.47964c0.13304,0.14623 0.31799,0.24865 0.58464,0.27984c0.01954,0.00228 0.03961,0.00214 0.06015,-0.00026c-0.37972,-0.7067 0.22926,-0.86856 1.06553,-1.08231c0.18165,-0.26703 0.33539,-0.51149 0.4276,-0.63387l0.0344,-0.01573l-0.01022,-0.01022l0.0572,-0.0572c0.02126,-0.05665 0.04045,-0.10973 0.05699,-0.15858l0.05861,-0.04069l-0.02548,-0.01699l0.27542,-0.41313c0.08903,-0.13785 0.24402,-0.2291 0.42033,-0.2291c0.27614,0 0.5,0.22386 0.5,0.5c0,0.05307 -0.00827,0.10422 -0.02359,0.15221l-0.08416,0.28614c-0.00535,0.05008 -0.01809,0.09794 -0.03712,0.14249l-0.01809,0.04523l-0.00419,0.01425c0.08207,0.08907 0.13219,0.20803 0.13219,0.3387c0,0.07388 -0.01602,0.14401 -0.04478,0.20712l-0.20094,0.46886c-0.20958,0.5813 -0.38034,0.90497 -0.67333,1.1951l0.06889,0.05741l-0.05325,0.0639c0.04091,0.07249 0.06425,0.15621 0.06425,0.24537c0,0.27614 -0.22386,0.5 -0.5,0.5c-0.02477,0 -0.04912,-0.0018 -0.07293,-0.00528c-0.08039,0.16854 -0.25237,0.285 -0.45154,0.285c-0.27614,0 -0.5,-0.22386 -0.5,-0.5c0,-0.03963 0.00461,-0.07819 0.01333,-0.11516l0.04515,-0.21068l-0.04065,-0.04496c0,0 -0.0049,-0.0098 -0.0118,-0.02723z" fill="#c5d8e2" stroke="none" stroke-width="0.5"/><path d="M326.24212,187.62156c-0.47434,-0.15811 -0.31623,-0.63246 -0.31623,-0.63246l0.08895,-0.25463c0.15568,-0.75901 0.46018,-1.45535 0.63204,-2.21531c0.06239,-0.2759 0.1968,-0.85944 0.29464,-1.22872c-0.37956,0.50336 -1.63659,1.36268 -2.32054,1.87266c-0.01448,0.07715 -0.11147,0.47653 -0.55955,0.41679c-0.01045,-0.00139 -0.02065,-0.00298 -0.0306,-0.00474c-0.13479,0.03901 -0.31264,0.03214 -0.48235,-0.15374c-0.33713,-0.36924 0.03211,-0.70638 0.03211,-0.70638c0.03259,-0.02975 0.06758,-0.06255 0.1048,-0.09801l0.01617,-0.12128c0.06296,-0.49637 -0.19022,-2.94148 -0.10972,-3.80487c-0.13201,0.21924 -0.31431,0.49334 -0.40407,0.63757c-0.38731,0.62237 -0.505,1.05943 -0.5921,1.78987c0,0 -0.06202,0.49614 -0.55816,0.43412c-0.49614,-0.06202 -0.43412,-0.55816 -0.43412,-0.55816c0.09136,-0.70315 1.07828,-4.20064 2.48948,-3.50357c0.84398,0.41689 0.82211,2.59673 0.70946,4.05251c1.0874,-0.98687 2.47098,-1.95903 3.11321,-0.77211c0.52439,0.96914 -0.73013,3.17895 -0.92013,4.15948l-0.12084,0.37474c0,0 -0.15811,0.47434 -0.63246,0.31623z" fill="#b5c7d0" stroke="none" stroke-width="0.5"/></g></g></svg>