<svg version="1.1" xmlns="http://www.w3.org/2000/svg" xmlns:xlink="http://www.w3.org/1999/xlink" width="15.47406" height="18.60416" viewBox="0,0,15.47406,18.60416"><g transform="translate(-303.86688,-158.78058)"><g data-paper-data="{&quot;isPaintingLayer&quot;:true}" fill-rule="nonzero" stroke="none" stroke-width="0" stroke-linecap="butt" stroke-linejoin="miter" stroke-miterlimit="10" stroke-dasharray="" stroke-dashoffset="0" style="mix-blend-mode: normal"><path d="M306.00514,159.89254c1.43942,1.08371 3.14056,2.94842 5.13156,1.71836c0.96713,-0.5975 1.1712,-2.52825 2.20266,-2.83031c1.16751,0.01122 2.87975,2.77459 4.32882,3.68516c0.03769,0.10434 0.14887,0.14882 0.14887,0.14882l0.41917,0.16281c0.08562,0.00024 1.30045,0.19601 0.88494,0.29045c-0.5926,0.35813 -1.59335,0.56247 -2.07316,1.01945c-1.08425,1.03265 0.38293,5.2537 0.38961,6.6943c0.2955,1.19282 2.14194,2.59107 1.8775,3.70555c-0.22925,0.96616 -1.86299,1.8952 -1.98057,2.89762c-2.35611,-0.41956 -5.2043,-0.67891 -7.50774,-0.68192c-1.06841,-0.20282 -4.3793,-0.12258 -4.98002,-1.18278c-0.67166,-1.1854 0.72395,-2.28533 0.72667,-3.46066c0,-1.23109 0.09817,-2.6266 0.1384,-4.02566c0.02551,-0.04378 0.07493,-0.15342 0.00673,-0.25814c0.03564,-1.53345 -0.00988,-3.05928 -0.34219,-4.36561c-0.48907,-0.74074 -0.90876,-1.33357 -1.50951,-1.96695c1.22673,-1.07811 0.37253,-2.42589 2.13826,-1.5505z" fill="#5f4b29"/><path d="M309.29348,171.31858c-1.71981,-1.8876 0.91981,-5.03826 2.87265,-7.18161c1.95283,-2.14336 1.68762,2.46728 3.51101,4.46856c1.8234,2.00128 -0.75375,3.91401 -2.71306,6.06447c-1.9593,2.15046 -1.95079,-1.46382 -3.6706,-3.35142z" fill="#a4a097"/></g></g></svg>