<svg version="1.1" xmlns="http://www.w3.org/2000/svg" xmlns:xlink="http://www.w3.org/1999/xlink" width="29.69434" height="33.09121" viewBox="0,0,29.69434,33.09121"><g transform="translate(-312.53849,-160.02505)"><g data-paper-data="{&quot;isPaintingLayer&quot;:true}" fill-rule="nonzero" stroke="none" stroke-linecap="butt" stroke-linejoin="miter" stroke-miterlimit="10" stroke-dasharray="" stroke-dashoffset="0" style="mix-blend-mode: normal"><path d="M314.24169,172.88726c1.24584,-1.25368 -0.96671,-2.96597 0.6255,-4.1806c0.52006,-0.49796 2.16303,-1.18242 2.41895,-1.73737c1.04116,-2.25768 -1.30001,-4.11534 -3.38969,-4.07048c1.97442,-0.68243 3.95525,-1.75365 5.98171,-2.24672l0.37496,-0.04951l-0.00026,-0.00198l0.00908,0.00066c0.81524,-0.16948 1.91174,-0.58866 2.70373,-0.57593c2.45158,0 4.8527,1.8489 7.25064,2.74285c-0.1027,0.2552 -0.15943,0.52792 -0.15943,0.81611c0.02846,1.69625 -1.97015,1.10499 -2.70727,2.267c-0.58563,0.9232 0.95819,1.89433 0.97319,2.91948c0.00559,0.38192 -0.49386,0.24931 -1.0047,0.12686c-0.00552,-0.00602 -0.01105,-0.01203 -0.0166,-0.01802l0.02866,-0.17197l-0.48855,-0.08143c-0.01483,-0.00274 -0.03012,-0.00418 -0.04575,-0.00418c-0.13807,0 -0.25,0.11193 -0.25,0.25c0,0.09662 0.05481,0.18044 0.13504,0.22206l0.29627,0.16112c0.19738,0.2117 0.36068,0.45817 0.48862,0.71774c0.60246,1.20124 0.2069,4.02438 1.09899,4.84719c0.17726,0.16349 1.17315,0.29082 1.47752,0.48474c1.01331,0.64561 1.47896,1.62381 2.17908,2.53662c0.77933,0.35434 1.49538,-0.24336 2.29628,-0.46838c1.83266,-0.51489 4.12224,-1.35937 6.03661,-1.38797c-2.04127,1.42724 -3.43607,3.30567 -4.58636,5.79095c-0.02457,2.22043 -0.74874,6.29794 0.05871,8.46631c-1.05655,-0.06948 -2.12277,0.09234 -3.09237,0.51747c-1.88193,1.24955 -5.25055,1.02855 -7.20808,2.35638c0.04298,-0.06863 0.04298,-0.14593 0.04298,-0.14593l-0.00669,-0.53621c-0.89205,-1.7841 -4.7546,-5.95701 -2.29438,-7.45898c0.32257,-0.1985 1.79112,-0.87479 1.82205,-1.27211c0.02845,-0.36555 -1.55475,-0.72907 -1.7975,-0.8333c-1.94869,-0.83664 -3.91155,-1.85129 -5.61802,-3.10686c-1.17797,-0.86672 -2.40187,-1.7605 -3.33177,-2.90802c-0.75239,-0.92846 -1.09563,-2.57074 -2.00435,-3.30692c0.7352,-0.12555 1.36891,-0.32428 1.70321,-0.66069z" fill="#8b8b8b" stroke-width="0"/><path d="M317.70062,162.03226c-0.20503,0.70307 -0.71994,1.27668 -1.03746,1.93706c-0.48201,-0.45777 -1.11626,-0.79362 -1.783,-0.95802c0.05802,-0.16765 0.11382,-0.35199 0.16851,-0.54734c0.8877,-0.35763 1.77823,-0.75569 2.67512,-1.10685c0.02646,0.23521 0.03743,0.46735 -0.02317,0.67515z" fill="#6a6a6a" stroke-width="0.5"/><path d="M315.28365,164.64128c-0.56378,-0.24162 -0.63355,-0.68084 -0.60323,-0.98435c0.64971,0.20634 1.27822,0.41323 1.72376,0.75184c-0.20068,0.22858 -0.5645,0.47081 -1.12053,0.23251z" fill="#6a6a6a" stroke-width="0.5"/><path d="M327.80361,164.11695c-0.24254,-0.97014 0.72761,-1.21268 0.72761,-1.21268l-0.10986,0.54314c0.12537,-0.43598 0.29144,-0.84909 0.48117,-1.2472c0.43823,0.20977 0.87606,0.40478 1.31379,0.56797c-0.1027,0.2552 -0.15943,0.52792 -0.15943,0.81611c0.00487,0.29009 -0.04955,0.51327 -0.14681,0.68977l-0.8938,0.57049c0,0 -0.97014,0.24254 -1.21268,-0.72761z" fill="#6a6a6a" stroke-width="0.5"/><path d="M331.10167,162.32943c-0.20434,0.38251 -0.38976,0.74481 -0.53271,1.06861c0.02275,-0.17601 0.07702,-0.34877 0.1576,-0.51604c0.05393,-0.02053 0.10668,-0.06499 0.13668,-0.15498c0.01376,-0.04129 0.01794,-0.0778 0.01546,-0.10992c0.06588,-0.09858 0.1406,-0.19465 0.22298,-0.28768z" fill="#6a6a6a" stroke-width="0.5"/><path d="M314.60248,173.27725c0.8,0.6 0.2,1.4 0.2,1.4l-0.44311,0.59036c-0.15086,0.20241 -0.28691,0.40629 -0.40495,0.61196c-0.33597,-0.68285 -0.63395,-1.43962 -1.0692,-1.97899l0.31727,-0.42333c0,0 0.03113,-0.0415 0.08865,-0.09851c0.29053,-0.08569 0.54476,-0.19161 0.74374,-0.32392c0.17168,0.00716 0.36311,0.06905 0.56761,0.22243z" fill="#6a6a6a" stroke-width="0.5"/><path d="M327.2704,178.96582c-0.6247,0.78087 -1.40556,0.15617 -1.40556,0.15617l-1.12899,-1.26596c-0.26911,-2.15325 -1.22658,-4.26804 -1.22597,-6.36756c0.00002,-0.07271 0.18468,-2.33866 -0.26024,-2.63577c-0.18485,-0.12344 -3.87469,0.73998 -4.37416,0.74243c0,0 -1,0 -1,-1c0,-1 1,-1 1,-1c1.19438,0.00685 4.405,-1.12003 5.37183,-0.47582c0.73217,0.48785 0.99566,1.48486 1.23991,2.33009c0.28222,0.97662 -0.24038,2.0622 0.00088,3.04973c0.43024,1.76102 0.99972,3.2484 1.23231,5.10883l0.39382,-0.04771c0,0 0.78087,0.6247 0.15617,1.40556z" fill="#6a6a6a" stroke-width="0.5"/><path d="M319.55669,176.09875c0,0 0.11043,-0.99388 1.10432,-0.88345c0.99388,0.11043 0.88345,1.10432 0.88345,1.10432c-0.14462,1.26949 -1.15153,3.35665 -1.27976,4.97261c-0.61349,-0.34417 -1.21241,-0.71103 -1.78738,-1.10276c0.33575,-1.43988 0.95316,-2.92095 1.07938,-4.09072z" fill="#6a6a6a" stroke-width="0.5"/><path d="M323.06883,185.29735c-0.0227,0.17019 -0.16479,0.38732 -0.34594,0.62412c0.06265,-0.22874 0.17471,-0.43855 0.34594,-0.62412z" fill="#6a6a6a" stroke-width="0.5"/><path d="M326.08699,181.59332c0.70711,-0.70711 1.41421,0 1.41421,0l0.15216,0.17962c2.8999,2.11669 1.48522,5.04666 -0.609,7.17356c0,0 -0.70711,0.70711 -1.41421,0c-0.70711,-0.70711 0,-1.41421 0,-1.41421c1.02616,-1.00667 2.76479,-3.068 0.91381,-4.09524l-0.45697,-0.42951c0,0 -0.70711,-0.70711 0,-1.41421z" fill="#6a6a6a" stroke-width="0.5"/><path d="M331.66709,178.27516c-1,0 -1,-1 -1,-1c0,-0.40608 0,-0.81217 0,-1.21825v-0.25573c0.61643,0.59821 1.01608,1.33859 1.55431,2.04032c0.07781,0.03538 0.15499,0.06127 0.23169,0.07898c-0.14377,0.19318 -0.38414,0.35467 -0.78599,0.35467z" fill="#6a6a6a" stroke-width="0.5"/><path d="M339.39946,176.90085c-0.27789,-0.00654 -0.73003,-0.10529 -0.90659,-0.64613c0.70882,-0.15469 1.40703,-0.25979 2.06141,-0.26957c-0.40993,0.28662 -0.79378,0.59143 -1.15482,0.91569z" fill="#6a6a6a" stroke-width="0.5"/><path d="M342.12822,175.79305c-0.27869,0.52096 -1.02632,0.58562 -1.53948,0.87844l-0.16256,0.03622c0.54485,-0.42019 1.14266,-0.80394 1.80665,-1.15621c-0.02705,0.08065 -0.06162,0.16119 -0.10461,0.24155z" fill="#6a6a6a" stroke-width="0.5"/><path d="M333.26593,181.83272c0,0 -0.14142,-0.98995 0.84853,-1.13137c0.98995,-0.14142 1.13137,0.84853 1.13137,0.84853c0.09798,0.74324 0.27848,1.44923 0.6186,2.0406c-0.06675,0.83763 -0.14852,1.75767 -0.19057,2.66775c-1.44194,-0.98649 -2.13108,-2.59615 -2.40793,-4.42551z" fill="#6a6a6a" stroke-width="0.5"/><path d="M332.09973,189.8721c0.19223,-0.55146 0.72821,-0.91321 1.09232,-1.36981c0,0 0.65079,-0.75926 1.41005,-0.10847c0.75926,0.65079 0.10847,1.41005 0.10847,1.41005c-0.18986,0.19685 -0.34493,0.3794 -0.46835,0.54874c-0.44839,0.08793 -0.88727,0.22282 -1.30796,0.40728c-0.28701,0.19057 -0.6086,0.34693 -0.95449,0.4798c-0.04492,-0.46383 -0.03032,-0.93646 0.11997,-1.36759z" fill="#6a6a6a" stroke-width="0.5"/></g></g></svg>