<svg version="1.1" xmlns="http://www.w3.org/2000/svg" xmlns:xlink="http://www.w3.org/1999/xlink" width="63.1495" height="71.99884" viewBox="0,0,63.1495,71.99884"><g transform="translate(-214.06118,-167.34678)"><g data-paper-data="{&quot;isPaintingLayer&quot;:true}" fill-rule="nonzero" stroke="none" stroke-linecap="butt" stroke-linejoin="miter" stroke-miterlimit="10" stroke-dasharray="" stroke-dashoffset="0" style="mix-blend-mode: normal"><path d="M224.86317,202.03335c0,0 -1.68056,-20.15141 -2.42337,-31.41205c2.05409,0.83267 4.59235,1.28517 6.46044,1.74475c2.57986,1.13604 6.19418,1.91093 8.99892,1.91093c3.28644,0 6.57287,0 9.85931,0c2.01671,0 4.03342,0 6.05014,0c-0.06834,4.25901 -0.94752,9.01522 -1.1571,13.41687c-0.39713,8.34034 -0.19302,15.40772 -0.19302,15.40772z" fill="#c5d8e2" stroke-width="0"/><g stroke-width="0.5"><path d="M232.266,218.87772c0.29577,1.99613 0.41252,4.14921 0.41252,6.18427c0,0.15859 0.00043,0.31709 0.00125,0.47551c-0.31677,0.00223 -0.63341,0.0035 -0.94987,0.0035c-1.54755,0 -3.0951,0 -4.64264,0c0.00053,-0.09397 0.00089,-0.18783 0.00108,-0.28158c-0.27916,-2.23326 0.1683,-4.58255 -0.15856,-6.79736c-0.18068,-1.22428 -0.59068,-2.46734 -0.75237,-3.70444c1.52233,0.3229 3.3048,-0.05892 4.79358,-0.05892c0.28257,0 0.56329,-0.00476 0.84199,-0.02507c0.32896,1.37648 0.24404,2.79364 0.45302,4.20409z" fill="#b0c1ca"/><path d="M226.85673,218.4114c-0.15127,-1.14201 -0.00591,-2.40098 -0.00493,-3.55468c0.36364,0.03255 0.73676,0.0363 1.11266,0.02436c-0.00335,1.09264 -0.15671,2.30565 -0.00487,3.38263c0.3452,2.44842 0.92782,4.76902 0.92905,7.27729c-0.37072,0 -0.74143,0 -1.11215,0c-0.01068,-2.45846 -0.60124,-4.72481 -0.91977,-7.12959z" fill="#c7d7e0"/><path d="M227.72717,218.64434c-0.09757,-1.06053 0.42021,-2.33896 -0.09759,-3.29363c0,0 -0.11772,-0.23543 -0.02928,-0.46338c0.33801,-0.00037 0.68008,-0.01707 1.02125,-0.0404c0.00218,0.00399 0.00326,0.00617 0.00326,0.00617c0.57937,1.22288 0.10628,2.39601 0.21057,3.69133c0.19061,2.3676 1.08131,4.59563 1.17547,6.99661c-0.37071,0 -0.74142,0 -1.11214,0c-0.08958,-2.35868 -0.95748,-4.5696 -1.17155,-6.89668z" fill="#cdd0e0"/></g><g stroke-width="0.5"><path d="M250.66026,217.45675c1.21017,1.5634 2.37716,3.19846 3.48571,4.859c-1.50371,0.37762 -2.94946,0.95195 -4.35128,1.65641c-1.77011,-2.88421 -3.48237,-5.78517 -5.73312,-8.28568c1.38314,-0.47134 2.55562,-0.87423 3.80184,-1.52263c0.77508,1.22164 1.89003,2.12141 2.79684,3.29291z" fill="#b0c1ca"/><path d="M244.78725,215.62291c0,0 -0.05142,-0.05947 -0.09325,-0.15306c0.375,-0.12957 0.73666,-0.25759 1.09144,-0.39116c2.11928,2.52098 3.5086,5.59725 5.46599,8.21793c-0.34511,0.14625 -0.68739,0.30134 -1.02704,0.46438c-1.90134,-2.63495 -3.29772,-5.66381 -5.43713,-8.1381z" fill="#c7d7e0"/><path d="M247.3324,216.42237c0.47129,-0.29566 0.76694,0.17563 0.76694,0.17563l0.13647,0.21754c0.45249,0.72129 0.84427,1.3766 1.11182,2.19015c0,0 0.17252,0.52893 -0.3564,0.70146c-0.52893,0.17252 -0.70146,-0.3564 -0.70146,-0.3564c-0.23497,-0.72725 -0.5923,-1.29947 -0.99656,-1.94388l-0.13647,-0.21754c0,0 -0.29565,-0.47129 0.17564,-0.76695z" fill="#cdd0e0"/></g><path d="M252.86839,202.96876c0.05703,0.19959 0.0183,0.34599 -0.05266,0.45111l-0.03104,0.16689c0,1.00428 0,2.00856 0,3.01284c0,0.72347 0.03643,1.34894 -0.19197,2.05046c-0.46724,1.43508 -1.36648,2.25274 -2.49516,2.68755v0.14767c0,1.88327 0.49504,4.62498 -1.90119,5.0335c-0.46833,0.00107 -0.92542,-0.0222 -1.3775,-0.05732c-0.00553,0.05522 -0.01027,0.11027 -0.01424,0.16516c-1.45507,-0.10772 -2.69168,-0.3927 -4.20326,-0.78708c0,0 -0.21337,-0.05334 -0.28988,0.14017c-0.4022,-0.11575 -0.77605,-0.30044 -1.06794,-0.60545c-1.17175,-1.22439 -1.11708,-2.99635 -1.28606,-4.57128c-1.7658,-0.32363 -3.59285,-0.35032 -5.42555,-0.33968c0.02344,0.12856 0.00208,0.23537 0.00208,0.23537l-0.07403,0.35947c-0.22076,1.94277 -0.4986,3.60234 -2.50322,3.87566c0.01347,0.03934 0.02651,0.07872 0.03913,0.11814c-0.23454,0.01296 -0.47043,0.01479 -0.70573,0.01479c-1.46046,0 -3.34103,0.43575 -4.84535,0.04331c-0.00333,-0.04927 -0.00615,-0.09852 -0.00845,-0.14775c-0.36151,-0.06865 -0.70351,-0.16721 -1.01362,-0.30557c-0.03557,-0.02435 -0.07069,-0.04958 -0.10535,-0.07573c0,0 -0.06787,-0.0509 -0.15419,-0.05387c-0.38434,-0.21429 -0.70671,-0.50311 -0.93849,-0.88931c-0.78747,-1.31211 -0.48896,-3.16189 -0.48266,-4.63054c-1.63022,-1.63705 -1.41826,-5.0258 -1.1343,-7.04633c0,0 0.06413,-0.44892 0.48189,-0.47827c0.28606,-0.16467 0.58616,0.04969 0.58616,0.04969c2.1287,1.5205 5.04326,1.38896 7.57377,1.74952c1.28314,0.18283 2.59522,0.49586 3.89414,0.4909c4.9269,0 9.90589,0.21333 14.7507,-0.41803c0.61664,-0.13691 1.12832,-0.30473 1.69297,-0.58872l0.3697,-0.11181c0.09647,-0.08326 0.23807,-0.13918 0.44413,-0.10484c0.16286,0.02714 0.26933,0.09457 0.33854,0.17597c0.05311,0.05852 0.09835,0.13747 0.12861,0.24339z" fill="#b0c1ca" stroke-width="0.5"/><path d="M227.72734,222.33838c0.1635,0 0.27894,0.04805 0.36047,0.1159c-0.23622,0.0037 -0.47035,-0.00055 -0.70014,-0.01631c0.08003,-0.05911 0.18961,-0.09959 0.33967,-0.09959z" fill="#c7d7e0" stroke-width="0.5"/><path d="M224.88507,209.15651c0.27223,0.27223 0.1677,0.54447 0.07748,0.68634c-0.29094,1.7369 0.12009,2.98039 1.87637,3.60116c0,0 0.52286,0.19013 0.33273,0.71299c-0.19013,0.52286 -0.71299,0.33274 -0.71299,0.33274c-2.30751,-0.85762 -2.98383,-2.64049 -2.56574,-4.98798l0.20534,-0.34524c0,0 0.39341,-0.39341 0.78681,0z" fill="#c7d7e0" stroke-width="0.5"/><path d="M223.6699,202.47085c0.55635,0 0.55636,0.55635 0.55636,0.55635v0.20544c0,1.58566 0.35411,2.64881 0.89098,4.1241c0,0 0.19012,0.52286 -0.33273,0.71299c-0.52286,0.19013 -0.71299,-0.33274 -0.71299,-0.33274c-0.57556,-1.58401 -0.95798,-2.79844 -0.95798,-4.50437v-0.20544c0,0 0,-0.55635 0.55635,-0.55635z" fill="#c7d7e0" stroke-width="0.5"/><path d="M225.61824,207.97428c-0.4274,0.35617 -0.78358,-0.07124 -0.78358,-0.07124l-0.34295,-0.45034c-0.6492,-1.5633 -0.96626,-2.5944 -0.81091,-4.32179c0,0 0.05036,-0.55408 0.60444,-0.5037c0.55407,0.05037 0.5037,0.60444 0.5037,0.60444c-0.14587,1.58593 0.13265,2.36412 0.72988,3.79309l0.17065,0.16598c0,0 0.35617,0.4274 -0.07124,0.78357z" fill="#cdd0e0" stroke-width="0.5"/><path d="M227.63417,213.33727c-0.29487,0.47179 -0.76666,0.17692 -0.76666,0.17692l-0.30615,-0.20573c-1.72415,-0.63459 -1.71658,-1.62002 -1.85374,-3.2501c0,0 -0.0462,-0.55444 0.50823,-0.60064c0.55443,-0.0462 0.60063,0.50823 0.60063,0.50823c0.10024,1.2139 -0.12355,1.84929 1.12514,2.29679l0.51561,0.30787c0,0 0.4718,0.29487 0.17692,0.76666z" fill="#cdd0e0" stroke-width="0.5"/><path d="M240.51598,209.81532c0.55635,0 0.55635,0.55636 0.55635,0.55636v0.10272c-0.00097,1.53089 0.60088,2.62614 1.36229,3.93118c0,0 0.28033,0.48056 -0.20024,0.7609c-0.48057,0.28034 -0.7609,-0.20023 -0.7609,-0.20023c-0.86185,-1.47773 -1.51283,-2.75105 -1.51387,-4.49185v-0.10272c0,0 0.00001,-0.55636 0.55636,-0.55636z" fill="#cdd0e0" stroke-width="0.5"/><g stroke-width="0.5"><path d="M253.72247,223.87017c-0.00508,3.68236 1.30285,7.28457 1.30285,10.99278v0.16195c1.18794,-0.16168 2.7959,-0.91517 3.76385,-0.40036c1.04121,0.55376 1.23816,3.57718 0.34018,4.35431c-0.07619,0.06594 -1.28752,0.26409 -1.52668,0.2811c-1.34777,0.09588 -2.76166,0.08115 -4.11084,0.08283c-1.62856,0 -3.25712,0.0011 -4.88568,0c-0.39254,-0.00027 -1.33482,0.04233 -1.63738,-0.19325c-0.86595,-0.67424 -0.63861,-3.22401 -0.37244,-4.14341c0.08691,-0.30021 0.1091,-0.66407 0.3413,-0.87327c0.40203,-0.3622 1.7207,-0.31076 2.25094,-0.37705c0,0 0.00041,-0.00005 0.00122,-0.00014v-0.11415c0,-3.99509 -0.08143,-7.97511 -0.08143,-11.96992c0,-0.33598 0.00163,-0.67186 0.00419,-1.00759c1.56752,0.15145 3.10116,0.44003 4.5841,0.93124c0.01743,0.76117 0.02582,1.52035 0.02582,2.27491z" fill="#b0c1ca"/><g><path d="M250.4869,233.91768v-0.56495c0,-3.85892 -0.02016,-7.62753 -0.71137,-11.41256c-0.0615,-0.40558 -0.10842,-0.81259 -0.14391,-1.22076c0.3777,0.04422 0.75331,0.0969 1.12658,0.15897c0.03124,0.29335 0.06907,0.58594 0.1147,0.87765c0.69616,3.84773 0.72671,7.67569 0.72671,11.59671v0.56495c0,0 0,0.55636 -0.55635,0.55636h-0.00001c-0.55635,0 -0.55636,-0.55636 -0.55636,-0.55636z" fill="#c7d7e0"/><path d="M251.96773,227.35221c0.55635,0 0.55636,0.55636 0.55636,0.55636v0.05136c0,1.94233 0.10272,3.85877 0.10272,5.80368c0,0 0,0.55636 -0.55635,0.55636c-0.55635,0 -0.55636,-0.55636 -0.55636,-0.55636c0,-1.94492 -0.10272,-3.86095 -0.10272,-5.80368v-0.05136c0,0 0,-0.55636 0.55635,-0.55636z" fill="#cdd0e0"/><path d="M251.95016,222.77576c0,0 0.09952,0.54738 -0.44786,0.64691c-0.54739,0.09952 -0.64691,-0.44786 -0.64691,-0.44786c-0.1318,-0.73242 -0.35555,-1.43213 -0.50115,-2.15986c0.39632,0.0586 0.79013,0.12732 1.18114,0.20726c0.13622,0.58474 0.30549,1.15794 0.41478,1.75355z" fill="#cdd0e0"/></g></g><path d="M254.00378,174.28957c-0.03098,-0.00344 -0.061,-0.00766 -0.09009,-0.0126c0.16369,0 0.32737,0 0.49106,0c-0.11672,0.02322 -0.24964,0.02941 -0.40096,0.0126z" fill="#c5d8e2" stroke-width="0.5"/><path d="M222.39324,171.59289c-1.0911,0.21822 -1.30933,-0.87288 -1.30933,-0.87288l-0.10086,-0.51624c-0.01456,-0.10918 -0.02914,-0.21786 -0.04365,-0.32614c0.66511,0.40995 1.44815,0.74774 2.2823,1.03579c-0.0935,0.28345 -0.31729,0.57725 -0.82845,0.67949z" fill="#c5d8e2" stroke-width="0.5"/><path d="M222.2679,173.12508c-1.11271,0 -1.11271,-1.11272 -1.11271,-1.11272l0.00552,-0.35779c-0.03905,-0.39042 -0.07808,-0.78086 -0.11713,-1.17128c0,0 -0.02392,-0.23918 0.06165,-0.50633c0.65657,0.38231 1.41677,0.69982 2.22149,0.97237c0.01613,0.16127 0.03225,0.32253 0.04838,0.4838l0.00553,0.57923c0,0 0,1.11272 -1.11272,1.11272z" fill="#c5d8e2" stroke-width="0.5"/><path d="M224.14194,201.47001c-1.11271,0 -1.11271,-1.11271 -1.11271,-1.11271l0.00114,-1.2217c0.26887,-2.9473 0.89281,-5.63266 0.59002,-8.62344c0,0 -0.03292,-0.32922 0.11665,-0.64656c-0.17281,-0.63702 -0.33948,-1.25758 -0.34658,-1.30765c-0.2276,-1.60389 0.05443,-3.2618 -0.22847,-4.8812c-0.22143,-1.26754 -0.66413,-2.50145 -0.8255,-3.7849c-0.1701,-1.35287 -0.39036,-2.64086 -0.58387,-3.96981c-0.20316,-1.39519 0.20192,-2.02232 -0.47996,-3.29493c0,0 -0.49763,-0.99524 0.49761,-1.49286c0.99524,-0.49762 1.49286,0.49762 1.49286,0.49762c0.22445,0.47108 0.55264,0.90558 0.67334,1.41325c0.19691,0.82819 -0.11265,1.71256 0.01797,2.55375c0.39858,2.56694 0.95574,5.13152 1.4017,7.70615c0.28476,1.64407 0.00639,3.3357 0.24004,4.95753c0.11993,0.83249 0.45211,1.62028 0.67341,2.43173l0.23064,0.80698c0,0 0.27205,0.9522 -0.59545,1.31667c-0.07708,2.14664 -0.45151,4.21187 -0.65128,6.4185l0.00114,1.12086c0,0 0,1.11271 -1.11271,1.11271z" fill="#c5d8e2" stroke-width="0.5"/><path d="M252.8066,203.06286c-1.06579,0.31974 -1.38552,-0.74606 -1.38552,-0.74606l-0.3771,-1.27479c-0.30794,-2.99504 -0.1846,-6.37785 0.45591,-9.35592c-0.00862,-0.06986 -0.00861,-0.11339 -0.00861,-0.11339v-0.23426c0.00251,-2.02715 -0.56475,-3.86179 -0.46737,-5.90681c0.08917,-1.87268 0.56717,-3.52792 0.96166,-5.34135c0.42403,-1.94926 0.57462,-3.85636 0.7306,-5.81333c0.74383,0 1.48765,0 2.23148,0c-0.1728,2.11876 -0.33099,4.18507 -0.78822,6.28964c-0.3677,1.69246 -0.82919,3.21891 -0.91237,4.96589c-0.08594,1.80469 0.36513,3.45549 0.45449,5.2329c0.21183,0.39187 0.09906,0.84294 0.09906,0.84294c-0.71149,2.77107 -0.849,6.1414 -0.57363,9.00126l0.32567,1.06776c0,0 0.31974,1.06579 -0.74605,1.38552z" fill="#c5d8e2" stroke-width="0.5"/><path d="M253.68723,200.8594c0.55206,0.9661 -0.41405,1.51817 -0.41405,1.51817l-0.70432,0.39257c-0.20077,0.15057 -2.1855,1.63959 -2.19573,1.64427c-1.56488,0.71604 -3.83136,0.33519 -5.49957,0.33519c-5.5147,0 -10.79078,-0.90427 -16.26356,-1.41003c-1.86723,-0.17256 -4.65295,0.67264 -5.82542,-1.45259c-0.28301,-0.51298 0.01062,-1.17168 0.01592,-1.75752c0,0 0.11072,-1.10719 1.21791,-0.99647c1.10719,0.11072 0.99647,1.21791 0.99647,1.21791c-0.07277,0.19502 -0.27453,0.38462 -0.21834,0.58504c0.12591,0.44905 0.92076,0.1725 1.38699,0.18384c1.36892,0.0333 2.6041,0.06581 3.96069,0.24272c4.91376,0.64081 9.77512,1.16167 14.72933,1.16167c1.23406,0 3.42638,0.4411 4.57343,-0.13332c0.6767,-0.33889 1.18118,-0.94694 1.78661,-1.40105l0.93546,-0.54445c0,0 0.96611,-0.55206 1.51817,0.41405z" fill="#c5d8e2" stroke-width="0.5"/><path d="M223.70126,179.00666c0,0.55635 -0.55636,0.55636 -0.55636,0.55636l-0.0633,-0.00164c-1.4002,0.1069 -2.73958,0.07648 -4.09959,-0.29635c-0.52443,-0.2418 -0.91524,-0.3392 -1.27185,-0.83758c-0.75099,-1.04958 -0.84688,-3.29414 -0.79059,-4.53269c0.00978,-0.21525 0.11731,-1.31115 0.18364,-1.42497c0.782,-1.34185 3.00887,-1.60835 4.34351,-1.48828c0,0 0.55407,0.05037 0.5037,0.60445c-0.05037,0.55408 -0.60444,0.5037 -0.60444,0.5037c-0.92251,-0.08481 -2.72467,0.01647 -3.28652,0.94909c-0.14254,0.2366 -0.02732,1.17987 -0.02774,1.46407c-0.00182,1.24349 0.09192,3.16565 1.32812,3.71561c1.20011,0.32513 2.40313,0.32914 3.63642,0.23351l0.14865,-0.00163c0,0 0.55636,0 0.55636,0.55635z" fill="#b0c1ca" stroke-width="0.5"/><path d="M273.62602,196.77233c0.12547,0.6002 0.93348,1.05591 1.13784,1.63867c0.34842,0.9935 -0.7481,0.79574 -1.29993,0.58822c-0.9158,-0.34439 -2.22887,-2.94441 -1.34665,-3.3903c-0.02356,-0.06151 -0.04288,-0.12803 -0.05752,-0.19968l-0.0589,-0.10262c-0.78536,-1.40054 -2.27998,-2.45476 -3.3133,-3.67191c-1.33954,-1.57784 -2.60161,-2.98513 -4.15543,-4.38345c0.90336,-0.19941 1.47878,-0.88584 2.44581,-1.23235c0.70203,0.76954 1.59338,1.34192 2.29662,2.13657c1.54569,1.74662 3.05979,3.36445 4.3079,5.34303c0.38465,-0.15598 0.72977,-0.17462 0.87947,0.07014c0.20122,-0.01666 0.40526,-0.00554 0.59403,0.03875c0.54067,0.12685 3.42079,1.76954 1.5057,2.1564c-0.03754,0.00759 -0.07697,0.00868 -0.11488,0.0032c-0.62842,-0.09094 -1.16778,-0.32921 -1.6963,-0.50147c-0.01694,0.02975 -0.0369,0.05904 -0.06024,0.08778c-0.3153,0.38827 -0.73955,0.66386 -1.15666,0.78823c0.02978,0.21615 0.05147,0.43472 0.09246,0.6308zM267.55838,187.96749c-0.52606,-0.47747 -1.03115,-0.82515 -1.48618,-1.31c-0.08316,0.09136 -0.17947,0.17047 -0.28498,0.2368c1.35848,1.27761 2.5176,2.58704 3.7432,4.014c0.94133,1.09599 2.16985,2.06635 3.03937,3.24567c0.02339,-0.02124 0.0473,-0.04236 0.07164,-0.06331c-1.38259,-2.22036 -3.15121,-4.36975 -5.08305,-6.12314z" fill="#b0c1ca" stroke-width="0.5"/><path d="M265.71452,187.56695c-0.03284,0.03229 -0.06533,0.05998 -0.09687,0.08239c-0.54381,0.38635 -1.51172,0.2558 -1.9732,-0.19512c-0.43203,-0.42216 -0.58449,-0.8755 -0.54686,-1.31368c-0.41373,-0.38917 -0.81921,-0.73868 -1.19174,-1.20078c-2.56267,-2.55724 -4.37871,-6.07159 -7.35637,-8.14213c0,0 -0.45579,-0.31905 -0.13674,-0.77483c0.31905,-0.45578 0.77483,-0.13673 0.77483,-0.13673c3.05267,2.14933 4.91814,5.67704 7.54738,8.31161c0.26246,0.33084 0.54388,0.59638 0.83362,0.86403c0.12283,-0.15391 0.26439,-0.29854 0.41857,-0.43077c-0.54318,-0.47447 -0.96101,-1.00878 -1.44887,-1.56707c-1.22398,-1.75543 -2.65368,-3.39656 -3.89216,-5.15003c-0.78415,-1.11022 -1.71187,-3.02285 -2.99738,-3.63687c0.25506,0 0.51012,0 0.76518,0c0.31146,0 0.62115,-0.01855 0.92893,-0.05351c0.86785,0.90382 1.54733,2.10603 2.21341,3.05026c1.22649,1.73868 2.63821,3.36799 3.85779,5.10375c0.51717,0.59026 0.93147,1.15418 1.56515,1.62696l0.01582,0.01529c0.2875,-0.11371 0.57664,-0.18004 0.84267,-0.18617c0,0 0.14566,0.00001 0.28791,0.07453c0.25732,1.20825 1.06057,1.98735 0.52837,3.32358c-0.26023,0.201 -0.60518,0.33197 -0.93946,0.33533z" fill="#b0c1ca" stroke-width="0.5"/><path d="M226.9706,230.83052c0,-0.12291 0.09963,-0.22254 0.22254,-0.22254c0.12291,0 0.22254,0.09964 0.22254,0.22254c0,0.12291 -0.09964,0.22254 -0.22254,0.22254c-0.12291,0 -0.22254,-0.09964 -0.22254,-0.22254z" fill="#6b767b" stroke-width="0.5"/><g><path d="M248.10891,225.07619c-0.15736,-0.15736 0,-0.31473 0,-0.31473l0.20776,-0.1549c1.2413,-0.24293 2.63513,-0.00903 3.88786,-0.00145c0.41998,0.13619 1.04475,0.1899 1.38293,0.47758c0.05994,0.051 0.13331,0.14111 0.20532,0.24417c-0.10002,-0.42907 -0.18344,-1.00193 -0.24331,-1.40936l-0.09967,-0.13288c-0.02876,-0.0375 -0.04586,-0.08442 -0.04586,-0.13532c0,-0.12291 0.09964,-0.22255 0.22254,-0.22255c0.06145,0 0.11709,0.02492 0.15736,0.06519l0.2351,0.2351c0.18649,0.18685 0.32298,0.49767 0.38483,0.66245c-0.12261,-0.48868 0.18398,-1.09778 -0.11562,-1.5564c-0.05012,-0.06774 -0.12462,-0.12299 -0.15038,-0.20323c-0.3739,-1.16413 0.6359,-0.38305 0.98782,-0.07399c-0.0597,-0.13416 -0.10968,-0.33429 -0.11219,-0.34272c-0.07335,-0.24607 -0.15275,-0.51769 -0.35572,-0.69837c-0.33692,-0.29991 -1.47844,-0.56262 -1.89948,-0.55922c-1.66703,-0.32764 -3.49772,0.07734 -5.1173,-0.38364c0,0 -0.21398,-0.06114 -0.15285,-0.27511c0.06113,-0.21398 0.27512,-0.15285 0.27512,-0.15285c1.58954,0.45601 3.3994,0.03342 5.03889,0.36868c1.11975,0.00806 2.86433,0.71941 2.7856,2.08031c-0.05345,0.92396 -0.60789,0.42507 -0.89321,0.08014c0.15528,0.44822 0.45439,2.09668 0.0761,2.25132c-0.15165,0.06199 -0.31023,-0.01883 -0.46064,-0.15496c0.15801,0.58647 0.23002,1.25446 0.0529,1.41893c-0.12436,0.11548 -0.33504,0.1594 -0.49723,0.10944c-0.24555,-0.07563 -0.37384,-0.69914 -0.57623,-0.8846c-0.24708,-0.22642 -0.83506,-0.25785 -1.15613,-0.36876c-1.19759,0.00799 -2.54457,-0.24453 -3.72928,-0.00145l0.01967,0.03318c0,0 -0.15736,0.15736 -0.31472,0z" fill="#6b767b" stroke-width="0.5"/><path d="M248.21925,224.82479c0,0 -0.04702,-1.85621 -0.04702,-2.63308c0,-0.63719 0.18808,-1.73972 0.18808,-1.73972c0,0 4.83867,0.20088 6.00599,0.51638c0.49123,0.13277 0.95287,1.3644 0.95287,1.3644c0,0 -0.88606,0.87988 -0.76709,1.68093c0.11606,0.78146 -0.69051,1.18725 -0.69051,1.18725c0,0 -1.80682,-0.58751 -2.7215,-0.64849c-0.96355,-0.06423 -2.92083,0.27233 -2.92083,0.27233z" fill="#606a6e" stroke-width="0"/><path d="M248.23845,221.49337c-0.05397,-0.2159 0.16192,-0.26988 0.16192,-0.26988l0.24205,-0.05366c0.31346,0 0.62692,0 0.94039,0c1.57422,0 2.97603,0.5908 4.51049,0.89769c0,0 0.21822,0.04364 0.17457,0.26187c-0.04364,0.21822 -0.26187,0.17458 -0.26187,0.17458c-1.50517,-0.30104 -2.88215,-0.88905 -4.4232,-0.88905c-0.31346,0 -0.62692,0 -0.94039,0l-0.1341,0.04038c0,0 -0.2159,0.05398 -0.26987,-0.16192z" fill="#303537" stroke-width="0.5"/><path d="M247.90267,223.08507c0,-0.22254 0.22254,-0.22254 0.22254,-0.22254l0.05039,0.00432c0.32175,-0.06435 0.62092,-0.17001 0.94039,-0.2351c1.37661,-0.2694 3.48508,0.0526 4.59699,0.88653c0,0 0.17803,0.13353 0.04451,0.31156c-0.13353,0.17803 -0.31156,0.04451 -0.31156,0.04451c-1.00266,-0.752 -2.99585,-1.06198 -4.24264,-0.80617c-0.31827,0.06225 -0.61935,0.17089 -0.94039,0.2351l-0.13769,0.00432c0,0 -0.22254,0 -0.22254,-0.22254z" fill="#303537" stroke-width="0.5"/></g><path d="M221.94475,203.82724c-0.17361,-0.2755 -0.17361,-0.58685 -0.17361,-0.58685v-0.48856c0.00087,-1.29442 -0.2196,-3.18255 1.18778,-3.98116c1.15463,-0.65518 3.4435,0.57776 4.64298,0.79895c4.12583,0.76081 8.22574,1.52935 12.43343,1.52935c2.83322,0 5.53193,-0.17386 8.33437,-0.56097c0.80241,-0.11084 3.09131,-0.80843 3.8124,-0.54515c2.02823,0.74054 2.01613,4.40781 0.70231,5.82024c-0.24783,0.26642 -2.0132,0.77205 -2.4575,0.90874c-2.19182,0.67428 -4.12051,0.77713 -6.40161,0.77713c-3.36271,0 -6.86554,0.28099 -10.20898,-0.08769c-3.81466,-0.42065 -7.6692,-1.53719 -11.24037,-2.91046c0,0 -0.5087,-0.19566 -0.6312,-0.67356z" fill="#606a6e" stroke-width="0.5"/><g stroke-width="0.5"><path d="M218.72138,183.03536c-0.00471,-0.22249 0.21779,-0.2272 0.21779,-0.2272c0.26718,-0.00565 0.62342,-0.01319 0.8906,-0.01884c1.79095,-0.03391 2.84437,-1.19185 3.67365,-2.64268c0,0 0.11044,-0.19321 0.30365,-0.08277c0.19321,0.11043 0.08277,0.30364 0.08277,0.30364c-0.90879,1.58997 -2.1073,2.82184 -4.05065,2.8668c-0.26718,0.00565 -0.53437,0.0113 -0.80156,0.01696l-0.08906,0.00189c0,0 -0.22249,0.00471 -0.2272,-0.21779z" fill="#3a53e0"/><path d="M224.38408,179.94224c0.21256,0.06589 0.14667,0.27846 0.14667,0.27846l-0.04791,0.15197c-0.18816,0.45227 -0.48579,0.80287 -0.82464,1.15637c-1.15343,1.20329 -2.98177,2.47692 -4.69265,2.52566c0,0 -0.22249,0.00471 -0.2272,-0.21779c-0.00471,-0.22249 0.21779,-0.2272 0.21779,-0.2272c1.57761,-0.01924 3.32238,-1.28454 4.38075,-2.38867c0.29445,-0.30718 0.57937,-0.61855 0.73324,-1.01501l0.03549,-0.11711c0,0 0.06589,-0.21257 0.27846,-0.14668z" fill="#3ae054"/><path d="M222.40813,180.90103c0.18774,0.1195 0.06823,0.30724 0.06823,0.30724l-0.18515,0.28887c-0.33297,0.32712 -0.81535,0.39164 -1.25984,0.23116c-0.20598,-0.07437 -0.40583,-0.47683 -0.56818,-0.32985c-0.13805,0.12499 0.15394,0.608 0.10114,0.77142c-0.22322,0.69085 -0.88501,0.33261 -1.3182,0.44896c0,0 -0.21725,0.04826 -0.2655,-0.16899c-0.04825,-0.21725 0.16899,-0.26551 0.16899,-0.26551c0.18363,-0.03576 0.90451,0.1732 0.98609,-0.1344c0.09869,-0.37214 -0.44754,-0.61941 0.06346,-1.00979c0.54113,-0.41342 1.24513,0.77251 1.74195,0.18217l0.15978,-0.25303c0,0 0.1195,-0.18774 0.30724,-0.06824z" fill="#e03a3a"/></g><path d="M223.82852,174.54485c1.69752,4.50185 -4.3459,6.52142 -5.88492,2.31297c-1.02594,-2.80543 0.17852,-5.4545 2.06283,-5.52148c0.15751,-0.02946 0.32035,-0.0449 0.48699,-0.0449c1.21292,0 2.2241,0.81812 2.45195,1.90353c0.2613,0.34596 0.52192,0.7453 0.7792,1.20221z" fill="#a1b9c7" stroke-width="0.5"/><path d="M254.88236,174.07414c0,0.99605 -6.92442,0.25764 -16.03114,0.25764c-9.10672,0 -16.60369,-1.60901 -16.60369,-2.60506c0,-0.39774 -2.02903,-2.65481 -0.03491,-2.953c2.99962,-0.44855 11.85545,-1.42694 17.32564,-1.42694c6.45987,0 11.81947,1.79605 14.18959,3.82797c0.97112,0.83255 1.15451,2.60989 1.15451,2.89939z" fill="#c5d8e2" stroke-width="0"/><path d="M220.62962,233.7892c-0.41723,0.15971 -0.83444,0.31941 -1.25167,0.47912c-0.17863,-0.31442 -0.36303,-0.62803 -0.61247,-0.91353c-0.82158,-0.51603 -1.06485,-1.70918 -1.37519,-2.85522c0.92118,-0.41368 1.7592,-1.02568 2.47647,-1.72586l0.35362,-0.3452c0.07402,-0.06899 0.10151,-0.17918 0.06067,-0.27824c-0.02474,-0.06001 -0.07015,-0.10525 -0.12458,-0.13088c0.22186,-0.21413 0.38457,-0.38754 0.44698,-0.48011l0.00273,-0.01224l0.00326,0.00176l0.0686,-0.12702c2.92435,-1.33703 6.08825,-2.34029 9.08803,-3.45007c0.55373,1.44662 1.10747,2.89322 1.6612,4.33982c0.1136,0.29676 0.22844,0.59323 0.34424,0.88948c-3.75829,1.48308 -7.38396,3.16969 -11.14191,4.60817z" fill="#b0c1ca" stroke-width="0.5"/><path d="M222.11127,230.56654l0.09708,0.00494c0.98147,0.04986 3.45147,-0.23335 4.15546,0.58268c0.14166,0.16421 0.05733,1.30077 0.04259,1.57373c-0.14052,2.60031 -2.15282,2.28235 -4.14873,2.46475c-1.92835,-0.09351 -3.71358,-0.37151 -5.59222,-0.61023c-0.65105,-0.08273 -1.73602,-0.28202 -2.18683,-0.84359c-1.12028,-1.39562 0.21996,-2.88853 1.5969,-3.16445l0.01507,-0.07722c1.55445,-0.35681 3.74345,0.80017 5.1033,-0.01244c0.30604,-0.09094 0.61039,-0.13103 0.91385,-0.1617c0.01334,0.0659 0.02152,0.15291 0.00353,0.24353z" fill="#b0c1ca" stroke-width="0.5"/><path d="M217.23606,229.43533c0.17587,-0.06733 0.87938,-0.3366 1.05525,-0.40393c1.34185,-0.51363 2.74723,-0.77872 4.11311,-1.24394c2.6104,-0.88911 5.12768,-2.00159 7.62069,-3.15898c0.13288,0.34714 0.26576,0.69428 0.39864,1.04143c-2.50619,1.16476 -5.04108,2.27707 -7.66507,3.17238c-1.35047,0.46078 -2.74444,0.72107 -4.06958,1.22832c-0.17587,0.06733 -0.35175,0.13464 -0.52763,0.20197l-0.52763,0.20197c0,0 -0.10584,0.04052 -0.24028,0.0372c-0.09176,-0.33946 -0.1892,-0.67502 -0.30907,-0.98786c0.0799,-0.06109 0.15156,-0.08853 0.15156,-0.08853z" fill="#c7d7e0" stroke-width="0.5"/><path d="M219.40846,229.91442c-0.19889,-0.51959 0.32071,-0.71848 0.32071,-0.71848l0.26735,-0.09635c1.89727,-0.42754 3.75599,-1.06332 5.67149,-1.4539c0,0 0.54522,-0.11076 0.65598,0.43445c0.11076,0.54521 -0.43445,0.65598 -0.43445,0.65598c-1.90702,0.38589 -3.75973,1.01568 -5.6462,1.44844l-0.11638,0.05053c0,0 -0.51959,0.1989 -0.71848,-0.32069z" fill="#cdd0e0" stroke-width="0.5"/><g><path d="M226.72088,229.32668c-0.15736,-0.15736 0,-0.31473 0,-0.31473l0.20776,-0.1549c1.2413,-0.24293 2.63513,-0.00903 3.88786,-0.00145c0.41998,0.13619 1.04475,0.1899 1.38293,0.47758c0.05994,0.051 0.13331,0.14111 0.20532,0.24417c-0.10002,-0.42907 -0.18344,-1.00193 -0.24331,-1.40936l-0.09967,-0.13288c-0.02876,-0.0375 -0.04586,-0.08442 -0.04586,-0.13532c0,-0.12291 0.09964,-0.22255 0.22254,-0.22255c0.06145,0 0.11709,0.02492 0.15736,0.06519l0.2351,0.2351c0.18649,0.18685 0.32298,0.49767 0.38483,0.66245c-0.12261,-0.48868 0.18398,-1.09778 -0.11562,-1.5564c-0.05012,-0.06774 -0.12462,-0.12299 -0.15038,-0.20323c-0.3739,-1.16413 0.6359,-0.38305 0.98782,-0.07399c-0.0597,-0.13416 -0.10968,-0.33429 -0.11219,-0.34272c-0.07335,-0.24607 -0.15275,-0.51769 -0.35572,-0.69837c-0.33692,-0.29991 -1.47844,-0.56262 -1.89948,-0.55922c-1.66703,-0.32764 -3.49772,0.07734 -5.1173,-0.38364c0,0 -0.21398,-0.06114 -0.15285,-0.27511c0.06113,-0.21398 0.27512,-0.15285 0.27512,-0.15285c1.58954,0.45601 3.3994,0.03342 5.03889,0.36868c1.11975,0.00806 2.86433,0.71941 2.7856,2.08031c-0.05345,0.92396 -0.60789,0.42507 -0.89321,0.08014c0.15528,0.44822 0.45439,2.09668 0.0761,2.25132c-0.15165,0.06199 -0.31023,-0.01883 -0.46064,-0.15496c0.15801,0.58647 0.23002,1.25446 0.0529,1.41893c-0.12436,0.11548 -0.33504,0.1594 -0.49723,0.10944c-0.24555,-0.07563 -0.37384,-0.69914 -0.57623,-0.8846c-0.24708,-0.22642 -0.83506,-0.25785 -1.15613,-0.36876c-1.19759,0.00799 -2.54457,-0.24453 -3.72928,-0.00145l0.01967,0.03318c0,0 -0.15736,0.15736 -0.31472,0z" fill="#6b767b" stroke-width="0.5"/><path d="M226.83122,229.0753c0,0 -0.04702,-1.85621 -0.04702,-2.63308c0,-0.63719 0.18808,-1.73972 0.18808,-1.73972c0,0 4.83867,0.20088 6.00599,0.51638c0.49123,0.13277 0.95287,1.3644 0.95287,1.3644c0,0 -0.88606,0.87988 -0.76709,1.68093c0.11606,0.78146 -0.69051,1.18725 -0.69051,1.18725c0,0 -1.80682,-0.58751 -2.7215,-0.64849c-0.96355,-0.06423 -2.92083,0.27233 -2.92083,0.27233z" fill="#606a6e" stroke-width="0"/><path d="M226.85042,225.74386c-0.05397,-0.2159 0.16192,-0.26988 0.16192,-0.26988l0.24205,-0.05366c0.31346,0 0.62692,0 0.94039,0c1.57422,0 2.97603,0.5908 4.51049,0.89769c0,0 0.21822,0.04364 0.17457,0.26187c-0.04364,0.21822 -0.26187,0.17458 -0.26187,0.17458c-1.50517,-0.30104 -2.88215,-0.88905 -4.4232,-0.88905c-0.31346,0 -0.62692,0 -0.94039,0l-0.1341,0.04038c0,0 -0.2159,0.05398 -0.26987,-0.16192z" fill="#303537" stroke-width="0.5"/><path d="M226.51464,227.33558c0,-0.22254 0.22254,-0.22254 0.22254,-0.22254l0.05039,0.00432c0.32175,-0.06435 0.62092,-0.17001 0.94039,-0.2351c1.37661,-0.2694 3.48508,0.0526 4.59699,0.88653c0,0 0.17803,0.13353 0.04451,0.31156c-0.13353,0.17803 -0.31156,0.04451 -0.31156,0.04451c-1.00266,-0.752 -2.99585,-1.06198 -4.24264,-0.80617c-0.31827,0.06225 -0.61935,0.17089 -0.94039,0.2351l-0.13769,0.00432c0,0 -0.22254,0 -0.22254,-0.22254z" fill="#303537" stroke-width="0.5"/></g></g></g></svg>