<svg version="1.1" xmlns="http://www.w3.org/2000/svg" xmlns:xlink="http://www.w3.org/1999/xlink" width="63.07324" height="64.55591" viewBox="0,0,63.07324,64.55591"><g transform="translate(-288.49393,-148.2261)"><g data-paper-data="{&quot;isPaintingLayer&quot;:true}" fill-rule="nonzero" stroke="none" stroke-width="0" stroke-linecap="butt" stroke-linejoin="miter" stroke-miterlimit="10" stroke-dasharray="" stroke-dashoffset="0" style="mix-blend-mode: normal"><path d="M309.78053,177.20067c2.32991,-0.00313 5.28086,0.26262 7.64159,0.70593c0.05533,0.11707 0.13666,0.23532 0.24827,0.35493c2.29511,1.76475 7.08617,2.83653 5.59582,6.29572c-0.40192,2.86815 3.68393,4.72936 6.27117,4.74988c-1.86503,1.78548 -4.43087,2.63657 -6.24259,4.41218c-0.67118,0.55872 -1.70631,1.05685 -1.5018,2.10859c0.20984,1.07916 1.46477,1.13873 1.72617,1.89568c0.33682,0.97533 -0.17844,2.9338 -0.28655,4.22074c-2.99137,-0.03109 -5.5338,-0.75006 -8.28262,-1.96538c-1.68572,-0.56833 -0.1748,-3.32453 -0.50164,-4.66275c-0.39804,-1.62976 -2.77072,-2.12941 -3.9469,-2.91352c-0.64147,-0.42339 -1.39494,-0.75472 -2.2124,-1.0097c-1.20096,-2.46918 -3.07569,-4.76703 -3.0593,-7.44103c0.33695,-1.91747 2.9739,-5.12911 2.92386,-6.92516c0.64364,0.0589 1.22969,0.10026 1.62691,0.17389z" fill="#5f4b29"/><path d="M322.89031,211.64684c-0.07024,0.37311 -0.10332,0.75354 -0.12733,1.13518h-29.86987c1.49584,-2.10017 3.17829,-3.98193 5.7946,-4.76464c3.84174,-1.15252 5.84562,-2.11936 7.30413,-6.01708c1.40821,-2.80757 2.93564,-5.91116 2.91657,-9.1004c-0.09807,-0.30292 -0.21277,-0.60191 -0.33983,-0.89786c0.6094,0.21963 1.16983,0.4891 1.65552,0.81666c0.98929,0.65953 3.43116,1.21653 3.7372,2.61054c0.35063,1.59714 -1.32252,4.27763 0.80642,5.0153c2.79726,1.2399 5.40136,1.96596 8.44574,1.99961c0.00522,3.13184 0.27288,6.0531 -0.32316,9.20269z" fill="#5f4b29"/><path d="M289.7644,212.78202l0,-18.69589c0.20468,-0.05445 0.40804,-0.09156 0.60275,-0.10606c3.45492,-0.30358 6.51595,-2.4208 9.95052,-2.72841c2.17687,-0.19608 5.18332,-0.16533 7.61122,0.54269c0.18218,0.38969 0.34724,0.78417 0.486,1.18564c-0.0217,3.09171 -1.52182,6.09355 -2.88135,8.82045c-1.41584,3.76789 -3.26181,4.61972 -6.98949,5.73803c-2.83665,0.85321 -4.6609,2.93314 -6.26953,5.24355z" fill="#5f4b29"/><path d="M289.7644,181.42169c2.68488,0.06918 5.01448,-0.76121 7.4269,-1.96969c0.74143,-0.49573 1.57395,-0.658 2.17645,-1.37575c0.77797,-0.9268 0.7973,-2.2242 1.55099,-3.12517c0.48827,-0.58368 1.16876,-0.90538 1.7954,-1.31224l0.03129,0.05685l0.43362,-0.23867c0.07958,-0.04183 0.13386,-0.1253 0.13386,-0.22144c0,-0.12486 -0.09154,-0.22834 -0.21116,-0.247l-0.48531,-0.08477c-0.29392,-0.06065 -0.58301,-0.1587 -0.85112,-0.29354c-1.97033,-1.4865 1.88663,-3.02701 3.43801,-4.12179c-0.04811,1.24527 -0.12985,2.47562 -0.12985,3.57091c0.00331,1.29288 -1.4521,2.30279 -0.66554,3.70023c0.45424,0.80703 1.9025,1.07466 3.24994,1.21847c0.12098,0.76878 -0.47624,1.13781 -0.87256,1.76651c-1.07667,1.70792 -1.70979,3.16691 -2.05351,5.16239c-0.02517,2.64813 1.6844,4.90458 2.91059,7.30309c-2.40685,-0.61501 -5.22983,-0.64698 -7.36931,-0.45642c-3.44077,0.30816 -6.4951,2.43577 -9.94893,2.72827c-0.18351,0.01759 -0.37128,0.05006 -0.55974,0.09503z" fill="#5f4b29"/><path d="M289.7644,159.77652c0.42463,0.18994 0.93682,0.2967 1.56915,0.29582c0.86656,-0.13191 2.48473,-0.26235 3.19516,-0.75438c0.3886,-0.26913 0.69432,-1.12218 1.21236,-1.25644c0.65389,-0.16947 2.07719,2.96391 2.58688,3.3883c0.58242,0.46999 3.7404,0.60545 5.06279,0.21958c0.62459,0.63855 1.0359,1.21165 1.52839,1.94286c0.30851,1.26746 0.34497,2.74712 0.30538,4.23486c-1.18078,1.35904 -6.69183,2.97283 -3.72208,5.18847c0.2268,0.11287 0.46452,0.20719 0.70813,0.27955c-1.88983,0.38322 -2.1974,3.20537 -3.23002,4.44475c-0.54898,0.6589 -1.35638,0.80504 -2.04022,1.25966c-2.5572,1.27613 -4.57142,1.35432 -7.17593,1.85l0,-0.04185c0.05798,-0.04968 0.13255,-0.14907 0.058,-0.29817c-0.01712,-0.03423 -0.03685,-0.0606 -0.058,-0.08072z" fill="#5f4b29"/><path d="M306.00514,159.89253c1.43942,1.08371 3.14056,2.94842 5.13156,1.71836c0.96713,-0.5975 1.1712,-2.52825 2.20266,-2.83031c1.16751,0.01122 2.87975,2.77459 4.32882,3.68516c0.03769,0.10434 0.14887,0.14882 0.14887,0.14882l0.41917,0.16281c0.08562,0.00024 1.30045,0.19601 0.88494,0.29045c-0.5926,0.35813 -1.59335,0.56247 -2.07316,1.01945c-1.08425,1.03265 0.38293,5.2537 0.38961,6.6943c0.2955,1.19282 2.14194,2.59107 1.8775,3.70555c-0.22925,0.96616 -1.86299,1.8952 -1.98057,2.89762c-2.35611,-0.41956 -5.2043,-0.67891 -7.50774,-0.68192c-1.06841,-0.20282 -4.3793,-0.12258 -4.98002,-1.18278c-0.67166,-1.1854 0.72395,-2.28533 0.72667,-3.46066c0,-1.23109 0.09817,-2.6266 0.1384,-4.02566c0.02551,-0.04378 0.07493,-0.15342 0.00673,-0.25814c0.03564,-1.53345 -0.00988,-3.05928 -0.34219,-4.36561c-0.48907,-0.74074 -0.90876,-1.33357 -1.50951,-1.96695c1.22673,-1.07811 0.37253,-2.42589 2.13826,-1.5505z" fill="#5f4b29"/><path d="M319.59423,161.75312c0.19633,-0.45784 0.35795,-0.91756 0.51375,-1.39049c0.27854,-0.43194 0.44169,-1.02645 0.52545,-1.71853c2.69749,0.05647 5.64872,0.88394 8.30873,1.32253c-2.35132,1.0778 -4.52233,3.78409 -4.69576,6.35835c-0.14203,2.36012 2.28279,2.20922 3.83125,3.02976c1.36823,0.72503 2.0113,2.29912 3.72989,2.86717c0.7926,0.47897 0.94313,1.59639 1.47674,2.35328c1.4607,2.07192 2.58563,2.29766 0.96589,4.96743c0.04349,0.12766 0.09309,0.25083 0.14841,0.36971c-0.01698,0.01625 -0.02624,0.0286 -0.02624,0.0286c-0.14994,0.20606 -0.26132,0.44577 -0.32514,0.6935c-1.12681,2.40491 -1.92788,5.1719 -3.45364,7.42586c-0.23681,0.35276 -0.49819,0.67315 -0.77857,0.96832c-0.01833,-0.22134 -0.24885,-0.22134 -0.24885,-0.22134c-2.20527,0.00651 -6.14768,-1.63585 -5.81851,-4.11493c1.65576,-3.74484 -3.21396,-4.91351 -5.68845,-6.76212c0.0321,-0.03003 0.05866,-0.07421 0.07158,-0.13884c0.04903,-0.24515 -0.19612,-0.29417 -0.19612,-0.29417c-0.02804,-0.00553 -0.05617,-0.01104 -0.08438,-0.01653c0.08247,-0.82875 1.77265,-2.20865 1.94208,-2.8444c0.38385,-1.44034 -1.51548,-2.5567 -1.85847,-3.91583c0.00622,-1.1397 -1.36237,-5.57459 -0.50702,-6.30689c0.46992,-0.40232 1.39591,-0.58648 1.96169,-0.92326c0.59634,-0.49849 0.26844,-0.85542 -0.2231,-1.04562c0.15423,-0.15957 0.29785,-0.3862 0.4288,-0.69158z" fill="#5f4b29"/><path d="M342.67078,183.62133c1.61368,3.11986 4.90152,2.71601 7.90455,3.76121v25.39947h-6.10857c-0.28296,-0.38032 -0.49631,-0.87725 -0.62573,-1.56681c-0.44071,-2.29199 0.68389,-5.36547 -0.12703,-7.52909c-0.31491,-0.84021 -1.78937,-1.38112 -2.47543,-1.89547c-1.18026,-0.7877 -2.55722,-1.58592 -3.55263,-2.60738c-0.53515,-0.54916 -0.85883,-1.7035 -1.5085,-2.06114c-0.84604,-0.46574 -2.44171,-0.34412 -3.41102,-0.60115c-1.84896,-0.48092 -3.68406,-1.49804 -5.3165,-2.48515c-0.52706,-0.31871 -2.01978,-0.83647 -1.58349,-1.5613c0,0 0.02879,-0.05758 0.02793,-0.12891c1.8228,-1.144 3.81831,-2.1057 5.11324,-4.00502c1.49051,-2.20188 2.21455,-4.95378 3.37112,-7.27094c0.14474,-0.05785 0.14474,-0.23151 0.14474,-0.23151l-0.00485,-0.02569c0.00158,-0.00877 0.00326,-0.01754 0.00503,-0.0263c0.01536,-0.02933 0.0308,-0.05858 0.04633,-0.08774c0,0 0.03534,-0.07067 0.02655,-0.15242c0.02112,-0.05159 0.04545,-0.10191 0.0728,-0.15032c1.54489,2.33268 5.54735,2.75454 8.00147,3.22566z" fill="#5f4b29"/><path d="M323.25664,212.78202c0.02481,-0.34937 0.05946,-0.69783 0.12495,-1.04221c0.60699,-3.20748 0.3318,-6.1932 0.3318,-9.38728c0,-1.26562 0.70447,-3.71847 0.267,-4.82204c-0.32866,-0.82909 -1.45724,-0.78218 -1.69816,-1.80587c-0.17634,-0.74927 0.88693,-1.25002 1.34975,-1.6361c0.51808,-0.53076 1.10386,-0.97942 1.72092,-1.39267c0.21657,1.80414 5.90292,3.93569 7.28537,4.30842c0.9637,0.25554 2.44859,0.13432 3.30538,0.55982c0.52183,0.25916 0.93683,1.50904 1.3842,1.96812c1.01727,1.0439 2.41551,1.86215 3.62187,2.66655c0.53774,0.40346 2.07115,0.99925 2.29389,1.65684c0.73888,2.18145 -0.32479,5.15687 0.1062,7.45287c0.11758,0.61271 0.29579,1.0893 0.52621,1.47353z" fill="#5f4b29"/><path d="M330.24907,162.49628c1.08761,2.26687 4.43149,0.95367 5.55611,-0.34201c0.89277,-0.66567 2.37622,-1.05366 3.02826,-1.65889c1.34712,-1.2504 1.45738,-4.06102 3.51025,-2.48914c1.40477,1.40862 3.91697,2.16942 5.95448,1.62888c0.88049,-0.23359 1.51049,-0.89758 2.27715,-1.2777v28.47901c-2.96823,-1.10675 -5.80892,-0.59084 -7.60285,-3.61381c-2.56231,-0.71137 -6.91154,-0.77209 -8.22546,-3.62392c1.94915,-2.50312 0.28989,-3.39685 -1.05695,-5.31562c-0.83644,-1.19163 -0.27952,-1.68432 -1.67359,-2.51541c-1.72564,-0.57977 -2.3262,-2.08833 -3.71635,-2.8607c-1.323,-0.73506 -3.67684,-0.53624 -3.55462,-2.55183c0.13449,-2.57996 2.60211,-5.3676 4.95442,-6.15171c0,0 0.01518,-0.00506 0.03659,-0.01647c0.7938,0.43852 0.05529,1.35624 0.51257,2.30931z" fill="#5f4b29"/><path d="M320.26073,151.97109h30.3146v5.85835c-0.8255,0.37524 -1.45287,1.06971 -2.40537,1.3224c-1.89378,0.5024 -4.19608,-0.22429 -5.49651,-1.52145c-2.43401,-1.87472 -2.71963,1.00257 -4.18714,2.50512c-0.33456,0.34255 -0.84181,0.02927 -1.2285,0.17257c-0.55232,0.20467 -1.30713,1.11359 -1.79275,1.47969c-0.92196,1.0489 -3.7535,2.43012 -4.75406,0.51717c-0.66078,-1.26334 0.57995,-2.44566 -1.5814,-2.81433c-2.70789,-0.43661 -5.6948,-1.26833 -8.45018,-1.344c0.12513,-1.88162 -0.21663,-4.30526 -0.41869,-6.17552z" fill="#5f4b29"/><path d="M289.7644,151.97109l29.86776,0c0.00733,1.38507 0.04944,2.76842 0.14551,4.15121c0.07949,1.14411 0.56379,3.03507 -0.11871,4.02038c-1.7535,5.16816 -3.44642,-1.87794 -6.40548,-1.85467c-1.53489,0.60106 -1.3445,2.794 -3.14666,3.14972c-1.62157,0.32007 -2.69072,-1.11236 -3.83881,-1.97052c-0.29898,-0.15059 -0.98936,-0.6358 -1.29937,-0.60912c-0.63506,0.05465 -0.97849,1.75931 -1.42596,2.20449c-0.03798,0.03778 -0.09891,0.07201 -0.17908,0.1028l-0.06062,-0.01259c0,0 -0.12351,0 -0.1969,0.08681c-1.16487,0.25869 -4.06711,0.1539 -4.46085,-0.17622c-0.88999,-0.71847 -1.63652,-3.70423 -3.01988,-3.48827c-0.62054,0.09687 -0.94107,1.02529 -1.36518,1.32111c-0.63411,0.44229 -2.17121,0.55444 -2.96468,0.67759c-0.62655,-0.00095 -1.12385,-0.13494 -1.53107,-0.36688z" fill="#5f4b29"/><path d="M313.07191,204.25057c1.24857,0.02205 4.0258,-1.13097 6.94493,-2.11283c1.02727,0.18904 2.08247,0.29409 3.19663,0.30641c0.00522,3.13184 0.27288,6.0531 -0.32316,9.20269c-0.05822,0.30928 -0.09092,0.62359 -0.11407,0.93945l-29.85649,0.15839c1.48919,-2.08511 3.16717,-3.94923 5.76797,-4.7273c3.44096,-1.03229 5.40753,-1.91561 6.8284,-4.88939c1.41764,0.53403 3.76071,1.05556 7.55579,1.12258z" fill="#46371e"/><path d="M323.32711,201.16713c-0.04018,0.2752 -0.07438,0.53781 -0.09448,0.77719c-0.74654,-0.00776 -1.46513,-0.05836 -2.16593,-0.14883c0.76322,-0.23984 1.52484,-0.4572 2.26042,-0.62836z" fill="#46371e"/><path d="M290.08985,212.75969l0.15959,-12.28854l13.24609,1.43632c0,0 0.3378,0.49522 1.55503,1.03102c-1.36014,2.81977 -3.18742,3.60424 -6.50652,4.59998c-2.82271,0.84902 -4.64294,2.91273 -6.2458,5.20951z" fill="#46371e"/><path d="M324.58187,200.91962c3.28384,-0.51485 5.44432,0.9902 5.85785,1.20015c1.17112,0.59457 1.42402,4.83945 4.47128,4.51157c1.88662,-0.203 4.99833,-2.44749 7.49531,-3.58331c0.39982,0.25062 0.74101,0.52333 0.8373,0.80759c0.73888,2.18145 -0.32479,5.15687 0.1062,7.45287c0.08813,0.45924 0.21032,0.84201 0.36302,1.16673l-20.4409,0.10844c0.02374,-0.28284 0.05657,-0.56469 0.10966,-0.84385c0.60699,-3.20748 0.3318,-6.1932 0.3318,-9.38728c0,-0.35711 0.05609,-0.80875 0.12678,-1.29793c0.25143,-0.0516 0.499,-0.09693 0.74169,-0.13498z" fill="#46371e"/><path d="M345.46675,202.57279c2.81906,1.52671 4.78907,9.86772 4.78907,9.86772l-5.98881,0.03177c-0.18506,-0.33227 -0.32905,-0.74065 -0.42598,-1.25707c-0.44071,-2.29199 0.68389,-5.36547 -0.12703,-7.52909c-0.12292,-0.32795 -0.42249,-0.61031 -0.78289,-0.86328c1.03193,-0.41342 1.9259,-0.58026 2.53564,-0.25004z" fill="#46371e"/><path d="M289.61107,154.50881l-1.11714,-3.03224c0,0 2.50107,-2.58598 4.14396,-2.62459c1.50565,-0.03538 3.59801,1.59195 7.98505,1.66377c1.93748,0.03172 5.68685,-1.2272 7.97936,-1.22046c1.55156,0.00456 1.23892,2.40814 2.87075,2.42205c1.66309,0.01417 5.92937,-1.42766 7.66525,-1.44905c0.16206,-0.002 0.32926,0.01342 0.5005,0.04261c-0.01714,1.36687 -0.00793,2.73162 0.046,4.09535c-0.91945,1.05339 -2.20619,3.52596 -2.8218,3.41553c-0.85058,-0.15258 -1.85819,-2.53257 -2.70164,-2.67045c-0.53265,-0.08707 -6.32597,3.3373 -6.84618,3.25118c-0.59672,-0.09878 -2.46073,-4.02144 -3.03744,-4.1071c-0.92014,-0.13667 -1.97148,6.26754 -2.83,6.12623c-0.36802,-0.06058 -0.88946,-6.0242 -1.24476,-6.081c-0.55303,-0.08841 -1.24964,4.13298 -1.76922,4.04639c-0.46266,-0.07711 -0.91148,-4.938 -1.34544,-5.00693c-0.43912,-0.06975 -1.18201,2.41663 -1.58921,2.3524c-1.22914,-0.1939 -1.03845,-2.26621 -1.95304,-2.38016c-0.93202,-0.11612 -1.40276,5.61902 -1.92061,6.17502c-0.06189,0.00816 -0.12153,0.01618 -0.17845,0.02417c-1.80826,-0.44688 -1.83598,-5.04274 -1.83598,-5.04274z" fill="#6ce13e"/><path d="M324.2392,151.81135c1.24578,-0.0132 4.70797,-3.54949 5.91106,-3.58456c1.63455,-0.04765 3.35512,2.41409 4.7972,2.21755c9.00384,-1.2271 14.66999,-0.4041 14.66999,-0.4041l1.59591,5.10693c0,0 2.34887,3.00595 -5.05754,-0.74897c-0.56484,-0.28636 -1.32281,3.41486 -1.95654,3.12544c-0.3911,-0.17861 -2.54783,-4.97686 -2.95929,-5.13734c-0.32791,-0.12789 -2.41588,4.53272 -2.75282,4.40655c-0.46403,-0.17376 1.13401,-3.69048 0.64454,-3.84623c-0.31983,-0.10177 -2.87768,4.58457 -3.20496,4.48364c-0.82665,-0.25494 -2.15347,-2.73074 -3.02198,-2.95578c-0.55587,-0.14404 -2.71337,2.58649 -3.28018,2.44669c-0.70105,-0.17291 -2.04696,-2.25282 -2.75997,-2.40836c-1.20982,-0.26391 -2.11818,3.30535 -3.35872,3.04947c-0.68725,-0.14176 -2.23957,-3.15222 -3.01847,-3.57205c-0.14652,-1.36273 -0.31911,-2.64786 -0.35616,-3.56355c1.35858,0.39632 2.89216,1.39755 4.10793,1.38467z" fill="#6ce13e"/><path d="M300.46329,173.65978c-1.71982,-1.8876 -4.34671,-6.47458 -2.39387,-8.61794c1.95284,-2.14336 1.04925,2.46728 2.87265,4.46856c0.24082,0.26431 0.50509,0.48533 0.77792,0.67482c-1.09805,0.83399 -1.66465,1.77072 -0.21755,2.85037c0.2268,0.11287 0.46452,0.20719 0.70813,0.27955c-0.54314,0.11014 -0.95559,0.42173 -1.29211,0.83931c-0.1361,-0.14478 -0.28656,-0.30962 -0.45516,-0.49467z" fill="#a4a097"/><path d="M303.97431,173.181c-1.55773,1.7097 -1.77074,2.1966 -2.65689,1.37578c0.42669,-0.35567 0.92684,-0.61286 1.39671,-0.91794l0.03129,0.05685l0.43362,-0.23867c0.07958,-0.04183 0.13386,-0.1253 0.13386,-0.22144c0,-0.12486 -0.09154,-0.22834 -0.21116,-0.247l-0.48531,-0.08477c-0.29392,-0.06065 -0.58301,-0.1587 -0.85112,-0.29354c-0.96862,-0.73077 -0.52894,-1.47458 0.35279,-2.17208c1.69067,0.98597 3.43223,1.01304 1.85622,2.74282z" fill="#a4a097"/><path d="M309.29348,171.31857c-1.71981,-1.8876 0.91981,-5.03826 2.87265,-7.18161c1.95283,-2.14336 1.68762,2.46728 3.51101,4.46856c1.8234,2.00128 -0.75375,3.91401 -2.71306,6.06447c-1.9593,2.15046 -1.95079,-1.46382 -3.6706,-3.35142z" fill="#a4a097"/><path d="M324.82652,180.62754c-1.71981,-1.8876 0.91981,0.70704 2.87265,-1.43632c1.95283,-2.14336 1.04925,-4.23557 2.87265,-2.23428c1.8234,2.00128 1.64012,4.0736 -0.31919,6.22406c-1.9593,2.15046 -3.70629,-0.66586 -5.42611,-2.55346z" fill="#a4a097"/><path d="M335.25263,194.72425c-1.71981,-1.8876 -4.82548,-3.28275 -2.87264,-5.42611c1.95283,-2.14336 4.24108,-1.04374 6.06447,0.95755c1.8234,2.00128 1.79971,5.03115 -0.15959,7.18161c-0.68446,0.75124 -1.05086,0.87687 -1.31123,0.64184c-0.0902,-0.15825 -0.18264,-0.31275 -0.28142,-0.4528c-0.30363,-0.7063 -0.56694,-1.9443 -1.4396,-2.90209z" fill="#a4a097"/><path d="M294.66374,193.39486c-0.12053,-0.13229 -0.21965,-0.27078 -0.29909,-0.4147c0.95515,-0.34372 1.9028,-0.71894 2.8622,-1.03475c0.07728,0.18317 0.17908,0.34871 0.30954,0.4919c1.8234,2.00128 2.75726,2.15851 0.79795,4.30897c-1.9593,2.15046 -1.95079,-1.46382 -3.6706,-3.35142z" fill="#a4a097"/><path d="M297.53639,186.21324c1.70268,-1.8688 -0.94995,2.73144 -0.44888,5.26718c-0.97297,0.32538 -1.93385,0.70896 -2.90327,1.05486c-0.51565,-1.88932 1.67233,-4.47835 3.35214,-6.32204z" fill="#a4a097"/><path d="M312.59064,189.29815c-1.71981,-1.8876 -0.03774,0.22826 1.9151,-1.9151c1.95283,-2.14336 2.64517,-2.79924 4.46856,-0.79796c1.8234,2.00128 1.00175,8.06339 -0.95755,10.21385c-1.9593,2.15046 -3.70629,-5.6132 -5.42611,-7.5008z" fill="#a4a097"/><path d="M339.61426,165.2525c-1.71981,-1.8876 -0.51651,0.22826 1.43632,-1.9151c1.95283,-2.14336 0.88966,-0.40537 2.71306,1.59591c1.8234,2.00128 -0.75376,3.91401 -2.71306,6.06447c-1.9593,2.15046 0.2835,-3.85769 -1.43632,-5.74529z" fill="#a4a097"/><path d="M303.69874,207.85663c0,0 1.50101,0.98234 9.57638,1.046c1.6847,0.01328 6.15253,-0.92849 9.99679,-1.34894c-0.02284,1.345 -0.11732,2.69663 -0.3816,4.09315c-0.06056,0.3217 -0.0935,0.64883 -0.11681,0.97749l-29.81816,0.07062c1.48037,-2.06498 3.15228,-3.90569 5.73238,-4.67757c0.42143,-0.12643 0.82075,-0.25063 1.19966,-0.3767z" fill-opacity="0.66275" fill="#45423d"/><path d="M290.29306,212.70125l-0.3177,-5.62219l8.4966,0.48142c-2.76068,0.85575 -4.55725,2.87946 -6.13767,5.13594z" fill-opacity="0.66275" fill="#45423d"/><path d="M324.78508,207.41564c3.28384,-0.22984 5.44432,0.44204 5.85785,0.53577c1.17112,0.26543 1.42402,2.16042 4.47128,2.01404c1.48987,-0.07156 4.96984,-1.03215 8.24406,-1.85186c-0.10417,1.11235 -0.19232,2.21545 -0.00846,3.1949c0.09729,0.50697 0.23609,0.92076 0.41163,1.26613l-20.49276,0.04853c0.02399,-0.29609 0.05736,-0.59119 0.11292,-0.88334c0.27337,-1.44455 0.3678,-2.84411 0.38903,-4.23799c0.34545,-0.03398 0.68447,-0.06309 1.01446,-0.08618z" fill-opacity="0.66275" fill="#45423d"/><path d="M350.10198,206.9945c2.81906,0.68155 0.35705,5.56426 0.35705,5.56426l-6.1331,0.01452c-0.21359,-0.34969 -0.37792,-0.78807 -0.4849,-1.35808c-0.18788,-0.97711 -0.09128,-2.09624 0.01857,-3.22636c2.76026,-0.68218 5.29056,-1.22446 6.24238,-0.99435z" fill-opacity="0.66275" fill="#45423d"/></g></g></svg>