<svg version="1.1" xmlns="http://www.w3.org/2000/svg" xmlns:xlink="http://www.w3.org/1999/xlink" width="30.38403" height="32.04782" viewBox="0,0,30.38403,32.04782"><g transform="translate(-207.3874,-149.40959)"><g data-paper-data="{&quot;isPaintingLayer&quot;:true}" fill="#887151" fill-rule="nonzero" stroke="#6a5940" stroke-width="4.5" stroke-linecap="butt" stroke-linejoin="miter" stroke-miterlimit="10" stroke-dasharray="" stroke-dashoffset="0" style="mix-blend-mode: normal"><path d="M209.63741,151.65959h25.90913c0.37697,2.5026 0.32175,5.04374 0.75275,7.59586c0.12697,0.75183 0.80817,1.42735 0.69059,2.1807c-0.08786,0.56294 -1.4661,0.45259 -1.50158,0.45783c-1.61948,0.23886 -3.88115,0.58694 -5.30849,1.36491c-0.74167,0.40425 -1.93304,0.74135 -1.97729,1.58488c-0.04647,0.88598 1.10602,1.40498 1.79087,1.96898c1.50428,1.23881 2.51079,1.30187 3.55055,3.1297c1.45119,2.54885 -4.41515,3.24865 -6.39145,4.33628c-3.39862,1.87038 -7.11578,3.19537 -10.99487,3.91257c-2.14965,0.39745 -4.34672,0.41208 -6.5202,0.69926z"/></g></g></svg>