<svg version="1.1" xmlns="http://www.w3.org/2000/svg" xmlns:xlink="http://www.w3.org/1999/xlink" width="65.61805" height="113.68132" viewBox="0,0,65.61805,113.68132"><g transform="translate(-287.938,-124.63558)"><g data-paper-data="{&quot;isPaintingLayer&quot;:true}" fill-rule="nonzero" stroke-linecap="butt" stroke-linejoin="miter" stroke-miterlimit="10" stroke-dasharray="" stroke-dashoffset="0" style="mix-blend-mode: normal"><path d="M314.31502,196.89592c-0.12714,0.71199 -0.53871,1.29931 -1.09926,1.78282c-1.03397,0.89189 -2.57484,1.4306 -3.77246,1.74712c-7.06315,1.86671 -11.30389,-2.56289 -15.11451,-8.33755c-0.8713,-1.32038 -3.23805,-8.76195 1.02852,-5.71671c0.97944,0.69907 1.27244,2.86134 1.9233,3.83252c1.73818,2.59363 4.33205,5.81386 7.16679,7.23546c2.36789,1.18748 7.35267,-2.45916 8.01373,-2.13508z" fill="#e3a500" stroke="none" stroke-width="0.5"/><g stroke="none" stroke-width="0.5"><path d="M312.36737,214.19489c-1.37984,1.47242 -2.99391,2.90218 -4.58809,4.1671c-0.12423,0.09858 -0.24813,0.19743 -0.37171,0.29654c-0.19864,-0.24676 -0.39645,-0.49401 -0.59315,-0.74192c-0.96191,-1.21229 -1.92382,-2.42457 -2.88572,-3.63685c0.07395,-0.058 0.14768,-0.11606 0.22125,-0.17418c1.57593,-1.60681 3.69438,-2.71653 5.22621,-4.34925c0.84674,-0.90251 1.56566,-1.99634 2.43426,-2.89194c0.69329,1.39324 2.10032,2.55222 3.0257,3.71847c0.17564,0.22136 0.35385,0.4383 0.54299,0.644c-0.87381,1.11327 -2.03673,1.92761 -3.01172,2.96802z" fill="#b0c1ca"/><path d="M309.37042,209.66767c0.80058,-0.82834 1.87715,-1.49701 2.78152,-2.21335c0.20053,0.30509 0.42951,0.59971 0.67252,0.88675c-0.85801,0.67653 -1.90355,1.31037 -2.65284,2.09873c-1.70342,1.79227 -3.15914,3.69109 -5.12326,5.25112c-0.23042,-0.2904 -0.46086,-0.5808 -0.69128,-0.87121c1.91922,-1.53647 3.32751,-3.4078 5.01332,-5.15206z" fill="#c7d7e0"/><path d="M309.729,210.49432c0.77013,-0.73562 2.09343,-1.12465 2.51943,-2.12367c0,0 0.11125,-0.23855 0.3448,-0.31096c0.21039,0.26456 0.43609,0.52213 0.66642,0.77489c-0.00178,0.00419 -0.00281,0.00638 -0.00281,0.00638c-0.59784,1.21396 -1.81087,1.57254 -2.76075,2.45937c-1.73621,1.62095 -2.92791,3.70357 -4.75021,5.2697c-0.23042,-0.29039 -0.46085,-0.58081 -0.69128,-0.87121c1.79201,-1.53626 2.9845,-3.59037 4.67437,-5.20451z" fill="#cdd0e0"/></g><g stroke="none" stroke-width="0.5"><path d="M334.44681,213.0349c1.14848,1.60926 2.25103,3.28845 3.29418,4.99084c-1.51725,0.31888 -2.98424,0.83657 -4.41239,1.486c-1.65664,-2.95084 -3.25484,-5.91617 -5.40669,-8.50228c1.40042,-0.41722 2.58767,-0.77423 3.85816,-1.37368c0.727,1.25084 1.80613,2.19327 2.66673,3.39915z" fill="#b0c1ca"/><path d="M328.64954,210.97418c0,0 -0.04907,-0.06143 -0.08723,-0.15657c0.37975,-0.11489 0.74612,-0.22876 1.10582,-0.34844c2.01969,2.60145 3.28837,5.72941 5.1424,8.4242c-0.35053,0.13272 -0.69858,0.2744 -1.04432,0.42411c-1.79747,-2.70687 -3.07506,-5.78773 -5.11667,-8.34331z" fill="#c7d7e0"/><path d="M331.16168,211.87199c0.48243,-0.27712 0.75953,0.20531 0.75953,0.20531l0.1279,0.22268c0.42411,0.73834 0.79012,1.40837 1.02585,2.23171c0,0 0.15183,0.53525 -0.38341,0.68707c-0.53524,0.15183 -0.68707,-0.38341 -0.68707,-0.38341c-0.20652,-0.73583 -0.54134,-1.32151 -0.92025,-1.98114l-0.1279,-0.22268c0,0 -0.27711,-0.48244 0.20532,-0.75955z" fill="#cdd0e0"/></g><path d="M337.44649,198.92564c0.05703,0.19959 0.0183,0.34599 -0.05266,0.45111l-0.03104,0.16689c0,1.00428 0,2.00856 0,3.01284c0,0.72347 0.03643,1.34894 -0.19197,2.05046c-0.46724,1.43508 -1.36648,2.25274 -2.49516,2.68755v0.14767c0,1.88327 0.49504,4.62498 -1.90119,5.0335c-0.46833,0.00107 -0.92542,-0.0222 -1.3775,-0.05732c-0.00553,0.05522 -0.01027,0.11027 -0.01424,0.16516c-1.45507,-0.10772 -2.69168,-0.3927 -4.20326,-0.78708c0,0 -0.21337,-0.05334 -0.28988,0.14017c-0.4022,-0.11575 -0.77605,-0.30044 -1.06794,-0.60545c-1.17175,-1.22439 -1.11708,-2.99635 -1.28606,-4.57128c-1.7658,-0.32363 -3.59285,-0.35032 -5.42555,-0.33968c0.02344,0.12856 0.00208,0.23537 0.00208,0.23537l-0.07403,0.35947c-0.22076,1.94277 -0.4986,3.60234 -2.50322,3.87566c0.01347,0.03934 0.02651,0.07872 0.03913,0.11814c-0.23454,0.01296 -0.47043,0.01479 -0.70573,0.01479c-1.46046,0 -3.34103,0.43575 -4.84535,0.04331c-0.00333,-0.04927 -0.00615,-0.09852 -0.00845,-0.14775c-0.36151,-0.06865 -0.70351,-0.16721 -1.01362,-0.30557c-0.03557,-0.02435 -0.07069,-0.04958 -0.10535,-0.07573c0,0 -0.06787,-0.0509 -0.15419,-0.05387c-0.38434,-0.21429 -0.70671,-0.50311 -0.93849,-0.88931c-0.78747,-1.31211 -0.48896,-3.16189 -0.48266,-4.63054c-1.63022,-1.63705 -1.41826,-5.0258 -1.1343,-7.04633c0,0 0.06413,-0.44892 0.48189,-0.47827c0.28606,-0.16467 0.58616,0.04969 0.58616,0.04969c2.1287,1.5205 5.04326,1.38896 7.57377,1.74952c1.28314,0.18283 2.59522,0.49586 3.89414,0.4909c4.9269,0 9.90589,0.21333 14.7507,-0.41803c0.61664,-0.13691 1.12832,-0.30473 1.69297,-0.58872l0.3697,-0.11181c0.09647,-0.08326 0.23807,-0.13918 0.44413,-0.10484c0.16286,0.02714 0.26933,0.09457 0.33854,0.17597c0.05311,0.05852 0.09835,0.13747 0.12861,0.24339z" fill="#b0c1ca" stroke="none" stroke-width="0.5"/><path d="M312.30544,211.11359c0.1635,0 0.27894,0.04805 0.36047,0.1159c-0.23622,0.0037 -0.47035,-0.00055 -0.70014,-0.01631c0.08003,-0.05911 0.18961,-0.09959 0.33967,-0.09959z" fill="#c7d7e0" stroke="none" stroke-width="0.5"/><path d="M331.19483,206.19024c0.26176,-0.04027 0.41808,0.06323 0.51004,0.18275c-0.21439,-0.04568 -0.43049,-0.09474 -0.6502,-0.14691c0.0414,-0.01557 0.08792,-0.0278 0.14016,-0.03584z" fill="#c7d7e0" stroke="none" stroke-width="0.5"/><path d="M309.46317,205.11341c0.27223,0.27223 0.1677,0.54447 0.07748,0.68634c-0.29094,1.7369 0.12009,2.98039 1.87637,3.60116c0,0 0.52286,0.19013 0.33273,0.71299c-0.19013,0.52286 -0.71299,0.33274 -0.71299,0.33274c-2.30751,-0.85762 -2.98383,-2.64049 -2.56574,-4.98798l0.20534,-0.34524c0,0 0.39341,-0.39341 0.78681,0z" fill="#c7d7e0" stroke="none" stroke-width="0.5"/><path d="M308.248,198.42771c0.55635,0 0.55636,0.55635 0.55636,0.55635v0.20544c0,1.58566 0.35411,2.64881 0.89098,4.1241c0,0 0.19012,0.52286 -0.33273,0.71299c-0.52286,0.19013 -0.71299,-0.33274 -0.71299,-0.33274c-0.57556,-1.58401 -0.95798,-2.79844 -0.95798,-4.50437v-0.20544c0,0 0,-0.55635 0.55635,-0.55635z" fill="#c7d7e0" stroke="none" stroke-width="0.5"/><path d="M310.19634,203.93111c-0.4274,0.35617 -0.78358,-0.07124 -0.78358,-0.07124l-0.34295,-0.45034c-0.6492,-1.5633 -0.96626,-2.5944 -0.81091,-4.32179c0,0 0.05036,-0.55408 0.60444,-0.5037c0.55407,0.05037 0.5037,0.60444 0.5037,0.60444c-0.14587,1.58593 0.13265,2.36412 0.72988,3.79309l0.17065,0.16598c0,0 0.35617,0.4274 -0.07124,0.78357z" fill="#cdd0e0" stroke="none" stroke-width="0.5"/><path d="M312.21227,209.29411c-0.29487,0.47179 -0.76666,0.17692 -0.76666,0.17692l-0.30615,-0.20573c-1.72415,-0.63459 -1.71658,-1.62002 -1.85374,-3.2501c0,0 -0.0462,-0.55444 0.50823,-0.60064c0.55443,-0.0462 0.60063,0.50823 0.60063,0.50823c0.10024,1.2139 -0.12355,1.84929 1.12514,2.29679l0.51561,0.30787c0,0 0.4718,0.29487 0.17692,0.76666z" fill="#cdd0e0" stroke="none" stroke-width="0.5"/><path d="M328.29587,211.32795c0.3934,-0.39341 0.78681,0 0.78681,0l0.09712,0.10319c0.11984,0.15408 0.23968,0.30816 0.35952,0.46224c0,0 0.1714,0.22037 0.11526,0.47031c-0.46157,-0.08246 -0.92148,-0.18213 -1.39906,-0.29636c-0.08914,-0.11605 -0.27131,-0.42772 0.04036,-0.7394z" fill="#cdd0e0" stroke="none" stroke-width="0.5"/><path d="M332.00384,206.92206c-0.21645,0.0761 -0.39525,-0.01985 -0.49948,-0.10325c0.16739,0.036 0.33361,0.07049 0.49948,0.10325z" fill="#cdd0e0" stroke="none" stroke-width="0.5"/><path d="M325.09408,205.77218c0.55635,0 0.55635,0.55636 0.55635,0.55636v0.10272c-0.00097,1.53089 0.60088,2.62614 1.36229,3.93118c0,0 0.28033,0.48056 -0.20024,0.7609c-0.48057,0.28034 -0.7609,-0.20023 -0.7609,-0.20023c-0.86185,-1.47773 -1.51283,-2.75105 -1.51387,-4.49185v-0.10272c0,0 0.00001,-0.55636 0.55636,-0.55636z" fill="#cdd0e0" stroke="none" stroke-width="0.5"/><g stroke="none" stroke-width="0.5"><path d="M296.15927,225.3301c-0.54782,0.23763 -1.09564,0.47526 -1.64346,0.71289l0.08788,-0.01339c0,0 -0.12121,0.14453 -0.30665,0.1947l0.03869,0.08919c0.39108,0.90158 1.74148,2.98903 1.32285,3.98214c-0.08425,0.19983 -1.14008,0.62889 -1.39121,0.73687c-2.39237,1.02858 -3.00088,-0.91568 -4.05047,-2.62311c-0.77235,-1.7694 -1.31586,-3.49246 -1.93605,-5.28177c-0.21492,-0.62008 -0.51807,-1.68075 -0.21502,-2.33402c0.75314,-1.62345 2.6859,-1.08537 3.54446,0.02593l0.24709,-0.06767c0.57917,-0.16964 1.16064,-0.32964 1.7412,-0.49435c3.43914,-2.14507 7.48687,-3.56864 11.25867,-5.15464c0.6164,1.42104 1.23281,2.84207 1.84922,4.26311c0.12645,0.29152 0.25415,0.58268 0.38278,0.87359c-3.6899,1.64584 -7.23843,3.48925 -10.92996,5.09054z" fill="#b0c1ca"/><path d="M292.28976,221.86045c-0.22139,-0.5104 0.289,-0.73181 0.289,-0.73181c0.17277,-0.07494 0.86383,-0.37471 1.0366,-0.44964c1.31813,-0.57177 2.71058,-0.89799 4.05484,-1.42244c2.56906,-1.00231 5.03534,-2.22369 7.4754,-3.4889c0.14792,0.341 0.29584,0.68201 0.44375,1.02302c-2.45292,1.27314 -4.93678,2.49512 -7.51915,3.50422c-1.32905,0.51934 -2.71033,0.84028 -4.01204,1.40493c-0.17277,0.07494 -0.34553,0.14988 -0.5183,0.22482l-0.5183,0.22482c0,0 -0.5104,0.22139 -0.73179,-0.28901z" fill="#c7d7e0"/><path d="M301.63053,218.87237c-0.22139,-0.5104 0.289,-0.73181 0.289,-0.73181l0.28272,-0.12264c1.10725,-0.47945 2.26935,-0.77127 3.38039,-1.24277c0.14757,0.34022 0.29515,0.68043 0.44273,1.02065c-1.11179,0.46954 -2.27491,0.76254 -3.38031,1.24294l-0.28272,0.12264c0,0 -0.5104,0.22139 -0.73179,-0.28901z" fill="#cdd0e0"/><path d="M294.77001,221.51239c-0.22139,-0.5104 0.28901,-0.73181 0.28901,-0.73181l0.26288,-0.10794c1.87677,-0.51002 3.70595,-1.2264 5.60256,-1.70029c0,0 0.53987,-0.13448 0.67433,0.40539c0.13448,0.53986 -0.40539,0.67433 -0.40539,0.67433c-1.88834,0.46882 -3.71176,1.17896 -5.57753,1.69373l-0.11407,0.05557c0,0 -0.51041,0.2214 -0.73181,-0.289z" fill="#cdd0e0"/><path d="M293.04089,221.93586c0.28189,-0.12228 0.60953,0.0071 0.73181,0.289c0.12228,0.28189 -0.00712,0.60953 -0.28902,0.7318c-0.28189,0.12228 -0.60952,-0.00711 -0.73179,-0.28901c-0.12228,-0.28189 0.00712,-0.60953 0.28901,-0.73179z" fill="#cdd0e0"/></g><path d="M337.46331,222.89664c0.21866,3.51352 1.63024,6.87776 1.95974,10.40039c-1.42888,0.10837 -3.05767,0.5182 -4.44195,0.08366c-0.61401,-0.19275 -0.80308,-0.69079 -1.44091,-0.75595c-0.25101,-3.88225 -0.57424,-7.74633 -0.82127,-11.6293c-0.02133,-0.33531 -0.04103,-0.67061 -0.0598,-1.00582c1.57397,0.05163 3.12284,0.24225 4.63397,0.63832c0.06572,0.75853 0.1223,1.51565 0.17021,2.26869z" fill="#b0c1ca" stroke="none" stroke-width="0.5"/><path d="M339.70791,231.58234c1.0534,-0.57244 2.28966,-1.84717 3.37726,-1.70908c1.16992,0.14854 2.42624,2.90563 1.8622,3.95069c-0.04786,0.08867 -1.1102,0.70351 -1.32778,0.80423c-1.22618,0.5676 -2.5534,1.05522 -3.8143,1.53524c-1.52272,0.57752 -3.04505,1.15607 -4.56816,1.73256c-0.36712,0.13895 -1.23306,0.51293 -1.5995,0.39996c-1.04877,-0.32333 -1.74041,-2.78802 -1.81758,-3.74205c-0.0252,-0.31152 -0.13349,-0.6596 0.00944,-0.93755c0.20795,-0.4044 1.12476,-0.76523 1.69246,-1.01851c0.06889,0.00661 0.12652,-0.01525 0.12652,-0.01525c0.55213,-0.247 1.01537,0.26699 1.58636,0.28186c1.49887,0.03904 3.04498,-0.83646 4.41886,-1.42503z" fill="#b0c1ca" stroke="none" stroke-width="0.5"/><g stroke="none" stroke-width="0.5"><path d="M334.87218,233.12935l-0.03587,-0.56381c-0.245,-3.85113 -0.50439,-7.61086 -1.43451,-11.34437c-0.08712,-0.40086 -0.15979,-0.80407 -0.22112,-1.20916c0.37975,0.02015 0.75794,0.04888 1.1344,0.08712c0.0498,0.29077 0.10613,0.58037 0.17019,0.86859c0.93905,3.79577 1.21257,7.61406 1.46151,11.52718l0.03587,0.56382c0,0 0.01994,0.31347 -0.20567,0.48432c-0.27186,-0.02975 -0.53811,-0.0814 -0.79588,-0.16231c-0.01383,-0.00435 -0.02745,-0.00884 -0.04085,-0.01349c-0.06071,-0.12232 -0.06807,-0.23788 -0.06807,-0.23788z" fill="#c7d7e0"/><path d="M335.93318,226.48312c0.55523,-0.03532 0.59057,0.51991 0.59057,0.51991l0.00325,0.05125c0.12332,1.93841 0.34751,3.84446 0.471,5.78545c0,0 0.03533,0.55524 -0.5199,0.59056c-0.55523,0.03532 -0.59056,-0.51991 -0.59056,-0.51991c-0.12348,-1.94099 -0.34764,-3.84665 -0.47099,-5.78546l-0.00326,-0.05125c0,0 -0.03533,-0.55524 0.5199,-0.59056z" fill="#cdd0e0"/><path d="M335.62509,221.91697c0,0 0.13407,0.53995 -0.40588,0.67404c-0.53996,0.13407 -0.67404,-0.40588 -0.67404,-0.40588c-0.17803,-0.72258 -0.44575,-1.40667 -0.63727,-2.12369c0.39924,0.03331 0.79663,0.0769 1.19192,0.13185c0.17307,0.57491 0.3784,1.1362 0.52528,1.72367z" fill="#cdd0e0"/></g><path d="M309.44127,197.99021c0,0 -1.65721,-19.87142 -2.4077,-31.17526c1.17466,0.25503 2.36131,0.35328 3.04655,0.3533c2.86342,-0.01245 5.4035,1.26933 8.30833,1.26933c2.88236,0 5.73871,0.08311 8.56655,0.452c3.02415,0.09161 6.06311,0.00957 9.08866,0.00957c0.79336,0 1.57234,-0.00116 2.34103,-0.01325c0.00738,0.4067 0.00898,0.82086 0.00356,1.24217c-0.05526,4.28593 -0.94731,9.08451 -1.15863,13.52263c-0.39713,8.34034 -0.19302,15.40772 -0.19302,15.40772z" fill="#ffbb00" stroke="none" stroke-width="0"/><path d="M338.58188,170.24646c-1.10591,-0.12288 -0.98303,-1.22879 -0.98303,-1.22879l0.01456,-0.12293c0.75685,-0.00575 1.50263,-0.01881 2.24117,-0.04824l-0.0439,0.41692c0,0 -0.12288,1.10591 -1.22879,0.98303z" fill="#c5d8e2" stroke="none" stroke-width="0.5"/><path d="M322.82069,168.62129c-0.02562,-0.022 -0.05505,-0.05362 -0.08794,-0.0941c0.94383,0.04479 1.88468,0.10985 2.82246,0.20248c-0.8077,0.26746 -2.01702,0.50753 -2.73452,-0.10838z" fill="#c6deec" stroke="none" stroke-width="0"/><path d="M306.97134,167.54976c-1.0911,0.21822 -1.30933,-0.87288 -1.30933,-0.87288l-0.05199,-0.2661c0.67287,0.2475 1.43403,0.42413 2.15786,0.54421c-0.10894,0.25531 -0.33621,0.50273 -0.79653,0.5948z" fill="#c5d8e2" stroke="none" stroke-width="0.5"/><path d="M306.846,169.08198c-1.11271,0 -1.11271,-1.11272 -1.11271,-1.11272l0.00552,-0.35779c-0.03905,-0.39042 -0.07808,-0.78086 -0.11713,-1.17128c0,0 -0.00091,-0.0091 -0.00174,-0.02574c0.71532,0.26203 1.52946,0.44425 2.29208,0.56381c0.01372,0.13726 0.02745,0.27451 0.04117,0.41177l0.00553,0.57923c0,0 0,1.11272 -1.11272,1.11272z" fill="#c5d8e2" stroke="none" stroke-width="0.5"/><path d="M308.72004,197.4269c-1.11271,0 -1.11271,-1.11271 -1.11271,-1.11271l0.00114,-1.2217c0.26887,-2.9473 0.89281,-5.63266 0.59002,-8.62344c0,0 -0.03292,-0.32922 0.11665,-0.64656c-0.17281,-0.63702 -0.33948,-1.25758 -0.34658,-1.30765c-0.2276,-1.60389 0.05443,-3.2618 -0.22847,-4.8812c-0.22143,-1.26754 -0.66413,-2.50145 -0.8255,-3.7849c-0.1701,-1.35287 -0.39036,-2.64086 -0.58387,-3.96981c-0.20316,-1.39519 0.20192,-2.02232 -0.47996,-3.29493c0,0 -0.49763,-0.99524 0.49761,-1.49286c0.99524,-0.49762 1.49286,0.49762 1.49286,0.49762c0.22445,0.47108 0.55264,0.90558 0.67334,1.41325c0.19691,0.82819 -0.11265,1.71256 0.01797,2.55375c0.39858,2.56694 0.95574,5.13152 1.4017,7.70615c0.28476,1.64407 0.00639,3.3357 0.24004,4.95753c0.11993,0.83249 0.45211,1.62028 0.67341,2.43173l0.23064,0.80698c0,0 0.27205,0.9522 -0.59545,1.31667c-0.07708,2.14664 -0.45151,4.21187 -0.65128,6.4185l0.00114,1.12086c0,0 0,1.11271 -1.11271,1.11271z" fill="#e3a500" stroke="none" stroke-width="0.5"/><path d="M337.3847,199.01975c-1.06579,0.31974 -1.38552,-0.74606 -1.38552,-0.74606l-0.3771,-1.27479c-0.30794,-2.99504 -0.1846,-6.37785 0.45591,-9.35592c-0.00862,-0.06986 -0.00861,-0.11339 -0.00861,-0.11339v-0.23426c0.00251,-2.02715 -0.56475,-3.86179 -0.46737,-5.90681c0.08917,-1.87268 0.56717,-3.52792 0.96166,-5.34135c0.48405,-2.22519 0.61177,-4.39544 0.79796,-6.64766c0,0 0.02091,-0.25096 0.16222,-0.50414c0.63581,-0.00436 1.26372,-0.0136 1.88599,-0.0331c0.20173,0.33562 0.16953,0.72204 0.16953,0.72204c-0.19729,2.34751 -0.33801,4.62012 -0.84184,6.93917c-0.3677,1.69246 -0.82919,3.21891 -0.91237,4.96589c-0.08594,1.80469 0.36513,3.45549 0.45449,5.2329c0.21183,0.39187 0.09906,0.84294 0.09906,0.84294c-0.71149,2.77107 -0.849,6.1414 -0.57363,9.00126l0.32567,1.06776c0,0 0.31974,1.06579 -0.74605,1.38552z" fill="#e3a500" stroke="none" stroke-width="0.5"/><path d="M338.5629,168.38302c0.04778,0.00398 0.09334,0.00985 0.13677,0.01744c-0.17298,0.00134 -0.34637,0.00209 -0.52017,0.00245c0.11194,-0.02358 0.23906,-0.03192 0.3834,-0.01989z" fill="#c5d8e2" stroke="none" stroke-width="0.5"/><path d="M338.26529,196.81624c0.55206,0.9661 -0.41405,1.51817 -0.41405,1.51817l-0.70432,0.39257c-0.20077,0.15057 -2.1855,1.63959 -2.19573,1.64427c-1.56488,0.71604 -3.83136,0.33519 -5.49957,0.33519c-5.5147,0 -10.79078,-0.90427 -16.26356,-1.41003c-1.86723,-0.17256 -4.65295,0.67264 -5.82542,-1.45259c-0.28301,-0.51298 0.01062,-1.17168 0.01592,-1.75752c0,0 0.11072,-1.10719 1.21791,-0.99647c1.10719,0.11072 0.99647,1.21791 0.99647,1.21791c-0.07277,0.19502 -0.27453,0.38462 -0.21834,0.58504c0.12591,0.44905 0.92076,0.1725 1.38699,0.18384c1.36892,0.0333 2.6041,0.06581 3.96069,0.24272c4.91376,0.64081 9.77512,1.16167 14.72933,1.16167c1.23406,0 3.42638,0.4411 4.57343,-0.13332c0.6767,-0.33889 1.18118,-0.94694 1.78661,-1.40105l0.93546,-0.54445c0,0 0.96611,-0.55206 1.51817,0.41405z" fill="#c5d8e2" stroke="none" stroke-width="0.5"/><path d="M308.27936,174.96353c0,0.55635 -0.55636,0.55636 -0.55636,0.55636l-0.0633,-0.00164c-1.4002,0.1069 -2.73958,0.07648 -4.09959,-0.29635c-0.52443,-0.2418 -0.91524,-0.3392 -1.27185,-0.83758c-0.75099,-1.04958 -0.84688,-3.29414 -0.79059,-4.53269c0.00978,-0.21525 0.11731,-1.31115 0.18364,-1.42497c0.782,-1.34185 3.00887,-1.60835 4.34351,-1.48828c0,0 0.55407,0.05037 0.5037,0.60445c-0.05037,0.55408 -0.60444,0.5037 -0.60444,0.5037c-0.92251,-0.08481 -2.72467,0.01647 -3.28652,0.94909c-0.14254,0.2366 -0.02732,1.17987 -0.02774,1.46407c-0.00182,1.24349 0.09192,3.16565 1.32812,3.71561c1.20011,0.32513 2.40313,0.32914 3.63642,0.23351l0.14865,-0.00163c0,0 0.55636,0 0.55636,0.55635z" fill="#b0c1ca" stroke="none" stroke-width="0.5"/><path d="M349.97139,194.00982c0.12547,0.6002 0.93348,1.05591 1.13784,1.63867c0.34842,0.9935 -0.7481,0.79574 -1.29993,0.58822c-0.9158,-0.34439 -2.22887,-2.94441 -1.34665,-3.3903c-0.02356,-0.06151 -0.04288,-0.12803 -0.05752,-0.19968l-0.0589,-0.10262c-0.78536,-1.40054 -2.27998,-2.45476 -3.3133,-3.67191c-1.33954,-1.57784 -2.60161,-2.98513 -4.15543,-4.38345c0.90336,-0.19941 1.47878,-0.88584 2.44581,-1.23235c0.70203,0.76954 1.59338,1.34192 2.29662,2.13657c1.54569,1.74662 3.05979,3.36445 4.3079,5.34303c0.38465,-0.15598 0.72977,-0.17462 0.87947,0.07014c0.20122,-0.01666 0.40526,-0.00554 0.59403,0.03875c0.54067,0.12685 3.42079,1.76954 1.5057,2.1564c-0.03754,0.00759 -0.07697,0.00868 -0.11488,0.0032c-0.62842,-0.09094 -1.16778,-0.32921 -1.6963,-0.50147c-0.01694,0.02975 -0.0369,0.05904 -0.06024,0.08778c-0.3153,0.38827 -0.73955,0.66386 -1.15666,0.78823c0.02978,0.21615 0.05147,0.43472 0.09246,0.6308zM343.90377,185.20502c-0.52606,-0.47747 -1.03115,-0.82515 -1.48618,-1.31c-0.08316,0.09136 -0.17947,0.17047 -0.28498,0.2368c1.35848,1.27761 2.5176,2.58704 3.7432,4.014c0.94133,1.09599 2.16985,2.06635 3.03937,3.24567c0.02339,-0.02124 0.0473,-0.04236 0.07164,-0.06331c-1.38259,-2.22036 -3.15121,-4.36975 -5.08305,-6.12314z" fill="#b0c1ca" stroke="none" stroke-width="0.5"/><path d="M341.59695,185.85161c-0.0442,0.01295 -0.08591,0.02202 -0.1243,0.02687c-0.66181,0.08372 -1.45332,-0.48847 -1.64713,-1.10388c-0.18144,-0.57615 -0.10172,-1.04775 0.13838,-1.41621c-0.18089,-0.53843 -0.37324,-1.038 -0.48337,-1.62126c-1.05116,-3.46437 -0.99217,-7.41976 -2.63898,-10.65111c0,0 -0.25108,-0.49648 0.2454,-0.74755c0.49648,-0.25107 0.74755,0.24541 0.74755,0.24541c1.67571,3.33623 1.65399,7.32675 2.7273,10.89071c0.0751,0.41557 0.19775,0.78254 0.32674,1.1553c0.18096,-0.07765 0.37404,-0.13828 0.57239,-0.18202c-0.25471,-0.67475 -0.37066,-1.34305 -0.53702,-2.06556c-0.24984,-2.12538 -0.73499,-4.24717 -0.99853,-6.37767c-0.17167,-1.38778 -0.07619,-3.59594 -0.99963,-4.71804c0,0 -0.14389,-0.18512 -0.12467,-0.40842c0.39117,-0.00837 0.77984,-0.02006 1.16658,-0.03637c0.88227,1.40176 0.86666,3.43943 1.06226,5.02842c0.25996,2.1118 0.73484,4.21468 0.99009,6.32064c0.1771,0.76453 0.27596,1.45726 0.61124,2.17327l0.00672,0.02095c0.30712,0.03555 0.59331,0.11363 0.8307,0.23387c0,0 0.12839,0.0688 0.21858,0.20167c-0.34381,1.18654 -0.00373,2.25263 -1.1039,3.17911c-0.32431,0.05427 -0.69022,0.00681 -0.98646,-0.1481z" fill="#b0c1ca" stroke="none" stroke-width="0.5"/><path d="M339.23522,168.3943c0.08815,-0.02512 0.16956,-0.0222 0.2416,-0.00435c-0.08045,0.00163 -0.16098,0.00307 -0.2416,0.00435z" fill="#b0c1ca" stroke="none" stroke-width="0.5"/><path d="M332.13491,215.79231c0.55205,-0.06901 0.62107,0.48305 0.62107,0.48305l0.04919,0.39529c0.01109,0.07252 0.02323,0.14467 0.03627,0.21649c-0.38217,-0.07449 -0.76708,-0.13859 -1.15437,-0.1933l-0.03521,-0.28047c0,0 -0.06901,-0.55206 0.48305,-0.62107z" fill="#cdd0e0" stroke="none" stroke-width="0.5"/><path d="M314.29294,214.30021c0,-0.12291 0.09963,-0.22254 0.22254,-0.22254c0.12291,0 0.22254,0.09964 0.22254,0.22254c0,0.12291 -0.09964,0.22254 -0.22254,0.22254c-0.12291,0 -0.22254,-0.09964 -0.22254,-0.22254z" fill="#6b767b" stroke="none" stroke-width="0.5"/><g stroke="none"><path d="M331.58976,221.24799c-0.15736,-0.15736 0,-0.31473 0,-0.31473l0.20776,-0.1549c1.2413,-0.24293 2.63513,-0.00903 3.88786,-0.00145c0.41998,0.13619 1.04475,0.1899 1.38293,0.47758c0.05994,0.051 0.13331,0.14111 0.20532,0.24417c-0.10002,-0.42907 -0.18344,-1.00193 -0.24331,-1.40936l-0.09967,-0.13288c-0.02876,-0.0375 -0.04586,-0.08442 -0.04586,-0.13532c0,-0.12291 0.09964,-0.22255 0.22254,-0.22255c0.06145,0 0.11709,0.02492 0.15736,0.06519l0.2351,0.2351c0.18649,0.18685 0.32298,0.49767 0.38483,0.66245c-0.12261,-0.48868 0.18398,-1.09778 -0.11562,-1.5564c-0.05012,-0.06774 -0.12462,-0.12299 -0.15038,-0.20323c-0.3739,-1.16413 0.6359,-0.38305 0.98782,-0.07399c-0.0597,-0.13416 -0.10968,-0.33429 -0.11219,-0.34272c-0.07335,-0.24607 -0.15275,-0.51769 -0.35572,-0.69837c-0.33692,-0.29991 -1.47844,-0.56262 -1.89948,-0.55922c-1.66703,-0.32764 -3.49772,0.07734 -5.1173,-0.38364c0,0 -0.21398,-0.06114 -0.15285,-0.27511c0.06113,-0.21398 0.27512,-0.15285 0.27512,-0.15285c1.58954,0.45601 3.3994,0.03342 5.03889,0.36868c1.11975,0.00806 2.86433,0.71941 2.7856,2.08031c-0.05345,0.92396 -0.60789,0.42507 -0.89321,0.08014c0.15528,0.44822 0.45439,2.09668 0.0761,2.25132c-0.15165,0.06199 -0.31023,-0.01883 -0.46064,-0.15496c0.15801,0.58647 0.23002,1.25446 0.0529,1.41893c-0.12436,0.11548 -0.33504,0.1594 -0.49723,0.10944c-0.24555,-0.07563 -0.37384,-0.69914 -0.57623,-0.8846c-0.24708,-0.22642 -0.83506,-0.25785 -1.15613,-0.36876c-1.19759,0.00799 -2.54457,-0.24453 -3.72928,-0.00145l0.01967,0.03318c0,0 -0.15736,0.15736 -0.31472,0z" fill="#6b767b" stroke-width="0.5"/><path d="M331.7001,220.99656c0,0 -0.04702,-1.85621 -0.04702,-2.63308c0,-0.63719 0.18808,-1.73972 0.18808,-1.73972c0,0 4.83867,0.20088 6.00599,0.51638c0.49123,0.13277 0.95287,1.3644 0.95287,1.3644c0,0 -0.88606,0.87988 -0.76709,1.68093c0.11606,0.78146 -0.69051,1.18725 -0.69051,1.18725c0,0 -1.80682,-0.58751 -2.7215,-0.64849c-0.96355,-0.06423 -2.92083,0.27233 -2.92083,0.27233z" fill="#606a6e" stroke-width="0"/><path d="M331.7193,217.66517c-0.05397,-0.2159 0.16192,-0.26988 0.16192,-0.26988l0.24205,-0.05366c0.31346,0 0.62692,0 0.94039,0c1.57422,0 2.97603,0.5908 4.51049,0.89769c0,0 0.21822,0.04364 0.17457,0.26187c-0.04364,0.21822 -0.26187,0.17458 -0.26187,0.17458c-1.50517,-0.30104 -2.88215,-0.88905 -4.4232,-0.88905c-0.31346,0 -0.62692,0 -0.94039,0l-0.1341,0.04038c0,0 -0.2159,0.05398 -0.26987,-0.16192z" fill="#303537" stroke-width="0.5"/><path d="M331.38352,219.25685c0,-0.22254 0.22254,-0.22254 0.22254,-0.22254l0.05039,0.00432c0.32175,-0.06435 0.62092,-0.17001 0.94039,-0.2351c1.37661,-0.2694 3.48508,0.0526 4.59699,0.88653c0,0 0.17803,0.13353 0.04451,0.31156c-0.13353,0.17803 -0.31156,0.04451 -0.31156,0.04451c-1.00266,-0.752 -2.99585,-1.06198 -4.24264,-0.80617c-0.31827,0.06225 -0.61935,0.17089 -0.94039,0.2351l-0.13769,0.00432c0,0 -0.22254,0 -0.22254,-0.22254z" fill="#303537" stroke-width="0.5"/></g><path d="M306.52285,199.78409c-0.17361,-0.2755 -0.17361,-0.58685 -0.17361,-0.58685v-0.48856c0.00087,-1.29442 -0.2196,-3.18255 1.18778,-3.98116c1.15463,-0.65518 3.4435,0.57776 4.64298,0.79895c4.12583,0.76081 8.22574,1.52935 12.43343,1.52935c2.83322,0 5.53193,-0.17386 8.33437,-0.56097c0.80241,-0.11084 3.09131,-0.80843 3.8124,-0.54515c2.02823,0.74054 2.01613,4.40781 0.70231,5.82024c-0.24783,0.26642 -2.0132,0.77205 -2.4575,0.90874c-2.19182,0.67428 -4.12051,0.77713 -6.40161,0.77713c-3.36271,0 -6.86554,0.28099 -10.20898,-0.08769c-3.81466,-0.42065 -7.6692,-1.53719 -11.24037,-2.91046c0,0 -0.5087,-0.19566 -0.6312,-0.67356z" fill="#606a6e" stroke="none" stroke-width="0.5"/><g stroke="none" stroke-width="0.5"><path d="M303.29948,178.99219c-0.00471,-0.22249 0.21779,-0.2272 0.21779,-0.2272c0.26718,-0.00565 0.62342,-0.01319 0.8906,-0.01884c1.79095,-0.03391 2.84437,-1.19185 3.67365,-2.64268c0,0 0.11044,-0.19321 0.30365,-0.08277c0.19321,0.11043 0.08277,0.30364 0.08277,0.30364c-0.90879,1.58997 -2.1073,2.82184 -4.05065,2.8668c-0.26718,0.00565 -0.53437,0.0113 -0.80156,0.01696l-0.08906,0.00189c0,0 -0.22249,0.00471 -0.2272,-0.21779z" fill="#3a53e0"/><path d="M308.96218,175.89914c0.21256,0.06589 0.14667,0.27846 0.14667,0.27846l-0.04791,0.15197c-0.18816,0.45227 -0.48579,0.80287 -0.82464,1.15637c-1.15343,1.20329 -2.98177,2.47692 -4.69265,2.52566c0,0 -0.22249,0.00471 -0.2272,-0.21779c-0.00471,-0.22249 0.21779,-0.2272 0.21779,-0.2272c1.57761,-0.01924 3.32238,-1.28454 4.38075,-2.38867c0.29445,-0.30718 0.57937,-0.61855 0.73324,-1.01501l0.03549,-0.11711c0,0 0.06589,-0.21257 0.27846,-0.14668z" fill="#3ae054"/><path d="M306.98623,176.85787c0.18774,0.1195 0.06823,0.30724 0.06823,0.30724l-0.18515,0.28887c-0.33297,0.32712 -0.81535,0.39164 -1.25984,0.23116c-0.20598,-0.07437 -0.40583,-0.47683 -0.56818,-0.32985c-0.13805,0.12499 0.15394,0.608 0.10114,0.77142c-0.22322,0.69085 -0.88501,0.33261 -1.3182,0.44896c0,0 -0.21725,0.04826 -0.2655,-0.16899c-0.04825,-0.21725 0.16899,-0.26551 0.16899,-0.26551c0.18363,-0.03576 0.90451,0.1732 0.98609,-0.1344c0.09869,-0.37214 -0.44754,-0.61941 0.06346,-1.00979c0.54113,-0.41342 1.24513,0.77251 1.74195,0.18217l0.15978,-0.25303c0,0 0.1195,-0.18774 0.30724,-0.06824z" fill="#e03a3a"/></g><g stroke="none"><path d="M301.40168,216.94095c-0.04577,-0.21778 0.17202,-0.26356 0.17202,-0.26356l0.25865,-0.01616c1.17226,0.47502 2.21164,1.43271 3.25654,2.12377c0.27726,0.3436 0.77109,0.73006 0.89706,1.1558c0.02232,0.07547 0.03451,0.19103 0.03849,0.31669c0.15076,-0.41397 0.39401,-0.93929 0.56656,-1.3132l-0.01084,-0.16575c-0.00359,-0.04712 0.00774,-0.09576 0.03556,-0.13838c0.06718,-0.10293 0.20508,-0.13191 0.308,-0.06473c0.05145,0.03359 0.08443,0.08486 0.09615,0.1406l0.06838,0.32538c0.05405,0.2584 -0.00154,0.59329 -0.03981,0.76508c0.16442,-0.47625 0.75408,-0.81875 0.75385,-1.36655c-0.00495,-0.08412 -0.03714,-0.17111 -0.01485,-0.25238c0.32317,-1.17922 0.74188,0.02679 0.86765,0.47795c0.02334,-0.14498 0.09087,-0.33988 0.09337,-0.34832c0.07307,-0.24616 0.15504,-0.51701 0.08382,-0.77925c-0.11822,-0.4353 -0.93056,-1.27922 -1.285,-1.50649c-1.21692,-1.18552 -2.97131,-1.84698 -4.07562,-3.11822c0,0 -0.14577,-0.16816 0.02237,-0.31393c0.16815,-0.14578 0.31394,0.02237 0.31394,0.02237c1.08186,1.25066 2.82845,1.88599 4.01813,3.06284c0.9333,0.61877 2.00543,2.168 1.19567,3.2646c-0.54977,0.74452 -0.74139,0.02371 -0.79179,-0.42109c-0.11495,0.46022 -0.76546,2.00415 -1.16677,1.92688c-0.16088,-0.03097 -0.2495,-0.18533 -0.30105,-0.38153c-0.18822,0.57748 -0.49303,1.17622 -0.73124,1.21715c-0.16726,0.02873 -0.36769,-0.04964 -0.4762,-0.18012c-0.16429,-0.19754 0.06907,-0.7898 0.00095,-1.05572c-0.08315,-0.32466 -0.55836,-0.67234 -0.7666,-0.94071c-1.00725,-0.64787 -1.99721,-1.59555 -3.12216,-2.03951l-0.00166,0.03853c0,0 -0.21778,0.04577 -0.26355,-0.17201z" fill="#6b767b" stroke-width="0.5"/><path d="M301.6315,216.79071c0,0 0.97517,-1.58011 1.39978,-2.23068c0.34826,-0.53359 1.10838,-1.35407 1.10838,-1.35407c0,0 3.94218,2.81288 4.74727,3.7151c0.33879,0.37968 0.05221,1.66338 0.05221,1.66338c0,0 -1.22291,0.25253 -1.56111,0.98837c-0.32993,0.71784 -1.22715,0.61681 -1.22715,0.61681c0,0 -1.19195,-1.47954 -1.92458,-2.03054c-0.77179,-0.58044 -2.59479,-1.36837 -2.59479,-1.36837z" fill="#606a6e" stroke-width="0"/><path d="M303.46842,214.01142c0.07281,-0.2103 0.2831,-0.1375 0.2831,-0.1375l0.23202,0.08736c0.2625,0.17133 0.52499,0.34265 0.7875,0.51399c1.31828,0.86042 2.16926,2.12135 3.28651,3.21703c0,0 0.15889,0.15581 0.00305,0.31471c-0.15581,0.15889 -0.31471,0.00306 -0.31471,0.00306c-1.09592,-1.07477 -1.92763,-2.31979 -3.21813,-3.16208c-0.2625,-0.17133 -0.52499,-0.34265 -0.7875,-0.51399l-0.13437,-0.03948c0,0 -0.2103,-0.0728 -0.13749,-0.2831z" fill="#303537" stroke-width="0.5"/><path d="M302.31726,215.16078c0.12163,-0.18636 0.30799,-0.06473 0.30799,-0.06473l0.03984,0.03115c0.30461,0.12197 0.61289,0.19701 0.91599,0.31711c1.30004,0.52681 2.88971,1.94888 3.36504,3.25496c0,0 0.0761,0.20912 -0.13301,0.28523c-0.20912,0.0761 -0.28523,-0.13301 -0.28523,-0.13301c-0.42862,-1.17775 -1.92833,-2.52675 -3.11222,-2.99399c-0.30055,-0.12183 -0.61206,-0.19541 -0.91599,-0.31711l-0.11766,-0.07164c0,0 -0.18636,-0.12163 -0.06473,-0.30799z" fill="#303537" stroke-width="0.5"/></g><path d="M339.65022,168.61019c0,0.99605 -7.38245,1.80351 -16.48917,1.80351c-9.10672,0 -16.48918,-0.80746 -16.48918,-1.80351c0,-0.39774 -2.02903,-2.65481 -0.03491,-2.953c2.99962,-0.44855 11.85545,-1.42694 17.32564,-1.42694c9.10672,0 15.68762,3.38389 15.68762,4.37994z" fill="#ffbb00" stroke="none" stroke-width="0"/><path d="M308.47195,170.50068c1.69752,4.50185 -4.3459,6.52142 -5.88492,2.31297c-1.02594,-2.80543 0.17852,-5.4545 2.06283,-5.52148c0.15751,-0.02946 0.32035,-0.0449 0.48699,-0.0449c1.21292,0 2.2241,0.81812 2.45195,1.90353c0.2613,0.34596 0.52192,0.7453 0.7792,1.20221z" fill="#a1b9c7" stroke="none" stroke-width="0.5"/><path d="M296.6391,236.72634v-111.84076h47.29829v111.84077z" fill="none" stroke-opacity="0.01176" stroke="#ffffff" stroke-width="0.5"/><path d="M296.6391,236.72634v-111.84076h47.29829v111.84077z" fill="none" stroke-opacity="0.01176" stroke="#ffffff" stroke-width="0.5"/><path d="M313.62387,164.48154c0.42912,-0.05998 0.8747,-0.04188 1.34189,-0.02503c0.90703,-0.21419 1.81457,-0.43736 2.74707,-0.56898c4.465,-0.00782 8.4466,0.36606 12.79253,1.07804c0.80147,0.13612 2.6593,0.07624 3.10171,0.96607c0.38534,0.77503 -0.41795,2.38608 -0.54795,3.13165c-0.49067,2.81393 -2.34949,4.42986 -4.48642,6.25695c-1.63281,1.00282 -2.93961,2.43341 -4.80172,3.08763c-2.63249,0.92487 -5.55162,-1.23 -7.2943,-2.98898c-1.65255,-2.72702 -4.77702,-6.90558 -4.78586,-10.15512c0,0 0,-0.28229 0.21211,-0.42265c0.05728,-0.21303 0.25177,-0.36985 0.48289,-0.36985h0.68249c0.20999,0 0.39097,0.00263 0.55555,0.01027z" fill="#ffffff" stroke="none" stroke-width="0.5"/><path d="M310.14335,177.54866c0,0 9.28276,2.53498 12.38239,2.53498c3.26202,0 9.06742,-2.33998 9.06742,-2.33998c0,0 -5.57145,4.33327 -8.86988,4.30328c-3.78448,-0.0344 -12.57993,-4.49828 -12.57993,-4.49828z" fill="#e3a500" stroke="none" stroke-width="0"/><path d="M310.07339,181.57367c0,0 9.28276,2.53498 12.38239,2.53498c3.26202,0 9.06742,-2.33998 9.06742,-2.33998c0,0 -5.57145,4.33327 -8.86988,4.30328c-3.78448,-0.0344 -12.57993,-4.49828 -12.57993,-4.49828z" fill="#e3a500" stroke="none" stroke-width="0"/><path d="M310.78343,185.98867c0,0 9.28276,2.53498 12.38239,2.53498c3.26202,0 9.06742,-2.33998 9.06742,-2.33998c0,0 -5.57145,4.33327 -8.86988,4.30328c-3.78448,-0.0344 -12.57993,-4.49828 -12.57993,-4.49828z" fill="#e3a500" stroke="none" stroke-width="0"/><path d="M311.10347,189.72119c0,0 9.28276,2.53498 12.38239,2.53498c3.26202,0 9.06742,-2.33998 9.06742,-2.33998c0,0 -5.57145,4.33327 -8.86988,4.30328c-3.78448,-0.0344 -12.57993,-4.49828 -12.57993,-4.49828z" fill="#e3a500" stroke="none" stroke-width="0"/></g></g></svg>