<svg version="1.1" xmlns="http://www.w3.org/2000/svg" xmlns:xlink="http://www.w3.org/1999/xlink" width="21.35587" height="64.54254" viewBox="0,0,21.35587,64.54254"><g transform="translate(-311.66478,-117.4551)"><g data-paper-data="{&quot;isPaintingLayer&quot;:true}" fill-rule="nonzero" stroke-linecap="butt" stroke-linejoin="miter" stroke-miterlimit="10" stroke-dasharray="" stroke-dashoffset="0" style="mix-blend-mode: normal"><path d="M311.91479,175.03409v-37.97619h20.85587v37.97619z" fill="none" stroke-opacity="0.01176" stroke="#000000" stroke-width="0.5"/><path d="M320.69856,181.99765v-27.79753h4.69217v27.79753z" fill="#ad7e53" stroke="none" stroke-width="0"/><path d="M319.92017,137.14348c1.42496,-0.47499 2.99066,1.13676 3.71835,0.93772c1.18236,-0.3234 1.82017,-1.96767 3.34669,-0.79993c1.36396,1.04339 2.40271,5.85148 1.73689,8.17147c1.5644,4.41689 0.19317,10.81848 -4.28151,12.66582l-0.38661,0.22305c-1.32113,0.37746 -2.69832,0.51676 -3.98226,0.01096c-1.06884,-0.42106 -5.92467,-7.93445 -5.92467,-9.48635c0,-1.2813 0.73518,-2.67139 1.78772,-3.90916c-0.23366,-3.14101 1.39508,-6.95014 3.9854,-7.81358z" fill="#0a0a0a" stroke="none" stroke-width="0.5"/><path d="M314.35275,147.45183c-0.15951,-0.63802 3.54912,-8.92012 4.31917,-9.50026c2.00247,-1.5086 3.40663,1.0587 5.57773,0.02754c0.66726,-0.31691 1.85117,-1.6803 2.90206,-0.65901c1.95587,1.90076 0.74281,4.86184 -1.44202,4.5541c-0.90159,0.45505 -2.36264,0.69853 -2.82393,1.22699c-0.46004,0.52701 -1.9032,3.8787 -2.79038,3.28725l-0.85514,-0.91611c-0.01147,0.00116 -0.02291,0.00218 -0.03432,0.00304c-0.02877,1.6987 -0.35974,3.50468 -1.98823,3.50468c-0.99549,0 -1.26509,-0.39528 -1.1854,-0.9341c-0.70358,0.50944 -1.38682,0.57679 -1.67955,-0.59412z" fill="#a45307" stroke="none" stroke-width="0.5"/><path d="M327.23555,143.69434c0.23161,2.58538 -0.09741,7.08444 -1.01835,9.67964c-1.68341,4.7438 -4.08957,-0.45784 -5.19613,-1.37682c-0.59427,-0.49354 -4.3131,0.61003 -4.84954,-1.30522c-0.41352,0.02582 -0.78025,-0.06001 -1.04486,-0.30835c-0.38567,-0.36195 -1.15931,-0.70508 -1.02015,-1.21536c-0.02068,-0.08011 -0.03168,-0.16411 -0.03168,-0.25068c0,-0.46876 0.32254,-0.8622 0.7578,-0.97047c0.44534,-0.58757 0.93352,-1.22941 1.03684,-1.28845c0.10474,-0.05985 0.23066,-0.07906 0.36879,-0.06904c0.95628,-4.10716 3.40926,-5.02566 7.62148,-5.05596c0.98807,-0.0071 3.01051,-2.26772 3.78652,-0.66072c0.20072,0.41565 -0.13351,1.31155 -0.62872,2.10188c0.1096,0.14956 0.1878,0.38244 0.218,0.71954zM319.94012,143.66234c0.24941,0.19479 0.39575,0.60062 0.46263,1.10526c0.54602,-0.51143 1.11307,-0.97946 1.5951,-1.34218c-0.79744,-0.13834 -1.55633,-0.12707 -2.05774,0.23692z" fill="#a31607" stroke="none" stroke-width="0.5"/><path d="M317.28913,149.8997c0,-0.55229 0.44772,-1 1,-1c0.08657,0 0.17057,0.011 0.25068,0.03168l0.01448,-0.00395l0.02507,0.01504c0.15945,0.04828 0.30206,0.1353 0.41688,0.25012v0l0.13392,0.13393l0.08271,0.13784l0.10461,0.12205l0.01681,0.0336l0.05475,0.08212l0.05756,0.16117l0.08053,0.151l0.02819,0.11273l0.13791,0.3448l0.08749,0.17497l0.05475,0.08213l0.02125,0.05951l0.04112,0.04798l0.17857,0.35714l0.01177,0.05295l0.10084,0.12101l0.16576,0.16576l0.03174,0.02116l0.18834,0.113l0.00891,-0.03562l0.01585,-0.00905l0.00165,-0.00544l0.13393,-0.22322l0.35348,-0.35348l0.00401,-0.00702l0.00402,-0.001l0.00293,-0.00293l0.00809,0.00017l0.48497,-0.12124h0.3125l0.15595,0.03898l0.1147,0.00883l0.15792,-0.75802v-0.3486l-0.05021,-0.03013l-0.03712,-0.03712l-0.04838,-0.02037l-0.35715,-0.26786l-0.04539,-0.05586l-0.06172,-0.03703l-0.08929,-0.08928l-0.04891,-0.08152l-0.05021,-0.02092l-0.06846,-0.17687l-0.09758,-0.16263l0.01431,-0.05247l-0.03431,-0.08866l-0.04465,-0.35714l0.00761,-0.06274l-0.01533,-0.0613v-0.26786l0.125,-0.5l0.875,-0.5l0.875,0.5l0.125,0.5v0.11384l0.0498,0.03735l0.17898,0.10739l0.08705,0.08705l0.10556,0.06333l0.13243,0.13244l0.01101,0.0022l0.01542,0.02423l0.0197,0.0197l0.11822,0.19703l0.12336,0.19385l0.00881,0.02644l0.01478,0.02463l-0.00296,0.01083l0.1133,0.33989l0.01232,0.16028l0.03899,0.15595v0.41724l0.02254,-0.13521l0.0066,-0.01518l-0.00079,-0.01654l0.11451,-0.57255v-0.77323l-0.00623,-0.00935l0.00623,-0.02803v-0.02786l0.05573,-0.22291l0.04985,-0.2243l0.01246,-0.02492l0.00697,-0.02786l0.00975,-0.00557l0.14939,-0.29879l0.05916,-0.06902l0.03528,-0.08377l0.07982,-0.10644l0.04896,-0.09792l0.02552,-0.02977l0.01141,-0.03751l0.01803,-0.03005l0.06268,-0.31341v-0.97241l0.02986,-0.11943v-0.15342l0.05044,-0.04834l0.0447,-0.17881l0.35143,-0.20082l0.28103,-0.26933l0.12752,0.03587l0.11502,-0.06572l0.33797,0.19312l0.38964,0.10959l0.08674,0.16263l0.06065,0.03466l0.03721,0.14884l0.05794,0.10862l0.04464,0.17857v0.12311l0.02986,0.11943v1.20535l-0.00138,0.00552l0.00894,0.01592l-0.07232,0.23761l-0.06024,0.24096l-0.01585,0.00906l-0.00166,0.00544l-0.06345,0.10575l-0.01726,0.09492v0.44555l-0.00951,0.03804l0.00657,0.03866l-0.0417,0.54206v1.62473l0.04243,0.63642l-0.00604,0.03349l0.00825,0.03303v0.28607l0.03459,0.24215l-0.00741,0.0716l0.01746,0.06982v0.3125l-0.01121,0.04486l0.00711,0.04568l-0.03761,0.41372l0.00463,0.00825l-0.00767,0.0252l-0.00399,0.04389l-0.07346,0.21059l-0.06493,0.21337l-0.02268,0.03779l-0.00868,0.02488l-0.00861,0.00393l-0.06746,0.11244l0.00041,0.01283l-0.02101,0.02148l-0.00592,0.00987l-0.16764,0.16764l-0.16575,0.16951l-0.00979,0.00603l-0.02124,0.02124l-0.01284,-0.00027l-0.53648,0.33014l-0.0428,0.01355l-0.03409,0.02922l-0.02441,0.0122l-0.0515,0.08093l-0.06238,0.14816l-0.09478,0.12638l-0.00062,0.01121l-0.02181,0.01869l-0.01672,0.02229l-0.17833,0.14489l-0.17446,0.14954l-0.02492,0.01246l-0.008,0.00651l-0.00357,0.00625l-0.00595,0.00149l-0.00476,0.00387l-0.00714,-0.00089l-0.01001,0.0025l-0.02492,0.01246l-0.2243,0.04985l-0.22291,0.05573h-0.02787l-0.02804,0.00623l-0.00934,-0.00623h-0.00343l-0.00935,0.00623l-0.02803,-0.00623h-0.02787l-0.22291,-0.05573l-0.22431,-0.04985l-0.02492,-0.01246l-0.02787,-0.00697l-0.00557,-0.00976l-0.03093,-0.01546l-0.02977,-0.02552l-0.03751,-0.01141l-0.22321,-0.13393l-0.01724,-0.01724l-0.02296,-0.0082l-0.06714,-0.04477l-0.26032,-0.08677l-0.13495,-0.02699l-0.59752,-0.08536l-0.10117,-0.04122l-0.10853,-0.01241l-0.67659,-0.25372l-0.27379,-0.07823l-0.0811,-0.04679l-0.09139,-0.02031l-0.44643,-0.22321l-0.02157,-0.01849l-0.02736,-0.00769l-0.2884,-0.16481l-0.33231,-0.16616l-0.04798,-0.04112l-0.05951,-0.02125l-0.11413,-0.07609l-0.42602,-0.25562l-0.01724,-0.01724l-0.02296,-0.0082l-0.13392,-0.08928l-0.067,-0.0737l-0.08541,-0.05124l-0.26785,-0.26785l-0.02379,-0.03965l-0.03733,-0.02728l-0.22321,-0.26785l-0.08075,-0.16727l-0.09972,-0.15669l-0.02217,-0.06651l-0.11895,-0.2379l-0.05475,-0.08212l-0.02125,-0.05951l-0.04113,-0.04798l-0.13393,-0.26786l-0.0092,-0.04143l-0.02485,-0.03439l-0.17857,-0.44643l-0.0093,-0.06816l-0.03237,-0.0607l-0.00723,-0.0289c-0.02348,-0.02348 -0.04224,-0.04224 -0.04224,-0.04224c-0.11482,-0.11482 -0.20185,-0.25743 -0.25013,-0.41687l-0.01504,-0.02507l0.00395,-0.01449c-0.02068,-0.08011 -0.03168,-0.16411 -0.03168,-0.25068zM324.05924,151.68912l-0.08928,0.26786l-0.03865,0.06072l-0.00214,0.0096l0.18927,0.18927l0.01086,-0.05434l0.03933,-0.39329l0.09223,-1.01449l-0.17133,0.8224l-0.02576,0.05327z" fill="#801105" stroke="none" stroke-width="0.5"/><path d="M316.50292,143.51595c-0.74714,-2.5547 -1.46699,-4.5369 -1.38687,-7.38512c0.10925,-3.88349 4.07468,-7.13632 4.10768,-11.08471c0.01261,-1.50878 0.00276,-3.01766 0,-4.52648c-0.00193,-1.05572 -1.17714,-2.06955 0.46851,-2.89238c1.29731,-0.64866 2.16276,0.68166 2.68539,1.56687c1.38193,2.34067 1.91581,4.80133 0.96642,7.53029c-1.13671,3.26743 -2.65756,6.16662 -3.31015,9.58771c-0.19885,1.04246 -0.23086,2.14438 -0.01628,3.18371c0.12834,0.62162 1.20063,0.72552 1.20063,1.47145c0,0.51463 -0.06741,1.10212 -0.40622,1.48948c-0.26156,0.29905 -0.90055,0.25731 -1.00509,0.6406c0.03168,0.12273 0.04853,0.25141 0.04853,0.38403c0,0.84608 -0.68588,1.53196 -1.53196,1.53196c-0.55634,0.43074 -1.67998,-1.01662 -1.8206,-1.49743z" fill-opacity="0.60392" fill="#fce80a" stroke="none" stroke-width="0.5"/><path d="M318.25086,141.69782c0.30952,-0.54165 1.01981,-0.87051 1.14283,-1.4821c0.2301,-1.14394 -0.37299,-2.68556 -0.12422,-3.97c0.79873,-4.12392 2.51092,-8.22649 3.5804,-12.31829c0.49962,-1.91155 2.26204,-4.85362 4.72523,-3.62202c1.66808,0.83404 0.42216,2.78275 1.31303,3.97516c3.55463,4.75778 0.72855,12.25117 -2.8334,16.0143c-1.25764,1.32867 -2.96509,2.38376 -4.75475,2.80212c-0.47163,0.11025 -2.03003,0.38426 -2.29468,-0.07889z" fill-opacity="0.60392" fill="#fcae0a" stroke="none" stroke-width="0.5"/></g></g></svg>