<svg version="1.1" xmlns="http://www.w3.org/2000/svg" xmlns:xlink="http://www.w3.org/1999/xlink" width="19.14715" height="22.96433" viewBox="0,0,19.14715,22.96433"><g transform="translate(-289.7644,-151.97109)"><g data-paper-data="{&quot;isPaintingLayer&quot;:true}" fill-rule="nonzero" stroke="none" stroke-linecap="butt" stroke-linejoin="miter" stroke-miterlimit="10" stroke-dasharray="" stroke-dashoffset="0" style="mix-blend-mode: normal"><path d="M289.7644,151.97109h19.00889c0.59327,1.91404 -0.78633,2.73683 -2.92341,4.18735c-0.51494,0.12099 -0.91284,0.21966 -1.37933,0.47778c-0.22665,0.12541 -1.75588,0.63367 -1.73467,0.91505c0.15232,2.02101 3.96271,1.05768 4.10158,3.36501c-0.70573,0.89507 -1.96117,1.27895 -2.74696,2.12902c-1.34781,1.45806 -2.03468,2.68064 -3.87825,3.65221c-2.24831,1.18488 -9.32305,2.9248 -5.72998,5.59911c0.47156,0.34944 1.35776,0.43628 1.43675,1.01786c0.02725,0.20063 -1.69334,0.59546 -1.85647,0.63624c-1.42543,0.35636 -2.86883,0.64595 -4.29815,0.9847z" fill="#8b8b8b" stroke-width="0"/><path d="M297.76282,161.66084c-0.83205,-0.5547 -0.27735,-1.38675 -0.27735,-1.38675l0.66783,-0.99298c2.42285,-2.27651 5.12522,-0.91342 7.57157,0.71563c0,0 0.83205,0.5547 0.27735,1.38675c-0.5547,0.83205 -1.38675,0.27735 -1.38675,0.27735c-0.20845,-0.13913 -0.44926,-0.30415 -0.71175,-0.47553c-0.03486,0.37935 -0.31066,0.65515 -0.31066,0.65515c-1.07609,1.06165 -2.51157,1.57515 -3.41758,2.79677c-0.69014,0.93054 -1.21286,1.84228 -1.59883,2.77341c-0.77621,0.31093 -1.64951,0.65259 -2.45093,1.02912c0.44451,-1.75824 1.22585,-3.40703 2.46576,-5.0236c1.04184,-1.35833 2.43303,-1.81609 3.58735,-2.98991c0,0 0.0549,-0.0549 0.14939,-0.1188c-0.96508,-0.41175 -1.95311,-0.53539 -2.62825,0.24165l-0.55042,0.8344c0,0 -0.5547,0.83205 -1.38675,0.27735z" fill="#6a6a6a" stroke-width="0.5"/><path d="M295.91902,173.31448c0.004,0.02944 -0.02963,0.06305 -0.09044,0.09911l-0.12547,-0.47642c0.11467,0.09971 0.19462,0.22053 0.21591,0.3773z" fill="#6a6a6a" stroke-width="0.5"/><path d="M293.36827,169.49795l-0.15982,-1.1365c-0.00816,-3.68868 -2.98268,-8.78819 0.74735,-11.41034c0,0 0.83205,-0.5547 1.38675,0.27735c0.04512,0.06767 0.08106,0.13351 0.10902,0.19737c1.54273,-2.08932 4.0525,-2.80646 6.92965,-2.74111l1.30544,0.70738c0,0 0.86824,0.49614 0.3721,1.36438c-0.0139,0.02433 -0.02809,0.04758 -0.04255,0.06981c-0.30431,0.12143 -0.6891,0.27765 -0.95706,0.42652c-0.21295,-0.03747 -0.36477,-0.12422 -0.36477,-0.12422l-0.8265,-0.51087c-2.64491,0.09215 -4.85662,0.89381 -5.63446,3.72437c0,0 -0.27472,0.96152 -1.23625,0.6868c-0.96152,-0.27472 -0.6868,-1.23625 -0.6868,-1.23625c0.07402,-0.25159 0.15616,-0.49224 0.24605,-0.7223c-1.5198,1.96461 0.65251,6.96381 0.64699,9.14931l0.0931,0.64025c-0.70733,0.39084 -1.28934,0.81602 -1.5909,1.27933c-0.28223,-0.25551 -0.33734,-0.64127 -0.33734,-0.64127z" fill="#6a6a6a" stroke-width="0.5"/></g></g></svg>