<svg version="1.1" xmlns="http://www.w3.org/2000/svg" xmlns:xlink="http://www.w3.org/1999/xlink" width="84.42021" height="105.38655" viewBox="0,0,84.42021,105.38655"><g transform="translate(-277.9011,-126.71258)"><g data-paper-data="{&quot;isPaintingLayer&quot;:true}" fill-rule="nonzero" stroke="none" stroke-linecap="butt" stroke-linejoin="miter" stroke-miterlimit="10" stroke-dasharray="" stroke-dashoffset="0" style="mix-blend-mode: normal"><path d="M308.20226,196.49678c0,0 -1.65563,-19.85247 -2.40662,-31.15908c1.57515,0.81106 3.54837,1.29441 4.69443,1.29441c2.42848,1.23205 6.81687,1.36104 9.46971,1.69581c3.3989,0.06364 6.80258,0.01525 10.20206,0.01525c2.30188,0 4.70164,-0.30869 6.98581,-0.833c0.00565,0.36883 0.00649,0.74374 0.00158,1.12447c-0.05526,4.28593 -0.94731,9.08451 -1.15863,13.52263c-0.39713,8.34034 -0.19302,15.40772 -0.19302,15.40772z" fill="#ff9a31" stroke-width="0"/><path d="M307.48103,195.93346c-1.11271,0 -1.11271,-1.11271 -1.11271,-1.11271l0.00114,-1.2217c0.26887,-2.9473 0.89281,-5.63266 0.59002,-8.62344c0,0 -0.03292,-0.32922 0.11665,-0.64656c-0.17281,-0.63702 -0.33948,-1.25758 -0.34658,-1.30765c-0.2276,-1.60389 0.05443,-3.2618 -0.22847,-4.8812c-0.22143,-1.26754 -0.66413,-2.50145 -0.8255,-3.7849c-0.1701,-1.35287 -0.39036,-2.64086 -0.58387,-3.96981c-0.20316,-1.39519 0.20192,-2.02232 -0.47996,-3.29493c0,0 -0.49763,-0.99524 0.49761,-1.49286c0.99524,-0.49762 1.49286,0.49762 1.49286,0.49762c0.22445,0.47108 0.55264,0.90558 0.67334,1.41325c0.19691,0.82819 -0.11265,1.71256 0.01797,2.55375c0.39858,2.56694 0.95574,5.13152 1.4017,7.70615c0.28476,1.64407 0.00639,3.3357 0.24004,4.95753c0.11993,0.83249 0.45211,1.62028 0.67341,2.43173l0.23064,0.80698c0,0 0.27205,0.9522 -0.59545,1.31667c-0.07708,2.14664 -0.45151,4.21187 -0.65128,6.4185l0.00114,1.12086c0,0 0,1.11271 -1.11271,1.11271z" fill="#ff9a31" stroke-width="0.5"/><path d="M339.65811,168.27432c0.54351,1.39807 -0.85456,1.94158 -0.85456,1.94158l-1.13067,0.42927c-0.58012,0.15242 -1.16024,0.30483 -1.74036,0.45725c-1.08032,0.1833 -2.07161,0.72259 -3.13255,0.99662c-6.83219,1.76468 -14.26456,0.28835 -20.85494,-1.43472c-2.55475,-0.66794 -4.63786,-0.50338 -6.77315,-2.16014c0,0 -1.15408,-0.95818 -0.1959,-2.11226c0.95818,-1.15408 2.11226,-0.1959 2.11226,-0.1959c1.39067,1.29872 3.75755,1.07794 5.62412,1.56808c6.01766,1.58019 13.0446,3.12762 19.29649,1.44112c1.10634,-0.29844 2.15192,-0.82524 3.27887,-1.0327c0.54027,-0.14279 1.08053,-0.28557 1.6208,-0.42836l0.80801,-0.32441c0,0 1.39807,-0.54351 1.94158,0.85456z" fill-opacity="0.30588" fill="#000000" stroke-width="0.5"/><path d="M336.14569,197.52631c-1.06579,0.31974 -1.38552,-0.74606 -1.38552,-0.74606l-0.3771,-1.27479c-0.30794,-2.99504 -0.1846,-6.37785 0.45591,-9.35592c-0.00862,-0.06986 -0.00861,-0.11339 -0.00861,-0.11339v-0.23426c0.00251,-2.02715 -0.56475,-3.86179 -0.46737,-5.90681c0.08917,-1.87268 0.56717,-3.52792 0.96166,-5.34135c0.48405,-2.22519 0.61177,-4.39544 0.79796,-6.64766c0,0 0.00622,-0.0747 0.03483,-0.18371c0.65846,-0.13109 1.31004,-0.28074 1.94981,-0.4468c0.27166,0.35254 0.2331,0.81531 0.2331,0.81531c-0.19729,2.34751 -0.33801,4.62012 -0.84184,6.93917c-0.3677,1.69246 -0.82919,3.21891 -0.91237,4.96589c-0.08594,1.80469 0.36513,3.45549 0.45449,5.2329c0.21183,0.39187 0.09906,0.84294 0.09906,0.84294c-0.71149,2.77107 -0.849,6.1414 -0.57363,9.00126l0.32567,1.06776c0,0 0.31974,1.06579 -0.74605,1.38552z" fill="#ff9a31" stroke-width="0.5"/><path d="M337.32389,166.8896c0.06469,0.00539 0.12529,0.01424 0.18206,0.02613c-0.34007,0.08293 -0.68307,0.16104 -1.02827,0.23403c0.17884,-0.17068 0.44648,-0.29348 0.84621,-0.26016z" fill="#c5d8e2" stroke-width="0.5"/><path d="M338.27612,167.1788c0,0.99605 -7.38246,1.8035 -16.48918,1.8035c-9.10672,0 -16.48918,-0.80746 -16.48918,-1.8035c0,-0.39775 -2.02902,-2.6548 -0.03491,-2.953c2.99961,-0.44855 11.85545,-1.42694 17.32564,-1.42694c9.10672,0 15.68762,3.38389 15.68762,4.37994z" fill="#ff9a31" stroke-width="0"/><g fill="#ff9a31" stroke-width="0.5"><path d="M297.11194,223.30306c-0.83866,-0.021 -0.81766,-0.85967 -0.81766,-0.85967l0.01208,-0.48219c0.18142,-6.58893 -1.11079,-12.86363 -1.36757,-19.22843c2.70038,-3.57933 12.01197,-8.25375 16.49334,-8.82241c0,0 0.8332,-0.09782 0.93101,0.73539c0.09782,0.83321 -0.73538,0.93102 -0.73538,0.93102c-3.73394,0.39229 -8.42787,3.53262 -11.43405,5.6348c-1.1063,0.77363 -2.76085,1.03994 -3.65461,2.02541c0.65591,6.34899 1.58967,12.22435 1.44458,18.76623l-0.01207,0.4822c0,0 -0.021,0.83866 -0.85966,0.81766z"/><path d="M301.55648,222.11679c0.28513,-0.78898 1.07411,-0.50385 1.07411,-0.50385l0.69963,0.26497c2.14023,1.21199 3.53492,1.54828 4.65104,3.98538c0.57507,5.29079 -6.29957,5.41578 -9.56794,3.28616c-2.96568,-1.93238 -1.79843,-3.845 -2.44238,-6.48384c0,0 -0.16143,-0.82323 0.6618,-0.98468c0.82323,-0.16143 0.98467,0.66181 0.98467,0.66181c0.36872,2.19674 -0.67747,3.87487 1.69921,5.39279c1.73123,1.10568 7.52769,2.13546 7.0511,-1.41219c-0.93649,-1.9258 -2.10618,-2.00413 -3.85942,-2.98267l-0.44797,-0.14975c0,0 -0.78898,-0.28514 -0.50385,-1.07412z"/><path d="M302.15195,223.3862c-0.78898,-0.28513 -0.50385,-1.07411 -0.50385,-1.07411l0.00216,0.12068c0.14576,-5.82129 -1.81819,-11.42842 -2.50489,-17.16918c0,0 -0.09783,-0.83321 0.73538,-0.93103c0.83321,-0.09782 0.93101,0.73539 0.93101,0.73539c0.6719,5.82113 2.66381,11.49671 2.51583,17.4068l-0.10152,0.40758c0,0 -0.28513,0.78898 -1.07411,0.50385z"/><path d="M299.24905,204.97668c-0.09782,-0.83321 0.73538,-0.93102 0.73538,-0.93102l0.95136,-0.1091c1.84835,-0.50895 2.74872,-1.76437 4.33023,-2.76745c3.53989,-2.24515 7.58314,-3.0286 11.04059,-5.52621c0,0 0.68005,-0.49125 1.1713,0.18879c0.49125,0.68005 -0.18879,1.1713 -0.18879,1.1713c-3.49819,2.52705 -7.5773,3.32582 -11.14323,5.59474c-1.78774,1.13751 -2.75973,2.38047 -4.88473,2.98481l-1.0811,0.1295c0,0 -0.8332,0.09782 -0.93102,-0.73538z"/></g><path d="M326.69491,196.45735c0,0 0.45681,-0.70365 1.16045,-0.24685c0.70365,0.45681 0.24684,1.16045 0.24684,1.16045c-2.0826,3.12393 -2.66351,8.74151 -2.96556,12.39733c-0.10308,1.24774 -0.84308,2.57971 -0.8003,3.81712c-0.49222,0.2329 -1.02434,0.41336 -1.48059,0.72c-0.76995,-4.58735 1.49969,-14.16954 3.83916,-17.84806z" fill="#ff9a31" stroke-width="0.5"/><path d="M337.18285,228.27626c-0.67244,0.50161 -1.17405,-0.17084 -1.17405,-0.17084l-0.2884,-0.38662c-3.91685,-5.27819 -8.79288,-9.40543 -12.91953,-14.23392c0.52308,-0.27355 1.11073,-0.35504 1.68343,-0.47984c4.38691,4.52415 8.69738,8.53527 12.58099,13.71054l0.28842,0.38663c0,0 0.5016,0.67244 -0.17084,1.17405z" fill="#ff9a31" stroke-width="0.5"/><path d="M339.94488,224.5976c-0.26323,-0.79655 0.53333,-1.05978 0.53333,-1.05978l0.71384,-0.22388c2.43171,-0.36921 3.73616,-0.96641 6.11945,0.26043c3.72085,3.80506 -1.6077,8.15049 -5.49341,8.4951c-3.52584,0.3127 -3.78962,-1.91239 -5.92626,-3.58957c0,0 -0.63554,-0.54761 -0.08793,-1.18315c0.5476,-0.63553 1.18315,-0.08792 1.18315,-0.08792c1.64709,1.49958 1.86118,3.46548 4.66781,3.19076c2.04441,-0.20012 7.23857,-2.97142 4.67207,-5.46663c-1.92615,-0.93576 -2.89432,-0.27472 -4.87749,0.03898l-0.44477,0.159c0,0 -0.79655,0.26323 -1.05978,-0.53333z" fill="#ff9a31" stroke-width="0.5"/><path d="M341.19734,225.2279c-0.79655,0.26323 -1.05978,-0.53333 -1.05978,-0.53333l0.07626,0.09356c-3.48178,-4.66753 -8.49019,-7.86329 -12.57682,-11.9532c0,0 -0.59167,-0.59475 0.00307,-1.18642c0.59475,-0.59167 1.18641,0.00308 1.18641,0.00308c4.12464,4.16226 9.19732,7.39457 12.73222,12.13331l0.17197,0.38321c0,0 0.26322,0.79656 -0.53334,1.05978z" fill="#ff9a31" stroke-width="0.5"/><path d="M327.43081,212.89964c-0.70365,-0.45681 -0.24685,-1.16045 -0.24685,-1.16045l0.52359,-0.80178c0.7887,-1.74739 0.39757,-3.24197 0.63562,-5.09958c0.53283,-4.15784 2.51194,-7.76959 2.79785,-12.0252c0,0 0.05624,-0.83704 0.89328,-0.7808c0.83704,0.05624 0.78081,0.89327 0.78081,0.89327c-0.28927,4.30576 -2.2795,7.9549 -2.81066,12.14796c-0.26629,2.10215 0.06951,3.64388 -0.82245,5.66508l-0.59073,0.91466c0,0 -0.45681,0.70365 -1.16045,0.24684z" fill="#ff9a31" stroke-width="0.5"/><path d="M310.15714,193.06784c-0.5964,1.0437 -1.46196,1.50152 -2.45345,1.60288c-2.01092,0.20557 -4.5399,-1.05517 -6.39207,-1.86812c-7.99054,-3.50718 -11.48731,-7.21257 -11.51495,-15.72427c-0.00502,-1.54468 -2.66722,-1.29848 -1.55944,-3.51404c1.08281,-2.16561 3.16107,-0.39327 3.95157,0.62585c4.08529,5.26675 -1.57174,8.28464 5.80139,13.00073c2.55394,1.63359 5.46375,2.79419 8.31553,3.7418c0.53994,0.17942 2.73013,0.17292 2.9896,0.62699z" fill="#ff9a31" stroke-width="0.5"/><g fill="#ea8f2d" stroke-width="0.5"><path d="M305.99242,173.05793c-0.89898,0.92675 -3.13779,0.90894 -4.31506,1.05412c-2.96291,0.36542 -6.99348,2.89316 -9.26061,4.41282c-2.12769,1.42619 -6.76871,9.58322 -9.10038,8.39966c-3.01247,-1.52914 2.22158,-5.31453 2.83342,-6.59747c3.31502,-6.9511 11.48062,-7.9253 17.71185,-10.10823c0.08995,-0.09424 0.1919,-0.17984 0.30537,-0.2545c0.01867,-0.01228 0.03749,-0.02416 0.05645,-0.03564c1.57164,-0.97948 2.28445,-0.33433 2.4365,0.64989c0.42266,0.76147 0.21859,1.72354 -0.48038,2.24725c-0.05832,0.08578 -0.12085,0.16374 -0.18715,0.2321z"/><path d="M302.94533,174.32791c-2.13062,1.11623 -4.42561,1.24286 -6.63565,2.68566c-2.916,1.90366 -3.94729,2.28983 -5.59058,4.45576c-0.93172,1.22804 -3.96314,8.15116 -6.34873,6.27238c-1.75665,-1.38346 3.80487,-9.53987 5.39885,-10.61451c1.60013,-1.0788 3.21251,-2.13965 4.83652,-3.18216c0.86125,-0.55288 1.84917,-0.92116 2.70944,-1.46766c0.92836,-0.58975 7.71874,-3.02403 8.655,-1.36228c0.22001,0.13111 0.41454,0.31277 0.56476,0.5411c0.53123,0.80741 0.30734,1.89259 -0.50007,2.42383c-0.17087,0.72578 -2.62091,0.00236 -3.08955,0.24788z"/><path d="M287.78304,186.72099c-0.31934,2.74005 -5.07725,8.08352 -7.4294,4.90738c-0.74381,-1.00437 -2.69545,-3.27823 -2.42747,-4.43449c0.36125,-1.55866 4.89571,-4.92307 6.53244,-4.09226c0.59822,-0.0292 1.1959,0.24967 1.54893,0.78624c0.06844,0.10402 0.12435,0.21267 0.1681,0.32413c0.55985,0.83764 1.77068,1.10812 1.60742,2.50901z"/></g><g fill="#ea8f2d" stroke-width="0.5"><path d="M336.5858,172.44662c1.14835,0.59019 1.7832,2.73717 2.26489,3.82116c1.21231,2.72813 4.80412,5.84803 6.91806,7.57445c1.98392,1.62023 11.13885,3.68504 10.68551,6.2603c-0.58573,3.32719 -5.73112,-0.57786 -7.13662,-0.78963c-7.61516,-1.1474 -10.92476,-8.67552 -14.82748,-14.00114c-0.11635,-0.05861 -0.22792,-0.13122 -0.33239,-0.21804c-0.01719,-0.01429 -0.03403,-0.02883 -0.05054,-0.04363c-1.39466,-1.21834 -0.98502,-2.08812 -0.08772,-2.52016c0.60541,-0.62606 1.58521,-0.71097 2.28975,-0.19478c0.09904,0.03082 0.19183,0.06794 0.27654,0.11146z"/><path d="M338.68799,174.99189c1.68825,1.71329 2.47763,3.87196 4.50142,5.56613c2.67024,2.23535 3.33996,3.10951 5.89053,4.05094c1.44612,0.53377 8.95194,1.41801 7.84919,4.24728c-0.81202,2.08336 -10.23438,-0.86224 -11.72659,-2.07424c-1.49797,-1.21668 -2.98235,-2.4503 -4.45255,-3.70039c-0.77969,-0.66295 -1.41968,-1.50083 -2.19298,-2.16469c-0.83451,-0.71641 -5.1405,-6.50377 -3.82337,-7.88331c0.06137,-0.24865 0.17852,-0.48765 0.35321,-0.69784c0.61775,-0.74331 1.7211,-0.8451 2.46441,-0.22736c0.74409,-0.04786 0.7654,2.50666 1.13674,2.8835z"/><path d="M354.95895,185.88865c2.71431,-0.49234 9.21162,2.50354 6.85799,5.67858c-0.74428,1.00402 -2.35134,3.53319 -3.53552,3.6135c-1.5963,0.10825 -6.13526,-3.25011 -5.81702,-5.05783c-0.20211,-0.56379 -0.10937,-1.21677 0.30115,-1.71074c0.07959,-0.09577 0.16724,-0.18088 0.26114,-0.25519c0.63833,-0.77948 0.54453,-2.01661 1.93226,-2.26832z"/></g><path d="M308.09302,165.12173c-0.87156,0.40798 -1.74098,-0.22431 -1.74098,-0.22431l-1.83704,-1.47021c-0.77064,-1.16266 -1.69066,-2.35559 -2.03549,-3.74728c-0.53733,-2.1686 -0.19769,-4.67004 0.23949,-6.80916c1.05009,-5.13804 2.44153,-11.40294 6.76931,-14.85376c3.77026,-3.00627 8.58733,-3.07976 13.14945,-3.07976c2.92987,0 5.85388,-0.34305 8.57795,0.94164c3.84906,1.81524 6.56495,5.44588 8.58951,9.05507c3.62549,6.46316 6.30796,14.69011 2.96175,21.89066c-3.73253,3.45448 -7.12101,3.15109 -11.92409,3.15109c-7.70333,0 -16.0692,-0.64374 -22.74986,-4.85399z" fill="#ff9a31" stroke-width="0.5"/><path d="M316.20095,136.48285c-0.56944,0.48809 -1.05753,-0.08135 -1.05753,-0.08135l-0.51613,-0.61053c-1.58096,-2.37993 -1.23318,-5.23818 -2.50223,-7.59981c-0.74818,0.61938 -1.57343,1.06187 -2.32699,1.61455c-2.60826,1.91297 -2.43449,8.33086 -1.246,10.95694c0,0 0.30461,0.68535 -0.38075,0.98996c-0.68536,0.30461 -0.98997,-0.38075 -0.98997,-0.38075c-2.30812,-5.27026 -0.60459,-12.82317 5.19624,-14.65928c2.36839,1.85261 1.80482,5.71704 3.49777,8.24634l0.40694,0.4664c0,0 0.48809,0.56944 -0.08135,1.05754z" fill="#dc862a" stroke-width="0.5"/><path d="M333.6837,138.0713c-0.69636,0.27855 -0.9749,-0.41781 -0.9749,-0.41781l-0.3478,-0.90595c-0.02319,-1.56146 -0.06073,-3.06455 0.25249,-4.59983c0.24833,-0.5634 0.55487,-1.20029 0.75361,-1.7546c0.20298,-0.56614 -1.17005,0.31632 -1.77073,0.34628c-1.10601,0.05518 -2.30297,-0.10897 -3.36292,0.32728c-2.15454,0.88675 -3.00266,3.3699 -4.01882,5.21096c0,0 -0.36423,0.65561 -1.01985,0.29138c-0.65562,-0.36423 -0.29138,-1.01985 -0.29138,-1.01985c1.22071,-2.18078 2.22282,-4.80362 4.75041,-5.86597c0.91195,-0.3833 6.12794,-1.22216 6.86635,-0.24951c0.59627,0.78543 -0.13766,2.41132 -0.47716,3.16848c-0.25005,1.28556 -0.18093,2.55763 -0.20905,3.86171l0.26758,0.63252c0,0 0.27855,0.69635 -0.41782,0.9749z" fill="#dc862a" stroke-width="0.5"/><path d="M329.35596,156.70412c0.67082,0.33541 0.33541,1.00623 0.33541,1.00623l-0.29434,0.50261c-3.44399,3.43166 -5.45666,-0.10918 -7.10197,-2.91575c-1.28839,2.31689 -3.29098,3.75367 -6.33075,3.61679l-0.78178,-0.70104c0,0 -0.53033,-0.53033 0,-1.06066c0.53033,-0.53033 1.06066,0 1.06066,0l0.29514,0.37589c2.13766,-0.23498 3.47951,-1.24442 4.39428,-2.83846c-0.94723,0.59455 -2.03946,0.5973 -2.48066,-0.95951c-0.48086,-1.69676 3.20068,-3.778 4.37954,-2.52676c0.00741,0.00786 0.0147,0.01573 0.02189,0.02361c0.07106,-0.02754 0.1438,-0.05271 0.21779,-0.07532c0.3048,-0.15374 0.60993,-0.25606 0.87475,-0.29232c0,0 0.39207,-0.03921 0.63626,0.2234c0.72364,0.17911 1.30449,0.71581 1.33977,1.77012c0.03776,1.12854 -1.05571,1.92216 -2.17789,2.07002c1.03789,2.0471 2.30628,4.52464 4.59231,2.22933l0.01335,-0.11277c0,0 0.33541,-0.67082 1.00623,-0.33541z" fill="#2f1c09" stroke-width="0.5"/><path d="M316.40665,145.60829c0.22577,0.2463 0.24124,0.48345 0.18897,0.67073l0.04447,0.05151c0.00358,0.29915 0.02062,0.6758 0.01911,1.07894c0.01781,-0.00091 0.03607,-0.00138 0.0548,-0.00138c0.75,0 0.75,0.75 0.75,0.75l-0.0437,0.30602c-0.32018,0.70877 -0.35505,1.11652 -0.78483,1.29783c-0.05079,0.15774 -0.11548,0.30875 -0.19515,0.45046c0.17426,1.1273 -0.09693,2.08917 -2.08273,1.8075c-1.53071,-0.21712 -2.70913,-1.95399 -2.03517,-3.42035c0.09398,-1.44052 0.71837,-3.05903 1.2647,-3.79468c0,0 0.45,-0.6 1.05,-0.15c0.10181,0.07636 0.17338,0.15703 0.22206,0.23835c0.04361,-0.00789 0.08851,-0.01201 0.13439,-0.01201c0.18059,0 0.34627,0.06383 0.47573,0.17016c0.03771,-0.00583 0.07634,-0.00887 0.11568,-0.00887c0.30388,0 0.56554,0.18072 0.68338,0.44055c0.04618,0.03384 0.09243,0.0752 0.1383,0.12524z" fill="#ffffff" stroke-width="0.5"/><path d="M327.5432,147.26654c0.11647,-0.9971 0.9013,-3.35191 2.47798,-1.85946c0.32477,0.30742 0.45209,0.61942 0.43625,0.92297c0.88306,0.744 0.88526,2.63563 0.59896,3.72286c-0.22574,3.02273 -3.38109,2.80671 -4.52934,0.37609c-0.37531,-0.79446 -0.20468,-1.28977 0.09442,-1.68866c-0.06218,-0.00305 -0.11825,-0.01045 -0.16727,-0.02239c0,0 -0.72114,-0.20603 -0.5151,-0.92718c0.20604,-0.72115 0.92719,-0.51511 0.92719,-0.51511c0.26705,0.09833 0.48724,0.0759 0.67692,-0.00912z" fill="#ffffff" stroke-width="0.5"/><path d="M318.24319,148.98219c-0.53033,0.53033 -1.06066,0 -1.06066,0l-0.26664,-0.2983c-1.19714,-1.99765 -2.27611,-3.75159 -2.85372,-6.05012c0,0 -0.1819,-0.72761 0.5457,-0.90951c0.7276,-0.1819 0.90951,0.5457 0.90951,0.5457c0.53521,2.15308 1.56273,3.77429 2.68474,5.64219l0.04106,0.00939c0,0 0.53033,0.53033 0,1.06066z" fill="#2f1c09" stroke-width="0.5"/><path d="M325.14298,148.3836c-0.62404,-0.41602 -0.20801,-1.04007 -0.20801,-1.04007l0.44248,-0.48556c1.66544,-0.82361 2.84072,-2.03909 3.21744,-3.87094c0,0 0.15715,-0.73335 0.8905,-0.5762c0.73335,0.15715 0.57621,0.89049 0.57621,0.89049c-0.5077,2.29343 -1.92544,3.84465 -4.01333,4.89829l0.13478,-0.02402c0,0 -0.41602,0.62404 -1.04006,0.20802z" fill="#2f1c09" stroke-width="0.5"/><path d="M318.00829,146.76251c0.68936,0.29544 0.39392,0.98479 0.39392,0.98479l-0.22377,0.52157c-0.10435,0.26077 -0.20871,0.52154 -0.31307,0.78231c-0.40008,0.89888 -0.6054,2.05239 -1.27009,2.80561c-1.49017,1.68864 -4.59603,1.30076 -5.29149,-0.95332c-0.88804,-2.87825 0.93464,-5.75741 3.35252,-7.10722c0,0 0.65562,-0.36424 1.01985,0.29138c0.36423,0.65562 -0.29139,1.01985 -0.29139,1.01985c-1.83981,1.01646 -3.28035,3.13774 -2.64748,5.35431c0.30881,1.08159 2.03644,1.3012 2.70851,0.4313c0.52402,-0.67827 0.69298,-1.6487 1.0376,-2.42516c0.10077,-0.25205 0.20155,-0.5041 0.30232,-0.75615l0.23777,-0.55535c0,0 0.29544,-0.68936 0.9848,-0.39392z" fill="#2f1c09" stroke-width="0.5"/><path d="M328.99993,144.66975c0.3975,-0.636 1.0335,-0.2385 1.0335,-0.2385l0.77844,0.52234c1.50353,1.70262 2.45251,7.1228 -0.708,8.05594c-2.62724,0.77569 -5.1105,-3.32275 -5.14101,-5.40382c0,0 0,-0.75 0.75,-0.75c0.75,0 0.75,0.75 0.75,0.75c-0.02016,0.96766 1.75599,4.50824 3.16667,3.9808c1.92941,-0.7214 0.98437,-4.60574 0.06123,-5.63637l-0.45233,-0.24689c0,0 -0.636,-0.3975 -0.2385,-1.0335z" fill="#2f1c09" stroke-width="0.5"/><path d="M315.36991,150.10971c-0.5,0 -0.5,-0.5 -0.5,-0.5c0,-0.57348 0,-1.41577 0,-1.98925c0,0 0,-0.5 0.5,-0.5c0.5,0 0.5,0.5 0.5,0.5c0,0.57348 0,1.14695 0,1.72043v0.26882c0,0 0,0.5 -0.5,0.5z" fill="#000000" stroke-width="0.5"/><path d="M329.67099,149.89465c-0.5,0 -0.5,-0.5 -0.5,-0.5c0,-0.57348 0,-1.25448 0,-1.82796c0,0 0,-0.5 0.5,-0.5c0.5,0 0.5,0.5 0.5,0.5c0,0.57348 0,1.14695 0,1.72043v0.10753c0,0 0,0.5 -0.5,0.5z" fill="#000000" stroke-width="0.5"/></g></g></svg>