<svg version="1.1" xmlns="http://www.w3.org/2000/svg" xmlns:xlink="http://www.w3.org/1999/xlink" width="22.70788" height="6.72478" viewBox="0,0,22.70788,6.72478"><g transform="translate(-318.89403,-176.71594)"><g data-paper-data="{&quot;isPaintingLayer&quot;:true}" fill-rule="nonzero" stroke="none" stroke-linecap="butt" stroke-linejoin="miter" stroke-miterlimit="10" stroke-dasharray="" stroke-dashoffset="0" style="mix-blend-mode: normal"><path d="M340.61963,178.9394c0.44377,0.29385 0.78238,0.66509 0.90314,1.08644c0.21612,0.75409 -0.03065,1.25945 -0.49424,1.57909c-0.11552,0.11546 -0.2572,0.22759 -0.42766,0.33483c-0.27786,0.17481 -0.59308,0.29458 -0.91246,0.37048c-0.45613,0.1084 -1.06904,0.01766 -1.5292,-0.02502c-0.43565,-0.15855 -1.25004,-0.40689 -1.57825,-0.74502c-0.00059,-0.00061 -0.00119,-0.00123 -0.00178,-0.00184c-1.77996,-0.02246 -3.57065,-0.36068 -5.35564,-0.26895c-3.92009,0.05087 -7.84023,0.57624 -11.76548,0.63347c0,0 -0.55631,0.00763 -0.56395,-0.54866c-0.00764,-0.55631 0.54865,-0.56394 0.54865,-0.56394c3.91807,-0.05024 7.83163,-0.57639 11.74451,-0.63298c1.63966,-0.08462 3.29535,0.21014 4.93521,0.26835c-0.00149,-0.2133 0.03594,-0.42841 0.10509,-0.6366c-1.24062,-0.08413 -2.48863,-0.13181 -3.7087,-0.17072c-2.55985,-0.19232 -5.22146,-0.08196 -7.77555,0.20035c-1.58102,0.17475 -3.37779,0.68921 -4.95125,0.43014c0,0 -0.548,-0.09608 -0.4519,-0.64408c0.09609,-0.548 0.64408,-0.4519 0.64408,-0.4519c1.4262,0.27079 3.18697,-0.27952 4.6319,-0.43958c2.61433,-0.28961 5.34191,-0.40371 7.96213,-0.20604c1.4313,0.04509 2.89756,0.10617 4.34746,0.21986c0.10197,-0.09288 0.21079,-0.17663 0.32473,-0.24915c0.0206,-0.01312 0.04182,-0.02569 0.06362,-0.0377c1.03436,0.14622 2.1853,0.22358 3.2197,0.28785c0.02789,0.0708 0.05649,0.14125 0.08587,0.21135zM340.2634,180.62781c-0.02035,0.02692 -0.04174,0.05335 -0.0641,0.07925c-0.00185,0.0101 -0.00387,0.02021 -0.00607,0.03036c0.03016,-0.02407 0.05454,-0.05305 0.07212,-0.08745c-0.00041,-0.00737 -0.00105,-0.01475 -0.00194,-0.02215z" fill="#b0c1ca" stroke-width="0.5"/><path d="M320.71105,183.44073l-0.66001,-6.08677l5.88388,-0.63801l0.66001,6.08677z" fill="#798d98" stroke-width="0"/><path d="M327.20053,182.57834v-5.71429h9.03061v5.71429z" fill="#688090" stroke-width="0"/><path d="M327.28418,179.33104v-1.84932h8.86986v1.84932z" fill="#89a9bf" stroke-width="0"/><path d="M327.38692,178.54337v-0.85616h8.63014v0.85616z" fill="#9bccec" stroke-width="0"/><path d="M320.72725,179.38008l-0.19305,-1.28697l4.4028,-0.66042l0.19305,1.28697z" fill="#9bb5c2" stroke-width="0"/></g></g></svg>