<svg version="1.1" xmlns="http://www.w3.org/2000/svg" xmlns:xlink="http://www.w3.org/1999/xlink" width="13.45614" height="11.61927" viewBox="0,0,13.45614,11.61927"><g transform="translate(-317.844,-178.19735)"><g data-paper-data="{&quot;isPaintingLayer&quot;:true}" fill-rule="nonzero" stroke="none" stroke-width="0.5" stroke-linecap="butt" stroke-linejoin="miter" stroke-miterlimit="10" stroke-dasharray="" stroke-dashoffset="0" style="mix-blend-mode: normal"><path d="M321.294,184.15802c0.07222,0.21393 0.09908,0.42389 0.05185,0.61067c0.41306,-0.5729 0.89314,-1.07234 1.34675,-1.41847l0.04041,-0.17689c0.85508,-0.92946 1.98597,-1.16789 3.03176,-0.40517c1.39063,1.23612 6.08562,4.76147 2.64909,6.56201c-1.13467,0.5945 -2.67592,-0.06848 -3.87309,-0.07893c-0.94455,0.26483 -1.79967,0.84788 -2.82627,0.40344c-2.03201,-0.87972 -1.64471,-2.88937 -0.63023,-4.49858c-0.23881,0.18291 -0.64567,0.29936 -1.28648,0.30534c-2.11701,0.01975 -2.75657,-3.38433 -0.69482,-3.98516c0,0 0.26705,-0.06676 0.4544,0.09694c0.54233,-0.11273 1.30225,0.50578 1.60239,0.82697c0.40184,0.59511 0.39659,1.25456 0.13422,1.75784z" fill="#b5c7d0"/><path d="M323.73908,179.00538c0,0.11042 -0.02439,0.19646 -0.06239,0.26349c0.89092,0.5224 1.42468,1.54667 0.23861,2.72281c-0.77949,0.77295 -1.3884,0.64581 -1.81034,0.12116c-0.50979,-0.17645 -0.77625,-0.91882 -0.74135,-1.63159c-0.17954,-0.54886 -0.12679,-0.93908 0.06545,-1.19451c0.02507,-0.27687 0.07932,-0.52201 0.16362,-0.70887c0,0 0.2069,-0.45518 0.66208,-0.24828c0.03545,0.01612 0.06688,0.03374 0.09471,0.05253c0.0309,-0.00598 0.06282,-0.00911 0.09546,-0.00911c0.12827,0 0.24527,0.04831 0.33378,0.12772l0.12888,0.11456l0.33147,-0.10992c0,0 0.5,0 0.5,0.5z" fill="#b5c7d0"/><path d="M327.04827,178.24974c1.38997,0.06401 1.87175,3.47705 -0.17347,4.05613c-2.48886,0.70469 -2.9252,-3.80311 -0.10043,-4.10784c0,0 0.13768,-0.01059 0.2739,0.05172z" fill="#b5c7d0"/><path d="M330.13308,181.7915c0.96742,0.44857 1.78705,2.16766 0.51746,3.12238c-2.24063,1.68493 -4.04089,-2.27566 -1.14096,-3.3783c0,0 0.44036,-0.16014 0.6235,0.25593z" fill="#b5c7d0"/><path d="M319.39851,182.25369c1.0944,-0.61849 2.74448,1.56725 0.9076,2.41618c-1.6012,0.74001 -2.42764,-1.23783 -1.46649,-2.306c0,0 0.26108,-0.26108 0.55889,-0.11018z" fill="#c5d8e2"/><path d="M322.95711,179.68429c1.00362,0.35933 2.07087,1.37255 0.44323,2.12599c-1.30897,0.60593 -1.55953,-0.57077 -1.51083,-1.60521c-0.12746,-0.29226 -0.08601,-0.475 0.0564,-0.57073c0.03001,-0.20003 0.06741,-0.37502 0.10409,-0.50437c0,0 0.13737,-0.48076 0.61813,-0.3434c0.48076,0.13736 0.3434,0.61812 0.3434,0.61812c-0.02107,0.07311 -0.03915,0.16978 -0.05442,0.27959z" fill="#c5d8e2"/><path d="M327.38056,180.29769c-0.30115,3.02758 -3.51038,-0.49687 -0.72172,-1.50824c0,0 0.47789,-0.14704 0.62493,0.33085c0.04241,0.13783 0.03283,0.24813 -0.00227,0.33533c0.06241,0.08343 0.09938,0.18701 0.09938,0.29922v0.52501h-0.0056z" fill="#c5d8e2"/><path d="M329.81743,182.4631c0.6237,0.14705 1.16952,0.72392 0.85337,1.4049c-0.07784,0.16767 -0.2224,0.29746 -0.39852,0.38475c-0.04938,0.04127 -0.10141,0.06978 -0.15501,0.08687c-0.84053,0.55447 -2.01305,-0.68422 -1.39599,-1.53386c0.16505,-0.22726 0.40464,-0.34337 0.66207,-0.37186c0.09602,-0.04333 0.22036,-0.05593 0.37709,0.00436c0.02019,0.00777 0.03916,0.01606 0.05699,0.02484z" fill="#c5d8e2"/><path d="M325.67908,184.41832c0.00173,0.00773 0.00333,0.01563 0.00476,0.02369c0.01096,-0.00245 0.02206,-0.00454 0.03328,-0.00625c-0.0127,-0.00592 -0.02538,-0.01174 -0.03804,-0.01744zM322.46541,184.70714c1.31471,-5.21151 11.21384,4.28932 4.02263,4.28511c-1.17764,-0.0841 -3.33673,0.46488 -4.30107,0.12527c-2.07621,-0.73118 -0.85255,-3.04451 0.27844,-4.41038z" fill="#c5d8e2"/></g></g></svg>