<svg version="1.1" xmlns="http://www.w3.org/2000/svg" xmlns:xlink="http://www.w3.org/1999/xlink" width="47.36956" height="47.36956" viewBox="0,0,47.36956,47.36956"><g transform="translate(-296.31522,-156.31522)"><g data-paper-data="{&quot;isPaintingLayer&quot;:true}" fill-rule="nonzero" stroke-linecap="butt" stroke-linejoin="miter" stroke-miterlimit="10" stroke-dasharray="" stroke-dashoffset="0" style="mix-blend-mode: normal"><path d="M301.06522,202.93478c-2.20914,0 -4,-1.79086 -4,-4v-37.86956c0,-2.20914 1.79086,-4 4,-4h37.86956c2.20914,0 4,1.79086 4,4v37.86956c0,2.20914 -1.79086,4 -4,4z" fill-opacity="0.12941" fill="#eaeaea" stroke-opacity="0.55686" stroke="#ffffff" stroke-width="1.5"/><path d="M314.03271,194.4821v-21.73151h11.93457v21.73151z" fill="none" stroke-opacity="0.01176" stroke="#000000" stroke-width="0.5"/><path d="M319.05914,198.46693v-15.90687h2.68505v15.90687z" fill="#ad7e53" stroke="none" stroke-width="0"/><path d="M318.61372,172.79956c0.81542,-0.27181 1.71138,0.6505 2.12779,0.5366c0.67659,-0.18506 1.04157,-1.12598 1.91511,-0.45775c0.78051,0.59707 1.37493,3.34845 0.99392,4.67605c0.89521,2.52752 0.11054,6.19077 -2.45005,7.24789l-0.22123,0.12764c-0.756,0.216 -1.54409,0.29571 -2.27881,0.00627c-0.61163,-0.24095 -3.39034,-4.54041 -3.39034,-5.42847c0,-0.73321 0.4207,-1.52868 1.02301,-2.23698c-0.13371,-1.79741 0.79832,-3.97715 2.28061,-4.47125z" fill="#0a0a0a" stroke="none" stroke-width="0.5"/><path d="M315.42781,178.69841c-0.09128,-0.3651 2.03095,-5.10445 2.4716,-5.43643c1.14589,-0.86328 1.94941,0.60583 3.1918,0.01576c0.38183,-0.18135 1.05931,-0.96154 1.66068,-0.37711c1.11923,1.08769 0.42507,2.78214 -0.82518,2.60604c-0.51593,0.2604 -1.352,0.39973 -1.61597,0.70213c-0.26325,0.30158 -1.08909,2.21955 -1.59677,1.8811l-0.48935,-0.52424c-0.00656,0.00066 -0.01311,0.00125 -0.01964,0.00174c-0.01646,0.97206 -0.20586,2.00552 -1.13775,2.00552c-0.56966,0 -0.72394,-0.2262 -0.67833,-0.53453c-0.40262,0.29152 -0.79359,0.33006 -0.96111,-0.33998z" fill="#a45307" stroke="none" stroke-width="0.5"/><path d="M322.79987,176.54823c0.13254,1.47946 -0.05574,4.054 -0.58274,5.53908c-0.96332,2.71459 -2.34022,-0.26199 -2.97344,-0.78787c-0.34007,-0.28242 -2.46813,0.34908 -2.7751,-0.7469c-0.23663,0.01478 -0.44649,-0.03434 -0.59791,-0.17645c-0.2207,-0.20712 -0.6634,-0.40348 -0.58377,-0.69548c-0.01183,-0.04584 -0.01813,-0.09391 -0.01813,-0.14345c0,-0.26824 0.18457,-0.49339 0.43364,-0.55534c0.25484,-0.33623 0.5342,-0.70352 0.59332,-0.7373c0.05994,-0.03425 0.13199,-0.04524 0.21104,-0.03951c0.54722,-2.35028 1.95092,-2.87589 4.36132,-2.89322c0.56541,-0.00406 1.72274,-1.29768 2.1668,-0.37809c0.11486,0.23785 -0.0764,0.75052 -0.35978,1.20278c0.06272,0.08558 0.10747,0.21885 0.12475,0.41175zM318.62513,176.52991c0.14272,0.11147 0.22646,0.3437 0.26474,0.63247c0.31245,-0.29266 0.63694,-0.56049 0.91278,-0.76805c-0.45633,-0.07916 -0.89059,-0.07271 -1.17752,0.13558z" fill="#a31607" stroke="none" stroke-width="0.5"/><path d="M317.10813,180.09918c0,-0.31604 0.2562,-0.57224 0.57224,-0.57224c0.04954,0 0.09761,0.00629 0.14345,0.01813l0.00829,-0.00226l0.01435,0.00861c0.09124,0.02763 0.17285,0.07742 0.23856,0.14313v0l0.07663,0.07664l0.04733,0.07888l0.05986,0.06984l0.00962,0.01923l0.03133,0.04699l0.03294,0.09223l0.04608,0.08641l0.01613,0.06451l0.07892,0.19731l0.05007,0.10012l0.03133,0.047l0.01216,0.03405l0.02353,0.02746l0.10218,0.20437l0.00674,0.0303l0.0577,0.06925l0.09485,0.09485l0.01816,0.01211l0.10778,0.06466l0.0051,-0.02038l0.00907,-0.00518l0.00094,-0.00311l0.07664,-0.12774l0.20228,-0.20228l0.00229,-0.00402l0.0023,-0.00057l0.00168,-0.00168l0.00463,0.0001l0.27752,-0.06938h0.17883l0.08924,0.02231l0.06564,0.00505l0.09037,-0.43377v-0.19948l-0.02873,-0.01724l-0.02124,-0.02124l-0.02768,-0.01166l-0.20438,-0.15328l-0.02597,-0.03197l-0.03532,-0.02119l-0.0511,-0.05109l-0.02799,-0.04665l-0.02873,-0.01197l-0.03918,-0.10121l-0.05584,-0.09306l0.00819,-0.03003l-0.01963,-0.05073l-0.02555,-0.20437l0.00435,-0.0359l-0.00877,-0.03508v-0.15328l0.07153,-0.28612l0.50071,-0.28612l0.50071,0.28612l0.07153,0.28612v0.06514l0.0285,0.02137l0.10242,0.06145l0.04981,0.04981l0.06041,0.03624l0.07578,0.07579l0.0063,0.00126l0.00882,0.01387l0.01127,0.01127l0.06765,0.11275l0.07059,0.11093l0.00504,0.01513l0.00846,0.01409l-0.00169,0.0062l0.06483,0.1945l0.00705,0.09172l0.02231,0.08924v0.23876l0.0129,-0.07737l0.00378,-0.00869l-0.00045,-0.00946l0.06553,-0.32764v-0.44247l-0.00357,-0.00535l0.00357,-0.01604v-0.01594l0.03189,-0.12756l0.02853,-0.12835l0.00713,-0.01426l0.00399,-0.01594l0.00558,-0.00319l0.08549,-0.17098l0.03385,-0.0395l0.02019,-0.04794l0.04568,-0.06091l0.02802,-0.05603l0.0146,-0.01704l0.00653,-0.02146l0.01032,-0.0172l0.03587,-0.17935v-0.55645l0.01709,-0.06834v-0.08779l0.02886,-0.02766l0.02558,-0.10232l0.2011,-0.11492l0.16082,-0.15412l0.07297,0.02053l0.06582,-0.03761l0.1934,0.11051l0.22297,0.06271l0.04964,0.09306l0.03471,0.01983l0.02129,0.08517l0.03316,0.06216l0.02554,0.10218v0.07045l0.01709,0.06834v0.68975l-0.00079,0.00316l0.00512,0.00911l-0.04138,0.13597l-0.03447,0.13789l-0.00907,0.00518l-0.00095,0.00311l-0.03631,0.06051l-0.00988,0.05432v0.25496l-0.00544,0.02177l0.00376,0.02212l-0.02386,0.31019v0.92974l0.02428,0.36419l-0.00346,0.01916l0.00472,0.0189v0.1637l0.01979,0.13857l-0.00424,0.04097l0.00999,0.03995v0.17883l-0.00641,0.02567l0.00407,0.02614l-0.02152,0.23675l0.00265,0.00472l-0.00439,0.01442l-0.00228,0.02512l-0.04204,0.12051l-0.03716,0.1221l-0.01298,0.02162l-0.00497,0.01424l-0.00493,0.00225l-0.0386,0.06434l0.00023,0.00734l-0.01202,0.01229l-0.00339,0.00565l-0.09593,0.09593l-0.09485,0.097l-0.0056,0.00345l-0.01215,0.01215l-0.00735,-0.00015l-0.307,0.18892l-0.02449,0.00775l-0.01951,0.01672l-0.01397,0.00698l-0.02947,0.04631l-0.0357,0.08478l-0.05424,0.07232l-0.00035,0.00641l-0.01248,0.0107l-0.00957,0.01276l-0.10205,0.08291l-0.09983,0.08557l-0.01426,0.00713l-0.00458,0.00373l-0.00204,0.00358l-0.0034,0.00085l-0.00272,0.00221l-0.00409,-0.00051l-0.00573,0.00143l-0.01426,0.00713l-0.12835,0.02853l-0.12756,0.03189h-0.01595l-0.01605,0.00357l-0.00534,-0.00357h-0.00196l-0.00535,0.00357l-0.01604,-0.00357h-0.01595l-0.12756,-0.03189l-0.12836,-0.02853l-0.01426,-0.00713l-0.01595,-0.00399l-0.00319,-0.00559l-0.0177,-0.00885l-0.01704,-0.0146l-0.02146,-0.00653l-0.12773,-0.07664l-0.00987,-0.00987l-0.01314,-0.00469l-0.03842,-0.02562l-0.14897,-0.04965l-0.07722,-0.01544l-0.34193,-0.04885l-0.05789,-0.02359l-0.06211,-0.0071l-0.38717,-0.14519l-0.15667,-0.04477l-0.04641,-0.02678l-0.0523,-0.01162l-0.25547,-0.12773l-0.01234,-0.01058l-0.01566,-0.0044l-0.16503,-0.09431l-0.19016,-0.09508l-0.02746,-0.02353l-0.03405,-0.01216l-0.06531,-0.04354l-0.24379,-0.14628l-0.00987,-0.00987l-0.01314,-0.00469l-0.07663,-0.05109l-0.03834,-0.04217l-0.04888,-0.02932l-0.15327,-0.15327l-0.01361,-0.02269l-0.02136,-0.01561l-0.12773,-0.15327l-0.04621,-0.09572l-0.05706,-0.08966l-0.01269,-0.03806l-0.06807,-0.13614l-0.03133,-0.04699l-0.01216,-0.03405l-0.02354,-0.02746l-0.07664,-0.15328l-0.00526,-0.02371l-0.01422,-0.01968l-0.10218,-0.25547l-0.00532,-0.039l-0.01852,-0.03473l-0.00414,-0.01654c-0.01344,-0.01344 -0.02417,-0.02417 -0.02417,-0.02417c-0.0657,-0.0657 -0.11551,-0.14731 -0.14313,-0.23855l-0.00861,-0.01435l0.00226,-0.00829c-0.01183,-0.04584 -0.01813,-0.09391 -0.01813,-0.14345zM320.98226,181.12316l-0.05109,0.15328l-0.02212,0.03475l-0.00122,0.00549l0.10831,0.10831l0.00621,-0.0311l0.02251,-0.22506l0.05278,-0.58053l-0.09804,0.47061l-0.01474,0.03048z" fill="#801105" stroke="none" stroke-width="0.5"/><path d="M316.65823,176.44614c-0.42754,-1.4619 -0.83947,-2.5962 -0.79362,-4.22606c0.06252,-2.22229 2.3317,-4.08369 2.35058,-6.34312c0.00722,-0.86338 0.00158,-1.72683 0,-2.59023c-0.0011,-0.60413 -0.67361,-1.18428 0.2681,-1.65514c0.74237,-0.37119 1.23762,0.39007 1.53669,0.89663c0.7908,1.33943 1.0963,2.74752 0.55302,4.30914c-0.65047,1.86976 -1.52076,3.52879 -1.8942,5.48648c-0.11379,0.59654 -0.13211,1.2271 -0.00932,1.82185c0.07344,0.35572 0.68705,0.41517 0.68705,0.84202c0,0.29449 -0.03857,0.63068 -0.23246,0.85234c-0.14968,0.17113 -0.51533,0.14724 -0.57515,0.36658c0.01813,0.07023 0.02777,0.14387 0.02777,0.21976c0,0.48416 -0.39249,0.87665 -0.87665,0.87665c-0.31836,0.24649 -0.96135,-0.58175 -1.04182,-0.85689z" fill-opacity="0.60392" fill="#fce80a" stroke="none" stroke-width="0.5"/><path d="M317.65847,175.40574c0.17712,-0.30995 0.58358,-0.49814 0.65397,-0.84812c0.13167,-0.65461 -0.21344,-1.53679 -0.07108,-2.27179c0.45707,-2.35987 1.43685,-4.70753 2.04885,-7.04902c0.2859,-1.09387 1.29443,-2.77744 2.70397,-2.07267c0.95454,0.47727 0.24158,1.5924 0.75137,2.27475c2.0341,2.72259 0.41691,7.01061 -1.62139,9.16403c-0.71967,0.76032 -1.69674,1.36408 -2.72086,1.60349c-0.26989,0.06309 -1.16167,0.21989 -1.31311,-0.04514z" fill-opacity="0.60392" fill="#fcae0a" stroke="none" stroke-width="0.5"/></g></g></svg>