<svg version="1.1" xmlns="http://www.w3.org/2000/svg" xmlns:xlink="http://www.w3.org/1999/xlink" width="59.93366" height="116.52732" viewBox="0,0,59.93366,116.52732"><g transform="translate(-291.58878,-124.63555)"><g data-paper-data="{&quot;isPaintingLayer&quot;:true}" fill-rule="nonzero" stroke-linecap="butt" stroke-linejoin="miter" stroke-miterlimit="10" stroke-dasharray="" stroke-dashoffset="0" style="mix-blend-mode: normal"><path d="M315.17812,195.54496c0.1021,0.71601 -0.10496,1.40264 -0.486,2.03731c-0.70286,1.17072 -1.99769,2.16465 -3.03606,2.84011c-6.12397,3.98369 -11.53808,1.10401 -16.9647,-3.18777c-1.24079,-0.98131 -5.81784,-7.30818 -0.8125,-5.75138c1.14904,0.35738 2.10411,2.31929 3.02624,3.03795c2.46265,1.91926 5.93412,4.1658 9.07138,4.62869c2.6206,0.38666 6.2135,-4.63698 6.94278,-4.53609z" fill="#b5c4cc" stroke="none" stroke-width="0.5"/><g stroke="none" stroke-width="0.5"><path d="M316.24251,214.09794c-0.22267,2.0056 -0.65842,4.11735 -1.17702,6.08522c-0.04041,0.15336 -0.08038,0.30673 -0.11996,0.46013c-0.30688,-0.07857 -0.6134,-0.15802 -0.91941,-0.23867c-1.49646,-0.39435 -2.99291,-0.78871 -4.48937,-1.18307c0.02446,-0.09073 0.04872,-0.18141 0.0728,-0.27202c0.29915,-2.23067 1.33049,-4.38837 1.57881,-6.61336c0.13726,-1.22991 0.05756,-2.5364 0.21647,-3.77386c1.38979,0.70016 3.21072,0.78518 4.65034,1.16456c0.27324,0.07201 0.5459,0.13893 0.82058,0.19031c-0.03267,1.41486 -0.47591,2.76361 -0.63326,4.18074z" fill="#b0c1ca"/><path d="M311.13064,212.26858c0.14474,-1.14286 0.60612,-2.32322 0.90106,-3.43859c0.34335,0.12414 0.70318,0.22285 1.06971,0.30709c-0.28167,1.05572 -0.73908,2.18959 -0.8667,3.26972c-0.29012,2.45555 -0.31808,4.848 -0.95607,7.27379c-0.35848,-0.09447 -0.71696,-0.18893 -1.07544,-0.2834c0.61615,-2.38002 0.62261,-4.72204 0.9274,-7.12861z" fill="#c7d7e0"/><path d="M311.91298,212.71562c0.1759,-1.05038 1.00237,-2.15466 0.74493,-3.20976c0,0 -0.05384,-0.25765 0.08977,-0.45555c0.32695,0.08578 0.66198,0.15679 0.99783,0.22118c0.00109,0.00442 0.00157,0.00679 0.00157,0.00679c0.24862,1.33015 -0.5078,2.34399 -0.73704,3.62312c-0.41902,2.33802 -0.12548,4.71946 -0.64626,7.06516c-0.35847,-0.09447 -0.71695,-0.18893 -1.07543,-0.28341c0.51443,-2.30364 0.23859,-4.66274 0.62458,-6.96755z" fill="#cdd0e0"/></g><g stroke="none" stroke-width="0.5"><path d="M334.61411,213.38944c1.02702,1.68937 2.00309,3.4451 2.91822,5.21958c-1.5366,0.20643 -3.03768,0.61484 -4.50972,1.15747c-1.43515,-3.06469 -2.81093,-6.13952 -4.76677,-8.87689c1.42731,-0.3131 2.6376,-0.58183 3.94874,-1.08622c0.63304,1.30092 1.63994,2.32016 2.40952,3.58606z" fill="#b0c1ca"/><path d="M328.98409,210.90793c0,0 -0.04443,-0.06487 -0.07549,-0.16256c0.38718,-0.08666 0.76092,-0.17326 1.12845,-0.26617c1.8229,2.74295 2.8581,5.95573 4.50893,8.77958c-0.35934,0.10658 -0.71687,0.22228 -1.07269,0.34615c-1.59353,-2.83173 -2.64109,-5.99821 -4.48923,-8.69701z" fill="#c7d7e0"/><path d="M331.42341,211.98803c0.5015,-0.24089 0.74238,0.26061 0.74238,0.26061l0.11118,0.23149c0.36866,0.76753 0.68441,1.46267 0.85894,2.30111c0,0 0.11206,0.54496 -0.43289,0.65701c-0.54495,0.11205 -0.65701,-0.43289 -0.65701,-0.43289c-0.15185,-0.74903 -0.44269,-1.35775 -0.77206,-2.04346l-0.11118,-0.23149c0,0 -0.24087,-0.50151 0.26063,-0.74239z" fill="#cdd0e0"/></g><path d="M337.44646,198.92561c0.05703,0.19959 0.0183,0.34599 -0.05266,0.45111l-0.03104,0.16689c0,1.00428 0,2.00856 0,3.01284c0,0.72347 0.03643,1.34894 -0.19197,2.05046c-0.46724,1.43508 -1.36648,2.25274 -2.49516,2.68755v0.14767c0,1.88327 0.49504,4.62498 -1.90119,5.0335c-0.46833,0.00107 -0.92542,-0.0222 -1.3775,-0.05732c-0.00553,0.05522 -0.01027,0.11027 -0.01424,0.16516c-1.45507,-0.10772 -2.69168,-0.3927 -4.20326,-0.78708c0,0 -0.21337,-0.05334 -0.28988,0.14017c-0.4022,-0.11575 -0.77605,-0.30044 -1.06794,-0.60545c-1.17175,-1.22439 -1.11708,-2.99635 -1.28606,-4.57128c-1.7658,-0.32363 -3.59285,-0.35032 -5.42555,-0.33968c0.02344,0.12856 0.00208,0.23537 0.00208,0.23537l-0.07403,0.35947c-0.22076,1.94277 -0.4986,3.60234 -2.50322,3.87566c0.01347,0.03934 0.02651,0.07872 0.03913,0.11814c-0.23454,0.01296 -0.47043,0.01479 -0.70573,0.01479c-1.46046,0 -3.34103,0.43575 -4.84535,0.04331c-0.00333,-0.04927 -0.00615,-0.09852 -0.00845,-0.14775c-0.36151,-0.06865 -0.70351,-0.16721 -1.01362,-0.30557c-0.03557,-0.02435 -0.07069,-0.04958 -0.10535,-0.07573c0,0 -0.06787,-0.0509 -0.15419,-0.05387c-0.38434,-0.21429 -0.70671,-0.50311 -0.93849,-0.88931c-0.78747,-1.31211 -0.48896,-3.16189 -0.48266,-4.63054c-1.63022,-1.63705 -1.41826,-5.0258 -1.1343,-7.04633c0,0 0.06413,-0.44892 0.48189,-0.47827c0.28606,-0.16467 0.58616,0.04969 0.58616,0.04969c2.1287,1.5205 5.04326,1.38896 7.57377,1.74952c1.28314,0.18283 2.59522,0.49586 3.89414,0.4909c4.9269,0 9.90589,0.21333 14.7507,-0.41803c0.61664,-0.13691 1.12832,-0.30473 1.69297,-0.58872l0.3697,-0.11181c0.09647,-0.08326 0.23807,-0.13918 0.44413,-0.10484c0.16286,0.02714 0.26933,0.09457 0.33854,0.17597c0.05311,0.05852 0.09835,0.13747 0.12861,0.24339z" fill="#b0c1ca" stroke="none" stroke-width="0.5"/><path d="M312.30541,211.11359c0.1635,0 0.27894,0.04805 0.36047,0.1159c-0.23622,0.0037 -0.47035,-0.00055 -0.70014,-0.01631c0.08003,-0.05911 0.18961,-0.09959 0.33967,-0.09959z" fill="#c7d7e0" stroke="none" stroke-width="0.5"/><path d="M331.1948,206.19018c0.26176,-0.04027 0.41808,0.06323 0.51004,0.18275c-0.21439,-0.04568 -0.43049,-0.09474 -0.6502,-0.14691c0.0414,-0.01557 0.08792,-0.0278 0.14016,-0.03584z" fill="#c7d7e0" stroke="none" stroke-width="0.5"/><path d="M309.46314,205.11335c0.27223,0.27223 0.1677,0.54447 0.07748,0.68634c-0.29094,1.7369 0.12009,2.98039 1.87637,3.60116c0,0 0.52286,0.19013 0.33273,0.71299c-0.19013,0.52286 -0.71299,0.33274 -0.71299,0.33274c-2.30751,-0.85762 -2.98383,-2.64049 -2.56574,-4.98798l0.20534,-0.34524c0,0 0.39341,-0.39341 0.78681,0z" fill="#c7d7e0" stroke="none" stroke-width="0.5"/><path d="M308.24797,198.42768c0.55635,0 0.55636,0.55635 0.55636,0.55635v0.20544c0,1.58566 0.35411,2.64881 0.89098,4.1241c0,0 0.19012,0.52286 -0.33273,0.71299c-0.52286,0.19013 -0.71299,-0.33274 -0.71299,-0.33274c-0.57556,-1.58401 -0.95798,-2.79844 -0.95798,-4.50437v-0.20544c0,0 0,-0.55635 0.55635,-0.55635z" fill="#c7d7e0" stroke="none" stroke-width="0.5"/><path d="M310.19631,203.93111c-0.4274,0.35617 -0.78358,-0.07124 -0.78358,-0.07124l-0.34295,-0.45034c-0.6492,-1.5633 -0.96626,-2.5944 -0.81091,-4.32179c0,0 0.05036,-0.55408 0.60444,-0.5037c0.55407,0.05037 0.5037,0.60444 0.5037,0.60444c-0.14587,1.58593 0.13265,2.36412 0.72988,3.79309l0.17065,0.16598c0,0 0.35617,0.4274 -0.07124,0.78357z" fill="#cdd0e0" stroke="none" stroke-width="0.5"/><path d="M312.21224,209.2941c-0.29487,0.47179 -0.76666,0.17692 -0.76666,0.17692l-0.30615,-0.20573c-1.72415,-0.63459 -1.71658,-1.62002 -1.85374,-3.2501c0,0 -0.0462,-0.55444 0.50823,-0.60064c0.55443,-0.0462 0.60063,0.50823 0.60063,0.50823c0.10024,1.2139 -0.12355,1.84929 1.12514,2.29679l0.51561,0.30787c0,0 0.4718,0.29487 0.17692,0.76666z" fill="#cdd0e0" stroke="none" stroke-width="0.5"/><path d="M328.29584,211.3279c0.3934,-0.39341 0.78681,0 0.78681,0l0.09712,0.10319c0.11984,0.15408 0.23968,0.30816 0.35952,0.46224c0,0 0.1714,0.22037 0.11526,0.47031c-0.46157,-0.08246 -0.92148,-0.18213 -1.39906,-0.29636c-0.08914,-0.11605 -0.27131,-0.42772 0.04036,-0.7394z" fill="#cdd0e0" stroke="none" stroke-width="0.5"/><path d="M332.00381,206.92205c-0.21645,0.0761 -0.39525,-0.01985 -0.49948,-0.10325c0.16739,0.036 0.33361,0.07049 0.49948,0.10325z" fill="#cdd0e0" stroke="none" stroke-width="0.5"/><path d="M325.09405,205.77215c0.55635,0 0.55635,0.55636 0.55635,0.55636v0.10272c-0.00097,1.53089 0.60088,2.62614 1.36229,3.93118c0,0 0.28033,0.48056 -0.20024,0.7609c-0.48057,0.28034 -0.7609,-0.20023 -0.7609,-0.20023c-0.86185,-1.47773 -1.51283,-2.75105 -1.51387,-4.49185v-0.10272c0,0 0.00001,-0.55636 0.55636,-0.55636z" fill="#cdd0e0" stroke="none" stroke-width="0.5"/><g stroke="none" stroke-width="0.5"><path d="M312.0546,234.27288c-0.17439,0.57112 -0.34877,1.14222 -0.52317,1.71333l0.04681,-0.07558c0,0 0.03141,0.186 -0.05066,0.35969l0.09298,0.02839c0.9399,0.28699 3.40463,0.61282 3.8891,1.57553c0.09748,0.19372 -0.26066,1.27567 -0.34132,1.53686c-0.76853,2.48813 -2.64312,1.69044 -4.62351,1.38209c-1.84774,-0.55957 -3.51182,-1.26328 -5.27604,-1.95158c-0.61139,-0.23854 -1.61537,-0.69563 -1.91611,-1.34998c-0.74736,-1.62612 0.91567,-2.74839 2.31838,-2.68123l0.10874,-0.23198c0.24647,-0.55089 0.50176,-1.09725 0.7529,-1.64599c0.59751,-4.009 2.13889,-8.01334 3.37772,-11.91298c1.48145,0.45237 2.96288,0.90472 4.44433,1.35707c0.30392,0.09279 0.60835,0.18441 0.91321,0.27517c-1.14014,3.87612 -2.03821,7.77273 -3.21332,11.62118z" fill="#b0c1ca"/><path d="M306.90406,234.96822c-0.5321,-0.16248 -0.36963,-0.69457 -0.36963,-0.69457c0.055,-0.18011 0.27497,-0.90055 0.32998,-1.08066c0.4196,-1.37417 1.0743,-2.64566 1.54687,-4.00902c0.90312,-2.60558 1.57283,-5.27501 2.19215,-7.95289c0.3555,0.10855 0.711,0.2171 1.0665,0.32565c-0.62164,2.69282 -1.3023,5.376 -2.20887,7.99613c-0.46659,1.34847 -1.11806,2.60804 -1.53244,3.96508c-0.055,0.18011 -0.10999,0.36021 -0.16499,0.54033l-0.16499,0.54033c0,0 -0.16248,0.5321 -0.69457,0.36962z" fill="#c7d7e0"/><path d="M310.68717,225.92021c-0.5321,-0.16248 -0.36963,-0.69457 -0.36963,-0.69457l0.09,-0.29474c0.35311,-1.15377 0.88461,-2.22762 1.24624,-3.37911c0.35468,0.10831 0.70935,0.2166 1.06404,0.3249c-0.36359,1.1508 -0.89486,2.22618 -1.24606,3.37916l-0.09,0.29474c0,0 -0.16248,0.5321 -0.69457,0.36962z" fill="#cdd0e0"/><path d="M308.24759,232.85453c-0.5321,-0.16248 -0.36963,-0.69459 -0.36963,-0.69459l0.08832,-0.2701c0.82889,-1.75937 1.46983,-3.61631 2.33909,-5.36734c0,0 0.24774,-0.49816 0.7459,-0.2504c0.49814,0.24774 0.2504,0.7459 0.2504,0.7459c-0.86775,1.74145 -1.5097,3.58998 -2.32785,5.34404l-0.03168,0.12287c0,0 -0.16248,0.53211 -0.69457,0.36963z" fill="#cdd0e0"/><path d="M307.44861,234.44539c0.08973,-0.29388 0.4007,-0.45936 0.69457,-0.36963c0.29388,0.08973 0.45935,0.40071 0.36962,0.69459c-0.08973,0.29388 -0.4007,0.45935 -0.69457,0.36962c-0.29388,-0.08973 -0.45935,-0.40071 -0.36962,-0.69457z" fill="#cdd0e0"/></g><path d="M334.61858,224.16007c-2.42923,2.54784 -3.93835,5.86947 -6.29895,8.50483c-1.05043,-0.9747 -2.45786,-1.89124 -3.07966,-3.20214c-0.27581,-0.58146 -0.03887,-1.05859 -0.42446,-1.57083c2.67778,-2.82213 5.29314,-5.68489 7.97415,-8.50458c0.23151,-0.24349 0.46414,-0.48578 0.69733,-0.72732c1.03163,1.18987 1.94422,2.45578 2.68043,3.83359c-0.51186,0.56364 -1.0289,1.1196 -1.54884,1.66643z" fill="#b0c1ca" stroke="none" stroke-width="0.5"/><path d="M329.77125,231.70876c1.13577,0.38389 2.91105,0.42473 3.54875,1.31652c0.68597,0.95928 -0.48319,3.75444 -1.63319,4.05073c-0.09757,0.02514 -1.27052,-0.3365 -1.49226,-0.4277c-1.24961,-0.51395 -2.50922,-1.15637 -3.71817,-1.7553c-1.4584,-0.72477 -2.91728,-1.44855 -4.37519,-2.17431c-0.3514,-0.17494 -1.21419,-0.55614 -1.38029,-0.90175c-0.47541,-0.98917 0.86292,-3.17135 1.51045,-3.87622c0.21143,-0.23016 0.39324,-0.54613 0.69428,-0.63013c0.43801,-0.12222 1.32571,0.30524 1.89728,0.54965c0.04196,0.05504 0.09716,0.08247 0.09716,0.08247c0.55639,0.23725 0.49405,0.92638 0.87113,1.35541c0.98982,1.12622 2.68273,1.66568 4.0481,2.27373z" fill="#b0c1ca" stroke="none" stroke-width="0.5"/><g stroke="none" stroke-width="0.5"><path d="M325.35039,229.21205l0.38928,-0.40942c2.65902,-2.79657 5.24122,-5.54159 7.34841,-8.7609c0.2349,-0.3363 0.48135,-0.6636 0.73688,-0.98385c0.24325,0.29231 0.47916,0.5893 0.7069,0.89149c-0.1795,0.23412 -0.35369,0.47222 -0.52163,0.71507c-2.14681,3.26816 -4.76236,6.06335 -7.46419,8.90493l-0.38928,0.40942c0,0 -0.21644,0.22762 -0.49509,0.1782c-0.1629,-0.21968 -0.30592,-0.45011 -0.42171,-0.69421c-0.00621,-0.0131 -0.01217,-0.02615 -0.01787,-0.03914c0.04849,-0.12766 0.12827,-0.21158 0.12827,-0.21158z" fill="#c7d7e0"/><path d="M330.94757,225.47441c0.40319,0.38336 0.01983,0.78656 0.01983,0.78656l-0.03539,0.03722c-1.33839,1.40762 -2.58448,2.86724 -3.92464,4.27674c0,0 -0.38336,0.4032 -0.78655,0.01984c-0.40319,-0.38336 -0.01983,-0.78656 -0.01983,-0.78656c1.34017,-1.40949 2.58599,-2.86883 3.92464,-4.27674l0.03539,-0.03722c0,0 0.38336,-0.4032 0.78655,-0.01984z" fill="#cdd0e0"/><path d="M334.08828,222.14573c0,0 -0.30505,0.46526 -0.77032,0.16022c-0.46527,-0.30506 -0.16022,-0.77032 -0.16022,-0.77032c0.40917,-0.6216 0.72916,-1.28286 1.12509,-1.91059c0.24684,0.31555 0.48488,0.63672 0.71317,0.96408c-0.3042,0.51763 -0.5765,1.04966 -0.90771,1.55661z" fill="#cdd0e0"/></g><path d="M309.44124,197.99018c0,0 -1.64419,-19.71529 -2.3988,-31.04138c1.58332,0.59448 3.50625,0.89699 4.50724,0.9099c2.64333,0.66339 5.29469,1.96356 8.03112,1.96356c3.02589,0 6.05177,0 9.07766,0c3.11562,0 6.23125,0 9.34687,0c0.13125,0 0.25971,-0.00159 0.38563,-0.00475c-0.0005,0.10307 -0.00141,0.20658 -0.00275,0.31052c-0.05526,4.28593 -0.94731,9.08451 -1.15863,13.52263c-0.39713,8.34034 -0.19302,15.40772 -0.19302,15.40772z" fill="#c5d8e2" stroke="none" stroke-width="0"/><path d="M338.58185,170.2464c-0.40252,-0.04472 -0.64225,-0.21968 -0.78438,-0.42413c0.06929,0 0.13858,0 0.20786,0c0.60137,0 1.14437,-0.03344 1.65135,-0.09811c-0.15692,0.28689 -0.46778,0.58969 -1.07483,0.52224z" fill="#c5d8e2" stroke="none" stroke-width="0.5"/><path d="M308.72001,197.42686c-1.11271,0 -1.11271,-1.11271 -1.11271,-1.11271l0.00114,-1.2217c0.26887,-2.9473 0.89281,-5.63266 0.59002,-8.62344c0,0 -0.03292,-0.32922 0.11665,-0.64656c-0.17281,-0.63702 -0.33948,-1.25758 -0.34658,-1.30765c-0.2276,-1.60389 0.05443,-3.2618 -0.22847,-4.8812c-0.22143,-1.26754 -0.66413,-2.50145 -0.8255,-3.7849c-0.1701,-1.35287 -0.39036,-2.64086 -0.58387,-3.96981c-0.20316,-1.39519 0.20192,-2.02232 -0.47996,-3.29493c0,0 -0.49763,-0.99524 0.49761,-1.49286c0.99524,-0.49762 1.49286,0.49762 1.49286,0.49762c0.22445,0.47108 0.55264,0.90558 0.67334,1.41325c0.19691,0.82819 -0.11265,1.71256 0.01797,2.55375c0.39858,2.56694 0.95574,5.13152 1.4017,7.70615c0.28476,1.64407 0.00639,3.3357 0.24004,4.95753c0.11993,0.83249 0.45211,1.62028 0.67341,2.43173l0.23064,0.80698c0,0 0.27205,0.9522 -0.59545,1.31667c-0.07708,2.14664 -0.45151,4.21187 -0.65128,6.4185l0.00114,1.12086c0,0 0,1.11271 -1.11271,1.11271z" fill="#c5d8e2" stroke="none" stroke-width="0.5"/><path d="M337.38467,199.01971c-1.06579,0.31974 -1.38552,-0.74606 -1.38552,-0.74606l-0.3771,-1.27479c-0.30794,-2.99504 -0.1846,-6.37785 0.45591,-9.35592c-0.00862,-0.06986 -0.00861,-0.11339 -0.00861,-0.11339v-0.23426c0.00251,-2.02715 -0.56475,-3.86179 -0.46737,-5.90681c0.08917,-1.87268 0.56717,-3.52792 0.96166,-5.34135c0.45369,-2.08564 0.59435,-4.12302 0.76352,-6.22486c0.22606,0 0.45212,0 0.67818,0c0.56594,0 1.08019,-0.02961 1.56138,-0.087c-0.19087,2.29405 -0.3362,4.51888 -0.82922,6.78817c-0.3677,1.69246 -0.82919,3.21891 -0.91237,4.96589c-0.08594,1.80469 0.36513,3.45549 0.45449,5.2329c0.21183,0.39187 0.09906,0.84294 0.09906,0.84294c-0.71149,2.77107 -0.849,6.1414 -0.57363,9.00126l0.32567,1.06776c0,0 0.31974,1.06579 -0.74605,1.38552z" fill="#c5d8e2" stroke="none" stroke-width="0.5"/><path d="M338.56287,168.383c0.70004,0.05834 0.92131,0.52178 0.98931,0.85559c-0.4769,0.05567 -0.98625,0.08368 -1.54685,0.08368c-0.21086,0 -0.42172,0 -0.63258,0c0.0453,-0.24997 0.26053,-1.01674 1.19012,-0.93927z" fill="#c5d8e2" stroke="none" stroke-width="0.5"/><path d="M338.2653,196.81623c0.55206,0.9661 -0.41405,1.51817 -0.41405,1.51817l-0.70432,0.39257c-0.20077,0.15057 -2.1855,1.63959 -2.19573,1.64427c-1.56488,0.71604 -3.83136,0.33519 -5.49957,0.33519c-5.5147,0 -10.79078,-0.90427 -16.26356,-1.41003c-1.86723,-0.17256 -4.65295,0.67264 -5.82542,-1.45259c-0.28301,-0.51298 0.01062,-1.17168 0.01592,-1.75752c0,0 0.11072,-1.10719 1.21791,-0.99647c1.10719,0.11072 0.99647,1.21791 0.99647,1.21791c-0.07277,0.19502 -0.27453,0.38462 -0.21834,0.58504c0.12591,0.44905 0.92076,0.1725 1.38699,0.18384c1.36892,0.0333 2.6041,0.06581 3.96069,0.24272c4.91376,0.64081 9.77512,1.16167 14.72933,1.16167c1.23406,0 3.42638,0.4411 4.57343,-0.13332c0.6767,-0.33889 1.18118,-0.94694 1.78661,-1.40105l0.93546,-0.54445c0,0 0.96611,-0.55206 1.51817,0.41405z" fill="#c5d8e2" stroke="none" stroke-width="0.5"/><path d="M308.27933,174.96349c0,0.55635 -0.55636,0.55636 -0.55636,0.55636l-0.0633,-0.00164c-1.4002,0.1069 -2.73958,0.07648 -4.09959,-0.29635c-0.52443,-0.2418 -0.91524,-0.3392 -1.27185,-0.83758c-0.75099,-1.04958 -0.84688,-3.29414 -0.79059,-4.53269c0.00978,-0.21525 0.11731,-1.31115 0.18364,-1.42497c0.782,-1.34185 3.00887,-1.60835 4.34351,-1.48828c0,0 0.55407,0.05037 0.5037,0.60445c-0.05037,0.55408 -0.60444,0.5037 -0.60444,0.5037c-0.92251,-0.08481 -2.72467,0.01647 -3.28652,0.94909c-0.14254,0.2366 -0.02732,1.17987 -0.02774,1.46407c-0.00182,1.24349 0.09192,3.16565 1.32812,3.71561c1.20011,0.32513 2.40313,0.32914 3.63642,0.23351l0.14865,-0.00163c0,0 0.55636,0 0.55636,0.55635z" fill="#b0c1ca" stroke="none" stroke-width="0.5"/><path d="M347.71292,195.58182c0.00687,0.61314 0.71133,1.21669 0.79898,1.82799c0.14943,1.04217 -0.88803,0.63581 -1.38923,0.32536c-0.83177,-0.51521 -1.6165,-3.32029 -0.66463,-3.5869c-0.0112,-0.06491 -0.01728,-0.13391 -0.01776,-0.20704l-0.03791,-0.11208c-0.49928,-1.52611 -1.76146,-2.84981 -2.53952,-4.24402c-1.00864,-1.80737 -1.9743,-3.43242 -3.22792,-5.10517c0.92488,-0.0207 1.62233,-0.58271 2.63816,-0.73539c0.53972,0.89092 1.30336,1.62507 1.8394,2.54086c1.1782,2.01288 2.35035,3.89329 3.19168,6.07611c0.40757,-0.07854 0.74977,-0.03 0.84924,0.23912c0.20064,0.02262 0.39866,0.07304 0.57528,0.15305c0.50587,0.22915 3.01337,2.39848 1.05961,2.40716c-0.0383,0.00018 -0.07719,-0.00639 -0.11333,-0.01911c-0.59891,-0.21091 -1.08192,-0.54912 -1.56708,-0.82046c-0.02238,0.02591 -0.04763,0.05078 -0.0761,0.07445c-0.38452,0.31986 -0.85411,0.50808 -1.28741,0.54932c-0.01264,0.21783 -0.03369,0.43646 -0.03144,0.63676zM343.46517,185.76867c-0.42364,-0.5703 -0.85184,-1.00921 -1.20437,-1.573c-0.09928,0.07353 -0.20908,0.13249 -0.32544,0.17713c1.08536,1.51649 1.96897,3.0256 2.89504,4.66289c0.71127,1.25753 1.72863,2.44742 2.35332,3.7728c0.02706,-0.01631 0.05461,-0.0324 0.08254,-0.04824c-0.92645,-2.44607 -2.24536,-4.89726 -3.80109,-6.99156z" fill="#b0c1ca" stroke="none" stroke-width="0.5"/><path d="M341.59696,185.85161c-0.0442,0.01295 -0.08591,0.02202 -0.1243,0.02687c-0.66181,0.08372 -1.45332,-0.48847 -1.64713,-1.10388c-0.18144,-0.57615 -0.10172,-1.04775 0.13838,-1.41621c-0.18089,-0.53843 -0.37324,-1.038 -0.48337,-1.62126c-1.05116,-3.46437 -0.99217,-7.41976 -2.63898,-10.65111c0,0 -0.25108,-0.49648 0.2454,-0.74755c0.49648,-0.25107 0.74755,0.24541 0.74755,0.24541c1.67571,3.33623 1.65399,7.32675 2.7273,10.89071c0.0751,0.41557 0.19775,0.78254 0.32674,1.1553c0.18096,-0.07765 0.37404,-0.13828 0.57239,-0.18202c-0.25471,-0.67475 -0.37066,-1.34305 -0.53702,-2.06556c-0.24984,-2.12538 -0.73499,-4.24717 -0.99853,-6.37767c-0.14957,-1.2091 -0.09635,-3.04093 -0.69087,-4.23468c0.39111,-0.03518 0.75915,-0.08781 1.11318,-0.157c0.50309,1.31576 0.52015,2.94055 0.68223,4.25727c0.25996,2.1118 0.73484,4.21468 0.99009,6.32064c0.1771,0.76453 0.27596,1.45726 0.61124,2.17327l0.00672,0.02095c0.30712,0.03555 0.59331,0.11363 0.8307,0.23387c0,0 0.12839,0.0688 0.21858,0.20167c-0.34381,1.18654 -0.00373,2.25263 -1.1039,3.17911c-0.32431,0.05427 -0.69022,0.00681 -0.98646,-0.1481z" fill="#b0c1ca" stroke="none" stroke-width="0.5"/><path d="M338.92576,169.2866c0,0 -0.34143,-0.43927 0.09785,-0.7807c0.43928,-0.34142 0.78069,0.09786 0.78069,0.09786c0.12865,0.17197 0.24106,0.35573 0.33967,0.54891c-0.38273,0.06688 -0.78297,0.1141 -1.21205,0.14145c-0.00205,-0.00251 -0.0041,-0.00502 -0.00616,-0.00752z" fill="#b0c1ca" stroke="none" stroke-width="0.5"/><path d="M332.13488,215.79231c0.55205,-0.06901 0.62107,0.48305 0.62107,0.48305l0.04919,0.39529c0.01109,0.07252 0.02323,0.14467 0.03627,0.21649c-0.38217,-0.07449 -0.76708,-0.13859 -1.15437,-0.1933l-0.03521,-0.28047c0,0 -0.06901,-0.55206 0.48305,-0.62107z" fill="#cdd0e0" stroke="none" stroke-width="0.5"/><path d="M314.29291,214.30021c0,-0.12291 0.09963,-0.22254 0.22254,-0.22254c0.12291,0 0.22254,0.09964 0.22254,0.22254c0,0.12291 -0.09964,0.22254 -0.22254,0.22254c-0.12291,0 -0.22254,-0.09964 -0.22254,-0.22254z" fill="#6b767b" stroke="none" stroke-width="0.5"/><g stroke="none"><path d="M331.12877,221.55525c-0.15736,-0.15736 0,-0.31473 0,-0.31473l0.20776,-0.1549c1.2413,-0.24293 2.63513,-0.00903 3.88786,-0.00145c0.41998,0.13619 1.04475,0.1899 1.38293,0.47758c0.05994,0.051 0.13331,0.14111 0.20532,0.24417c-0.10002,-0.42907 -0.18344,-1.00193 -0.24331,-1.40936l-0.09967,-0.13288c-0.02876,-0.0375 -0.04586,-0.08442 -0.04586,-0.13532c0,-0.12291 0.09964,-0.22255 0.22254,-0.22255c0.06145,0 0.11709,0.02492 0.15736,0.06519l0.2351,0.2351c0.18649,0.18685 0.32298,0.49767 0.38483,0.66245c-0.12261,-0.48868 0.18398,-1.09778 -0.11562,-1.5564c-0.05012,-0.06774 -0.12462,-0.12299 -0.15038,-0.20323c-0.3739,-1.16413 0.6359,-0.38305 0.98782,-0.07399c-0.0597,-0.13416 -0.10968,-0.33429 -0.11219,-0.34272c-0.07335,-0.24607 -0.15275,-0.51769 -0.35572,-0.69837c-0.33692,-0.29991 -1.47844,-0.56262 -1.89948,-0.55922c-1.66703,-0.32764 -3.49772,0.07734 -5.1173,-0.38364c0,0 -0.21398,-0.06114 -0.15285,-0.27511c0.06113,-0.21398 0.27512,-0.15285 0.27512,-0.15285c1.58954,0.45601 3.3994,0.03342 5.03889,0.36868c1.11975,0.00806 2.86433,0.71941 2.7856,2.08031c-0.05345,0.92396 -0.60789,0.42507 -0.89321,0.08014c0.15528,0.44822 0.45439,2.09668 0.0761,2.25132c-0.15165,0.06199 -0.31023,-0.01883 -0.46064,-0.15496c0.15801,0.58647 0.23002,1.25446 0.0529,1.41893c-0.12436,0.11548 -0.33504,0.1594 -0.49723,0.10944c-0.24555,-0.07563 -0.37384,-0.69914 -0.57623,-0.8846c-0.24708,-0.22642 -0.83506,-0.25785 -1.15613,-0.36876c-1.19759,0.00799 -2.54457,-0.24453 -3.72928,-0.00145l0.01967,0.03318c0,0 -0.15736,0.15736 -0.31472,0z" fill="#6b767b" stroke-width="0.5"/><path d="M331.23911,221.30385c0,0 -0.04702,-1.85621 -0.04702,-2.63308c0,-0.63719 0.18808,-1.73972 0.18808,-1.73972c0,0 4.83867,0.20088 6.00599,0.51638c0.49123,0.13277 0.95287,1.3644 0.95287,1.3644c0,0 -0.88606,0.87988 -0.76709,1.68093c0.11606,0.78146 -0.69051,1.18725 -0.69051,1.18725c0,0 -1.80682,-0.58751 -2.7215,-0.64849c-0.96355,-0.06423 -2.92083,0.27233 -2.92083,0.27233z" fill="#606a6e" stroke-width="0"/><path d="M331.25831,217.97243c-0.05397,-0.2159 0.16192,-0.26988 0.16192,-0.26988l0.24205,-0.05366c0.31346,0 0.62692,0 0.94039,0c1.57422,0 2.97603,0.5908 4.51049,0.89769c0,0 0.21822,0.04364 0.17457,0.26187c-0.04364,0.21822 -0.26187,0.17458 -0.26187,0.17458c-1.50517,-0.30104 -2.88215,-0.88905 -4.4232,-0.88905c-0.31346,0 -0.62692,0 -0.94039,0l-0.1341,0.04038c0,0 -0.2159,0.05398 -0.26987,-0.16192z" fill="#303537" stroke-width="0.5"/><path d="M330.92253,219.56413c0,-0.22254 0.22254,-0.22254 0.22254,-0.22254l0.05039,0.00432c0.32175,-0.06435 0.62092,-0.17001 0.94039,-0.2351c1.37661,-0.2694 3.48508,0.0526 4.59699,0.88653c0,0 0.17803,0.13353 0.04451,0.31156c-0.13353,0.17803 -0.31156,0.04451 -0.31156,0.04451c-1.00266,-0.752 -2.99585,-1.06198 -4.24264,-0.80617c-0.31827,0.06225 -0.61935,0.17089 -0.94039,0.2351l-0.13769,0.00432c0,0 -0.22254,0 -0.22254,-0.22254z" fill="#303537" stroke-width="0.5"/></g><path d="M306.52282,199.78407c-0.17361,-0.2755 -0.17361,-0.58685 -0.17361,-0.58685v-0.48856c0.00087,-1.29442 -0.2196,-3.18255 1.18778,-3.98116c1.15463,-0.65518 3.4435,0.57776 4.64298,0.79895c4.12583,0.76081 8.22574,1.52935 12.43343,1.52935c2.83322,0 5.53193,-0.17386 8.33437,-0.56097c0.80241,-0.11084 3.09131,-0.80843 3.8124,-0.54515c2.02823,0.74054 2.01613,4.40781 0.70231,5.82024c-0.24783,0.26642 -2.0132,0.77205 -2.4575,0.90874c-2.19182,0.67428 -4.12051,0.77713 -6.40161,0.77713c-3.36271,0 -6.86554,0.28099 -10.20898,-0.08769c-3.81466,-0.42065 -7.6692,-1.53719 -11.24037,-2.91046c0,0 -0.5087,-0.19566 -0.6312,-0.67356z" fill="#606a6e" stroke="none" stroke-width="0.5"/><g stroke="none" stroke-width="0.5"><path d="M303.29945,178.99219c-0.00471,-0.22249 0.21779,-0.2272 0.21779,-0.2272c0.26718,-0.00565 0.62342,-0.01319 0.8906,-0.01884c1.79095,-0.03391 2.84437,-1.19185 3.67365,-2.64268c0,0 0.11044,-0.19321 0.30365,-0.08277c0.19321,0.11043 0.08277,0.30364 0.08277,0.30364c-0.90879,1.58997 -2.1073,2.82184 -4.05065,2.8668c-0.26718,0.00565 -0.53437,0.0113 -0.80156,0.01696l-0.08906,0.00189c0,0 -0.22249,0.00471 -0.2272,-0.21779z" fill="#3a53e0"/><path d="M308.96215,175.89908c0.21256,0.06589 0.14667,0.27846 0.14667,0.27846l-0.04791,0.15197c-0.18816,0.45227 -0.48579,0.80287 -0.82464,1.15637c-1.15343,1.20329 -2.98177,2.47692 -4.69265,2.52566c0,0 -0.22249,0.00471 -0.2272,-0.21779c-0.00471,-0.22249 0.21779,-0.2272 0.21779,-0.2272c1.57761,-0.01924 3.32238,-1.28454 4.38075,-2.38867c0.29445,-0.30718 0.57937,-0.61855 0.73324,-1.01501l0.03549,-0.11711c0,0 0.06589,-0.21257 0.27846,-0.14668z" fill="#3ae054"/><path d="M306.9862,176.85786c0.18774,0.1195 0.06823,0.30724 0.06823,0.30724l-0.18515,0.28887c-0.33297,0.32712 -0.81535,0.39164 -1.25984,0.23116c-0.20598,-0.07437 -0.40583,-0.47683 -0.56818,-0.32985c-0.13805,0.12499 0.15394,0.608 0.10114,0.77142c-0.22322,0.69085 -0.88501,0.33261 -1.3182,0.44896c0,0 -0.21725,0.04826 -0.2655,-0.16899c-0.04825,-0.21725 0.16899,-0.26551 0.16899,-0.26551c0.18363,-0.03576 0.90451,0.1732 0.98609,-0.1344c0.09869,-0.37214 -0.44754,-0.61941 0.06346,-1.00979c0.54113,-0.41342 1.24513,0.77251 1.74195,0.18217l0.15978,-0.25303c0,0 0.1195,-0.18774 0.30724,-0.06824z" fill="#e03a3a"/></g><g stroke="none"><path d="M309.03217,223.47059c-0.16018,-0.15449 -0.00569,-0.31467 -0.00569,-0.31467l0.20492,-0.15864c1.2367,-0.26535 2.63454,-0.05671 3.8872,-0.07179c0.42238,0.12857 1.04801,0.17097 1.39134,0.45248c0.06085,0.04991 0.13584,0.13868 0.20971,0.24041c-0.10776,-0.42719 -0.20154,-0.99845 -0.26876,-1.40473l-0.10205,-0.13105c-0.02943,-0.03698 -0.04738,-0.08358 -0.0483,-0.13446c-0.00222,-0.12289 0.0956,-0.22432 0.21848,-0.22654c0.06144,-0.00111 0.11752,0.0228 0.15852,0.06233l0.23932,0.23081c0.18984,0.18344 0.33193,0.49175 0.39675,0.65538c-0.13144,-0.48638 0.16408,-1.10093 -0.14377,-1.55406c-0.05134,-0.06682 -0.12683,-0.12071 -0.15403,-0.20048c-0.3949,-1.15717 0.62887,-0.3945 0.98632,-0.09184c-0.06212,-0.13306 -0.11571,-0.33225 -0.11837,-0.34064c-0.07779,-0.24471 -0.16209,-0.51485 -0.36829,-0.69182c-0.34229,-0.29376 -1.48838,-0.53578 -1.90928,-0.52476c-1.67269,-0.29743 -3.49574,0.14061 -5.12341,-0.29099c0,0 -0.21505,-0.05726 -0.15781,-0.2723c0.05725,-0.21505 0.27231,-0.15781 0.27231,-0.15781c1.59753,0.42718 3.39946,-0.02809 5.04474,0.27745c1.11972,-0.0122 2.87688,0.66747 2.82278,2.02957c-0.03673,0.92478 -0.6001,0.436 -0.89162,0.09628c0.16337,0.44534 0.49225,2.08812 0.11682,2.24958c-0.15051,0.06473 -0.31052,-0.01322 -0.46336,-0.1466c0.16859,0.58351 0.25267,1.25009 0.07856,1.41775c-0.12225,0.11771 -0.33211,0.16544 -0.49516,0.11842c-0.24688,-0.07118 -0.38643,-0.69226 -0.59213,-0.87403c-0.25114,-0.22192 -0.83959,-0.2427 -1.16261,-0.34778c-1.19725,0.02966 -2.54858,-0.19845 -3.72869,0.06603l0.02027,0.03282c0,0 -0.15449,0.16018 -0.31466,0.00569z" fill="#6b767b" stroke-width="0.5"/><path d="M309.13795,223.21723c0,0 -0.08059,-1.85506 -0.09465,-2.6318c-0.01153,-0.63708 0.15658,-1.74285 0.15658,-1.74285c0,0 4.84152,0.1133 6.01435,0.40763c0.49355,0.12386 0.9774,1.34693 0.9774,1.34693c0,0 -0.87,0.89576 -0.73655,1.69453c0.13018,0.77923 -0.66892,1.19954 -0.66892,1.19954c0,0 -1.81715,-0.55472 -2.73279,-0.59915c-0.96456,-0.04679 -2.91542,0.32514 -2.91542,0.32514z" fill="#606a6e" stroke-width="0"/><path d="M309.09686,219.88601c-0.05787,-0.21489 0.15701,-0.27277 0.15701,-0.27277l0.24104,-0.05803c0.31341,-0.00567 0.62682,-0.01134 0.94024,-0.01702c1.57396,-0.02849 2.98623,0.53686 4.526,0.81594c0,0 0.21898,0.03968 0.17927,0.25867c-0.03968,0.21898 -0.25867,0.17928 -0.25867,0.17928c-1.51038,-0.27375 -2.89776,-0.83676 -4.43856,-0.80888c-0.31341,0.00567 -0.62682,0.01134 -0.94024,0.01702l-0.13335,0.0428c0,0 -0.21489,0.05788 -0.27276,-0.15701z" fill="#303537" stroke-width="0.5"/><path d="M308.78994,221.48352c-0.00402,-0.2225 0.21847,-0.22653 0.21847,-0.22653l0.05046,0.0034c0.32053,-0.07015 0.61775,-0.18122 0.93598,-0.25208c1.3715,-0.29427 3.48546,-0.01046 4.61228,0.80321c0,0 0.18041,0.13029 0.05015,0.3107c-0.13029,0.18041 -0.3107,0.05015 -0.3107,0.05015c-1.01609,-0.73373 -3.01457,-1.0076 -4.25653,-0.72927c-0.31709,0.06799 -0.61616,0.18207 -0.93598,0.25208l-0.13759,0.00681c0,0 -0.2225,0.00402 -0.22653,-0.21847z" fill="#303537" stroke-width="0.5"/></g><path d="M340.16551,169.18268c0,0.99605 -7.38245,1.80351 -16.48917,1.80351c-9.10672,0 -16.48918,-0.80746 -16.48918,-1.80351c0,-0.39774 -2.02903,-2.65481 -0.03491,-2.953c2.99962,-0.44855 11.85545,-1.42694 17.32564,-1.42694c9.10672,0 15.68762,3.38389 15.68762,4.37994z" fill="#c5d8e2" stroke="none" stroke-width="0"/><path d="M308.5347,170.68892c1.69752,4.50185 -4.3459,6.52142 -5.88492,2.31297c-1.02594,-2.80543 0.17852,-5.4545 2.06283,-5.52148c0.15751,-0.02946 0.32035,-0.0449 0.48699,-0.0449c1.21292,0 2.2241,0.81812 2.45195,1.90353c0.2613,0.34596 0.52192,0.7453 0.7792,1.20221z" fill="#a1b9c7" stroke="none" stroke-width="0.5"/><path d="M296.63911,236.72631v-111.84076h47.29829v111.84077z" fill="none" stroke-opacity="0.01176" stroke="#ffffff" stroke-width="0.5"/></g></g></svg>