<svg version="1.1" xmlns="http://www.w3.org/2000/svg" xmlns:xlink="http://www.w3.org/1999/xlink" width="46.19549" height="37.19916" viewBox="0,0,46.19549,37.19916"><g transform="translate(-226.55206,-149.94518)"><g data-paper-data="{&quot;isPaintingLayer&quot;:true}" fill-rule="nonzero" stroke="#6a5940" stroke-width="4.5" stroke-linejoin="miter" stroke-miterlimit="10" stroke-dasharray="" stroke-dashoffset="0" style="mix-blend-mode: normal"><path d="M236.73622,171.85448c0.05879,-0.88514 -0.60678,-1.6672 -0.91018,-2.5008c-0.75518,-1.27157 -1.6868,-2.51676 -2.90813,-3.35075c-0.13006,-0.08881 -0.2972,-0.19145 -0.48105,-0.29092c0.24851,-0.07256 0.47966,-0.14568 0.65625,-0.19605c2.12368,-0.6058 5.40021,-0.21806 6.32368,-2.77185c0.62723,-1.73455 -0.3758,-2.03966 -0.62222,-3.46955c-0.41328,-2.3981 -0.42956,-4.74567 -0.72311,-7.07938h32.42609v30.59031c-0.99495,-0.70695 -2.03773,-1.32266 -3.09997,-1.57093c-3.64834,-0.85271 -8.43333,1.10602 -11.55883,-1.18211c-3.61894,-3.57554 -9.62584,-4.22011 -14.45937,-4.32966c-2.09895,-0.04757 -4.98968,-0.09253 -7.20901,-0.956c1.36379,-0.61233 2.47107,-1.46532 2.56584,-2.89231z" fill="#887151" stroke-linecap="butt"/><path d="M247.34725,176.21525l22.32435,-22.32435" fill="none" stroke-linecap="round"/></g></g></svg>