<svg version="1.1" xmlns="http://www.w3.org/2000/svg" xmlns:xlink="http://www.w3.org/1999/xlink" width="72.33969" height="70.04544" viewBox="0,0,72.33969,70.04544"><g transform="translate(-283.60498,-147.66715)"><g data-paper-data="{&quot;isPaintingLayer&quot;:true}" fill-rule="nonzero" stroke="none" stroke-linecap="butt" stroke-linejoin="miter" stroke-miterlimit="10" stroke-dasharray="" stroke-dashoffset="0" style="mix-blend-mode: normal"><path d="M289.76439,212.78202v-60.81093h60.81093v60.81093z" fill="#8b8b8b" stroke-width="0"/><path d="M297.76283,161.66084c-0.83205,-0.5547 -0.27735,-1.38675 -0.27735,-1.38675l0.66783,-0.99298c2.42285,-2.27651 5.12522,-0.91342 7.57157,0.71563c0,0 0.83205,0.5547 0.27735,1.38675c-0.5547,0.83205 -1.38675,0.27735 -1.38675,0.27735c-0.20845,-0.13913 -0.44926,-0.30415 -0.71175,-0.47553c-0.03486,0.37935 -0.31066,0.65515 -0.31066,0.65515c-1.07609,1.06165 -2.51157,1.57515 -3.41758,2.79677c-1.90298,2.56586 -2.53305,4.98874 -2.53305,8.06949l0.10096,0.14062c0,0 0.31623,0.94868 -0.63246,1.26491c-0.94868,0.31623 -1.26491,-0.63246 -1.26491,-0.63246l-0.2036,-0.77307c0,-3.48085 0.75957,-6.43594 2.94907,-9.29056c1.04184,-1.35833 2.43303,-1.81609 3.58735,-2.98991c0,0 0.0549,-0.0549 0.14939,-0.1188c-0.96508,-0.41175 -1.95311,-0.53539 -2.62825,0.24165l-0.55042,0.8344c0,0 -0.5547,0.83205 -1.38675,0.27735z" fill="#6a6a6a" stroke-width="0.5"/><path d="M303.1809,175.27624c-0.89443,0.44721 -1.34164,-0.44721 -1.34164,-0.44721l-0.34646,-0.70521c-1.26427,-3.48593 0.09733,-7.66055 3.33353,-9.59483c0,0 0.86824,-0.49614 1.36438,0.3721c0.49614,0.86824 -0.3721,1.36438 -0.3721,1.36438c-2.3959,1.27844 -3.41365,4.70202 -2.45315,7.1561l0.26266,0.51303c0,0 0.44721,0.89443 -0.44721,1.34164z" fill="#6a6a6a" stroke-width="0.5"/><path d="M304.32338,180.21233c-0.19612,0.98058 -1.1767,0.78446 -1.1767,0.78446l-0.29057,-0.17134c-2.02783,0.57772 -3.40882,0.56965 -2.5363,2.79894c0,0 0.35112,0.93633 -0.58521,1.28745c-0.93633,0.35112 -1.28745,-0.58521 -1.28745,-0.58521c-1.27746,-3.52229 0.73717,-4.52976 3.85951,-5.42424l1.23224,0.13322c0,0 0.98058,0.19612 0.78446,1.1767z" fill="#6a6a6a" stroke-width="0.5"/><path d="M299.30981,194.91152c-0.12403,0.99228 -1.11631,0.86824 -1.11631,0.86824l-1.69552,-0.34554c-1.72606,-3.43907 0.36252,-4.73512 0.67499,-7.92799c0,0 0.12403,-0.99228 1.11631,-0.86824c0.99228,0.12403 0.86824,1.11631 0.86824,1.11631c-0.31744,2.20932 -1.85567,3.70672 -1.45694,6.08188l0.74098,-0.04098c0,0 0.99228,0.12403 0.86824,1.11631z" fill="#6a6a6a" stroke-width="0.5"/><path d="M309.66258,182.89869c-0.14142,0.98995 -1.13137,0.84853 -1.13137,0.84853l-0.8564,-0.14456c-1.66913,0.41098 -2.39977,2.7835 -2.57834,4.30392c0,0 -0.12403,0.99228 -1.11631,0.86824c-0.99228,-0.12403 -0.86824,-1.11631 -0.86824,-1.11631c0.36698,-2.79835 1.65924,-5.21886 4.4266,-6.0512l1.27554,0.16001c0,0 0.98995,0.14142 0.84853,1.13137z" fill="#6a6a6a" stroke-width="0.5"/><path d="M308.59101,169.1064c0.5547,0.83205 -0.27735,1.38675 -0.27735,1.38675l-0.69959,0.41657c-0.46995,1.19854 -0.59607,3.00986 0.48051,3.76984c0,0 0.76822,0.64018 0.12804,1.40841c-0.64018,0.76822 -1.40841,0.12804 -1.40841,0.12804c-1.9541,-1.77619 -1.76122,-4.279 -0.73773,-6.58528l1.12778,-0.80168c0,0 0.83205,-0.5547 1.38675,0.27735z" fill="#6a6a6a" stroke-width="0.5"/><path d="M294.49965,170.34648c-0.98995,0.14142 -1.13137,-0.84853 -1.13137,-0.84853l-0.15982,-1.1365c-0.00816,-3.68868 -2.98268,-8.78819 0.74735,-11.41034c0,0 0.83205,-0.5547 1.38675,0.27735c0.04512,0.06767 0.08106,0.13351 0.10902,0.19737c1.54273,-2.08932 4.0525,-2.80646 6.92965,-2.74111l1.30544,0.70738c0,0 0.86824,0.49614 0.3721,1.36438c-0.49614,0.86824 -1.36438,0.3721 -1.36438,0.3721l-0.8265,-0.51087c-2.64491,0.09215 -4.85662,0.89381 -5.63446,3.72437c0,0 -0.27472,0.96152 -1.23625,0.6868c-0.96152,-0.27472 -0.6868,-1.23625 -0.6868,-1.23625c0.07402,-0.25159 0.15616,-0.49224 0.24605,-0.7223c-1.5198,1.96461 0.65251,6.96381 0.64699,9.14931l0.14475,0.99544c0,0 0.14142,0.98995 -0.84853,1.13137z" fill="#6a6a6a" stroke-width="0.5"/><path d="M312.62233,167.81446c-0.89443,0.44721 -1.34164,-0.44721 -1.34164,-0.44721l-0.26952,-0.65379c-0.74106,-0.30195 -1.61915,-0.31491 -2.27046,-0.77982c-4.40191,-3.1421 0.95533,-5.64335 2.08314,-8.14084c0,0 0.44721,-0.89443 1.34164,-0.44721c0.89443,0.44721 0.44721,1.34164 0.44721,1.34164c-0.58825,1.10864 -4.26325,3.17468 -3.46079,4.83546c0.50771,1.05076 2.31815,1.25828 3.27347,1.77656l0.64416,1.17358c0,0 0.44721,0.89443 -0.44721,1.34164z" fill="#6a6a6a" stroke-width="0.5"/><path d="M326.18496,159.24001c-1,0 -1,-1 -1,-1l0.29289,-0.35886c-2.34176,0.88338 -5.65465,0.08861 -7.62206,2.1667c-0.45615,0.48181 0.03058,1.34746 -0.15518,1.98441c-0.22006,0.75461 -0.79711,1.36009 -1.10391,2.08379c0,0 -0.39392,0.91915 -1.31306,0.52523c-0.91915,-0.39392 -0.52523,-1.31306 -0.52523,-1.31306c0.49335,-1.14058 0.79441,-3.59962 1.48197,-4.45954c2.31634,-2.89702 7.48192,-2.80925 10.65168,-2.40174l0.29289,1.77307c0,0 0,1 -1,1z" fill="#6a6a6a" stroke-width="0.5"/><path d="M291.76944,181.47306c-1,0 -1,-1 -1,-1l0.00772,-0.4286c0.28167,-1.92741 1.4851,-4.53302 2.94087,-5.82174c0,0 0.76822,-0.64018 1.40841,0.12804c0.64018,0.76822 -0.12804,1.40841 -0.12804,1.40841c-1.05868,0.79689 -2.11349,3.21581 -2.23669,4.53337l0.00772,0.18053c0,0 0,1 -1,1z" fill="#6a6a6a" stroke-width="0.5"/><path d="M290.02752,191.45209c-0.92848,-0.37139 -0.55709,-1.29987 -0.55709,-1.29987l0.46482,-1.0302c1.16079,-1.38941 1.61318,-2.22509 1.59559,-4.08053c0,0 0,-1 1,-1c1,0 1,1 1,1c-0.01771,2.30816 -0.61057,3.61854 -2.05915,5.3609l-0.14431,0.49261c0,0 -0.37139,0.92848 -1.29987,0.55709z" fill="#6a6a6a" stroke-width="0.5"/><path d="M296.91715,199.55603c-0.96152,0.27472 -1.23625,-0.6868 -1.23625,-0.6868l0.11288,-0.50166c-1.20562,0.9608 -3.47517,1.38428 -4.90819,1.03618c0,0 -0.96152,-0.27472 -0.6868,-1.23625c0.27472,-0.96152 1.23625,-0.6868 1.23625,-0.6868c1.29481,0.47682 3.83233,-0.78994 5.44692,-0.79119l0.722,1.63028c0,0 0.27472,0.96152 -0.6868,1.23625z" fill="#6a6a6a" stroke-width="0.5"/><path d="M293.14959,209.84405c-0.66868,-0.33434 -0.5875,-0.91863 -0.50392,-1.19228c-2.09619,-4.65098 1.27873,-5.27058 5.51957,-5.27058c0,0 1,0 1,1c0,1 -1,1 -1,1c-3.15791,0 -5.26248,-0.64194 -3.52173,2.81666l-0.15228,1.19899c0,0 -0.44721,0.89443 -1.34164,0.44721z" fill="#6a6a6a" stroke-width="0.5"/><path d="M301.55473,201.5333c0.86824,0.49614 0.3721,1.36438 0.3721,1.36438l-0.5852,1.02154c-0.85094,1.60874 0.66296,2.87351 0.06493,4.71107c-0.69541,2.13676 -3.49605,2.66122 -5.37324,2.68987c0,0 -1,0 -1,-1c0,-1 1,-1 1,-1c5.08905,0.10528 2.30283,-3.24938 3.52399,-6.30436l0.63304,-1.11039c0,0 0.49614,-0.86824 1.36438,-0.3721z" fill="#6a6a6a" stroke-width="0.5"/><path d="M307.1809,199.36273c-0.76822,0.64018 -1.40841,-0.12804 -1.40841,-0.12804l-0.88482,-1.10111c-0.2339,-0.87191 -0.40112,-3.03596 -0.85235,-3.7137c-0.35635,-0.53524 -1.78044,1.52501 -1.86293,1.86057c0,0 -0.27472,0.96152 -1.23625,0.6868c-0.96152,-0.27472 -0.6868,-1.23625 -0.6868,-1.23625c0.45317,-1.45564 2.80122,-4.44925 4.83744,-3.01243c0.94531,0.66704 1.33368,3.3967 1.58415,4.50948l0.63799,0.72626c0,0 0.64018,0.76822 -0.12804,1.40841z" fill="#6a6a6a" stroke-width="0.5"/><path d="M313.14645,183.87943c0.85749,0.5145 0.343,1.37199 0.343,1.37199l-0.31434,0.24691c-0.0402,1.08289 -0.48652,2.21901 -1.22647,3.01067c-0.40102,0.42905 -1.25271,0.50083 -1.40027,1.06927c-0.16053,0.61841 0.25553,1.25329 0.3348,1.88727c0,0 0.12403,0.99228 -0.86824,1.11631c-0.99228,0.12403 -1.11631,-0.86824 -1.11631,-0.86824c-0.03633,-0.29075 -0.33032,-2.50953 -0.27432,-2.68117c0.55736,-1.70828 2.68005,-1.64605 2.55082,-3.53411l0.59935,-1.2759c0,0 0.5145,-0.85749 1.37199,-0.343z" fill="#6a6a6a" stroke-width="0.5"/><path d="M314.60249,173.27725c0.8,0.6 0.2,1.4 0.2,1.4l-0.44311,0.59036c-0.86642,1.16251 -1.24445,2.37353 -0.52843,3.69226c0,0 0.44721,0.89443 -0.44721,1.34164c-0.89443,0.44721 -1.34164,-0.44721 -1.34164,-0.44721c-0.98558,-2.08122 -0.59904,-3.88771 0.68982,-5.74917l0.47058,-0.62789c0,0 0.6,-0.8 1.4,-0.2z" fill="#6a6a6a" stroke-width="0.5"/><path d="M327.27041,178.96582c-0.6247,0.78087 -1.40556,0.15617 -1.40556,0.15617l-1.12899,-1.26596c-0.26911,-2.15325 -1.22658,-4.26804 -1.22597,-6.36756c0.00002,-0.07271 0.18468,-2.33866 -0.26024,-2.63577c-0.18485,-0.12344 -3.87469,0.73998 -4.37416,0.74243c0,0 -1,0 -1,-1c0,-1 1,-1 1,-1c1.19438,0.00685 4.405,-1.12003 5.37183,-0.47582c0.73217,0.48785 0.99566,1.48486 1.23991,2.33009c0.28222,0.97662 -0.24038,2.0622 0.00088,3.04973c0.43024,1.76102 0.99972,3.2484 1.23231,5.10883l0.39382,-0.04771c0,0 0.78087,0.6247 0.15617,1.40556z" fill="#6a6a6a" stroke-width="0.5"/><path d="M317.37077,193.17223c-0.66896,-0.74329 0.07433,-1.41226 0.07433,-1.41226l0.03622,-0.0326c0.18218,-0.16361 2.80589,-2.26875 2.84113,-2.71871c0.14023,-1.79054 -0.44725,-2.11447 0.75235,-3.86824c0.25036,-0.36601 -0.88679,-0.21729 -1.23714,-0.48912c-0.49112,-0.38106 -1.00708,-0.79909 -1.27694,-1.35907c-0.99587,-2.06653 0.77216,-5.11937 0.99596,-7.19348c0,0 0.11043,-0.99388 1.10432,-0.88345c0.99388,0.11043 0.88345,1.10432 0.88345,1.10432c-0.18575,1.63049 -1.79392,4.60982 -1.13597,6.20725c0.63578,1.5436 2.62605,0.11328 2.66348,2.72024c0.00675,0.46993 -1.08093,1.36636 -1.24358,2.00378c-0.17312,0.67845 0.5999,1.35798 0.47311,2.0466c-0.24177,1.31307 -2.60997,3.12983 -3.48223,3.91646l-0.03622,0.0326c0,0 -0.74329,0.66896 -1.41226,-0.07433z" fill="#6a6a6a" stroke-width="0.5"/><path d="M317.1218,201.30732c-0.04331,-0.34648 0.04949,-0.5871 0.18862,-0.75354c-0.54713,-0.8893 -0.71805,-1.74645 -1.27646,-2.67039c-0.86755,-1.43545 -3.373,-1.75766 -4.00303,-3.28088c-1.31548,-3.18043 2.98689,-6.83545 5.39239,-4.02448c0,0 0.5547,0.83205 -0.27735,1.38675c-0.83205,0.5547 -1.38675,-0.27735 -1.38675,-0.27735c-0.25677,-1.32041 -2.31288,1.22936 -1.91711,2.06677c0.26009,0.55033 2.35727,1.53851 2.81948,1.97465c1.28469,1.21221 1.33264,2.61898 2.40246,3.92146l0.81007,0.54004c0.2757,0.17805 0.4582,0.48804 0.4582,0.84065c0,0.51481 -0.38902,0.93876 -0.88913,0.99392l-1.20509,0.15064c0,0 -0.99228,0.12403 -1.11631,-0.86824z" fill="#6a6a6a" stroke-width="0.5"/><path d="M310.47121,206.4736c-0.87416,-0.48564 -0.38851,-1.3598 -0.38851,-1.3598l0.66004,-0.66498c-2.37339,-1.26889 -0.37626,-4.92048 0.53794,-6.75837c0,0 0.44721,-0.89443 1.34164,-0.44721c0.89443,0.44721 0.44721,1.34164 0.44721,1.34164c-1.04464,2.07736 -2.23098,3.81561 -0.37575,5.42412l-0.86277,2.07608c0,0 -0.48564,0.87416 -1.3598,0.38851z" fill="#6a6a6a" stroke-width="0.5"/><path d="M318.97346,208.3948c0.70711,0.70711 0,1.41421 0,1.41421l-0.25939,0.24517c-4.51213,3.32037 -12.08209,3.80394 -13.8963,-2.50493c0,0 -0.27472,-0.96152 0.6868,-1.23625c0.96152,-0.27472 1.23625,0.6868 1.23625,0.6868c1.36654,4.81781 7.42545,4.02572 10.77325,1.45438l0.04517,-0.05939c0,0 0.70711,-0.70711 1.41421,0z" fill="#6a6a6a" stroke-width="0.5"/><path d="M323.24996,193.72366c0.75926,-0.65079 1.41005,0.10847 1.41005,0.10847l1.00978,1.19871c0.58764,1.47903 1.36715,4.26897 0.67765,5.92601c-0.32039,0.76998 -1.66683,1.65222 -2.4006,1.92435c-0.49393,0.18318 -1.02589,0.25105 -1.54893,0.31393c-0.28482,0.03424 -0.96499,-0.29135 -0.86026,-0.02429c0.13702,0.3494 0.76949,0.18523 1.02951,0.45587c0.39411,0.41021 0.55814,0.99139 0.83721,1.48708c0,0 0.48564,0.87416 -0.38851,1.3598c-0.87416,0.48564 -1.3598,-0.38851 -1.3598,-0.38851c-0.61604,-1.12675 -2.36927,-1.98061 -2.09258,-3.2346c0.36572,-1.6575 2.58291,-1.47889 3.68205,-1.84229c2.00135,-0.66169 1.32715,-3.42307 0.71355,-4.94126l-0.81759,-0.93322c0,0 -0.65079,-0.75926 0.10847,-1.41005z" fill="#6a6a6a" stroke-width="0.5"/><path d="M326.087,181.59332c0.70711,-0.70711 1.41421,0 1.41421,0l0.15216,0.17962c2.8999,2.11669 1.48522,5.04666 -0.609,7.17356c0,0 -0.70711,0.70711 -1.41421,0c-0.70711,-0.70711 0,-1.41421 0,-1.41421c1.02616,-1.00667 2.76479,-3.068 0.91381,-4.09524l-0.45697,-0.42951c0,0 -0.70711,-0.70711 0,-1.41421z" fill="#6a6a6a" stroke-width="0.5"/><path d="M331.6671,173.99094c1,0 1,1 1,1c0,0.40608 0,1.87813 0,2.28422c0,0 0,1 -1,1c-1,0 -1,-1 -1,-1c0,-0.40608 0,-0.81217 0,-1.21825v-1.06597c0,0 0,-1 1,-1z" fill="#6a6a6a" stroke-width="0.5"/><path d="M334.19383,169.30008c0.97014,0.24254 0.72761,1.21268 0.72761,1.21268l-0.47163,1.12585c-0.65984,0.56556 -1.32265,1.12769 -1.99026,1.68406c0,0 -0.76822,0.64018 -1.40841,-0.12804c-0.64018,-0.76822 0.12804,-1.40841 0.12804,-1.40841c0.66052,-0.55041 1.31626,-1.10657 1.96905,-1.66613l-0.16707,-0.0924c0,0 0.24254,-0.97014 1.21268,-0.72761z" fill="#6a6a6a" stroke-width="0.5"/><path d="M340.33546,157.29133c0.94868,-0.31623 1.26491,0.63246 1.26491,0.63246l0.49525,1.52658c0.01648,2.34245 0.54969,6.41165 -1.41442,8.23919c-1.1228,1.04473 -3.73914,1.22743 -5.21793,1.43869c0,0 -0.98995,0.14142 -1.13137,-0.84853c-0.14142,-0.98995 0.84853,-1.13137 0.84853,-1.13137c1.14705,-0.16386 3.36685,-0.2588 4.2235,-0.99781c1.24926,-1.0777 0.70573,-4.99752 0.71752,-6.3798l-0.41844,-1.21448c0,0 -0.31623,-0.94868 0.63246,-1.26491z" fill="#6a6a6a" stroke-width="0.5"/><path d="M345.25512,157.33799c-0.31623,0.94868 -1.26491,0.63246 -1.26491,0.63246l-0.69532,-0.26891c-1.44274,-1.07651 -4.37914,-0.28889 -6.14567,-0.28889c0,0 -1,0 -1,-1c0,-1 1,-1 1,-1c2.44829,0 5.11815,-0.70632 7.25507,0.62479l0.21837,0.03565c0,0 0.94868,0.31623 0.63246,1.26491z" fill="#6a6a6a" stroke-width="0.5"/><path d="M338.45286,176.10074c-0.19612,-0.98058 0.78446,-1.1767 0.78446,-1.1767l0.5636,-0.09085c1.21627,-0.07237 -0.8546,-2.92142 0.05241,-4.25148c0.7148,-1.0482 3.10315,-0.70237 4.14853,-0.70237c0,0 1,0 1,1c0,1 -1,1 -1,1c-0.85118,0 -2.23641,-0.88382 -2.55184,-0.09324c-0.43947,1.10148 1.43973,2.58344 0.67821,4.00695c-0.27869,0.52096 -1.02632,0.58562 -1.53948,0.87844l-0.95921,0.21372c0,0 -0.98058,0.19612 -1.1767,-0.78446z" fill="#6a6a6a" stroke-width="0.5"/><path d="M341.87906,181.88218c-0.8,-0.6 -0.2,-1.4 -0.2,-1.4l0.25684,-0.00912c0.01774,-1.06148 -0.22305,-2.401 0.93111,-3.13487c0.9475,-0.60247 6.0512,0.17701 5.77675,-2.07279c-0.06316,-0.51777 -1.70888,-1.6548 -2.05993,-2.07078c0,0 -0.64018,-0.76822 0.12804,-1.40841c0.76822,-0.64018 1.40841,0.12804 1.40841,0.12804c0.52151,0.63569 1.30467,1.02446 1.8194,1.66565c2.38495,2.97088 -1.63266,5.09944 -4.08429,5.59289c-0.63444,0.1277 -1.30285,-0.26289 -1.93691,-0.1333c-0.46821,0.09569 0.00622,0.95581 0.01743,1.43357l-0.65684,1.20912c0,0 -0.6,0.8 -1.4,0.2z" fill="#6a6a6a" stroke-width="0.5"/><path d="M345.98838,189.00844c0.04804,-0.08511 0.11333,-0.17151 0.19973,-0.25791c0.70711,-0.70711 1.41421,0 1.41421,0l-0.18561,1.98786c-2.27444,0.50255 -5.84993,1.22324 -7.87829,-0.37408c-0.69996,-0.55122 -0.98513,-3.20617 -1.4622,-3.45373c-0.31916,-0.16562 -0.73769,0.11127 -1.0787,-0.00273c-2.36786,-0.79157 -3.38075,-2.75695 -3.73158,-5.07513c0,0 -0.14142,-0.98995 0.84853,-1.13137c0.98995,-0.14142 1.13137,0.84853 1.13137,0.84853c0.2031,1.54062 0.76076,2.9212 2.35966,3.45262c0.53443,0.17763 1.20935,-0.03276 1.66236,0.30184c1.08932,0.80457 0.60475,2.78578 1.58343,3.5512c1.1347,0.88745 3.48771,0.50695 5.13711,0.1529z" fill="#6a6a6a" stroke-width="0.5"/><path d="M341.70286,195.92028c-0.02109,-0.05272 -0.03798,-0.10364 -0.0511,-0.1528c-0.77086,-0.34027 -1.44918,-0.7772 -2.37004,-1.09329c-2.59669,-0.89132 -6.50316,1.19638 -7.22805,-2.90619c-0.10999,-0.62251 -0.16201,-1.29898 0.04607,-1.8959c0.19223,-0.55146 0.72821,-0.91321 1.09232,-1.36981c0,0 0.65079,-0.75926 1.41005,-0.10847c0.75926,0.65079 0.10847,1.41005 0.10847,1.41005c-3.28668,3.40769 3.85047,2.53182 5.17913,2.96497c1.44096,0.46976 2.09862,1.31316 3.62707,1.48321l-0.40161,1.73856l0.15354,0.24599c-0.06907,-0.00936 -0.13676,-0.01979 -0.20315,-0.03122l-0.06283,0.27198c0,0 -0.92848,0.37139 -1.29987,-0.55709z" fill="#6a6a6a" stroke-width="0.5"/><path d="M345.86424,199.64881c0.31623,0.94868 -0.63246,1.26491 -0.63246,1.26491l-1.22991,0.35588c-5.38926,0 -12.91487,-1.31252 -15.6657,-6.64403c0,0 -0.44721,-0.89443 0.44721,-1.34164c0.89443,-0.44721 1.34164,0.44721 1.34164,0.44721c2.22157,4.63858 9.39478,5.53846 13.87684,5.53846l0.59746,-0.25325c0,0 0.94868,-0.31623 1.26491,0.63246z" fill="#6a6a6a" stroke-width="0.5"/><path d="M333.36726,205.3339c-0.09412,0.28935 -0.33291,0.65641 -0.93877,0.65641c-1,0 -1,-1 -1,-1l0.01605,-1.24439c0.37794,-0.66385 0.40183,-1.77311 1.13382,-1.99154c3.29478,-0.98318 1.61466,1.28246 2.12138,2.11589c0.07443,0.12243 2.74371,0.04421 2.98111,-0.00549c2.78684,-0.58341 5.96232,-0.09311 8.65592,-1.31109c0,0 0.91381,-0.40614 1.31995,0.50767c0.40614,0.91381 -0.50767,1.31995 -0.50767,1.31995c-2.92091,1.27936 -7.45918,1.43711 -10.60897,1.45672c-0.93202,0.0058 -2.32886,0.1165 -3.17282,-0.50413z" fill="#6a6a6a" stroke-width="0.5"/><path d="M348.56118,211.72928c-0.8,0.6 -1.4,-0.2 -1.4,-0.2l0.06844,-0.2476c-3.15568,-0.91499 -6.27819,0.12564 -9.45769,-0.27575c-1.19986,-0.15148 -1.95156,-0.94779 -3.04442,-1.25149c-3.25126,-0.90351 -5.96562,-0.78736 -8.72586,-3.08221c0,0 -0.76822,-0.64018 -0.12804,-1.40841c0.64018,-0.76822 1.40841,-0.12804 1.40841,-0.12804c2.51226,2.09889 5.05495,1.83747 8.02506,2.70447c0.96134,0.28062 1.71251,1.0756 2.74226,1.18501c3.29311,0.34989 6.44541,-0.59319 9.72973,0.33337l0.98212,0.97065c0,0 0.6,0.8 -0.2,1.4z" fill="#6a6a6a" stroke-width="0.5"/><path d="M310.76169,167.82982c0.41773,-2.02636 2.43409,-1.5755 2.99826,-0.07281c0.00115,0.02413 0.00174,0.0484 0.00174,0.07281c0,0.82843 -0.67157,1.5 -1.5,1.5c-0.82843,0 -1.5,-0.67157 -1.5,-1.5c0,-0.82843 0.67157,-1.5 1.5,-1.5c0.80401,0 1.46028,0.63258 1.49826,1.42719c0.14606,0.38903 0.19479,0.84856 0.09324,1.35386c-0.62006,3.08545 -2.92949,0.72554 -3.08487,-1.139z" fill-opacity="0.66275" fill="#45423d" stroke-width="0.5"/><path d="M307.52879,177.25894c0.33801,2.33291 0.06101,4.67748 0.36925,6.98371c0.12841,0.96074 0.39522,7.58953 -2.07464,6.67675c-3.21664,-1.18876 -2.15281,-8.94524 -2.74798,-11.56014c-0.26092,-1.14638 -10.08024,-9.48363 -5.50803,-9.79895c0.19589,-0.6005 0.76044,-1.0344 1.42634,-1.0344c0.06346,0 0.12601,0.00394 0.1874,0.01159c3.24083,0.30931 7.98943,6.24897 8.34766,8.72145z" fill="#616161" stroke-width="0.5"/><path d="M313.32827,180.25628c2.22469,-5.28363 8.55754,-4.63027 12.93035,-5.73725c1.35881,-0.34398 4.92112,-2.04688 5.70771,0.15556c1.86884,5.23275 -6.8726,3.60768 -8.93291,3.97464c-2.07314,0.36924 -2.40944,4.08997 -4.51779,4.08997c-1.32044,0 -2.37487,-2.86145 -2.37487,-0.96894c0.05919,0.16119 0.0915,0.33536 0.0915,0.51707c0,0.82843 -0.67157,1.5 -1.5,1.5c-0.82843,0 -1.5,-0.67157 -1.5,-1.5c0,-0.0074 0.00005,-0.01479 0.00016,-0.02217c-0.2285,-0.5071 -0.25305,-1.18026 0.09584,-2.00888z" fill="#616161" stroke-width="0.5"/><path d="M327.85318,171.58145c0,2.10103 -2.90438,1.48271 -3.92112,1.5c-0.89142,0.01516 -3.86293,2.16511 -4.71613,1.73856c-0.63912,0 -1.18488,-0.39971 -1.40093,-0.96279c-0.09601,-0.15161 -0.13868,-0.31715 -0.09856,-0.49771c-0.00034,-0.01313 -0.00051,-0.02629 -0.00051,-0.0395c0,-0.68733 0.46229,-1.26669 1.0929,-1.4441c2.65959,-1.98117 9.04435,-2.50661 9.04435,-0.29446z" fill="#616161" stroke-width="0.5"/><path d="M346.68487,186.61943c-0.55094,0.55094 -1.94064,0.03561 -2.62713,0.45876c-2.56092,1.57854 -5.74229,6.09498 -8.73725,6.31697c-3.40086,0.25208 -1.4272,-4.07509 -0.42455,-5.44316c1.99648,-2.72409 7.04707,-5.75753 10.39843,-6.31609c0.08899,-0.01645 0.18072,-0.02505 0.27447,-0.02505c0.82843,0 1.5,0.67157 1.5,1.5c0,0.08214 -0.0066,0.16274 -0.0193,0.24129c0.33617,1.20617 0.21357,2.68903 -0.36468,3.26729z" fill="#616161" stroke-width="0.5"/><path d="M325.93147,195.99906c-2.83873,3.08205 -3.4144,-0.07561 -2.88224,-3.05651c0.29275,-1.63987 -2.50526,-7.62907 2.0939,-8.15468c3.58843,-0.41011 5.73938,10.52887 1.16052,10.52887z" fill="#616161" stroke-width="0.5"/><path d="M314.91307,184.67525c1.24427,0.5405 1.16316,1.50276 1.1362,2.82776c-0.01809,0.88911 -0.39771,1.69401 -0.72363,2.50252c-0.64092,1.58994 3.02286,7.94548 1.40151,10.07396c-1.62886,2.13834 -3.80935,-2.06524 -3.49669,-3.50699c0.28789,-1.32752 -0.18119,-2.11089 -0.18119,-3.6264c-0.18254,-0.06357 -0.34903,-0.16141 -0.49175,-0.28583c-0.17422,-0.03484 -0.25375,-0.21413 -0.32528,-0.40076c-0.05075,-0.09087 -0.09233,-0.18756 -0.12347,-0.28883c-0.98124,-1.70976 -0.1364,-8.57285 2.8043,-7.29543z" fill="#616161" stroke-width="0.5"/><path d="M297.4022,186.40162c-0.00816,-1.21469 -3.56919,0.10789 -2.12922,-2.77204c0.92593,-1.85186 3.6733,-0.13369 4.51128,0.93681c1.28452,1.64093 0.60946,4.99942 0.61794,6.41186c0.00776,1.29305 3.00498,2.92406 3.00498,4.01533c0.12575,0.21943 0.19764,0.47368 0.19764,0.74472c0,0.82843 -0.67157,1.5 -1.5,1.5c-0.35208,0 -0.67583,-0.1213 -0.93174,-0.3244c-2.91526,-0.44043 -3.75831,-8.64281 -3.77087,-10.51228z" fill="#616161" stroke-width="0.5"/><path d="M300.21922,179.72524c-0.33169,0.58045 -1.13927,1.06682 -2.08398,1.38207c-2.24029,0.74758 -5.25176,0.53287 -4.51694,-1.67158c0.46386,-1.39158 5.50773,-1.62359 5.86222,-1.00322z" fill="#616161" stroke-width="0.5"/><path d="M314.42181,167.64232c0.24932,-1.49594 4.7028,-5.39324 5.78562,-4.58112c2.75868,2.06901 -2.38321,4.01955 -2.82002,5.33285c-0.08561,0.25738 -0.04338,0.5126 0.0352,0.7678c0.17243,0.24426 0.27371,0.54233 0.27371,0.86406c0,0.00138 0,0.00276 -0.00001,0.00414c0.0697,0.40901 -0.02915,0.82405 -0.66147,1.25365c-0.0748,0.05082 -0.16308,0.09328 -0.26081,0.12692c-0.17781,0.07427 -0.37297,0.11529 -0.57771,0.11529c-0.13657,0 -0.26887,-0.01825 -0.39461,-0.05245c-0.67869,-0.11471 -1.29409,-0.55658 -1.10488,-1.40805c-0.00034,-0.01313 -0.00051,-0.02629 -0.00051,-0.0395c0,-0.03796 0.00141,-0.07559 0.00418,-0.11285c0.00114,-0.68825 -0.4235,-1.40185 -0.27869,-2.27073z" fill="#616161" stroke-width="0.5"/><path d="M302.47968,166.45506c-0.52815,-2.1126 4.74572,-3.1095 5.41913,-1.93104c0.44211,0.26093 0.7387,0.74219 0.7387,1.29272c0,0.82843 -0.67157,1.5 -1.5,1.5c-0.13127,0 -0.2586,-0.01686 -0.37994,-0.04854c-1.68737,0.73834 -3.8661,0.83399 -4.27788,-0.81315z" fill="#616161" stroke-width="0.5"/><path d="M341.57866,175.97361c-0.44479,3.21726 -5.95947,1.57662 -3.47569,-0.51164c0.35172,-0.29571 -0.69383,-0.71246 -1.47619,-1.02858c-0.25118,-0.04201 -0.48122,-0.14645 -0.67362,-0.29681c-0.35128,-0.27453 -0.57711,-0.70218 -0.57711,-1.18257c0,-0.82843 0.67157,-1.5 1.5,-1.5c0.36753,0 0.70418,0.13218 0.96502,0.35159c1.97369,0.11218 4.04092,1.97399 3.73759,4.16801z" fill="#616161" stroke-width="0.5"/><path d="M309.74487,180.37341c0,1.84445 -2.48309,3.14706 -3.2932,0.71672c-0.65326,-1.95979 0.5324,-4.27871 -0.69469,-6.53652c-0.24156,-0.44446 -3.70227,-3.09735 -3.68903,-3.71931c-0.11611,-0.21299 -0.18209,-0.45725 -0.18209,-0.71691c0,-0.82843 0.67157,-1.5 1.5,-1.5c0.39395,0 0.75243,0.15187 1.02009,0.40026c3.30365,0.48332 5.33893,8.68004 5.33893,11.35575z" fill="#a3a3a3" stroke-width="0.5"/><path d="M318.07043,177.45016c0.58738,2.99963 -4.81199,1.8176 -6.11253,-0.45834c-0.44211,-0.26093 -0.7387,-0.74219 -0.7387,-1.29272c0,-0.80296 0.63092,-1.45857 1.42407,-1.49811c2.15379,-1.21335 4.93761,0.74917 5.42715,3.24918z" fill="#a3a3a3" stroke-width="0.5"/><path d="M327.85318,173.86903c0,1.00941 -0.71009,1.45971 -1.5,1.5c-0.90397,0.0461 -2.9653,-0.35577 -4.02314,0.40431c-0.38083,0.27363 -0.71967,0.93062 -1.11652,1.48064c-0.13858,0.2934 -0.3695,0.53463 -0.65527,0.68618c-0.21038,0.13948 -0.44151,0.21119 -0.70181,0.17397c-0.37364,0 -0.71537,-0.13661 -0.97797,-0.36261c-0.23317,-0.1595 -0.40543,-0.36808 -0.43191,-0.62411c-0.05831,-0.16013 -0.09012,-0.33299 -0.09012,-0.51328c0,-0.16371 0.02623,-0.32129 0.0747,-0.46878c0.93794,-3.88835 9.42202,-5.66643 9.42202,-2.27632z" fill="#a3a3a3" stroke-width="0.5"/><path d="M317.78783,194.65695c0.00899,1.33697 2.12374,1.1226 1.21419,2.94171c-0.5291,1.0582 -1.81915,0.99946 -2.56148,0.39631c-2.68278,-2.17976 -1.51908,-5.93851 -1.65271,-9.01816c-0.01178,-0.27151 -1.2543,-1.56708 -1.38422,-2.11432c-0.12488,-0.52599 0.24895,-3.15635 1.22416,-3.08909c0.19754,-0.09577 0.41926,-0.14947 0.65353,-0.14947c0.82843,0 1.5,0.67157 1.5,1.5c0,0.17337 -0.02941,0.33988 -0.08352,0.49479c1.21407,2.5068 1.06719,5.6366 1.09006,9.03823z" fill="#a3a3a3" stroke-width="0.5"/><path d="M303.45812,182.93993c1.68833,0.53904 3.57849,1.83465 3.87793,2.85243c0.47242,1.60571 0.66885,5.48742 -2.20499,3.76312c-0.21393,-0.12836 -0.31794,-0.37728 -0.37294,-0.6687c-0.44475,-0.04777 -1.22449,-0.13835 -1.16542,-0.02408c0.76172,1.4734 2.70431,4.10539 1.36669,5.443c-0.64435,0.64435 -2.60515,-0.03134 -2.88603,-0.654c-0.85071,-1.88586 -4.90924,-8.7159 -4.75983,-10.65825c0.16254,-2.11297 3.22766,-2.02795 4.27332,-0.66295c0.08146,0.10634 0.15205,0.23107 0.214,0.36925c0.47113,-0.04933 1.05119,0.04668 1.65725,0.24018z" fill="#a3a3a3" stroke-width="0.5"/><path d="M342.50017,179.80751c0.93364,-0.18454 1.23422,-1.2239 1.95565,-1.43157c6.49462,-1.86954 -2.14871,8.07996 -4.31493,4.28907c-0.20663,-0.12195 -0.38147,-0.29203 -0.50911,-0.49481c-1.64528,3.32109 -6.19997,8.98375 -8.00287,7.18084c-2.48025,-2.48025 3.31992,-4.3486 2.9966,-4.83871c-0.63117,-0.06095 -1.14795,-0.51306 -1.30495,-1.11095c-0.05551,-0.10243 -0.07695,-0.21484 -0.04858,-0.34254c-0.00034,-0.01313 -0.00051,-0.02629 -0.00051,-0.0395c0,-0.57573 0.32435,-1.0757 0.80029,-1.32714c1.84111,-2.0798 6.08408,-4.22325 6.18235,-1.67307c0.19616,-0.09412 0.41596,-0.14684 0.64807,-0.14684c0.23441,0 0.45627,0.05377 0.65391,0.14965c0.31923,-0.08654 0.64073,-0.15447 0.94408,-0.21443z" fill="#a3a3a3" stroke-width="0.5"/><path d="M344.83683,171.89191c-0.55053,0 -1.0318,-0.29659 -1.29272,-0.7387l-0.01978,-0.0113l-0.01074,-0.04294c-0.1128,-0.21066 -0.17676,-0.45139 -0.17676,-0.70706v-0.54902l0.01847,-0.07389l-0.01103,-0.07536l0.0915,-0.91503l0.01097,-0.03057l-0.00334,-0.03231l0.03202,-0.22413l-0.09145,-0.21339l-0.09223,-0.18445l-0.26674,-0.33343l-0.04261,-0.09298l-0.07232,-0.07232l-0.2226,-0.371l-0.01397,-0.01747l0.09471,0.16574l-0.75,1.3125l-0.75,0.1875h-1.37255l-0.20484,-0.05121l-0.09502,0.03285l-0.21535,-0.11044l-0.23479,-0.0587l-0.04988,-0.08729l-0.18788,-0.09635l-0.73203,-0.64052l-0.40676,-0.58573l-0.02343,-0.01911l-0.00132,-0.01653l-0.00946,-0.01362l0.006,-0.02963l-0.05687,-0.71085l0.08777,-0.52662l-0.00827,-0.02137l0.16496,-0.35282l0.1553,-0.35718l0.02149,-0.00794l1.17522,-1.44643l0.16145,-0.12109l0.13087,-0.15363l0.64052,-0.45752l0.02546,-0.01003l0.01598,-0.03253l0.34301,-0.10889l0.33483,-0.1319l0.03292,0.01516l0.02608,-0.00828l1.46405,-0.0915l0.76024,0.14035l0.02586,0.03933l0.04706,-0.001l0.54665,0.54665l0.25615,0.42691l0.16321,0.24481l0.03188,0.08926l0.06169,0.07197l0.14124,0.28249l0.1312,0.19681l0.03188,0.08926l0.06169,0.07197l0.11194,0.22388l0.26674,0.33343l0.04261,0.09298l0.07232,0.07232l0.2226,0.371l0.30299,0.37873l0.06649,0.14506l0.10385,0.12116l0.18301,0.36601l0.00978,0.04403l0.02729,0.03591l0.27451,0.64052l0.00245,0.01521l0.0242,0.01883l0.03786,0.36596l0.05858,0.36322l-0.01848,0.02447l0.00158,0.01532l-0.08702,0.60916l-0.08091,0.80907v0.47421c0,0.25567 -0.06396,0.4964 -0.17676,0.70706l-0.01074,0.04294l-0.01978,0.0113c-0.26093,0.44211 -0.74219,0.7387 -1.29272,0.7387zM341.90982,166.01052l-0.06169,-0.07197l-0.10769,-0.21538l-0.13294,0.00831l-0.12628,0.0902l-0.07015,0.08634l0.50745,0.12686z" fill="#a3a3a3" stroke-width="0.5"/><path d="M349.8971,188.34657c1.37504,4.59053 -2.49043,8.58912 -7.04019,10.27326c-1.29229,0.47836 -5.55176,2.56537 -4.64566,-1.05903c0.21961,-0.87844 3.30452,-1.62813 3.44881,-1.70133c0.65132,-0.33042 5.10737,-3.48962 5.6566,-4.31879c0.95682,-1.44447 -2.3982,-5.67583 -0.56994,-6.72055c0.26093,-0.44211 0.74219,-0.7387 1.29272,-0.7387c0.82843,0 1.5,0.67157 1.5,1.5c0,0.08775 -0.00753,0.17374 -0.02199,0.25736c0.08487,0.59368 0.02918,1.33774 0.37965,2.50777z" fill="#a3a3a3" stroke-width="0.5"/><path d="M296.01515,196.85316c-1.0346,-1.72433 0.10539,-2.12336 0.28904,-3.6292c0.15484,-1.26957 -1.49206,-2.97021 1.34873,-2.97021c2.90411,0 0.70215,4.84411 1.09631,5.3148c1.20088,1.43404 2.12783,0.33167 3.25411,0.63884c0.12016,-0.03102 0.24616,-0.04752 0.37602,-0.04752c0.82843,0 1.5,0.67157 1.5,1.5c0,0.80477 -0.63376,1.46151 -1.42942,1.49837c-1.72978,0.56254 -5.18289,-0.21858 -6.43478,-2.30507z" fill="#a3a3a3" stroke-width="0.5"/><path d="M288.85483,157.45851c1.36854,1.31966 1.96673,5.56927 0.61729,7.38073c0.11239,0.16943 0.21884,0.37547 0.31753,0.62217c0.37124,0.9281 -2.20007,2.24753 -1.30798,2.69848c0.0529,0.02674 0.11625,0.03856 0.18634,0.04149c0.11286,-0.02713 0.23068,-0.04149 0.35186,-0.04149c0.03324,0 0.06623,0.00108 0.09894,0.00321c0.39216,0.02553 0.74323,0.20178 0.99586,0.47138c-0.00114,-1.65183 0.18777,-3.10114 0.54181,-3.80923c0.73951,-1.47902 6.12533,-2.45848 7.85644,-2.92468c1.54318,-0.41559 5.24678,-1.82567 6.80623,-0.55866c1.29364,1.05105 4.04213,4.6522 0.41408,4.6522c-1.00126,0 -1.35178,-1.49741 -1.97893,-1.97148c-1.54931,-1.17115 -5.58609,1.22321 -7.29476,1.98919c-1.02562,0.45978 -3.04836,-0.34263 -3.28607,0.75591c-0.48712,2.25114 1.85437,7.71248 1.59954,8.64685c0.03102,0.12016 0.04752,0.24616 0.04752,0.37602c0,0.82843 -0.67157,1.5 -1.5,1.5c-0.71032,0 -1.30533,-0.49374 -1.46054,-1.15674c-0.92928,-1.04799 -1.46402,-3.29558 -1.65949,-5.54859c-0.27461,0.34985 -0.70137,0.57461 -1.18062,0.57461c-0.23105,0 -0.4499,-0.05224 -0.64538,-0.14555c-1.47609,0.29614 -3.14353,-0.18499 -3.43124,-1.79514c-0.25996,-1.45489 1.01864,-2.53451 1.76746,-3.71336c0.04082,-0.06426 0.08314,-0.12749 0.12681,-0.18936c-0.65165,-0.59294 -0.66551,-1.79883 -0.34557,-2.56669c-0.12673,-0.10799 -0.23525,-0.23669 -0.32035,-0.38088c-2.1349,-1.21994 0.541,-6.97613 2.68324,-4.9104z" fill="#a3a3a3" stroke-width="0.5"/><path d="M327.76168,166.47606c0.18612,1.25732 5.39482,1.5326 4.05079,4.22066c-1.16848,2.33696 -3.78999,-0.76824 -4.80555,-1.29825c-2.42141,-1.26371 -1.08242,-2.12129 -2.4223,-3.96098c-1.16717,-1.60255 -2.09584,-0.39401 -2.94188,-1.06587c-0.72081,-0.10932 -1.27321,-0.73163 -1.27321,-1.48297c0,-0.49772 0.24241,-0.93882 0.61561,-1.21168c2.11623,-2.75099 6.39207,2.20181 6.77654,4.79909z" fill="#a3a3a3" stroke-width="0.5"/><path d="M348.77711,156.17718c1.93431,-3.22385 4.67138,-1.79578 4.40616,1.02702c1.90184,1.99616 0.6508,8.0241 -0.41456,11.71017c0.18628,1.37437 0.18147,2.73455 -0.84154,2.57261c-0.03824,0.09823 -0.07188,0.18023 -0.10015,0.24453c-0.738,1.67858 -0.40051,3.55874 -0.09914,5.44341c0.34226,-0.02519 0.71053,0.12863 1.10119,0.51928c1.45543,1.45543 -1.07151,4.91913 -0.70316,6.44281c0.67104,2.77576 0.3008,5.93549 -0.00114,8.66244c-0.45998,4.15421 1.17554,8.65643 1.16631,12.73607c-0.00397,1.7538 0.81167,5.49256 -0.37383,7.52495c0.30801,0.4184 0.40418,0.88442 0.12397,1.37479c-0.84916,1.48603 -3.42767,0.59822 -4.88041,0.99005c-3.46138,0.9336 -7.41447,0.97873 -10.75256,-0.69536c-0.09089,-0.04558 -7.49043,1.09418 -8.75012,0.98283c-6.86386,-0.60671 -14.1473,-0.57926 -21.1546,-0.08233c-2.25366,0.15982 -4.78349,-1.49159 -6.91829,-1.18954c-0.76564,0.10833 -0.51628,1.66528 -1.2277,1.96828c-0.9184,0.39117 -2.02741,0.06977 -2.79701,-0.48606c-0.42837,-0.30938 -0.62176,-1.51027 -1.04413,-1.19276c-1.62509,1.22161 -4.54859,4.58567 -7.31201,2.07347c-2.01392,-1.83083 0.27152,-10.87342 0.0527,-13.34109c-0.18122,-2.04373 -0.6578,-4.42466 -0.1705,-6.37385c0.12524,-0.50096 0.33498,-0.81307 0.59173,-0.98126c-0.80531,-2.21622 -0.92656,-5.98335 -1.03172,-6.76161c-0.04308,-0.3188 -0.91002,-0.7685 -0.86808,-1.30165c0.05033,-0.63977 1.37048,-1.97663 0.76385,-1.76724c-4.99911,1.7255 -3.35676,-5.10947 0.75539,-6.17535c-0.27707,-2.31752 -0.01674,-6.21378 -0.04584,-6.87417c-0.01922,-0.43601 -1.57511,-0.90956 -1.46405,-2.19518c0.08754,-1.0133 1.91396,-1.71471 1.51326,-2.64953c-0.51044,-1.19084 -1.98012,-1.37238 -1.98012,-2.66531c0,-2.62602 1.31492,-4.97354 0.82478,-6.93409c-0.14298,-0.57194 1.24028,-6.51463 3.14327,-5.44709c0.00395,-0.00003 0.00791,-0.00005 0.01187,-0.00005c0.82843,0 1.5,0.67157 1.5,1.5c0.07559,0.12714 0.01764,0.32861 -0.11363,0.57372c-0.06194,0.1495 -0.14735,0.28681 -0.25165,0.40734c-0.52893,0.78189 -1.38473,1.77876 -1.28178,2.33573c0.56618,3.0631 0.51106,3.75136 -0.24763,6.9574c-0.23274,0.98352 1.87509,2.61381 1.98619,3.8173c0.30141,3.26496 -1.23614,4.73021 -0.4108,8.69501c0.13903,0.66788 0.06735,2.26804 -0.44239,3.34085c0.07798,0.18151 0.12116,0.3815 0.12116,0.59158c0,0.11004 -0.01185,0.21732 -0.03434,0.32062c0.09479,0.30036 0.2136,0.6249 0.4097,0.96807c0.38747,0.67807 -1.23279,2.89965 -1.01889,3.94068c0.30282,1.4738 1.67312,1.92362 1.82866,3.53139c0.13396,1.38474 -0.5978,2.08431 -0.63351,3.3006c-0.03762,1.28146 0.69442,3.13835 -0.34326,3.84321c0.02777,0.04765 0.0536,0.09528 0.07731,0.1427l0.17185,0.69781c0,0.01054 -0.00011,0.02105 -0.00032,0.03153c-0.01378,1.74857 0.55792,12.45096 -0.4817,13.20048c-0.35304,0.25453 0.7762,0.39955 1.18607,0.54594c0.8961,0.32006 2.0301,-0.77767 2.92499,-1.1354c1.23138,-0.49223 6.66185,0.27138 7.68141,0.49795c4.15601,0.92356 6.70071,-0.09862 10.48225,0.58474c0.8618,0.15573 5.29148,1.20831 6.04411,0.67294c0.76859,-0.54673 0.67759,-0.85403 1.86579,-0.80016c2.52627,0.11454 5.27832,0.77151 7.58634,0.82353c2.43359,0.05485 4.81295,-0.52607 7.13317,-1.10613c1.89075,-0.47269 3.56142,1.01393 5.41164,1.12912c1.6338,0.10172 5.64027,-1.33553 7.52017,-1.56937c0.14416,-0.01793 0.40033,0.01534 0.71788,0.09266c0.20338,-9.14718 0.00102,-18.22068 -0.67968,-27.33384c-0.04389,-0.58761 0.05481,-1.55697 0.27545,-2.58069c-0.28266,-0.2728 -0.45846,-0.65559 -0.45846,-1.07944c0,-0.21075 0.04346,-0.41134 0.12191,-0.59331c0.4437,-2.78803 -0.78826,-5.80123 -0.13278,-8.42314c0.28034,-1.12137 0.61599,-2.19953 0.94751,-3.27106c-0.70465,-1.77152 -0.72972,-3.78314 -0.62225,-5.7561c-0.82697,1.38716 -1.80002,2.20797 -2.3368,-0.53918c-0.42024,-2.1507 1.54755,-3.58307 2.00269,-5.40362z" fill="#8b8b8b" stroke-width="0.5"/><path d="M310.20116,201.79001c0.01499,0.3767 -2.23005,6.05964 -2.60243,6.68028c-1.2271,2.04517 -6.07377,1.63672 -7.79046,2.45758c-0.40606,0.19416 -1.19322,2.59665 -2.73066,1.74251c-1.39078,-0.77266 -1.16004,-3.05851 0.14727,-3.81622c1.8632,-1.0799 6.54595,-1.03318 7.79114,-2.28776c0.65444,-0.65937 1.30822,-4.03131 1.99684,-5.06424c0.04563,-0.75129 0.64425,-1.35326 1.3941,-1.40417c0.8447,-0.56313 1.77595,1.23338 1.7942,1.69202z" fill="#616161" stroke-width="0.5"/><path d="M295.78344,201.00019c1.5055,0 4.84635,0.47171 2.49621,2.82185c-0.66961,0.66961 -2.23195,0.01371 -3.15026,0.5959c-0.81773,0.51842 -1.41451,1.96755 -1.88871,2.23852c-0.26093,0.44211 -0.74219,0.7387 -1.29272,0.7387c-0.82843,0 -1.5,-0.67157 -1.5,-1.5c0,-0.22829 0.051,-0.44466 0.14222,-0.63836c0.12361,-2.0279 3.06298,-4.25661 5.19326,-4.25661z" fill="#616161" stroke-width="0.5"/><path d="M315.73735,201.65748c1.44605,-1.04437 6.41468,-2.97841 5.19387,0.68404c-0.17243,0.5173 -2.8587,1.28402 -2.8689,1.55416c-0.06353,1.683 1.25502,4.21275 -0.20728,5.04835c-0.26093,0.44211 -0.74219,0.7387 -1.29272,0.7387c-0.54902,0 -1.02914,-0.29495 -1.29056,-0.73504c-0.10315,-0.13122 -0.16843,-0.30494 -0.19606,-0.56375c-0.00882,-0.06581 -0.01338,-0.13298 -0.01338,-0.20121c-0.06953,-2.18559 -1.09767,-5.24496 0.67503,-6.52525z" fill="#616161" stroke-width="0.5"/><path d="M323.9548,210.72735c0.63131,-0.75645 1.50136,-0.89595 2.14,-1.75395c1.39642,-1.8761 -0.58134,-4.81231 1.05827,-6.72518c0.56775,-0.66238 4.51461,-2.80042 5.53182,-1.78321c2.32573,2.32573 -1.75225,3.0727 -3.21985,3.84161c-1.96828,1.03123 0.4739,4.96161 -1.04465,6.58383c-1.20965,1.29224 -3.4375,4.36363 -5.11065,4.91374c-1.24241,0.40849 -2.69842,-2.32405 -1.54338,-2.98407c0.26093,-0.44211 0.74219,-0.7387 1.29272,-0.7387c0.00121,0 0.00241,0 0.00362,0c0.17891,-0.00663 0.60879,-1.01459 0.89211,-1.35408z" fill="#616161" stroke-width="0.5"/><path d="M337.30183,207.73086c0.90783,-0.33719 4.31696,-0.47166 3.64565,1.54226c-0.7019,2.10569 -1.90786,0.46984 -2.3049,1.3206c-0.48398,1.03703 -0.38586,1.8434 -1.65706,2.37863c-0.58609,0.24678 -3.00748,0.15462 -2.66,-1.11949c-0.03102,-0.12016 -0.04752,-0.24616 -0.04752,-0.37602c0,-0.62811 0.38606,-1.16605 0.93384,-1.38948c0.57242,-0.97022 1.19576,-2.02437 2.08998,-2.35651z" fill="#616161" stroke-width="0.5"/><path d="M345.64238,201.28854c0.72286,-0.72286 3.80582,0.29057 3.79752,1.21993c0.10208,0.18187 0.16735,0.38718 0.18571,0.60582c1.98636,1.95154 1.88776,9.56199 0.92865,11.41854c-0.20604,0.39883 -0.84233,0.83614 -1.46875,1.00522c-0.79975,0.21586 -1.58342,-0.00546 -1.43523,-1.3022c-0.00845,-0.06444 -0.01281,-0.13017 -0.01281,-0.19691c0,-0.21384 0.04475,-0.41724 0.12539,-0.60132c0.37821,-1.69018 0.82405,-2.77552 0.78964,-4.83184c-0.01843,-1.10169 -1.44943,-2.19616 -1.46405,-3.35114c-0.00345,-0.27277 -0.01667,-0.58385 -0.00306,-0.89366c-1.69241,-0.0655 -2.83026,-1.6852 -1.44302,-3.07244z" fill="#616161" stroke-width="0.5"/><path d="M332.38194,196.02784c1.21111,-2.27359 6.33099,2.62216 5.85509,4.36712c0.03102,0.12016 0.04752,0.24616 0.04752,0.37602c0,0.82843 -0.67157,1.5 -1.5,1.5c-0.60502,0 -1.12639,-0.3582 -1.36358,-0.87411c-2.09682,-0.82015 -3.81349,-3.91516 -3.03903,-5.36903z" fill="#616161" stroke-width="0.5"/><path d="M349.75881,190.81873c-0.22723,-2.00847 -4.1314,-6.44331 -1.84233,-8.73238c1,-1 1.625,-1 2.625,0c0.82107,0.82107 0.04191,2.85191 0.25854,3.97858c0.46818,2.43505 3.79749,6.97268 2.39728,9.7731c0.00151,0.02757 0.00227,0.05533 0.00227,0.08328c0,0.82843 -0.67157,1.5 -1.5,1.5c-0.66609,0 -1.23078,-0.43416 -1.42651,-1.03493c-0.58944,-1.38425 -0.36806,-4.27543 -0.51425,-5.56764z" fill="#616161" stroke-width="0.5"/><path d="M347.3448,177.74954c0.78339,-0.78339 3.83145,0.45079 3.28356,1.71779c0.00603,0.05464 0.00913,0.11016 0.00913,0.1664c0,0.82843 -0.67157,1.5 -1.5,1.5c-0.41042,0 -0.78234,-0.16483 -1.05318,-0.43191c-1.09715,-0.43252 -1.35303,-2.33876 -0.73951,-2.95228z" fill="#616161" stroke-width="0.5"/><path d="M294.33447,196.67422c-0.22945,1.03572 0.28946,2.66865 -1.56296,2.66865c-3.50699,0 0.31832,-6.11637 -1.44807,-7.18807c-0.35789,-0.21714 -4.8327,-2.91572 -2.86426,-4.04054c0.26093,-0.44211 0.74219,-0.7387 1.29272,-0.7387c0.58727,0 1.09572,0.33749 1.34197,0.82911c2.97607,2.01187 4.17295,4.26109 3.24059,8.46955z" fill="#616161" stroke-width="0.5"/><path d="M288.70941,212.75789c0.19293,-0.51529 0.67931,-1.05541 1.27415,-1.48311c1.47117,-1.05779 3.60582,-1.42797 3.60582,0.96583c0,0.91038 -3.18573,2.43865 -3.69331,1.98451z" fill="#616161" stroke-width="0.5"/><path d="M292.56674,181.78438c-0.05304,0.35903 -0.35379,0.93268 -0.76587,1.5222c-0.00617,0.74313 -0.55272,1.35742 -1.26594,1.46914c-1.09754,1.00724 -2.1482,1.24725 -1.72864,-1.35406c-0.00355,-0.04213 -0.00537,-0.08475 -0.00537,-0.12779c0,-0.40548 0.16089,-0.77338 0.4223,-1.04335c1.1341,-2.0527 3.92119,-4.37665 3.34351,-0.46614z" fill="#616161" stroke-width="0.5"/><path d="M307.23445,200.98045c-0.61893,0.6099 -0.45839,4.06285 -2.62165,2.31524c-2.87165,-2.31989 2.93491,-7.25282 4.08849,-6.67603c0.02757,-0.00151 0.05533,-0.00227 0.08328,-0.00227c0.82843,0 1.5,0.67157 1.5,1.5c0,0.67189 -0.44175,1.2406 -1.05066,1.43154c-0.55284,0.34825 -1.30174,0.74398 -1.99946,1.43153z" fill="#a3a3a3" stroke-width="0.5"/><path d="M324.26361,185.37518c-1.39892,0.40269 -2.81895,-0.40175 -2.18017,-1.92861c0.32967,-0.788 4.24841,-4.98825 5.12255,-3.4585c0.44211,0.26093 0.7387,0.74219 0.7387,1.29272c0,0.60636 -0.35978,1.12868 -0.87751,1.36514c-0.81179,1.15308 -1.92598,2.47663 -2.80357,2.72925z" fill="#a3a3a3" stroke-width="0.5"/><path d="M324.26544,202.74302c-2.38769,0.7959 -2.27221,-2.16379 -1.4435,-3.21571c0.73114,-0.92807 1.6761,-0.98645 2.37035,-2.04686c0.0636,-0.09715 1.61728,-3.09002 2.09892,-3.95323c0.03025,-0.06217 0.06468,-0.12194 0.10291,-0.17894c0.26919,-0.40136 0.72707,-0.66553 1.24665,-0.66553c0.82843,0 1.5,0.67157 1.5,1.5c0,0.36547 -0.13071,0.70042 -0.34792,0.96064c-0.14586,2.89443 -3.3453,6.87227 -5.52741,7.59964z" fill="#a3a3a3" stroke-width="0.5"/><path d="M315.44093,209.15708c-0.35503,0.62129 -0.96521,1.10603 -1.72255,1.4836c-2.32797,1.16059 -6.04646,1.30858 -8.0191,1.29744c-1.13445,-0.00641 -4.03256,0.34144 -3.6693,-1.8381c0.34032,-2.04191 7.99863,-1.58219 9.5796,-2.02147c0.51439,-0.14293 2.66276,-0.96653 3.09266,-0.21419z" fill="#a3a3a3" stroke-width="0.5"/><path d="M292.3752,207.57312c0.69023,-0.29848 4.18879,1.33211 4.12592,2.24367c0.09577,0.19754 0.14947,0.41926 0.14947,0.65353c0,0.82843 -0.67157,1.5 -1.5,1.5c-0.37099,0 -0.71052,-0.13468 -0.97237,-0.35782c-2.07133,-0.20022 -3.11258,-3.47308 -1.80302,-4.03938z" fill="#a3a3a3" stroke-width="0.5"/><path d="M342.87931,208.1426c0.65439,-1.55288 -4.96188,-1.99267 -1.19686,-4.25168c2.53803,-1.52282 4.51388,3.87301 4.12558,5.42621c-0.29017,1.16068 -5.52364,4.22972 -6.49067,2.53741c-0.44211,-0.26093 -0.7387,-0.74219 -0.7387,-1.29272c0,-0.82843 0.67157,-1.5 1.5,-1.5c0.26629,0 0.51637,0.06939 0.73315,0.19107c0.88961,-0.19376 1.73851,-0.32958 2.0675,-1.11028z" fill="#a3a3a3" stroke-width="0.5"/><path d="M330.47965,208.04796c0.24494,-3.18426 9.69603,-8.17188 8.02019,-3.14435c-0.39287,1.17862 -3.78497,2.10885 -4.68343,3.26401c0.04929,0.14859 0.07597,0.30749 0.07597,0.47262c0,0.31879 -0.09945,0.61436 -0.26901,0.85736c-0.8626,1.51362 -3.30686,0.6712 -3.14372,-1.44965z" fill="#a3a3a3" stroke-width="0.5"/><path d="M287.64733,174.83962c0.64401,0.36801 1.04838,1.23063 1.25378,2.32372c-0.26819,0.40739 -0.72958,0.67628 -1.25378,0.67628c-0.82842,0 -1.5,-0.67157 -1.5,-1.5c0,-0.82843 0.67158,-1.5 1.5,-1.5c0.82842,0 1.5,0.67157 1.5,1.5c0,0.30423 -0.09057,0.5873 -0.24622,0.82372c0.65616,3.49183 -0.71803,9.33542 -2.79684,8.91966c-1.38675,-0.27735 -1.73343,-0.79738 -1.45608,-2.18413c0.19792,-0.98959 1.43172,-2.51491 1.48436,-3.73949c0.03395,-0.78956 -0.48083,-4.17942 0.22205,-4.58106z" fill="#a3a3a3" stroke-width="0.5"/><path d="M290.33238,197.09287c1.09675,2.1935 -1.05395,9.45676 -2.84839,9.81564c-4.74984,0.94997 0.027,-5.46842 0.03589,-5.55479c0.10853,-1.05412 0.46276,-2.23124 -0.01115,-3.17906c-0.10974,-0.20845 -0.17185,-0.44588 -0.17185,-0.69781c0,-0.02079 0.00042,-0.04148 0.00126,-0.06207c0.04114,-1.47693 0.85757,-1.70363 1.64121,-1.43126c0.56986,0.05369 1.04697,0.42618 1.25108,0.93724c0.03919,0.05741 0.0734,0.11499 0.10196,0.1721z" fill="#a3a3a3" stroke-width="0.5"/><path d="M352.79761,155.25793c1.54215,0 2.22147,4.68483 1.01821,5.37241c-0.01874,0.03176 -0.03862,0.06276 -0.05958,0.09296c1.0497,0.23861 2.12563,1.69434 1.92336,2.87238c-0.27497,1.60142 -2.25206,4.37278 -3.45127,5.26955c-0.07169,0.05361 -0.15739,0.09977 -0.2531,0.1378c-0.19454,0.09221 -0.41208,0.14379 -0.64167,0.14379c-0.10402,0 -0.20558,-0.01059 -0.30363,-0.03075c-0.69281,-0.0736 -1.34638,-0.48252 -1.19256,-1.36148c-0.00252,-0.0356 -0.00381,-0.07153 -0.00381,-0.10777c0,-0.4457 0.19439,-0.84599 0.50299,-1.12073c0.74516,-1.10727 1.98503,-1.92454 2.22577,-3.13537c0.10195,-0.51273 -0.52953,-1.02949 -0.36422,-1.52543c0.06419,-0.19255 0.13845,-0.35843 0.22093,-0.4998c-0.77988,-0.05344 -1.39594,-0.703 -1.39594,-1.49645c0,-0.23447 0.05379,-0.45637 0.14972,-0.65404c-0.49336,-1.78633 -0.21327,-3.95707 1.62479,-3.95707z" fill="#a3a3a3" stroke-width="0.5"/><path d="M354.20611,182.10432c0,1.3428 -4.80064,2.54495 -5.46391,1.38422c-0.44211,-0.26092 -0.7387,-0.74218 -0.7387,-1.29272c0,-0.82843 0.67158,-1.5 1.5,-1.5c0.22008,0 0.42908,0.04739 0.61737,0.13253c0.43183,-0.14693 0.88906,-0.25747 1.33525,-0.31558c-1.49045,-0.06116 -3.214,-1.40922 -1.98407,-3.4591c0.16512,-0.27519 0.8893,-1.06473 1.21099,-0.97699c0.12016,-0.03102 0.24616,-0.04752 0.37602,-0.04752c0.82842,0 1.5,0.67157 1.5,1.5c0,0.12374 -0.01498,0.24397 -0.04323,0.35899c0.17491,0.42478 0.69588,0.73735 0.68375,1.19656c-0.02128,0.80596 -0.52332,1.24658 -1.17122,1.38334c1.19232,-0.0264 2.17776,0.40465 2.17776,1.63627z" fill="#a3a3a3" stroke-width="0.5"/><path d="M352.79761,208.6762c-1.56578,0 -1.82592,-5.38429 -1.76892,-7.9222c-0.06275,-0.16536 -0.0971,-0.34468 -0.0971,-0.53204c0,-0.26606 0.06928,-0.51596 0.19077,-0.73261c0.25679,-0.45792 0.74687,-0.76739 1.30923,-0.76739c0.82842,0 1.5,0.67157 1.5,1.5c0,0.20867 -0.04261,0.40738 -0.1196,0.58792c1.11703,2.96862 1.3358,7.86632 -1.01439,7.86632z" fill="#a3a3a3" stroke-width="0.5"/><path d="M287.73883,194.58471c-2.6434,-0.66085 -1.89686,-1.91392 -0.24649,-2.63222c0.27508,-0.33621 0.69324,-0.55079 1.16153,-0.55079c0.17077,0 0.33487,0.02854 0.4878,0.0811c0.68682,-0.10462 1.39354,-0.10325 2.01452,0.052c1.01778,0.25445 3.10149,2.84671 2.68246,3.68478c-1.03827,2.07655 -3.12791,-0.08696 -4.08674,-0.63487z" fill="#a3a3a3" stroke-width="0.5"/><path d="M349.44937,196.34144c-0.64626,-0.64626 1.10546,-5.33914 2.63133,-5.30668c0.21299,-0.11611 0.45725,-0.18209 0.71691,-0.18209c0.82842,0 1.5,0.67157 1.5,1.5c0,0.53956 -0.28488,1.01258 -0.71243,1.27686c-0.56504,2.04093 -3.18811,3.6596 -4.13581,2.71191z" fill="#a3a3a3" stroke-width="0.5"/><path d="M293.44798,159.32002c0,0.32186 -5.83542,3.59104 -6.63205,3.82115c-0.11134,0.07228 -0.23287,0.13019 -0.36196,0.17111c-0.15633,0.08063 -0.31075,0.1413 -0.45369,0.06984c-0.63912,0 -1.18488,-0.39971 -1.40094,-0.96279c-0.09601,-0.1516 -0.13868,-0.31715 -0.09856,-0.49771c-0.00034,-0.01313 -0.00051,-0.0263 -0.00051,-0.0395c0,-0.61748 0.37309,-1.1478 0.90615,-1.37786c2.31022,-2.2421 8.04156,-4.05421 8.04156,-1.18424z" fill="#a3a3a3" stroke-width="0.5"/><path d="M290.97739,163.98669c-0.37674,0.65929 -0.89365,1.14938 -1.4804,1.49988c-3.48928,2.08432 -9.44808,-0.76795 -3.08196,-2.32717c0.30327,-0.07428 3.36168,-1.2739 3.82367,-0.46543z" fill="#616161" stroke-width="0.5"/><path d="M355.94467,163.71218c0,0.57747 -1.01731,1.51413 -1.86669,1.67084c-0.02771,0.02242 -0.05631,0.04335 -0.08572,0.06289c-0.25405,0.19761 -0.57335,0.31528 -0.92014,0.31528c-0.08157,0 -0.16161,-0.00651 -0.23964,-0.01904c-0.49055,0.03888 -0.96231,0.05636 -1.22457,0.31402c-0.64994,0.63853 -0.17683,3.35124 -1.79439,3.67475c-1.76828,0.35366 -2.31479,-5.1153 -2.01768,-5.50002c1.09105,-1.4128 3.21083,-0.86236 4.76872,-1.38165c0.04379,-0.01574 0.08851,-0.02951 0.13408,-0.04118c0.27384,-0.362 0.70812,-0.59589 1.19701,-0.59589c0.09111,0 0.18031,0.00813 0.26694,0.02369c0.89777,-0.38763 1.78207,-0.24185 1.78207,1.47631z" fill="#616161" stroke-width="0.5"/><path d="M348.904,172.11365c0.40063,-1.20189 4.44306,-1.2826 4.3291,0.36983c0.09576,0.19754 0.14947,0.41926 0.14947,0.65353c0,0.82843 -0.67158,1.5 -1.5,1.5c-0.42716,0 -0.81261,-0.17855 -1.0858,-0.46509c-1.33399,0.2136 -2.53946,-0.11821 -1.89277,-2.05827z" fill="#616161" stroke-width="0.5"/><path d="M291.38525,171.90558c1.91562,2.87343 -2.7653,3.04056 -4.37624,2.41213c-1.35771,-0.52964 -1.51876,-3.70954 0.07929,-3.27371c0.12016,-0.03102 0.24616,-0.04752 0.37601,-0.04752c0.21188,0 0.4135,0.04393 0.59625,0.12318c1.0501,0.12821 2.90643,0.15852 3.32469,0.78591z" fill="#616161" stroke-width="0.5"/><path d="M292.83209,200.83218c1.2762,2.5524 -5.0652,3.39226 -5.95562,2.59556c-0.67802,-0.14408 -1.18667,-0.74626 -1.18667,-1.46723c0,-0.82843 0.67158,-1.5 1.5,-1.5c0.09355,0 0.1851,0.00857 0.27391,0.02495c1.91073,-0.82674 4.70697,-0.9761 5.36838,0.34671z" fill="#616161" stroke-width="0.5"/><path d="M288.45918,183.81361c0.26092,-0.44211 0.74219,-0.7387 1.29272,-0.7387c0.82842,0 1.5,0.67157 1.5,1.5c0,0.37266 -0.1359,0.71358 -0.36084,0.97591c-0.09645,0.55214 -0.35357,1.09364 -0.721,1.53762c0.32587,0.27516 0.53283,0.68671 0.53283,1.1466c0,0.82843 -0.67158,1.5 -1.5,1.5c-0.11609,0 -0.22911,-0.01319 -0.33763,-0.03815c-1.25072,0.53725 -2.71122,0.54023 -3.18996,-0.89601c-0.22112,-0.66338 0.09655,-1.22666 0.64621,-1.63862c-0.33416,-1.10939 1.15587,-2.78762 2.13768,-3.34866z" fill="#616161" stroke-width="0.5"/><path d="M287.92184,216.54548c-4.47117,0.75119 0.6749,-5.11115 1.45237,-5.55542c0.26092,-0.44211 0.74219,-0.7387 1.29273,-0.7387c0.82842,0 1.5,0.67157 1.5,1.5c0,0.27457 -0.07378,0.53192 -0.20258,0.75329c-0.18532,1.80238 -2.34185,3.7551 -4.04251,4.04083z" fill="#616161" stroke-width="0.5"/><path d="M321.88615,163.61155c1.02553,2.1225 1.46817,4.44152 2.45727,6.54755c0.41204,0.87734 2.66465,7.11736 0.03453,6.99156c-3.42536,-0.16383 -4.74916,-7.88019 -6.10489,-10.19404c-0.59435,-1.0144 -12.47012,-6.00387 -8.20565,-7.68279c0.00576,-0.63162 0.41325,-1.21551 1.04818,-1.41624c0.06051,-0.01913 0.12134,-0.03423 0.18218,-0.04544c3.18332,-0.68201 9.5015,3.54993 10.58838,5.79942z" fill="#616161" stroke-width="0.5"/><path d="M328.31939,164.72125c0.52849,-5.70847 6.76371,-6.9945 10.59942,-9.36814c1.19191,-0.73758 4.0752,-3.43511 5.4891,-1.57223c3.35929,4.426 -5.4654,5.51157 -7.31926,6.48253c-1.8654,0.977 -1.06446,4.62603 -3.07475,5.26158c-1.25902,0.39804 -3.12697,-2.01246 -2.55648,-0.20798c0.10503,0.13585 0.18833,0.29218 0.24311,0.46544c0.24973,0.7899 -0.18816,1.63267 -0.97806,1.8824c-0.7899,0.24973 -1.63266,-0.18817 -1.88239,-0.97807c-0.00223,-0.00706 -0.00441,-0.01412 -0.00653,-0.02119c-0.37074,-0.41463 -0.59706,-1.04908 -0.51418,-1.94432z" fill="#616161" stroke-width="0.5"/><path d="M331.16255,168.45694c1.34932,0.14028 1.56205,1.08223 1.93575,2.35373c0.25077,0.85321 0.13144,1.7351 0.0644,2.60424c-0.13183,1.70918 5.27737,6.66467 4.37305,9.18288c-0.9085,2.52988 -4.25471,-0.82087 -4.3912,-2.28981c-0.12568,-1.35255 -0.80908,-1.95808 -1.26592,-3.4031c-0.19321,-0.00558 -0.38145,-0.04869 -0.55504,-0.1243c-0.17662,0.0193 -0.3065,-0.12768 -0.43096,-0.28406c-0.07578,-0.07135 -0.14457,-0.151 -0.20479,-0.23817c-1.45099,-1.33444 -2.71429,-8.13296 0.47469,-7.80142z" fill="#616161" stroke-width="0.5"/><path d="M324.938,165.91312c0.556,1.75866 -1.41893,3.74919 -2.92397,1.6761c-1.21364,-1.67171 -0.78215,-4.24017 -2.63277,-6.02306c-0.36431,-0.35097 -4.46373,-1.83725 -4.6386,-2.43427c-0.17491,-0.16808 -0.31145,-0.38109 -0.38972,-0.62867c-0.24973,-0.7899 0.18817,-1.63267 0.97806,-1.88239c0.37563,-0.11875 0.76321,-0.08201 1.0933,0.07414c3.29567,-0.53502 7.70712,6.6669 8.5137,9.21814z" fill="#a3a3a3" stroke-width="0.5"/><path d="M331.99508,160.61617c1.46427,2.68303 -4.04026,3.18359 -5.96636,1.40556c-0.5002,-0.11552 -0.92807,-0.48499 -1.09402,-1.00991c-0.24205,-0.76561 0.1619,-1.58091 0.90623,-1.8577c1.68785,-1.80615 4.93376,-0.77409 6.15414,1.46206z" fill="#a3a3a3" stroke-width="0.5"/><path d="M340.24327,154.25267c0.30428,0.96246 -0.23704,1.60586 -0.97806,1.88239c-0.84803,0.31645 -2.93461,0.55465 -3.71412,1.59825c-0.28063,0.3757 -0.40566,1.10427 -0.61825,1.74833c-0.04369,0.32153 -0.19115,0.62115 -0.41795,0.85179c-0.15855,0.19641 -0.35731,0.33445 -0.61672,0.37743c-0.35626,0.11263 -0.72328,0.08539 -1.04179,-0.05094c-0.2704,-0.08179 -0.49753,-0.22874 -0.59996,-0.46488c-0.10387,-0.13511 -0.18631,-0.29033 -0.24065,-0.46224c-0.04935,-0.15609 -0.07184,-0.31425 -0.07008,-0.46949c-0.27781,-3.99022 7.27563,-8.24306 8.29756,-5.01065z" fill="#a3a3a3" stroke-width="0.5"/><path d="M336.9125,177.10775c0.41159,1.27207 2.36335,0.43019 2.04447,2.43886c-0.1855,1.16847 -1.43325,1.50134 -2.32287,1.15001c-3.21506,-1.26966 -3.23854,-5.20435 -4.2943,-8.10047c-0.09307,-0.25533 -1.66834,-1.11609 -1.95718,-1.59871c-0.27763,-0.46388 -0.71409,-3.08457 0.23603,-3.31441c0.15948,-0.15086 0.3547,-0.2689 0.57808,-0.33952c0.7899,-0.24973 1.63266,0.18816 1.88239,0.97806c0.05226,0.1653 0.07441,0.33293 0.06952,0.49695c1.91325,2.02422 2.71666,5.05271 3.76387,8.28921z" fill="#a3a3a3" stroke-width="0.5"/><path d="M313.58453,175.04373c2.05061,-1.16262 4.33558,-1.75651 6.37216,-2.8817c0.84841,-0.46874 6.92713,-3.12602 6.97422,-0.49331c0.06133,3.42872 -7.55151,5.25609 -9.7714,6.76076c-0.97321,0.65965 -5.1725,12.83728 -7.12768,8.69219c-0.63063,0.03571 -1.24002,-0.33259 -1.48199,-0.95297c-0.02306,-0.05912 -0.04212,-0.11883 -0.0573,-0.1788c-0.88946,-3.1317 2.91869,-9.714 5.09199,-10.94618z" fill="#616161" stroke-width="0.5"/><path d="M314.26962,168.55153c-5.73086,-0.1527 -7.42332,-6.29008 -10.04359,-9.96173c-0.81422,-1.14094 -3.69516,-3.84096 -1.9291,-5.37409c4.19598,-3.64253 5.85838,5.09189 6.94892,6.87803c1.09732,1.79726 4.68592,0.75856 5.45204,2.72279c0.47981,1.23018 -1.80289,3.2523 -0.03974,2.56462c0.12867,-0.11372 0.27918,-0.2071 0.44847,-0.27313c0.7718,-0.30103 1.64149,0.0806 1.94252,0.8524c0.30103,0.7718 -0.08061,1.6415 -0.85241,1.94253c-0.00689,0.00269 -0.0138,0.00532 -0.02071,0.0079c-0.38941,0.39715 -1.00764,0.66463 -1.90639,0.64068z" fill="#616161" stroke-width="0.5"/><path d="M317.81066,165.46933c0.05142,-1.35562 0.97738,-1.62971 2.22161,-2.08606c0.8349,-0.30623 1.72273,-0.24503 2.5944,-0.23518c1.71415,0.01937 6.30394,-5.70339 8.87608,-4.96631c2.58405,0.74051 -0.53986,4.29941 -1.99667,4.53202c-1.34139,0.21418 -1.90076,0.93584 -3.31268,1.48654c0.00711,0.19316 -0.02355,0.38383 -0.0876,0.562c0.03085,0.17497 -0.10729,0.31421 -0.25517,0.44867c-0.06622,0.0803 -0.14119,0.15417 -0.22422,0.21998c-1.23633,1.53545 -7.93728,3.24221 -7.81574,0.03835z" fill="#616161" stroke-width="0.5"/><path d="M315.68084,171.84741c1.71837,-0.67022 3.83423,1.16981 1.86439,2.80766c-1.58845,1.32074 -4.1797,1.05875 -5.83729,3.02239c-0.3263,0.38655 -1.54032,4.57469 -2.12458,4.78836c-0.15624,0.18557 -0.35983,0.33579 -0.60174,0.43015c-0.7718,0.30103 -1.64149,-0.08061 -1.94252,-0.85241c-0.14315,-0.36702 -0.13192,-0.75619 0.00223,-1.09581c-0.75017,-3.25345 6.14669,-8.12806 8.6395,-9.10034z" fill="#a3a3a3" stroke-width="0.5"/><path d="M309.93215,165.15319c2.58115,-1.63721 3.44189,3.82261 1.79411,5.86126c-0.08244,0.50671 -0.42303,0.95789 -0.93593,1.15794c-0.74808,0.29177 -1.58812,-0.05778 -1.91317,-0.78235c-1.91303,-1.56567 -1.09623,-4.87232 1.055,-6.23683z" fill="#a3a3a3" stroke-width="0.5"/><path d="M303.04103,157.34043c0.94041,-0.36679 1.61796,0.13114 1.94253,0.85241c0.37142,0.82543 0.74606,2.89188 1.83857,3.60122c0.39331,0.25537 1.12851,0.33232 1.78514,0.50218c0.3237,0.02249 0.63235,0.14997 0.87739,0.36114c0.20639,0.14532 0.35719,0.3346 0.4171,0.59063c0.13577,0.3481 0.13267,0.71611 0.01754,1.04288c-0.06387,0.27519 -0.19559,0.51147 -0.4245,0.62918c-0.12799,0.11252 -0.27748,0.20496 -0.44545,0.27047c-0.15252,0.05949 -0.30886,0.09232 -0.46388,0.10075c-3.96338,0.53909 -8.70279,-6.71895 -5.54442,-7.95082z" fill="#a3a3a3" stroke-width="0.5"/><path d="M326.06544,159.16401c1.24232,-0.49419 0.27416,-2.38649 2.29942,-2.20013c1.17813,0.10841 1.59217,1.33163 1.29999,2.24238c-1.05592,3.29146 -4.98058,3.57313 -7.80116,4.81669c-0.24867,0.10963 -1.00419,1.738 -1.46681,2.05788c-0.44466,0.30747 -3.03106,0.91499 -3.32276,-0.01799c-0.161,-0.14924 -0.2916,-0.33629 -0.37673,-0.55455c-0.30103,-0.7718 0.08061,-1.64149 0.85241,-1.94252c0.16152,-0.063 0.32733,-0.0961 0.49131,-0.10198c1.89429,-2.04198 4.86352,-3.04243 8.02432,-4.29979z" fill="#a3a3a3" stroke-width="0.5"/><path d="M330.43831,156.17704c-3.79138,4.30017 -9.58651,1.66422 -14.0842,1.32112c-1.39761,-0.10662 -5.31675,0.37327 -5.36106,-1.96499c-0.10527,-5.55546 7.66366,-1.2314 9.73357,-0.92319c2.0828,0.31014 3.5864,-3.10982 5.585,-2.43845c1.25171,0.42047 1.34006,3.46874 1.9427,1.67474c-0.00478,-0.17165 0.02006,-0.34703 0.07792,-0.51929c0.2638,-0.7853 1.11426,-1.20807 1.89957,-0.94427c0.7853,0.2638 1.20807,1.11426 0.94427,1.89957c-0.00236,0.00701 -0.00475,0.014 -0.00721,0.02096c0.05513,0.55346 -0.13596,1.19941 -0.73055,1.8738z" fill="#616161" stroke-width="0.5"/><path d="M332.44612,148.11047c1.36854,1.31966 1.96673,5.56927 0.61729,7.38073c0.11239,0.16943 0.21884,0.37547 0.31753,0.62217c0.37124,0.9281 -2.20007,2.24753 -1.30798,2.69848c0.0529,0.02674 0.11625,0.03856 0.18634,0.04149c0.11286,-0.02713 0.23068,-0.04149 0.35186,-0.04149c0.03324,0 0.06623,0.00108 0.09894,0.00321c0.39216,0.02553 0.74323,0.20178 0.99586,0.47138c-0.00114,-1.65183 0.18777,-3.10114 0.54181,-3.80923c0.73951,-1.47902 6.12533,-2.45848 7.85644,-2.92468c1.54318,-0.41559 5.24678,-1.82567 6.80623,-0.55866c1.29364,1.05105 4.04213,4.6522 0.41408,4.6522c-1.00126,0 -1.35178,-1.49741 -1.97893,-1.97148c-1.54931,-1.17115 -5.58609,1.22321 -7.29476,1.98919c-1.02562,0.45978 -3.04836,-0.34263 -3.28607,0.75591c-0.48712,2.25114 1.85437,7.71248 1.59954,8.64685c0.03102,0.12016 0.04752,0.24616 0.04752,0.37602c0,0.82843 -0.67157,1.5 -1.5,1.5c-0.71032,0 -1.30533,-0.49374 -1.46054,-1.15674c-0.92928,-1.04799 -1.46402,-3.29558 -1.65949,-5.54859c-0.27461,0.34985 -0.70137,0.57461 -1.18062,0.57461c-0.23105,0 -0.4499,-0.05224 -0.64538,-0.14555c-1.47609,0.29614 -3.14353,-0.18499 -3.43124,-1.79514c-0.25996,-1.45489 1.01864,-2.53451 1.76746,-3.71336c0.04082,-0.06426 0.08314,-0.12749 0.12681,-0.18936c-0.65165,-0.59294 -0.66551,-1.79883 -0.34557,-2.56669c-0.12673,-0.10799 -0.23525,-0.23669 -0.32035,-0.38088c-2.1349,-1.21994 0.541,-6.97613 2.68324,-4.9104z" fill="#a3a3a3" stroke-width="0.5"/><path d="M353.64696,157.08532c0,0.57747 -1.01731,1.51413 -1.86669,1.67084c-0.02771,0.02242 -0.05631,0.04335 -0.08572,0.06289c-0.25405,0.19761 -0.57335,0.31528 -0.92014,0.31528c-0.08157,0 -0.16161,-0.00651 -0.23964,-0.01904c-0.49055,0.03888 -0.96231,0.05636 -1.22457,0.31402c-0.64994,0.63853 -0.17683,3.35124 -1.79439,3.67475c-1.76828,0.35366 -2.31479,-5.1153 -2.01768,-5.50002c1.09105,-1.4128 3.21083,-0.86236 4.76872,-1.38165c0.04379,-0.01574 0.08851,-0.02951 0.13408,-0.04118c0.27384,-0.362 0.70812,-0.59589 1.19701,-0.59589c0.09111,0 0.18031,0.00813 0.26694,0.02369c0.89777,-0.38763 1.78207,-0.24185 1.78207,1.47631z" fill="#616161" stroke-width="0.5"/><path d="M312.63427,150.33477c0,0.57747 -1.01731,1.51413 -1.86669,1.67084c-0.02771,0.02242 -0.05631,0.04335 -0.08572,0.06289c-0.25405,0.19761 -0.57335,0.31528 -0.92014,0.31528c-0.08157,0 -0.16161,-0.00651 -0.23964,-0.01904c-0.49055,0.03888 -0.96231,0.05636 -1.22457,0.31402c-0.64994,0.63853 -0.17683,3.35124 -1.79439,3.67475c-1.76828,0.35366 -2.31479,-5.1153 -2.01768,-5.50002c1.09105,-1.4128 3.21083,-0.86236 4.76872,-1.38165c0.04379,-0.01574 0.08851,-0.02951 0.13408,-0.04118c0.27384,-0.362 0.70812,-0.59589 1.19701,-0.59589c0.09111,0 0.18031,0.00813 0.26694,0.02369c0.89777,-0.38763 1.78207,-0.24185 1.78207,1.47631z" fill="#616161" stroke-width="0.5"/><path d="M300.02462,149.88299c1.71837,-0.67022 3.83423,1.16981 1.86439,2.80766c-1.58845,1.32074 -4.1797,1.05874 -5.83729,3.02238c-0.3263,0.38655 -1.54032,4.5747 -2.12458,4.78836c-0.15624,0.18557 -0.35983,0.33579 -0.60174,0.43015c-0.7718,0.30103 -1.64149,-0.08061 -1.94252,-0.85241c-0.14315,-0.36702 -0.13192,-0.75618 0.00223,-1.0958c-0.75017,-3.25345 6.14669,-8.12807 8.6395,-9.10034z" fill="#a3a3a3" stroke-width="0.5"/><path d="M325.01746,213.9097c-0.35503,0.62129 -0.96521,1.10603 -1.72255,1.4836c-2.32797,1.16059 -6.04646,1.30858 -8.0191,1.29744c-1.13445,-0.00641 -4.03256,0.34144 -3.6693,-1.8381c0.34032,-2.04191 7.99863,-1.58219 9.5796,-2.02147c0.51439,-0.14293 2.66276,-0.96653 3.09266,-0.21419z" fill="#a3a3a3" stroke-width="0.5"/><path d="M313.21696,165.54653c-1.81385,-0.74736 -3.55955,-1.52453 -5.27518,-2.33962c1.0756,1.11803 2.04831,2.48083 2.79431,3.69577c1.15209,-0.29931 2.32576,-0.5644 3.51144,-0.83423c-0.40639,-0.22377 -0.75907,-0.41006 -1.03057,-0.52192zM301.21853,159.76284c-1.88545,-1.02913 -8.44335,-0.42688 -8.09121,-3.9483c0.25836,-2.58358 2.95439,-2.42555 4.67462,-2.05957c4.85697,1.03332 8.39552,3.42043 12.89146,5.32609c1.47202,0.62393 2.94954,1.23484 4.42742,1.84475c0.10029,0.04139 5.41563,1.92171 6.16832,2.96931c0.15916,-0.05983 0.32189,-0.10976 0.48859,-0.15149c0.27959,-0.06999 0.57031,-0.11691 0.8739,-0.14879c0.85649,-0.36408 1.70757,-0.7779 2.54965,-1.25602c0.24982,-0.14184 0.79512,-0.43713 1.55489,-0.82516c0.83753,-3.20121 3.33439,-7.02957 4.9395,-7.9396l-0.00001,0.00001c2.05061,-1.16262 4.33558,-1.75651 6.37216,-2.8817c0.84841,-0.46874 6.92713,-3.12602 6.97422,-0.49331c0.06133,3.42873 -7.55151,5.2561 -9.7714,6.76077c-0.15526,0.10523 -0.39261,0.5036 -0.68986,1.08206c4.42457,-1.64085 9.12767,-2.72674 11.0584,-0.97153c2.0047,1.82245 1.3673,4.70704 -1.36851,5.4849c-2.42931,0.69071 -4.91611,1.2099 -7.3933,1.75456c0.1601,0.10409 0.30841,0.21713 0.44333,0.33978c2.46695,2.24268 1.15006,4.79704 1.61192,7.83354c0.2461,1.61802 1.94965,3.79381 2.92236,4.99063c2.73354,3.36333 7.77498,1.90185 7.97794,7.17797c0.14223,3.69734 -7.14528,4.89164 -7.83067,8.64722c-0.53286,2.9198 5.63184,6.17116 2.43389,8.91227c-1.61265,1.38227 -3.95034,2.13939 -6.02291,2.56236c-2.77609,0.56656 -5.97973,1.20282 -9.19063,1.51918c-0.84656,1.26299 -1.72856,2.49469 -2.84762,3.6178c-3.46492,3.47745 -18.55505,2.68692 -22.69643,0.86816c-2.45632,-1.07873 -2.12028,-3.62672 0.14966,-4.849c2.30417,-1.2407 5.16739,0.88497 7.77797,1.06764c1.54174,0.10788 9.36415,-0.08371 10.33051,-0.22024c0.36467,-0.05152 0.66035,-0.19597 0.90839,-0.40034c-1.05097,-0.10143 -2.06871,-0.27297 -3.03566,-0.5309c-3.09109,-0.82455 -7.58778,-0.07563 -9.16111,-2.86119c-0.81398,-1.44114 -1.25425,-3.08054 -1.61104,-4.69675c-0.51545,-2.33488 1.1803,-4.24318 3.20319,-6.10702c-0.01004,-2.39686 0.09226,-4.71548 -0.06396,-6.02165c-0.42394,-3.54447 -1.25979,-6.63424 -2.35973,-10.01122c-0.41532,-1.27509 -0.87052,-2.30148 -1.35282,-3.16165c-0.54757,0.29265 -1.09429,0.58541 -1.64426,0.86578c-7.65177,3.90081 -7.87466,13.86737 -6.87143,21.21268c0.11476,0.84021 2.09598,5.68537 1.7499,6.37755c0.00252,0.04594 0.00379,0.09223 0.00379,0.1388c0,1.38071 -1.11929,2.5 -2.5,2.5c-0.58389,0.36617 -1.19877,-0.05543 -1.71692,-0.6828c-0.25212,-0.23829 -0.45467,-0.52848 -0.59056,-0.85347c-0.29269,-0.49231 -0.5106,-0.96576 -0.60883,-1.21583c-1.50523,-3.83183 -1.84294,-8.61157 -1.5559,-12.67264c0.15741,-2.22697 0.30584,-4.45476 0.49476,-6.67927c0.1237,-1.45657 1.06294,-3.28524 1.71199,-4.58324c2.21005,-4.41977 5.01568,-6.89812 8.16025,-8.47791c-1.01596,-0.99172 -2.03042,-2.02432 -2.95817,-3.64789c-0.73685,-0.43488 -1.23116,-1.23699 -1.23116,-2.15454c0,-1.20556 0.85332,-2.21182 1.98891,-2.44772c-0.55797,-0.29594 -1.11677,-0.59687 -1.67777,-0.90308zM321.83977,172.75394c3.66914,7.91039 14.46278,7.51643 19.20011,13.84187c1.66688,-1.48308 2.74143,-2.27854 2.70477,-2.3245c-2.99012,-3.74883 -5.74694,-1.67587 -8.23972,-7.16339c-0.45192,-0.99483 -1.57798,-2.97247 -1.57798,-4.36225c0,-0.1235 1.03894,-3.48593 -0.05258,-4.26227c-1.15966,-0.82482 -6.356,-0.17613 -9.21151,0.07195c-1.61897,1.15137 -3.44993,2.84718 -2.82309,4.19859zM333.72315,200.41672c-0.12811,0.1218 -0.25318,0.24459 -0.37544,0.36825c2.02002,-0.08143 4.49554,0.19186 5.62412,-1.37566c0.0124,-0.01722 -0.29089,-0.30128 -0.33888,-0.38728c-0.2925,-0.52421 -0.61739,-1.1251 -0.91935,-1.76188c-1.77574,1.47789 -3.46324,2.65531 -3.99045,3.15658zM330.39884,196.67601c0.33328,-0.27585 7.02921,-4.93016 6.7079,-6.36137c-1.15149,-5.12906 -10.15405,-4.98283 -13.16311,-8.08657c-0.96051,-0.99074 -2.02912,-1.92009 -3.07101,-2.87028c1.33815,2.29092 2.25024,4.73986 1.73701,7.34026c-0.72728,3.68487 -2.74777,5.11298 -5.0163,7.55301c0.14689,1.6561 0.39988,4.49553 -0.94403,5.68905c3.08817,0.90652 6.38601,1.20036 9.66118,1.1957c1.26608,-1.65199 2.64272,-3.26326 4.08837,-4.4598zM317.73889,169.68807c-0.84662,-0.52066 -1.88432,0.06527 -2.88761,0.52826c0.65652,0.81579 1.18176,1.82051 1.59253,2.52193c0.02164,0.03695 0.04349,0.07395 0.06556,0.11101c0.53735,-1.20673 2.18687,-2.57245 1.22953,-3.1612zM317.62315,185.53917c0.21006,-1.21788 -0.49124,-2.93025 -1.50119,-4.68238c0.42991,2.0221 0.74268,4.07764 0.9683,6.18482c0.2578,-0.48338 0.44323,-0.98262 0.53289,-1.50245z" fill-opacity="0.68627" fill="#505050" stroke-width="0.5"/><path d="M321.46647,197.50221c-0.99228,0.12403 -1.11631,-0.86824 -1.11631,-0.86824l-0.09618,-0.85044c-0.53679,-1.96825 -1.29486,-4.00643 -1.01585,-6.08601c0.12911,-0.96232 1.55421,-3.42262 0.96168,-4.36887c-0.81767,-1.30579 -2.60316,-1.79489 -4.2006,-2.43907c-1.55109,2.74442 -4.51101,3.69043 -8.52453,3.23128c-1.8218,-0.20842 -4.67705,-1.57659 -5.04811,-3.51667c-0.10662,-0.55744 -0.04284,-1.14078 0.0625,-1.70295c-0.4396,0.25637 -1.0656,0.36596 -1.19033,0.4109c-0.91194,0.3285 -1.6902,0.57564 -2.47602,0.76741c0.24199,0.9083 -0.10786,2.20638 -0.10736,3.10689c0.00033,0.59733 0.71804,0.9767 0.91569,1.54038c0.70305,2.00493 -0.64047,5.48253 -1.44645,7.7416c1.1057,0.63148 2.04541,1.57753 2.76102,2.92321c0.75316,1.41627 1.25056,6.52979 3.31293,6.65304c0.98203,0.05868 1.85055,-0.70071 2.81891,-0.87422c3.16477,-0.56706 4.2154,-0.89828 6.77571,-2.6633c0.66271,-0.45686 1.83843,-0.48828 2.27151,-1.0778l-0.52241,-0.62783c-0.14696,-0.17408 -0.23554,-0.39905 -0.23554,-0.64471c0,-0.55228 0.44772,-1 1,-1c0.03194,0 0.06352,0.0015 0.0947,0.00443l1.98144,0.16512c3.04498,0.25756 5.96069,1.04015 8.93076,1.71143c0.19141,-0.65133 0.37162,-1.19562 0.43879,-1.23948c1.02519,-0.66938 2.44822,0.06283 3.67259,0.06175c3.50129,-0.00307 7.03269,-0.13991 10.52776,0.09547c-0.91893,-1.08014 -1.84099,-2.15896 -2.7893,-3.24c-1.04223,-1.18811 -2.34951,-2.23206 -2.93169,-3.73093c-0.43142,-1.11072 -0.08189,-2.40133 -0.38374,-3.55402c-0.0678,-0.25892 -0.53999,-0.09163 -0.76951,-0.22933c-0.86147,-0.51685 -2.12678,-1.77292 -2.78282,-2.43698c-2.43912,-2.4689 -1.88154,-5.21339 0.126,-7.48563c-0.01159,-0.0609 -0.01765,-0.12376 -0.01765,-0.18803c0,-0.55228 0.44772,-1 1,-1c0.10682,0 0.20973,0.01675 0.30624,0.04776c0.27874,-0.10576 0.68255,-0.13632 1.05962,0.28787c0.66436,0.74741 -0.08305,1.41177 -0.08305,1.41177c-0.5418,0.48132 -1.38782,0.75622 -1.62935,1.4395c-0.34587,0.97845 -0.90984,2.08538 -0.56026,3.06251c0.65124,1.8203 4.45331,2.577 5.14208,4.20103c0.58224,1.37283 -0.34665,2.95098 0.78781,4.44554c2.58796,3.40945 5.595,6.35457 8.35491,9.56993c0.76598,1.67359 0.34993,2.70457 0.82366,4.35627c0.72996,2.54509 3.153,4.00997 3.24912,6.68732v0.37107c0,0 0,1 -1,1c-1,0 -1,-1 -1,-1v-0.37107c0.12819,-1.99085 -2.60885,-4.15744 -3.18276,-6.17644c-0.41714,-1.46746 0.08735,-2.42969 -0.56898,-3.78039c-0.63715,-0.73602 -1.26372,-1.4696 -1.88688,-2.20182c-0.26356,0.59468 -0.98316,0.53932 -0.98316,0.53932c-3.58512,-0.27747 -7.21315,-0.11773 -10.80802,-0.12074c-0.84965,-0.00071 -1.72518,-0.75389 -2.51191,-0.43301c-0.06217,0.02536 -0.19876,3.94065 -0.19879,4.0305c-0.00137,3.74272 3.5403,6.63999 0.6867,10.07429c-1.29942,2.35647 -1.48104,3.1352 -4.27992,2.81555l-0.69322,-1.42757c0,0 -0.35112,-0.93633 0.58521,-1.28745c0.93633,-0.35112 1.28745,0.58521 1.28745,0.58521l0.04892,0.55147c0.15898,0.0052 1.30283,-2.18816 1.40982,-2.37944c1.8025,-2.02429 0.26491,-3.11695 -0.60382,-5.24565c-0.69179,-1.69513 -0.62382,-4.02304 -0.43365,-5.80859c0.00653,-0.06136 0.03307,-0.19043 0.07371,-0.3645c-2.85028,-0.64865 -5.65648,-1.41184 -8.57874,-1.65143l-0.38712,-0.03226c0.62334,1.18752 -1.69441,2.03694 -2.91125,2.87339c-2.70675,1.86059 -4.23491,2.40382 -7.55338,2.97944c-1.0723,0.186 -2.06191,1.07252 -3.13716,0.90444c-3.91116,-0.6114 -3.66323,-4.9049 -5.09799,-7.69501c-1.20067,-2.33489 -3.18378,-2.94929 -5.55402,-2.94223c-1.60797,0 -3.21594,0 -4.82391,0l-0.86549,0.11597c0,0 -0.99228,0.12403 -1.11631,-0.86824c-0.12403,-0.99228 0.86824,-1.11631 0.86824,-1.11631l1.11355,-0.13141c1.60797,0 3.21594,0 4.82391,0c0.9365,0.00249 1.83074,0.09809 2.66599,0.31127c0.40675,-1.35205 0.7118,-2.68508 1.05229,-4.08296c0.17243,-0.70793 0.75283,-1.49056 0.42914,-2.14334c-0.3579,-0.72174 -0.99997,-1.36721 -1.06335,-2.17032c-0.07056,-0.8942 0.4692,-1.83369 0.18529,-2.68455c-0.02086,-0.06253 -0.04627,-0.12512 -0.07599,-0.18772c-0.2367,0.03172 -0.48201,0.06101 -0.73857,0.08836c0,0 -0.99451,0.10468 -1.09919,-0.88982c-0.04037,-0.3835 0.08271,-0.63468 0.24919,-0.79856c-2.12639,-1.45799 -5.62291,-2.69122 -7.04231,-3.0362c-0.32984,-0.08246 -0.65968,-0.16492 -0.98952,-0.24738l-0.81583,-0.26884c0,0 -0.94868,-0.31623 -0.63246,-1.26491c0.31623,-0.94868 1.26491,-0.63246 1.26491,-0.63246l0.66845,0.22592c0.32984,0.08246 0.65968,0.16492 0.98952,0.24738c2.21374,0.56589 6.69013,2.24697 8.91912,4.39059c1.40719,-0.31745 2.68118,-0.7972 4.17428,-1.24746c0.69997,-0.21108 1.4902,-0.94881 2.1172,-0.57279c1.96007,1.17548 -0.57965,3.31575 0.72773,4.261c2.19581,1.58759 7.00511,2.70471 9.12204,0.44857c0.2943,-0.31365 0.51997,-0.6649 0.69565,-1.03918c-0.22061,-0.14531 -0.42475,-0.30439 -0.60708,-0.48171c0,0 -0.70711,-0.70711 0,-1.41421c0.44944,-0.44944 0.89888,-0.32755 1.16675,-0.17904c0.05132,-0.36004 0.089,-0.71838 0.12562,-1.06519c0.1666,-2.42298 1.29056,-3.18534 1.7877,-5.23138c0.47977,-1.97453 0.46142,-4.15215 0.46142,-6.17582l0.06304,-0.16825c-0.55515,-0.08077 -1.07407,-0.16031 -1.41673,-0.2844c-2.4554,-0.88919 -3.94089,-2.01422 -5.83585,-3.55196c-1.28322,-0.07174 -2.58045,-0.04528 -3.47363,0.44048c-2.29535,1.24835 -4.84006,4.31971 -7.53979,4.55982c-1.81546,0.16146 -4.21324,-0.06202 -5.99511,-0.38965c-1.95491,-0.35945 -2.50796,-1.42366 -4.41139,-0.45376c0,0 -0.89443,0.44721 -1.34164,-0.44721c-0.44721,-0.89443 0.44721,-1.34164 0.44721,-1.34164c3.24752,-1.59908 7.42832,0.77978 11.11556,0.64087c1.1978,-0.04512 1.34226,-1.02431 2.27669,-1.57943c1.41744,-0.84206 3.08733,-2.02251 4.53157,-2.76643c1.19275,-0.61438 2.68767,-0.6692 4.16238,-0.61133c0.44148,-0.28262 0.88856,-0.05564 1.06083,0.05538c0.63315,0.03776 1.24749,0.07642 1.81597,0.07847c1.54191,-0.31483 5.35813,-0.29985 6.47419,-1.77073c1.15467,-1.52177 0.72264,-3.67246 2.6071,-4.87786c1.78862,-1.1441 3.87734,-0.12341 5.75629,-0.38039c0.94676,-0.12949 1.4377,-1.94942 1.80683,-2.68937l0.68208,-0.75465c0,0 0.70711,-0.70711 1.41421,0c0.70711,0.70711 0,1.41421 0,1.41421l-0.30744,0.23487c-0.72749,1.45193 -1.36987,3.27463 -3.14077,3.74251c-1.49601,0.39526 -3.71662,-0.80295 -5.12843,0.11437c-1.39094,0.90376 -1.20362,3.32473 -2.12647,4.44363c-1.56687,1.89973 -4.94669,2.04121 -7.30267,2.41878c0.89754,0.60928 1.84954,1.11831 3.13335,1.59056c1.20513,0.4433 2.8668,0.34968 3.99145,0.95224c1.07303,0.5749 3.60501,1.85682 5.00065,1.39618c1.2336,-0.40716 1.50671,-2.09033 2.93424,-2.24288c2.72846,-0.29158 5.15808,4.90373 6.33605,6.86585c0.66368,0.96924 0.80878,2.58274 1.92369,2.9527c0.72221,0.23965 1.37785,-0.81557 2.13859,-0.7985c0.63562,0.01426 1.27678,0.31943 1.76202,0.73024c1.25653,1.0638 2.02727,3.96904 3.6951,4.65915c1.6006,0.66228 5.02936,0.408 6.8533,0.6886l1.14555,0.25401c0,0 0.97619,0.21693 0.75926,1.19312c-0.21693,0.97619 -1.19312,0.75926 -1.19312,0.75926l-1.08087,-0.24075c-1.91437,-0.29452 -5.61013,-0.09579 -7.26731,-0.81396c-1.95094,-0.84548 -2.96188,-3.43442 -4.20112,-4.97039c-0.52248,-0.64759 -2.33691,0.73905 -3.27341,0.42649c-1.17285,-0.39143 -2.3444,-2.88323 -2.94497,-3.75991c-0.8831,-1.47271 -1.79125,-2.73448 -2.7883,-4.13114c-0.47026,-0.65874 -0.8214,-2.08111 -1.59194,-1.83342c-1.12093,0.36032 -1.63018,1.86363 -2.7555,2.20996c-1.80945,0.55687 -5.01015,-0.75606 -6.37883,-1.57238c-0.11144,-0.06646 -0.24384,-0.12456 -0.39173,-0.17608c0.00272,2.10953 0.0346,4.4434 -0.52825,6.47267c-0.60609,2.18518 -1.58382,2.43781 -1.72865,4.89375c-0.08815,0.7614 -0.22912,1.45612 -0.42065,2.08668c1.85802,0.91871 4.19814,1.19296 5.29383,3.20265c0.96719,1.77401 -0.52038,3.805 -0.76998,5.52633c-0.25595,1.76512 0.50853,3.6264 0.96319,5.29347l0.1512,1.1286c0,0 0.12403,0.99228 -0.86824,1.11631z" fill-opacity="0.68627" fill="#3f3f3f" stroke-width="0.5"/></g></g></svg>