<svg version="1.1" xmlns="http://www.w3.org/2000/svg" xmlns:xlink="http://www.w3.org/1999/xlink" width="46.36956" height="46.36956" viewBox="0,0,46.36956,46.36956"><g transform="translate(-296.81522,-156.81522)"><g data-paper-data="{&quot;isPaintingLayer&quot;:true}" fill-rule="nonzero" stroke-width="0.5" stroke-linecap="butt" stroke-linejoin="miter" stroke-miterlimit="10" stroke-dasharray="" stroke-dashoffset="0" style="mix-blend-mode: normal"><path d="M301.06522,202.93478c-2.20914,0 -4,-1.79086 -4,-4v-37.86956c0,-2.20914 1.79086,-4 4,-4h37.86956c2.20914,0 4,1.79086 4,4v37.86956c0,2.20914 -1.79086,4 -4,4z" fill-opacity="0.12941" fill="#737373" stroke-opacity="0.55686" stroke="#8a8a8a"/><path d="M329.63138,164.10364c0.39118,-0.06428 0.81379,-0.32039 1.17791,-0.16365c0.07961,0.03425 0.1559,0.07391 0.22945,0.1179l0.0214,-0.04824l0.82417,0.36596c0.26829,0.1145 0.4748,0.35856 0.52784,0.6674c0.0831,0.48377 -0.2417,0.94327 -0.72546,1.02638l-0.94287,0.16196c-0.93629,0.33458 -1.41349,0.79799 -1.76642,1.54926c0.76611,0.38391 1.43425,1.1303 1.81168,1.95694c1.18547,-0.20505 1.97332,-0.82506 2.82401,-1.55497l-0.10109,-0.06288l0.53605,-0.86165c0.12921,-0.20984 0.34456,-0.36523 0.60651,-0.41024c0.48375,-0.08312 0.9433,0.24168 1.02641,0.72544c0.02527,0.14714 0.01283,0.29202 -0.03035,0.42474l-0.26107,0.86375c-0.617,2.71454 -2.31534,3.01328 -4.3555,2.88363c-0.11971,0.427 -0.3757,0.809 -0.80046,1.0984c-0.38136,0.25983 -0.75265,0.37472 -1.1058,0.38015c-0.14172,0.13401 -0.28344,0.26803 -0.42516,0.40204c-1.3706,1.50408 -2.51483,3.18974 -3.89272,4.68579c-2.37885,2.58291 -5.47367,4.71199 -7.80651,7.38429c-0.27405,-0.53422 -0.55964,-1.10303 -0.83769,-1.68169c2.2963,-2.42812 5.09739,-4.45973 7.33188,-6.90149c1.38712,-1.51577 2.5478,-3.21151 3.93494,-4.73031c-0.16828,-0.178 -0.3228,-0.37483 -0.46136,-0.58098c-1.42468,0.97806 -2.43933,2.71031 -3.65714,3.95241c-2.50949,2.5596 -5.15829,4.98101 -7.36468,7.80465c-0.28929,-0.61726 -0.5645,-1.23835 -0.803,-1.83383c2.12161,-2.56454 4.56509,-4.83213 6.89922,-7.21603c1.40232,-1.43222 2.48648,-3.10748 4.12475,-4.23874c-0.29537,-0.91989 -0.20632,-1.87512 0.57479,-2.40528c-0.19094,-2.04431 0.39909,-3.35243 2.88625,-3.7611z" fill="#b0c1ca" stroke="none"/><path d="M305.08087,190.69783c2.13569,-2.39146 9.15126,-11.94264 12.45244,-8.70458c2.28631,2.24259 -3.43838,9.57932 -7.43961,12.69585c-0.09313,0.12896 -0.1971,0.25259 -0.31189,0.36962c-0.50841,0.51832 -1.1501,0.82668 -1.81707,0.92402c-0.4837,0.17243 -0.8657,0.17659 -1.10138,-0.03022c-0.58433,-0.11843 -1.14229,-0.40158 -1.59963,-0.85018c-1.12013,-1.09871 -1.25965,-2.81988 -0.40806,-4.07344c0.05814,-0.11642 0.13232,-0.22709 0.22517,-0.33105z" fill="#b0c1ca" stroke="none"/></g></g></svg>