<svg version="1.1" xmlns="http://www.w3.org/2000/svg" xmlns:xlink="http://www.w3.org/1999/xlink" width="34.74407" height="46.07374" viewBox="0,0,34.74407,46.07374"><g transform="translate(-300.61243,-120.54735)"><g data-paper-data="{&quot;isPaintingLayer&quot;:true}" fill-rule="nonzero" stroke="none" stroke-linecap="butt" stroke-linejoin="miter" stroke-miterlimit="10" stroke-dasharray="" stroke-dashoffset="0" style="mix-blend-mode: normal"><path d="M302.40963,159.35261c-0.32267,-6.14144 0.00042,-15.32968 0.00042,-15.32968c0,0 10.16247,-25.24982 14.70497,-21.87235c1.10129,0.81884 2.26166,0.19392 3.41525,1.00893c5.77322,4.07878 10.89937,20.77441 10.89937,20.77441c0,0 1.772,7.34556 1.89881,12.63546c0.0517,2.1567 0.58879,5.16929 0.68695,8.79858c-1.5097,0.31221 -3.09625,0.49022 -4.48407,0.94673c-3.15727,0.4002 -6.37258,0.29348 -9.5849,0.29348c-3.27892,0 -6.12718,-0.16362 -9.2905,-0.90996c-2.52979,-0.50615 -6.07839,-1.41755 -8.06818,-3.3287c-0.07186,-1.12729 -0.13226,-2.14439 -0.1781,-3.0169z" fill="#294a58" stroke-width="0"/><path d="M327.62423,152.88649l-4.23077,-8.07692l8.78205,2.37179l1.34615,7.5641z" fill="#496e7e" stroke-width="0"/><path d="M333.13106,164.94787c0,-2.67532 0.04436,-5.391 -0.97456,-7.90282c0,0 -0.34182,-2.60456 0.69131,-3.01781c1.03313,-0.41325 1.37495,2.19131 1.37495,2.19131c1.10949,2.80685 1.13374,5.74748 1.13374,8.72932l-0.00229,0.02168c-0.7298,0.23526 -1.50548,0.39677 -2.28974,0.5404z" fill="#2a2e30" stroke-width="0.5"/><path d="M330.62092,147.91293c-0.44397,-3.1067 -0.49521,-6.31854 -1.45151,-9.34017c-0.73598,-2.32548 -2.07942,-4.32554 -2.93834,-6.58826c0,0 -0.3907,-1.04187 0.65116,-1.43257c1.04187,-0.3907 1.43258,0.65116 1.43258,0.65116c0.8567,2.3183 2.24468,4.37985 2.99612,6.7643c0.90168,2.86121 1.03851,5.88169 1.40719,8.8358c-0.43718,0.40683 -0.83787,0.85233 -1.19664,1.33108c-0.26923,0.01907 -0.54496,0.05062 -0.83603,0.10313c-0.02659,-0.10709 -0.0489,-0.21508 -0.06453,-0.32447z" fill="#2a2e30" stroke-width="0.5"/><path d="M300.61722,159.04735c0,-5.45356 -0.14028,-10.9314 1.09671,-16.27328c0.51121,-2.20768 1.19337,-4.28806 2.62649,-6.06249c0,0 0.70461,-0.86119 1.5658,-0.15658c0.86119,0.70461 0.15658,1.56581 0.15658,1.56581c-1.47348,1.77208 -1.95096,4.09022 -2.44555,6.30237c-1.06036,4.74259 -0.77459,9.79403 -0.77459,14.62418c-0.00302,1.2594 0.17988,2.43262 0.3463,3.68068l0.07622,0.36932c-0.54783,-0.38173 -1.03101,-0.81268 -1.41759,-1.3002c-0.2868,-0.35324 -0.70399,-0.71425 -1.13929,-1.01326c-0.05441,-0.57104 -0.08984,-1.14538 -0.09109,-1.73655z" fill="#2a2e30" stroke-width="0.5"/><path d="" fill="#f1f5f7" stroke-width="0.5"/><path d="M328.06191,132.42723c-0.78087,0.97609 -1.75696,0.19522 -1.75696,0.19522l-0.69688,-0.58041c-2.17056,-2.44937 -3.58742,-5.42649 -5.64472,-7.92648c-2.04013,-2.05097 -4.11977,-0.76102 -5.97942,1.31198c-2.76574,3.08303 -6.10657,8.02608 -7.09848,12.06548c0,0 -0.30317,1.21268 -1.51585,0.90951c-1.21268,-0.30317 -0.90951,-1.51585 -0.90951,-1.51585c1.1959,-4.71273 5.13101,-10.90092 8.75179,-14.10935c2.92676,-2.59346 5.73314,-3.19938 8.6051,-0.33928c2.05274,2.52044 3.47766,5.49676 5.65962,7.94309l0.39008,0.28915c0,0 0.97609,0.78087 0.19522,1.75696z" fill="#2a2e30" stroke-width="0.5"/><path d="M323.46742,142.46836l0.33534,0.9619c1.62879,5.12363 3.96883,9.28461 9.1421,10.96264c0,0 1.18843,0.38747 0.80096,1.5759c-0.38747,1.18843 -1.5759,0.80096 -1.5759,0.80096c-5.9721,-1.9583 -8.87297,-6.70215 -10.74922,-12.58068l-0.31356,-0.89665c0,0 -0.41203,-1.18014 0.76811,-1.59217c1.18014,-0.41203 1.59217,0.76811 1.59217,0.76811z" data-paper-data="{&quot;index&quot;:null}" fill="#2a2e30" stroke-width="0.5"/><path d="M331.37608,148.19965l-1.09704,-0.12294c-4.69641,-1.15742 -7.80757,-3.16131 -10.92893,-6.92428c0,0 -0.79639,-0.96346 0.16707,-1.75985c0.96346,-0.7964 1.75986,0.16707 1.75986,0.16707c2.78846,3.38661 5.42089,5.06508 9.5987,6.08932l0.75099,0.06328c0,0 1.2437,0.12533 1.11837,1.36903c-0.12533,1.2437 -1.36903,1.11838 -1.36903,1.11838z" data-paper-data="{&quot;index&quot;:null}" fill="#2a2e30" stroke-width="0.5"/><path d="M315.20215,140.24267c-0.88542,3.98442 -7.93651,1.63742 -5.9903,-2.255c1.64491,-3.28982 8.15454,-1.52936 6.00486,2.19676z" fill="#def4ff" stroke-width="0.5"/><path d="M319.14736,128.10261c0.14684,0.00884 0.28406,0.03311 0.406,0.08237c0.0922,-0.00156 0.18522,-0.00318 0.27926,-0.00406v-0.00067h0.67567c0.27614,0 0.5,0.22386 0.5,0.5c0,0.27614 -0.22386,0.5 -0.5,0.5h-0.54054c-0.40721,0 -0.78831,0.00911 -1.16413,-0.00888c-0.32957,0.01172 -0.68399,0.00859 -1.09667,0.00791l-0.02922,-0.01665l-0.00172,0.01376l-0.53396,-0.06674c-0.25005,-0.02758 -0.44457,-0.23956 -0.44457,-0.49697c0,-0.26262 0.20246,-0.47794 0.45981,-0.4984l0.1711,-0.01556c0.20233,-0.19479 0.50018,-0.09552 0.50018,-0.09552c0.13191,0.04567 0.26275,0.08048 0.39317,0.10689c0.23832,-0.04163 0.47872,-0.06486 0.71899,-0.06498z" fill="#2a2e30" stroke-width="0.5"/><path d="M314.31028,138.98144c0.49847,0.66223 0.52243,1.68413 -0.54758,2.01469c-1.10152,0.34029 -2.16284,-0.65651 -1.79878,-1.80263c0.04534,-0.14275 0.15254,-0.25825 0.29361,-0.35258c0.06752,-0.071 0.14849,-0.14043 0.24419,-0.20746c0.35612,-0.24945 0.71661,-0.29219 1.0376,-0.20262c0.06191,-0.01211 0.11532,-0.02295 0.15726,-0.03318c0,0 0.48671,-0.11452 0.60123,0.37219c0.01889,0.08027 0.02142,0.15042 0.01248,0.2116z" fill="#2a2e30" stroke-width="0.5"/><path d="M324.89328,147.95415c0,-0.08682 0.03015,-0.14349 0.06952,-0.18048c0.03699,-0.03936 0.09366,-0.06952 0.18048,-0.06952c0.17702,0 0.44587,-0.03083 0.72674,-0.0448c-0.46794,-0.17241 -0.99623,-1.20413 -1.21901,-1.87104c0,0 -0.07906,-0.23717 0.15811,-0.31623c0.05662,-0.01887 0.10423,-0.01972 0.1439,-0.01008c0.01214,-0.00181 0.02456,-0.00275 0.03719,-0.00275l0.17712,0c0.1239,-0.23179 0.41918,-0.10219 0.74504,0.1385c1.09456,0.13492 2.22874,0.70639 3.30261,0.88531l0.22362,0.05508c0,0 0.24254,0.06063 0.1819,0.30317c-0.01858,0.07433 -0.05425,0.12018 -0.09478,0.14803c1.03293,0.1508 2.06543,0.35543 2.51522,0.76918c0.01337,-0.00221 0.0271,-0.00336 0.0411,-0.00336c0.11246,0 0.20758,0.07426 0.23899,0.17641l0.03103,0.09308l0.12964,0.02161l-0.05034,0.30207c-0.01341,0.09026 -0.07506,0.16478 -0.15789,0.1965c-0.1281,0.46074 -0.4272,1.01663 -0.95673,0.98584c-0.26553,-0.01544 -0.55122,-0.51611 -0.65943,-0.87952c-0.23507,0.24155 -0.69525,0.47694 -1.00448,0.27979c-0.59715,-0.38071 -0.12597,-1.69108 -0.51045,-0.91602c-0.14154,0.2772 -0.58324,0.99007 -0.93789,1.00554c-0.33185,0.01447 -0.5782,-0.55557 -0.66672,-1.08574c-0.16837,0.19828 -0.36026,0.36313 -0.49107,0.40601c-0.03642,0.29441 -0.18239,0.63585 -0.36173,0.80634c0.36145,-0.12299 0.99648,-0.28206 1.25536,-0.14949c0.63016,0.32271 0.11832,0.82486 -0.11111,1.16447c-1.34954,0.98567 1.05397,0.27355 1.23906,0.36842c0.44373,0.22745 -0.5495,1.38674 -0.06268,1.49456c0.61046,0.1352 1.39308,-1.21292 1.64277,0.01074c0,2.23448 0.19118,-0.43518 1.2678,0.02157c0.5924,0.25132 0.53546,0.78755 0.36136,1.20503c0.08732,-0.11517 0.1927,-0.25015 0.31883,-0.40697c0.70524,-0.16866 1.12836,1.2095 0.78072,1.89422c-0.76507,1.50692 -3.52503,-0.30006 -4.25426,-0.88356c-1.45876,-1.09915 -3.56367,-3.2518 -4.17015,-4.9804c-0.05643,-0.28578 -0.0594,-0.5394 -0.0594,-0.82947zM326.37345,147.38651c-0.0723,0.13867 -0.15271,0.22416 -0.23834,0.26613c0.11045,0.0005 0.21889,0.00593 0.32044,0.01919c-0.03266,-0.09312 -0.06042,-0.18965 -0.0821,-0.28532zM327.413,146.66777c0.05226,0.01204 0.10706,0.02371 0.16416,0.03508c-0.05459,-0.01136 -0.10935,-0.02305 -0.16416,-0.03508z" fill="#ffffff" stroke-width="0.5"/></g></g></svg>