<svg version="1.1" xmlns="http://www.w3.org/2000/svg" xmlns:xlink="http://www.w3.org/1999/xlink" width="40.14474" height="39.81653" viewBox="0,0,40.14474,39.81653"><g transform="translate(-220.61243,-128.82336)"><g data-paper-data="{&quot;isPaintingLayer&quot;:true}" fill-rule="nonzero" stroke="none" stroke-linecap="butt" stroke-linejoin="miter" stroke-miterlimit="10" stroke-dasharray="" stroke-dashoffset="0" style="mix-blend-mode: normal"><path d="M222.19224,159.35261c-0.32267,-6.14144 0.00042,-15.32968 0.00042,-15.32968c0,0 5.24335,-11.77213 5.9761,-11.77213c1.38889,0 4.72985,-1.84725 9.27235,1.53021c1.10129,0.81884 0.0345,-4.65079 1.1881,-3.83578c1.62251,1.14631 3.8371,-0.41009 5.44919,1.30793c0.93046,0.99161 2.11034,-0.26771 2.9056,0.98016c2.72951,4.28297 4.22826,11.7006 4.22826,11.7006c0,0 1.772,7.34556 1.89881,12.63546c0.0517,2.1567 0.58879,5.16929 0.68695,8.79858c-1.5097,0.31221 -3.09625,0.49022 -4.48407,0.94673c-3.15727,0.4002 -6.37258,0.29348 -9.5849,0.29348c-3.27892,0 -6.12718,-0.16362 -9.2905,-0.90996c-2.52979,-0.50615 -6.07839,-1.41755 -8.06818,-3.3287c-0.07186,-1.12729 -0.13226,-2.14439 -0.1781,-3.0169z" fill="#c5d8e2" stroke-width="0"/><path d="M232.75494,131.97955c-0.94428,-0.43485 -4.78504,2.04142 -4.76921,2.93619c0.00523,0.29576 4.54173,-0.88791 6.88115,-0.40614l0.03803,-0.05124l-0.00073,-0.04988l0.12555,-0.1239l0.0997,-0.24017l0.0958,-0.12909l0.01545,-0.03039c-0.82994,-0.55093 -1.69975,-1.54343 -2.48573,-1.90538zM230.95477,136.40236c-1.4752,0.0209 -2.42607,1.90125 -3.92033,1.67771c-0.23361,-0.03495 -0.66802,-0.28623 -0.739,-0.47051c-2.2757,-5.90875 6.5595,-9.6838 10.14631,-5.74142l0.00587,-0.01031l0.01235,-0.12961l0.00552,-0.01561l-0.00194,-0.01644l0.03301,-0.25805l0.02298,-0.05886l0.00042,-0.06319l0.02392,-0.09307l-0.00371,-0.0106l0.01301,-0.0256l0.00694,-0.02699l0.10946,-0.20202l0.06886,-0.13547l0.00022,-0.03308l0.04016,-0.15626l0.02568,-0.04739l-0.00189,-0.00539l0.01265,-0.02489l0.0085,-0.0568l0.04374,-0.10537l0.08606,-0.11596l0.04396,-0.17104l0.09399,-0.17346l-0.00112,-0.07646l0.09145,-0.09026l0.06121,-0.11297l0.07375,-0.02022l0.14042,-0.13858l0.23847,-0.14095l0.00488,-0.01012l0.02731,-0.0089l0.02399,-0.01418l0.22025,-0.06545l0.21846,-0.07122l0.0278,-0.00195l0.02753,-0.00818l0.00976,0.00556l4.95931,-0.34857l0.00889,-0.00687l0.02841,0.00425l0.0278,-0.00195l0.22627,0.03996l0.22724,0.034l0.02573,0.01068l0.02828,0.005l0.00624,0.00934l0.03291,0.01366l0.01518,-0.00212l0.20315,0.16017l0.20773,0.15417l0.00192,0.01521l0.10444,0.13508l0.01616,0.03685l0.03052,0.01471l0.04914,0.15073l0.05458,0.078l0.07822,0.06167l0.11252,0.14553l0.06872,0.15673l0.09092,0.14498l0.03118,0.09564l0.11829,0.20014l0.0205,0.06899l0.0428,0.05786l0.01497,0.03622l0.03227,0.02395l0.00958,0.07586l0.11733,0.1586l0.01719,0.0416c0.38834,0.11511 0.68334,0.46111 0.71341,0.88896c0.00603,0.08574 0.00106,0.16971 -0.0137,0.25054l0.31599,0.2637l-0.16347,0.99444l-0.42502,0.29152l-0.81793,0.30435l-0.51688,0.23017l-0.07555,0.01328l-0.06685,0.03762l-0.42381,0.11618l-0.32289,0.14767l-0.12786,0.02379l-0.11902,0.05241l-0.29556,0.05069l-0.15401,0.10297l-0.00665,0.01381l-0.24595,0.08018l-0.24351,0.08733l-0.01372,-0.00684l-0.06552,0.0046l-0.01848,0.00549l-0.06656,0.0217l-0.00847,0.0006l-0.11113,0.03302l-0.18233,0.05944l-0.1095,0.04526l-0.04447,0.02628l-0.071,0.04969l-0.11442,0.11291l-0.4002,0.23654l-0.06085,0.08808l-0.04176,0.03672l0.00004,0.00266l-0.00337,0.00333l-0.0227,0.04466l-0.09464,0.10894l-0.1317,0.09217l-0.11442,0.11291l-0.14283,0.08442l-0.06195,0.0479l-0.20826,0.19205l-0.11302,0.06173l-0.09568,0.0862l-0.40448,0.21491l-0.40291,0.2624l-0.06535,0.02255l-0.05349,0.04379l-0.89107,0.42065l-0.10175,0.02021l-0.092,0.04793l-0.15557,0.0373l-0.01338,0.00791l-0.09628,0.07444l-0.15673,0.06872l-0.14498,0.09092l-0.2,0.0652l-0.07568,0.00532l-0.01313,0.00919l-0.18472,0.13665l-0.02575,0.01064l-0.02353,0.01647l-0.01102,-0.00219l-0.08794,0.03635l-0.07017,0.06076l-0.17678,0.08951l-0.16787,0.10528l-0.11247,0.03667l-0.00268,0.00136l-0.00071,-0.00025l-0.08414,0.02743l-0.51412,0.03614l-0.12542,-0.11371l-0.16927,0.00248l-0.36202,-0.36683l-0.02485,-0.04204l-0.01012,-0.00488l-0.0089,-0.02731l-0.01418,-0.02399l-0.0292,-0.09827l-0.00263,-0.00238l0.00079,-0.00381l-0.03441,-0.11579l-0.07122,-0.21846l-0.00195,-0.0278l-0.00818,-0.02753l0.00556,-0.00976l-0.00875,-0.12452l-0.07751,-0.16018l-0.00369,-0.00624l-0.01012,-0.00488l-0.0089,-0.02731l-0.01418,-0.02399l-0.04885,-0.16441c-1.30014,0.03033 -3.01797,-0.41045 -3.66639,-0.40126zM243.69759,132.24182l-0.17415,-0.29464l-0.00324,-0.01092l-0.10015,-0.07432l-0.00495,-0.03918l-0.03557,-0.01714l-0.08947,-0.27444l-0.00407,-0.0055l-0.03448,-0.08343l-0.13799,-0.23346l-0.03137,-0.10557l-0.05851,-0.0933l-0.00108,-0.00333l-0.0451,-0.03917l-0.07707,-0.11014l-4.17186,0.29322l-0.03586,0.07054l-0.00742,0.02886l-0.02991,0.16934l-0.00232,0.00519l0.00603,0.01723l-0.11254,0.22141l-0.08753,0.19612l-0.00956,0.07474l-0.0279,0.29289l-0.04981,0.14083l-0.0221,0.14774l-0.04374,0.10537l-0.03766,0.05074l-0.00722,0.02581l-0.01085,0.08482l-0.01463,0.03748l0.01118,0.03198l-0.10207,0.20081l-0.08192,0.20983l-0.03131,0.01294l-0.01823,0.03587l-0.0297,0.03419l-0.04204,0.0738l-0.01299,0.01359l0.00135,0.00385l-0.11254,0.22141l-0.10123,0.22681l-0.01719,0.00616l-0.00258,0.00507l-0.17165,0.19761l-0.04204,0.0738l-0.01963,0.02054l-0.00916,0.0269l-0.13838,0.21431l-0.05254,0.04919l-0.03261,0.06416l-0.26025,0.2996l-0.03383,0.06655l-0.13453,0.32407l-0.04866,0.06556l0.00073,0.04988l-0.10477,0.10339l-0.00841,0.04762l-0.00232,0.00519l0.00603,0.01723l-0.11254,0.22141l-0.00339,0.0076l-0.02899,0.19378l0.06394,-0.00946l0.01671,-0.01048l0.03532,-0.01151l0.0085,-0.00657l0.05787,-0.02537l0.04498,-0.04439l0.19643,-0.1161l0.14319,-0.04255l0.13248,-0.06902l0.2014,-0.04829l0.73603,-0.34746l0.38301,-0.24944l0.04285,-0.01479l0.03368,-0.03034l0.32986,-0.17526l0.14536,-0.13404l0.03884,-0.02121l0.0274,-0.03475l0.14553,-0.11252l0.05787,-0.02537l0.04498,-0.04439l0.04008,-0.02369l0.06994,-0.10123l-0.0001,-0.00688l0.01525,-0.01505l0.03766,-0.0545l0.16117,-0.14171l0.15275,-0.15075l0.05703,-0.03371l0.0161,-0.01415l0.00686,0.00059l0.41851,-0.24737l0.071,-0.04969l0.11442,-0.11291l0.19643,-0.1161l0.06899,-0.0205l0.05786,-0.0428l0.29821,-0.12325l0.15902,-0.02354l0.10282,-0.03352l0.06107,-0.0383l0.2,-0.0652l0.1228,-0.00863l0.00992,-0.00324l0.08045,-0.05379l0.00161,-0.00442l0.01466,-0.00646l0.07025,-0.04697l0.1961,-0.07033l0.19066,-0.08396l0.08329,-0.01428l0.01508,-0.00541l0.00421,0.0021l0.27439,-0.04706l0.27795,-0.12712l0.08032,-0.01495l0.0712,-0.04007l0.42866,-0.11751l0.10929,-0.04867z" fill="#bed1db" stroke-width="0.5"/><path d="M253.13107,164.94787c0,-2.67532 0.04436,-5.391 -0.97456,-7.90282c0,0 -0.41325,-1.03313 0.61988,-1.44638c1.03313,-0.41325 1.44638,0.61988 1.44638,0.61988c1.10949,2.80685 1.13374,5.74748 1.13374,8.72932l-0.00229,0.02168c-0.7298,0.23526 -1.50548,0.39677 -2.28974,0.5404z" fill="#c5d8e2" stroke-width="0.5"/><path d="M253.52297,158.05477c-1.0911,0.21822 -1.30933,-0.87288 -1.30933,-0.87288l-0.16138,-0.82202c-0.08133,-0.71123 -0.38267,-1.37972 -0.56331,-2.07242c-0.39625,-1.51948 -0.18515,-3.15686 -0.46614,-4.69272c-0.10448,-0.5711 -0.37078,-1.10707 -0.45291,-1.6818c-0.44397,-3.1067 -0.49521,-6.31854 -1.45151,-9.34017c-0.73598,-2.32548 -2.07942,-4.32554 -2.93834,-6.58826c0,0 -0.3907,-1.04187 0.65116,-1.43257c1.04187,-0.3907 1.43258,0.65116 1.43258,0.65116c0.8567,2.3183 2.24468,4.37985 2.99612,6.7643c0.98473,3.12472 1.05722,6.4394 1.51573,9.65014c0.07735,0.54166 0.33996,1.04373 0.43726,1.58216c0.26386,1.46007 0.03186,3.07218 0.42403,4.50571c0.21627,0.79056 0.51536,1.56601 0.62359,2.37844l0.13535,0.6616c0,0 0.21822,1.09111 -0.87288,1.30933z" fill="#c5d8e2" stroke-width="0.5"/><path d="M220.61722,159.04735c0,-5.45356 -0.14028,-10.9314 1.09671,-16.27328c0.51121,-2.20768 1.19337,-4.28806 2.62649,-6.06249c0,0 0.70461,-0.86119 1.5658,-0.15658c0.86119,0.70461 0.15658,1.56581 0.15658,1.56581c-1.47348,1.77208 -1.95096,4.09022 -2.44555,6.30237c-1.06036,4.74259 -0.77459,9.79403 -0.77459,14.62418c-0.00302,1.2594 0.17988,2.43262 0.3463,3.68068l0.07622,0.36932c-0.54783,-0.38173 -1.03101,-0.81268 -1.41759,-1.3002c-0.2868,-0.35324 -0.70399,-0.71425 -1.13929,-1.01326c-0.05441,-0.57104 -0.08984,-1.14538 -0.09109,-1.73655z" fill="#c5d8e2" stroke-width="0.5"/><path d="M243.40824,142.10155c0.2023,-0.23996 0.42301,-0.45142 0.70924,-0.5616c0.59435,-0.22879 1.27227,0.06116 1.90841,0.09174c0.50284,0.2869 1.09944,0.45108 1.50853,0.86073c1.65252,1.65483 1.02979,5.00615 1.02868,7.11171c-0.00033,0.62278 0.05594,2.36466 -0.24073,2.85225c-1.70782,2.80685 -5.04687,1.07836 -6.01471,-1.29399c-0.2148,-0.5265 -0.20992,-2.31657 -0.18562,-2.8929c0.0748,-1.77497 0.2605,-3.58525 0.60628,-5.3256c0,0 0.12828,-0.64142 0.67993,-0.84232z" fill="#f1f5f7" stroke-width="0.5"/><path d="M235.6512,141.51987c1.07895,0.24797 2.00579,0.93746 2.86437,1.67532c0.3513,0.42702 0.82942,0.77572 1.05392,1.28105c0.6162,1.38702 0.21107,3.80705 0.09092,5.29126c-0.05106,0.63083 0.07723,1.33897 -0.24689,1.88256c-0.38591,0.64723 -1.05757,1.12162 -1.73775,1.44597c-2.01745,0.96203 -5.11377,-0.28636 -5.91886,-2.3109c-0.1889,-0.47502 -0.04922,-1.02132 -0.06023,-1.53239c-0.02776,-1.28806 0.00362,-2.68277 0.25283,-3.95054c0.10255,-0.52172 0.25161,-0.99002 0.43729,-1.43136l0.35072,-1.68143c0.3133,-0.1611 0.60374,-0.38929 0.91856,-0.54593c0.03357,-0.05063 0.06743,-0.10154 0.10152,-0.15276c0,0 0.61722,-0.92584 1.54305,-0.30862c0.15842,0.10561 0.27165,0.22026 0.35054,0.33775z" fill="#f1f5f7" stroke-width="0.5"/><path d="M238.41684,145.7417c0.74822,1.02878 0.48406,3.94051 -1.11617,3.5437c-1.21147,-0.3004 -0.97521,-1.4185 -0.56211,-2.40396c-0.116,-0.36134 -0.10905,-0.74576 0.24888,-1.07859c0.14236,-0.13238 0.27714,-0.22991 0.40408,-0.29676c0.0863,-0.13389 0.30525,-0.37793 0.6873,-0.21419c0.25698,0.11013 0.32948,0.29406 0.33801,0.4498z" fill="#2a2e30" stroke-width="0.5"/><path d="M246.40741,144.83038c0.52781,-0.17594 0.70374,0.35187 0.70374,0.35187l0.1928,0.58696c0.12225,0.95115 0.8041,3.27273 -0.8345,3.43525c-0.02195,0.00217 -0.0436,0.0037 -0.06498,0.0046c-0.17023,0.19912 -0.40285,0.31113 -0.71997,0.25752c-0.38635,-0.06531 -0.51036,-0.61944 -0.62952,-0.9927c-0.31073,-0.97342 0.31488,-2.24631 1.00277,-2.838c0,0 0.0092,-0.00736 0.02599,-0.0186l-0.02822,-0.08316c0,0 -0.17593,-0.52781 0.35187,-0.70374z" fill="#2a2e30" stroke-width="0.5"/><path d="M238.49391,161.41621l1.69026,-3.90873l18.38158,7.1836l-3.48616,2.95795z" fill="#c6deec" stroke-width="0"/><path d="M258.96178,165.83641c-0.76539,0.3329 -1.39837,-0.21114 -1.39837,-0.21114l-0.13322,-0.11857c-1.25919,-0.92877 -2.79787,-1.38138 -4.33743,-2.07201c-4.03795,-1.81139 -8.08848,-3.4904 -12.45532,-4.9118c0,0 -0.93129,-0.30403 -0.58604,-0.8647c0.34525,-0.56068 1.27651,-0.25665 1.27651,-0.25665c4.46,1.45992 8.60972,3.16883 12.73957,5.02134c1.71561,0.76957 3.35001,1.28942 4.77256,2.32225l0.25413,0.21435c0,0 0.63298,0.54403 -0.1324,0.87692z" fill="#a1b9c7" stroke-width="0.5"/><path d="M237.472,160.973c0.50172,-0.99319 1.4949,-0.49146 1.4949,-0.49146c1.04546,0.52813 2.92727,1.47877 3.97272,2.0069c2.49616,1.2645 5.19485,2.01583 7.79564,3.02572c1.51493,0.58825 3.50448,1.27095 5.12971,0.75226c0.72711,-0.23206 0.97809,-0.85134 1.24142,-1.49322c0.73098,0.22473 1.56248,0.36329 2.3617,0.50834c-0.41046,0.83626 -0.90762,1.77545 -1.30948,2.17252c-1.61626,1.59706 -3.82357,1.26128 -5.76805,0.82142c-3.49873,-0.79145 -7.23941,-2.18075 -10.45436,-3.8007c-1.04546,-0.52813 -2.0909,-1.05626 -3.13636,-1.58439l-0.83637,-0.42251c0,0 -0.99317,-0.50172 -0.49145,-1.4949z" fill="#a1b9c7" stroke-width="0.5"/><path d="M243.03629,157.07372l-2.58428,-7.94747c0,0 3.2585,2.56314 5.74313,3.19036c3.46048,0.87357 13.07988,1.56135 13.07988,1.56135l-2.43235,3.87124z" fill="#c6deec" stroke-width="0"/><path d="M257.76286,157.01123c-0.09361,-1.29438 -0.12403,-1.94065 -0.77239,-3.09123c0,0 -0.00054,-0.00099 -0.00155,-0.00292c-3.1185,-0.00666 -6.19939,0.49043 -9.3332,0.17274c-1.52024,-0.1541 -3.17319,-0.35168 -4.45398,-1.26664c-1.12859,-0.80624 -1.95764,-2.17781 -2.66443,-3.32784c0,0 -0.58034,-0.94939 0.36904,-1.52974c0.94938,-0.58034 1.52973,0.36904 1.52973,0.36904c0.556,0.91516 1.20363,2.03663 2.08683,2.6977c0.89067,0.66666 2.29791,0.73511 3.35719,0.84341c3.33019,0.34049 6.60685,-0.27188 9.93199,-0.17092l0.78163,0.33744c0,0 0.51937,0.4059 0.44623,0.99261c0.42554,0.81346 0.79051,1.68253 0.91142,2.58875c0.02821,0.21149 0.06921,0.48548 0.11328,0.7922c-0.7492,0.33565 -1.53978,0.70558 -2.26403,0.91728c-0.01663,-0.10689 -0.02997,-0.21422 -0.03775,-0.32189z" fill="#a1b9c7" stroke-width="0.5"/><path d="M242.40825,156.87796c0.0122,-0.55979 1.01213,-0.55296 1.01213,-0.55296l0.90735,0.00657c4.96241,0.13473 9.8318,-0.02659 14.75555,-0.27761c0,0 0.99602,-0.04989 1.08515,0.50771c0.08912,0.5576 -0.9069,0.60749 -0.9069,0.60749c-5.01821,0.24638 -9.97323,0.41675 -15.03021,0.28076l-0.83535,-0.00535c0,0 -0.99993,-0.00684 -0.98772,-0.56662z" fill="#a1b9c7" stroke-width="0.5"/><path d="M251.04621,152.60495c-0.01502,-0.09562 -0.01937,-0.2016 -0.01034,-0.31907c0.08534,-1.10944 1.19478,-1.0241 1.19478,-1.0241c1.52224,0.11811 3.07189,0.20832 4.58625,0.35362c0.58314,0.05595 1.26107,-0.06626 1.73541,0.27752c1.63152,1.18249 1.63573,5.08897 -0.01763,6.22022c-0.49668,0.33983 -1.17229,0.28818 -1.77061,0.35295c-2.18975,0.23703 -3.93107,-0.81167 -5.03546,-2.66831c-0.43588,-0.73278 -1.20496,-2.19292 -0.68239,-3.19283z" fill="#131415" stroke-width="0.5"/><path d="M260.74927,164.79196c0.22702,2.95122 -4.50867,-0.7087 -5.70564,-1.20835c-0.6609,-0.27588 -3.01829,-0.60415 -3.31833,-1.12921c-0.29474,-0.17395 -0.49247,-0.49479 -0.49247,-0.86182c0,-0.07683 0.00866,-0.15163 0.02507,-0.22348c0.67854,-4.85511 9.20329,-0.3222 9.49137,3.42285z" fill="#751515" stroke-width="0.5"/></g></g></svg>