<svg version="1.1" xmlns="http://www.w3.org/2000/svg" xmlns:xlink="http://www.w3.org/1999/xlink" width="145" height="177.18472" viewBox="0,0,145,177.18472"><g transform="translate(-252.5,-80.31528)"><g data-paper-data="{&quot;isPaintingLayer&quot;:true}" fill-rule="nonzero" stroke="none" stroke-linecap="butt" stroke-linejoin="miter" stroke-miterlimit="10" stroke-dasharray="" stroke-dashoffset="0" style="mix-blend-mode: normal"><path d="M252.5,185c0,-40.04064 32.45936,-72.5 72.5,-72.5c40.04064,0 72.5,32.45936 72.5,72.5c0,40.04064 -32.45936,72.5 -72.5,72.5c-40.04064,0 -72.5,-32.45936 -72.5,-72.5z" fill="#8dbadd" stroke-width="0"/><text transform="translate(272.46132,96.64294) scale(0.32332,0.32332)" font-size="40" xml:space="preserve" fill="#8dbadd" fill-rule="nonzero" stroke="none" stroke-width="1" stroke-linecap="butt" stroke-linejoin="miter" stroke-miterlimit="10" stroke-dasharray="" stroke-dashoffset="0" font-family="Pixel" font-weight="normal" text-anchor="start" style="mix-blend-mode: normal"><tspan x="0" dy="0">average device</tspan></text><path d="M280.58968,206.51097v-55.35437h27.41852v55.35437z" fill="#303f4a" stroke-width="0"/><path d="M310.59485,185.04175v-33.88515h56.90636v33.88515z" fill="#303f4a" stroke-width="0"/><path d="M332.84007,205.21765v-25.09054h12.41593v25.09054z" fill="#303f4a" stroke-width="0"/><path d="M319.64814,205.73498v-5.43197h38.28246v5.43197z" fill="#303f4a" stroke-width="0"/><path d="M315.95889,179.49733v-22.88104h45.53096v22.88104z" fill="#8dbadd" stroke-width="0"/><path d="M283.69366,163.0552v-4.91464h21.46922v4.91464z" fill="#8dbadd" stroke-width="0"/><path d="M283.77902,170.90052v-4.91464h21.46922v4.91464z" fill="#8dbadd" stroke-width="0"/><path d="M285.24565,200.82034v-17.07191h17.8479v17.07191z" fill="#8dbadd" stroke-width="0"/></g></g></svg>