<svg version="1.1" xmlns="http://www.w3.org/2000/svg" xmlns:xlink="http://www.w3.org/1999/xlink" width="39.67203" height="41.25844" viewBox="0,0,39.67203,41.25844"><g transform="translate(-304.1988,-125.36487)"><g data-paper-data="{&quot;isPaintingLayer&quot;:true}" fill-rule="nonzero" stroke="none" stroke-linecap="butt" stroke-linejoin="miter" stroke-miterlimit="10" stroke-dasharray="" stroke-dashoffset="0" style="mix-blend-mode: normal"><path d="M320.41234,136.92366c0,0.37504 -0.16517,0.71151 -0.42673,0.94063c-0.12126,0.19374 -0.32252,0.37116 -0.64769,0.49019l-0.46006,0.34505l-0.03317,-0.04423l-0.09118,0.12639c-2.82542,1.23128 -5.73555,2.24703 -8.28186,4.0012c0,0 -0.06845,0.04684 -0.18216,0.09875c-0.03517,0.04815 -0.07487,0.09662 -0.1195,0.14531c-0.84466,0.92144 -1.7661,0.07679 -1.7661,0.07679c-3.30313,-3.05631 -4.91719,-8.82416 -3.90585,-13.27987c0.71501,-3.15015 2.42074,-5.22983 6.04453,-4.18763c1.95266,0.56158 3.58379,2.50952 5.00553,3.83673c1.81823,1.82459 3.27733,3.63373 4.10617,6.09456l0.08896,0.24903c0.39782,0.20916 0.66912,0.62646 0.66912,1.10712z" fill="#eb7fe1" stroke-width="0.5"/><path d="M335.60234,146.63788l-0.51997,-0.85975c-1.0935,-2.59542 -3.3317,-4.30236 -5.37209,-6.15939c-0.23895,0.26824 -0.63925,0.5041 -1.26562,0.30836c-1.1931,-0.37284 -0.82026,-1.56594 -0.82026,-1.56594c0.87899,-2.80911 1.42894,-5.92747 3.59506,-8.10712c1.9601,-1.97234 4.46868,-2.62109 7.09738,-2.9327c0.80323,-0.09522 2.4844,-0.66858 3.1961,-0.3554c2.67622,1.17765 2.34912,5.72175 2.34158,8.01192c-0.83435,4.23427 -1.8681,8.27769 -4.99443,11.42909l-0.8418,0.92651c0,0 -0.84084,0.92493 -1.76577,0.08408c-0.15923,-0.14475 -0.26613,-0.292 -0.33399,-0.43659c-0.2047,-0.16468 -0.3162,-0.34308 -0.3162,-0.34308z" fill="#eb7fe1" stroke-width="0.5"/><path d="M305.84542,164.92284c0,0 0.01629,-11.43997 1.45955,-16.42292c0.08489,-0.29308 1.66131,-5.05474 1.72797,-5.28028c0.45356,-1.53454 3.93748,-4.4218 3.93748,-4.4218c0,0 4.4582,-2.03417 8.19437,-2.41737c1.98468,-0.20356 5.18679,3.48826 8.80737,3.33296c7.81539,-0.33524 10.62326,26.70941 10.62326,26.70941z" fill="#ffbb00" stroke-width="0"/><path d="M340.5445,166.61876c-1.24683,0.08906 -1.33589,-1.15777 -1.33589,-1.15777l-0.08765,-1.23026c-0.09987,-1.90695 -0.11347,-3.6832 -0.41979,-5.57575c-1.07454,-8.28686 -4.70182,-16.16654 -12.97224,-19.17333c-2.6214,-0.95303 -4.37838,-1.7939 -7.20353,-1.4336c-2.09659,0.82649 -4.52711,1.8628 -6.18547,3.41281c-5.77645,5.39901 -5.2776,14.77894 -4.94612,22.04396c0,0 0.05676,1.24871 -1.19195,1.30547c-1.24871,0.05676 -1.30547,-1.19195 -1.30547,-1.19195c-0.365,-8.05974 -0.67429,-18.04942 5.74354,-23.99051c1.98334,-1.83602 4.76335,-3.03911 7.2628,-4.00099c13.29834,-1.82708 21.76497,11.17578 23.27251,22.66894c0.31187,1.97036 0.33739,3.82094 0.44227,5.80356l0.08476,1.18353c0,0 0.08906,1.24683 -1.15776,1.33589z" fill="#eaac00" stroke-width="0.5"/><path d="M326.28661,142.88396c0.2023,-0.23996 0.42301,-0.45142 0.70924,-0.5616c0.59435,-0.22879 1.27227,0.06116 1.90841,0.09174c0.50284,0.2869 1.09944,0.45108 1.50853,0.86073c1.65252,1.65483 1.02979,5.00615 1.02868,7.11171c-0.00033,0.62278 0.05594,2.36466 -0.24073,2.85225c-1.70782,2.80685 -5.04687,1.07836 -6.01471,-1.29399c-0.2148,-0.5265 -0.20992,-2.31657 -0.18562,-2.8929c0.0748,-1.77497 0.2605,-3.58525 0.60628,-5.3256c0,0 0.12828,-0.64142 0.67993,-0.84232z" fill="#f1f5f7" stroke-width="0.5"/><path d="M317.34438,142.20968c1.07895,0.24797 2.00579,0.93746 2.86437,1.67532c0.3513,0.42702 0.82942,0.77572 1.05392,1.28105c0.6162,1.38702 0.21107,3.80705 0.09092,5.29126c-0.05106,0.63083 0.07723,1.33897 -0.24689,1.88256c-0.38591,0.64723 -1.05757,1.12162 -1.73775,1.44597c-2.01745,0.96203 -5.11377,-0.28636 -5.91886,-2.3109c-0.1889,-0.47502 -0.04922,-1.02132 -0.06023,-1.53239c-0.02776,-1.28806 0.00362,-2.68277 0.25283,-3.95054c0.10255,-0.52172 0.25161,-0.99002 0.43729,-1.43136l0.35072,-1.68143c0.3133,-0.1611 0.60374,-0.38929 0.91856,-0.54593c0.03357,-0.05063 0.06743,-0.10154 0.10152,-0.15276c0,0 0.61722,-0.92584 1.54305,-0.30862c0.15842,0.10561 0.27165,0.22026 0.35054,0.33775z" fill="#f1f5f7" stroke-width="0.5"/><path d="M320.30791,144.07198c0.74822,1.02878 0.48406,3.94051 -1.11617,3.5437c-1.21147,-0.3004 -0.97521,-1.4185 -0.56211,-2.40396c-0.116,-0.36134 -0.10905,-0.74576 0.24888,-1.07859c0.14236,-0.13238 0.27714,-0.22991 0.40408,-0.29676c0.0863,-0.13389 0.30525,-0.37793 0.6873,-0.21419c0.25698,0.11013 0.32948,0.29406 0.33801,0.4498z" fill="#2a2e30" stroke-width="0.5"/><path d="M329.25543,143.00033c0.52781,-0.17594 0.70374,0.35187 0.70374,0.35187l0.1928,0.58696c0.12225,0.95115 0.8041,3.27273 -0.8345,3.43525c-0.02195,0.00217 -0.0436,0.0037 -0.06498,0.0046c-0.17023,0.19912 -0.40285,0.31113 -0.71997,0.25752c-0.38635,-0.06531 -0.51036,-0.61944 -0.62952,-0.9927c-0.31073,-0.97342 0.31488,-2.24631 1.00277,-2.838c0,0 0.0092,-0.00736 0.02599,-0.0186l-0.02822,-0.08316c0,0 -0.17593,-0.52781 0.35187,-0.70374z" fill="#2a2e30" stroke-width="0.5"/><path d="M324.14036,158.75869c0.10945,0 0.21069,0.03517 0.29303,0.09482c0.29659,0.03737 0.54408,0.03517 0.68172,-0.09037c1.45099,-1.32346 2.98498,-1.71344 2.95472,1.05351c-0.39008,1.05895 -0.79306,1.49649 -1.5574,1.65702c0.67682,2.69144 4.04143,3.93553 4.87723,0.55438l0.08885,-0.27122c0,0 0.15811,-0.47434 0.63246,-0.31623c0.47434,0.15811 0.31623,0.63246 0.31623,0.63246l-0.0674,0.19753c-1.0815,4.28346 -5.63589,3.14179 -6.73237,-0.26462c-0.60023,2.01564 -2.94977,3.63789 -5.06226,2.03221c-0.65625,-0.49881 -0.74383,-1.17349 -1.35428,-1.66099c0,0 -0.38411,-0.32009 -0.06402,-0.7042c0.32009,-0.38411 0.7042,-0.06402 0.7042,-0.06402c1.63181,1.40146 3.89464,3.36769 4.82415,0.0905l-0.0005,-0.00662c-1.16521,-0.31283 -3.11211,-1.3422 -2.43825,-2.54994c0.32795,-0.58777 1.08093,-0.47393 1.74992,-0.36005c0.0485,-0.01568 0.10025,-0.02415 0.15397,-0.02415z" fill="#2a2e30" stroke-width="0.5"/></g></g></svg>