<svg version="1.1" xmlns="http://www.w3.org/2000/svg" xmlns:xlink="http://www.w3.org/1999/xlink" width="64.42744" height="67.82034" viewBox="0,0,64.42744,67.82034"><g transform="translate(-292.78324,-173.8814)"><g data-paper-data="{&quot;isPaintingLayer&quot;:true}" fill-rule="nonzero" stroke="none" stroke-linecap="butt" stroke-linejoin="miter" stroke-miterlimit="10" stroke-dasharray="" stroke-dashoffset="0" style="mix-blend-mode: normal"><g stroke-width="0.5"><path d="M312.58518,225.73153c0.29577,1.99613 0.41252,4.14921 0.41252,6.18427c0,0.15859 0.00043,0.31709 0.00125,0.47551c-0.31677,0.00223 -0.63341,0.0035 -0.94987,0.0035c-1.54755,0 -3.0951,0 -4.64264,0c0.00053,-0.09397 0.00089,-0.18783 0.00108,-0.28158c-0.27916,-2.23326 0.1683,-4.58255 -0.15856,-6.79736c-0.18068,-1.22428 -0.59068,-2.46734 -0.75237,-3.70444c1.52233,0.3229 3.3048,-0.05892 4.79358,-0.05892c0.28257,0 0.56329,-0.00476 0.84199,-0.02507c0.32896,1.37648 0.24404,2.79364 0.45302,4.20409z" fill="#b0c1ca"/><path d="M307.17591,225.26521c-0.15127,-1.14201 -0.00591,-2.40098 -0.00493,-3.55468c0.36364,0.03255 0.73676,0.0363 1.11266,0.02436c-0.00335,1.09264 -0.15671,2.30565 -0.00487,3.38263c0.3452,2.44842 0.92782,4.76902 0.92905,7.27729c-0.37072,0 -0.74143,0 -1.11215,0c-0.01068,-2.45846 -0.60124,-4.72481 -0.91977,-7.12959z" fill="#c7d7e0"/><path d="M308.04635,225.49814c-0.09757,-1.06053 0.42021,-2.33896 -0.09759,-3.29363c0,0 -0.11772,-0.23543 -0.02928,-0.46338c0.33801,-0.00037 0.68008,-0.01707 1.02125,-0.0404c0.00218,0.00399 0.00326,0.00617 0.00326,0.00617c0.57937,1.22288 0.10628,2.39601 0.21057,3.69133c0.19061,2.3676 1.08131,4.59563 1.17547,6.99661c-0.37071,0 -0.74142,0 -1.11214,0c-0.08958,-2.35868 -0.95748,-4.5696 -1.17155,-6.89668z" fill="#cdd0e0"/></g><g stroke-width="0.5"><path d="M327.40774,227.38246c0.19432,1.96748 0.31398,3.97272 0.37059,5.96848c-1.47448,-0.47922 -3.0044,-0.761 -4.56625,-0.90921c0.03326,-3.38391 0.12442,-6.75126 -0.45338,-10.06557c1.42215,0.33575 2.62947,0.61754 4.02973,0.73055c0.00737,1.44675 0.4737,2.80146 0.61931,4.27575z" fill="#b0c1ca"/><path d="M323.40721,222.70797c0,0 -0.01196,-0.07771 0.00234,-0.17921c0.38652,0.08952 0.76092,0.17327 1.13244,0.24866c0.45556,3.26177 -0.00233,6.60602 0.2631,9.86622c-0.37006,-0.05951 -0.74243,-0.11002 -1.1168,-0.15241c-0.21037,-3.2425 0.21634,-6.55034 -0.28108,-9.78326z" fill="#c7d7e0"/><path d="M325.13838,224.73774c0.55635,0 0.55635,0.55635 0.55635,0.55635v0.2568c0,0.85147 -0.01636,1.61479 -0.22205,2.44614c0,0 -0.13494,0.53975 -0.67468,0.40481c-0.53974,-0.13494 -0.40481,-0.67468 -0.40481,-0.67468c0.18743,-0.74093 0.18882,-1.41555 0.18882,-2.17627v-0.2568c0,0 0.00001,-0.55635 0.55636,-0.55635z" fill="#cdd0e0"/></g><path d="M332.86839,209.50339c0.05703,0.19959 0.0183,0.34599 -0.05266,0.45111l-0.03104,0.16689c0,1.00428 0,2.00856 0,3.01284c0,0.72347 0.03643,1.34894 -0.19197,2.05046c-0.46724,1.43508 -1.36648,2.25274 -2.49516,2.68755v0.14767c0,1.88327 0.49504,4.62498 -1.90119,5.0335c-0.46833,0.00107 -0.92542,-0.0222 -1.3775,-0.05732c-0.00553,0.05522 -0.01027,0.11027 -0.01424,0.16516c-1.45507,-0.10772 -2.69168,-0.3927 -4.20326,-0.78708c0,0 -0.21337,-0.05334 -0.28988,0.14017c-0.4022,-0.11575 -0.77605,-0.30044 -1.06794,-0.60545c-1.17175,-1.22439 -1.11708,-2.99635 -1.28606,-4.57128c-1.7658,-0.32363 -3.59285,-0.35032 -5.42555,-0.33968c0.02344,0.12856 0.00208,0.23537 0.00208,0.23537l-0.07403,0.35947c-0.22076,1.94277 -0.4986,3.60234 -2.50322,3.87566c0.01347,0.03934 0.02651,0.07872 0.03913,0.11814c-0.23454,0.01296 -0.47043,0.01479 -0.70573,0.01479c-1.46046,0 -3.34103,0.43575 -4.84535,0.04331c-0.00333,-0.04927 -0.00615,-0.09852 -0.00845,-0.14775c-0.36151,-0.06865 -0.70351,-0.16721 -1.01362,-0.30557c-0.03557,-0.02435 -0.07069,-0.04958 -0.10535,-0.07573c0,0 -0.06787,-0.0509 -0.15419,-0.05387c-0.38434,-0.21429 -0.70671,-0.50311 -0.93849,-0.88931c-0.78747,-1.31211 -0.48896,-3.16189 -0.48266,-4.63054c-1.63022,-1.63705 -1.41826,-5.0258 -1.1343,-7.04633c0,0 0.06413,-0.44892 0.48189,-0.47827c0.28606,-0.16467 0.58616,0.04969 0.58616,0.04969c2.1287,1.5205 5.04326,1.38896 7.57377,1.74952c1.28314,0.18283 2.59522,0.49586 3.89414,0.4909c4.9269,0 9.90589,0.21333 14.7507,-0.41803c0.61664,-0.13691 1.12832,-0.30473 1.69297,-0.58872l0.3697,-0.11181c0.09647,-0.08326 0.23807,-0.13918 0.44413,-0.10484c0.16286,0.02714 0.26933,0.09457 0.33854,0.17597c0.05311,0.05852 0.09835,0.13747 0.12861,0.24339z" fill="#b0c1ca" stroke-width="0.5"/><path d="M307.72734,221.69138c0.1635,0 0.27894,0.04805 0.36047,0.1159c-0.23622,0.0037 -0.47035,-0.00055 -0.70014,-0.01631c0.08003,-0.05911 0.18961,-0.09959 0.33967,-0.09959z" fill="#c7d7e0" stroke-width="0.5"/><path d="M323.87249,222.62234c0.26176,-0.04027 0.41808,0.06323 0.51004,0.18275c-0.21439,-0.04568 -0.43049,-0.09474 -0.6502,-0.14691c0.0414,-0.01557 0.08792,-0.0278 0.14016,-0.03584z" fill="#c7d7e0" stroke-width="0.5"/><path d="M304.88507,215.69114c0.27223,0.27223 0.1677,0.54447 0.07748,0.68634c-0.29094,1.7369 0.12009,2.98039 1.87637,3.60116c0,0 0.52286,0.19013 0.33273,0.71299c-0.19013,0.52286 -0.71299,0.33274 -0.71299,0.33274c-2.30751,-0.85762 -2.98383,-2.64049 -2.56574,-4.98798l0.20534,-0.34524c0,0 0.39341,-0.39341 0.78681,0z" fill="#c7d7e0" stroke-width="0.5"/><path d="M303.6699,209.00547c0.55635,0 0.55636,0.55635 0.55636,0.55635v0.20544c0,1.58566 0.35411,2.64881 0.89098,4.1241c0,0 0.19012,0.52286 -0.33273,0.71299c-0.52286,0.19013 -0.71299,-0.33274 -0.71299,-0.33274c-0.57556,-1.58401 -0.95798,-2.79844 -0.95798,-4.50437v-0.20544c0,0 0,-0.55635 0.55635,-0.55635z" fill="#c7d7e0" stroke-width="0.5"/><path d="M305.61824,214.5089c-0.4274,0.35617 -0.78358,-0.07124 -0.78358,-0.07124l-0.34295,-0.45034c-0.6492,-1.5633 -0.96626,-2.5944 -0.81091,-4.32179c0,0 0.05036,-0.55408 0.60444,-0.5037c0.55407,0.05037 0.5037,0.60444 0.5037,0.60444c-0.14587,1.58593 0.13265,2.36412 0.72988,3.79309l0.17065,0.16598c0,0 0.35617,0.4274 -0.07124,0.78357z" fill="#cdd0e0" stroke-width="0.5"/><path d="M307.63417,219.87189c-0.29487,0.47179 -0.76666,0.17692 -0.76666,0.17692l-0.30615,-0.20573c-1.72415,-0.63459 -1.71658,-1.62002 -1.85374,-3.2501c0,0 -0.0462,-0.55444 0.50823,-0.60064c0.55443,-0.0462 0.60063,0.50823 0.60063,0.50823c0.10024,1.2139 -0.12355,1.84929 1.12514,2.29679l0.51561,0.30787c0,0 0.4718,0.29487 0.17692,0.76666z" fill="#cdd0e0" stroke-width="0.5"/><path d="M323.71777,221.90568c0.3934,-0.39341 0.78681,0 0.78681,0l0.09712,0.10319c0.11984,0.15408 0.23968,0.30816 0.35952,0.46224c0,0 0.1714,0.22037 0.11526,0.47031c-0.46157,-0.08246 -0.92148,-0.18213 -1.39906,-0.29636c-0.08914,-0.11605 -0.27131,-0.42772 0.04036,-0.7394z" fill="#cdd0e0" stroke-width="0.5"/><path d="M324.6815,223.3542c-0.21645,0.0761 -0.39525,-0.01985 -0.49948,-0.10325c0.16739,0.036 0.33361,0.07049 0.49948,0.10325z" fill="#cdd0e0" stroke-width="0.5"/><path d="M320.51598,216.34994c0.55635,0 0.55635,0.55636 0.55635,0.55636v0.10272c-0.00097,1.53089 0.60088,2.62614 1.36229,3.93118c0,0 0.28033,0.48056 -0.20024,0.7609c-0.48057,0.28034 -0.7609,-0.20023 -0.7609,-0.20023c-0.86185,-1.47773 -1.51283,-2.75105 -1.51387,-4.49185v-0.10272c0,0 0.00001,-0.55636 0.55636,-0.55636z" fill="#cdd0e0" stroke-width="0.5"/><path d="M299.24358,236.24753c-0.4466,-0.01137 -0.8932,-0.02274 -1.3398,-0.03411c-0.04531,-0.35877 -0.09626,-0.71898 -0.21806,-1.07801c-0.56288,-0.79022 -0.33303,-1.98603 -0.18314,-3.16384c1.00932,-0.03136 2.01734,-0.27776 2.94734,-0.6517l0.4585,-0.18436c0.09473,-0.03557 0.16214,-0.12697 0.16214,-0.23412c0,-0.06491 -0.02474,-0.12404 -0.0653,-0.16848c0.28673,-0.11341 0.50325,-0.21172 0.59623,-0.27351l0.00719,-0.01027l0.00234,0.00287l0.11184,-0.09128c3.21321,-0.12151 6.52067,0.15685 9.717,0.27418c-0.03943,1.54847 -0.07885,3.09693 -0.11828,4.64539c-0.00809,0.31766 -0.0149,0.63552 -0.02076,0.95354c-4.03986,-0.06131 -8.0347,0.1161 -12.05725,0.01369z" fill="#b0c1ca" stroke-width="0.5"/><path d="M298.94711,230.96149c0.03486,-0.00026 0.06975,-0.00051 0.10468,-0.00076l0.02794,0.04656l0.07893,-0.04736c0.0921,-0.00073 0.18444,-0.00163 0.27709,-0.00304c-0.18828,0.06737 -0.37399,0.12532 -0.5488,0.168c-0.11387,0.01311 -0.22926,0.02582 -0.34492,0.03866c0.12644,-0.06008 0.24978,-0.12402 0.36884,-0.19326c0.01208,-0.00292 0.02416,-0.00585 0.03624,-0.0088z" fill="#b0c1ca" stroke-width="0.5"/><path d="M300.44298,230.52875c-0.015,0.00727 -0.0301,0.01455 -0.0453,0.02184c-0.00354,-0.00132 -0.00708,-0.00263 -0.01063,-0.00394c0.01863,-0.00595 0.03728,-0.01192 0.05593,-0.0179z" fill="#b0c1ca" stroke-width="0.5"/><path d="M297.75427,235.99797l-0.09231,0.03046c-0.93323,0.30798 -3.13422,1.46416 -4.08542,0.95746c-0.19141,-0.10196 -0.52326,-1.19226 -0.60809,-1.45213c-0.80811,-2.47555 1.1832,-2.90582 2.97851,-3.79677c1.83196,-0.60925 3.5971,-0.99478 5.43515,-1.45068c0.63698,-0.15799 1.7207,-0.36402 2.3439,-0.00316c1.54872,0.89681 0.83813,2.77301 -0.34622,3.5276l0.01384,0.07745c-1.32066,0.89414 -3.77977,0.60585 -4.75435,1.85474c-0.25254,0.19533 -0.52186,0.34264 -0.79376,0.48084c-0.03624,-0.05664 -0.07529,-0.13482 -0.09125,-0.22582z" fill="#b0c1ca" stroke-width="0.5"/><path d="M297.76562,230.92888c0.18826,0.00479 0.94129,0.02397 1.12955,0.02876c1.43633,0.03657 2.83666,0.32715 4.27676,0.41763c2.75223,0.17293 5.50351,0.10387 8.24947,-0.01597c-0.00946,0.37158 -0.01892,0.74316 -0.02838,1.11475c-2.76096,0.12163 -5.52844,0.18383 -8.29561,0.01145c-1.42415,-0.08872 -2.81211,-0.37938 -4.23056,-0.41549c-0.18826,-0.00479 -0.37652,-0.00959 -0.56478,-0.01438l-0.56478,-0.01438c0,0 -0.1133,-0.00288 -0.23632,-0.05719c0.04455,-0.34881 0.08236,-0.69618 0.09078,-1.03109c0.09716,-0.02603 0.17386,-0.02408 0.17386,-0.02408z" fill="#c7d7e0" stroke-width="0.5"/><path d="M306.92568,232.6948c0.01416,-0.55617 0.57033,-0.54202 0.57033,-0.54202l0.30807,0.00784c1.20619,0.03148 2.3831,0.25624 3.58937,0.29653c-0.00944,0.37073 -0.01888,0.74145 -0.02832,1.11218c-1.20613,-0.04238 -2.38446,-0.26651 -3.58937,-0.29636l-0.30807,-0.00784c0,0 -0.55617,-0.01416 -0.54201,-0.57033z" fill="#cdd0e0" stroke-width="0.5"/><path d="M299.59144,232.1998c0.01416,-0.55617 0.57034,-0.54202 0.57034,-0.54202l0.28389,0.01282c1.91701,0.32786 3.87775,0.4485 5.79753,0.81748c0,0 0.54628,0.10541 0.44088,0.65168c-0.1054,0.54627 -0.65168,0.44088 -0.65168,0.44088c-1.91015,-0.37009 -3.86305,-0.49397 -5.77207,-0.81289l-0.12686,0.00236c0,0 -0.55618,-0.01416 -0.54202,-0.57033z" fill="#cdd0e0" stroke-width="0.5"/><path d="M297.84479,231.85568c0.30717,0.00782 0.54984,0.26316 0.54202,0.57033c-0.00782,0.30717 -0.26317,0.54983 -0.57034,0.54201c-0.16882,-0.0043 -0.31816,-0.08336 -0.41713,-0.2047c0.03225,-0.26493 0.07052,-0.53384 0.10451,-0.80177c0.09551,-0.06942 0.21379,-0.1091 0.34094,-0.10587z" fill="#cdd0e0" stroke-width="0.5"/><path d="M324.98943,236.98638c-3.50561,-0.17021 -6.9947,0.85447 -10.52133,0.79962c-0.05662,-0.39367 -0.06224,-0.78921 0.07218,-1.19249c0.01426,-2.1038 0.8582,-3.047 1.55276,-4.56521c3.77269,0.17004 7.53642,0.27469 11.30994,0.45269c0.33561,0.01583 0.67104,0.03329 1.00627,0.05166c-0.22514,1.55864 -0.58567,3.07698 -1.14621,4.53513c-0.76115,-0.01846 -1.51988,-0.04585 -2.2736,-0.0814z" fill="#b0c1ca" stroke-width="0.5"/><path d="M310.89506,239.39588l-0.09051,-0.13429c-0.89472,0.79801 -1.80697,2.32152 -2.89735,2.43561c-1.1729,0.12274 -3.02602,-2.27431 -2.71572,-3.42062c0.02633,-0.09726 0.92006,-0.93859 1.10887,-1.08636c1.06403,-0.83278 2.24471,-1.61079 3.36255,-2.36624c1.35046,-0.9102 2.7003,-1.82132 4.05137,-2.73061c0.32566,-0.21917 1.08322,-0.78113 1.46578,-0.75488c1.09491,0.07512 2.33146,2.31654 2.6246,3.2277c0.09572,0.29752 0.28068,0.61165 0.20505,0.9149c-0.13094,0.52504 -1.25318,1.21939 -1.65582,1.57072c0,0 -0.00031,0.00027 -0.00093,0.0008l0.0638,0.09466c0.02336,0.03466 0.04673,0.06931 0.0701,0.10396c-1.57606,0.32326 -2.88488,0.2313 -4.52489,1.47377c-0.42301,0.13945 -0.75698,0.39124 -1.05747,0.68486c-0.00314,-0.00465 -0.00628,-0.00931 -0.00942,-0.01397z" fill="#b0c1ca" stroke-width="0.5"/><g stroke-width="0.5"><path d="M315.66985,233.30759c3.85463,0.18183 7.62001,0.33927 11.4334,-0.17282c0.40803,-0.04232 0.8168,-0.07001 1.22619,-0.08623c-0.06197,0.3752 -0.13229,0.74791 -0.21188,1.11784c-0.2945,0.01738 -0.58854,0.04138 -0.88208,0.07322c-3.87626,0.51408 -7.70141,0.36423 -11.61807,0.17947l-0.56432,-0.02662c0,0 -0.04459,-0.0021 -0.10791,-0.01775c0.14531,-0.37718 0.3191,-0.72563 0.50319,-1.07755z" fill="#c7d7e0"/><path d="M314.52356,233.8105v-0.00001c0.01526,-0.32343 0.20987,-0.44975 0.36991,-0.49885c-0.1224,0.23504 -0.23967,0.47091 -0.34585,0.71626c-0.01869,-0.06153 -0.02802,-0.13342 -0.02406,-0.21741z" fill="#c7d7e0"/><path d="M321.59393,235.06952c-0.02622,0.55573 -0.58196,0.52953 -0.58196,0.52953l-0.0513,-0.00242c-1.94017,-0.09152 -3.85932,-0.07922 -5.80207,-0.17086c0,0 -0.31368,-0.0148 -0.4586,-0.25782c0.06696,-0.28784 0.15212,-0.55318 0.25001,-0.80575c0.13491,-0.05385 0.26102,-0.0479 0.26102,-0.0479c1.94276,0.09164 3.8615,0.07932 5.80207,0.17086l0.0513,0.00242c0,0 0.55574,0.02622 0.52953,0.58195z" fill="#cdd0e0"/><path d="M326.16612,235.26761c0,0 -0.55146,0.07362 -0.62509,-0.47784c-0.07362,-0.55147 0.47784,-0.62509 0.47784,-0.62509c0.73782,-0.09714 1.44729,-0.28767 2.18108,-0.39882c-0.07721,0.39312 -0.16441,0.78325 -0.26268,1.17006c-0.59051,0.10852 -1.17105,0.25059 -1.77115,0.33169z" fill="#cdd0e0"/></g><path d="M304.86317,208.56797c0,0 -1.68832,-20.24438 -2.42849,-31.48975c1.37538,0.64697 2.73876,1.60591 4.31566,1.61283c2.66451,0.47304 5.59172,1.15489 8.29171,1.15489c2.86138,0 5.75739,0.23079 8.65451,0.23079c3.05548,0 5.95803,-0.39519 8.83054,-1.04601c0.39847,-0.1014 0.82229,-0.20128 1.26001,-0.29724c0.02234,0.63816 0.03174,1.29606 0.02303,1.97236c-0.05526,4.28593 -0.94731,9.08451 -1.15863,13.52263c-0.39713,8.34034 -0.19302,15.40772 -0.19302,15.40772z" fill="#e3a500" stroke-width="0"/><path d="M334.00378,180.82419c-1.10591,-0.12288 -0.98303,-1.22879 -0.98303,-1.22879l0.08368,-0.70637c0.71182,-0.16863 1.48107,-0.32965 2.252,-0.47148c0.00006,0.08216 0.00008,0.16435 0.00008,0.24658l-0.12393,1.17703c0,0 -0.12288,1.10591 -1.22879,0.98303z" fill="#c5d8e2" stroke-width="0.5"/><path d="M302.39324,178.12752c-1.0911,0.21822 -1.30933,-0.87288 -1.30933,-0.87288l-0.10086,-0.51624c-0.00774,-0.05809 -0.0155,-0.11603 -0.02324,-0.17385c0.76653,0.14536 1.50601,0.51447 2.2545,0.90516c-0.09768,0.27662 -0.32291,0.5582 -0.82106,0.65783z" fill="#c5d8e2" stroke-width="0.5"/><path d="M302.2679,179.65971c-1.11271,0 -1.11271,-1.11272 -1.11271,-1.11272l0.00552,-0.35779c-0.03905,-0.39042 -0.07808,-0.78086 -0.11713,-1.17128c0,0 -0.01942,-0.19421 0.03934,-0.42808c0.76257,0.16853 1.5001,0.54931 2.24849,0.94109c0.01456,0.14561 0.02912,0.29122 0.04368,0.43683l0.00553,0.57923c0,0 0,1.11272 -1.11272,1.11272z" fill="#c5d8e2" stroke-width="0.5"/><path d="M302.04005,175.80002c1.10719,-0.11072 1.21791,0.99647 1.21791,0.99647c0.00685,0.06852 0.01371,0.13703 0.02056,0.20555c-0.65223,-0.3419 -1.29992,-0.6715 -1.9742,-0.85458c0.14829,-0.17241 0.37869,-0.31174 0.73573,-0.34744z" fill="#c5d8e2" stroke-width="0.5"/><path d="M304.14194,208.00464c-1.11271,0 -1.11271,-1.11271 -1.11271,-1.11271l0.00114,-1.2217c0.26887,-2.9473 0.89281,-5.63266 0.59002,-8.62344c0,0 -0.03292,-0.32922 0.11665,-0.64656c-0.17281,-0.63702 -0.33948,-1.25758 -0.34658,-1.30765c-0.2276,-1.60389 0.05443,-3.2618 -0.22847,-4.8812c-0.22143,-1.26754 -0.66413,-2.50145 -0.8255,-3.7849c-0.1701,-1.35287 -0.39036,-2.64086 -0.58387,-3.96981c-0.20316,-1.39519 0.20192,-2.02232 -0.47996,-3.29493c0,0 -0.49763,-0.99524 0.49761,-1.49286c0.99524,-0.49762 1.49286,0.49762 1.49286,0.49762c0.22445,0.47108 0.55264,0.90558 0.67334,1.41325c0.19691,0.82819 -0.11265,1.71256 0.01797,2.55375c0.39858,2.56694 0.95574,5.13152 1.4017,7.70615c0.28476,1.64407 0.00639,3.3357 0.24004,4.95753c0.11993,0.83249 0.45211,1.62028 0.67341,2.43173l0.23064,0.80698c0,0 0.27205,0.9522 -0.59545,1.31667c-0.07708,2.14664 -0.45151,4.21187 -0.65128,6.4185l0.00114,1.12086c0,0 0,1.11271 -1.11271,1.11271z" fill="#e3a500" stroke-width="0.5"/><path d="M332.8066,209.59749c-1.06579,0.31974 -1.38552,-0.74606 -1.38552,-0.74606l-0.3771,-1.27479c-0.30794,-2.99504 -0.1846,-6.37785 0.45591,-9.35592c-0.00862,-0.06986 -0.00861,-0.11339 -0.00861,-0.11339v-0.23426c0.00251,-2.02715 -0.56475,-3.86179 -0.46737,-5.90681c0.08917,-1.87268 0.56717,-3.52792 0.96166,-5.34135c0.48405,-2.22519 0.61177,-4.39544 0.79796,-6.64766c0,0 0.0924,-1.10888 1.20127,-1.01647c1.10887,0.09241 1.01647,1.20127 1.01647,1.20127c-0.19729,2.34751 -0.33801,4.62012 -0.84184,6.93917c-0.3677,1.69246 -0.82919,3.21891 -0.91237,4.96589c-0.08594,1.80469 0.36513,3.45549 0.45449,5.2329c0.21183,0.39187 0.09906,0.84294 0.09906,0.84294c-0.71149,2.77107 -0.849,6.1414 -0.57363,9.00126l0.32567,1.06776c0,0 0.31974,1.06579 -0.74605,1.38552z" fill="#e3a500" stroke-width="0.5"/><path d="M333.68723,207.39402c0.55206,0.9661 -0.41405,1.51817 -0.41405,1.51817l-0.70432,0.39257c-0.20077,0.15057 -2.1855,1.63959 -2.19573,1.64427c-1.56488,0.71604 -3.83136,0.33519 -5.49957,0.33519c-5.5147,0 -10.79078,-0.90427 -16.26356,-1.41003c-1.86723,-0.17256 -4.65295,0.67264 -5.82542,-1.45259c-0.28301,-0.51298 0.01062,-1.17168 0.01592,-1.75752c0,0 0.11072,-1.10719 1.21791,-0.99647c1.10719,0.11072 0.99647,1.21791 0.99647,1.21791c-0.07277,0.19502 -0.27453,0.38462 -0.21834,0.58504c0.12591,0.44905 0.92076,0.1725 1.38699,0.18384c1.36892,0.0333 2.6041,0.06581 3.96069,0.24272c4.91376,0.64081 9.77512,1.16167 14.72933,1.16167c1.23406,0 3.42638,0.4411 4.57343,-0.13332c0.6767,-0.33889 1.18118,-0.94694 1.78661,-1.40105l0.93546,-0.54445c0,0 0.96611,-0.55206 1.51817,0.41405z" fill="#c5d8e2" stroke-width="0.5"/><path d="M319.36857,180.01108h-0.93703c0,0 -0.22908,0 -0.47936,-0.10394c0.8939,0.03204 1.79005,0.07128 2.68745,0.10394c-0.42368,0 -0.84737,0 -1.27105,0z" fill="#a1b9c7" stroke-width="0.5"/><path d="M303.70126,185.54128c0,0.55635 -0.55636,0.55636 -0.55636,0.55636l-0.0633,-0.00164c-1.4002,0.1069 -2.73958,0.07648 -4.09959,-0.29635c-0.52443,-0.2418 -0.91524,-0.3392 -1.27185,-0.83758c-0.75099,-1.04958 -0.84688,-3.29414 -0.79059,-4.53269c0.00978,-0.21525 0.11731,-1.31115 0.18364,-1.42497c0.782,-1.34185 3.00887,-1.60835 4.34351,-1.48828c0,0 0.55407,0.05037 0.5037,0.60445c-0.05037,0.55408 -0.60444,0.5037 -0.60444,0.5037c-0.92251,-0.08481 -2.72467,0.01647 -3.28652,0.94909c-0.14254,0.2366 -0.02732,1.17987 -0.02774,1.46407c-0.00182,1.24349 0.09192,3.16565 1.32812,3.71561c1.20011,0.32513 2.40313,0.32914 3.63642,0.23351l0.14865,-0.00163c0,0 0.55636,0 0.55636,0.55635z" fill="#b0c1ca" stroke-width="0.5"/><path d="M353.62602,203.30695c0.12547,0.6002 0.93348,1.05591 1.13784,1.63867c0.34842,0.9935 -0.7481,0.79574 -1.29993,0.58822c-0.9158,-0.34439 -2.22887,-2.94441 -1.34665,-3.3903c-0.02356,-0.06151 -0.04288,-0.12803 -0.05752,-0.19968l-0.0589,-0.10262c-0.78536,-1.40054 -2.27998,-2.45476 -3.3133,-3.67191c-1.33954,-1.57784 -2.60161,-2.98513 -4.15543,-4.38345c0.90336,-0.19941 1.47878,-0.88584 2.44581,-1.23235c0.70203,0.76954 1.59338,1.34192 2.29662,2.13657c1.54569,1.74662 3.05979,3.36445 4.3079,5.34303c0.38465,-0.15598 0.72977,-0.17462 0.87947,0.07014c0.20122,-0.01666 0.40526,-0.00554 0.59403,0.03875c0.54067,0.12685 3.42079,1.76954 1.5057,2.1564c-0.03754,0.00759 -0.07697,0.00868 -0.11488,0.0032c-0.62842,-0.09094 -1.16778,-0.32921 -1.6963,-0.50147c-0.01694,0.02975 -0.0369,0.05904 -0.06024,0.08778c-0.3153,0.38827 -0.73955,0.66386 -1.15666,0.78823c0.02978,0.21615 0.05147,0.43472 0.09246,0.6308zM347.55838,194.50212c-0.52606,-0.47747 -1.03115,-0.82515 -1.48618,-1.31c-0.08316,0.09136 -0.17947,0.17047 -0.28498,0.2368c1.35848,1.27761 2.5176,2.58704 3.7432,4.014c0.94133,1.09599 2.16985,2.06635 3.03937,3.24567c0.02339,-0.02124 0.0473,-0.04236 0.07164,-0.06331c-1.38259,-2.22036 -3.15121,-4.36975 -5.08305,-6.12314z" fill="#b0c1ca" stroke-width="0.5"/><path d="M345.71452,194.10157c-0.03284,0.03229 -0.06533,0.05998 -0.09687,0.08239c-0.54381,0.38635 -1.51172,0.2558 -1.9732,-0.19512c-0.43203,-0.42216 -0.58449,-0.8755 -0.54686,-1.31368c-0.41373,-0.38917 -0.81921,-0.73868 -1.19174,-1.20078c-2.56267,-2.55724 -4.37871,-6.07159 -7.35637,-8.14213c0,0 -0.45579,-0.31905 -0.13674,-0.77483c0.31905,-0.45578 0.77483,-0.13673 0.77483,-0.13673c3.05267,2.14933 4.91814,5.67704 7.54738,8.31161c0.26246,0.33084 0.54388,0.59638 0.83362,0.86403c0.12283,-0.15391 0.26439,-0.29854 0.41857,-0.43077c-0.54318,-0.47447 -0.96101,-1.00878 -1.44887,-1.56707c-1.22398,-1.75543 -2.65368,-3.39656 -3.89216,-5.15003c-0.80673,-1.14219 -1.76542,-3.13367 -3.10933,-3.68663c0,0 -0.50841,-0.22595 -0.28245,-0.73436c0.22596,-0.50841 0.73436,-0.28244 0.73436,-0.28244c1.58562,0.74001 2.59099,2.67893 3.56755,4.06331c1.22649,1.73868 2.63821,3.36799 3.85779,5.10375c0.51717,0.59026 0.93147,1.15418 1.56515,1.62696l0.01582,0.01529c0.2875,-0.11371 0.57664,-0.18004 0.84267,-0.18617c0,0 0.14566,0.00001 0.28791,0.07453c0.25732,1.20825 1.06057,1.98735 0.52837,3.32358c-0.26023,0.201 -0.60518,0.33197 -0.93946,0.33533z" fill="#b0c1ca" stroke-width="0.5"/><path d="M324.81257,231.67563c0.55205,-0.06901 0.62107,0.48305 0.62107,0.48305l0.04919,0.39529c0.01109,0.07252 0.02323,0.14467 0.03627,0.21649c-0.38217,-0.07449 -0.76708,-0.13859 -1.15437,-0.1933l-0.03521,-0.28047c0,0 -0.06901,-0.55206 0.48305,-0.62107z" fill="#cdd0e0" stroke-width="0.5"/><path d="M306.9706,230.18353c0,-0.12291 0.09963,-0.22254 0.22254,-0.22254c0.12291,0 0.22254,0.09964 0.22254,0.22254c0,0.12291 -0.09964,0.22254 -0.22254,0.22254c-0.12291,0 -0.22254,-0.09964 -0.22254,-0.22254z" fill="#6b767b" stroke-width="0.5"/><g><path d="M321.08179,234.08597c-0.0621,-0.2137 0.1516,-0.27581 0.1516,-0.27581l0.25668,-0.03567c1.20482,0.38503 2.31363,1.2614 3.40779,1.87147c0.30245,0.32165 0.82409,0.66966 0.98188,1.08467c0.02796,0.07357 0.04885,0.18787 0.06232,0.31288c0.11903,-0.42419 0.32186,-0.96639 0.46565,-1.35228l-0.02334,-0.16446c-0.00714,-0.04672 0.00048,-0.09607 0.02499,-0.14068c0.0592,-0.10771 0.19452,-0.14703 0.30222,-0.08783c0.05385,0.0296 0.09061,0.07824 0.1065,0.13293l0.09278,0.31927c0.07343,0.25357 0.04332,0.59171 0.01815,0.7659c0.12794,-0.48731 0.69002,-0.87341 0.64838,-1.41963c-0.01129,-0.08351 -0.04997,-0.16781 -0.03389,-0.25054c0.23308,-1.20028 0.74178,-0.02938 0.90131,0.41098c0.01231,-0.14633 0.06491,-0.34578 0.06677,-0.35438c0.05425,-0.25097 0.1155,-0.52725 0.02466,-0.78336c-0.15079,-0.42511 -1.02461,-1.2052 -1.39522,-1.40503c-1.30307,-1.09011 -3.10245,-1.61704 -4.29971,-2.80115c0,0 -0.15807,-0.15665 -0.00143,-0.31472c0.15664,-0.15807 0.31473,-0.00143 0.31473,-0.00143c1.17333,1.16528 2.96294,1.66674 4.2382,2.75027c0.9774,0.54643 2.1636,2.01017 1.43908,3.16486c-0.4919,0.78396 -0.73747,0.07969 -0.82136,-0.36002c-0.07982,0.46759 -0.61175,2.05628 -1.01775,2.00958c-0.16276,-0.01872 -0.2628,-0.16594 -0.32904,-0.35768c-0.14403,0.59006 -0.40268,1.21013 -0.63712,1.26895c-0.16461,0.0413 -0.37039,-0.0217 -0.48846,-0.1436c-0.17876,-0.18456 0.00916,-0.79276 -0.07887,-1.05278c-0.10746,-0.31744 -0.60759,-0.6282 -0.83554,-0.88005c-1.05335,-0.56986 -2.11213,-1.43998 -3.26743,-1.79762l0.00126,0.03855c0,0 -0.2137,0.0621 -0.2758,-0.1516z" fill="#6b767b" stroke-width="0.5"/><path d="M321.29959,233.91881c0,0 0.85291,-1.64932 1.22712,-2.33013c0.30693,-0.5584 1.00283,-1.43399 1.00283,-1.43399c0,0 4.14357,2.50677 5.01457,3.34554c0.36653,0.35297 0.17782,1.65467 0.17782,1.65467c0,0 -1.20032,0.34427 -1.48192,1.10357c-0.27471,0.74073 -1.17701,0.70783 -1.17701,0.70783c0,0 -1.3004,-1.38518 -2.0726,-1.87922c-0.81346,-0.52042 -2.69083,-1.16828 -2.69083,-1.16828z" fill="#606a6e" stroke-width="0"/><path d="M322.92112,231.00859c0.0567,-0.2152 0.2719,-0.15851 0.2719,-0.15851l0.23797,0.06957c0.2747,0.15099 0.5494,0.30198 0.8241,0.45298c1.37956,0.75828 2.32344,1.95126 3.52033,2.95934c0,0 0.17021,0.14336 0.02684,0.31358c-0.14336,0.17021 -0.31358,0.02685 -0.31358,0.02685c-1.17404,-0.98884 -2.0975,-2.16741 -3.44799,-2.90972c-0.2747,-0.15099 -0.5494,-0.30198 -0.8241,-0.45298l-0.13697,-0.02921c0,0 -0.2152,-0.05669 -0.1585,-0.27189z" fill="#303537" stroke-width="0.5"/><path d="M321.86016,232.24172c0.1072,-0.19502 0.30222,-0.08783 0.30222,-0.08783l0.04208,0.02806c0.31296,0.09859 0.62603,0.1501 0.93735,0.24695c1.33615,0.42701 3.02879,1.72482 3.60151,2.99122c0,0 0.0917,0.20277 -0.11107,0.29447c-0.20277,0.0917 -0.29447,-0.11107 -0.29447,-0.11107c-0.51644,-1.14198 -2.11385,-2.37373 -3.32968,-2.75011c-0.3089,-0.09875 -0.62508,-0.14858 -0.93735,-0.24695l-0.12274,-0.06254c0,0 -0.19502,-0.1072 -0.08783,-0.30222z" fill="#303537" stroke-width="0.5"/></g><path d="M301.94475,210.36186c-0.17361,-0.2755 -0.17361,-0.58685 -0.17361,-0.58685v-0.48856c0.00087,-1.29442 -0.2196,-3.18255 1.18778,-3.98116c1.15463,-0.65518 3.4435,0.57776 4.64298,0.79895c4.12583,0.76081 8.22574,1.52935 12.43343,1.52935c2.83322,0 5.53193,-0.17386 8.33437,-0.56097c0.80241,-0.11084 3.09131,-0.80843 3.8124,-0.54515c2.02823,0.74054 2.01613,4.40781 0.70231,5.82024c-0.24783,0.26642 -2.0132,0.77205 -2.4575,0.90874c-2.19182,0.67428 -4.12051,0.77713 -6.40161,0.77713c-3.36271,0 -6.86554,0.28099 -10.20898,-0.08769c-3.81466,-0.42065 -7.6692,-1.53719 -11.24037,-2.91046c0,0 -0.5087,-0.19566 -0.6312,-0.67356z" fill="#606a6e" stroke-width="0.5"/><g stroke-width="0.5"><path d="M298.72138,189.56998c-0.00471,-0.22249 0.21779,-0.2272 0.21779,-0.2272c0.26718,-0.00565 0.62342,-0.01319 0.8906,-0.01884c1.79095,-0.03391 2.84437,-1.19185 3.67365,-2.64268c0,0 0.11044,-0.19321 0.30365,-0.08277c0.19321,0.11043 0.08277,0.30364 0.08277,0.30364c-0.90879,1.58997 -2.1073,2.82184 -4.05065,2.8668c-0.26718,0.00565 -0.53437,0.0113 -0.80156,0.01696l-0.08906,0.00189c0,0 -0.22249,0.00471 -0.2272,-0.21779z" fill="#3a53e0"/><path d="M304.38408,186.47687c0.21256,0.06589 0.14667,0.27846 0.14667,0.27846l-0.04791,0.15197c-0.18816,0.45227 -0.48579,0.80287 -0.82464,1.15637c-1.15343,1.20329 -2.98177,2.47692 -4.69265,2.52566c0,0 -0.22249,0.00471 -0.2272,-0.21779c-0.00471,-0.22249 0.21779,-0.2272 0.21779,-0.2272c1.57761,-0.01924 3.32238,-1.28454 4.38075,-2.38867c0.29445,-0.30718 0.57937,-0.61855 0.73324,-1.01501l0.03549,-0.11711c0,0 0.06589,-0.21257 0.27846,-0.14668z" fill="#3ae054"/><path d="M302.40813,187.43565c0.18774,0.1195 0.06823,0.30724 0.06823,0.30724l-0.18515,0.28887c-0.33297,0.32712 -0.81535,0.39164 -1.25984,0.23116c-0.20598,-0.07437 -0.40583,-0.47683 -0.56818,-0.32985c-0.13805,0.12499 0.15394,0.608 0.10114,0.77142c-0.22322,0.69085 -0.88501,0.33261 -1.3182,0.44896c0,0 -0.21725,0.04826 -0.2655,-0.16899c-0.04825,-0.21725 0.16899,-0.26551 0.16899,-0.26551c0.18363,-0.03576 0.90451,0.1732 0.98609,-0.1344c0.09869,-0.37214 -0.44754,-0.61941 0.06346,-1.00979c0.54113,-0.41342 1.24513,0.77251 1.74195,0.18217l0.15978,-0.25303c0,0 0.1195,-0.18774 0.30724,-0.06824z" fill="#e03a3a"/></g><g><path d="M305.79938,232.44938c-0.07055,-0.21106 0.14052,-0.28162 0.14052,-0.28162l0.25506,-0.04584c1.21917,0.33684 2.36193,1.16844 3.47949,1.73454c0.31499,0.30937 0.85005,0.63638 1.02421,1.04478c0.03086,0.0724 0.05628,0.18578 0.0747,0.31015c0.10207,-0.42859 0.2832,-0.97842 0.41153,-1.36972l-0.02986,-0.1634c-0.00899,-0.0464 -0.00334,-0.09601 0.01938,-0.14156c0.05488,-0.10998 0.18852,-0.15465 0.29849,-0.09978c0.05499,0.02744 0.09365,0.07458 0.1117,0.12859l0.1054,0.31533c0.08345,0.25046 0.0668,0.58952 0.04858,0.76457c0.10847,-0.49201 0.65476,-0.90015 0.59144,-1.44428c-0.0146,-0.08299 -0.0566,-0.16569 -0.04382,-0.24899c0.18519,-1.2086 0.74002,-0.05884 0.91693,0.37483c0.00648,-0.1467 0.05111,-0.34809 0.05263,-0.35675c0.04423,-0.25293 0.09446,-0.53143 -0.00649,-0.78372c-0.16757,-0.41878 -1.0717,-1.16352 -1.44997,-1.34846c-1.34537,-1.03746 -3.16427,-1.49245 -4.40765,-2.62803c0,0 -0.16417,-0.15024 -0.01394,-0.31441c0.15024,-0.16418 0.31442,-0.01393 0.31442,-0.01393c1.21872,1.11773 3.02685,1.54766 4.34417,2.57964c0.99835,0.50715 2.24179,1.92258 1.56373,3.10516c-0.46035,0.80289 -0.73372,0.10894 -0.83502,-0.32709c-0.06118,0.47039 -0.52953,2.07897 -0.93707,2.04845c-0.16337,-0.01224 -0.26919,-0.15536 -0.34299,-0.34432c-0.12046,0.59532 -0.35427,1.22518 -0.58618,1.29327c-0.16284,0.04781 -0.37096,-0.00696 -0.49378,-0.12408c-0.18595,-0.17731 -0.02236,-0.7925 -0.12065,-1.04881c-0.11999,-0.31291 -0.63208,-0.60356 -0.86986,-0.84615c-1.07517,-0.52755 -2.16769,-1.35489 -3.3363,-1.66633l0.00279,0.03847c0,0 -0.21106,0.07055 -0.28161,-0.14052z" fill="#6b767b" stroke-width="0.5"/><path d="M306.01035,232.2737c0,0 0.78668,-1.68192 1.13353,-2.37706c0.28449,-0.57015 0.94504,-1.47272 0.94504,-1.47272c0,0 4.23993,2.3401 5.14358,3.14359c0.38027,0.33812 0.24345,1.64629 0.24345,1.64629c0,0 -1.18569,0.39171 -1.43688,1.1616c-0.24505,0.75106 -1.14794,0.75405 -1.14794,0.75405c0,0 -1.35442,-1.3324 -2.14565,-1.79535c-0.8335,-0.48768 -2.73513,-1.0604 -2.73513,-1.0604z" fill="#606a6e" stroke-width="0"/><path d="M307.51494,229.30132c0.0481,-0.21728 0.26538,-0.16919 0.26538,-0.16919l0.24054,0.06005c0.28048,0.13995 0.56097,0.2799 0.84146,0.41986c1.4086,0.70285 2.39916,1.85737 3.63517,2.81708c0,0 0.17578,0.13648 0.03929,0.31226c-0.13648,0.17578 -0.31227,0.03929 -0.31227,0.03929c-1.21241,-0.94139 -2.18199,-2.08233 -3.56092,-2.77037c-0.28048,-0.13995 -0.56097,-0.2799 -0.84146,-0.41986l-0.13802,-0.02374c0,0 -0.21729,-0.04809 -0.16918,-0.26538z" fill="#303537" stroke-width="0.5"/><path d="M306.50382,230.57566c0.09936,-0.19913 0.29849,-0.09977 0.29849,-0.09977l0.04316,0.02636c0.31663,0.08607 0.6315,0.1251 0.94642,0.2095c1.35207,0.37357 3.09495,1.60307 3.71755,2.84571c0,0 0.09968,0.19897 -0.09928,0.29866c-0.19897,0.09968 -0.29866,-0.09928 -0.29866,-0.09928c-0.56143,-1.12055 -2.20652,-2.28783 -3.43636,-2.6156c-0.31258,-0.0864 -0.63049,-0.12361 -0.94642,-0.2095l-0.12513,-0.05761c0,0 -0.19913,-0.09936 -0.09977,-0.29849z" fill="#303537" stroke-width="0.5"/></g><path d="M334.88237,180.60876c0,0.99605 -6.92442,0.25764 -16.03114,0.25764c-9.10672,0 -16.60369,-1.60901 -16.60369,-2.60506c0,-0.39774 -2.02903,-2.65481 -0.03491,-2.953c2.99962,-0.44855 11.85545,-1.42694 17.32564,-1.42694c6.45987,0 11.81947,1.79605 14.18959,3.82797c0.97112,0.83255 1.15451,2.60989 1.15451,2.89939z" fill="#e3a500" stroke-width="0"/><path d="M303.89128,181.07278c1.69752,4.75305 -4.3459,6.88532 -5.88492,2.44204c-1.02594,-2.96197 0.17852,-5.75887 2.06282,-5.82959c0.15752,-0.0311 0.32035,-0.0474 0.48699,-0.0474c1.21292,0 2.2241,0.86378 2.45195,2.00975c0.2613,0.36526 0.52193,0.78689 0.77921,1.26929z" fill="#a1b9c7" stroke-width="0.5"/></g></g></svg>