<svg version="1.1" xmlns="http://www.w3.org/2000/svg" xmlns:xlink="http://www.w3.org/1999/xlink" width="40.36243" height="29.92814" viewBox="0,0,40.36243,29.92814"><g transform="translate(-299.88084,-165.03593)"><g data-paper-data="{&quot;isPaintingLayer&quot;:true}" fill-rule="nonzero" stroke="none" stroke-linecap="butt" stroke-linejoin="miter" stroke-miterlimit="10" stroke-dasharray="" stroke-dashoffset="0" style="mix-blend-mode: normal"><path d="M299.88084,194.96407v-29.92814h40.23832v29.92814z" fill="#ffebc9" stroke-width="0"/><path d="M337.85024,170.77319c-0.35355,0.35356 -0.70711,0 -0.70711,0l0.08909,-0.01168c-0.13232,-0.04375 -0.26464,-0.0875 -0.39696,-0.13125c-2.65671,1.41395 -6.81132,0.66576 -9.74705,0.86014c-3.08605,0.20434 -5.59515,2.05792 -8.79829,1.40645c-1.285,-0.26546 -2.53761,-0.92539 -3.79828,-1.12436c-3.20068,-0.50516 -6.45677,0.38629 -9.61893,0.57849c-1.13281,0.06886 -1.93134,-0.65202 -2.94984,-0.43577c0,0 -0.4932,0.08219 -0.5754,-0.411c-0.0822,-0.49319 0.411,-0.5754 0.411,-0.5754c1.22756,-0.16755 1.85168,0.50408 3.06443,0.42341c3.22235,-0.21436 6.56741,-1.09806 9.8273,-0.56708c1.2867,0.20958 2.53618,0.86262 3.84203,1.13239c3.04127,0.63936 5.55109,-1.21989 8.50618,-1.42309c3.04279,-0.20924 6.91917,0.4714 9.72773,-0.85822c0.24954,0.05172 0.49908,0.10343 0.74862,0.15514l0.37548,0.27471c0,0 0.35355,0.35355 0,0.70711z" fill="#d4cab8" stroke-width="0.5"/><path d="M302.1728,174.46316c-0.3204,-0.38385 0.06345,-0.70425 0.06345,-0.70425l0.3696,-0.25247c1.351,-0.37852 2.88479,-0.46373 4.26074,-0.12472c3.87941,1.60933 8.01617,1.12021 12.16008,1.12021c1.67935,0 4.04506,0.42065 5.60634,-0.21319c1.70974,-0.34116 3.44312,-0.31768 5.15026,-0.77363c1.62102,-0.43294 2.41373,-1.16112 4.13587,-1.16112c0.82149,0 3.79781,0.11428 3.98951,-0.58279c0,0 0.2236,-0.44721 0.67082,-0.2236c0.44722,0.2236 0.22361,0.67082 0.22361,0.67082c-1.26132,2.07522 -4.42537,0.35887 -6.30337,1.10992c-2.60185,1.04054 -4.87473,1.37635 -7.58479,1.91986c-1.69843,0.64768 -4.07684,0.25375 -5.88824,0.25375c-4.24496,0 -8.4993,0.49336 -12.47454,-1.17093c-1.15943,-0.29574 -2.54204,-0.19132 -3.67216,0.13714l-0.00292,0.05847c0,0 -0.38385,0.3204 -0.70425,-0.06345z" fill="#d4cab8" stroke-width="0.5"/><path d="M337.1307,180.66881c-0.0822,0.49319 -0.5754,0.41099 -0.5754,0.41099l-0.8788,-0.14687c-1.82106,-0.46707 -4.02929,-0.13272 -5.91483,-0.13272c-3.84893,0 -7.69619,0.00109 -11.54469,-0.06389c-5.51468,-1.02305 -10.30976,-2.49725 -15.98147,-1.23679c0,0 -0.48809,0.10847 -0.59656,-0.37963c-0.10847,-0.48809 0.37963,-0.59656 0.37963,-0.59656c5.77292,-1.28279 10.69062,0.15668 16.29838,1.21799c5.43147,0.07206 12.30231,-1.07307 17.56315,0.21255l0.83957,0.13952c0,0 0.4932,0.08221 0.411,0.5754z" fill="#d4cab8" stroke-width="0.5"/><path d="M300.10469,192.53474c0.22361,-0.44721 0.67082,-0.22361 0.67082,-0.22361l0.16084,0.10012c0.80779,0.16913 1.3442,0.50751 2.06896,0.87654c6.25824,1.23058 13.33456,-2.0803 19.57424,-2.74723c3.67809,-0.26045 7.21623,0.44071 10.91797,0.42365c1.4122,-0.00651 3.81592,0.22062 5.01058,-0.62665c0,0 0.41602,-0.27735 0.69338,0.13868c0.27735,0.41602 -0.13867,0.69338 -0.13867,0.69338c-1.47904,0.94615 -3.85309,0.78663 -5.56064,0.79458c-3.67419,0.01712 -7.18836,-0.68513 -10.83414,-0.42756c-6.42113,0.68737 -13.54176,4.0019 -19.98724,2.69702c-0.679,-0.33477 -1.19282,-0.70111 -1.94055,-0.84182l-0.41194,-0.18627c0,0 -0.44721,-0.2236 -0.2236,-0.67082z" fill="#d4cab8" stroke-width="0.5"/><path d="M338.41135,167.82016c-0.12127,0.48507 -0.60634,0.3638 -0.60634,0.3638l-0.62499,-0.15933c-0.76422,-0.3932 -1.07185,-0.56787 -1.86269,-0.2329c-1.77699,0.69386 -3.80137,0.40715 -5.69647,0.40715c-4.40306,0 -9.05199,-0.4291 -13.42228,0.06247c-3.83087,0.42565 -7.52837,0.85318 -11.40188,0.59973c-1.44446,-0.09451 -3.60143,-0.08833 -4.51763,-1.31445c0,0 -0.27735,-0.41603 0.13868,-0.69338c0.41603,-0.27735 0.69338,0.13868 0.69338,0.13868c0.43011,0.84378 2.92372,0.81716 3.75087,0.87128c3.81663,0.24973 7.45208,-0.17641 11.22616,-0.59575c4.18043,-0.45928 8.60454,-0.06859 12.81435,-0.06859c1.92462,0 4.25389,0.40096 6.04344,-0.33563c1.03169,-0.39582 1.60521,-0.25206 2.58102,0.22349l0.52058,0.12707c0,0 0.48507,0.12127 0.3638,0.60634z" fill="#d4cab8" stroke-width="0.5"/><path d="M300.91108,189.8944c0,-0.5 0.5,-0.5 0.5,-0.5c0.42959,0 1.00238,0 1.43197,0c0.9665,0 2.3711,0.28457 3.2864,0.02313c1.32377,-0.37812 2.51805,-1.54043 3.99035,-1.90473c3.54289,-0.87665 7.15875,-0.83914 10.77794,-0.83914c3.94464,0 7.88243,-0.05295 11.82521,-0.18503c1.89386,-0.06344 3.96626,0.15809 5.71625,-0.63106c0,0 0.45691,-0.20307 0.65998,0.25384c0.20307,0.45691 -0.25384,0.65998 -0.25384,0.65998c-1.90348,0.8353 -4.0385,0.648 -6.08891,0.71668c-3.95392,0.13244 -7.90289,0.18559 -11.85868,0.18559c-3.53939,0 -7.07262,-0.04755 -10.53774,0.80986c-1.47865,0.36588 -2.58378,1.49026 -3.92991,1.88775c-1.01366,0.29932 -2.52277,0.02313 -3.58704,0.02313c-0.42959,0 -0.85918,0 -1.28877,0h-0.1432c0,0 -0.5,0 -0.5,-0.5z" fill="#d4cab8" stroke-width="0.5"/><path d="M337.56709,170.41967c-0.00003,0.5 -0.50003,0.49997 -0.50003,0.49997l-0.5884,-0.00004c-1.08058,-0.00276 -2.09344,-0.02841 -3.16583,-0.17454c-2.19553,-1.45021 -5.22613,-0.48397 -7.38553,0.28698c-2.58829,0.92408 -6.31931,1.18303 -9.02829,0.73203c-4.79513,-1.59095 -10.13344,1.17401 -14.56596,-1.04042c0,0 -0.44721,-0.22361 -0.22361,-0.67082c0.22361,-0.44721 0.67082,-0.22361 0.67082,-0.22361c4.26355,2.13361 9.66779,-0.60785 14.3598,0.96434c2.48305,0.4144 6.09317,0.17247 8.44173,-0.69994c2.29176,-0.8513 5.76237,-1.84558 8.07973,-0.2858c0.94478,0.10398 1.86823,0.10937 2.81844,0.11178l0.58716,0.00004c0,0 0.5,0.00003 0.49997,0.50003z" fill="#dccaa9" stroke-width="0.5"/><path d="M304.491,175.86111c0,-0.5 0.5,-0.5 0.5,-0.5h0.57279c3.95208,0 7.63313,1.28877 11.60846,1.28877c5.65251,0 11.16731,0.74258 16.83537,0.14594c0,0 0.49725,-0.05234 0.5496,0.44491c0.05234,0.49725 -0.44491,0.5496 -0.44491,0.5496c-5.7039,0.60041 -11.25273,-0.14045 -16.94006,-0.14045c-3.97625,0 -7.66267,-1.28877 -11.60846,-1.28877h-0.57279c0,0 -0.5,0 -0.5,-0.5z" fill="#dccaa9" stroke-width="0.5"/><path d="M338.84157,185.21495c-0.33244,-0.37348 0.04104,-0.70591 0.04104,-0.70591l0.45787,-0.38491c0.41574,-0.48661 -2.28861,-0.31212 -3.29639,-0.43564c-2.25974,-0.28575 -4.06483,-1.62285 -6.43235,-1.40221c-4.70046,0.43805 -8.44667,4.30984 -12.55396,-0.38557c-3.53268,-4.11079 -9.99026,0.03359 -13.35522,2.38906c0,0 -0.40962,0.28673 -0.69635,-0.12288c-0.28673,-0.40962 0.12288,-0.69635 0.12288,-0.69635c3.87899,-2.7153 10.65143,-6.76749 14.68135,-2.22822c3.71375,4.24552 7.42656,0.47812 11.70734,0.04839c2.47445,-0.2484 4.31171,1.12914 6.64797,1.40522c2.04174,0.25026 4.52051,-0.55429 4.00976,1.97842l-0.62803,0.58166c0,0 -0.37348,0.33244 -0.70591,-0.04104z" fill="#dccaa9" stroke-width="0.5"/><path d="M302.19985,191.32637c0,-0.5 0.5,-0.5 0.5,-0.5l0.08168,0.0038c2.27608,-0.28216 4.0682,-1.93658 6.16835,-2.14812c3.8978,-0.3926 8.04249,-0.00363 11.96212,-0.00363c5.57596,0 11.15192,0 16.72787,0c0,0 0.5,0 0.5,0.5c0,0.5 -0.5,0.5 -0.5,0.5c-5.57596,0 -11.15192,0 -16.72787,0c-3.90564,0 -7.94963,-0.30568 -11.84185,-0.00363c-1.19605,0.09282 -2.08562,1.30857 -3.17183,1.68393c-0.93227,0.32217 -2.021,0.34326 -2.99377,0.46385l-0.20471,0.0038c0,0 -0.5,0 -0.5,-0.5z" fill="#dccaa9" stroke-width="0.5"/><path d="M301.78519,167.53377c-0.12127,-0.48507 0.3638,-0.60634 0.3638,-0.60634l0.58871,-0.1469c4.45662,-0.81106 9.42416,-0.86976 13.93405,-0.39873c5.41204,0.67497 11.07285,0.24431 16.52903,0.24431c0,0 0.5,0 0.5,0.5c0,0.5 -0.5,0.5 -0.5,0.5c-5.49475,0 -11.19234,0.42923 -16.64285,-0.25081c-4.40242,-0.45958 -9.25912,-0.40496 -13.60953,0.38279l-0.55687,0.13949c0,0 -0.48507,0.12127 -0.60634,-0.3638z" fill="#dccaa9" stroke-width="0.5"/><path d="M337.97129,192.31462c0.15733,0.4746 -0.31727,0.63193 -0.31727,0.63193l-0.5893,0.16859c-3.16673,0 -6.31951,-0.14777 -9.48943,-0.13844c-5.76815,0.01643 -11.41346,1.1384 -17.14281,1.14081c0,0 -0.5,0 -0.5,-0.5c0,-0.5 0.5,-0.5 0.5,-0.5c5.7256,0.00252 11.37445,-1.12328 17.13986,-1.14081c3.17086,-0.00934 6.32477,0.13843 9.49237,0.13843l0.27464,-0.1178c0,0 0.4746,-0.15733 0.63193,0.31727z" fill="#dccaa9" stroke-width="0.5"/></g></g></svg>