<svg version="1.1" xmlns="http://www.w3.org/2000/svg" xmlns:xlink="http://www.w3.org/1999/xlink" width="70.10172" height="99.98421" viewBox="0,0,70.10172,99.98421"><g transform="translate(-287.00018,-126.71258)"><g data-paper-data="{&quot;isPaintingLayer&quot;:true}" fill-rule="nonzero" stroke="none" stroke-linecap="butt" stroke-linejoin="miter" stroke-miterlimit="10" stroke-dasharray="" stroke-dashoffset="0" style="mix-blend-mode: normal"><path d="M308.20226,196.49678c0,0 -1.65563,-19.85247 -2.40662,-31.15908c1.57515,0.81106 3.54837,1.29441 4.69443,1.29441c2.42848,1.23205 6.81687,1.36104 9.46971,1.69581c3.3989,0.06364 6.80258,0.01525 10.20206,0.01525c2.30188,0 4.70164,-0.30869 6.98581,-0.833c0.00565,0.36883 0.00649,0.74374 0.00158,1.12447c-0.05526,4.28593 -0.94731,9.08451 -1.15863,13.52263c-0.39713,8.34034 -0.19302,15.40772 -0.19302,15.40772z" fill="#ff9a31" stroke-width="0"/><path d="M307.48103,195.93346c-1.11271,0 -1.11271,-1.11271 -1.11271,-1.11271l0.00114,-1.2217c0.26887,-2.9473 0.89281,-5.63266 0.59002,-8.62344c0,0 -0.03292,-0.32922 0.11665,-0.64656c-0.17281,-0.63702 -0.33948,-1.25758 -0.34658,-1.30765c-0.2276,-1.60389 0.05443,-3.2618 -0.22847,-4.8812c-0.22143,-1.26754 -0.66413,-2.50145 -0.8255,-3.7849c-0.1701,-1.35287 -0.39036,-2.64086 -0.58387,-3.96981c-0.20316,-1.39519 0.20192,-2.02232 -0.47996,-3.29493c0,0 -0.49763,-0.99524 0.49761,-1.49286c0.99524,-0.49762 1.49286,0.49762 1.49286,0.49762c0.22445,0.47108 0.55264,0.90558 0.67334,1.41325c0.19691,0.82819 -0.11265,1.71256 0.01797,2.55375c0.39858,2.56694 0.95574,5.13152 1.4017,7.70615c0.28476,1.64407 0.00639,3.3357 0.24004,4.95753c0.11993,0.83249 0.45211,1.62028 0.67341,2.43173l0.23064,0.80698c0,0 0.27205,0.9522 -0.59545,1.31667c-0.07708,2.14664 -0.45151,4.21187 -0.65128,6.4185l0.00114,1.12086c0,0 0,1.11271 -1.11271,1.11271z" fill="#ff9a31" stroke-width="0.5"/><path d="M339.65811,168.27432c0.54351,1.39807 -0.85456,1.94158 -0.85456,1.94158l-1.13067,0.42927c-0.58012,0.15242 -1.16024,0.30483 -1.74036,0.45725c-1.08032,0.1833 -2.07161,0.72259 -3.13255,0.99662c-6.83219,1.76468 -14.26456,0.28835 -20.85494,-1.43472c-2.55475,-0.66794 -4.63786,-0.50338 -6.77315,-2.16014c0,0 -1.15408,-0.95818 -0.1959,-2.11226c0.95818,-1.15408 2.11226,-0.1959 2.11226,-0.1959c1.39067,1.29872 3.75755,1.07794 5.62412,1.56808c6.01766,1.58019 13.0446,3.12762 19.29649,1.44112c1.10634,-0.29844 2.15192,-0.82524 3.27887,-1.0327c0.54027,-0.14279 1.08053,-0.28557 1.6208,-0.42836l0.80801,-0.32441c0,0 1.39807,-0.54351 1.94158,0.85456z" fill-opacity="0.30588" fill="#000000" stroke-width="0.5"/><path d="M336.14569,197.52631c-1.06579,0.31974 -1.38552,-0.74606 -1.38552,-0.74606l-0.3771,-1.27479c-0.30794,-2.99504 -0.1846,-6.37785 0.45591,-9.35592c-0.00862,-0.06986 -0.00861,-0.11339 -0.00861,-0.11339v-0.23426c0.00251,-2.02715 -0.56475,-3.86179 -0.46737,-5.90681c0.08917,-1.87268 0.56717,-3.52792 0.96166,-5.34135c0.48405,-2.22519 0.61177,-4.39544 0.79796,-6.64766c0,0 0.00622,-0.0747 0.03483,-0.18371c0.65846,-0.13109 1.31004,-0.28074 1.94981,-0.4468c0.27166,0.35254 0.2331,0.81531 0.2331,0.81531c-0.19729,2.34751 -0.33801,4.62012 -0.84184,6.93917c-0.3677,1.69246 -0.82919,3.21891 -0.91237,4.96589c-0.08594,1.80469 0.36513,3.45549 0.45449,5.2329c0.21183,0.39187 0.09906,0.84294 0.09906,0.84294c-0.71149,2.77107 -0.849,6.1414 -0.57363,9.00126l0.32567,1.06776c0,0 0.31974,1.06579 -0.74605,1.38552z" fill="#ff9a31" stroke-width="0.5"/><path d="M337.32389,166.8896c0.06469,0.00539 0.12529,0.01424 0.18206,0.02613c-0.34007,0.08293 -0.68307,0.16104 -1.02827,0.23403c0.17884,-0.17068 0.44648,-0.29348 0.84621,-0.26016z" fill="#c5d8e2" stroke-width="0.5"/><path d="M338.27612,167.1788c0,0.99605 -7.38246,1.8035 -16.48918,1.8035c-9.10672,0 -16.48918,-0.80746 -16.48918,-1.8035c0,-0.39775 -2.02902,-2.6548 -0.03491,-2.953c2.99961,-0.44855 11.85545,-1.42694 17.32564,-1.42694c9.10672,0 15.68762,3.38389 15.68762,4.37994z" fill="#ff9a31" stroke-width="0"/><g fill="#ff9a31" stroke-width="0.5"><path d="M292.06372,218.15068c-0.81084,-0.21524 -0.5956,-1.02608 -0.5956,-1.02608l0.12376,-0.46619c1.70698,-6.36657 1.90764,-12.7698 3.13634,-19.02015c3.45795,-2.85417 13.60065,-5.23777 18.09153,-4.74991c0,0 0.83313,0.0984 0.73472,0.93153c-0.0984,0.83314 -0.93152,0.73474 -0.93152,0.73474c-3.72293,-0.48578 -9.01792,1.47831 -12.43019,2.82469c-1.25575,0.49549 -2.9269,0.37019 -4.02512,1.12109c-0.83682,6.32769 -1.29336,12.25924 -2.95408,18.58848l-0.12375,0.46621c0,0 -0.21523,0.81084 -1.02607,0.59561z"/><path d="M296.66226,218.02927c0.4606,-0.70117 1.16176,-0.24057 1.16176,-0.24057l0.61894,0.42024c1.80016,1.67599 3.07859,2.32705 3.59808,4.95674c-0.66964,5.27965 -7.38527,3.80434 -10.06956,0.97377c-2.43569,-2.56842 -0.85609,-4.15758 -0.86946,-6.87383c0,0 0.03421,-0.83821 0.87243,-0.80401c0.83822,0.03421 0.80401,0.87244 0.80401,0.87244c-0.15164,2.2223 -1.55902,3.61152 0.40006,5.63998c1.42704,1.47758 6.82575,3.82563 7.18627,0.26431c-0.46353,-2.09066 -1.58304,-2.43856 -3.06103,-3.79758l-0.40094,-0.24971c0,0 -0.70116,-0.4606 -0.24056,-1.16177z"/><path d="M296.94657,219.40227c-0.70117,-0.4606 -0.24057,-1.16176 -0.24057,-1.16176l-0.02593,0.11788c1.49398,-5.6282 0.88622,-11.53817 1.5518,-17.28141c0,0 0.0984,-0.83315 0.93153,-0.73475c0.83314,0.0984 0.73472,0.93153 0.73472,0.93153c-0.69865,5.81798 -0.07958,11.80102 -1.59635,17.51508l-0.19342,0.37285c0,0 -0.4606,0.70117 -1.16177,0.24057z"/><path d="M298.39935,200.822c0.0984,-0.83314 0.93153,-0.73473 0.93153,-0.73473l0.95068,0.11487c1.91602,-0.06568 3.08338,-1.07762 4.85463,-1.6859c3.96458,-1.36147 8.07922,-1.1843 12.02227,-2.81047c0,0 0.77555,-0.31985 1.09541,0.45571c0.31985,0.77556 -0.4557,1.09541 -0.4557,1.09541c-3.9895,1.64534 -8.14259,1.47474 -12.13802,2.85329c-2.00307,0.69112 -3.23719,1.67431 -5.44445,1.76851l-1.08161,-0.12517c0,0 -0.83313,-0.0984 -0.73474,-0.93152z"/></g><path d="M328.36676,194.83121c0,0 0.54713,-0.63595 1.18308,-0.08882c0.63595,0.54714 0.08882,1.18308 0.08882,1.18308c-2.48314,2.81607 -3.81294,8.3048 -4.60304,11.88699c-0.26965,1.22261 -1.18177,2.44317 -1.3055,3.67512c-0.51903,0.16472 -1.07056,0.2721 -1.56384,0.51472c-0.14713,-4.64919 3.38836,-13.83994 6.20049,-17.17109z" fill="#ff9a31" stroke-width="0.5"/><path d="M339.59568,223.6309c-0.54059,0.64153 -1.18211,0.10094 -1.18211,0.10094l-0.36885,-0.31081c-5.01564,-4.24788 -10.70323,-7.15666 -15.82077,-10.91888c0.44706,-0.38545 1.00073,-0.59859 1.52998,-0.85049c5.30168,3.40662 10.41213,6.33109 15.37196,10.48632l0.36887,0.31082c0,0 0.64152,0.54059 0.10093,1.18211z" fill="#ff9a31" stroke-width="0.5"/><path d="M341.4477,219.42004c-0.43766,-0.71571 0.27805,-1.15337 0.27805,-1.15337l0.64413,-0.38051c2.2838,-0.91311 3.41803,-1.7916 6.01804,-1.13956c4.4894,2.85805 0.29007,8.30247 -3.41516,9.52265c-3.36207,1.10718 -4.12549,-0.99942 -6.58784,-2.14613c0,0 -0.74352,-0.38855 -0.35498,-1.13206c0.38854,-0.74351 1.13207,-0.35497 1.13207,-0.35497c1.94523,1.08522 2.60126,2.95077 5.27165,2.0443c1.94517,-0.66029 6.37202,-4.54133 3.30485,-6.38672c-2.08861,-0.47268 -2.88086,0.39142 -4.74054,1.14836l-0.39689,0.25609c0,0 -0.71571,0.43766 -1.15337,-0.27806z" fill="#ff9a31" stroke-width="0.5"/><path d="M342.81077,219.74865c-0.71571,0.43766 -1.15337,-0.27806 -1.15337,-0.27806l0.09555,0.07374c-4.45296,-3.7523 -10.05741,-5.72393 -14.96783,-8.77608c0,0 -0.71153,-0.44443 -0.26711,-1.15596c0.44443,-0.71153 1.15596,-0.2671 1.15596,-0.2671c4.96391,3.11395 10.63925,5.10652 15.16015,8.91607l0.2547,0.334c0,0 0.43765,0.71572 -0.27806,1.15338z" fill="#ff9a31" stroke-width="0.5"/><path d="M326.88862,211.22346c-0.63595,-0.54714 -0.08882,-1.18308 -0.08882,-1.18308l0.62649,-0.72423c1.01614,-1.6257 0.8292,-3.15925 1.31448,-4.96809c1.08619,-4.04867 3.53227,-7.36203 4.38689,-11.54073c0,0 0.1681,-0.82191 0.99001,-0.65381c0.82191,0.1681 0.65382,0.99001 0.65382,0.99001c-0.8647,4.22795 -3.3268,7.57687 -4.41607,11.66066c-0.54609,2.04737 -0.42031,3.62023 -1.57554,5.50338l-0.70817,0.82708c0,0 -0.54714,0.63595 -1.18309,0.08881z" fill="#ff9a31" stroke-width="0.5"/><path d="M310.15714,193.06784c-0.5964,1.0437 -1.46196,1.50152 -2.45345,1.60288c-2.01092,0.20557 -4.5399,-1.05517 -6.39207,-1.86812c-7.99054,-3.50718 -11.48731,-7.21257 -11.51495,-15.72427c-0.00502,-1.54468 -2.66722,-1.29848 -1.55944,-3.51404c1.08281,-2.16561 3.16107,-0.39327 3.95157,0.62585c4.08529,5.26675 -1.57174,8.28464 5.80139,13.00073c2.55394,1.63359 5.46375,2.79419 8.31553,3.7418c0.53994,0.17942 2.73013,0.17292 2.9896,0.62699z" fill="#ff9a31" stroke-width="0.5"/><g fill="#ea8f2d" stroke-width="0.5"><path d="M307.41057,170.77438c-0.46947,1.20276 -2.54015,2.05416 -3.5691,2.64433c-2.58962,1.48534 -5.32525,5.37781 -6.82608,7.65745c-1.40852,2.13943 -2.52483,11.45769 -5.13298,11.27048c-3.36968,-0.24188 -0.01215,-5.76017 0.05456,-7.17996c0.36143,-7.69263 7.511,-11.75584 12.40891,-16.18348c0.04638,-0.12174 0.10719,-0.24016 0.18285,-0.35297c0.01245,-0.01856 0.02519,-0.03681 0.03822,-0.05474c1.0691,-1.51211 1.97625,-1.1937 2.49792,-0.34537c0.68478,0.5381 0.86958,1.50406 0.42826,2.25776c-0.02051,0.10168 -0.04794,0.19778 -0.08255,0.2865z"/><path d="M305.09399,173.1262c-1.53137,1.85484 -3.59784,2.86117 -5.07583,5.04782c-1.95012,2.88514 -2.75109,3.64087 -3.42634,6.27444c-0.38285,1.49318 -0.49371,9.05009 -3.42104,8.24291c-2.15557,-0.59438 -0.19049,-10.26887 0.86231,-11.87736c1.05686,-1.6147 2.13197,-3.21762 3.22491,-4.80812c0.57961,-0.84349 1.34754,-1.56593 1.92871,-2.40316c0.62717,-0.9035 5.94309,-5.77958 7.45027,-4.61066c0.25363,0.03558 0.50337,0.12764 0.73035,0.27988c0.80267,0.53837 1.01693,1.62549 0.47856,2.42816c0.12382,0.73527 -2.41509,1.0181 -2.75192,1.42608z"/><path d="M295.92098,190.42763c0.76774,2.64961 -1.54693,9.41959 -4.94633,7.40352c-1.07497,-0.63753 -3.75543,-1.97711 -3.9566,-3.14684c-0.27116,-1.57683 2.60465,-6.43587 4.43546,-6.30445c0.54013,-0.2588 1.19917,-0.23341 1.73259,0.12436c0.10341,0.06936 0.19706,0.14784 0.28059,0.23363c0.84077,0.55514 2.06178,0.33513 2.4543,1.68977z"/></g><g fill="#ea8f2d" stroke-width="0.5"><path d="M337.55374,171.56607c0.92674,0.89899 0.90893,3.1378 1.05411,4.31507c0.36541,2.96291 2.89314,6.99348 4.41279,9.26062c1.42618,2.1277 9.5832,6.76874 8.39964,9.10041c-1.52915,3.01247 -5.31453,-2.22159 -6.59746,-2.83343c-6.95109,-3.31504 -7.92527,-11.48064 -10.10819,-17.71188c-0.09424,-0.08995 -0.17984,-0.1919 -0.2545,-0.30537c-0.01228,-0.01867 -0.02416,-0.03749 -0.03564,-0.05645c-0.97947,-1.57164 -0.33432,-2.28445 0.6499,-2.4365c0.76147,-0.42266 1.72354,-0.21858 2.24725,0.48039c0.08578,0.05832 0.16374,0.12085 0.2321,0.18715z"/><path d="M338.82371,174.61316c1.11623,2.13063 1.24285,4.42561 2.68564,6.63566c1.90365,2.916 2.28982,3.94729 4.45575,5.59059c1.22804,0.93172 8.15115,3.96316 6.27237,6.34874c-1.38346,1.75664 -9.53986,-3.80489 -10.61449,-5.39887c-1.07879,-1.60013 -2.13965,-3.21252 -3.18215,-4.83653c-0.55287,-0.86125 -0.92116,-1.84918 -1.46765,-2.70944c-0.58975,-0.92836 -3.02401,-7.71875 -1.36226,-8.655c0.13111,-0.22001 0.31278,-0.41454 0.5411,-0.56476c0.80741,-0.53123 1.89259,-0.30734 2.42382,0.50007c0.72578,0.17087 0.00235,2.62091 0.24787,3.08955z"/><path d="M351.21675,189.77548c2.74006,0.31934 8.0835,5.07727 4.90736,7.42941c-1.00438,0.7438 -3.27824,2.69544 -4.43449,2.42746c-1.55865,-0.36125 -4.92306,-4.89572 -4.09224,-6.53245c-0.02919,-0.59821 0.24966,-1.19589 0.78623,-1.54892c0.10402,-0.06844 0.21267,-0.12435 0.32413,-0.16809c0.83763,-0.55984 1.10813,-1.77068 2.50902,-1.6074z"/></g><path d="M308.09302,165.12173c-0.87156,0.40798 -1.74098,-0.22431 -1.74098,-0.22431l-1.83704,-1.47021c-0.77064,-1.16266 -1.69066,-2.35559 -2.03549,-3.74728c-0.53733,-2.1686 -0.19769,-4.67004 0.23949,-6.80916c1.05009,-5.13804 2.44153,-11.40294 6.76931,-14.85376c3.77026,-3.00627 8.58733,-3.07976 13.14945,-3.07976c2.92987,0 5.85388,-0.34305 8.57795,0.94164c3.84906,1.81524 6.56495,5.44588 8.58951,9.05507c3.62549,6.46316 6.30796,14.69011 2.96175,21.89066c-3.73253,3.45448 -7.12101,3.15109 -11.92409,3.15109c-7.70333,0 -16.0692,-0.64374 -22.74986,-4.85399z" fill="#ff9a31" stroke-width="0.5"/><path d="M316.20095,136.48285c-0.56944,0.48809 -1.05753,-0.08135 -1.05753,-0.08135l-0.51613,-0.61053c-1.58096,-2.37993 -1.23318,-5.23818 -2.50223,-7.59981c-0.74818,0.61938 -1.57343,1.06187 -2.32699,1.61455c-2.60826,1.91297 -2.43449,8.33086 -1.246,10.95694c0,0 0.30461,0.68535 -0.38075,0.98996c-0.68536,0.30461 -0.98997,-0.38075 -0.98997,-0.38075c-2.30812,-5.27026 -0.60459,-12.82317 5.19624,-14.65928c2.36839,1.85261 1.80482,5.71704 3.49777,8.24634l0.40694,0.4664c0,0 0.48809,0.56944 -0.08135,1.05754z" fill="#dc862a" stroke-width="0.5"/><path d="M333.6837,138.0713c-0.69636,0.27855 -0.9749,-0.41781 -0.9749,-0.41781l-0.3478,-0.90595c-0.02319,-1.56146 -0.06073,-3.06455 0.25249,-4.59983c0.24833,-0.5634 0.55487,-1.20029 0.75361,-1.7546c0.20298,-0.56614 -1.17005,0.31632 -1.77073,0.34628c-1.10601,0.05518 -2.30297,-0.10897 -3.36292,0.32728c-2.15454,0.88675 -3.00266,3.3699 -4.01882,5.21096c0,0 -0.36423,0.65561 -1.01985,0.29138c-0.65562,-0.36423 -0.29138,-1.01985 -0.29138,-1.01985c1.22071,-2.18078 2.22282,-4.80362 4.75041,-5.86597c0.91195,-0.3833 6.12794,-1.22216 6.86635,-0.24951c0.59627,0.78543 -0.13766,2.41132 -0.47716,3.16848c-0.25005,1.28556 -0.18093,2.55763 -0.20905,3.86171l0.26758,0.63252c0,0 0.27855,0.69635 -0.41782,0.9749z" fill="#dc862a" stroke-width="0.5"/><path d="M329.35596,156.70412c0.67082,0.33541 0.33541,1.00623 0.33541,1.00623l-0.29434,0.50261c-3.44399,3.43166 -5.45666,-0.10918 -7.10197,-2.91575c-1.28839,2.31689 -3.29098,3.75367 -6.33075,3.61679l-0.78178,-0.70104c0,0 -0.53033,-0.53033 0,-1.06066c0.53033,-0.53033 1.06066,0 1.06066,0l0.29514,0.37589c2.13766,-0.23498 3.47951,-1.24442 4.39428,-2.83846c-0.94723,0.59455 -2.03946,0.5973 -2.48066,-0.95951c-0.48086,-1.69676 3.20068,-3.778 4.37954,-2.52676c0.00741,0.00786 0.0147,0.01573 0.02189,0.02361c0.07106,-0.02754 0.1438,-0.05271 0.21779,-0.07532c0.3048,-0.15374 0.60993,-0.25606 0.87475,-0.29232c0,0 0.39207,-0.03921 0.63626,0.2234c0.72364,0.17911 1.30449,0.71581 1.33977,1.77012c0.03776,1.12854 -1.05571,1.92216 -2.17789,2.07002c1.03789,2.0471 2.30628,4.52464 4.59231,2.22933l0.01335,-0.11277c0,0 0.33541,-0.67082 1.00623,-0.33541z" fill="#2f1c09" stroke-width="0.5"/><path d="M316.40665,145.60829c0.22577,0.2463 0.24124,0.48345 0.18897,0.67073l0.04447,0.05151c0.00358,0.29915 0.02062,0.6758 0.01911,1.07894c0.01781,-0.00091 0.03607,-0.00138 0.0548,-0.00138c0.75,0 0.75,0.75 0.75,0.75l-0.0437,0.30602c-0.32018,0.70877 -0.35505,1.11652 -0.78483,1.29783c-0.05079,0.15774 -0.11548,0.30875 -0.19515,0.45046c0.17426,1.1273 -0.09693,2.08917 -2.08273,1.8075c-1.53071,-0.21712 -2.70913,-1.95399 -2.03517,-3.42035c0.09398,-1.44052 0.71837,-3.05903 1.2647,-3.79468c0,0 0.45,-0.6 1.05,-0.15c0.10181,0.07636 0.17338,0.15703 0.22206,0.23835c0.04361,-0.00789 0.08851,-0.01201 0.13439,-0.01201c0.18059,0 0.34627,0.06383 0.47573,0.17016c0.03771,-0.00583 0.07634,-0.00887 0.11568,-0.00887c0.30388,0 0.56554,0.18072 0.68338,0.44055c0.04618,0.03384 0.09243,0.0752 0.1383,0.12524z" fill="#ffffff" stroke-width="0.5"/><path d="M327.5432,147.26654c0.11647,-0.9971 0.9013,-3.35191 2.47798,-1.85946c0.32477,0.30742 0.45209,0.61942 0.43625,0.92297c0.88306,0.744 0.88526,2.63563 0.59896,3.72286c-0.22574,3.02273 -3.38109,2.80671 -4.52934,0.37609c-0.37531,-0.79446 -0.20468,-1.28977 0.09442,-1.68866c-0.06218,-0.00305 -0.11825,-0.01045 -0.16727,-0.02239c0,0 -0.72114,-0.20603 -0.5151,-0.92718c0.20604,-0.72115 0.92719,-0.51511 0.92719,-0.51511c0.26705,0.09833 0.48724,0.0759 0.67692,-0.00912z" fill="#ffffff" stroke-width="0.5"/><path d="M318.24319,148.98219c-0.53033,0.53033 -1.06066,0 -1.06066,0l-0.26664,-0.2983c-1.19714,-1.99765 -2.27611,-3.75159 -2.85372,-6.05012c0,0 -0.1819,-0.72761 0.5457,-0.90951c0.7276,-0.1819 0.90951,0.5457 0.90951,0.5457c0.53521,2.15308 1.56273,3.77429 2.68474,5.64219l0.04106,0.00939c0,0 0.53033,0.53033 0,1.06066z" fill="#2f1c09" stroke-width="0.5"/><path d="M325.14298,148.3836c-0.62404,-0.41602 -0.20801,-1.04007 -0.20801,-1.04007l0.44248,-0.48556c1.66544,-0.82361 2.84072,-2.03909 3.21744,-3.87094c0,0 0.15715,-0.73335 0.8905,-0.5762c0.73335,0.15715 0.57621,0.89049 0.57621,0.89049c-0.5077,2.29343 -1.92544,3.84465 -4.01333,4.89829l0.13478,-0.02402c0,0 -0.41602,0.62404 -1.04006,0.20802z" fill="#2f1c09" stroke-width="0.5"/><path d="M318.00829,146.76251c0.68936,0.29544 0.39392,0.98479 0.39392,0.98479l-0.22377,0.52157c-0.10435,0.26077 -0.20871,0.52154 -0.31307,0.78231c-0.40008,0.89888 -0.6054,2.05239 -1.27009,2.80561c-1.49017,1.68864 -4.59603,1.30076 -5.29149,-0.95332c-0.88804,-2.87825 0.93464,-5.75741 3.35252,-7.10722c0,0 0.65562,-0.36424 1.01985,0.29138c0.36423,0.65562 -0.29139,1.01985 -0.29139,1.01985c-1.83981,1.01646 -3.28035,3.13774 -2.64748,5.35431c0.30881,1.08159 2.03644,1.3012 2.70851,0.4313c0.52402,-0.67827 0.69298,-1.6487 1.0376,-2.42516c0.10077,-0.25205 0.20155,-0.5041 0.30232,-0.75615l0.23777,-0.55535c0,0 0.29544,-0.68936 0.9848,-0.39392z" fill="#2f1c09" stroke-width="0.5"/><path d="M328.99993,144.66975c0.3975,-0.636 1.0335,-0.2385 1.0335,-0.2385l0.77844,0.52234c1.50353,1.70262 2.45251,7.1228 -0.708,8.05594c-2.62724,0.77569 -5.1105,-3.32275 -5.14101,-5.40382c0,0 0,-0.75 0.75,-0.75c0.75,0 0.75,0.75 0.75,0.75c-0.02016,0.96766 1.75599,4.50824 3.16667,3.9808c1.92941,-0.7214 0.98437,-4.60574 0.06123,-5.63637l-0.45233,-0.24689c0,0 -0.636,-0.3975 -0.2385,-1.0335z" fill="#2f1c09" stroke-width="0.5"/><path d="M315.36991,150.10971c-0.5,0 -0.5,-0.5 -0.5,-0.5c0,-0.57348 0,-1.41577 0,-1.98925c0,0 0,-0.5 0.5,-0.5c0.5,0 0.5,0.5 0.5,0.5c0,0.57348 0,1.14695 0,1.72043v0.26882c0,0 0,0.5 -0.5,0.5z" fill="#000000" stroke-width="0.5"/><path d="M329.67099,149.89465c-0.5,0 -0.5,-0.5 -0.5,-0.5c0,-0.57348 0,-1.25448 0,-1.82796c0,0 0,-0.5 0.5,-0.5c0.5,0 0.5,0.5 0.5,0.5c0,0.57348 0,1.14695 0,1.72043v0.10753c0,0 0,0.5 -0.5,0.5z" fill="#000000" stroke-width="0.5"/></g></g></svg>