<svg version="1.1" xmlns="http://www.w3.org/2000/svg" xmlns:xlink="http://www.w3.org/1999/xlink" width="145" height="175.4678" viewBox="0,0,145,175.4678"><g transform="translate(-477.60232,-82.0322)"><g data-paper-data="{&quot;isPaintingLayer&quot;:true}" fill-rule="nonzero" stroke-linejoin="miter" stroke-miterlimit="10" stroke-dasharray="" stroke-dashoffset="0" style="mix-blend-mode: normal"><path d="M477.60232,185c0,-40.04064 32.45936,-72.5 72.5,-72.5c40.04064,0 72.5,32.45936 72.5,72.5c0,40.04064 -32.45936,72.5 -72.5,72.5c-40.04064,0 -72.5,-32.45936 -72.5,-72.5z" fill="#8dbadd" stroke="none" stroke-width="0" stroke-linecap="butt"/><text transform="translate(496.36795,98.35986) scale(0.32332,0.32332)" font-size="40" xml:space="preserve" fill="#8dbadd" fill-rule="nonzero" stroke="none" stroke-width="1" stroke-linecap="butt" stroke-linejoin="miter" stroke-miterlimit="10" stroke-dasharray="" stroke-dashoffset="0" font-family="Pixel" font-weight="normal" text-anchor="start" style="mix-blend-mode: normal"><tspan x="0" dy="0">powerful device</tspan></text><path d="M507.38076,216.0843v-63.92694h86.10568v63.92694z" fill="#303f4a" stroke="none" stroke-width="0" stroke-linecap="butt"/><path d="M512.86323,210.20873v-52.5075h61.7231v52.5075z" fill="#8dbadd" stroke="none" stroke-width="0" stroke-linecap="butt"/><path d="M522.29315,181.27603v-18.00258h18.00257v18.00258z" fill="#303f4a" stroke="none" stroke-width="0" stroke-linecap="butt"/><path d="M513.72049,197.13544v-9.64424h48.43549v9.64424z" fill="#303f4a" stroke="none" stroke-width="0" stroke-linecap="butt"/><path d="M524.21087,172.10195c0,-3.91677 3.17516,-7.09193 7.09194,-7.09193c3.91677,0 7.09193,3.17516 7.09193,7.09193c0,3.91677 -3.17516,7.09194 -7.09193,7.09194c-3.91677,0 -7.09194,-3.17516 -7.09194,-7.09194z" fill="#8dbadd" stroke="none" stroke-width="0" stroke-linecap="butt"/><path d="M525.84462,173.47578v-2.74766h10.47082v2.74766z" fill="#303f4a" stroke="none" stroke-width="0" stroke-linecap="butt"/><path d="M532.55262,177.21334h-2.74766v-10.47081h2.74766z" fill="#303f4a" stroke="none" stroke-width="0" stroke-linecap="butt"/><path d="M484.24928,201.74052c-0.70711,-0.70711 0,-1.41421 0,-1.41421l0.49511,-0.47359c0.72848,-0.50212 1.53927,-0.89127 2.37077,-1.1936c3.01615,-1.33551 6.67228,-0.74305 9.42793,-2.4545c2.24913,-1.39687 1.75714,-2.71197 3.00417,-4.80538c1.69149,-2.83954 6.00437,-2.54731 8.73917,-2.00969c0,0 0.98058,0.19611 0.78447,1.17669c-0.19612,0.98058 -1.1767,0.78447 -1.1767,0.78447c-1.65922,-0.33839 -5.60358,-0.91275 -6.6232,1.06278c-1.23179,2.38664 -1.15018,3.94978 -3.68298,5.49644c-2.96667,1.8116 -6.56134,1.19229 -9.72986,2.60605c-0.69076,0.24157 -1.37124,0.55004 -1.96684,0.9752l-0.22782,0.24934c0,0 -0.70711,0.70711 -1.41422,0z" fill="#303f4a" stroke="none" stroke-width="0.5" stroke-linecap="butt"/><path d="M514.76727,184.86465v-24.46342h50.08077v40.27233h-50.08077v-1.84629" fill="none" stroke="#303f4a" stroke-width="2" stroke-linecap="round"/><path d="M546.62747,179.58265v-15.11655h1.6155v15.11655z" fill="#303f4a" stroke="none" stroke-width="0" stroke-linecap="butt"/><path d="M548.97342,179.62073v-15.11655h1.6155v15.11655z" fill="#303f4a" stroke="none" stroke-width="0" stroke-linecap="butt"/><path d="M551.39668,179.62073v-15.11655h1.61551v15.11655z" fill="#303f4a" stroke="none" stroke-width="0" stroke-linecap="butt"/><path d="M553.74263,179.65881v-15.11655h1.6155v15.11655z" fill="#303f4a" stroke="none" stroke-width="0" stroke-linecap="butt"/></g></g></svg>