<svg version="1.1" xmlns="http://www.w3.org/2000/svg" xmlns:xlink="http://www.w3.org/1999/xlink" width="546.96543" height="297.73794" viewBox="0,0,546.96543,297.73794"><g transform="translate(-25.90924,-76.2961)"><g data-paper-data="{&quot;isPaintingLayer&quot;:true}" fill-rule="nonzero" stroke="none" stroke-width="0.5" stroke-linecap="butt" stroke-linejoin="miter" stroke-miterlimit="10" stroke-dasharray="" stroke-dashoffset="0" style="mix-blend-mode: normal"><path d="M208.63319,87.14579c2.5,0 2.5,2.5 2.5,2.5v2.70162c0,0.49469 0.01279,5.63811 -0.04511,5.87601c-2.32763,9.56324 -8.35698,17.74665 -12.54028,26.46667c-2.86083,5.96335 -4.90223,12.35922 -7.54483,18.42412c-3.35928,7.7097 -6.6188,14.81712 -8.95932,22.91819c-2.6231,9.07849 -6.24822,17.88169 -8.82386,26.94232c-1.71461,6.0317 -2.62687,12.40308 -4.1745,18.50234c-0.8381,3.30296 -2.91334,12.60605 -8.95208,11.11175c-1.57145,-0.38886 -2.93131,-5.86273 -3.38431,-7.39832c-2.74222,-9.29551 -4.44716,-18.80827 -5.72646,-28.40304c-1.88337,-14.15413 -5.8271,-27.37015 -10.14059,-40.92684c-1.40034,-4.40106 -2.85596,-8.71491 -4.45724,-13.03973c-0.45816,-1.23741 -0.60546,-2.60837 -1.26604,-3.75062c-0.35324,-0.6108 -1.20009,-1.84537 -1.66149,-1.31154c-0.54465,0.63015 0.79887,1.55985 0.72949,2.38986c-0.14487,1.73318 -0.89881,3.36032 -1.3505,5.03986c-2.14348,7.97031 -4.24421,15.98353 -5.69726,24.10953c-1.47218,8.22122 -3.6671,16.26514 -5.20081,24.4587c-1.19579,6.38826 -1.66925,12.92697 -2.77249,19.33893c-0.34473,2.00354 -0.72285,10.11601 -5.27957,9.71533c-2.00119,-0.17597 -5.20525,-8.2294 -5.76165,-9.74463c-4.44181,-12.09626 -6.22195,-25.59325 -8.40466,-38.24969c-2.00177,-11.61006 -3.73283,-23.2099 -4.35759,-34.99531c-0.34661,-6.53841 0.44295,-13.33847 -0.32619,-19.83555c-1.25876,-10.6329 -5.20647,-20.4399 -9.37293,-30.16164c0,0 -0.98481,-2.29786 1.31306,-3.28266c2.29787,-0.9848 3.28267,1.31307 3.28267,1.31307c4.35284,10.15663 8.42812,20.44042 9.74254,31.54343c0.78269,6.6114 0.00128,13.5077 0.35385,20.15867c0.61441,11.59028 2.32334,22.99304 4.2919,34.41045c1.91386,11.10279 3.72022,22.51727 6.95704,33.31164c0.63173,2.10672 1.64937,4.0929 2.41025,6.15514c0.07985,-0.38633 0.15707,-0.77278 0.21931,-1.16022c0.5246,-3.26569 1.03798,-6.53376 1.48202,-9.81139c1.55603,-11.48553 4.45903,-22.63947 6.50153,-34.04558c1.48213,-8.2654 3.596,-16.42686 5.79172,-24.53114c0.41687,-1.53865 0.85031,-3.07285 1.25539,-4.61464c0.49783,-1.89478 -0.35667,-4.94494 1.45324,-5.69478c8.09028,-3.35174 10.16089,6.46589 11.82659,11.14963c5.94449,16.71511 11.04205,33.7921 13.39453,51.40092c1.0274,7.70555 2.27067,15.4 4.17631,22.94871c0.39983,1.58383 0.9266,3.13289 1.38942,4.69948c0.21911,0.74167 0.57061,1.46073 0.75936,2.20763c0.31755,-0.40872 0.6804,-0.79253 0.85731,-1.27239c1.10386,-2.99413 1.5121,-6.20058 2.28628,-9.29638c1.13443,-4.53634 1.72109,-9.28711 2.99395,-13.77362c2.5762,-9.0804 6.21106,-17.89932 8.83889,-26.99546c2.39978,-8.30617 5.73645,-15.62661 9.17909,-23.52762c2.66719,-6.12132 4.73287,-12.57026 7.62053,-18.58955c4.00234,-8.34283 9.78579,-16.14972 12.13859,-25.24953c0.41142,-1.59123 -0.04511,-3.28691 -0.04511,-4.93047v-2.70162c0,0 0,-2.5 2.5,-2.5z" fill-opacity="0.49412" fill="#595959"/><path d="M99.46619,176.9982c0,2.5 -2.5,2.5 -2.5,2.5h-1.80108c-0.4684,0 -5.55294,0.00937 -5.8037,-0.03228c-1.87284,-0.31109 -3.5308,-1.4876 -5.40324,-1.80108c-4.60377,-0.77076 -8.99375,0.1421 -13.48694,-2.13594c-1.713,-0.86849 -3.44962,-1.76302 -4.9199,-2.9987c-0.88687,-0.74536 -1.13709,-2.07642 -2.01632,-2.83076c-1.28341,-1.10111 -3.08219,-1.49575 -4.34169,-2.62414c-0.90274,-0.80876 -1.3363,-2.02263 -1.98664,-3.04541c-3.13638,-4.93259 -4.9456,-8.77473 -5.93697,-14.5462c-1.89272,-8.58257 -2.73744,-18.01357 -1.8118,-26.82336c0.41276,-3.92848 2.20749,-7.78998 2.70162,-11.70702c0.37978,-3.01058 -0.01873,-6.56842 -0.01873,-9.60049c0,-4.16322 -0.18905,-9.27006 -2.97636,-12.75414c-2.1985,-2.74808 -6.89353,-1.85613 -9.83283,-1.85613c-6.34745,-0.34438 -8.95736,6.96855 -8.33877,12.40873c0.17682,1.55503 2.04487,2.46299 2.5436,3.94645c0.79191,2.3555 0.16944,5.03914 0.96957,7.39186c0.46121,1.35614 2.48535,5.75755 2.79061,7.57304c0.15993,0.95117 -0.08747,5.56307 0.01701,6.42836c0.89672,7.42651 2.43092,14.48064 3.77047,21.89474c0.40903,2.26388 0.61882,4.63418 1.60595,6.71216c0.64963,1.42456 1.13139,2.93836 1.9489,4.27368c0.96177,1.57094 2.64263,2.69205 3.3555,4.39048c0.42792,1.01954 -0.6583,2.34829 -0.12138,3.31489c0.59303,1.06762 2.13546,1.21277 3.07184,1.99678c2.37636,1.98968 4.51635,4.26531 6.99695,6.12341c2.27004,1.70038 5.69217,4.98222 8.46211,5.99408c2.96655,1.08368 6.18452,1.45305 9.07283,2.73072c3.25172,1.43842 3.11341,2.04824 6.48564,2.50095c6.11099,0.82039 12.43303,0.88181 18.60589,0.88181c0,0 2.5,0 2.5,2.5c0,2.5 -2.5,2.5 -2.5,2.5c-6.34507,0 -12.94108,0.02021 -19.2168,-0.91927c-2.78162,-0.41641 -5.35487,-1.75533 -7.923,-2.90229c-2.83935,-1.26809 -6.03406,-1.56021 -8.93797,-2.67252c-3.20082,-1.22604 -6.86819,-4.60069 -9.54869,-6.61348c-2.5748,-1.93342 -4.89333,-4.18779 -7.27844,-6.3509c-1.36867,-1.24127 -3.3262,-1.94871 -4.26573,-3.53972c-0.65956,-1.1169 0.37302,-2.69025 -0.12138,-3.88944c-0.56883,-1.37971 -2.10208,-2.15168 -2.89145,-3.41821c-0.93498,-1.50015 -1.49062,-3.20571 -2.23594,-4.80857c-1.1156,-2.47865 -1.49411,-5.23575 -1.98404,-7.90937c-1.37757,-7.51756 -2.9448,-14.69813 -3.82072,-22.23819c-0.23768,-2.04598 0.35162,-4.14682 0.01701,-6.17921c-0.39626,-2.40689 -1.85356,-4.51742 -2.61264,-6.83561c-0.43439,-1.32662 -0.8388,-2.67965 -1.00308,-4.06588c-0.11595,-0.97845 0.47963,-2.01501 0.17157,-2.95091c-0.22598,-0.68653 -1.26234,-0.81426 -1.61801,-1.44346c-1.40826,-2.49133 -1.56172,-5.07968 -1.26175,-7.86445c0.82579,-7.66624 5.32799,-13.71126 13.29432,-13.96068c3.46871,0 6.87686,-0.49453 10.10378,1.15475c8.02894,4.1036 7.7054,14.38082 7.7054,22.05768c0,0.80848 0.00432,6.42339 -0.01873,6.60924c-0.48594,3.91849 -2.29284,7.78602 -2.70162,11.70702c-0.86545,8.30132 -0.02867,17.17428 1.75781,25.26054c0.85732,5.27534 2.48778,8.31464 5.26733,12.84638c0.43028,0.70151 0.62257,1.59666 1.25025,2.1289c1.25261,1.06215 2.98579,1.45261 4.23324,2.52082c0.87995,0.75351 1.14558,2.06663 2.01632,2.83076c1.4378,1.26178 4.19739,2.51807 6.1702,3.02743c3.50411,0.90472 6.23005,0.27634 9.64349,0.84333c1.87284,0.31109 3.5308,1.4876 5.40324,1.80108c1.64474,0.27536 3.33516,-0.03228 5.00279,-0.03228h1.80108c0,0 2.5,0 2.5,2.5z" fill-opacity="0.49412" fill="#595959"/><path d="M230.63346,141.02153c-0.94548,-2.31432 1.36884,-3.2598 1.36884,-3.2598l3.1498,-1.08622c3.61429,0 9.66031,-1.05874 13.14003,0.23521c4.54911,1.6916 7.42168,4.92211 10.00607,8.76727c0.18732,0.28099 5.59538,8.38539 5.67943,8.54338c2.15438,4.04956 4.44399,9.69428 5.62618,14.10774c1.09091,4.07267 0.71868,9.1997 1.03272,13.39015c0.02766,0.3691 0.76137,10.08374 0.75177,10.27176c-0.26466,5.18459 -1.03404,5.80712 -3.12891,10.32256c-0.32169,0.6934 -4.30358,9.27468 -4.57152,9.60239c-0.23378,0.28592 -8.3662,6.11033 -8.65194,6.25292c-7.28177,3.63371 -17.45053,1.82682 -25.35112,1.8007c-4.88174,-0.57037 -10.7483,-0.50881 -15.46855,-1.85429c-0.26577,-0.07576 -8.57045,-4.28651 -8.585,-4.29386c-6.38134,-3.22359 -11.60126,-6.54339 -17.16897,-11.03516c-1.41691,-1.1431 -3.04501,-2.06992 -4.23782,-3.44526c-0.19682,-0.22694 -4.94664,-8.45848 -5.16394,-8.8338c-0.51177,-0.88397 -5.10407,-8.74808 -5.28838,-9.36958c-0.34368,-1.15887 0.1201,-2.41485 0.21421,-3.61994c0.40743,-5.21706 0.89957,-10.10991 2.1915,-15.18647c0.45298,-1.77995 0.59517,-3.67545 1.38728,-5.33255c0.14312,-0.29941 5.92763,-7.79208 6.22604,-8.18001c4.16261,-5.33728 9.12061,-8.06479 14.78332,-11.72746c11.97058,-7.74262 24.95999,-13.96877 37.78682,-20.14465c7.14971,-3.44245 14.6507,-8.09868 22.70212,-8.18781c0,0 2.5,0 2.5,2.5c0,2.5 -2.5,2.5 -2.5,2.5c-7.0543,-0.10169 -14.28144,4.68279 -20.53304,7.69282c-12.63671,6.08434 -25.44904,12.20521 -37.23964,19.83749c-5.10943,3.30743 -9.86413,5.72516 -13.53646,10.57816c-1.88204,2.44665 -4.35936,4.52145 -5.68766,7.3078c-1.86782,3.9181 -2.25723,9.57615 -2.64392,13.82096c-0.1512,1.65979 -0.27741,3.32211 -0.45733,4.97904c-0.07596,0.69954 -0.5344,1.42112 -0.31008,2.08806c0.98213,2.92006 3.18875,5.27274 4.73234,7.93895c1.55482,2.68559 2.59202,5.7356 4.62723,8.0782c0.99224,1.14211 2.38523,1.8619 3.57087,2.80169c2.54479,2.0171 4.867,4.34032 7.59867,6.09606c2.73166,1.75575 5.80287,2.91639 8.70129,4.38056c2.59644,1.31162 4.97197,3.18045 7.77197,3.96902c4.37245,1.23142 9.80593,1.11531 14.32597,1.65095c4.95211,0.00824 9.90477,0.00254 14.85679,0.03316c3.64264,0.02252 4.49633,0.4954 7.92547,-1.29781c1.36695,-0.71482 2.48773,-1.82494 3.7481,-2.71433c1.09862,-0.77524 2.47975,-1.23605 3.32825,-2.27912c1.97004,-2.42178 2.5592,-5.69547 3.88619,-8.52128c1.73315,-3.69072 2.5073,-4.30248 2.66493,-8.43392c0.12328,-3.23125 -0.50123,-6.44775 -0.74289,-9.67231c-0.29248,-3.90273 0.12402,-8.85546 -0.91769,-12.63534c-1.12396,-4.07834 -3.18762,-9.16771 -5.1803,-12.90847c-1.52659,-2.86579 -3.61344,-5.39593 -5.41457,-8.09762c-1.86192,-2.81992 -3.96564,-5.49161 -7.28675,-6.7529c-2.86243,-1.08709 -8.72934,-0.02308 -11.69909,-0.02308l-1.25885,0.71486c0,0 -2.31432,0.94548 -3.2598,-1.36884z" fill-opacity="0.49412" fill="#595959"/><path d="M341.69829,145.17291c0.0087,0.09771 0.01325,0.19977 0.01325,0.30638c0,2.5 -2.5,2.5 -2.5,2.5c-5.18543,-0.10495 -10.91256,3.48839 -15.70029,5.39205c-4.47909,1.78094 -7.75175,4.37472 -11.6552,7.19387c-4.55033,3.28635 -10.16148,6.30893 -14.2022,10.1901c-2.33784,2.24553 -4.31161,4.84166 -6.47309,7.25742c-2.22265,2.48414 -4.41408,4.99656 -6.66795,7.45241c-0.51589,0.56212 -1.317,0.93194 -1.59363,1.643c-1.12739,2.8978 -1.05544,6.12877 -1.62847,9.1849c-0.56001,2.88514 -0.55588,5.88662 -0.27905,8.81254c0.0732,0.77371 -0.24712,1.64193 0.11693,2.32855c1.22257,2.30587 3.89589,3.47412 5.85751,5.19567c9.78568,8.5881 22.60717,11.06112 35.19781,12.41846c6.43654,0.69389 12.1765,1.2274 18.39677,-0.55058c1.14876,-0.32836 2.52129,-0.17083 3.47035,-0.89661c1.10733,-0.8468 1.4981,-2.35185 2.28352,-3.50353c1.70652,-2.50229 3.11363,-5.26771 3.97167,-8.17244c1.39435,-4.60499 3.3538,-9.39939 4.28724,-14.11707c0.63106,-3.18941 0.61545,-6.47329 0.92923,-9.70935c0.93539,-9.64696 1.92926,-19.58772 0.11293,-29.1623c-0.54797,-2.88857 -0.10739,-6.11149 -1.52449,-8.68753c-1.63091,-2.9647 -6.08298,-5.83644 -9.22355,-6.78722l-2.75692,1.55208c0,0 -0.16693,0.08346 -0.43237,0.15917zM338.48634,143.00513c-0.23411,-1.64235 1.40824,-2.46353 1.40824,-2.46353l4.4474,-2.05009c5.38932,1.21249 11.33409,4.17121 14.19049,9.4225c0.22679,0.41695 1.90242,9.48689 2.01658,10.09612c1.88569,10.06302 0.93315,20.43458 -0.04972,30.57113c-0.03037,0.31317 -0.9694,10.03772 -1.00098,10.19729c-0.96529,4.87864 -2.96454,9.83263 -4.40671,14.59557c-1.04978,3.39589 -2.59488,6.69844 -4.66094,9.59076c-1.12802,1.57913 -1.89965,3.52299 -3.4511,4.68879c-1.39212,1.04608 -3.2994,1.11604 -4.96219,1.63316c-6.82187,2.12156 -13.32338,1.48938 -20.36842,0.73275c-13.66416,-1.46752 -27.33128,-4.35653 -37.95542,-13.62688c-1.10551,-0.96464 -6.29975,-5.30293 -7.0715,-6.79261c-0.611,-1.17938 -0.41713,-2.62409 -0.57983,-3.94234c-0.42023,-3.40469 -0.27976,-6.91099 0.33411,-10.28614c0.1681,-0.89655 1.8379,-9.94892 2.0573,-10.47254c0.46799,-1.11686 1.55517,-1.85687 2.35295,-2.76788c2.19602,-2.50771 4.4453,-4.96828 6.66795,-7.45241c0.27634,-0.30885 6.6821,-7.47544 6.86281,-7.64741c4.20505,-4.00178 9.90149,-7.11806 14.61123,-10.51954c4.23689,-3.05998 7.85975,-5.82558 12.7257,-7.78286c5.38077,-2.16437 11.01001,-5.39365 16.83206,-5.72383z" fill-opacity="0.49412" fill="#595959"/><path d="M442.57205,155.38524c0,2.5 -2.5,2.5 -2.5,2.5c-10.04509,0 -21.27013,0 -31.76501,0c-0.68311,2.40928 -1.36623,4.81855 -2.04937,7.22782c-1.32445,4.671 -3.22926,9.40017 -4.25105,14.13775c-2.84423,13.18748 1.87991,29.61523 -5.782,41.45955c0,0 -1.38675,2.08013 -3.46688,0.69338c-2.08013,-1.38675 -0.69338,-3.46688 -0.69338,-3.46688c3.1099,-4.47878 3.15484,-10.96473 3.4986,-16.30476c0.48292,-7.50159 -0.02687,-15.93558 1.52587,-23.28432c1.03352,-4.89137 2.99244,-9.78049 4.35844,-14.5986c0.55417,-1.95465 1.10835,-3.90929 1.66254,-5.86393c-0.69515,0 -1.38541,0 -2.0702,0c-6.42571,0 -12.59575,-0.84089 -18.57422,1.62227c0,0 -2.32119,0.92848 -3.24967,-1.39272c-0.92848,-2.32119 1.39272,-3.24967 1.39272,-3.24967c1.6528,-0.64493 3.21536,-1.60394 4.95841,-1.93478c4.70041,-0.89216 10.67501,-0.04511 15.47277,-0.04511c1.16261,0 2.32522,0 3.48784,0c1.70104,-5.99947 3.40212,-11.99892 5.10315,-17.99838c2.28752,-8.04112 5.82573,-14.68932 10.28698,-21.69987c2.33008,-3.66155 4.50547,-8.51508 7.4782,-11.6926c4.94348,-5.28403 13.01791,-11.23875 20.00847,-13.3141c4.08302,-1.21216 9.66797,-1.03244 13.8775,-1.03449c4.72208,-0.00231 8.8711,-0.00704 13.51421,1.0897c1.55353,0.36696 3.41159,0.19873 4.62736,1.23315c1.44464,1.22916 1.80373,3.33734 2.7056,5.00601l0.06688,5.07708c0,0 0,2.5 -2.5,2.5c-2.5,0 -2.5,-2.5 -2.5,-2.5l0.06688,-3.92832c-0.29885,-0.73277 -0.25214,-1.73898 -0.89656,-2.19832c-0.71188,-0.50742 -1.74506,-0.14432 -2.60566,-0.29801c-5.76936,-1.0303 -11.44749,-1.24469 -17.33687,-0.98533c-9.66526,0.42565 -18.64717,5.65049 -25.28829,12.67165c-2.78804,2.94759 -4.82471,7.64055 -6.99941,11.05794c-4.20228,6.60359 -7.55239,12.79562 -9.69491,20.37938c-1.57212,5.54483 -3.1442,11.08967 -4.71631,16.6345c9.51543,0 19.03085,0 28.54628,0h1.80108c0,0 2.5,0 2.5,2.5z" fill-opacity="0.49412" fill="#595959"/><path d="M195.35364,345.93377c0.36602,-2.47306 2.83908,-2.10704 2.83908,-2.10704l3.12934,0.46315c19.56659,2.89628 39.2354,7.60193 59.04517,7.61478c4.68535,0.00304 8.81129,-0.60944 13.44899,-1.24026c1.4558,-0.19802 3.00918,-0.00845 4.37235,-0.55647c1.36318,-0.54801 2.35311,-1.76001 3.54088,-2.62474c3.83907,-2.79493 3.90006,-2.79954 7.63628,-5.35812c0.47723,-1.09617 1.27387,-2.10342 1.43169,-3.2885c0.43219,-3.24529 -1.42481,-3.66572 -3.53824,-5.54961c-2.37517,-2.1172 -4.3879,-4.67584 -7.00824,-6.48077c-2.14041,-1.47434 -4.84976,-1.87096 -7.26703,-2.82585c-4.54656,-1.79601 -9.12741,-3.97794 -13.78683,-5.45268c-4.65943,-1.47473 -9.66149,-2.32584 -14.41345,-3.47287c-2.53931,-0.61294 -5.03242,-1.47762 -7.58908,-1.99314c-7.8799,1.44307 -16.09288,1.65029 -23.54651,0.87615l-2.54778,-0.26995c-1.27072,-0.11824 -2.26544,-1.18753 -2.26544,-2.48914c0,-1.22888 0.88665,-2.25067 2.05512,-2.46053l4.45729,-0.89146l0.00723,0.03615c0.07853,-0.02511 0.15743,-0.0493 0.23672,-0.07253c0.05473,-0.01603 10.03379,-0.01217 10.24634,-0.01217c0.25846,0 9.91558,-0.00571 10.10726,0.01751c0.02684,0.00325 0.22548,0.04852 0.54951,0.12451c11.46467,-2.40732 22.17606,-7.80458 30.41505,-16.49332c2.17361,-2.29226 4.92083,-4.13546 6.57014,-6.82968c0.77917,-1.2728 0.94688,-2.83058 1.43414,-4.24115c1.0355,-2.99766 2.75218,-5.8196 3.2039,-8.95874c0.21434,-1.4895 -0.21743,-3.00221 -0.28495,-4.50554c-0.06358,-1.41558 0.3876,-2.92224 -0.10829,-4.24965c-1.00463,-2.6892 -3.60016,-4.47391 -5.32261,-6.77048c-4.01025,-1.57321 -8.63965,-4.44482 -12.83145,-5.2788c-3.10981,-0.61871 -6.34141,0.04806 -9.51217,0.04806c-4.34594,0 -8.69188,0 -13.03782,0c-16.66667,0 -33.33333,0 -50,0c0,0 -2.5,0 -2.5,-2.5c0,-2.5 2.5,-2.5 2.5,-2.5c16.66667,0 33.33333,0 50,0c6.01232,0 12.02555,-0.02755 18.03782,0c1.82933,0.00838 3.69365,-0.3089 5.48783,0.04806c4.82103,0.95917 10.38186,4.26094 14.88399,6.20399c0.54125,0.67331 6.6833,8.20989 6.97825,8.9994c0.67095,1.796 0.3052,3.82258 0.41754,5.73651c0.10715,1.8255 0.50135,3.67063 0.24089,5.48063c-0.04308,0.29936 -3.24103,9.36037 -3.43657,9.90668c-0.62045,1.7335 -0.9248,3.62125 -1.88609,5.19156c-0.96129,1.57031 -2.50408,2.69994 -3.76573,4.04091c-3.68374,3.91538 -6.96331,7.3529 -11.39235,10.42481c-0.33369,0.23144 -8.31702,5.76015 -8.50403,5.85623c-2.20125,1.13092 -4.52628,2.10966 -6.93709,2.94505c4.50413,1.04116 9.17789,1.89867 13.56117,3.286c4.76999,1.50973 9.46033,3.73055 14.11507,5.56929c2.69916,1.06624 5.67754,1.61246 8.08207,3.23744c0.26431,0.17862 7.31195,6.63676 7.73484,7.03372c3.45435,3.24259 5.74364,4.1582 5.13273,9.75319c-0.23205,2.12519 -1.67167,3.9353 -2.5075,5.90295c-3.81642,2.82917 -8.78717,7.71195 -13.20947,9.48976c-1.72992,0.69545 -3.68223,0.58871 -5.5259,0.86643c-4.84219,0.72939 -9.25944,1.28807 -14.16044,1.29114c-20.06069,0.01255 -39.96657,-4.73706 -59.7772,-7.66866l-3.12934,-0.46315c0,0 -2.47306,-0.36602 -2.10704,-2.83908z" fill-opacity="0.49412" fill="#595959"/><path d="M447.90084,311.86234c-2.48471,-0.27608 -2.20863,-2.76079 -2.20863,-2.76079l0.34838,-3.13544c0.45652,-2.18539 -0.30331,-5.07771 1.36956,-6.55616c1.68078,-1.48544 4.46821,-0.75625 6.70434,-0.57941c1.11894,0.08849 2.06086,0.89041 3.08333,1.35346c4.7413,2.14724 9.36329,4.82952 13.35424,8.22727c5.896,5.01962 11.98643,12.89658 13.33102,20.68455c1.25687,7.27987 -1.51195,14.42267 -3.80435,21.1222c-2.9522,3.61237 -6.15211,8.87346 -9.8404,11.69467c-0.88481,0.6768 -2.12275,0.6778 -3.19402,0.9833c-4.80617,1.37062 -9.65596,2.60876 -14.48081,3.9123c-0.4251,0.11485 -9.7696,2.64745 -9.99912,2.67583c-6.55397,0.81045 -14.43423,0.0936 -20.76148,-1.5355c-1.8324,-0.47179 -3.78386,-0.63568 -5.4837,-1.46684c-2.5632,-1.25331 -4.09003,-3.98044 -6.07611,-6.02892c-1.31505,-1.35637 -2.99494,-2.44829 -3.91456,-4.09856c-0.91962,-1.65028 -0.96441,-3.65335 -1.42605,-5.48529c-0.21425,-0.8502 -0.42077,-1.6724 -0.61567,-2.47602c-2.05878,1.92532 -4.50061,4.18515 -4.77723,4.44138c-6.64372,6.15413 -16.01237,12.55424 -24.77642,14.91734c-0.56943,0.15354 -9.81598,2.63012 -10.13364,2.65506c-5.47458,0.42968 -10.6478,-1.32691 -15.18245,-4.08159c-1.63938,-0.99588 -3.55429,-1.66733 -4.87363,-3.05968c-0.46179,-0.48735 -4.14297,-9.17689 -4.17905,-9.26044c-0.0352,-12.83753 -0.96385,-26.81267 4.60332,-38.78756c0.10246,-0.22039 5.52762,-8.23664 5.79715,-8.63049c1.04307,-1.5242 1.80405,-3.29443 3.15233,-4.5567c3.38091,-3.16524 8.8364,-4.43953 13.06478,-5.93291c5.96108,-2.10534 11.91021,-2.7766 18.04714,-0.7985c0,0 2.37171,0.79057 1.58114,3.16228c-0.79057,2.37171 -3.16228,1.58114 -3.16228,1.58114c-4.95921,-1.72607 -9.99286,-0.96818 -14.78432,0.76379c-3.28448,1.18724 -8.65201,2.29903 -11.30786,4.85409c-1.07134,1.03068 -1.62389,2.49069 -2.44887,3.72742c-1.7764,2.663 -4.05574,5.03499 -5.40524,7.93775c-5.19169,11.16725 -3.75656,23.77512 -4.2387,35.6778c1.05617,2.29505 1.26061,5.14133 3.02527,6.94929c0.98912,1.01339 2.48188,1.36531 3.7013,2.08528c5.49936,3.24694 10.45919,3.84681 16.62412,2.17114c2.77321,-0.75378 5.71587,-1.01808 8.33701,-2.19643c6.62452,-2.97809 13.86264,-7.91353 19.15664,-12.84201c2.30762,-2.14829 5.18078,-3.79737 6.97138,-6.39237c0.01577,-0.02286 0.03133,-0.04583 0.04667,-0.06891c-0.34428,-2.30466 -0.49834,-4.64875 -0.35678,-7.28583c0.02992,-0.50865 0.58479,-10.11108 0.64296,-10.38061c0.05208,-0.24132 3.58453,-9.05337 3.66504,-9.24952c0.36369,-0.88606 0.6534,-1.81268 0.98661,-2.71616c-0.00804,-0.01828 -0.01616,-0.03653 -0.02434,-0.05477c-0.60874,-1.35552 -1.7327,-2.41455 -2.58619,-3.63092c-1.69508,-2.41578 -2.95125,-5.18652 -5.01487,-7.2962c-2.24105,-2.29106 -5.11476,-3.86371 -7.63898,-5.83844c-1.0931,-0.85515 -1.97768,-2.05234 -3.254,-2.59747c-1.34682,-0.57525 -2.899,-0.41914 -4.34548,-0.64839c-6.58019,-1.0429 -12.9486,-1.84101 -19.5994,-2.29357c-5.20342,-0.35407 -11.6094,-1.48587 -16.56871,0.31162l0.52122,0.55545c0,0 -1.11803,2.23607 -3.3541,1.11803c-2.23607,-1.11803 -1.11803,-3.3541 -1.11803,-3.3541l2.3223,-3.04671c5.8167,-1.92861 12.47658,-0.98387 18.53626,-0.5728c6.80246,0.46146 13.36185,1.18122 20.08247,2.3501c1.84154,0.32029 3.80064,0.25877 5.51846,0.9956c1.64736,0.70661 2.87894,2.13648 4.30757,3.21912c0.37978,0.2878 8.03993,6.17757 8.2135,6.35578c0.171,0.17559 5.50229,7.89524 5.50276,7.89593c0.54875,0.80228 1.17393,1.56292 1.75151,2.34995c0.22468,-0.14251 0.44579,-0.28804 0.65411,-0.44497c0,0 8.05555,-5.92521 8.05555,-5.92521c5.74747,-4.20496 12.12676,-5.96683 18.79437,-8.34812c0.52873,-0.18883 9.52114,-3.41237 9.83158,-3.47233c5.95313,-1.14982 13.27079,-0.03668 19.33803,-0.03668c0,0 2.5,0 2.5,2.5c0,2.5 -2.5,2.5 -2.5,2.5c-5.75193,0 -12.85588,-1.14811 -18.48467,-0.03668c-3.13068,0.61817 -5.99804,2.18111 -9.00326,3.2544c-6.16616,2.2022 -12.23218,3.76021 -17.51344,7.66718c-2.67975,1.98243 -5.34368,3.98695 -8.05555,5.92521c-0.48219,0.34463 -1.14128,0.5084 -1.54071,0.92672c0.49497,2.24587 0.50994,4.63753 0.89596,6.91392c0.28546,1.87302 1.0621,3.73562 0.85637,5.61906c-0.0489,0.44764 -3.6249,9.18362 -3.92971,9.93459c-0.16549,0.40771 -1.81617,4.49571 -2.95253,7.24803c0.39313,2.09366 0.94573,4.18709 1.49986,6.56811c0.32746,1.40708 0.23183,2.97 0.93506,4.23197c0.70323,1.26197 2.08269,2.00289 3.10703,3.02164c1.70364,1.69435 2.80787,4.20176 4.99466,5.19733c1.31217,0.59739 2.81609,0.62075 4.21773,0.95851c5.8213,1.4028 12.91845,2.16802 18.93519,1.42401c3.19205,-0.39472 6.20359,-1.70167 9.30863,-2.54057c3.21796,-0.8694 6.43592,-1.7388 9.65387,-2.6082c1.60898,-0.4347 3.2108,-0.89682 4.82694,-1.3041c0.59375,-0.14963 1.33032,0.02674 1.80011,-0.36597c3.06399,-2.56127 5.54842,-6.84778 8.17041,-9.91829c2.88669,-8.94407 5.22598,-17.58268 -0.11197,-26.24551c-1.67296,-2.715 -4.26896,-4.73891 -6.38172,-7.12768c-3.84724,-4.34984 -8.89472,-7.24621 -14.10718,-9.68443c-0.2043,-0.09556 -3.97362,-2.13066 -4.36511,-1.59159c-0.66461,0.91515 0.17683,2.25512 0.26525,3.38268l-0.34838,3.13544c0,0 -0.27608,2.48471 -2.76079,2.20863zM408.29146,326.13203c-0.33143,1.54552 -0.41926,3.1235 -0.44593,4.70979c0.20426,-0.49472 0.40948,-0.98904 0.61584,-1.48289c0.5549,-1.32803 1.55542,-2.53334 1.71171,-3.96413c0.1152,-1.05466 -0.23485,-2.09041 -0.53573,-3.12816c-0.56117,1.25387 -1.05886,2.52697 -1.34588,3.8654z" fill-opacity="0.49412" fill="#595959"/><path d="M469.63879,274.91776c-1.56174,-1.95217 0.39043,-3.51391 0.39043,-3.51391l0.59836,-0.47869c1.5857,-1.18956 2.90453,-2.86335 4.75711,-3.56867c2.81818,-1.07294 6.01762,0.41576 9.01817,0.71581c8.10349,0.81035 15.90383,2.13871 23.89668,3.68857c0.41856,0.08116 9.93402,1.91892 10.14564,1.99084c0.21162,0.07192 8.87656,4.41245 9.2579,4.60312c0.48576,0.24288 8.96755,4.47486 9.25228,4.65482c4.75691,3.00659 8.97747,8.33469 13.09489,12.17339c7.93454,7.39743 15.41816,13.77819 18.57267,24.5085c0.92299,3.203 1.87182,6.39866 2.76897,9.609c0.50689,1.81385 1.44833,3.56921 1.48184,5.45226c0.03351,1.88305 -0.8426,3.67134 -1.28693,5.50153c-1.13163,4.66123 -2.52991,7.86092 -4.59059,12.17198c-0.81099,1.69664 -1.26077,3.63132 -2.46834,5.07288c-2.91805,3.48348 -8.99785,6.44795 -12.73379,9.08271c-4.64364,3.27491 -8.3704,6.86006 -14.32322,7.42906c-1.35947,0.12995 -2.71214,-0.32354 -4.0667,-0.49742c-0.57786,-0.07418 -10.07813,-1.33302 -10.37517,-1.42891c-1.55422,-0.50174 -2.86389,-1.5709 -4.2903,-2.36632c-4.58256,-2.55541 -9.1319,-5.1578 -13.65238,-7.82129c-2.31714,-4.43945 -5.80338,-9.59825 -7.25846,-14.40691c-1.49633,-4.94501 -0.30173,-9.06666 0.49623,-13.94688c0.7518,-4.59793 0.79525,-11.08253 2.5804,-15.3624c0.71575,-1.716 2.14023,-3.04099 3.22336,-4.55221c4.24719,-5.92585 8.29145,-11.35437 15.085,-14.64394c5.37915,-2.60469 12.35164,-2.01298 18.11755,-2.01298c0,0 2.5,0 2.5,2.5c0,2.5 -2.5,2.5 -2.5,2.5c-4.97491,0 -11.4651,-0.71315 -16.10298,1.58918c-5.98564,2.97138 -9.23342,7.82531 -13.05429,13.00641c-0.87506,1.18658 -2.0864,2.17762 -2.65397,3.53834c-0.56757,1.36073 -0.41946,2.91879 -0.64693,4.37549c0,0 -1.61367,9.86895 -1.61367,9.86895c-0.40752,2.49232 -1.30736,4.94746 -1.25099,7.47225c0.1318,5.90242 4.27247,11.41312 6.70395,16.63119c4.20334,2.22829 8.34942,4.55212 12.48222,6.90904c1.1448,0.65288 2.16671,1.57866 3.42184,1.9805c3.02448,0.9683 6.30388,0.77752 9.44939,1.21436c1.04294,0.14484 2.07493,0.53982 3.12496,0.46146c4.65143,-0.34713 8.11266,-3.97723 11.72245,-6.52302c2.72404,-1.92112 5.43104,-3.86664 8.17212,-5.76337c1.19508,-0.82695 2.67722,-1.32996 3.61046,-2.44403c0.93323,-1.11407 1.16865,-2.66143 1.77332,-3.98296c1.92469,-4.20653 3.11336,-6.80084 4.2678,-11.26383c0.36324,-1.40427 1.16424,-2.74964 1.13843,-4.19989c-0.02581,-1.45025 -0.87272,-2.76671 -1.28713,-4.15673c-0.95235,-3.19439 -1.84598,-6.406 -2.76897,-9.609c-2.74663,-9.76002 -10.00012,-15.54407 -17.17776,-22.23583c-3.90218,-3.63803 -8.01432,-8.92281 -12.53739,-11.72376c-2.73273,-1.69227 -5.76132,-2.85198 -8.63626,-4.28946c-2.88033,-1.44017 -5.58158,-3.30498 -8.63064,-4.34115c-3.04906,-1.03617 -6.32722,-1.20335 -9.48864,-1.81637c-7.84465,-1.52112 -15.49012,-2.82673 -23.4424,-3.62196c-1.6584,-0.16584 -3.32163,-0.28886 -4.97519,-0.49752c-0.71584,-0.09033 -1.46713,-0.68942 -2.12751,-0.39875c-1.23873,0.54521 -2.03439,1.78552 -3.05158,2.67828l-0.59836,0.47869c0,0 -1.95217,1.56174 -3.51391,-0.39043z" fill-opacity="0.49412" fill="#595959"/></g></g></svg>