<svg version="1.1" xmlns="http://www.w3.org/2000/svg" xmlns:xlink="http://www.w3.org/1999/xlink" width="56.38889" height="36.11325" viewBox="0,0,56.38889,36.11325"><defs><linearGradient x1="319.5336" y1="203.59185" x2="325.36694" y2="203.59185" gradientUnits="userSpaceOnUse" id="color-1"><stop offset="0" stop-color="#dfcfff" stop-opacity="0.53333"/><stop offset="1" stop-color="#dfcfff" stop-opacity="0"/></linearGradient><linearGradient x1="332.0336" y1="203.48073" x2="326.20027" y2="203.48073" gradientUnits="userSpaceOnUse" id="color-2"><stop offset="0" stop-color="#dfcfff" stop-opacity="0.53333"/><stop offset="1" stop-color="#dfcfff" stop-opacity="0"/></linearGradient></defs><g transform="translate(-303.14471,-180.64444)"><g data-paper-data="{&quot;isPaintingLayer&quot;:true}" fill-rule="nonzero" stroke-linejoin="miter" stroke-miterlimit="10" stroke-dasharray="" stroke-dashoffset="0" style="mix-blend-mode: normal"><g data-paper-data="{&quot;index&quot;:null}"><path d="M325.68055,205.65769c3.06518,0 5.55,2.48482 5.55,5.55c0,3.06518 -2.48482,5.55 -5.55,5.55c-3.06518,0 -5.55,-2.48482 -5.55,-5.55c0,-3.06518 2.48482,-5.55 5.55,-5.55z" fill="#ff6f00" stroke="none" stroke-width="0" stroke-linecap="butt"/><path d="M322.78957,207.08416c0,0 1.3775,2.70896 1.3775,4.0375c0,1.39184 -1.3775,4.37 -1.3775,4.37" fill="none" stroke="#0084ff" stroke-width="1" stroke-linecap="round"/><path d="M328.48958,215.49166c0,0 -1.3775,-2.97816 -1.3775,-4.37c0,-1.32854 1.3775,-4.0375 1.3775,-4.0375" data-paper-data="{&quot;index&quot;:null}" fill="none" stroke="#0084ff" stroke-width="1" stroke-linecap="round"/></g><path d="M323.78696,180.64444v8.07426h-5.08118v-8.07426z" data-paper-data="{&quot;index&quot;:null}" fill="#9966ff" stroke="none" stroke-width="0" stroke-linecap="butt"/><g data-paper-data="{&quot;index&quot;:null}"><path d="M325.73611,194.10213c3.06518,0 5.55,2.48482 5.55,5.55c0,3.06518 -2.48482,5.55 -5.55,5.55c-3.06518,0 -5.55,-2.48482 -5.55,-5.55c0,-3.06518 2.48482,-5.55 5.55,-5.55z" fill="#ff6f00" stroke="none" stroke-width="0" stroke-linecap="butt"/><path d="M322.84513,195.5286c0,0 1.3775,2.70896 1.3775,4.0375c0,1.39184 -1.3775,4.37 -1.3775,4.37" fill="none" stroke="#0084ff" stroke-width="1" stroke-linecap="round"/><path d="M328.54514,203.9361c0,0 -1.3775,-2.97816 -1.3775,-4.37c0,-1.32854 1.3775,-4.0375 1.3775,-4.0375" data-paper-data="{&quot;index&quot;:null}" fill="none" stroke="#0084ff" stroke-width="1" stroke-linecap="round"/></g><path d="M332.0336,192.53629v21.44444h-12.5v-21.44444z" data-paper-data="{&quot;index&quot;:null}" fill-opacity="0.53333" fill="#dfcfff" stroke="none" stroke-width="NaN" stroke-linecap="butt"/><path d="M325.36693,193.20296v20.77778h-5.83333v-20.77778z" data-paper-data="{&quot;index&quot;:null}" fill="url(#color-1)" stroke="none" stroke-width="0" stroke-linecap="butt"/><path d="M332.03361,193.09185v20.77778h-5.83334v-20.77778z" data-paper-data="{&quot;index&quot;:null}" fill="url(#color-2)" stroke="none" stroke-width="0" stroke-linecap="butt"/><path d="M332.97805,212.86963v1.72222h-14.38889v-1.72222z" data-paper-data="{&quot;index&quot;:null}" fill="#3e3e3e" stroke="none" stroke-width="NaN" stroke-linecap="butt"/><path d="M359.5336,187.48074v6.83333h-44.22222v-6.83333z" data-paper-data="{&quot;index&quot;:null}" fill="#444444" stroke="none" stroke-width="0" stroke-linecap="butt"/><path d="M314.64471,185.20296c2.20914,0 4,1.79086 4,4v11.33333c0,2.20914 -1.79086,4 -4,4h-7.5c-2.20914,0 -4,-1.79086 -4,-4v-11.33333c0,-2.20914 1.79086,-4 4,-4z" data-paper-data="{&quot;index&quot;:null}" fill="#878787" stroke="none" stroke-width="0" stroke-linecap="butt"/><path d="M304.64471,198.6474l9.5,3.88889" data-paper-data="{&quot;index&quot;:null}" fill="none" stroke="#4e4e4e" stroke-width="1" stroke-linecap="round"/><path d="M304.97805,195.81407l10.5,4.72222" data-paper-data="{&quot;index&quot;:null}" fill="none" stroke="#4e4e4e" stroke-width="1" stroke-linecap="round"/><path d="M304.75582,193.48074l11.5,4.88889" data-paper-data="{&quot;index&quot;:null}" fill="none" stroke="#4e4e4e" stroke-width="1" stroke-linecap="round"/></g></g></svg>