<svg version="1.1" xmlns="http://www.w3.org/2000/svg" xmlns:xlink="http://www.w3.org/1999/xlink" width="25.12572" height="42.75751" viewBox="0,0,25.12572,42.75751"><g transform="translate(-289.7644,-159.30587)"><g data-paper-data="{&quot;isPaintingLayer&quot;:true}" fill="#ad7c29" fill-rule="nonzero" stroke="none" stroke-width="0" stroke-linecap="butt" stroke-linejoin="miter" stroke-miterlimit="10" stroke-dasharray="" stroke-dashoffset="0" style="mix-blend-mode: normal"><path d="M290.09853,159.35472c3.89761,-0.02022 6.18241,2.73804 9.72431,4.15641c3.3374,1.33647 7.40839,0.67717 10.44243,2.61766c1.87204,1.19731 3.497,4.9811 3.93656,7.0048c-0.00621,1.79193 -0.21058,3.79479 -0.00051,5.57997c0.19669,1.67155 0.94377,3.58727 0.59927,5.309c-0.24453,1.22207 -1.49484,2.26494 -1.84442,3.51514c-0.91301,3.26522 -0.96471,7.38688 -3.85012,9.80808c-1.95074,1.63691 -5.7042,2.18742 -8.03964,2.94605c-3.68928,0.92683 -7.51646,1.26296 -11.30201,1.77156v-42.75751c0.19019,0.04885 0.33412,0.04885 0.33412,0.04885z"/></g></g></svg>