<svg version="1.1" xmlns="http://www.w3.org/2000/svg" xmlns:xlink="http://www.w3.org/1999/xlink" width="40.65878" height="33.22394" viewBox="0,0,40.65878,33.22394"><g transform="translate(-315.22769,-150.59281)"><g data-paper-data="{&quot;isPaintingLayer&quot;:true}" fill-rule="nonzero" stroke="none" stroke-width="0.5" stroke-linecap="butt" stroke-linejoin="miter" stroke-miterlimit="10" stroke-dasharray="" stroke-dashoffset="0" style="mix-blend-mode: normal"><path d="M340.28308,156.81593c0.12087,0.96697 -7.01633,7.61261 -7.10984,7.67755c-0.60806,0.42225 -1.44944,0.45392 -2.13272,0.6608c-0.08212,0.02486 -0.19789,0.03713 -0.32675,0.04297c-0.25303,0.08619 -0.52431,0.13295 -0.80651,0.13295c-0.03199,0 -0.06384,-0.0006 -0.09554,-0.00179c2.62488,1.72628 -0.33824,5.63844 -2.29354,6.64514c-2.8383,1.46131 -5.7576,0.38109 -5.76527,-2.3567c-0.42908,0.14659 -0.78954,0.25605 -1.03779,0.31811c-2.94654,0.73663 -7.36278,-2.70777 -4.63013,-5.62757c1.65502,-1.76836 5.39449,-0.00684 6.42199,-1.20168c1.12614,-1.30955 1.15947,-3.8227 2.01388,-5.40305c1.43387,-2.65215 5.75599,-4.55768 8.41479,-5.6212c0.30123,-0.12865 0.63286,-0.19986 0.98112,-0.19986c1.38071,0 2.5,1.11929 2.5,2.5c0,0.06088 -0.00218,0.12125 -0.00645,0.18104c1.939,-0.60899 3.55445,-0.29323 3.87277,2.25331z" fill="#41a00d"/><path d="M349.03697,156.15354c-0.9593,3.83719 -5.07272,5.6885 -6.88352,9.26373c-0.80572,1.59081 1.13269,2.71539 -1.12206,4.21855c-0.69877,0.46585 -1.68998,0.33805 -2.51349,0.17334c-2.03876,-0.40775 -1.78253,-3.92022 -1.44419,-5.27357c0.97708,-3.90833 5.29382,-5.75133 6.81211,-8.81224c0.33476,-0.67489 -0.21233,-1.50005 -0.07493,-2.00384c-0.0517,-0.20027 -0.0792,-0.41027 -0.0792,-0.6267c0,-1.38071 1.11929,-2.5 2.5,-2.5c0.61384,0 1.17601,0.22123 1.61112,0.58831c1.3152,0.40128 1.8692,2.27222 1.19416,4.97242z" fill="#41a00d"/><path d="M348.66604,161.04618c0.63268,0.36153 1.50434,0.48569 1.99291,0.99036c0.07451,0.07697 0.14011,0.16278 0.19459,0.25964c0.8493,1.50985 0.20448,3.32404 1.29362,4.82867c1.15804,1.59982 4.53875,2.79269 3.56557,5.22563c-1.55058,3.87644 -2.66662,0.19072 -4.32506,0.96256c-1.0124,0.47117 -1.78935,1.81039 -2.89837,1.6799c-5.19037,-0.61071 -4.35575,-5.26562 -2.07186,-8.33206c0.51236,-0.68791 -1.20425,-3.64164 0.09407,-4.38353z" fill="#41a00d"/><path d="M331.83446,177.00669c0,5.80509 -3.54211,6.95713 -8.75348,6.79591c-2.17893,-0.06741 -5.2892,0.18253 -5.41112,-2.78639c-0.17363,-4.22812 2.31415,-7.84747 6.04712,-7.68421c0.23641,-0.07412 0.48793,-0.11407 0.74879,-0.11407c0.70898,0 1.34903,0.29512 1.80401,0.76923c1.87581,0.8604 5.32468,-1.98183 5.48011,2.68125z" fill="#41a00d"/><path d="M350.62447,161.51999c-3.61739,7.05391 -13.5047,0.49968 -9.50117,-6.52007c0.84746,-1.48593 1.86229,-2.59869 3.01932,-2.91164c0.28526,-0.11323 0.59631,-0.17547 0.92189,-0.17547c0.90197,0 1.69238,0.47766 2.13206,1.19382c0.04341,0.03959 1.6699,-0.43666 1.90777,-0.41522c2.09256,0.18869 5.66604,-0.36815 4.76727,3.51608c-0.52273,2.25912 -1.93926,3.43133 -3.28782,5.19483z" fill="#2e7109"/></g></g></svg>