<svg version="1.1" xmlns="http://www.w3.org/2000/svg" xmlns:xlink="http://www.w3.org/1999/xlink" width="594.90213" height="284.96696" viewBox="0,0,594.90213,284.96696"><g transform="translate(-19.27397,-11.28312)"><g data-paper-data="{&quot;isPaintingLayer&quot;:true}" fill-rule="nonzero" stroke-linecap="butt" stroke-linejoin="miter" stroke-miterlimit="10" stroke-dasharray="" stroke-dashoffset="0" style="mix-blend-mode: normal"><path d="M232.63546,259.96097c0.24117,0.18926 0.37475,0.32283 0.37475,0.32283l1.59284,1.59284c0.30878,0.08733 0.61319,0.18951 0.91188,0.31111c1.6373,0.66656 2.92695,1.94239 4.24345,3.16266c2.40089,-0.07865 4.93125,-0.23711 7.21276,0.07299c4.66414,0.63394 9.24858,1.24998 13.95307,1.86304c2.64873,0.34517 7.1423,-1.15808 9.49909,0.01313c0.18773,0.09329 0.37342,0.19001 0.55726,0.28984l0.0445,-0.17801l3.59875,0.89969c1.21886,-3.27829 3.22722,-5.21004 5.00662,-8.05849c1.92003,-3.07358 1.26295,-7.40459 2.44811,-10.5418c0.23566,-0.62381 0.99476,-0.9071 1.49557,-1.36039c0,-0.15951 0,-0.31903 0,-0.47854c0.12775,-3.98376 -2.10737,-6.81516 -3.44177,-10.46039c-0.35321,-0.96488 -0.15886,-2.09545 -0.59966,-3.02358c-0.26,-0.54744 -1.00752,-0.70115 -1.39189,-1.16972c-2.06616,-2.51879 -5.4159,-6.26262 -6.54727,-9.22572c-0.28008,-0.73355 0.44679,-1.61645 0.16607,-2.34976c-0.22699,-0.59294 -1.1771,-0.62033 -1.51003,-1.16093c-0.51853,-0.84197 -0.43219,-1.96463 -0.93809,-2.81426c-0.39333,-0.6606 -1.27679,-0.92612 -1.67913,-1.58128c-1.07196,-1.74556 -2.05481,-3.57843 -2.6862,-5.52713c-0.25844,-0.79764 0.34196,-1.71735 0.08078,-2.5141c-0.1832,-0.55889 -0.66228,-0.95544 -1.07589,-1.39308c-0.50853,-0.11524 -1.01733,-0.22877 -1.45774,-0.49302c-0.7584,-0.45504 -1.16685,-1.34788 -1.87617,-1.87617c-1.01838,-0.75847 -2.71081,0.39552 -3.80077,-0.2559c-0.2366,-0.1414 -0.46862,-0.28924 -0.69669,-0.44263l-0.08354,0.25061l-2.70487,-0.90162c-0.89073,-0.27394 -1.6754,-0.79002 -2.2772,-1.47142c-0.07496,0.07458 -0.14852,0.15016 -0.2202,0.22707c-2.57019,2.53073 -5.59628,4.9494 -8.84347,6.58456c-0.73923,0.37225 -1.67402,0.27164 -2.38236,0.69976c-0.81007,0.48961 -1.19138,1.55737 -2.04134,1.97392c-2.38227,1.16752 -6.69654,2.30438 -9.68367,3.06904c-0.02824,1.50359 -1.60697,5.61566 -2.05052,7.11111c-1.26624,4.26917 -0.37036,8.05245 -2.32577,12.32259c-0.24503,0.53509 -0.81957,0.83853 -1.29314,1.21475c0.03771,0.66694 0.06597,1.32115 0.06597,1.95027c0,3.67042 -0.51417,7.3389 0.73869,10.79719c0.42929,1.77319 1.03928,3.33003 1.72606,4.84087c0.0133,-0.0001 0.02662,-0.00016 0.03995,-0.00016c2.24919,0 4.15152,1.48512 4.77987,3.52824l0.76031,2.28092c0.80103,0.55498 1.51147,1.35668 2.32019,1.89072zM216.19941,196.39077c0.75029,-1.05441 1.51424,-1.97906 2.23504,-2.7111c4.44314,-4.44314 7.126,-9.71292 13.6438,-11.64966c3.45953,-1.02799 8.77051,-0.13375 12.40581,-0.13375c8.49857,0 16.01448,0.37726 24.09521,3.07084c1.12901,0.37634 6.03313,1.97718 6.67603,2.36633c0.59067,0.35753 3.8666,3.67744 4.65922,4.47007c4.68647,4.68648 9.47506,9.1707 13.46438,14.43688c0.82315,1.08661 2.08412,1.88308 2.62886,3.1327c0.4373,1.00315 -0.14566,2.22978 0.16607,3.27876c0.56799,1.91133 2.56036,3.10045 3.45846,4.88068c0.49183,0.97492 0.63497,2.09428 1.0659,3.0976c1.37065,3.19122 5.94708,10.74992 3.18916,14.21783c-0.49275,0.61961 -1.13637,1.09389 -1.8783,1.43909c1.09679,2.62529 2.30521,5.24001 2.75752,7.96965c0.56277,3.39624 0.68834,9.48538 0,12.85886c-0.95431,4.67697 -3.34975,5.16107 -5.13429,8.90053c-2.39026,5.00874 -4.74659,8.90988 -8.82632,12.92699c-3.97005,2.62162 -8.71314,5.32484 -13.54708,7.05211c-2.52225,1.47166 -5.33761,2.24157 -8.40361,1.85537c-6.07903,0.52558 -12.78677,-0.2695 -18.74271,-0.2695c-6.45687,0 -13.70101,0.89584 -19.51421,-2.62292c-0.71949,-0.43552 -3.36776,-3.19192 -4.29364,-4.13889c-3.66297,-2.39767 -7.29657,-4.73712 -10.07762,-8.20146c-1.41157,-1.75839 -2.3791,-3.84004 -3.75235,-5.62852c-1.25345,-1.63247 -3.49634,-2.29241 -4.79725,-3.88732c-0.72543,-0.88937 -0.62224,-2.23948 -1.21781,-3.22057c-0.45895,-0.75603 -1.43479,-1.10974 -1.87617,-1.87617c-3.63861,-6.31825 -1.37815,-12.19077 -2.55836,-18.71329c-0.57202,-3.16133 -1.9211,-6.85323 -1.00265,-10.18177v-2.81426c0,-2.64802 2.05849,-4.81526 4.66255,-4.98879c0.03125,-0.16728 0.06209,-0.33479 0.09244,-0.50255c0.43105,-2.38224 -0.21032,-5.21174 -0.06457,-7.64186c0.14119,-2.35394 -1.09976,-5.40651 0.59163,-7.04972c0.57758,-0.56113 1.23754,-0.98771 1.95235,-1.32475l-0.31748,-0.47621l2.75738,-1.83826c0.22921,-0.15768 0.47223,-0.29673 0.72687,-0.41498c0.05585,-0.38511 0.14969,-0.76232 0.29837,-1.12845c0.57475,-1.41527 1.97335,-2.33219 2.96004,-3.49829c0,0 0.58512,-0.58511 1.51731,-1.04125z" fill="#b9cbd5" stroke="none" stroke-width="0.5"/><path d="M523.13569,142.06709c-0.77883,-14.82358 0.00101,-37.00121 0.00101,-37.00121c0,0 13.2716,-41.46805 15.04023,-41.46805c3.35236,0 10.80069,8.59496 21.76492,16.74715c2.65818,1.97643 4.14717,-27.60428 6.93158,-25.63709c13.93481,9.84494 26.30778,50.14315 26.30778,50.14315c0,0 4.27707,17.72996 4.58315,30.49818c0.12479,5.20562 1.42116,12.4771 1.65809,21.23711c-3.64396,0.75358 -7.47341,1.18324 -10.82319,2.28512c-7.6207,0.96596 -15.38148,0.70837 -23.13505,0.70837c-7.91432,0 -14.78916,-0.39493 -22.42446,-2.19637c-6.10615,-1.22169 -14.6714,-3.42154 -19.47415,-8.03448c-0.17345,-2.72094 -0.31924,-5.17591 -0.42988,-7.28188z" fill="#c5d8e2" stroke="none" stroke-width="0"/><path d="M597.81265,155.57236c0,-6.45741 0.10707,-13.01224 -2.35229,-19.07502c0,0 -0.99746,-2.49366 1.4962,-3.49112c2.49366,-0.99746 3.49112,1.4962 3.49112,1.4962c2.67797,6.77489 2.73651,13.87268 2.73651,21.06994l-0.00553,0.05233c-1.76152,0.56785 -3.63377,0.95768 -5.52674,1.30436z" fill="#c5d8e2" stroke="none" stroke-width="0.5"/><path d="M570.47313,156.32353c0,0 -5.82203,2.92173 -8.59675,0.5399c-1.59186,-1.36647 -9.26351,-18.13158 -9.26351,-18.13158c0,0 13.2037,-21.92642 16.05693,-22.86897c1.73542,-0.57328 8.21678,11.32022 9.45774,11.32022c6.93175,0 29.27475,3.22291 29.27475,3.22291v21.35174z" fill="#c6deec" stroke="none" stroke-width="0"/><path d="M543.6732,134.84135c0.94955,-0.94955 1.8991,0 1.8991,0l0.08071,0.17816c10.34772,5.17386 21.9221,8.46617 33.56225,8.45265c7.08297,0 13.68081,-0.41308 20.62637,-1.48669c2.4961,-0.38583 4.81349,-0.63599 7.13467,-1.80931c0,0 1.2011,-0.60055 1.80166,0.60055c0.60055,1.2011 -0.60055,1.80166 -0.60055,1.80166c-8.46187,4.19206 -19.73002,3.57951 -28.96215,3.57951c-12.0613,-0.01279 -24.0349,-3.37194 -34.76333,-8.73616l-0.77873,-0.68129c0,0 -0.94955,-0.94955 0,-1.8991z" fill="#a9ccdf" stroke="none" stroke-width="0.5"/><path d="M598.7586,138.9345c-2.63359,0.52672 -3.16033,-2.10687 -3.16033,-2.10687l-0.38952,-1.98411c-0.19631,-1.71669 -0.92365,-3.33023 -1.35966,-5.0022c-0.95643,-3.66757 -0.4469,-7.61971 -1.12512,-11.32681c-0.25218,-1.37846 -0.89495,-2.67213 -1.09319,-4.05936c-1.07161,-7.49863 -1.19529,-15.25105 -3.50351,-22.54435c-1.77643,-5.61301 -5.01909,-10.44055 -7.09226,-15.90207c0,0 -0.94303,-2.51476 1.5717,-3.45779c2.51476,-0.94303 3.45782,1.5717 3.45782,1.5717c2.06781,5.59568 5.41798,10.57163 7.23173,16.32698c2.37684,7.54213 2.55181,15.54276 3.65851,23.29252c0.1867,1.3074 0.82056,2.51925 1.05541,3.81886c0.63688,3.52417 0.0769,7.41531 1.02348,10.87542c0.52201,1.90817 1.24392,3.77987 1.50516,5.74084l0.32669,1.5969c0,0 0.52672,2.63361 -2.10687,3.16033z" fill="#c5d8e2" stroke="none" stroke-width="0.5"/><path d="M531.85267,89.18329c-2.64244,-0.48045 -2.162,-3.12287 -2.162,-3.12287l0.49553,-2.64085c1.34322,-4.54958 2.11153,-9.23937 3.19023,-13.84437c0.39903,-1.70342 0.1544,-3.62142 1.00164,-5.15211c1.06811,-1.92975 2.34932,-4.45627 4.52315,-4.82957c1.22956,-0.21113 5.81269,3.88188 7.33537,5.06606c3.14435,2.44534 6.69929,4.40143 9.36211,7.40573c1.28334,1.4479 2.46624,2.96506 3.63377,4.48919l0.15629,-1.01899c1.13246,-4.24528 2.36241,-8.61726 2.9407,-12.98275c0.3293,-2.4857 -0.05901,-3.91825 0.91047,-6.29034c0.76425,-1.86994 0.86555,-4.68081 2.75391,-5.39838c1.56268,-0.59384 5.32575,3.3393 6.52111,4.59503c2.53972,2.66796 4.29025,5.4958 6.4535,8.42832c2.28213,3.09368 4.19911,4.89768 5.70591,8.54953c0,0 0.99746,2.49366 -1.4962,3.49112c-2.49366,0.99746 -3.49112,-1.4962 -3.49112,-1.4962c-1.68063,-4.38195 -5.63362,-8.93319 -8.62643,-12.63947c-0.80234,-0.9936 -1.96352,-1.73487 -2.91398,-2.60817c-0.13688,0.44984 -0.26925,0.7943 -0.28296,0.89167c-0.80569,5.72242 -1.78797,11.22884 -3.28475,16.84372l-0.15119,1.19181c0,0 -0.2972,2.08041 -2.2061,2.29779c1.0628,1.31773 2.16996,2.59965 3.38019,3.80283c0,0 1.89912,1.89912 0,3.79822c-1.89912,1.8991 -3.79824,0 -3.79824,0c-3.79605,-3.81574 -6.65237,-8.28958 -10.19375,-12.34742c-2.40305,-2.7535 -5.82206,-4.54717 -8.68617,-6.77503c-0.82647,-0.64289 -1.74827,-1.19529 -2.43141,-1.98879c-0.47801,-0.55522 -0.27432,-1.7593 -0.97622,-1.96929c-0.52025,-0.15564 -0.12027,1.0797 -0.20376,1.61626c-0.22356,1.43642 -0.40198,2.88263 -0.71725,4.30174c-1.04178,4.68938 -1.89999,9.46213 -3.2556,14.0875l-0.36391,2.08606c0,0 -0.48042,2.64242 -3.12287,2.16197z" fill="#c0d3dd" stroke="none" stroke-width="0.5"/><path d="M519.33407,141.33029c0,-13.16325 -0.33859,-26.3851 2.64713,-39.27878c1.23391,-5.32867 2.88043,-10.35008 6.33955,-14.63302c0,0 1.70072,-2.07865 3.77937,-0.37794c2.07865,1.70072 0.37794,3.77939 0.37794,3.77939c-3.55654,4.27727 -4.70903,9.87255 -5.90282,15.21202c-2.55939,11.44718 -1.86963,23.63983 -1.86963,35.29835c-0.00729,3.03981 0.43418,5.87161 0.83586,8.88405l0.18397,0.89143c-1.3223,-0.92138 -2.48855,-1.96156 -3.42163,-3.13829c-0.69225,-0.85261 -1.69922,-1.72398 -2.7499,-2.4457c-0.13133,-1.37832 -0.21685,-2.7646 -0.21986,-4.19151z" fill="#c5d8e2" stroke="none" stroke-width="0.5"/><path d="M574.3447,100.42825c0.48829,-0.57919 1.02102,-1.08959 1.71189,-1.35553c1.43458,-0.55223 3.07088,0.14762 4.60632,0.22143c1.2137,0.69249 2.65372,1.08877 3.64114,2.07754c3.98868,3.99426 2.4856,12.08333 2.48292,17.16552c-0.0008,1.5032 0.13502,5.70757 -0.58105,6.88447c-4.12216,6.77489 -12.18162,2.60284 -14.51769,-3.1233c-0.51846,-1.27081 -0.50668,-5.5915 -0.44803,-6.98259c0.18054,-4.28424 0.62877,-8.65371 1.46338,-12.85439c0,0 0.30963,-1.54819 1.64115,-2.03311z" fill="#f1f5f7" stroke="none" stroke-width="0.5"/><path d="M555.62153,99.02425c2.60426,0.59852 4.84137,2.26275 6.91372,4.04372c0.84793,1.0307 2.00197,1.87235 2.54384,3.09207c1.48732,3.34785 0.50946,9.18907 0.21945,12.7715c-0.12324,1.52263 0.18641,3.23187 -0.59592,4.54393c-0.93147,1.56222 -2.55265,2.70725 -4.1944,3.49013c-4.86951,2.32205 -12.34309,-0.69119 -14.28634,-5.57781c-0.45595,-1.14655 -0.1188,-2.46516 -0.14538,-3.69873c-0.067,-3.10899 0.00874,-6.4754 0.61026,-9.53541c0.24752,-1.25927 0.60731,-2.38961 1.05549,-3.45487l0.84653,-4.05846c0.75621,-0.38885 1.45725,-0.93963 2.21713,-1.31771c0.08103,-0.12221 0.16276,-0.24509 0.24504,-0.36872c0,0 1.48978,-2.2347 3.72446,-0.74492c0.38238,0.25491 0.65568,0.53164 0.8461,0.81523z" fill="#f1f5f7" stroke="none" stroke-width="0.5"/><path d="M559.64666,156.13779c0,-2.68577 2.68575,-2.68575 2.68575,-2.68575c2.82712,0 7.91591,0 10.74303,0c6.75394,0.00758 13.38572,-1.31083 20.08797,-1.96567c3.90399,-0.38144 8.93329,-1.07593 11.87018,-3.96218c1.81834,-1.78701 0.86505,-4.17927 0.98105,-6.5039c0.15609,-3.12849 0.27311,-4.68576 -0.94209,-7.63279c0,0 -0.00101,-0.00253 -0.00287,-0.00743c-7.46916,-0.93236 -14.99626,-0.64677 -22.41072,-2.32876c-3.5968,-0.81593 -7.4988,-1.77501 -10.29836,-4.34338c-2.4669,-2.2632 -4.05006,-5.79275 -5.4054,-8.75562c0,0 -1.11136,-2.44503 1.33366,-3.55641c2.445,-1.11136 3.55639,1.33366 3.55639,1.33366c1.06311,2.35587 2.2851,5.23292 4.20676,7.07621c1.93791,1.85889 5.28921,2.43636 7.79516,3.00711c7.87821,1.79429 15.90822,1.2901 23.84473,2.50909l1.77344,1.03811c0,0 1.125,1.12502 0.77736,2.50916c0.78045,2.0739 1.39946,4.26322 1.4228,6.46982c0.02339,2.21032 0.27246,7.24877 -0.39792,9.24753c-1.74394,5.19976 -6.86482,6.87865 -11.53274,8.04727c-8.39904,2.10269 -17.97,3.18072 -26.65936,3.18965c-2.82712,0 -5.65421,0 -8.48132,0h-2.26171c0,0 -2.68575,0 -2.68575,-2.68577z" fill="#a1b9c7" stroke="none" stroke-width="0.5"/><path d="M593.10664,129.69441c-0.03625,-0.2308 -0.04675,-0.4866 -0.02496,-0.77014c0.20598,-2.67785 2.88384,-2.47187 2.88384,-2.47187c3.67423,0.28508 7.41461,0.50282 11.06982,0.85353c1.40752,0.13505 3.04384,-0.15993 4.18876,0.66985c3.938,2.85417 3.94816,12.28324 -0.04255,15.01373c-1.19884,0.82025 -2.82955,0.69558 -4.27372,0.85191c-5.28539,0.57212 -9.48841,-1.95913 -12.15408,-6.44049c-1.05208,-1.76871 -2.90841,-5.29305 -1.64708,-7.70653z" fill="#131415" stroke="none" stroke-width="0.5"/><path d="M562.29697,109.21447c1.80598,2.48316 1.16837,9.5112 -2.6941,8.55342c-2.92412,-0.72507 -2.35386,-3.42383 -1.35676,-5.80243c-0.27999,-0.87217 -0.26321,-1.80004 0.60072,-2.60339c0.34361,-0.31953 0.66893,-0.55493 0.97533,-0.71629c0.2083,-0.32317 0.73678,-0.91221 1.65893,-0.51699c0.62027,0.26582 0.79527,0.70977 0.81585,1.08568z" fill="#2a2e30" stroke="none" stroke-width="0.5"/><path d="M581.58379,107.01482c1.27397,-0.42467 1.69862,0.84931 1.69862,0.84931l0.46536,1.41674c0.29507,2.29579 1.94085,7.89938 -2.01423,8.29166c-0.05298,0.00524 -0.10524,0.00893 -0.15684,0.0111c-0.41088,0.48062 -0.97236,0.75097 -1.73779,0.62158c-0.93253,-0.15764 -1.23185,-1.49514 -1.51947,-2.39608c-0.75001,-2.34954 0.76003,-5.42191 2.42038,-6.85007c0,0 0.02221,-0.01776 0.06273,-0.04489l-0.06811,-0.20072c0,0 -0.42464,-1.27397 0.84931,-1.69862z" fill="#2a2e30" stroke="none" stroke-width="0.5"/><path d="M206.48599,20.27264c-2.46082,12.73556 -10.04503,23.70192 -14.58684,35.80956c-1.93824,6.02649 -6.35233,11.10053 -8.9293,16.89197c-1.21023,2.71983 -2.13892,7.39413 -3.83534,9.98853c-0.52934,0.80954 -1.56022,1.20336 -2.09542,2.00904c-3.26542,4.91576 -6.43204,11.36126 -8.69189,16.83426c-2.53482,6.13893 -5.21618,12.20864 -8.19128,18.19743c-2.5285,7.73354 -7.13503,15.12373 -10.4164,22.61696c-0.46765,1.06791 -0.83789,2.17878 -1.26685,3.26273c-0.71256,-1.2183 -1.39006,-2.458 -2.10154,-3.677c-1.92588,-3.29966 -4.51728,-6.78149 -6.20343,-10.14977c-0.9507,-1.89915 -1.3266,-4.14657 -2.1604,-6.09987c-1.29875,-3.86438 -2.97779,-7.52676 -4.66382,-11.19004c-3.54022,-7.69196 -5.50338,-16.20258 -9.77829,-23.61192c-0.45409,-0.78702 -1.31774,-1.29842 -1.72278,-2.11177c-1.39299,-2.79724 -0.98865,-7.13381 -5.06397,-8.3508c-2.2262,-0.6648 -4.71961,0.36128 -6.80769,1.38003c-1.37224,0.66949 -2.01929,2.27629 -3.05948,3.39399c-3.70726,3.98354 -6.94113,8.74709 -9.6599,13.46798c-7.63466,12.72162 -16.14833,24.78319 -23.25165,37.82715c-0.72876,1.33823 -1.63643,2.71106 -2.48152,4.00861c-0.34467,-1.4435 -0.70622,-2.88095 -1.11103,-4.29671c-1.99439,-6.97506 -5.63802,-13.85824 -7.27126,-20.87879c-0.74184,-3.18883 -0.68612,-6.52714 -1.30706,-9.7417c-0.92764,-4.80229 -2.96507,-9.1396 -4.14571,-13.88084c-2.19094,-8.63523 -6.39901,-16.46403 -9.17411,-24.85684c-1.68769,-5.10413 -3.12329,-10.27929 -5.09609,-15.28247c-1.87686,-4.75987 -5.18346,-8.85466 -7.39061,-13.46201c-1.60533,-3.35108 -3.23989,-6.62478 -4.98643,-9.85668c1.48523,0.01805 2.97531,0.03162 4.47862,-0.09147c2.24455,-0.18378 4.44945,-0.76346 6.6972,-0.90257c3.69651,-0.22877 8.27677,0.88336 11.57218,-1.36033c0.21343,-0.14531 -0.0878,0.58226 -0.0275,0.83332c0.43257,1.80106 1.22076,3.50455 1.63361,5.31023c0.98692,4.3164 1.26716,8.54713 2.30895,12.85249c1.87546,6.54314 4.85676,12.5257 7.46671,18.73038c1.98968,4.73008 2.30708,10.05697 4.02824,14.82027c0.25943,0.71797 1.04766,1.18115 1.24991,1.91727c0.19864,0.72299 -0.23226,1.50565 -0.10511,2.24457c0.61766,3.58957 2.49622,6.8491 3.12248,10.45825l-0.00062,2.44359c0,2.48528 2.01265,4.49408 4.49793,4.49408c1.43661,0 2.62374,-0.6346 3.44763,-1.68274l1.79154,-2.24196l-0.1788,-0.14321c0.21116,-0.16545 0.41721,-0.33799 0.61758,-0.51802c0.82975,-0.74553 0.67963,-2.13114 1.11254,-3.15918c0.76442,-1.81531 1.51482,-3.64305 2.27129,-5.4617c2.58875,-6.2237 5.8911,-12.28141 9.25535,-18.07832c3.45116,-5.94664 8.10596,-11.90145 12.70217,-17.06018c2.10967,-2.36787 3.90297,-4.29783 5.3067,-7.1901c0.78915,-0.7411 2.32502,-1.91348 3.60046,-3.08606c0.02222,0.04592 0.04384,0.09175 0.06459,0.13752c1.34437,2.96429 2.73251,5.79831 3.98491,8.84003c4.80341,11.66608 8.60835,23.92274 15.12108,34.77729c0.92114,2.81736 2.22426,5.38684 3.17712,8.19752l0.40353,0.33066l-0.1742,0.10474l1.31998,2.20428c0.77729,1.34808 2.14646,2.20582 3.81436,2.20582c2.02427,0 3.7332,-1.33 4.29872,-3.16881l0.87493,-2.62492c0.72273,-1.16981 0.82389,-2.61856 1.29942,-3.90878c1.22845,-3.33309 3.03015,-6.42457 4.42709,-9.70515c1.1327,-2.66002 3.18502,-4.98383 4.46378,-7.54815c2.39251,-4.79775 3.7839,-10.16755 5.95298,-15.06787c3.64548,-8.23576 8.63802,-17.89851 14.54748,-24.70249c2.08385,-3.24858 5.30449,-4.69154 7.6876,-7.67477c0.75581,-0.94613 1.04474,-2.4638 2.07695,-3.09701c0.94387,-0.57902 3.35862,-0.21021 3.91522,-0.25144c3.78563,-0.28039 7.55441,-0.38153 11.34549,-0.41806z" data-paper-data="{&quot;noHover&quot;:false,&quot;origItem&quot;:[&quot;Path&quot;,{&quot;applyMatrix&quot;:true,&quot;segments&quot;:[[[390.20354,41.44466],[7.57125,-0.56078],[-1.1132,0.08245]],[[382.37462,41.94937],[1.88775,-1.15804],[-2.06443,1.26642]],[[378.37325,48.01404],[1.51162,-1.89227],[-4.76624,5.96646]],[[362.99878,63.36447],[4.16771,-6.49717],[-11.81891,13.60796]],[[333.91396,112.78439],[7.29096,-16.47152],[-4.33816,9.80064]],[[322.01694,142.94209],[4.78501,-9.5955],[-2.55751,5.12863]],[[313.09238,158.05422],[2.2654,-5.32004],[-2.79389,6.56115]],[[304.23735,177.49194],[2.45691,-6.66619],[-0.95105,2.58044]],[[301.63573,185.32138],[1.44546,-2.33962],[0,0]],[[299.88318,190.57904],[0,0],[-1.13103,3.67762]],[[291.2794,196.92987],[4.04855,0],[-3.3358,0]],[[283.4771,192.41889],[1.55457,2.69616],[0,0]],[280.83469,188.01488],[281.18277,187.80603],[[280.37551,187.14513],[0,0],[-1.90572,-5.62136]],[[274.01187,170.78149],[1.84229,5.63471],[-13.02546,-21.7091]],[[243.85918,101.33906],[9.60682,23.33215],[-2.5048,-6.08343]],[[235.90106,83.65946],[2.68875,5.92858],[-0.04151,-0.09154]],[[235.77202,83.38442],[0.04443,0.09183],[-2.55088,2.34516]],[[228.58058,89.5559],[1.57829,-1.48219],[-2.80746,5.78454]],[[217.98555,103.93217],[4.21934,-4.73573],[-9.19242,10.31746]],[[192.63599,138.01023],[6.90231,-11.89328],[-6.72851,11.59381]],[[174.13977,174.1013],[5.17749,-12.44739],[-1.51293,3.63729]],[[169.59432,185.01039],[1.52884,-3.63063],[-0.86581,2.05609]],[[167.36702,191.32175],[1.65949,-1.49105],[-0.40074,0.36007]],[[166.13161,192.3571],[0.42231,-0.33091],[0,0]],[166.48904,192.64304],[[162.90461,197.12357],[0,0],[-1.64779,2.09628]],[[155.82485,200.56624],[2.87322,0],[-4.97056,0]],[[146.82485,191.56624],[0,4.97056],[0,0]],[[146.82485,186.67415],[0,0],[-1.25252,-7.2183]],[[140.57743,165.73515],[1.23532,7.17915],[-0.25429,-1.47785]],[[140.78778,161.24137],[0.39728,1.44598],[-0.4045,-1.47224]],[[138.28822,157.40312],[0.51886,1.43593],[-3.44231,-9.52659]],[[130.23721,127.73766],[3.97935,9.46016],[-5.21991,-12.40937]],[[115.31297,90.25785],[3.75092,13.08628],[-2.08358,-8.61072]],[[110.70198,64.5431],[1.97383,8.6328],[-0.82571,-3.61135]],[[107.43708,53.91985],[0.86514,3.60211],[-0.1206,-0.50212]],[[107.64304,52.38442],[0.42685,-0.29062],[-6.59083,4.48737]],[[84.50438,55.09792],[7.39302,-0.45755],[-4.49551,0.27823]],[[71.11263,56.89921],[4.48909,-0.36756],[-3.00662,0.24618]],[[62.15671,57.08008],[2.97047,0.03609],[3.49307,6.4638]],[[72.13262,76.78817],[-3.21066,-6.70215],[4.41431,9.21471]],[[86.91825,103.70297],[-3.75372,-9.51974],[3.94561,10.00637]],[[97.11557,134.25176],[-3.37539,-10.20826],[5.55022,16.78561]],[[115.46523,183.92887],[-4.38189,-17.27046],[2.36128,9.48248]],[[123.75054,211.66782],[-1.85528,-9.60458],[1.24189,6.42913]],[[126.35815,231.13791],[-1.48368,-6.37767],[3.26647,14.0411]],[[140.88145,272.87184],[-3.98878,-13.95012],[0.80962,2.83153]],[[143.09975,281.46202],[-0.68934,-2.887],[1.69017,-2.5951]],[[147.9354,273.59899],[-1.45752,2.67647],[14.20663,-26.08793]],[[194.42224,197.92722],[-15.26933,25.44324],[5.43755,-9.44177]],[[213.72451,170.95174],[-7.41452,7.96708],[2.08037,-2.23541]],[[219.84212,164.13265],[-2.74447,1.33899],[4.17617,-2.03749]],[[233.49282,161.30709],[-4.4524,-1.3296],[8.15064,2.43398]],[[243.73065,178.17436],[-2.78599,-5.59448],[0.81008,1.6267]],[[247.18145,182.39498],[-0.90817,-1.57405],[8.54982,14.81868]],[[266.72874,229.62371],[-7.08045,-15.38392],[3.37205,7.32656]],[[276.05553,252.00418],[-2.5975,-7.72876],[1.6676,3.9066]],[[280.29535,264.02106],[-1.90141,-3.7983],[3.37229,6.73657]],[[292.69995,284.32162],[-3.85176,-6.59932],[1.42296,2.438]],[[296.90257,291.67583],[-1.42512,-2.43661],[0.85792,-2.1679]],[[299.43288,285.15206],[-0.9353,2.13583],[6.56273,-14.98646]],[[320.23721,239.94027],[-5.05701,15.46707],[5.95019,-11.9776]],[[336.60085,203.57663],[-5.06963,12.27785],[4.51969,-10.94599]],[[353.97822,169.94021],[-6.53085,9.83151],[1.07039,-1.61136]],[[358.169,165.92557],[-1.05868,1.61908],[3.39285,-5.18879]],[[365.8409,145.96386],[-2.42045,5.43965],[5.15396,-11.58289]],[[383.70448,112.19901],[-3.87648,12.05298],[9.08362,-24.21528]],[[412.89066,40.60348],[-4.92165,25.47112],[-7.58217,0.07306]]],&quot;closed&quot;:true}]}" fill="#b9cbd5" stroke="#b9cbd5" stroke-width="1"/><path d="M258.98086,77.10854l1.39459,0.00032c4.39848,0 9.8089,-0.77834 13.97179,1.01875c4.36467,1.8842 8.73613,5.52648 12.14878,8.83736c2.63597,4.39328 5.70553,8.15816 7.77274,12.94424c1.55385,3.59755 1.01659,7.86701 1.01659,11.64808c0,7.41509 -0.39556,14.6774 -2.56718,21.83099c-1.42872,4.70639 -4.56101,8.7445 -6.97276,12.93741c-4.38809,6.68562 -11.79932,12.66297 -20.17194,13.17345c-3.87071,0.236 -7.82604,-0.01317 -11.70643,-0.01317c-9.27516,0 -18.71184,-0.95587 -26.95723,-5.56561c-4.73287,-4.75581 -9.89854,-7.24797 -13.73522,-13.14434c-5.04651,-7.7557 -4.89837,-16.2138 -4.9101,-25.03508c-0.00545,-4.09606 0.03644,-8.86212 1.54735,-12.74186c1.14337,-2.93598 3.35036,-5.94682 4.91583,-8.59841c4.19795,-4.19795 7.30861,-9.80552 11.85606,-13.69434c5.94084,-5.08039 13.0214,-4.99117 20.31017,-4.99117c2.9032,0 5.80277,-0.09452 8.68402,0.03713c1.36197,1.35567 3.40295,1.35623 3.40295,1.35623zM270.74519,111.8762c-3.20948,-6.41897 -9.95507,-10.69502 -17.18766,-10.91076c-0.03229,-0.00096 -0.06436,-0.00353 -0.09621,-0.00763c-0.63442,-0.74556 -1.37407,-1.39883 -2.19599,-1.93681c-0.15922,-0.15973 -0.31842,-0.29442 -0.47948,-0.38501c-3.95737,-2.22606 -8.05021,-1.21636 -12.01802,0c-2.52312,0.77348 -3.79587,4.57363 -5.3368,6.7394c-4.6755,6.57134 -6.34197,14.09141 -3.45245,22.18207c3.92531,10.99087 18.2547,12.83924 27.96703,10.41116c2.1597,-0.53993 3.73512,-3.88638 5.54935,-5.36547c7.31351,-5.9625 9.71122,-11.22459 7.34987,-20.67002z" data-paper-data="{&quot;noHover&quot;:false,&quot;origItem&quot;:[&quot;Path&quot;,{&quot;applyMatrix&quot;:true,&quot;segments&quot;:[[[510.98877,153.36649],[2.66665,2.6543],[-5.64129,-0.25777]],[[494.00667,153.29351],[5.68426,0],[-14.27089,0]],[[454.28553,163.04913],[11.63175,-9.94706],[-8.9036,7.61404]],[[431.10052,189.83222],[8.21928,-8.21928],[-3.06509,5.19164]],[[421.48535,206.64713],[2.23864,-5.74844],[-2.95825,7.59626]],[[418.46122,231.56624],[-0.01067,-8.0198],[0.02297,17.27144]],[[428.06075,280.52744],[-9.88072,-15.18512],[7.51195,11.54468]],[[454.92416,306.23206],[-9.26662,-9.31153],[16.14392,9.02555]],[[507.64304,317.11169],[-18.16011,0],[7.59752,0]],[[530.53707,317.14236],[-7.57858,0.46206],[16.39301,-0.99947]],[[569.98718,291.38011],[-8.59157,13.08997],[4.72204,-8.20944]],[[583.62239,266.07818],[-2.79734,9.21479],[4.25188,-14.00623]],[[588.64304,223.38442],[0,14.51822],[0,-7.40308]],[[586.65938,200.60298],[3.04234,7.04375],[-4.04745,-9.37081]],[[571.45828,175.28677],[5.16104,8.60173],[-6.68172,-6.48247]],[[547.6972,158.00444],[8.54572,3.68912],[-8.15065,-3.51857]],[[520.37031,156.02078],[8.61193,0],[0,0]],[517.64304,156.02078]],&quot;closed&quot;:true}]}" fill="#b9cbd5" stroke="none" stroke-width="0.5"/><path d="M360.81505,75.65401l1.95378,-0.00016c5.22899,-0.02458 8.76505,2.03158 13.61345,3.6572c3.34048,1.12003 7.45529,1.56518 10.54467,3.13084c4.64117,2.35207 9.82594,6.6769 13.44964,10.35835c2.54724,2.46366 3.84473,5.59161 5.52851,8.67645c1.19475,2.18887 3.04149,4.68586 3.37127,7.23925c0.90675,7.02073 0.10239,15.58541 -1.82309,22.29272c-2.22733,7.75879 -4.31729,13.56837 -10.79266,18.74867c-1.15146,1.14585 -2.01295,2.64918 -3.39333,3.50557c-11.30611,7.01432 -23.65476,6.00959 -36.3592,6.00959c-6.89745,0 -13.76825,1.0585 -19.87753,-2.67461c-3.35258,-2.237 -6.97906,-4.37807 -9.48633,-7.63985c-1.34284,-1.74695 -2.02058,-3.94476 -3.31968,-5.72448c-2.21034,-3.0281 -4.48956,-6.64308 -5.01417,-10.56793c-0.42345,-3.16806 0.04399,-6.88206 0.04399,-10.07277c0,-1.89061 -0.3361,-3.80992 -0.04718,-5.67832c0.87201,-5.63935 3.21143,-10.94415 4.97438,-16.23302c1.98507,-3.30845 2.37467,-7.80004 4.79186,-10.76588c1.44108,-1.76817 3.20865,-4.12303 5.02522,-5.51378c0.90711,-0.69447 2.07238,-1.05479 2.88497,-1.85781c0.67438,-0.66644 0.81346,-1.7531 1.46597,-2.44097c1.27911,-1.34844 4.44624,-3.15215 6.24571,-3.83572c2.24881,-0.85426 4.80681,-0.62823 7.0928,-1.37732c0.79584,-0.26079 1.31662,-1.10874 2.11518,-1.3611c0.71111,-0.22472 1.68186,-0.2739 2.7346,-0.24111c1.27025,2.36686 4.27718,2.3662 4.27718,2.3662zM381.09614,106.69766c-0.88974,-1.03803 -1.56042,-2.28349 -2.17287,-3.57653c-0.41432,-2.65107 -1.79913,-4.98054 -3.77958,-6.61357c-0.43082,-0.42544 -0.91135,-0.79932 -1.45705,-1.10628c-5.91453,-3.32698 -11.09188,-0.15955 -16.20357,2.39629c-9.41348,4.70674 -21.60135,6.8078 -22.15303,20.25465c-0.12543,3.05716 -0.43324,9.17796 0.77117,12.7912c3.4943,10.4829 14.51774,12.36323 24.07865,13.30995c6.51665,0.64527 13.1855,0.9358 18.31737,-3.46294c2.38065,-2.04056 3.08035,-6.82165 3.97917,-9.74353c0.59396,-1.93084 2.39932,-2.80122 2.90887,-4.83944c1.73892,-6.95568 -1.56533,-11.18497 -1.90892,-17.36962z" data-paper-data="{&quot;noHover&quot;:false,&quot;origItem&quot;:[&quot;Path&quot;,{&quot;applyMatrix&quot;:true,&quot;segments&quot;:[[[714.15758,152.54538],[2.36729,4.41097],[-1.96193,-0.06111]],[[709.06735,152.99343],[1.32525,-0.4188],[-1.48823,0.47031]],[[705.1307,155.52858],[1.48317,-0.48602],[-4.26026,1.39603]],[[691.92728,158.08945],[4.19096,-1.59204],[-3.35356,1.27393]],[[680.30163,165.22941],[2.38381,-2.513],[-1.21604,1.28194]],[[677.57436,169.77486],[1.2568,-1.242],[-1.51437,1.49654]],[[672.20365,173.23202],[1.69052,-1.29425],[-3.38542,2.59186]],[[662.8497,183.49507],[2.68565,-3.29523],[-4.50477,5.52725]],[[653.93247,203.53525],[3.69945,-6.16575],[-3.28551,9.85654]],[[644.66886,233.75012],[1.62511,-10.5097],[-0.53843,3.48203]],[[644.75585,244.31999],[0,-3.52341],[0,5.94632]],[[644.66886,263.07168],[-0.78916,-5.90411],[0.97767,7.31449]],[[654.00249,282.74479],[-4.11927,-5.64328],[2.42104,3.31675]],[[660.18094,293.4025],[-2.50257,-3.25567],[4.67264,6.07877]],[[677.84132,307.62399],[-6.24799,-4.16895],[11.38548,6.95717]],[[714.84676,312.59272],[-12.85436,0],[23.67648,0]],[[782.52838,301.41284],[-21.07048,13.07214],[2.57252,-1.59599]],[[788.84447,294.88657],[-2.1459,2.13545],[12.06776,-9.65421]],[[808.93295,259.98552],[-4.15094,14.45958],[3.5884,-12.49999]],[[812.32661,218.48891],[1.68985,13.0841],[-0.61459,-4.7586]],[[806.04822,205.01451],[2.22657,4.07927],[-3.13796,-5.74902]],[[795.75553,188.86577],[4.74712,4.59136],[-6.75327,-6.86088]],[[770.71855,169.59009],[8.64947,4.38341],[-5.75748,-2.9178]],[[751.09162,163.76723],[6.22543,2.08733],[-9.03566,-3.02958]],[[725.75585,156.95636],[9.74493,-0.04581],[0,0]],[722.11949,156.95636]],&quot;closed&quot;:true}]}" fill="#b9cbd5" stroke="none" stroke-width="0.5"/><path d="M441.8087,162.77096c-0.1614,-3.63263 -0.53587,-7.2671 -0.82266,-10.87967c-0.99196,-12.49536 -0.00269,-25.52234 -0.00269,-38.06839c0,-10.07052 -0.65833,-20.57086 3.95876,-29.79545c0.09759,-0.19497 1.72489,-3.6243 2.1736,-4.05389c1.15659,-1.10731 2.67755,-1.76884 3.96868,-2.71586c0.64967,-0.47652 3.06019,-2.12918 4.03601,-2.44402c3.18303,-1.02697 7.0384,-1.04938 10.34066,-1.59976c10.22274,-1.46039 20.73453,-0.84217 31.0684,-0.82286c0.10105,2.69558 0.34112,5.54163 0.00759,8.11806c-0.10592,0.81823 0.09551,2.08997 -0.62664,2.489c-2.40733,1.33019 -7.76853,0.33967 -10.41454,0.33967c-8.0654,0 -15.9707,0.29394 -23.94932,1.44828c-5.74179,1.90148 -15.14101,6.73729 -8.74554,14.61149c1.63669,2.01512 6.0142,1.66923 8.42474,1.67575c3.67749,0.00995 7.38613,-0.00314 11.06363,-0.00314c1.99097,0 4.62396,-0.41511 6.56758,0.22709c1.62668,0.53749 2.19209,1.4232 3.59856,2.44908c3.52677,2.57245 6.52008,3.85342 5.94854,8.5154c-0.68941,1.41119 -3.40662,0.59912 -4.69899,0.61409c-3.68444,0.04268 -7.13636,-1.11845 -10.73314,-1.68083c-0.46898,-0.07333 -5.17848,-0.05128 -5.97695,-0.05128c-6.70584,0 -14.16434,-0.53151 -17.06679,7.11786c-0.52001,1.37046 -0.15951,2.91661 -0.19466,4.382c-0.11496,4.79406 1.07549,9.58787 1.88269,14.29902c1.66442,4.99328 1.17894,10.01702 1.17894,15.23558c0,3.54155 0.3033,7.32179 -0.29082,10.80496c-0.10411,0.6104 -1.24927,-0.19121 -1.86824,-0.2087c-0.88226,-0.02492 -1.76751,-0.00098 -2.65012,-0.00098c-2.0575,0 -4.11977,-0.0025 -6.17727,-0.0025z" data-paper-data="{&quot;noHover&quot;:false,&quot;origItem&quot;:[&quot;Path&quot;,{&quot;applyMatrix&quot;:true,&quot;segments&quot;:[[[896.01363,325.45603],[-4.11501,0],[1.76523,0]],[[901.3093,325.45603],[-1.76452,-0.04984],[1.23793,0.03497]],[[904.97507,326.06047],[-0.20823,1.22079],[1.18824,-6.96635]],[[905.54849,304.4472],[0,7.08309],[0,-10.43711]],[[903.16604,273.96001],[3.32885,9.98655],[-1.61439,-9.42229]],[[899.3702,245.31216],[-0.22993,9.58812],[0.07028,-2.93077]],[[899.75637,236.52582],[-1.04001,2.74093],[5.80491,-15.29875]],[[933.96596,222.19036],[-13.41168,0],[1.59695,0]],[[945.99896,222.30658],[-0.93796,-0.14666],[7.19357,1.12476]],[[967.50524,225.72081],[-7.36887,0.08536],[2.58474,-0.02994]],[[976.71176,224.55031],[-1.37883,2.82238],[1.14308,-9.32396]],[[964.8408,207.56389],[7.05354,5.14489],[-2.81293,-2.05177]],[[957.66114,202.67948],[3.25336,1.07497],[-3.88723,-1.28441]],[[944.55732,202.23802],[3.98193,0],[-7.35501,0]],[[922.492,202.23802],[7.35498,0.0199],[-4.82109,-0.01304]],[[905.53669,198.71937],[3.27338,4.03025],[-12.79093,-15.74841]],[[923.07206,169.47437],[-11.48358,3.80296],[15.95724,-2.30868]],[[971.03569,166.58577],[-16.1308,0],[5.29202,0]],[[991.88252,165.91756],[-4.81466,2.66037],[1.4443,-0.79806]],[[993.01412,161.09827],[-0.21184,1.63646],[0.66705,-5.15286]],[[993.00651,144.86729],[0.2021,5.39116],[-20.66774,-0.03862]],[[930.92919,146.52758],[20.44549,-2.92078],[-6.60451,1.10075]],[[910.27079,149.72273],[6.36606,-2.05395],[-1.95163,0.62967]],[[902.20851,154.60714],[1.29933,-0.95304],[-2.58225,1.89404]],[[894.28088,160.03401],[2.31318,-2.21463],[-0.89742,0.85919]],[[889.94167,168.13673],[0.19518,-0.38995],[-9.23418,18.44917]],[[882.0657,227.65991],[0,-20.14104],[0,25.0921]],[[882.03503,303.70488],[-1.98392,-24.99072],[0.57358,7.22515]],[[883.66859,325.45603],[-0.3228,-7.26527],[4.11501,0]]],&quot;closed&quot;:true}]}" fill="#b9cbd5" stroke="#b9cbd5" stroke-width="1"/><path d="M98.09699,278.18368c1.58305,-2.63842 4.22146,-1.05537 4.22146,-1.05537l1.68222,1.01743c2.89218,2.43754 5.79743,2.16504 9.40802,2.16504c3.46868,0 7.57942,0.63082 10.97345,0.03973c1.34125,-0.23359 2.60086,-0.81085 3.92141,-1.142c4.23835,-1.21173 8.52629,-2.09931 12.59345,-3.79318c2.01708,-0.84006 3.84332,-2.15723 5.76052,-3.18934c6.32581,-3.40544 11.44361,-7.76183 15.92436,-13.36276c0.68376,-0.8547 1.54931,-1.57851 2.09963,-2.52465c1.31626,-2.7758 0.51797,-6.51504 0.27663,-9.51002c-0.09054,-1.12368 0.2269,-2.272 0.02925,-3.38186c-0.31535,-1.77073 -1.14444,-3.30431 -1.69938,-4.97276c-0.17798,-0.53509 -0.04013,-1.1506 -0.2533,-1.67267c-1.98248,-4.85527 -7.77148,-8.15294 -12.64957,-8.96596c-3.50195,-1.16732 -7.06489,-0.81451 -10.72462,-0.81451c-5.30635,0 -10.74964,-0.37117 -16.04045,-0.01048c-3.39079,0.23116 -6.7191,0.76046 -10.10471,1.19024c-0.85231,0.10819 -1.76328,0.6591 -2.55639,0.32876c-0.15045,-0.06267 -0.29807,-0.13047 -0.44322,-0.20276l-0.02685,0.1611l-1.76058,-0.29343c-1.4831,-0.2203 -2.62095,-1.49895 -2.62095,-3.04335c0,-1.56709 1.17152,-2.86056 2.68654,-3.05237l2.06744,-0.29534c3.29741,-0.46728 7.254,-0.72322 10.43281,-1.71726c0.81096,-0.25359 1.5279,-0.78842 2.35871,-0.96653c0.75105,-0.16101 1.54328,0.07248 2.3041,-0.0331c2.76907,-0.38425 5.93001,-1.46484 8.40484,-2.72235c2.2889,-1.14105 3.7685,-2.18132 5.53698,-3.94981c0.72025,-0.72025 1.68782,-1.27474 2.12738,-2.1936c1.98129,-4.14169 -0.39622,-8.05521 -2.93848,-11.18587c-0.57568,-0.70892 -1.33367,-1.83039 -2.2156,-2.32413c-2.45057,-1.37193 -5.90912,-2.31267 -8.67787,-2.27818c-8.94334,0 -18.16679,-0.68777 -27.02366,0.57256c-3.28069,0.46685 -7.49525,0.81599 -10.3184,2.60989c0,0 -2.63842,1.58306 -4.22147,-1.05536c-1.58305,-2.63842 1.05537,-4.22146 1.05537,-4.22146c3.71824,-2.15504 8.38359,-2.81841 12.61422,-3.42501c9.14981,-1.31194 18.65584,-0.63441 27.89394,-0.63441c3.82772,0.03277 8.48636,1.15337 11.84079,3.15323c1.79647,1.07102 2.51523,2.12633 3.81931,3.71077c4.04676,4.9168 6.88433,11.53716 3.69991,17.78165c-1.77375,3.47823 -5.13326,6.02386 -8.54973,7.94237c0.21869,0.00028 0.43738,0.00044 0.65605,0.00044c4.15494,0 8.21802,-0.33403 12.208,0.99596c7.02327,1.17055 13.98644,6.11973 16.92144,12.75968c0.26676,0.6035 0.14117,1.32242 0.3502,1.94827c0.64884,1.94262 1.591,3.81274 1.92156,5.89006c0.2745,1.72502 -0.1077,2.27685 0.02925,3.86002c0.38564,4.45818 0.78814,8.60305 -0.93035,12.81911c-4.80311,7.88277 -12.5464,14.17426 -20.59938,18.51153c-2.10425,1.13333 -4.09474,2.52602 -6.30928,3.44906c-4.31469,1.7984 -8.86471,2.76955 -13.35663,4.05218c-1.52106,0.37904 -2.98006,1.02121 -4.52746,1.27197c-3.21256,0.5206 -6.88799,0.03974 -10.1487,0.03974c-2.65542,0 -5.97648,0.46102 -8.5523,-0.08231c-2.09201,-0.44128 -4.51823,-1.90364 -6.17929,-3.18406l-1.33523,-0.79305c0,0 -2.63841,-1.58304 -1.05536,-4.22146z" fill="#c5d8e2" stroke="none" stroke-width="0.5"/><path d="M56.72588,88.70152l-10.59712,-26.68906l18.05437,-5.10233l9.02719,26.68906z" fill="#d6e1e6" stroke="none" stroke-width="0"/><path d="M99.22668,277.29332c3.07689,0 3.07689,3.07689 3.07689,3.07689l-0.04186,0.80759c-0.2824,1.69439 -0.49427,3.21911 -0.56163,4.92557c-0.02173,0.55046 -0.75001,1.62864 -0.19925,1.6406c1.28849,0.02799 3.67922,0.17768 4.85223,0.51524c1.28928,0.37101 2.29471,1.57966 3.62581,1.74713c1.85324,0.23316 3.97287,-0.03973 5.84378,-0.03973c4.82792,0 9.65584,0 14.48376,0c3.21197,0.00779 6.10821,-0.72024 9.22908,-1.17724c0.86405,-0.12653 2.91761,0.03479 3.89443,-0.02592c2.50262,-0.15554 4.57235,-0.8378 7.01921,-1.18774c3.31895,-0.47467 6.60204,-0.89214 9.43967,-3.06321c1.6527,-1.26448 2.97118,-3.03688 4.42968,-4.48564c1.50719,-1.49714 2.88086,-2.01816 3.89554,-3.82715c1.69939,-2.10348 4.19574,-3.60208 5.76328,-5.7757c2.20789,-3.06156 3.64288,-6.78693 5.08484,-10.24121c0.4941,-1.18365 1.09689,-2.35007 1.32683,-3.61193c1.09864,-6.02918 -0.04594,-12.1268 -0.87524,-18.03978c-0.79089,-2.31925 -1.14321,-4.98712 -2.01618,-7.21822c-0.29548,-0.75517 -0.91968,-1.3539 -1.20699,-2.11221c-0.40884,-1.07907 -0.31249,-2.32265 -0.80208,-3.36757c-1.27325,-2.71746 -3.65376,-6.49251 -6.32969,-8.00043c-3.00714,-1.69456 -6.11158,-2.50658 -9.28136,-3.39223v0.20882h-2.11221v0c-1.69932,0 -3.0769,-1.37758 -3.0769,-3.0769c0,-0.73605 0.25845,-1.41174 0.68955,-1.94126l1.19167,-1.48959c0.73404,-0.91003 1.31792,-1.93202 2.00633,-2.87704c0.36122,-0.49587 1.75999,-1.81275 1.97159,-2.71067c0.4082,-1.73212 0.55942,-4.92239 0.01397,-6.65998c-0.46881,-1.49345 -1.74154,-2.90132 -2.47599,-4.26472c-2.2711,-4.21599 -4.49591,-7.21562 -8.47302,-9.85973c-0.72819,-0.58515 -1.34076,-1.41257 -2.23077,-1.69637c-2.68747,-0.85696 -6.7661,-0.11847 -9.53161,-0.12441c-5.39345,-0.01159 -10.88898,0.71024 -16.16921,1.47898c-4.01095,0.58395 -8.434,0.33149 -12.49658,0.33149c-4.52616,0 -9.05237,0.00667 -13.57852,0c-1.87828,-0.00277 -2.40098,-0.10117 -4.21263,0.23959c-0.39848,0.07495 -0.77419,0.28161 -1.16694,0.37022c0.24189,0.87729 -0.02477,3.01675 -0.00288,3.30139c0.18383,2.39043 1.21151,4.86926 1.9648,7.12616c0,0 0.97301,2.91899 -1.94599,3.892c-2.919,0.973 -3.892,-1.946 -3.892,-1.946c-1.35634,-4.07399 -2.60824,-8.09014 -2.27011,-12.43931c0.08656,-1.11342 -0.18,-2.37171 0.39938,-3.32645c1.09286,-1.80088 3.79329,-2.61538 5.68317,-3.00749c5.97182,-1.23903 12.94048,-0.3639 19.02173,-0.3639c2.584,0 5.06566,-0.1269 7.62726,-0.294c1.33577,-0.08713 2.69484,0.23879 4.01578,0.022c5.53327,-0.90812 11.36544,-1.52745 17.02275,-1.53846c3.5533,-0.00692 8.17331,-0.67995 11.59054,0.47907c1.38384,0.46936 2.67936,1.63195 3.80414,2.52805c4.69672,3.13938 7.55555,6.88737 10.23517,11.86592c0.95675,1.77758 2.3593,3.43345 2.95542,5.39112c0.84846,2.78638 0.79398,7.473 0.01397,10.23774c-0.45928,1.62793 -1.55557,3.26825 -2.73707,4.79475c0.16146,0.02705 0.26711,0.0449 0.292,0.04938c3.42381,0.6155 7.67624,2.64856 10.29682,4.96678c6.87041,6.0777 8.49938,14.7503 11.20187,23.00965c0.31777,2.18688 1.10931,4.28491 1.27881,6.48804c0.33882,4.40386 0.48913,9.73943 -0.34357,14.09555c-0.84117,4.40043 -3.16764,9.09563 -5.55424,12.84844c-0.70935,1.11541 -1.1341,2.40592 -1.91437,3.47293c-1.59922,2.18692 -4.0478,3.58479 -5.70303,5.69061c-1.28663,2.05109 -2.89215,2.94745 -4.55332,4.62172c-3.92193,3.95286 -7.90186,7.58245 -13.52545,8.97944c-1.29522,0.32175 -2.66548,0.18093 -3.98669,0.36942c-2.56122,0.3654 -4.82397,1.0604 -7.46455,1.22622c-1.11365,0.06993 -2.24629,-0.2064 -3.34744,-0.02592c-3.38921,0.55551 -6.59604,1.22952 -10.08261,1.23672c-4.82792,0 -9.65584,0 -14.48376,0c-2.15538,0 -4.71157,0.31669 -6.82951,-0.03973c-1.51763,-0.25539 -2.73866,-1.45508 -4.21957,-1.87382c-0.58264,-0.16474 -1.21678,0.15467 -1.81534,0.06335c-3.32966,-0.50799 -5.92594,-1.33368 -7.27993,-4.86123c-0.97188,-2.53206 0.08076,-6.64747 0.51333,-9.24285l-0.04186,0.20409c0,0 0,-3.07689 3.07689,-3.07689z" fill="#c5d8e2" stroke="none" stroke-width="0.5"/><path d="M250.06061,183.15974c-0.90807,1.01325 -2.37537,1.01325 -2.37537,1.01325c-9.11275,0 -18.18529,5.12328 -25.29594,10.53788c-2.18084,1.66066 -6.09618,4.18299 -7.81386,6.59076c-0.64609,0.90566 -0.96211,2.00642 -1.4639,2.99932c-0.69416,1.9642 -1.95857,3.10838 -2.76299,4.93615c-1.47964,3.36201 -2.63637,7.06199 -3.79908,10.55012c-0.66356,1.99067 -1.58689,3.94737 -2.02198,6.00536c-1.35511,6.40974 -1.1182,12.81189 -1.1498,19.32143c0.48964,2.86795 1.08505,6.55633 2.41332,9.16128c0.59817,1.1731 1.56101,2.14122 2.11932,3.33382c0.51441,1.09884 0.91424,2.7999 1.63112,3.90335c1.51265,2.32831 3.57112,4.31503 5.11295,6.61256c3.24892,4.8413 6.85906,8.63022 11.41685,12.25652c5.03626,4.11771 11.294,5.1051 17.53165,5.99633c8.7597,1.25157 17.86124,0.57131 26.71323,0.57131c3.26241,0.13367 5.17728,-1.98336 8.11514,-3.36048c6.80912,-3.19175 12.78139,-8.75489 16.75187,-15.13611c2.2,-3.53575 2.81594,-7.81441 4.46694,-11.57839c0.20896,-1.14319 0.88133,-2.15623 1.19449,-3.27537c0.29251,-1.04532 -0.17428,-2.17119 -0.10782,-3.25463c0.10005,-1.63103 0.18077,-3.26344 0.30567,-4.89276c0.31561,-4.11731 0.54822,-8.35934 0.30449,-12.50313c-0.13509,-2.29674 -1.07462,-4.73758 -1.69825,-6.93715c-1.1158,-3.93544 -1.48078,-7.19998 -3.60691,-10.74353c-2.6319,-4.3865 -5.53623,-8.3726 -8.97088,-12.16317c-1.02947,-1.13614 -2.45457,-1.85357 -3.54143,-2.93493c-5.65921,-5.63053 -11.97168,-11.20753 -19.43644,-14.3869c-2.59031,-0.85914 -5.47357,-2.32459 -8.21266,-2.52534c-1.91599,-0.14042 -3.86718,-0.13609 -5.81972,-0.09753zM240.84191,178.76468c0.45953,-0.48159 0.94113,-0.7224 0.94113,-0.7224l2.58301,-0.92833c3.95589,0 8.08514,-0.34367 12.02184,0.01049c3.36793,0.30299 6.70532,1.83921 9.89204,2.90607c8.26163,3.55706 15.3379,9.48866 21.60089,15.7876c1.13455,1.14106 2.60764,1.91888 3.70045,3.09998c3.7477,4.05049 6.89888,8.45269 9.73732,13.18341c1.99065,3.31775 2.9526,6.25564 3.70028,10.04392c0.67829,3.43669 2.20555,6.77244 2.46087,10.29529c0.32132,4.43358 0.04137,9.038 -0.299,13.44694c-0.22468,2.91036 0.2585,6.5121 -0.40565,9.35381c-0.27137,1.16114 -1.04651,2.1832 -1.21947,3.36302c-1.83123,4.35788 -2.69737,9.07829 -5.18891,13.1647c-4.51891,7.41153 -11.60206,13.80451 -19.45752,17.45236c-2.30128,1.06865 -4.64689,3.26328 -7.17042,3.7991c-1.11632,0.23703 -2.28175,0.05487 -3.42263,0.08231c-15.61639,0 -34.97744,2.41102 -48.08912,-7.91613c-5.02122,-4.03546 -9.15632,-8.30264 -12.72275,-13.69356c-1.53349,-2.31798 -3.66005,-4.29386 -5.14638,-6.66422c-0.87867,-1.40129 -1.30685,-3.03911 -1.98981,-4.54551c-0.53929,-1.1895 -1.52719,-2.13336 -2.10512,-3.30458c-1.64306,-3.32978 -2.42132,-7.72168 -3.01809,-11.35738c-0.02786,-7.08978 -0.24608,-14.1373 1.26416,-21.1124c1.03467,-4.77868 3.21011,-9.48728 4.96112,-14.03029c0.28917,-0.75026 1.0071,-3.20791 1.28762,-3.81317c0.85208,-1.83849 2.08116,-2.79744 2.66843,-4.71969c0.21877,-0.44135 1.94187,-3.94987 2.15705,-4.24256c2.16985,-2.95158 6.29613,-5.76794 9.08386,-7.893c6.4066,-4.88369 14.11052,-9.33232 22.17483,-11.04576z" fill="#c5d8e2" stroke="none" stroke-width="0.5"/><path d="M251.53467,205.16207c-3.31347,0.12415 -6.42135,1.33022 -9.61068,3.0726c-1.27886,0.69866 -3.18152,1.33697 -4.28377,2.33528c-0.55852,0.50585 -0.85471,1.28347 -1.47187,1.71583c-0.60349,0.42278 -1.42747,0.41227 -2.073,0.76756c-0.98094,0.53988 -1.968,2.13469 -2.64085,2.80692c-1.01009,1.00915 -2.10456,1.96148 -2.92175,3.13232c-1.52281,2.2798 -1.24092,5.50139 -1.64466,8.13754c-0.55778,3.64198 -0.5673,7.30509 -0.5673,10.99579c0,1.12468 -0.29932,2.27713 -0.04937,3.37369c1.09402,4.79973 4.56367,8.77776 7.19734,12.78029c2.21672,2.18074 4.64396,4.8969 7.19088,6.64473c0.58547,0.40179 1.35495,0.4566 1.96868,0.81374c3.1893,1.85594 6.38957,3.80615 10.04359,4.78805c2.84119,0.76348 6.28187,0.81495 9.19536,0.80933c2.28917,-0.00443 4.9986,0.44741 7.16316,-0.322c2.00376,-1.228 5.02659,-3.16313 6.12651,-5.3134c3.21088,-6.27702 4.56259,-13.41558 4.16258,-20.60494c-0.235,-4.22352 -2.13678,-8.05924 -2.84191,-12.17521c-2.01169,-3.35107 -3.44155,-7.29504 -5.67025,-10.46164c-0.82812,-1.17662 -2.00632,-2.06778 -2.91645,-3.18218c-1.07552,-1.31691 -1.8383,-3.29648 -3.19574,-4.38327c-2.66352,-2.13247 -6.63331,-4.14987 -10.06978,-4.08923h-0.30174c0,0 -2.02418,0 -2.78896,-1.6418zM261.097,201.79766c10.36925,3.73068 16.0757,15.79548 21.16235,25.01531c0.88322,4.62582 2.92854,9.00937 3.19298,13.77487c0.45249,8.15453 -0.87228,16.99597 -4.88977,24.05332c-1.91958,3.37205 -5.70351,6.031 -8.96074,7.96339c-3.27126,1.06213 -6.32878,0.89092 -9.73456,0.88499c-3.43745,-0.00599 -7.37358,-0.11417 -10.71982,-1.00115c-4.2292,-1.12101 -7.99208,-3.3138 -11.68205,-5.47128c-0.70965,-0.41492 -1.58137,-0.52664 -2.25575,-0.99673c-3.03149,-2.11314 -5.90521,-5.21229 -8.49987,-7.83904c-3.26378,-4.84146 -7.28091,-9.6972 -8.4934,-15.58374c-0.39357,-1.91077 -0.04938,-4.32322 -0.04938,-6.28215c0,-4.07726 0.6054,-7.94593 0.91298,-11.98618c0.24066,-3.16125 0.71517,-5.92789 2.30648,-8.71084c1.97653,-2.72491 4.78957,-6.15848 7.71418,-7.94104c0.458,-0.27916 1.10836,-0.13206 1.54794,-0.43941c0.43894,-0.30691 0.53884,-0.94913 0.94209,-1.30163c1.5023,-1.31322 3.63689,-2.15125 5.37207,-3.09613c2.78876,-1.51859 5.35988,-3.1667 8.59749,-3.66913c3.73574,-0.57972 8.11271,-0.12636 11.6591,1.03339c0,0 1.303,0.43433 1.87768,1.59318z" fill="#c5d8e2" stroke="none" stroke-width="0.5"/><path d="M120.87027,283.00001c0.72653,-0.48214 1.0786,-1.44514 1.84817,-1.85794c1.44422,-0.7747 3.03621,-1.29262 4.642,-1.62027c1.8383,-0.37509 3.78232,0.33405 5.62852,0c2.83945,-0.51378 5.59557,-1.43216 8.44278,-1.87617c1.10551,-0.1724 2.26009,-0.12524 3.42126,-0.0405c0.79528,-0.91492 1.71019,-1.37237 1.71019,-1.37237l-0.47463,1.46856c0.02404,0.00184 0.04807,0.00366 0.0721,0.00547c0.74283,-1.68953 1.06749,-3.73795 2.5293,-4.81045c0.81671,-0.5992 2.13589,-0.9699 3.67641,-1.12436c0.02506,-0.30833 0.05509,-0.62782 0.0902,-0.95878c0.4997,-4.71031 6.60139,-6.92517 10.09339,-8.67117c1.4105,-0.70525 4.55312,-1.09271 5.44819,-2.82751c1.02961,-1.99555 1.5114,-4.79009 2.20029,-7.00997c-0.30862,-2.02835 -0.75173,-3.98048 -1.0063,-5.50793c-0.20875,-1.25251 0.50723,-2.78588 -0.2559,-3.80078c-3.80426,-5.05932 -9.44343,-8.95516 -10.06304,-15.89904c-0.01326,-0.14865 -0.02568,-0.3132 -0.03635,-0.49134h-1.59482c-2.10964,0 -3.91412,-1.30654 -4.64842,-3.1546c-1.03069,0.03185 -2.03545,0.11446 -2.99345,0.27577c-1.73484,0.29211 -4.96292,2.61021 -6.42943,1.94073c-0.49241,-0.22479 -0.95828,-0.49082 -1.4039,-0.7883l-0.17724,0.53172l-2.70488,-0.90162c-2.04313,-0.62835 -3.52824,-2.53069 -3.52824,-4.77988c0,-2.76143 2.23857,-5 5,-5h2.43089c0.55902,-0.08854 1.12238,-0.1561 1.67222,-0.28909c0.86028,-0.20807 0.36536,-1.75754 0.78617,-2.53619c0.67677,-1.25226 1.41694,-2.49521 2.33004,-3.58749c-6.32723,-2.24331 -3.16765,-7.72645 -6.3956,-11.68371c-0.64901,-0.79565 -1.43826,-1.5608 -2.29669,-2.27316c-2.50463,-0.33694 -5.02755,-0.92012 -7.61286,-1.78189l-2.70488,-0.90163c-1.24723,-0.38358 -2.28652,-1.24191 -2.90696,-2.36409c-4.12994,0.17801 -8.47119,-0.23005 -12.50683,-0.23005c-2.73509,0 -5.47018,0 -8.20527,0c-0.07761,2.14896 -0.77488,4.17825 -2.94248,5.62282c-3.29791,2.19785 -10.9685,1.02966 -13.54637,-2.07074c-1.12471,-1.3527 -0.23177,-3.53958 -0.72925,-5.22698c-0.18336,-0.62196 -0.83398,-0.99312 -1.25097,-1.48968c0,0 -2.77349,-4.16025 1.38676,-6.93375c3.27943,-2.18628 5.69715,-0.06408 6.57393,0.93257c0.79219,-0.52708 1.74332,-0.83423 2.76618,-0.83423h3.75235c2.07391,-0.70004 4.37773,0 6.5666,0c6.40395,0 13.72172,0.99095 20.02698,0.03746c5.29738,-0.80107 10.22137,-0.97555 15.62029,-0.97555c1.70131,0 6.41938,-0.07528 7.54193,0.38061c0.39015,0.15845 1.64676,1.21218 2.94948,2.43658c1.69138,0.05733 3.16968,0.95473 4.0308,2.28811l1.83316,2.74973l-0.16654,0.11103c0.16925,0.15124 0.33534,0.30633 0.49786,0.46572c0.08816,0.08646 1.97236,5.77717 2.12802,6.24414c1.41488,4.24466 3.94756,10.7636 1.54112,15.19747c-1.11972,2.06309 -4.36824,3.89398 -6.76802,5.56583c2.08655,0.0877 4.15732,0.20809 6.112,0.20809h2.81426c2.11271,0 3.91936,1.31034 4.65161,3.16264c0.83637,0.33063 1.56224,0.88031 2.10689,1.57831c1.53161,0.0772 3.39229,0.71829 5.65734,1.91403c3.43875,1.81535 4.60535,8.28378 5.65281,11.6154c0,2.86733 -0.47851,5.41831 -0.99323,8.00353c1.43542,3.96622 1.26878,8.31632 1.05779,12.49719c-0.07969,1.57898 0.15276,3.23937 -0.3806,4.72768c-0.38536,1.07533 -1.6423,1.6194 -2.24231,2.59141c-0.954,1.54547 -0.83733,3.56635 -1.63786,5.19662c-1.59471,3.24764 -3.17695,6.19387 -5.64647,8.84347c-3.11166,3.11167 -6.11034,6.43788 -9.38086,9.38086c-1.13548,1.02177 -2.08303,2.38529 -3.49829,2.96004c-0.28807,0.11699 -0.58301,0.20002 -0.88325,0.25732c-1.3081,1.74766 -2.03745,3.44207 -5.40001,5.24338c-3.44003,1.84281 -6.93408,1.44651 -10.63953,1.44651c-7.29278,0 -15.48447,1.03232 -22.73581,0.02094c-1.18005,0.37507 -2.24052,0.69879 -2.72969,0.85259c-3.75953,0.06714 -9.94527,1.06825 -13.50687,-0.14998c-1.68021,-0.5747 -3.02353,-1.86328 -4.53529,-2.79492l-0.46004,-1.05912c-1.89633,-0.7104 -3.24618,-2.53945 -3.24618,-4.68377c0,-2.76142 2.23857,-5 5,-5h2.81426c2.68242,-0.69332 6.20705,0.45979 8.71737,1.08738c2.4792,0.6198 4.95995,1.07178 7.44371,1.51732z" fill="#b9cbd5" stroke="none" stroke-width="0.5"/><path d="M353.02008,262.14671c0.24117,0.18926 0.37474,0.32283 0.37474,0.32283l1.59285,1.59284c0.30878,0.08733 0.61318,0.18952 0.91188,0.31112c1.63731,0.66656 2.92695,1.94239 4.24345,3.16266c2.40089,-0.07865 4.93125,-0.23711 7.21276,0.07298c4.66415,0.63394 9.24858,1.24999 13.95307,1.86304c2.64873,0.34517 7.1423,-1.15808 9.49909,0.01313c0.18773,0.09329 0.37342,0.19001 0.55726,0.28984l0.0445,-0.17801l3.59875,0.89969c1.21886,-3.27829 3.22722,-5.21004 5.00662,-8.05849c1.92003,-3.07358 1.26295,-7.40459 2.44811,-10.5418c0.23566,-0.62381 0.99476,-0.9071 1.49557,-1.36039c0,-0.15951 0,-0.31902 0,-0.47854c0.12775,-3.98376 -2.10737,-6.81517 -3.44177,-10.46039c-0.35321,-0.96488 -0.15886,-2.09545 -0.59966,-3.02358c-0.26,-0.54744 -1.00752,-0.70115 -1.39189,-1.16972c-2.06616,-2.51879 -5.4159,-6.26262 -6.54727,-9.22572c-0.28008,-0.73355 0.44679,-1.61645 0.16607,-2.34976c-0.22699,-0.59294 -1.17709,-0.62033 -1.51003,-1.16093c-0.51853,-0.84197 -0.43219,-1.96463 -0.93809,-2.81426c-0.39333,-0.6606 -1.2768,-0.92612 -1.67913,-1.58128c-1.07196,-1.74556 -2.05481,-3.57844 -2.6862,-5.52714c-0.25844,-0.79764 0.34196,-1.71735 0.08078,-2.5141c-0.1832,-0.55889 -0.66228,-0.95545 -1.07589,-1.39309c-0.50853,-0.11524 -1.01733,-0.22877 -1.45774,-0.49301c-0.7584,-0.45504 -1.16685,-1.34788 -1.87617,-1.87617c-1.01838,-0.75847 -2.71081,0.39552 -3.80077,-0.25591c-0.2366,-0.1414 -0.46862,-0.28923 -0.69669,-0.44262l-0.08354,0.25061l-2.70487,-0.90162c-0.89073,-0.27394 -1.67541,-0.79002 -2.2772,-1.47142c-0.07496,0.07458 -0.14852,0.15016 -0.2202,0.22707c-2.57018,2.53073 -5.59628,4.9494 -8.84346,6.58456c-0.73923,0.37225 -1.67402,0.27164 -2.38236,0.69976c-0.81007,0.48961 -1.19138,1.55737 -2.04134,1.97392c-2.38227,1.16752 -6.69654,2.30437 -9.68367,3.06903c-0.02824,1.50359 -1.60697,5.61566 -2.05052,7.11112c-1.26625,4.26917 -0.37036,8.05244 -2.32577,12.32259c-0.24503,0.53509 -0.81957,0.83853 -1.29314,1.21475c0.03771,0.66694 0.06597,1.32115 0.06597,1.95027c0,3.67042 -0.51417,7.3389 0.73868,10.79718c0.4293,1.77319 1.03928,3.33003 1.72606,4.84087c0.0133,-0.0001 0.02662,-0.00015 0.03994,-0.00015c2.24919,0 4.15152,1.48511 4.77988,3.52824l0.76031,2.28093c0.80103,0.55498 1.51147,1.35668 2.32019,1.89072zM336.58403,198.57651c0.75029,-1.05441 1.51423,-1.97906 2.23503,-2.7111c4.44314,-4.44314 7.126,-9.71292 13.64381,-11.64966c3.45953,-1.02799 8.77051,-0.13376 12.4058,-0.13376c8.49857,0 16.01448,0.37727 24.09521,3.07085c1.12901,0.37634 6.03313,1.97718 6.67603,2.36633c0.59067,0.35753 3.8666,3.67744 4.65922,4.47007c4.68647,4.68648 9.47507,9.1707 13.46439,14.43688c0.82315,1.08661 2.08411,1.88308 2.62886,3.1327c0.4373,1.00315 -0.14566,2.22978 0.16607,3.27876c0.56799,1.91133 2.56036,3.10046 3.45846,4.88068c0.49183,0.97492 0.63497,2.09428 1.0659,3.0976c1.37065,3.19122 5.94708,10.74991 3.18916,14.21783c-0.49275,0.61961 -1.13637,1.0939 -1.8783,1.4391c1.09679,2.62529 2.30521,5.24001 2.75752,7.96965c0.56277,3.39624 0.68834,9.48538 0,12.85886c-0.95431,4.67697 -3.34975,5.16107 -5.13429,8.90053c-2.39026,5.00874 -4.74659,8.90988 -8.82632,12.92699c-3.97005,2.62162 -8.71314,5.32485 -13.54708,7.05211c-2.52225,1.47166 -5.33761,2.24157 -8.40361,1.85537c-6.07903,0.52558 -12.78677,-0.2695 -18.74271,-0.2695c-6.45687,0 -13.70101,0.89583 -19.51421,-2.62292c-0.71949,-0.43552 -3.36776,-3.19192 -4.29363,-4.13889c-3.66296,-2.39767 -7.29657,-4.73712 -10.07763,-8.20145c-1.41158,-1.75839 -2.3791,-3.84004 -3.75234,-5.62852c-1.25345,-1.63247 -3.49635,-2.29241 -4.79726,-3.88732c-0.72543,-0.88937 -0.62224,-2.23948 -1.21781,-3.22057c-0.45895,-0.75603 -1.43479,-1.10974 -1.87617,-1.87617c-3.63862,-6.31825 -1.37815,-12.19077 -2.55836,-18.71329c-0.57202,-3.16133 -1.92111,-6.85324 -1.00265,-10.18178v-2.81426c0,-2.64802 2.05849,-4.81526 4.66255,-4.9888c0.03125,-0.16728 0.06209,-0.33479 0.09244,-0.50255c0.43105,-2.38224 -0.21032,-5.21174 -0.06457,-7.64186c0.14119,-2.35394 -1.09976,-5.40651 0.59163,-7.04972c0.57758,-0.56113 1.23755,-0.98771 1.95235,-1.32475l-0.31748,-0.47621l2.75738,-1.83826c0.22921,-0.15768 0.47223,-0.29673 0.72687,-0.41498c0.05584,-0.38511 0.14968,-0.76232 0.29837,-1.12845c0.57475,-1.41527 1.97336,-2.33219 2.96004,-3.49829c0,0 0.58512,-0.58511 1.51731,-1.04125z" fill="#b9cbd5" stroke="none" stroke-width="0.5"/><path d="M370.44522,185.34548c-0.90807,1.01325 -2.37536,1.01325 -2.37536,1.01325c-9.11275,0 -18.18529,5.12328 -25.29595,10.53789c-2.18084,1.66066 -6.09619,4.18299 -7.81387,6.59076c-0.64609,0.90566 -0.96211,2.00642 -1.46389,2.99932c-0.69416,1.9642 -1.95857,3.10838 -2.76299,4.93615c-1.47964,3.36201 -2.63637,7.06199 -3.79908,10.55012c-0.66355,1.99067 -1.58689,3.94737 -2.02198,6.00536c-1.3551,6.40974 -1.11821,12.81189 -1.1498,19.32143c0.48964,2.86795 1.08505,6.55633 2.41332,9.16128c0.59817,1.17311 1.56101,2.14122 2.11931,3.33381c0.51441,1.09884 0.91424,2.7999 1.63112,3.90335c1.51265,2.32831 3.57112,4.31504 5.11295,6.61256c3.24892,4.8413 6.85906,8.63022 11.41685,12.25652c5.03625,4.11771 11.294,5.1051 17.53165,5.99633c8.7597,1.25157 17.86124,0.57131 26.71323,0.57131c3.26241,0.13367 5.17728,-1.98336 8.11514,-3.36048c6.80912,-3.19175 12.78139,-8.7549 16.75187,-15.13611c2.2,-3.53575 2.81594,-7.81441 4.46694,-11.57839c0.20896,-1.14319 0.88133,-2.15623 1.19449,-3.27537c0.29251,-1.04532 -0.17428,-2.17119 -0.10782,-3.25463c0.10005,-1.63103 0.18077,-3.26344 0.30567,-4.89276c0.31561,-4.11731 0.54822,-8.35935 0.30449,-12.50314c-0.13509,-2.29674 -1.07462,-4.73758 -1.69825,-6.93715c-1.1158,-3.93544 -1.48078,-7.19998 -3.60691,-10.74352c-2.6319,-4.3865 -5.53623,-8.3726 -8.97088,-12.16317c-1.02947,-1.13614 -2.45457,-1.85357 -3.54143,-2.93493c-5.65921,-5.63053 -11.97168,-11.20753 -19.43644,-14.3869c-2.59031,-0.85914 -5.47357,-2.32459 -8.21267,-2.52534c-1.91599,-0.14042 -3.86718,-0.13609 -5.81971,-0.09753zM361.22652,180.95042c0.45954,-0.48159 0.94113,-0.7224 0.94113,-0.7224l2.58301,-0.92833c3.95589,0 8.08515,-0.34367 12.02184,0.01048c3.36793,0.30299 6.70532,1.83921 9.89204,2.90608c8.26163,3.55706 15.3379,9.48866 21.60089,15.7876c1.13455,1.14106 2.60764,1.91888 3.70045,3.09998c3.7477,4.05049 6.89888,8.45269 9.73732,13.18341c1.99065,3.31775 2.9526,6.25564 3.70029,10.04392c0.67829,3.43669 2.20555,6.77244 2.46086,10.29529c0.32132,4.43358 0.04137,9.038 -0.299,13.44694c-0.22468,2.91036 0.2585,6.5121 -0.40565,9.35382c-0.27137,1.16114 -1.04651,2.1832 -1.21947,3.36302c-1.83123,4.35788 -2.69737,9.07829 -5.18891,13.1647c-4.51891,7.41153 -11.60206,13.80451 -19.45752,17.45236c-2.30128,1.06865 -4.64689,3.26328 -7.17042,3.7991c-1.11632,0.23703 -2.28175,0.05487 -3.42263,0.08231c-15.61639,0 -34.97744,2.41102 -48.08911,-7.91612c-5.02122,-4.03546 -9.15633,-8.30264 -12.72275,-13.69356c-1.53349,-2.31798 -3.66005,-4.29386 -5.14637,-6.66422c-0.87867,-1.40129 -1.30685,-3.03911 -1.98982,-4.54551c-0.53929,-1.1895 -1.52719,-2.13336 -2.10512,-3.30458c-1.64306,-3.32978 -2.42132,-7.72168 -3.01809,-11.35738c-0.02786,-7.08978 -0.24608,-14.1373 1.26416,-21.1124c1.03467,-4.77868 3.21011,-9.48728 4.96112,-14.03029c0.28917,-0.75026 1.0071,-3.20791 1.28762,-3.81317c0.85208,-1.83849 2.08116,-2.79745 2.66843,-4.7197c0.21877,-0.44135 1.94187,-3.94986 2.15704,-4.24256c2.16985,-2.95158 6.29613,-5.76794 9.08386,-7.893c6.40659,-4.88369 14.11052,-9.33232 22.17483,-11.04576z" fill="#c5d8e2" stroke="none" stroke-width="0.5"/><path d="M371.91929,207.34781c-3.31347,0.12415 -6.42135,1.33021 -9.61068,3.07259c-1.27886,0.69866 -3.18152,1.33697 -4.28377,2.33528c-0.55852,0.50585 -0.85471,1.28347 -1.47187,1.71583c-0.60349,0.42278 -1.42747,0.41227 -2.073,0.76756c-0.98094,0.53988 -1.96801,2.13469 -2.64086,2.80691c-1.01009,1.00915 -2.10456,1.96148 -2.92174,3.13232c-1.52281,2.2798 -1.24092,5.50139 -1.64466,8.13754c-0.55778,3.64198 -0.5673,7.30509 -0.5673,10.99579c0,1.12468 -0.29931,2.27713 -0.04937,3.37369c1.09402,4.79973 4.56367,8.77776 7.19734,12.78029c2.21672,2.18075 4.64396,4.8969 7.19088,6.64473c0.58547,0.40179 1.35495,0.4566 1.96868,0.81374c3.1893,1.85594 6.38957,3.80615 10.04359,4.78805c2.84119,0.76348 6.28187,0.81495 9.19536,0.80933c2.28917,-0.00443 4.9986,0.44741 7.16316,-0.322c2.00376,-1.228 5.02659,-3.16313 6.12651,-5.3134c3.21088,-6.27702 4.56259,-13.41558 4.16258,-20.60494c-0.235,-4.22352 -2.13678,-8.05924 -2.84191,-12.17521c-2.01169,-3.35107 -3.44155,-7.29504 -5.67025,-10.46164c-0.82812,-1.17662 -2.00632,-2.06778 -2.91645,-3.18218c-1.07552,-1.31691 -1.8383,-3.29648 -3.19574,-4.38327c-2.66352,-2.13247 -6.63331,-4.14987 -10.06978,-4.08923h-0.30175c0,0 -2.02418,0 -2.78896,-1.6418zM381.48162,203.9834c10.36925,3.73068 16.0757,15.79548 21.16235,25.01531c0.88322,4.62582 2.92854,9.00937 3.19298,13.77486c0.45249,8.15453 -0.87228,16.99597 -4.88977,24.05332c-1.91958,3.37205 -5.70351,6.031 -8.96074,7.96339c-3.27126,1.06213 -6.32878,0.89092 -9.73456,0.88498c-3.43745,-0.00599 -7.37358,-0.11417 -10.71982,-1.00115c-4.2292,-1.12101 -7.99209,-3.3138 -11.68205,-5.47128c-0.70965,-0.41492 -1.58137,-0.52665 -2.25575,-0.99673c-3.03148,-2.11314 -5.9052,-5.21229 -8.49987,-7.83904c-3.26378,-4.84146 -7.28091,-9.69721 -8.4934,-15.58374c-0.39357,-1.91077 -0.04937,-4.32322 -0.04937,-6.28215c0,-4.07726 0.60541,-7.94593 0.91298,-11.98618c0.24066,-3.16125 0.71517,-5.92789 2.30648,-8.71083c1.97652,-2.72491 4.78958,-6.15848 7.71418,-7.94104c0.458,-0.27916 1.10836,-0.13206 1.54794,-0.43941c0.43894,-0.30691 0.53884,-0.94913 0.94209,-1.30163c1.5023,-1.31322 3.63689,-2.15125 5.37207,-3.09613c2.78876,-1.51859 5.35988,-3.1667 8.59749,-3.66913c3.73574,-0.57972 8.11271,-0.12636 11.6591,1.03339c0,0 1.303,0.43433 1.87768,1.59318z" fill="#c5d8e2" stroke="none" stroke-width="0.5"/><path d="M469.65235,259.64202c0.24117,0.18926 0.37474,0.32283 0.37474,0.32283l1.59285,1.59284c0.30878,0.08733 0.61318,0.18952 0.91188,0.31112c1.63731,0.66656 2.92695,1.94239 4.24345,3.16266c2.40089,-0.07865 4.93125,-0.23711 7.21276,0.07299c4.66415,0.63394 9.24858,1.24999 13.95307,1.86304c2.64873,0.34517 7.1423,-1.15808 9.49909,0.01313c0.18773,0.09329 0.37342,0.19001 0.55726,0.28983l0.0445,-0.17801l3.59875,0.89969c1.21886,-3.27829 3.22721,-5.21004 5.00661,-8.05849c1.92003,-3.07358 1.26296,-7.40459 2.44812,-10.54179c0.23566,-0.62381 0.99476,-0.9071 1.49557,-1.36039c0,-0.15951 0,-0.31903 0,-0.47854c0.12775,-3.98376 -2.10737,-6.81516 -3.44177,-10.46039c-0.35321,-0.96488 -0.15886,-2.09545 -0.59966,-3.02358c-0.26,-0.54744 -1.00752,-0.70115 -1.39189,-1.16972c-2.06616,-2.51879 -5.4159,-6.26262 -6.54727,-9.22572c-0.28008,-0.73355 0.44679,-1.61645 0.16607,-2.34976c-0.22699,-0.59294 -1.1771,-0.62033 -1.51003,-1.16093c-0.51853,-0.84197 -0.43219,-1.96463 -0.93809,-2.81426c-0.39333,-0.6606 -1.27679,-0.92612 -1.67913,-1.58128c-1.07196,-1.74556 -2.05481,-3.57843 -2.6862,-5.52713c-0.25844,-0.79764 0.34196,-1.71735 0.08078,-2.5141c-0.1832,-0.55889 -0.66228,-0.95544 -1.07589,-1.39308c-0.50853,-0.11524 -1.01733,-0.22877 -1.45774,-0.49302c-0.7584,-0.45504 -1.16685,-1.34788 -1.87617,-1.87617c-1.01838,-0.75847 -2.71081,0.39552 -3.80077,-0.2559c-0.2366,-0.1414 -0.46862,-0.28924 -0.69669,-0.44263l-0.08354,0.25061l-2.70487,-0.90162c-0.89073,-0.27394 -1.67541,-0.79002 -2.2772,-1.47142c-0.07496,0.07458 -0.14851,0.15016 -0.2202,0.22707c-2.57018,2.53073 -5.59628,4.9494 -8.84346,6.58456c-0.73923,0.37225 -1.67402,0.27164 -2.38236,0.69976c-0.81007,0.48961 -1.19138,1.55737 -2.04134,1.97392c-2.38227,1.16752 -6.69654,2.30438 -9.68367,3.06904c-0.02824,1.50359 -1.60697,5.61566 -2.05052,7.11111c-1.26625,4.26917 -0.37036,8.05245 -2.32578,12.32259c-0.24503,0.53509 -0.81957,0.83853 -1.29313,1.21475c0.03771,0.66694 0.06596,1.32115 0.06596,1.95027c0,3.67042 -0.51417,7.3389 0.73869,10.79719c0.4293,1.77319 1.03928,3.33003 1.72606,4.84087c0.0133,-0.0001 0.02662,-0.00016 0.03994,-0.00016c2.24919,0 4.15152,1.48512 4.77988,3.52824l0.76031,2.28092c0.80103,0.55498 1.51147,1.35669 2.32019,1.89073zM453.2163,196.07182c0.75029,-1.05441 1.51423,-1.97906 2.23503,-2.7111c4.44314,-4.44314 7.126,-9.71292 13.64381,-11.64966c3.45953,-1.02799 8.77051,-0.13375 12.4058,-0.13375c8.49857,0 16.01448,0.37726 24.09521,3.07084c1.12901,0.37634 6.03313,1.97718 6.67603,2.36633c0.59066,0.35753 3.8666,3.67744 4.65922,4.47007c4.68647,4.68648 9.47506,9.1707 13.46438,14.43688c0.82315,1.08661 2.08411,1.88308 2.62886,3.1327c0.4373,1.00315 -0.14566,2.22978 0.16607,3.27876c0.56799,1.91133 2.56037,3.10045 3.45846,4.88068c0.49183,0.97492 0.63497,2.09428 1.0659,3.0976c1.37064,3.19122 5.94708,10.74992 3.18916,14.21783c-0.49275,0.61961 -1.13636,1.09389 -1.8783,1.43909c1.09678,2.62529 2.30521,5.24001 2.75752,7.96965c0.56277,3.39624 0.68834,9.48538 0,12.85886c-0.95431,4.67697 -3.34975,5.16107 -5.13429,8.90053c-2.39026,5.00874 -4.74659,8.90988 -8.82632,12.92699c-3.97005,2.62162 -8.71314,5.32485 -13.54708,7.05211c-2.52225,1.47166 -5.33761,2.24157 -8.4036,1.85537c-6.07903,0.52558 -12.78677,-0.2695 -18.74271,-0.2695c-6.45687,0 -13.70101,0.89583 -19.51421,-2.62292c-0.71949,-0.43552 -3.36776,-3.19192 -4.29363,-4.13889c-3.66296,-2.39767 -7.29657,-4.73712 -10.07763,-8.20146c-1.41158,-1.75839 -2.3791,-3.84004 -3.75234,-5.62852c-1.25345,-1.63247 -3.49635,-2.29241 -4.79726,-3.88732c-0.72543,-0.88937 -0.62224,-2.23948 -1.21781,-3.22057c-0.45895,-0.75603 -1.43479,-1.10974 -1.87617,-1.87617c-3.63862,-6.31825 -1.37815,-12.19078 -2.55836,-18.7133c-0.57202,-3.16133 -1.92111,-6.85323 -1.00265,-10.18177v-2.81426c0,-2.64802 2.05849,-4.81526 4.66255,-4.98879c0.03125,-0.16728 0.06209,-0.33479 0.09244,-0.50255c0.43105,-2.38224 -0.21032,-5.21174 -0.06457,-7.64186c0.14119,-2.35394 -1.09976,-5.40651 0.59163,-7.04972c0.57758,-0.56113 1.23755,-0.98771 1.95235,-1.32475l-0.31748,-0.47621l2.75738,-1.83826c0.22921,-0.15768 0.47223,-0.29673 0.72687,-0.41498c0.05584,-0.38511 0.14968,-0.76232 0.29837,-1.12845c0.57475,-1.41527 1.97336,-2.33219 2.96004,-3.49829c0,0 0.58512,-0.58511 1.51731,-1.04125z" fill="#b9cbd5" stroke="none" stroke-width="0.5"/><path d="M487.07749,182.84079c-0.90807,1.01325 -2.37536,1.01325 -2.37536,1.01325c-9.11275,0 -18.18529,5.12328 -25.29595,10.53788c-2.18084,1.66066 -6.09619,4.18299 -7.81387,6.59076c-0.64609,0.90566 -0.96211,2.00642 -1.46389,2.99932c-0.69416,1.9642 -1.95857,3.10838 -2.76299,4.93615c-1.47964,3.36201 -2.63637,7.06199 -3.79908,10.55012c-0.66355,1.99067 -1.58689,3.94737 -2.02198,6.00536c-1.3551,6.40974 -1.11821,12.81189 -1.1498,19.32143c0.48964,2.86795 1.08505,6.55633 2.41332,9.16128c0.59817,1.1731 1.56101,2.14122 2.11931,3.33381c0.51441,1.09884 0.91424,2.7999 1.63112,3.90335c1.51265,2.32831 3.57112,4.31504 5.11295,6.61256c3.24892,4.8413 6.85906,8.63022 11.41685,12.25652c5.03625,4.11771 11.294,5.1051 17.53165,5.99633c8.7597,1.25157 17.86124,0.57131 26.71323,0.57131c3.26241,0.13367 5.17729,-1.98336 8.11515,-3.36047c6.80912,-3.19175 12.78139,-8.7549 16.75187,-15.13611c2.2,-3.53575 2.81595,-7.81441 4.46694,-11.57839c0.20895,-1.14319 0.88133,-2.15623 1.19449,-3.27537c0.29251,-1.04532 -0.17428,-2.1712 -0.10782,-3.25463c0.10005,-1.63103 0.18077,-3.26344 0.30566,-4.89276c0.31561,-4.11731 0.54822,-8.35934 0.30449,-12.50313c-0.13509,-2.29674 -1.07461,-4.73758 -1.69825,-6.93715c-1.1158,-3.93544 -1.48078,-7.19998 -3.60691,-10.74353c-2.6319,-4.3865 -5.53622,-8.3726 -8.97088,-12.16317c-1.02946,-1.13614 -2.45457,-1.85357 -3.54144,-2.93493c-5.65921,-5.63053 -11.97168,-11.20754 -19.43644,-14.38691c-2.59031,-0.85914 -5.47357,-2.32459 -8.21267,-2.52534c-1.91599,-0.14042 -3.86718,-0.13609 -5.81971,-0.09753zM477.85879,178.44573c0.45954,-0.48159 0.94113,-0.7224 0.94113,-0.7224l2.58301,-0.92833c3.95589,0 8.08515,-0.34367 12.02184,0.01049c3.36793,0.30299 6.70532,1.83921 9.89204,2.90607c8.26163,3.55706 15.33791,9.48866 21.60089,15.7876c1.13455,1.14106 2.60763,1.91888 3.70044,3.09998c3.7477,4.05049 6.89888,8.45269 9.73732,13.18341c1.99065,3.31775 2.9526,6.25564 3.70029,10.04392c0.6783,3.43669 2.20555,6.77244 2.46087,10.29529c0.32132,4.43358 0.04137,9.038 -0.299,13.44694c-0.22468,2.91036 0.2585,6.5121 -0.40565,9.35381c-0.27138,1.16114 -1.04651,2.1832 -1.21947,3.36302c-1.83123,4.35788 -2.69736,9.07829 -5.1889,13.1647c-4.51891,7.41153 -11.60206,13.80451 -19.45753,17.45236c-2.30128,1.06865 -4.64689,3.26327 -7.17042,3.79909c-1.11632,0.23703 -2.28175,0.05487 -3.42263,0.08231c-15.61639,0 -34.97744,2.41102 -48.08911,-7.91612c-5.02122,-4.03546 -9.15633,-8.30264 -12.72275,-13.69356c-1.53349,-2.31798 -3.66005,-4.29386 -5.14637,-6.66423c-0.87867,-1.40129 -1.30685,-3.03911 -1.98982,-4.54551c-0.53929,-1.1895 -1.52719,-2.13336 -2.10512,-3.30458c-1.64306,-3.32978 -2.42132,-7.72168 -3.0181,-11.35739c-0.02786,-7.08978 -0.24608,-14.1373 1.26416,-21.1124c1.03467,-4.77868 3.21011,-9.48728 4.96112,-14.03029c0.28917,-0.75026 1.0071,-3.20791 1.28762,-3.81317c0.85208,-1.83849 2.08116,-2.79744 2.66843,-4.71969c0.21877,-0.44135 1.94187,-3.94987 2.15704,-4.24256c2.16985,-2.95158 6.29613,-5.76794 9.08386,-7.893c6.40659,-4.88369 14.11052,-9.33232 22.17483,-11.04576z" fill="#c5d8e2" stroke="none" stroke-width="0.5"/><path d="M488.55156,204.84312c-3.31347,0.12415 -6.42134,1.33022 -9.61068,3.0726c-1.27886,0.69866 -3.18152,1.33697 -4.28377,2.33528c-0.55852,0.50585 -0.85471,1.28347 -1.47187,1.71583c-0.60349,0.42278 -1.42747,0.41227 -2.073,0.76756c-0.98094,0.53988 -1.96801,2.13469 -2.64086,2.80692c-1.01009,1.00915 -2.10456,1.96147 -2.92174,3.13232c-1.52281,2.2798 -1.24092,5.50139 -1.64466,8.13754c-0.55778,3.64198 -0.5673,7.30509 -0.5673,10.99579c0,1.12468 -0.29931,2.27713 -0.04937,3.37369c1.09402,4.79973 4.56367,8.77776 7.19734,12.78029c2.21672,2.18075 4.64396,4.89689 7.19088,6.64472c0.58547,0.40179 1.35495,0.4566 1.96868,0.81374c3.1893,1.85594 6.38957,3.80615 10.04359,4.78805c2.84119,0.76348 6.28187,0.81495 9.19536,0.80933c2.28917,-0.00443 4.9986,0.44742 7.16316,-0.32199c2.00376,-1.228 5.02659,-3.16313 6.12651,-5.3134c3.21088,-6.27702 4.56259,-13.41558 4.16258,-20.60495c-0.235,-4.22352 -2.13678,-8.05924 -2.84192,-12.17521c-2.01169,-3.35107 -3.44155,-7.29504 -5.67025,-10.46164c-0.82812,-1.17662 -2.00632,-2.06778 -2.91645,-3.18218c-1.07552,-1.31691 -1.8383,-3.29649 -3.19574,-4.38328c-2.66352,-2.13247 -6.63331,-4.14987 -10.06978,-4.08923h-0.30175c0,0 -2.02418,0 -2.78896,-1.6418zM498.11389,201.47871c10.36925,3.73068 16.0757,15.79548 21.16235,25.01531c0.88321,4.62582 2.92854,9.00937 3.19298,13.77487c0.45249,8.15453 -0.87229,16.99597 -4.88977,24.05332c-1.91958,3.37205 -5.70351,6.031 -8.96074,7.96339c-3.27126,1.06213 -6.32878,0.89092 -9.73456,0.88498c-3.43745,-0.00599 -7.37358,-0.11417 -10.71982,-1.00115c-4.2292,-1.12101 -7.99209,-3.3138 -11.68205,-5.47128c-0.70965,-0.41492 -1.58137,-0.52665 -2.25575,-0.99673c-3.03148,-2.11314 -5.9052,-5.21229 -8.49987,-7.83904c-3.26378,-4.84146 -7.28091,-9.6972 -8.4934,-15.58374c-0.39357,-1.91077 -0.04937,-4.32322 -0.04937,-6.28215c0,-4.07726 0.60541,-7.94593 0.91298,-11.98618c0.24066,-3.16125 0.71517,-5.92789 2.30648,-8.71084c1.97652,-2.72491 4.78958,-6.15848 7.71418,-7.94104c0.458,-0.27916 1.10836,-0.13206 1.54794,-0.43941c0.43894,-0.30691 0.53884,-0.94913 0.94209,-1.30163c1.5023,-1.31322 3.63689,-2.15125 5.37207,-3.09613c2.78876,-1.51859 5.35988,-3.1667 8.59748,-3.66913c3.73574,-0.57972 8.11271,-0.12636 11.6591,1.03339c0,0 1.303,0.43433 1.87768,1.59318z" fill="#c5d8e2" stroke="none" stroke-width="0.5"/><path d="M121.54297,102.13194l65.135,-32.35831l-6.63548,14.21203c-2.98321,1.6116 -5.65415,3.5243 -6.34627,3.99354c-7.8078,5.29353 -16.49887,8.66381 -25.12837,12.47132c-7.34989,3.24292 -14.72192,6.4303 -22.09723,9.60761z" fill="#d6e1e6" stroke="none" stroke-width="0"/><path d="M136.70432,126.51921l-3.61085,-5.80811c10.56701,-4.55934 21.18736,-8.99429 31.6672,-13.76148c1.47439,-0.67069 3.55846,-1.48659 5.69488,-2.43038l-2.45092,5.24944z" fill="#d6e1e6" stroke="none" stroke-width="0"/><path d="M218.32152,15.78312c0,1.92649 -0.82475,3.02823 -1.76808,3.6583c-0.20246,1.31488 -1.01469,2.31422 -1.28221,2.61321c-2.60423,13.24579 -10.21772,24.46468 -14.93498,37.04846c-2.16871,6.33773 -6.54262,11.56383 -9.25002,17.66303c-1.44846,3.26308 -2.42419,7.84979 -4.34587,10.92824c-0.62268,0.99752 -1.79607,1.56085 -2.45006,2.53813c-2.89113,4.32028 -5.69457,10.17663 -7.67495,14.99997c-2.52355,6.14629 -5.17499,12.21331 -8.18182,18.18182c-1.26184,3.72212 -3.49902,6.83498 -5,10.45454c-2.36343,5.69934 -4.73536,11.46561 -7.37783,17.05275c-1.14568,2.42239 -4.36866,7.91589 -7.23417,7.9979c-1.35677,0.03883 -5.80228,-4.78151 -6.97233,-6.62016c-2.16341,-3.39966 -3.89896,-7.10028 -5.9773,-10.5646c-1.19419,-1.99056 -2.79369,-3.73878 -3.83107,-5.81537c-1.06411,-2.13008 -1.48426,-4.5317 -2.42554,-6.71883c-1.21587,-3.68082 -2.85989,-7.14141 -4.42752,-10.62795c-2.09188,-4.65251 -3.06094,-9.78026 -5.37287,-14.37717c-1.35214,-2.68852 -2.42518,-5.80002 -3.94439,-8.3721c-0.7947,-1.34546 -1.83058,-2.65469 -2.55447,-4.0531c-3.08567,3.63117 -5.97936,7.57442 -8.33866,11.74152c-6.63812,11.06589 -13.83595,21.70698 -20.47895,32.76845c-2.34139,3.89873 -4.45175,7.92359 -6.81818,11.81818c-0.91797,1.51076 -0.89061,3.62434 -2.17854,4.83525c-0.19532,0.18364 -0.39643,0.35989 -0.60249,0.52984l0.1635,0.1308l-1.79221,2.24026c-0.82389,1.04814 -2.10327,1.72134 -3.53988,1.72134c-2.25871,0 -4.12874,-1.66411 -4.45094,-3.83317l-0.41082,-2.46493c-1.18263,-4.1221 -1.95195,-8.39543 -3.12109,-12.49106c-2.00288,-7.01632 -5.60592,-13.88168 -7.28381,-20.95122c-1.07216,-4.51741 -0.77946,-9.33866 -2.19822,-13.83378c-1.05654,-3.3475 -2.39863,-6.38372 -3.26441,-9.83443c-2.07504,-8.45238 -6.25686,-16.05907 -9.00698,-24.25235c-1.65294,-4.92451 -3.04298,-9.86965 -4.90134,-14.7256c-1.72623,-4.51068 -5.066,-8.56744 -7.15264,-12.90624c-2.48264,-5.16219 -5.0094,-10.14184 -7.97756,-15.0738c0,0 -0.84555,-1.40925 -0.66303,-3.03543c0.03177,-3.54809 3.78195,-4.17312 3.78195,-4.17312c8.11586,-1.31189 16.71314,-0.86241 24.91409,-1.40953c4.69526,-0.31324 6.64059,-3.18599 11.50139,0.63058c2.15454,1.69169 2.86572,5.5189 3.6233,7.97868c1.59414,5.17604 1.8803,10.45609 3.22969,15.62051c1.75337,6.15981 4.66237,11.76337 7.08333,17.62373c2.00714,4.85866 2.38206,10.32017 4.15631,15.16727c0.34528,0.94326 1.2145,1.6569 1.47749,2.62633c0.2801,1.03248 -0.06467,2.15143 0.10518,3.20766c0.05482,0.3409 0.1206,0.6801 0.1954,1.01798c0.71703,-1.59468 1.43679,-3.18982 2.13564,-4.79707c0.95041,-2.18576 2.28448,-4.18904 3.58105,-6.18897c1.43295,-2.21029 2.18197,-4.80555 3.51318,-7.07857c1.58564,-2.70746 3.8286,-5.85599 5.61838,-8.43553c3.96016,-5.70764 9.60291,-10.24399 12.77297,-16.42822c1.99251,-2.06411 3.99873,-4.43813 6.20661,-6.27904c1.58653,-1.32284 2.85934,-3.8685 4.9224,-3.76469c5.75597,0.28961 7.3171,6.72732 9.25548,10.6263c3.76494,7.57303 5.82648,15.76149 8.82362,23.5991c1.31728,3.44473 3.45943,6.68786 5.20539,9.92046c1.44983,2.68434 2.21767,5.40857 3.77994,8.01236c0.02903,0.08565 0.0584,0.17106 0.08808,0.25625c1.0252,-2.20979 2.13188,-4.37696 3.09894,-6.61989c1.20032,-2.78392 3.28359,-5.21701 4.62863,-7.89848c2.36872,-4.72227 3.71665,-10.09423 5.86967,-14.92115c3.93875,-8.83042 9.21142,-18.8271 15.45759,-26.19913c2.20865,-3.21873 5.51183,-4.76969 7.76731,-7.77933c1.34918,-1.80031 2.43114,-3.99645 4.36295,-5.14948c3.71588,-2.21787 4.17776,-1.26976 7.90372,-1.56583c5.57748,-0.44318 11.11399,-0.46988 16.7348,-0.46988h2.72727c0,0 4.5,0 4.5,4.5zM195.10177,20.72233c-0.5566,0.04123 -2.97058,-0.32666 -3.91446,0.25236c-1.03222,0.63321 -1.24488,2.0862 -2.00069,3.03234c-2.38312,2.98323 -5.60338,4.42663 -7.68723,7.67521c-5.90946,6.80398 -10.89693,16.4742 -14.54241,24.70996c-2.16908,4.90032 -3.556,10.2811 -5.94851,15.07885c-1.27875,2.56431 -3.32958,4.89604 -4.46228,7.55606c-1.39694,3.28057 -3.19906,6.38577 -4.42751,9.71886c-0.47553,1.29022 -0.57808,2.74491 -1.30081,3.91472l-0.87628,2.62883c-0.56552,1.83881 -2.27761,3.17542 -4.30189,3.17542c-1.6679,0 -3.12386,-0.90741 -3.90115,-2.25549l-1.3212,-2.202l0.17404,-0.10443l-0.40363,-0.33045c-0.95286,-2.81068 -2.26068,-5.36446 -3.18182,-8.18182c-6.51273,-10.85455 -10.27293,-23.05514 -15.07634,-34.72121c-1.2524,-3.04172 -2.63469,-5.87551 -3.97906,-8.8398c-0.02075,-0.04577 -0.0423,-0.0916 -0.06452,-0.13752c-1.27544,1.17258 -2.80657,2.34464 -3.59572,3.08574c-1.40373,2.89227 -3.18785,4.82027 -5.29752,7.18814c-4.59621,5.15873 -9.22362,11.09239 -12.67478,17.03903c-3.36425,5.7969 -6.65936,11.82184 -9.24811,18.04554c-0.75647,1.81865 -1.5083,3.63923 -2.27272,5.45454c-0.43291,1.02805 -0.28391,2.41016 -1.11365,3.15568c-0.20037,0.18004 -0.40655,0.35222 -0.61771,0.51767l0.17871,0.14297l-1.79221,2.24026c-0.82389,1.04814 -2.10327,1.72133 -3.53988,1.72133c-2.48528,0 -4.5,-2.01472 -4.5,-4.5v-2.44604c-0.62626,-3.60915 -2.50605,-6.87992 -3.12371,-10.4695c-0.12714,-0.73892 0.30382,-1.5239 0.10518,-2.24689c-0.20225,-0.73612 -0.99035,-1.20116 -1.24978,-1.91912c-1.72115,-4.76329 -2.03583,-10.10265 -4.0255,-14.83273c-2.60995,-6.20468 -5.58666,-12.19676 -7.46212,-18.7399c-1.04179,-4.30536 -1.31858,-8.54098 -2.3055,-12.85738c-0.41286,-1.80568 -1.19988,-3.51057 -1.63245,-5.31162c-0.0603,-0.25106 0.31641,-0.91302 0.10298,-0.76771c-3.29541,2.24368 -7.87282,1.12798 -11.56933,1.35675c-2.24775,0.13912 -4.45133,0.71686 -6.69588,0.90064c-1.50331,0.12309 -2.99272,0.10848 -4.47796,0.09044c1.74653,3.2319 3.38263,6.50297 4.98796,9.85404c2.20716,4.60735 5.51595,8.69753 7.39281,13.4574c1.97281,5.00319 3.41097,10.17027 5.09866,15.27439c2.77511,8.3928 6.98389,16.20333 9.17483,24.83856c1.18064,4.74124 3.21502,9.06719 4.14265,13.86948c0.62094,3.21456 0.56196,6.54621 1.3038,9.73505c1.63323,7.02055 5.26726,13.8919 7.26165,20.86697c0.40481,1.41576 0.76448,2.85159 1.10915,4.29509c0.84508,-1.29755 1.68906,-2.59328 2.41782,-3.93151c7.10331,-13.04396 15.60876,-25.11427 23.24342,-37.83589c2.71877,-4.72088 5.94388,-9.5042 9.65114,-13.48774c1.04018,-1.11771 1.68657,-2.74005 3.0588,-3.40954c2.08809,-1.01874 4.59915,-2.07758 6.82535,-1.41278c4.07532,1.21699 3.72592,5.6364 5.11892,8.43364c0.40504,0.81335 1.27132,1.32328 1.7254,2.11031c4.27491,7.40934 6.23342,15.9224 9.77365,23.61436c1.68603,3.66328 3.36464,7.32586 4.66339,11.19024c0.8338,1.9533 1.16921,4.10929 2.11991,6.00844c1.68615,3.36828 4.27642,6.85062 6.2023,10.15028c0.71148,1.219 1.38875,2.4588 2.10131,3.67711c0.42896,-1.08395 0.79751,-2.19397 1.26515,-3.26189c3.28136,-7.49323 7.87366,-14.87236 10.40216,-22.6059c2.9751,-5.9888 5.647,-12.0429 8.18182,-18.18182c2.25985,-5.47299 5.42326,-11.90245 8.68869,-16.81821c0.53519,-0.80568 1.56605,-1.19778 2.09539,-2.00732c1.69643,-2.5944 2.62572,-7.26103 3.83595,-9.98085c2.57698,-5.79144 6.99355,-10.85594 8.93179,-16.88243c4.54181,-12.10764 12.13227,-23.0622 14.59309,-35.79776c-3.79109,0.03653 -7.55794,0.1402 -11.34356,0.42059z" fill="#c5d8e2" stroke="none" stroke-width="0.5"/><path d="M290.66534,91.92326l10.15247,22.93813l-30.08101,10.65854c0.35321,-0.39063 0.65629,-0.80886 0.89907,-1.25219c2.54934,-4.65523 -1.08958,-13.63351 -6.46733,-16.69362c-0.9986,-1.99794 -2.46096,-3.72829 -4.589,-5.00511c-0.60329,-0.36198 -1.30674,-0.54978 -2.04503,-0.67277z" fill="#d6e1e6" stroke="none" stroke-width="0"/><path d="M212.31538,146.22027l-10.59712,-26.68906l29.00907,-9.00401c-1.31264,9.01954 3.96669,20.82319 9.97698,25.63409z" fill="#d6e1e6" stroke="none" stroke-width="0"/><path d="M255.49439,76.68325c-2.82065,-0.12888 -5.64892,-0.03649 -8.49105,-0.03649c-7.13545,0 -14.04469,-0.09572 -19.86057,4.87781c-4.4518,3.80702 -7.48286,9.28191 -11.5925,13.39155c-1.53254,2.59582 -3.68827,5.53324 -4.80759,8.40745c-1.47913,3.79813 -1.5174,8.44965 -1.51206,12.45955c0.01148,8.63572 -0.1406,16.88804 4.79976,24.4806c3.75598,5.77234 8.79839,8.19654 13.4317,12.85231c8.07196,4.51278 17.27939,5.43982 26.35944,5.43982c3.79876,0 7.65772,0.24636 11.44701,0.01533c8.19651,-0.49973 15.42927,-6.33614 19.72505,-12.88112c2.36102,-4.10472 5.41894,-8.04357 6.81761,-12.65097c2.12594,-7.00311 2.51033,-14.08777 2.51033,-21.34688c0,-3.70154 0.52934,-7.86885 -0.99183,-11.39072c-2.02373,-4.68541 -5.02003,-8.35724 -7.60055,-12.65811c-3.34086,-3.24124 -7.60768,-6.7966 -11.88054,-8.64117c-4.07533,-1.75929 -9.35748,-0.99183 -13.66344,-0.99183h-1.36363c0,0 -1.99381,0.00001 -3.32714,-1.32715zM262.90823,68.97994c3.49595,-0.05992 7.03672,-0.13158 10.44952,0.5759c7.39678,1.53336 14.28461,7.28506 19.46524,12.54885c2.93925,4.89875 6.57517,9.22162 8.76308,14.61462c1.97731,4.8739 1.73545,9.8397 1.73545,14.97292c0,8.13868 -0.44525,16.27984 -2.94423,24.10766c-1.70337,5.33567 -5.00979,9.83015 -7.72785,14.62176c-6.04494,8.97065 -15.44533,16.23638 -26.63859,17.11888c-4.02008,0.31695 -8.15554,0.01533 -12.18934,0.01533c-11.2389,0 -21.96989,-1.58553 -31.82238,-7.28745c-2.69457,-2.68204 -6.06858,-4.4647 -8.90604,-7.04129c-2.94939,-2.67823 -4.42136,-4.66939 -6.75316,-8.28822c-5.78218,-8.97361 -6.12189,-18.89927 -6.10932,-29.15576c0.00635,-5.1801 0.25488,-10.82205 2.12429,-15.72226c1.40599,-3.68547 4.09407,-7.38101 6.10151,-10.68346c4.56537,-4.56537 7.95291,-10.59117 12.95296,-14.79027c7.50588,-6.30354 16.32048,-6.94037 25.59397,-6.94037c4.64451,0 9.2116,-0.14325 13.81822,0.49977c0,0 1.07027,0.1529 2.08668,0.8334z" fill="#c5d8e2" stroke="none" stroke-width="0.5"/><path d="M240.852,102.75896c-0.04673,0.07886 -0.10162,0.14991 -0.17022,0.20744c-0.53924,0.4522 -1.35211,0.51166 -1.8601,0.9987c-1.67121,1.60229 -2.24238,4.56062 -3.23047,6.52237c-0.43955,0.87267 -1.27871,1.51227 -1.67592,2.40501c-2.29952,5.16832 -0.8514,12.71648 3.08821,16.52684c0.42007,0.42257 2.38577,2.48767 3.05941,2.86544c3.1806,1.78365 8.43339,1.27108 11.94043,1.27108c1.41882,0 2.87913,0.51626 4.25335,0.16329c1.80512,-0.46365 4.21501,-3.01718 5.6628,-4.1772c3.64488,-2.9204 5.73334,-4.71518 6.55417,-9.49861c0.23393,-1.36326 0.68345,-2.30642 0.19811,-3.66369c-0.45624,-1.2759 -1.60449,-2.18515 -2.45507,-3.23993c-3.40965,-4.28474 -7.55808,-8.31337 -12.97452,-9.79515c-1.96883,-0.53861 -5.57747,0.12038 -7.60247,0.12038h-2.27273c0,0 -1.30898,0.00001 -2.51497,-0.70597zM255.52516,94.63761c7.30631,1.81385 13.14102,7.1824 17.71937,12.87984c1.3036,1.6401 3.25291,3.83252 3.90856,5.85098c1.99158,6.13125 -0.38868,14.37946 -4.56007,19.09209c-0.26016,0.29393 -4.48144,3.65403 -5.05127,4.10924c-2.50756,2.00316 -5.73215,4.94607 -8.88265,5.82281c-0.7224,0.20103 -5.47172,0.16328 -6.65575,0.16328c-5.20893,0 -11.50456,0.18682 -16.24139,-2.36528c-1.8723,-1.00876 -3.61406,-2.90628 -5.12241,-4.40729c-6.41475,-6.55486 -8.58087,-17.45729 -5.09361,-26.20044c0.4477,-1.12245 1.42284,-1.96726 1.96044,-3.04953c1.47298,-2.96533 2.5294,-6.45453 4.95135,-8.93217c0.74414,-0.76125 1.83329,-1.09043 2.68535,-1.72858c1.00217,-0.75058 1.69459,-1.98512 2.86547,-2.42871c3.75403,-1.42224 9.95341,-0.34255 13.9948,-0.34255c0,0 2.19815,0 3.52182,1.53631z" fill="#c5d8e2" stroke="none" stroke-width="0.5"/><path d="M349.50723,163.90516c0,0 -11.16985,-4.66314 -15.60348,-8.09953c-4.399,-3.40955 -10.89523,-12.43892 -10.89523,-12.43892l20.49174,-11.09928c0.69712,1.10619 1.34771,1.9836 1.73892,2.40731c1.11733,1.21014 2.55046,2.65621 4.05053,3.50555c1.77661,1.00592 4.04279,1.61341 6.06946,1.62536c4.17366,0.0246 10.00712,0.61525 14.7277,-0.32073c7.40537,-1.46831 11.85541,-8.95728 13.3879,-15.44899c0.47771,-2.02363 1.81112,-5.45717 1.28393,-7.56596c-0.51848,-2.07393 -1.46072,-3.80434 -2.68971,-5.09316l23.20032,-12.56637l7.97708,15.43794z" fill="#d6e1e6" stroke="none" stroke-width="0"/><path d="M357.07879,76.27269c-0.98097,-0.03056 -1.88249,0.01462 -2.54512,0.22402c-0.74412,0.23516 -1.22674,1.02457 -1.96832,1.26758c-2.13013,0.69801 -4.50623,0.48441 -6.60171,1.28043c-1.67678,0.63697 -4.62092,2.31348 -5.81282,3.56998c-0.60802,0.64097 -0.73524,1.65172 -1.36364,2.27272c-0.75718,0.74827 -1.84009,1.08146 -2.68535,1.72858c-1.69271,1.29593 -3.33415,3.48391 -4.67698,5.13152c-2.25239,2.76363 -2.60889,6.93721 -4.45862,10.02009c-1.64276,4.92827 -3.81925,9.85259 -4.6318,15.10744c-0.26921,1.74102 0.0435,3.52323 0.0435,5.28493c0,2.97316 -0.43808,6.42379 -0.0435,9.37585c0.48883,3.65724 2.60718,7.01492 4.66681,9.83656c1.21052,1.65838 1.83794,3.70102 3.08922,5.32885c2.33632,3.03939 5.7062,5.02627 8.83019,7.11075c5.69274,3.47859 12.07554,2.48436 18.50272,2.48436c11.83824,0 23.30557,0.94613 33.84081,-5.58994c1.28626,-0.79799 2.0851,-2.19541 3.15805,-3.26314c6.03388,-4.8271 7.96877,-10.22073 10.04424,-17.45052c1.7942,-6.24999 2.54175,-14.20625 1.69683,-20.74831c-0.3073,-2.3793 -2.02591,-4.69756 -3.13919,-6.7372c-1.56898,-2.87451 -2.77278,-5.77869 -5.14634,-8.07437c-3.37664,-3.43044 -8.19376,-7.44613 -12.51849,-9.63784c-2.87874,-1.4589 -6.70075,-1.86776 -9.81347,-2.91143c-4.51783,-1.51479 -7.79542,-3.42834 -12.66789,-3.40544h-1.81818c0,0 -2.79731,-0.00001 -3.98095,-2.20549zM366.327,69.7283c4.23181,0.60241 7.75151,2.18904 12.06486,3.61717c3.55658,1.17757 7.75566,1.79614 11.09562,3.45221c5.21446,2.58551 10.65485,7.22066 14.75424,11.27125c2.96522,3.02998 4.66198,6.42033 6.67184,10.10745c1.63648,3.00216 3.61031,6.16269 4.13353,9.62644c0.46006,3.04564 0.06338,6.69878 0.05811,9.81173c-0.02278,13.44681 -3.87169,27.88771 -14.68067,36.5349c-5.14036,5.17093 -12.93314,9.0484 -20.18753,10.5809c-7.25151,1.53188 -15.43749,0.56602 -22.81362,0.56602c-8.41672,0 -15.7816,0.58532 -23.31546,-3.87927c-4.04423,-2.69395 -8.15116,-5.3307 -11.16981,-9.25289c-1.31538,-1.70909 -2.00887,-3.83392 -3.27441,-5.58024c-2.90807,-4.01284 -5.48883,-8.72707 -6.24228,-13.79981c-0.49461,-3.33004 -0.0435,-7.25593 -0.0435,-10.62416c0,-0.4652 -0.01376,-6.15985 0.0435,-6.53324c0.93595,-6.10334 3.45492,-11.87998 5.3682,-17.61983c2.2626,-3.77101 2.84542,-8.23059 5.54138,-11.79809c1.64597,-2.17807 4.09363,-4.99943 6.23211,-6.68666c0.55249,-0.43591 1.36615,-0.49743 1.86011,-0.99869c0.62011,-0.62928 0.72785,-1.65929 1.36363,-2.27273c1.92728,-1.85956 6.21553,-4.54582 8.73263,-5.52093c2.23231,-0.86478 4.76792,-0.67677 7.03466,-1.44683c0.9348,-0.31757 1.61922,-1.22073 2.57713,-1.4597c3.02159,-0.75381 7.17081,-0.16329 10.29211,-0.16329c0,0 2.68007,0 3.90362,2.0683z" fill="#c5d8e2" stroke="none" stroke-width="0.5"/><path d="M368.094,101.74459c-6.91096,-1.60181 -13.36565,1.52581 -19.01074,5.47369c-2.33128,1.63038 -4.95043,3.3033 -6.25383,6.00971c-1.68903,3.50715 -1.21438,6.8751 -1.48098,10.62539c1.9447,3.37057 3.21506,7.22116 6.4334,9.65602c1.66604,1.26046 5.53587,1.5764 7.37604,1.97215c3.5698,0.76771 8.65882,1.67081 12.26978,0.90671c2.79152,-0.5907 4.84967,-2.88224 7.07809,-4.35797c0.72361,-0.4792 1.66642,-0.57707 2.36129,-1.09707c1.91003,-1.42935 3.50603,-4.99119 4.29624,-7.22132c-0.08375,-2.89169 0.57283,-6.51364 -0.30796,-9.30107c-1.49178,-4.72101 -5.39017,-7.81427 -9.38356,-10.2103l0.95159,0.64128c0,0 -3.50795,0 -4.32939,-3.09723zM375.81749,96.43346l0.28477,0.04964c5.83315,3.49989 11.27447,8.42133 13.34371,15.24424c1.26283,4.16393 0.67345,9.13476 0.60113,13.42621c-1.45007,4.46366 -3.77833,9.66955 -7.52194,12.77868c-0.89661,0.74465 -2.12522,0.9811 -3.09325,1.63021c-3.29385,2.20869 -6.10164,4.75902 -10.19463,5.64203c-4.80491,1.0366 -11.17566,0.10001 -15.91204,-0.91148c-3.73228,-0.79705 -7.56599,-1.29423 -10.80577,-3.4824c-5.08625,-3.43528 -7.46891,-9.58121 -9.93024,-14.88943c-0.18345,-5.73152 -0.54974,-11.35105 2.15538,-16.64733c2.11855,-4.14784 5.51613,-6.86355 9.20072,-9.44483c8.73822,-6.12165 18.40991,-9.36735 28.992,-6.02898c0,0 2.13143,0.71048 2.88017,2.63345z" fill="#c5d8e2" stroke="none" stroke-width="0.5"/><path d="M437.12454,137.58166l-1.73248,-30.09854l38.17029,-10.72796l16.35756,8.95978l-17.66537,10.66263c-2.42903,-0.85968 -5.15555,-1.13389 -6.8244,-1.04782c-7.11636,0.36699 -11.86648,5.30661 -13.36986,11.59713c-0.21503,0.5858 -0.34486,1.21272 -0.37448,1.86576z" fill="#d6e1e6" stroke="none" stroke-width="0"/><path d="M505.46357,69.25803v1.32391c0,6.02968 1.49527,15.04756 -3.89076,19.39722c-3.52296,2.84507 -9.22577,2.31373 -13.40712,2.31373c-2.74383,0 -5.47431,0.00662 -8.19727,0.05745c0.56074,0.11046 1.11048,0.25158 1.64535,0.43056c3.50522,1.17291 3.44356,1.79556 6.1189,3.73609c4.05976,2.94468 8.34825,5.69547 9.667,10.98341c0.64558,2.58869 -0.13807,5.37772 -0.59806,7.88437c-0.78827,1.27791 -1.28351,2.79198 -2.3648,3.83371c-3.28042,3.16038 -6.61716,2.67853 -10.68419,2.64194c-4.25192,-0.03826 -8.08497,-1.08263 -12.19478,-1.82333c-2.1918,-0.39502 -4.99014,0.06448 -7.22269,0.0581c-1.59218,-0.00455 -4.07909,-0.21747 -5.65335,0.4001c-0.29026,0.11387 -0.01911,4.35257 -0.01202,4.43748c0.27404,3.28479 1.12462,6.61964 1.64786,9.87778c1.644,4.93202 1.45661,9.62958 1.45661,14.76523c0,3.60534 0.29964,7.37258 -0.01533,10.96251c-0.18187,2.0728 -1.1822,6.92119 -2.3458,8.23968c-1.28194,1.45258 -3.24073,2.21127 -5.07674,2.82968c-0.44303,0.14922 -5.41588,0.12038 -6.32956,0.12038c-3.53045,0 -7.06091,0 -10.59136,0c0,0 -4.5,0 -4.5,-4.5c0,-0.27256 0.01651,-0.5286 0.04753,-0.76914c-0.04753,-0.33817 -0.04753,-0.55478 -0.04753,-0.55478c0.02503,-4.43595 -0.53732,-8.89575 -0.86728,-13.30933c-0.9546,-12.76902 -0.01533,-25.95269 -0.01533,-38.76481c0,-11.56865 -0.40383,-23.19329 4.88814,-33.78651c1.13169,-2.26535 2.20005,-4.69281 4.00868,-6.53999c1.39235,-1.42203 3.2486,-2.30006 4.86231,-3.46485c1.85189,-1.33671 4.38505,-2.99814 6.56021,-3.73609c3.61676,-1.22702 7.97384,-1.30583 11.73611,-1.93287c10.85674,-1.55096 21.93837,-0.93554 32.9035,-0.93554h2.20653c0,0 2.29116,0 3.60379,1.63484c2.66144,1.01842 2.66144,4.18908 2.66144,4.18908zM448.00682,162.72802c0.88261,0 1.76558,-0.02492 2.64783,0c0.61897,0.01748 1.72877,0.91262 1.83288,0.30222c0.59412,-3.48317 0.28671,-7.26509 0.28671,-10.80663c0,-5.21856 0.4732,-10.25032 -1.19123,-15.24359c-0.80719,-4.71114 -2.01288,-9.52987 -1.89792,-14.32393c0.03514,-1.46538 -0.32692,-3.02271 0.19308,-4.39317c2.90245,-7.64938 10.39896,-7.16773 17.1048,-7.16773c0.79847,0 5.54752,-0.01522 6.0165,0.05811c3.59679,0.56238 7.0687,1.7498 10.75314,1.70712c1.29237,-0.01497 3.91385,0.82594 4.60326,-0.58525c0.57154,-4.66198 -2.40871,-5.92077 -5.93548,-8.49321c-1.40647,-1.02589 -1.96315,-1.90472 -3.58983,-2.4422c-1.94362,-0.64221 -4.56095,-0.22073 -6.55191,-0.22073c-3.6775,0 -7.35517,0.00995 -11.03266,0c-2.41055,-0.00652 -6.84096,0.2558 -8.47765,-1.75933c-6.39547,-7.87421 3.02589,-12.72102 8.76768,-14.6225c7.97862,-1.15434 15.91642,-1.4443 23.98182,-1.4443c2.64601,0 8.01608,0.99608 10.42341,-0.3341c0.72215,-0.39903 0.45988,-1.59141 0.5658,-2.40964c0.33353,-2.57643 0.09724,-5.41991 -0.0038,-8.11549c-10.33387,-0.01931 -20.81592,-0.63025 -31.03866,0.83015c-3.30226,0.55038 -7.14617,0.5706 -10.3292,1.59758c-0.97582,0.31484 -3.38147,1.96568 -4.03114,2.4422c-1.29113,0.94702 -2.80723,1.60612 -3.96382,2.71344c-0.44871,0.4296 -2.07201,3.85639 -2.1696,4.05136c-4.61709,9.22459 -3.93799,19.69107 -3.93799,29.76159c0,12.54605 -1.00729,25.52713 -0.01533,38.02249c0.28679,3.61257 0.65538,7.24294 0.81678,10.87557c2.0575,0 4.11502,0 6.17252,0z" fill="#c5d8e2" stroke="none" stroke-width="0.5"/></g></g></svg>