<svg version="1.1" xmlns="http://www.w3.org/2000/svg" xmlns:xlink="http://www.w3.org/1999/xlink" width="13.34966" height="17.30931" viewBox="0,0,13.34966,17.30931"><g transform="translate(-307.55828,-191.57019)"><g data-paper-data="{&quot;isPaintingLayer&quot;:true}" fill-rule="nonzero" stroke="none" stroke-width="0.5" stroke-linecap="butt" stroke-linejoin="miter" stroke-miterlimit="10" stroke-dasharray="" stroke-dashoffset="0" style="mix-blend-mode: normal"><path d="M309.59185,194.25912c0.39139,-0.68952 0.47787,-1.66737 1.15545,-2.07909c0.9266,-0.56303 2.12398,-0.45865 3.2026,-0.569c0.9461,-0.09679 3.90076,-0.0586 4.73671,0.52958c2.99693,2.10869 2.09689,8.30483 2.08742,11.44053c-0.00391,1.29514 0.14436,3.20091 -0.81032,4.25924c-0.58612,0.64976 -1.60717,0.69275 -2.41075,1.03913c-2.198,-0.02952 -3.66241,-0.62417 -5.04024,-1.74954c-0.55697,-1.32294 -1.58238,-2.45137 -2.04845,-3.84958c-0.01836,-0.05507 -0.03729,-0.10984 -0.0568,-0.16432c-1.01414,-1.21199 -1.82169,-2.4955 -2.20435,-3.31141c-0.20597,-0.19466 -0.42123,-0.38108 -0.64484,-0.55907c0.57171,-1.69084 1.12722,-3.38969 2.03358,-4.98648z" fill="#131313"/><path d="M308.71826,197.54874c0.81741,-3.26963 3.50608,-4.86958 6.37997,-4.80379c1.12794,0.02582 3.29965,-0.19896 3.29965,1.59741c0,2.97724 -3.49891,0.61426 -4.5441,1.16059c-3.69612,1.932 -0.39679,4.58679 -0.6661,5.57425c0.03102,0.12016 0.04752,0.24616 0.04752,0.37602c0,0.82843 -0.67157,1.5 -1.5,1.5c-0.6057,0 -1.12755,-0.359 -1.36437,-0.87583c-1.28865,-0.69725 -2.1191,-2.66254 -1.65258,-4.52864z" fill="#303030"/><path d="M317.86093,206.5938c-0.85015,0.4975 -6.099,2.69898 -4.9187,-0.84189c0.43805,-1.31414 2.44443,-1.10029 3.35934,-1.73253c0.42986,-0.29705 0.33888,-2.56534 0.89938,-3.23719c0.46099,-0.55258 2.48339,-1.41361 2.90095,-0.28375c0.32792,0.27516 0.53639,0.68803 0.53639,1.14959c0,0.49192 -0.2368,0.92854 -0.60263,1.20208c-0.529,1.38602 -0.78401,2.92986 -2.17473,3.74369z" fill="#000000"/><path d="M316.54495,194.16024c0.47434,-0.15811 0.63246,0.31623 0.63246,0.31623l0.05719,0.20227c0.66363,1.16165 1.11964,1.93722 0.99438,2.94301l0.22548,0.05637l-0.19228,0.76912c-0.05053,0.22266 -0.24966,0.38888 -0.48761,0.38888c-0.15149,0 -0.28725,-0.06737 -0.37894,-0.17379c-0.15532,0.09262 -0.36121,0.15352 -0.62934,0.17262c-0.4888,0.03481 -0.91578,-0.274 -1.27291,-0.75598c-0.0597,0.05434 -0.12775,0.10503 -0.2049,0.15153c-0.0887,0.05347 -0.31502,-0.07234 -0.574,-0.26085c-0.02745,0.32636 -0.16827,0.58891 -0.47612,0.73907c0.2481,0.41108 0.46883,0.83379 0.63741,1.28158l0.00449,0.00449l0.10857,-0.06514l0.288,0.48c0.04784,0.07668 0.07548,0.16726 0.07548,0.26429c0,0.24008 -0.16921,0.44064 -0.39488,0.48893l0.20357,0.29082c0.05909,0.08211 0.0939,0.18286 0.0939,0.29175c0,0.14353 -0.06048,0.27294 -0.15735,0.36413c0.06571,0.29016 0.08948,0.55952 0.05576,0.79324l0.20864,0.31295c0.05536,0.08048 0.08777,0.17797 0.08777,0.28304c0,0.27614 -0.22386,0.5 -0.5,0.5c-0.15962,0 -0.30178,-0.0748 -0.39332,-0.19126l-0.08926,-0.11158c-0.00045,0.00013 -0.00089,0.00027 -0.00134,0.0004c-0.2765,0.08286 -1.17643,-0.62131 -2.05341,-1.43514c0.0584,0.15832 0.11703,0.31882 0.18196,0.48115l-0.03895,0.02698l0.0078,-0.00111l0.036,-0.012l0.00218,0.00655l0.11586,-0.01655l0.09619,0.67335c0.00411,0.0258 0.00624,0.05227 0.00624,0.07923c0,0.27614 -0.22386,0.5 -0.5,0.5c-0.22492,0 -0.41515,-0.14851 -0.47799,-0.35282l-0.18769,-0.56307c-0.05551,-0.13883 -0.10477,-0.26576 -0.14809,-0.38366c-0.60652,-0.54554 -1.08156,-1.65941 -1.55973,-2.15208l-0.00588,-0.11913l-0.04314,0.01438l-0.19113,-0.57338c-0.019,-0.05284 -0.02935,-0.1098 -0.02935,-0.16919c0,-0.27614 0.22386,-0.5 0.5,-0.5c0.11438,0 0.21979,0.03841 0.30404,0.10303l0.77523,0.58142l-0.05072,0.06763c0.0801,0.04614 0.15938,0.09306 0.23791,0.14079c-0.14648,-0.21883 -0.28652,-0.44365 -0.41972,-0.6761c-0.01448,-0.01571 -0.02902,-0.03139 -0.0436,-0.04705l-0.06983,0.05713l-0.63096,-0.77117c-0.072,-0.08663 -0.1153,-0.19796 -0.1153,-0.3194c0,-0.27614 0.22386,-0.5 0.5,-0.5c0.13807,0 0.26307,0.05596 0.35355,0.14645l0.38964,0.38964c0.52653,0.52653 0.98474,1.08998 1.42305,1.66747c0.16026,0.17994 0.31909,0.36874 0.47539,0.56029c-0.06236,-0.09264 -0.12421,-0.18638 -0.18472,-0.28107c-0.37076,-0.51914 -0.68025,-1.14337 -1.01206,-1.66545c-0.03172,-0.04016 -0.06342,-0.08004 -0.09509,-0.11961l-0.00517,-0.02261l-0.00725,0.00483l-0.32498,-0.48747l-0.01546,0.00618l-0.02937,-0.07342l-0.01603,-0.02405c-0.04555,-0.06622 -0.07556,-0.14396 -0.08477,-0.22795l-0.06044,-0.15109c-0.02573,-0.06025 -0.03997,-0.12657 -0.03997,-0.19622c0,-0.23667 0.16443,-0.43493 0.38528,-0.48678c-0.00665,-0.01081 -0.01313,-0.02127 -0.01945,-0.03136l-0.00066,-0.0049l-0.0017,0.00102l-0.288,-0.48c-0.04784,-0.07668 -0.07548,-0.16726 -0.07548,-0.26429c0,-0.27614 0.22386,-0.5 0.5,-0.5c0.15574,0 0.29486,0.07121 0.38656,0.18284l0.4846,0.58152l-0.04638,0.03865c0.24945,0.18869 0.48401,0.39932 0.67002,0.6339c-0.03938,-0.09832 -0.07488,-0.18592 -0.10235,-0.25001c-0.0137,-0.03198 -0.02746,-0.06374 -0.04128,-0.0953c-0.70632,-0.71933 -1.23867,-1.30955 -1.327,-2.15015h-0.23194v-0.58445c0,-0.27614 0.22386,-0.5 0.5,-0.5c0.15574,0 0.29486,0.07121 0.38656,0.18284l0.4846,0.58152l-0.0088,0.00733l0.03233,0.02323c0.15446,0.25602 0.49905,0.77888 0.82927,1.38347c0.389,0.48401 0.72471,0.98159 0.89304,1.21544c-0.0668,-0.16924 -0.12836,-0.34207 -0.18451,-0.51537c-0.11522,-0.23276 -0.26661,-0.53563 -0.45919,-0.9208l0.02151,-0.04453l-0.03391,0.0113l-0.07059,-0.21176l-0.14603,0.01825l-0.09643,-0.77145c-0.00319,-0.02282 -0.00484,-0.04614 -0.00484,-0.06984c0,-0.27614 0.22386,-0.5 0.5,-0.5c0.22492,0 0.41515,0.14851 0.47799,0.35282l0.28015,0.84045c0.07659,0.15292 0.17323,0.33858 0.2711,0.54379c0.65592,0.81049 1.23749,1.97907 1.3466,2.03646c-0.40328,-0.62989 -0.6184,-0.99854 -0.54768,-1.56514l-0.18014,-0.02573l0.09637,-0.67459c0.01751,-0.13829 0.0915,-0.25897 0.19814,-0.33819l-0.07906,-0.21953c0,0 -0.15811,-0.47434 0.31623,-0.63246z" fill="#000000"/><path d="M319.40126,197.84894c0.22361,-0.1118 0.33541,0.1118 0.33541,0.1118l0.09192,0.35054c-0.29794,0.83759 -1.28057,1.3044 -2.10086,1.50947c-0.54468,0.00319 -1.56809,-0.20261 -2.06657,-0.01716c-1.52388,0.56696 -1.84806,4.06384 -3.41163,4.12451c0,0 -0.25,0 -0.25,-0.25c0,-0.25 0.25,-0.25 0.25,-0.25c0.6486,0.04127 1.0458,-1.51333 1.46189,-2.03677c1.30766,-1.64501 1.83002,-2.08221 3.95522,-2.06684c0.60736,-0.15184 1.48382,-0.53866 1.68881,-1.17488l-0.06599,0.03474c0,0 -0.1118,-0.22361 0.1118,-0.33541z" fill="#2f2f2f"/></g></g></svg>