<svg version="1.1" xmlns="http://www.w3.org/2000/svg" xmlns:xlink="http://www.w3.org/1999/xlink" width="41.90569" height="28.74053" viewBox="0,0,41.90569,28.74053"><g transform="translate(-289.39705,-184.04149)"><g data-paper-data="{&quot;isPaintingLayer&quot;:true}" fill-rule="nonzero" stroke="none" stroke-linecap="butt" stroke-linejoin="miter" stroke-miterlimit="10" stroke-dasharray="" stroke-dashoffset="0" style="mix-blend-mode: normal"><path d="M289.7644,212.78202v-25.65487c0.65852,-0.20673 1.44039,-0.29046 2.51728,-0.29046c2.53293,0 5.56479,1.21975 8.14802,1.02835c0.04566,0.04904 0.10034,0.07091 0.10034,0.07091c0.72497,0.28999 1.5906,0.60471 2.11515,1.18664c0.51843,0.57514 -0.01288,1.53933 0.9302,2.02988c0.93892,0.48838 2.23685,0.17178 2.91824,1.15251c1.55807,0.46857 3.45939,0.38135 4.89872,0.90127c1.35006,0.48767 2.71948,1.85666 3.8669,2.68159c0.87177,0.51622 1.48984,1.1779 2.0299,1.88097c0.00523,0.0579 0.02682,0.10108 0.02682,0.10108c0.07411,0.12364 0.16335,0.21832 0.26429,0.29033c1.14592,1.58334 2.06754,3.27584 4.67452,3.94616c2.92717,1.22633 4.13761,4.3188 5.95479,6.92916c0.55748,0.90158 2.17009,2.40947 3.09318,3.74648z" fill="#8b8b8b" stroke-width="0"/><path d="M299.3098,194.91152c-0.12403,0.99228 -1.11631,0.86824 -1.11631,0.86824l-1.69552,-0.34554c-1.712,-3.41106 0.32875,-4.71387 0.66701,-7.85036c0.66711,0.12369 1.33031,0.22707 1.97666,0.27418c-0.34948,2.15291 -1.83352,3.64034 -1.44106,5.97814l0.74098,-0.04098c0,0 0.99228,0.12403 0.86824,1.11631z" fill="#6a6a6a" stroke-width="0.5"/><path d="M298.28927,186.63799c0.50163,0.0627 0.71797,0.3473 0.80927,0.61341c-0.5716,-0.10035 -1.12665,-0.20717 -1.67596,-0.3111c0.16402,-0.19681 0.43207,-0.35664 0.86669,-0.30231z" fill="#6a6a6a" stroke-width="0.5"/><path d="M290.02751,191.45209c-0.92848,-0.37139 -0.55709,-1.29987 -0.55709,-1.29987l0.46482,-1.0302c0.70079,-0.83881 1.14338,-1.4758 1.38025,-2.2572c0.29461,-0.01921 0.61468,-0.02813 0.96619,-0.02813c0.34745,0 0.70429,0.02295 1.06808,0.06206c-0.27267,1.2816 -0.86688,2.28737 -1.87807,3.50364l-0.14431,0.49261c0,0 -0.37139,0.92848 -1.29987,0.55709z" fill="#6a6a6a" stroke-width="0.5"/><path d="M291.53083,185.04149c0,0 0,-1 1,-1c1,0 1,1 1,1c-0.00371,0.48338 -0.03264,0.923 -0.08938,1.33199c-0.37723,-0.02368 -0.76285,-0.03679 -1.15977,-0.03679c-0.30132,0 -0.58197,0.00698 -0.84515,0.02165c0.06923,-0.3848 0.09908,-0.81326 0.0943,-1.31684z" fill="#6a6a6a" stroke-width="0.5"/><path d="M296.91715,199.55603c-0.96152,0.27472 -1.23625,-0.6868 -1.23625,-0.6868l0.11288,-0.50166c-1.20562,0.9608 -3.47517,1.38428 -4.90819,1.03618c0,0 -0.96152,-0.27472 -0.6868,-1.23625c0.27472,-0.96152 1.23625,-0.6868 1.23625,-0.6868c1.29481,0.47682 3.83233,-0.78994 5.44692,-0.79119l0.722,1.63028c0,0 0.27472,0.96152 -0.6868,1.23625z" fill="#6a6a6a" stroke-width="0.5"/><path d="M293.14959,209.84405c-0.66868,-0.33434 -0.5875,-0.91863 -0.50392,-1.19228c-2.09619,-4.65098 1.27873,-5.27058 5.51957,-5.27058c0,0 1,0 1,1c0,1 -1,1 -1,1c-3.15791,0 -5.26248,-0.64194 -3.52173,2.81666l-0.15228,1.19899c0,0 -0.44721,0.89443 -1.34164,0.44721z" fill="#6a6a6a" stroke-width="0.5"/><path d="M301.55472,201.5333c0.86824,0.49614 0.3721,1.36438 0.3721,1.36438l-0.5852,1.02154c-0.85094,1.60874 0.66296,2.87351 0.06493,4.71107c-0.69541,2.13676 -3.49605,2.66122 -5.37324,2.68987c0,0 -1,0 -1,-1c0,-1 1,-1 1,-1c5.08905,0.10528 2.30283,-3.24938 3.52399,-6.30436l0.63304,-1.11039c0,0 0.49614,-0.86824 1.36438,-0.3721z" fill="#6a6a6a" stroke-width="0.5"/><path d="M307.18089,199.36273c-0.76822,0.64018 -1.40841,-0.12804 -1.40841,-0.12804l-0.88482,-1.10111c-0.2339,-0.87191 -0.40112,-3.03596 -0.85235,-3.7137c-0.35635,-0.53524 -1.78044,1.52501 -1.86293,1.86057c0,0 -0.27472,0.96152 -1.23625,0.6868c-0.96152,-0.27472 -0.6868,-1.23625 -0.6868,-1.23625c0.45317,-1.45564 2.80122,-4.44925 4.83744,-3.01243c0.94531,0.66704 1.33368,3.3967 1.58415,4.50948l0.63799,0.72626c0,0 0.64018,0.76822 -0.12804,1.40841z" fill="#6a6a6a" stroke-width="0.5"/><path d="M323.06883,185.29735c-0.0227,0.17019 -0.16479,0.38732 -0.34594,0.62412c0.06265,-0.22874 0.17471,-0.43855 0.34594,-0.62412z" fill="#6a6a6a" stroke-width="0.5"/><path d="M318.29407,198.41302c-0.01013,-0.01476 -0.02025,-0.02952 -0.03037,-0.04429c0.00305,0.00019 0.00611,0.00038 0.00916,0.00056c0.00703,0.01458 0.0141,0.02916 0.02121,0.04374z" fill="#6a6a6a" stroke-width="0.5"/><path d="M317.12179,201.30732c-0.04331,-0.34648 0.04949,-0.5871 0.18862,-0.75354c-0.54713,-0.8893 -0.71805,-1.74645 -1.27646,-2.67039c-0.86755,-1.43545 -3.373,-1.75766 -4.00303,-3.28088c-0.16844,-0.40724 -0.24477,-0.82225 -0.24478,-1.23048c1.22024,0.58275 2.43715,1.77102 3.47311,2.51582c0.87177,0.51622 1.48984,1.1779 2.0299,1.88097c0.00523,0.0579 0.02682,0.10108 0.02682,0.10108c0.07411,0.12364 0.16335,0.21832 0.26429,0.29033c0.80112,1.10692 1.49261,2.26719 2.72698,3.09426c-0.09351,0.40965 -0.43859,0.72351 -0.86406,0.77044l-1.20509,0.15064c0,0 -0.99228,0.12403 -1.11631,-0.86824z" fill="#6a6a6a" stroke-width="0.5"/><path d="M319.87411,200.19035c0.16936,0.10938 0.30355,0.26854 0.38188,0.45679c-0.31046,-0.23156 -0.58368,-0.48671 -0.83301,-0.75754z" fill="#6a6a6a" stroke-width="0.5"/><path d="M310.47121,206.4736c-0.87416,-0.48564 -0.38851,-1.3598 -0.38851,-1.3598l0.66004,-0.66498c-2.37339,-1.26889 -0.37626,-4.92048 0.53794,-6.75837c0,0 0.44721,-0.89443 1.34164,-0.44721c0.89443,0.44721 0.44721,1.34164 0.44721,1.34164c-1.04464,2.07736 -2.23098,3.81561 -0.37575,5.42412l-0.86277,2.07608c0,0 -0.48564,0.87416 -1.3598,0.38851z" fill="#6a6a6a" stroke-width="0.5"/><path d="M318.97346,208.3948c0.70711,0.70711 0,1.41421 0,1.41421l-0.25939,0.24517c-4.51213,3.32037 -12.08209,3.80394 -13.8963,-2.50493c0,0 -0.27472,-0.96152 0.6868,-1.23625c0.96152,-0.27472 1.23625,0.6868 1.23625,0.6868c1.36654,4.81781 7.42545,4.02572 10.77325,1.45438l0.04517,-0.05939c0,0 0.70711,-0.70711 1.41421,0z" fill="#6a6a6a" stroke-width="0.5"/><path d="M322.39791,203.19513c-0.28482,0.03424 -0.96499,-0.29135 -0.86026,-0.02429c0.13702,0.3494 0.76949,0.18523 1.02951,0.45587c0.39411,0.41021 0.55814,0.99139 0.83721,1.48708c0,0 0.48564,0.87416 -0.38851,1.3598c-0.87416,0.48564 -1.3598,-0.38851 -1.3598,-0.38851c-0.61604,-1.12675 -2.36927,-1.98061 -2.09258,-3.2346c0.15514,-0.7031 0.64342,-1.07581 1.2382,-1.29965c0.42037,0.22417 0.89862,0.41298 1.4531,0.55556c0.53914,0.22587 1.02004,0.51505 1.45722,0.85286c-0.4256,0.12628 -0.87302,0.18285 -1.31409,0.23588z" fill="#6a6a6a" stroke-width="0.5"/><path d="M326.00164,206.67223c0,0 -0.73435,-0.61196 -0.16877,-1.35723c0.4939,0.71755 0.95026,1.48343 1.4208,2.24534c-0.41764,-0.24875 -0.83431,-0.54082 -1.25203,-0.88811z" fill="#6a6a6a" stroke-width="0.5"/></g></g></svg>