<svg version="1.1" xmlns="http://www.w3.org/2000/svg" xmlns:xlink="http://www.w3.org/1999/xlink" width="65.67063" height="68.87689" viewBox="0,0,65.67063,68.87689"><g transform="translate(-287.83393,-147.22306)"><g data-paper-data="{&quot;isPaintingLayer&quot;:true}" fill-rule="nonzero" stroke="none" stroke-linecap="butt" stroke-linejoin="miter" stroke-miterlimit="10" stroke-dasharray="" stroke-dashoffset="0" style="mix-blend-mode: normal"><g><path d="M289.7644,212.78202v-60.81093h60.81093v60.81093z" fill="#ad7c29" stroke-width="0"/><path d="M297.97436,207.93721c0,0 -1.27745,-1.15714 -1.01759,-2.22159c0.9178,-3.75959 -1.14632,-11.07399 0.2321,-22.21903c1.08537,-8.77564 1.01675,-21.09516 1.20407,-24.13905c0.15161,-2.46358 0.58379,-4.97597 0.58379,-4.97597l2.14796,-0.42959c0,0 -2.57754,12.64458 -2.57754,16.32444c0,3.97287 -1.66511,17.92458 -1.11739,25.65054c0.71778,10.12463 3.69493,13.87179 3.69493,13.87179z" fill="#91661c" stroke-width="0"/><path d="M292.38968,210.37156c0,0 1.00238,-29.1274 1.00238,-39.52233c0,-7.49034 0.57278,-8.30542 0.57278,-8.30542l1.86156,-8.73501c0,0 -2.00475,17.61444 -2.00475,26.77781c0,9.66421 -0.42959,18.75878 -0.42959,18.75878z" fill="#91661c" stroke-width="0"/><path d="M342.07899,200.49097c0,0 -4.49185,-0.02418 -3.47102,-9.756c1.18626,-11.30896 -0.53849,-23.55925 -0.53849,-28.62076c0,-3.96391 -2.57754,-2.57755 -2.57754,-2.57755c0,0 -0.58024,-3.87513 1.4155,-4.9109c0.7376,-0.3828 0.91012,4.39829 2.8439,4.25942c2.62778,-0.18872 -0.67948,19.98306 -0.67948,19.98306l7.73263,30.93052z" fill="#91661c" stroke-width="0"/><path d="M309.7165,204.9277c-1,0 -1,-1 -1,-1v-0.85918c0,-5.85436 -1.7201,-11.37952 -1.7175,-17.28528c-0.20024,-2.44289 -1.21844,-4.67714 -1.56549,-7.06612c-0.54179,-3.72952 0.16685,-7.77122 -0.00915,-11.53854c-0.09044,-1.93595 -1.0678,-3.4724 -1.28266,-5.37175c-0.32722,-2.89262 1.99272,-5.92277 4.37318,-7.29701c0,0 0.87416,-0.48564 1.3598,0.38852c0.48564,0.87416 -0.38851,1.3598 -0.38851,1.3598c-5.02999,2.6467 -2.29025,6.61718 -2.06457,10.81553c0.19905,3.70296 -0.54931,7.69128 -0.00915,11.35393c0.36219,2.45588 1.37248,4.75641 1.58483,7.27258c0.0025,5.93139 1.71922,11.47671 1.71922,17.36835v0.85918c0,0 0,1 -1,1z" fill="#91661c" stroke-width="0.5"/><path d="M325.90662,206.06677c-0.70711,-0.70711 0,-1.41421 0,-1.41421l-0.05737,0.14423c1.89308,-4.0801 1.93246,-8.80219 1.02017,-13.16976c-2.39402,-8.6413 -4.95625,-16.65134 -4.54707,-25.71202c0.12432,-2.75282 0.13161,-7.20723 3.14758,-7.94107c0,0 0.98995,-0.14142 1.13137,0.84853c0.14142,0.98995 -0.84853,1.13137 -0.84853,1.13137c-0.49601,-0.0779 -0.71882,0.77994 -0.80178,1.27513c-0.37579,2.24323 -0.63203,4.48175 -0.63079,6.75157c0.00444,8.13268 2.33538,15.37139 4.49325,23.17669c0.99313,4.83005 0.93292,9.96214 -1.14885,14.47893l-0.34377,0.43062c0,0 -0.70711,0.70711 -1.41422,0z" fill="#91661c" stroke-width="0.5"/><path d="M315.88284,204.778c-0.65453,-0.65453 -0.09733,-1.30906 -0.01085,-1.40277c1.12983,-3.18526 0.15589,-8.106 0.14241,-11.46931c-0.04633,-11.56315 -5.70081,-22.83414 -2.82894,-34.33014c0,0 0.24254,-0.97015 1.21268,-0.72761c0.97015,0.24254 0.7276,1.21268 0.7276,1.21268c-2.80774,11.22242 2.84324,22.50824 2.88863,33.83705c0.0152,3.79405 0.94233,8.82504 -0.3449,12.38092l-0.37242,0.49918c0,0 -0.70711,0.70711 -1.41422,0z" fill="#91661c" stroke-width="0.5"/><path d="M335.79594,199.52384c-0.89443,0.44721 -1.34164,-0.44721 -1.34164,-0.44721l-0.23872,-0.59219c-0.50725,-3.61104 -0.00978,-7.38358 -0.01005,-11.02163c-0.03122,-5.66424 -2.10411,-10.45585 -2.57525,-15.97309c-0.42914,-5.02547 0.14178,-10.21133 0.1409,-15.24658c0,0 0,-1 1,-1c1,0 1,1 1,1c-0.00084,4.98698 -0.57828,10.13493 -0.14549,15.11115c0.48239,5.54653 2.54838,10.38985 2.57983,16.103c-0.00025,3.53346 -0.52028,7.24005 -0.01005,10.74429l0.04767,-0.0194c0,0 0.44721,0.89443 -0.44721,1.34164z" fill="#91661c" stroke-width="0.5"/><path d="M347.40529,187.74368c-0.99961,0.02803 -1.02763,-0.97158 -1.02763,-0.97158l-0.05047,-1.83553c-0.98172,-8.31173 -1.90126,-16.5368 -3.0902,-24.82888c0,0 -0.14142,-0.98995 0.84853,-1.13137c0.98995,-0.14142 1.13137,0.84853 1.13137,0.84853c1.18648,8.33805 2.12545,16.609 3.10504,24.96671l0.05495,1.92449c0,0 0.02803,0.99961 -0.97158,1.02763z" fill="#91661c" stroke-width="0.5"/><path d="M290.49493,150.41061c0.6,-0.8 1.4,-0.2 1.4,-0.2l0.62697,0.54149c1.31397,2.07719 1.08753,4.68899 0.85411,7.07169c0,0 -0.03346,0.33464 -0.25565,0.59638c0.11204,0.07481 0.21801,0.14958 0.30965,0.22613c0.08537,0.07131 0.17191,0.15595 0.25856,0.25166c-0.01489,-1.32856 0.00027,-2.65695 0.06307,-3.9857c0,0 0.04757,-0.99887 1.04644,-0.9513c0.99887,0.04756 0.9513,1.04644 0.9513,1.04644c-0.06252,1.30274 -0.07928,2.60553 -0.06676,3.90875c0.16602,-0.20254 0.44016,-0.36987 0.88774,-0.30593c0.98995,0.14142 0.84852,1.13137 0.84852,1.13137l-0.08868,0.5497c-0.14283,2.08286 2.37984,2.06961 2.9338,4.10864c0.59463,2.18876 -2.34772,4.10206 -2.44044,6.33254c-0.07064,1.69931 1.88348,4.37853 2.88405,6.34939c0.24072,-1.45991 0.5559,-2.90802 0.96591,-4.33945c-0.31606,-0.45642 -0.55633,-0.98114 -0.63868,-1.63458c-0.10649,-0.84503 0.02235,-1.73376 0.30641,-2.53671c0.14564,-0.41167 0.44976,-0.76811 0.79772,-1.04675c-0.66864,-0.22054 -0.80651,-1.1923 -1.27377,-2.03699c-1.35901,-2.45674 -1.31644,-4.95528 0.24947,-7.0553c0.02724,-1.36093 -0.37547,-2.70069 0.10452,-4.12015c0.07887,-0.23326 1.45297,-1.74728 1.66965,-1.99106l0.54234,-0.43183c0,0 0.8,-0.6 1.4,0.2c0.6,0.8 -0.2,1.4 -0.2,1.4l-0.24752,0.16056c-0.9504,1.06919 -1.14472,2.20676 -1.22145,3.39942c0.14418,0.05124 0.29273,0.14835 0.43678,0.31297c0.6585,0.75258 -0.09407,1.41108 -0.09407,1.41108c-0.17925,0.15196 -0.34264,0.30942 -0.49074,0.47164c-0.09474,0.72245 -0.27719,1.46057 -0.66952,2.21179c0,0 -0.16347,0.30359 -0.4767,0.45825c-0.08132,1.40905 0.50903,2.88086 1.53999,4.12541c0.42156,0.50889 1.44522,0.61543 1.52064,1.27194c0.19416,1.69003 -2.27564,1.38854 -1.91385,3.51287c0.06412,0.37652 0.21541,0.72499 0.4192,1.05541c0.13275,0.1109 0.21194,0.24286 0.2573,0.37492c0.91745,1.21988 2.41095,2.23086 2.52397,3.59707c0.20364,2.46164 -2.18054,1.47453 -1.97388,3.69138l0.15899,0.41639c0,0 0.27472,0.96152 -0.6868,1.23624c-0.96152,0.27472 -1.23624,-0.6868 -1.23624,-0.6868l-0.14436,-0.59096c-0.02113,0.1942 -0.04112,0.38856 -0.06002,0.58309c0.33655,0.26291 0.38345,0.71628 0.38345,0.71628c0.60052,5.80537 2.39105,11.55395 2.86543,17.30252c0.24178,2.92995 -0.33863,5.60755 0.72924,8.41538l0.18202,-0.03483c0,0 0.78086,0.6247 0.15617,1.40557c-0.62469,0.78087 -1.40556,0.15617 -1.40556,0.15617l-0.80529,-0.82467c-1.12551,-3.03859 -0.60009,-5.81056 -0.85045,-8.96119c-0.24919,-3.13591 -0.9051,-6.28096 -1.54547,-9.43496c0.01682,1.57049 0.05446,3.13827 0.08664,4.69642c0.0505,2.4447 0.79557,5.22292 0.58763,7.62286c-0.14482,1.67146 -1.44591,3.4034 -1.99636,4.98073c-0.20442,1.54623 -0.23152,3.05724 -0.36583,4.60566l0.16638,-0.81599c0,0 0.70711,-0.70711 1.41422,0c0.70711,0.70711 0,1.41422 0,1.41422l-2.00569,1.35608c-1.59424,-2.88798 -1.58335,-3.85955 -1.15465,-7.02334c0.46303,-1.33731 1.86514,-3.31288 1.95184,-4.71606c0.14481,-2.34383 -0.54781,-4.99457 -0.59714,-7.38418c-0.10042,-4.86531 -0.23444,-9.80301 0.32358,-14.64004c-0.85688,0.21573 -1.15734,-0.65226 -1.15734,-0.65226c-0.29453,-0.85375 -0.82969,-1.79843 -1.39023,-2.77349c-0.07134,0.10145 -0.14141,0.20335 -0.21022,0.30567c0.3532,2.01486 0.82966,4.0195 0.97626,6.12243c0.41745,5.98846 -0.67458,12.19185 0.79907,18.04626c0.16589,0.23421 0.42464,0.76131 -0.10247,1.28841c-0.70711,0.70711 -1.41421,0 -1.41421,0l-0.3587,-0.55134c-1.59411,-6.06826 -0.49619,-12.44059 -0.91931,-18.65088c-0.08306,-1.21903 -0.26644,-2.40255 -0.47268,-3.5724c-2.63333,5.80702 -2.29241,12.59988 -2.66544,18.87155c-0.14651,2.46329 0.76941,3.68461 -0.29601,6.06572c-2.51757,2.28019 -4.93293,5.47084 -2.13084,8.50641l0.16127,0.15931c0,0 0.70711,0.70711 0,1.41421c-0.70711,0.70711 -1.41421,0 -1.41421,0l-0.23365,-0.2356c-3.12757,-3.54393 -1.63792,-7.67398 1.46974,-10.56137c-0.18644,-0.23471 -0.23188,-0.50736 -0.23188,-0.50736c-0.99968,-6.09785 -1.12784,-13.10436 -1.29667,-19.28875c-0.06192,-2.26812 0.44401,-4.95387 0.01248,-7.17525c-0.36435,-1.87557 -1.25655,-3.26282 -1.38731,-5.22161c0.7532,-2.27874 1.75098,-3.73736 3.26435,-5.59177c0.49512,-0.6067 1.837,-1.78409 1.89092,-2.76451c0.12998,-2.36321 -2.17405,-2.15758 -3.13787,-3.53187c-0.36629,-0.52229 -0.09956,-1.27197 -0.14935,-1.90796v-0.69111c0,0 0,-1 1,-1c0.24928,0 0.43642,0.06214 0.57691,0.15544c0.0766,-1.3477 -0.00829,-2.75451 -0.71785,-3.73472l-0.16287,-0.05089c0,0 -0.8,-0.6 -0.2,-1.4zM290.11503,171.1778c0.13364,1.6873 1.06163,2.99454 1.37714,4.65145c0.44326,2.32773 -0.04998,5.06683 0.01248,7.43687c0.06847,2.59759 0.125,5.35997 0.24689,8.13914c0.22301,-4.28424 0.67142,-8.55601 2.24421,-12.48558c-0.31793,-0.45398 -0.04097,-1.00793 -0.04097,-1.00793l0.09443,-0.01896c0.29086,-4.04472 0.09575,-8.06506 -0.10372,-12.0755c-1.30764,1.78475 -3.18886,3.4586 -3.83048,5.3605zM297.272,166.65266c0.37563,-0.57769 1.30355,-1.14172 1.04822,-1.78174c-0.63747,-1.59792 -1.89884,-1.78234 -2.56286,-2.90772c0.08318,2.25403 0.21546,4.5102 0.31171,6.77047c0.20014,-0.61868 0.5571,-1.08777 1.20293,-2.08101zM304.21666,175.92906c-0.18307,-0.56226 -0.53423,-1.01646 -0.9394,-1.44654c-0.21736,0.87453 -0.40027,1.75544 -0.55374,2.6414c0.6272,-0.40966 1.69284,-0.58149 1.49313,-1.19486z" fill="#976d24" stroke-width="0.5"/><path d="M325.46331,207.96797c0.8,0.6 0.2,1.4 0.2,1.4l-0.63139,0.68033c-0.45691,0.22197 -0.86322,0.64391 -1.37072,0.66592c-3.92209,0.17009 -3.87694,-2.54652 -3.49481,-5.27197c-0.4399,-5.80836 -1.2455,-11.70978 -1.23456,-17.5201c0.00645,-3.2296 1.41613,-7.86316 0.63914,-10.92392c-0.70999,-2.79678 -4.37234,-4.72948 -5.15867,-7.68863c-0.69626,-2.62019 0.13377,-5.62355 1.45062,-8.20586c0.29758,-2.28349 0.64724,-4.6169 1.00251,-6.89068c0,0 0.15438,-0.98801 1.14239,-0.83363c0.98801,0.15437 0.83364,1.14239 0.83364,1.14239c-0.15393,0.98513 -0.2301,1.94025 -0.28181,2.89112c0.22458,-0.05054 0.49791,-0.01899 0.79631,0.2131c0.78935,0.61394 0.17541,1.40329 0.17541,1.40329c-0.37495,0.47738 -0.7598,1.02271 -1.12935,1.61525c-0.01364,0.20716 -0.0289,0.41543 -0.04627,0.62507c-0.10557,1.27401 -0.8055,2.02392 -0.88864,3.25884l-0.36131,0.76036c0,0 -0.30984,0.46478 -0.81376,0.46802c-0.19435,1.06794 -0.20241,2.12266 0.06601,3.09012c0.79537,2.86669 4.38294,4.69031 5.10931,7.51588c0.86133,3.35062 -0.52882,8.06628 -0.53553,11.56321c-0.00819,4.02063 0.37899,8.08937 0.76362,12.13848c2.79138,-9.41315 1.6107,-20.04135 -1.3383,-29.19876c0,0 -0.30653,-0.95186 0.64533,-1.25839c0.37178,-0.11972 0.64512,-0.04748 0.84019,0.08505c-0.55552,-1.70651 -1.0834,-3.41936 -1.261,-5.16067c-0.3665,-3.5935 1.5371,-9.02109 -1.10199,-11.86489l-0.30412,-0.64893c0,0 -0.31622,-0.94868 0.63246,-1.26491c0.94869,-0.31623 1.26491,0.63245 1.26491,0.63245l-0.10666,-0.05654c0.69718,0.79282 1.14157,1.66509 1.41615,2.59014c0.11239,-0.26058 0.35266,-0.53268 0.86551,-0.551c0.99937,-0.03569 1.03505,0.96367 1.03505,0.96367c0.10989,3.07927 0.69902,5.8474 1.05409,8.66381c0.00467,-0.37444 0.0072,-0.74927 0.0072,-1.12459v-1.77715c0,0 0,-1 1,-1c1,0 1,1 1,1v1.77715c0,3.08384 -0.16809,6.13437 -0.29775,9.21434c-0.02302,0.54653 -0.04519,1.09289 -0.06655,1.63913c0.16096,0.32605 0.07639,0.62938 -0.03206,0.83607c-0.39328,10.46001 -0.49222,20.87292 -0.49222,31.35697c0,0 0,1 -1,1c-1,0 -1,-1 -1,-1c0,-2.51731 0.0057,-5.03057 0.0198,-7.54136c-0.47584,2.31447 -1.16613,4.56769 -2.10297,6.71839c-0.04228,0.34386 -0.1255,0.7906 -0.20676,1.27104c0.0144,0.18902 0.02841,0.37792 0.04198,0.56671l0.09873,-0.13383c0,0 0.6,0.8 -0.2,1.4c-0.05212,0.0391 -0.10341,0.07225 -0.15373,0.10007c-0.00063,1.21295 0.43165,1.99789 2.14956,0.97898l-0.039,-0.10951c0,0 0.6,-0.8 1.4,-0.2zM323.94705,165.10049c-0.11388,-1.85713 -0.94844,-2.91986 -1.33173,-4.64014c-0.09168,1.3188 -0.16453,2.62853 -0.04353,3.8729c0.14983,1.54087 0.6001,3.07392 1.09737,4.60063c0.16179,-1.20243 0.36216,-2.45902 0.27788,-3.83338zM324.89189,175.07179c-0.12337,-0.15562 -0.23673,-0.31029 -0.34076,-0.46415c-0.07571,0.03562 -0.16214,0.06528 -0.26074,0.08719c-0.36216,0.08048 -0.61981,-0.00326 -0.80066,-0.14044c0.5051,2.0219 0.92282,4.09971 1.23084,6.20472c0.04854,-1.89489 0.10526,-3.79044 0.17132,-5.68732z" fill="#976d24" stroke-width="0.5"/><path d="M310.92163,210.94558c-0.99284,-0.1194 -0.87345,-1.11225 -0.87345,-1.11225l0.13372,-1.10619c0.03952,-0.86906 0.0944,-1.7361 0.15292,-2.60283c-0.40178,1.1065 -0.76972,2.2205 -0.86424,3.41781l0.26532,-0.13085c0,0 0.64018,0.76823 -0.12804,1.40841c-0.76822,0.64019 -1.4084,-0.12804 -1.4084,-0.12804l-0.72198,-1.31561c0.22123,-2.54124 1.54921,-4.67535 1.98909,-7.15412c0.12088,-0.68115 0.21309,-1.36131 0.28452,-2.04083c-1.63243,-4.38819 -3.17863,-8.84405 -2.85168,-13.62022c0.31353,-4.58005 2.66822,-8.98716 3.94083,-13.37382c-0.00805,-2.5832 -0.94386,-4.12148 -1.55279,-6.40882c-0.10035,-0.37693 -0.15012,-0.7653 -0.16304,-1.1608c-0.61264,-0.60601 -0.04904,-1.31051 -0.04904,-1.31051l0.14372,-0.17665c0.18919,-1.34497 0.59718,-2.70971 0.72809,-3.93788l0.09794,-1.07768c0,0 0.01758,-0.19343 0.1225,-0.40204c-0.16755,-2.13076 -0.6171,-3.82307 -1.18545,-6.18694c0,0 -0.23162,-0.9728 0.74118,-1.20442c0.9728,-0.23162 1.20443,0.74119 1.20443,0.74119c0.24829,1.05417 0.59941,2.28802 0.90883,3.59032c0.4592,-0.96767 0.96926,-1.85726 1.39122,-2.84209c-0.29802,-1.28539 -0.51567,-2.56017 -0.79509,-3.86138l-0.19798,-0.07849c0,0 -0.6247,-0.78087 0.15617,-1.40556c0.78087,-0.6247 1.40557,0.15618 1.40557,0.15618l0.59186,0.90881c0.10271,0.48027 0.19663,0.95693 0.28943,1.4318c0.48557,0.18382 0.60112,0.74974 0.60112,0.74974l0.25594,1.42347c-0.0776,0.24079 -0.15954,0.47327 -0.24493,0.69933c0.02438,0.09692 0.04937,0.19393 0.07501,0.29103c0,0 0.2545,0.96707 -0.71258,1.22156c-0.00385,0.00101 -0.00768,0.002 -0.01151,0.00298c-0.4629,0.98849 -0.95684,1.93356 -1.38432,3.04542c0,0 -0.26893,0.69153 -0.93915,0.6516c0.39634,2.57012 0.32328,5.1465 -1.22898,6.9521c-0.01581,0.43943 0.01761,0.85973 0.1265,1.24506c0.71892,2.54406 1.61346,4.35291 1.6066,7.21599c-1.19108,4.34498 -3.62282,8.72868 -3.92667,13.23611c-0.19063,2.82797 0.32997,5.54616 1.12962,8.20344c0.07135,-2.94256 0.13518,-5.88992 0.83274,-8.87038c0,0 0.22788,-0.97369 1.20157,-0.74581c0.04868,0.01139 0.09436,0.02465 0.1372,0.03956c-0.12519,-1.813 -0.08661,-3.77524 0.94741,-4.94752c0.82927,-0.94015 2.87185,-1.86547 4.03375,-2.49976l0.22035,-0.15161c0,0 0.83205,-0.5547 1.38675,0.27735c0.5547,0.83205 -0.27735,1.38675 -0.27735,1.38675l-0.37204,0.24331c-1.00317,0.5467 -2.6763,1.26193 -3.46977,2.04184c-1.08008,1.06161 -0.33225,4.75477 -0.26226,6.08829c0.31473,5.99649 2.85607,11.80644 2.87095,17.74795c0,0 0,1 -1,1c-1,0 -1,-1 -1,-1c0.01644,-5.70351 -2.40535,-11.35534 -2.83474,-17.11823c-0.58941,3.86166 -0.32858,7.67932 -0.66084,11.51852c0.30174,0.80061 0.60388,1.5984 0.89378,2.39479c0,0 0.207,0.56924 -0.14423,0.98277c-0.11151,1.87006 -0.26656,3.73279 -0.35264,5.60465l-0.14119,1.17979c0,0 -0.1194,0.99284 -1.11225,0.87344z" fill="#976d24" stroke-width="0.5"/><path d="M298.63247,151.69752c-0.05986,0.1313 -0.44313,0.87709 -1.29145,0.53776c-0.92847,-0.37139 -0.55709,-1.29987 -0.55709,-1.29987l0.97388,-1.11064c0.51641,-0.06753 1.04419,-0.32975 1.54924,-0.2026c4.52718,1.13969 0.46284,4.49143 0.0877,7.3457c0,0 -0.13216,0.99123 -1.12339,0.85907c-0.99123,-0.13216 -0.85907,-1.1234 -0.85907,-1.1234c0.12451,-0.92194 0.23776,-2.36193 0.69829,-3.196c0.88251,-1.59832 2.3564,-2.1256 0.52188,-1.81003z" fill="#976d24" stroke-width="0.5"/><path d="M308.49278,174.84646c0.27709,0.09299 0.77841,0.3632 0.67502,1.08694c-0.14142,0.98995 -1.13137,0.84853 -1.13137,0.84853l-1.54775,-1.0263c-0.09924,-1.69128 0.83222,-3.30362 0.66565,-4.78833c-0.34395,-3.06575 -1.78134,-5.81674 -2.04683,-8.92016c-0.10474,-1.22441 1.02289,-4.74325 0.38378,-4.84757c0,0 -0.8575,-0.51449 -0.343,-1.37199c0.5145,-0.8575 1.37199,-0.343 1.37199,-0.343c2.47659,1.92276 0.32638,3.68654 0.58123,6.40771c0.2902,3.09855 1.82513,5.87634 2.04977,8.96439c0.10706,1.4717 -0.53769,2.57158 -0.6585,3.98978z" fill="#976d24" stroke-width="0.5"/><path d="M332.12629,212.73005c0.09609,0.21116 0.12105,0.48759 -0.0498,0.82928c-0.44722,0.89443 -1.34164,0.44721 -1.34164,0.44721l-0.72167,-1.72512c2.57524,-3.06215 0.49327,-8.34994 -0.01905,-11.86652c-0.6519,-4.47473 -0.38085,-9.10777 -0.60073,-13.61511c0,0 -0.04872,-0.99881 0.95009,-1.04754c0.02711,-0.00132 0.05351,-0.00188 0.07923,-0.0017c-0.04321,-0.15985 -0.04321,-0.28299 -0.04321,-0.28299v-0.69111c0.01024,-10.3771 -1.49845,-20.28009 0.71331,-30.61854c0,0 0.00876,-0.04089 0.03107,-0.10416c-0.1351,0.07837 -0.30939,0.12893 -0.53422,0.12893c-1,0 -1,-1 -1,-1v-0.29619c0.03883,-0.51767 -0.25345,-2.04342 -0.30623,-1.52698c-0.26405,2.58378 -0.16893,5.60362 0.49616,8.08489c0,0 0.2545,0.96707 -0.71258,1.22157c-0.96708,0.25449 -1.22156,-0.71258 -1.22156,-0.71258c-0.59649,-2.30405 -0.53131,-4.39793 -0.52658,-6.77071c0.00186,-0.93288 -0.09485,-2.65774 0.62781,-3.31081c2.5,-2.25929 3.58117,1.61343 3.64299,3.01462v0.29619c0,0 0,0.13874 -0.05167,0.31286c0.17588,-0.11372 0.41638,-0.17571 0.74217,-0.1059c0.9778,0.20953 0.76827,1.18733 0.76827,1.18733c-2.18642,10.18591 -0.67819,19.97182 -0.66891,30.19948v0.69111c0,0 0,1 -1,1c-0.01067,0 -0.02123,-0.00011 -0.03167,-0.00034c0.0383,0.13514 0.04318,0.23511 0.04318,0.23511c0.21684,4.44515 -0.06107,9.02458 0.58403,13.43705c0.5866,4.0123 2.33139,8.89739 0.15122,12.59065z" fill="#976d24" stroke-width="0.5"/><path d="M336.86199,185.37469c-0.89443,0.44721 -1.34164,-0.44721 -1.34164,-0.44721l-0.17546,-0.40623c-0.44322,-1.8057 -0.9967,-3.51167 -1.11306,-5.38548c-0.10396,-1.67403 0.66129,-4.29781 0.22229,-5.87892c-0.91573,-3.29806 -2.25256,-5.83076 -2.06739,-9.44235c0.12182,-2.3761 0.40117,-4.60083 2.20542,-5.6713c-0.17255,-1.70745 0.01686,-3.30474 1.85523,-4.92325l-0.43526,-0.13522c0,0 -0.0995,-0.99504 0.89553,-1.09454c0.99503,-0.0995 1.09454,0.89553 1.09454,0.89553l-0.23781,1.83938c-0.9835,0.85438 -1.29785,1.85251 -1.32346,2.93634c0.27974,0.07896 0.59797,0.2874 0.66889,0.81925c0.07907,0.59298 -0.24391,0.87852 -0.5162,1.01225c0.21625,1.42679 0.55697,2.9356 0.3139,4.4183c0,0 -0.1644,0.98639 -1.15079,0.82199c-0.9864,-0.1644 -0.822,-1.15079 -0.822,-1.15079c0.18128,-1.06761 0.11937,-2.07043 -0.00338,-3.02705c-0.71308,1.41203 -0.66972,4.02098 -0.58,5.1903c0.20353,2.65259 1.44311,4.60185 2.04947,7.05249c0.4538,1.83409 -0.28442,4.30698 -0.17263,6.21698c0.1021,1.74437 0.64599,3.34749 1.05901,5.02918l0.022,-0.01131c0,0 0.44721,0.89443 -0.44722,1.34164z" fill="#976d24" stroke-width="0.5"/><path d="M340.66019,182.51835c-0.80662,0 -0.9626,-0.65065 -0.99277,-0.90229c-1.48201,-2.52384 -0.4742,-4.8048 -0.20192,-7.57689c0.21513,-2.19016 -0.54944,-4.42021 -0.29012,-6.67323c0.18867,-1.63923 1.35798,-2.87483 1.74996,-4.39381c0.7899,-3.06101 0.31547,-6.93976 0.31454,-10.08564c0,0 0,-1 1,-1c1,0 1,1 1,1c-0.00095,3.35701 0.44267,7.39864 -0.40028,10.66494c-0.36436,1.41184 -1.5282,2.57043 -1.68191,4.07984c-0.22608,2.22004 0.49803,4.38153 0.30226,6.55666c-0.20511,2.27898 -1.38178,4.52117 0.03228,6.57825l0.16795,0.75217c0,0 0,1 -1,1z" fill="#976d24" stroke-width="0.5"/><path d="M348.1219,167.13204c0.14796,-0.45333 0.84163,-0.61712 0.93198,-1.08534c0.08066,-0.418 -0.43129,-0.75629 -0.49538,-1.17715c-0.28394,-1.86434 -0.13278,-4.35867 -0.00889,-6.24354c0.17994,-2.7375 0.95324,-5.55222 1.39132,-8.26828c0,0 0.15924,-0.98724 1.14648,-0.82801c0.98724,0.15923 0.82801,1.14647 0.82801,1.14647c-0.42962,2.66361 -1.20286,5.43744 -1.37314,8.12099c-0.11262,1.77481 -0.23895,3.99417 -0.00888,5.75646c0.08177,0.62631 0.59553,1.20683 0.49192,1.82989c-0.2938,1.76668 -1.76834,1.75558 -0.76634,3.7622l-0.15927,1.32214c0,0 -0.14274,0.42823 -0.52413,0.61337c0.17218,0.51692 0.25259,1.09618 0.19151,1.78155c-0.17104,1.91912 -1.69764,3.56208 -1.88907,5.56886c-0.4192,4.39455 1.48101,7.45866 3.48501,11.19353c1.28854,4.75547 0.99115,9.72222 0.9449,14.61245l0.34988,0.9178c0,0 0.34175,0.93979 -0.59805,1.28153c-0.9398,0.34175 -1.28154,-0.59805 -1.28154,-0.59805l-0.43996,-1.25428c-0.03673,-4.72385 0.39694,-9.61525 -0.83226,-14.21686c-0.74678,-1.3529 -1.45965,-2.64281 -2.05646,-3.94127c0.55494,5.50474 1.02306,10.79861 1.02306,16.43316c-0.00511,2.97823 1.6373,5.64777 0.40402,8.48149l0.08963,-0.11761c0,0 0,1 -1,1c-1,0 -1,-1 -1,-1l0.08963,-0.71c1.08046,-2.23832 -0.5795,-5.1874 -0.58328,-7.65389c0,-6.43287 -0.61806,-12.39551 -1.27168,-18.76877c-0.0029,-0.02835 -0.0058,-0.05669 -0.00868,-0.08504c-1.16372,7.43657 -0.57909,14.67833 -0.17556,22.15576l0.00035,1.31016c0,0 0,1 -1,1c-1,0 -1,-1 -1,-1l0.00036,-1.25683c-0.29271,-5.55049 -0.68183,-10.96586 -0.4111,-16.42695c-0.10537,0.94926 -0.19519,1.89958 -0.24403,2.85406c-0.10739,2.09859 0.25317,4.53113 -0.12259,6.5978c-0.36072,1.98394 -2.0912,2.69274 -3.12733,4.03722c0.05883,3.79074 0.1368,7.83219 -1.64128,11.1482l-2.5506,-1.05632c0,0 -0.86194,-0.50702 -0.35492,-1.36895c0.50702,-0.86193 1.36896,-0.35491 1.36896,-0.35491l0.73266,0.83449c-0.30539,-0.42038 -0.27078,-1.41357 -0.13606,-2.48619c-0.16165,-0.21627 -0.20832,-0.44962 -0.20832,-0.44962l-0.11814,-0.68977c0.00016,-1.84306 -0.15185,-3.81909 0.59281,-5.56815c0.08848,-0.20782 0.20628,-0.40374 0.34505,-0.59112c0.11969,-4.07077 0.30493,-8.0492 0.9501,-12.16212c0,0 0.15497,-0.98792 1.14289,-0.83295c0.98792,0.15497 0.83295,1.14289 0.83295,1.14289c-0.5322,3.39273 -0.93041,6.56482 -0.97168,9.97501c0.58788,-0.55384 1.07391,-1.14769 1.16875,-1.89807c0.62264,-4.92662 0.66482,-10.21976 0.97634,-15.20543c0,0 0.06238,-0.99805 1.06043,-0.93567c0.70824,0.04426 0.88249,0.5597 0.92396,0.85531c0.0324,-0.20566 0.06612,-0.41146 0.10118,-0.61745c0,0 0.1678,-0.98583 1.15362,-0.81803c0.26132,0.04448 0.44158,0.14643 0.56538,0.27228c-0.36861,-4.12044 -0.59251,-8.23636 -1.6046,-12.27381c0,0 -0.24254,-0.97014 0.72761,-1.21267c0.97015,-0.24254 1.21268,0.7276 1.21268,0.7276c0.53145,2.13125 0.85289,4.281 1.09185,6.44133c0.49524,-1.17324 1.13678,-2.27405 1.30469,-3.5049c0.32225,-2.36225 -2.92766,-4.44102 -3.3642,-6.81367c-0.50308,-2.73433 0.27517,-5.09864 1.19946,-7.56467c-1.02049,-1.28321 -1.93848,-2.98667 -1.34846,-4.66094c0.3508,-0.99547 1.01415,-1.97599 0.92661,-3.02783l-0.08226,-0.37423c0,0 -0.19611,-0.98058 0.78447,-1.17669c0.98058,-0.19611 1.17669,0.78446 1.17669,0.78446l0.11521,0.61307c0.20936,2.91971 -1.96583,4.26131 0.05306,6.68899c0.44173,0.20952 0.54232,0.56444 0.54323,0.84187c0.0453,0.22063 0.0207,0.48727 -0.19774,0.7519c-0.99961,2.64013 -2.0919,5.64725 -0.61762,8.36252c0.24367,0.44878 0.52603,0.84999 0.81602,1.23096c-0.09764,-0.51807 -0.01552,-1.08619 0.33879,-2.17178z" fill="#976d24" stroke-width="0.5"/><path d="M314.04802,214.08226c-0.97015,0.24254 -1.21267,-0.72761 -1.21267,-0.72761l-0.12859,-0.6387c0.00241,-1.89889 0.0835,-3.50403 0.52085,-5.36436c0,0 0.23163,-0.97281 1.20443,-0.74119c0.9728,0.23162 0.74119,1.20443 0.74119,1.20443c-0.41168,1.70503 -0.46432,3.16242 -0.46646,4.90361l0.06887,0.15114c0,0 0.24254,0.97014 -0.72761,1.21267z" fill="#976d24" stroke-width="0.5"/><path d="M293.99638,193.51123c0.23428,0.08848 0.83486,0.39675 0.63822,1.18336c-0.24253,0.97015 -1.21268,0.72761 -1.21268,0.72761l-1.06275,-0.65507c-1.938,-4.28212 -0.5744,-8.25174 -0.57772,-12.64974c-0.63074,-2.87787 -1.75939,-5.40548 -1.65671,-8.42219c0.12964,-3.80875 1.65142,-6.99743 1.4963,-10.84043c-0.18739,-4.64266 -1.49827,-8.88672 0.65534,-13.27867c0,0 0.44721,-0.89443 1.34164,-0.44721c0.89443,0.44721 0.44721,1.34164 0.44721,1.34164c-2.01173,3.9315 -0.62307,8.12165 -0.4459,12.3015c0.1661,3.91852 -1.36479,7.14365 -1.49574,10.99121c-0.09815,2.88377 1.06347,5.37181 1.64673,8.14339c-0.0023,3.97418 -1.31427,7.76062 0.22607,11.60461z" fill="#b9862c" stroke-width="0.5"/><path d="M295.91638,212.73899c-0.91037,-0.4138 -0.49656,-1.32417 -0.49656,-1.32417l0.50147,-1.10281c1.16441,-2.32903 2.85118,-4.46311 3.27182,-7.106c0.28388,-1.78363 0.13873,-3.84906 0.15463,-5.74804c-0.13015,0.64239 -0.59166,1.25001 -1.72244,2.20119l-1.1775,0.54106c0,0 -0.91036,0.4138 -1.32417,-0.49657c-0.41381,-0.91037 0.49656,-1.32417 0.49656,-1.32417l0.99457,-0.44625c1.5992,-0.85608 0.53858,-2.00313 0.31684,-3.8647c0.39432,-3.53067 1.4292,-7.03822 1.7585,-10.55522c0.15146,-1.61769 -0.49456,-3.1402 -0.49672,-4.76057c-0.00763,-5.70987 0.26513,-11.40887 1.50477,-16.99997c0,0 0.21693,-0.97619 1.19311,-0.75926c0.40467,0.08992 0.60431,0.31033 0.69937,0.53757c0.3151,-1.4809 0.67593,-2.90986 0.92865,-4.13018c0.11256,-0.54353 0.17521,-1.00794 0.24358,-1.42614c-0.01325,-0.05167 -0.01782,-0.08366 -0.01782,-0.08366c-0.06783,-0.53782 -0.13565,-1.07564 -0.20348,-1.61346l0.13015,-0.19879l-0.08287,-0.02763l0.62516,-1.87549c0.12567,-0.40863 0.50613,-0.70565 0.95597,-0.70565c0.55228,0 1,0.44771 1,1c0,0.02868 -0.0012,0.05708 -0.00357,0.08515l-0.14814,1.98377l-0.4103,-0.03064c-0.00385,0.10288 -0.00877,0.20571 -0.01468,0.30848c0.04388,0.2638 0.08776,0.52761 0.13164,0.79142c0,0 0.08127,0.56886 -0.31063,0.90574c-0.57624,3.89873 -2.12732,7.73182 -1.37248,11.60342c0.49748,2.55158 3.93824,5.36495 3.45983,8.01638c-0.24025,1.33152 -1.3902,2.34548 -1.81849,3.62893c-0.70108,2.10093 -0.34326,5.01922 -0.3431,7.21119v0.66573c0,0 0,1 -1,1c-1,0 -1,-1 -1,-1v-0.66573c0.00018,-2.44538 -0.31696,-5.49876 0.44674,-7.84663c0.17214,-0.52922 1.55675,-2.61692 1.73581,-3.28221c0.19576,-0.72735 -1.04696,-2.12161 -1.17058,-2.33635c-0.78154,-1.35761 -1.99626,-3.54952 -2.28073,-5.04924c-0.16696,-0.88022 -0.18533,-1.86207 -0.11024,-2.88939c-0.85546,4.66054 -1.38803,9.82127 -0.7734,14.26173c0.17688,1.27788 0.60424,2.5527 0.4963,3.83823c-0.28995,3.45323 -1.34313,6.93207 -1.75236,10.39199c0.14497,1.16964 0.36445,1.94765 0.43491,2.58438c0.00375,-0.09235 0.00812,-0.18412 0.01319,-0.27525c0,0 0.05547,-0.99846 1.05393,-0.94299c0.99846,0.05547 0.94299,1.05393 0.94299,1.05393c-0.12426,2.23673 0.14105,4.84294 -0.20835,7.03824c-0.45588,2.86427 -2.18328,5.13588 -3.44186,7.6528l-0.48584,1.06926c0,0 -0.4138,0.91037 -1.32417,0.49657z" fill="#b9862c" stroke-width="0.5"/><path d="M296.52765,189.52821c-1,0 -1,-1 -1,-1v-0.07334c0.00196,-1.19653 0.80615,-3.83545 0.52314,-4.91833c-0.34881,-1.33466 -1.71321,-2.96338 -2.14803,-4.40912c-1.70457,-5.6676 -0.29208,-11.66495 3.3306,-16.11098c0,0 0.63167,-0.77524 1.40691,-0.14356c0.77524,0.63168 0.14356,1.40691 0.14356,1.40691c-3.19295,3.91862 -4.51501,9.23889 -2.96757,14.26584c0.44236,1.43705 1.86456,3.14145 2.17554,4.50881c0.32817,1.44295 -0.46687,3.87821 -0.46416,5.40043v0.07334c0,0 0,1 -1,1z" fill="#b9862c" stroke-width="0.5"/><path d="M313.08216,190.41457c-0.99779,0.06652 -1.0643,-0.93126 -1.0643,-0.93126l-0.09924,-1.48925c-0.14992,-3.00916 0.46363,-6.07704 0.20013,-9.04809c-0.60843,-6.86033 -2.02567,-13.67771 -2.56826,-20.5506c0,0 -0.0787,-0.9969 0.9182,-1.0756c0.9969,-0.0787 1.0756,0.91819 1.0756,0.91819c0.54167,6.86113 1.97744,13.67083 2.56573,20.5213c0.2582,3.00672 -0.34729,6.07946 -0.19479,9.11833l0.09821,1.47267c0,0 0.06652,0.99778 -0.93126,1.0643z" fill="#b9862c" stroke-width="0.5"/><path d="M325.53843,212.04207c-0.18642,-0.18642 -0.27454,-0.37285 -0.30325,-0.54631c-0.86847,-0.95964 -1.63358,-1.77139 -1.86281,-3.24643c-0.11959,-0.76954 0.7193,-1.49125 0.59326,-2.25976c-0.25117,-1.53155 -1.07707,-2.93694 -1.1863,-4.56213c-0.15927,-2.36949 0.47446,-4.58992 1.19851,-6.79029c-0.54784,0.19072 -1.00641,-0.26784 -1.00641,-0.26784l-0.44972,-0.6224c-0.60715,-2.15958 -0.60373,-3.84915 0.47895,-5.89966c0.41708,-0.78991 1.18805,-1.30543 1.35813,-2.24266c0.12791,-0.70486 -0.64647,-1.29982 -0.77474,-2.00462c-0.01742,-0.09569 -0.20981,-4.00053 -0.2141,-4.17883c-0.10685,-4.43548 0.02341,-8.88668 0.09858,-13.3217c0,0 0.01695,-0.99985 1.0168,-0.98291c0.99986,0.01694 0.98291,1.0168 0.98291,1.0168c-0.0747,4.40763 -0.20507,8.83154 -0.09887,13.23964c0.03063,1.27154 -0.05445,2.56014 0.17112,3.81189c0.1372,0.76132 0.93014,1.71345 0.81464,2.54062c-0.43529,3.11748 -2.99553,3.98035 -1.91468,7.4571l-0.0548,-0.22748c0,0 0.06259,0.06258 0.1319,0.16913c0.16046,-0.25859 0.5129,-0.62496 1.15564,-0.41071c0.94869,0.31623 0.63245,1.26491 0.63245,1.26491c-0.79183,2.37547 -1.70395,4.75618 -1.53043,7.32049c0.10586,1.56445 1.01866,3.01911 1.18323,4.52108c0.08558,0.78108 -0.7043,1.50423 -0.5915,2.28186c0.12667,0.87334 1.19948,1.88388 1.72624,2.47171l-0.14053,1.4685c0,0 -0.70711,0.70711 -1.41421,0z" fill="#b9862c" stroke-width="0.5"/><path d="M327.90796,182.12672c-0.46351,-0.46351 -0.31936,-0.92703 -0.16503,-1.19137c0.16759,-1.95737 0.37037,-4.05634 0.36617,-6.00438c-0.00482,-2.23371 -1.29141,-4.45199 -1.70913,-6.61566c-0.89265,-4.6237 -0.85825,-9.46162 -0.85825,-14.14533c0,0 0,-1 1,-1c1,0 1,1 1,1c0,4.55613 -0.04639,9.26826 0.82199,13.76621c0.44482,2.30401 1.71754,4.55713 1.74463,6.93963c0.02396,2.10819 -0.22419,4.4246 -0.39799,6.5281l-0.38817,0.7228c0,0 -0.70711,0.70711 -1.41422,0z" fill="#b9862c" stroke-width="0.5"/><path d="M317.15088,178.10997c0.00389,0.15785 0.01111,0.31736 0.02193,0.47868zM317.1476,177.89315c0.08501,0.02669 0.94124,0.32004 0.68006,1.23419c-0.27472,0.96152 -1.23624,0.6868 -1.23624,0.6868l-1.41418,-1.09247c-0.13579,-2.04813 -0.12676,-4.1444 0.33539,-6.16263c0.28916,-1.26276 1.11955,-2.38774 1.26372,-3.67514c0.04235,-0.37815 -0.48159,-3.37473 -0.51054,-3.65746c-0.45648,-4.45856 -0.74236,-9.55327 0.42541,-13.88657c0,0 0.26312,-0.96476 1.22788,-0.70165c0.96476,0.26311 0.70164,1.22788 0.70164,1.22788c-1.12462,4.06936 -0.79727,8.97648 -0.36444,13.16559c0.09855,0.95387 0.60565,3.17553 0.50797,4.07153c-0.33873,3.10727 -1.63469,5.62185 -1.61668,8.78991z" fill="#b9862c" stroke-width="0.5"/><path d="M334.38918,175.416c0.1295,0.15067 0.58256,0.76497 -0.03175,1.37927c-0.70711,0.70711 -1.41422,0 -1.41422,0l-0.30062,-0.38903c-3.4713,-7.64891 0.58063,-16.90051 -1.05889,-24.80459c0,0 -0.19611,-0.98058 0.78447,-1.17669c0.98058,-0.19611 1.1767,0.78447 1.1767,0.78447c1.47145,7.58146 -2.41089,16.93882 0.84431,24.20658z" fill="#b9862c" stroke-width="0.5"/><path d="M343.02973,175.21229c-1,0 -1,-1 -1,-1v-0.19747c0.01434,-2.7896 1.41057,-5.29911 1.61885,-8.03772c0.29361,-3.86043 -0.76369,-8.80092 -1.78107,-12.53131c0,0 -0.26312,-0.96476 0.70164,-1.22788c0.96476,-0.26311 1.22788,0.70165 1.22788,0.70165c1.07608,3.9456 2.13809,9.10681 1.84618,13.204c-0.19149,2.68767 -1.63048,5.17181 -1.61348,7.89125v0.19747c0,0 0,1 -1,1z" fill="#b9862c" stroke-width="0.5"/><path d="M350.97461,173.32956c-0.89443,-0.44721 -0.44721,-1.34164 -0.44721,-1.34164l0.28266,-0.56423c0.89066,-1.86303 0.52546,-3.71151 0.59994,-5.74379c0.13772,-3.75773 0.32158,-6.46366 -0.84236,-10.12068c0,0 -0.3032,-0.95292 0.64972,-1.25613c0.95292,-0.3032 1.25613,0.64972 1.25613,0.64972c1.2341,3.87974 1.07964,6.83203 0.93478,10.8102c-0.08582,2.35706 0.20416,4.3014 -0.78229,6.4988l-0.30973,0.62053c0,0 -0.44721,0.89443 -1.34164,0.44721z" fill="#b9862c" stroke-width="0.5"/><path d="M347.28956,214.19014c-0.48564,-0.87416 0.38851,-1.3598 0.38851,-1.3598l0.50932,-0.12144c-0.23309,-1.26004 -0.30236,-2.5367 -0.44941,-3.80892c-0.27747,-2.05013 -1.07325,-3.50421 -1.5393,-5.45107c-0.73201,-3.05787 0.80313,-6.39561 0.88307,-9.4075c0.03483,-1.31225 -0.43332,-2.59688 -0.48024,-3.90875c-0.18324,-5.12276 0.5556,-10.4587 2.30083,-15.27481c0,0 0.34175,-0.9398 1.28154,-0.59805c0.9398,0.34175 0.59805,1.28153 0.59805,1.28153c-1.66699,4.56686 -2.35553,9.6602 -2.1817,14.51984c0.02214,0.61895 0.49498,3.49951 0.48081,4.03331c-0.07391,2.78484 -1.65542,6.12756 -0.9269,8.93473c0.51141,1.97062 1.28069,3.52738 1.56815,5.62085c0.19955,1.72702 0.30133,3.32353 0.1949,5.06274l-1.26783,0.86586c0,0 -0.87416,0.48564 -1.3598,-0.38851z" fill="#b9862c" stroke-width="0.5"/><path d="M340.30559,213.27899c-0.75925,-0.65079 -0.10846,-1.41004 -0.10846,-1.41004l0.38812,0.22732c-0.43719,-1.60262 -0.53029,-2.63307 -0.52979,-4.24316c0.10523,-1.76794 0.78101,-2.82461 0.99808,-4.46655c0.37998,-2.87421 -0.87013,-5.96749 -0.94648,-8.85859c-0.16516,-6.2534 0.14552,-12.48562 0.14552,-18.73599c0,0 0,-1 1,-1c1,0 1,1 1,1c0,1.13546 -0.02178,2.27691 -0.05485,3.42226c0.13127,-0.05668 0.29309,-0.08765 0.49255,-0.07657c0.99846,0.05547 0.94299,1.05393 0.94299,1.05393c-0.53876,9.65939 -1.27282,19.29802 0.70488,28.755c0.0865,0.21818 0.0865,0.41377 0.0865,0.41377l-1.9778,0.30826c-0.13905,-0.65248 -0.26558,-1.30561 -0.38048,-1.95937c-0.00477,0.06432 -0.00865,0.12978 -0.01159,0.19645c0.00047,1.42951 0.05237,2.22651 0.45752,3.65528l-0.79665,1.60955c0,0 -0.6508,0.75925 -1.41005,0.10846z" fill="#b9862c" stroke-width="0.5"/><path d="M331.03104,208.28017c-0.89443,-0.44721 -0.44722,-1.34164 -0.44722,-1.34164l-0.00339,0.16671c0.5836,-6.9401 0.88862,-14.3743 0.88512,-21.34148c0,0 0,-1 1,-1c1,0 1,1 1,1c-0.00338,7.027 -0.31354,14.5064 -0.89202,21.50757l-0.20085,0.56163c0,0 -0.44721,0.89443 -1.34164,0.44721z" fill="#b9862c" stroke-width="0.5"/><path d="M315.7641,212.437c-0.64963,-0.64963 -0.1056,-1.29927 -0.01287,-1.40059c0.18984,-0.78389 0.5461,-1.52818 0.71832,-2.31784c0.22873,-1.04881 -0.9643,-2.93368 -1.08208,-3.76646c-0.61913,-4.37763 0.64214,-9.3025 1.69328,-13.50706c0,0 0.24253,-0.97014 1.21268,-0.72761c0.97015,0.24254 0.72761,1.21268 0.72761,1.21268c-0.98768,3.95072 -2.23503,8.62856 -1.65327,12.74191c0.21913,1.54936 1.34946,2.67997 1.07971,4.3428c-0.14927,0.92017 -0.64404,1.76167 -0.79242,2.68199l-0.47674,0.74017c0,0 -0.70711,0.70711 -1.41422,0z" fill="#b9862c" stroke-width="0.5"/><path d="M308.22429,209.36621c-0.89443,-0.44721 -0.44722,-1.34164 -0.44722,-1.34164l0.4502,-0.88704c1.48934,-5.91869 -1.91766,-10.9476 -1.64042,-16.68727c0,0 0.05255,-0.99861 1.05118,-0.94605c0.99862,0.05256 0.94606,1.05118 0.94606,1.05118c-0.15812,2.74444 0.75405,4.62679 1.53464,7.14978c0.87799,2.83778 0.69567,7.26811 -0.01569,10.12626l-0.53711,1.08757c0,0 -0.44721,0.89443 -1.34164,0.44721z" fill="#b9862c" stroke-width="0.5"/><path d="M295.10774,215.32639c-0.83205,0.5547 -1.38675,-0.27735 -1.38675,-0.27735l-0.56287,-1.14709c0.08876,-0.23426 0.46359,-0.54843 0.26628,-0.70277c-0.27922,-0.21841 -0.75151,0.25568 -1.06035,0.08165c-1.09669,-0.61799 -1.77637,-1.92052 -2.10425,-3.1359c-0.69886,-2.59055 0.91875,-6.3121 1.65699,-8.77291c0,0 0.28735,-0.95783 1.24518,-0.67048c0.95783,0.28735 0.67048,1.24517 0.67048,1.24517c-0.59927,1.99758 -2.24768,5.56571 -1.64515,7.66458c0.21048,0.73319 0.50926,1.62173 1.19789,1.94986c0.4611,0.21971 1.19827,-0.12804 1.50666,0.27912c0.41838,0.55238 0.17752,1.37445 0.26628,2.06167l0.22697,0.03769c0,0 0.5547,0.83205 -0.27735,1.38675z" fill="#b9862c" stroke-width="0.5"/><path d="M306.21148,213.79782c0.23377,0.17706 0.61943,0.59122 0.29381,1.24247c-0.44722,0.89443 -1.34164,0.44721 -1.34164,0.44721l-0.67872,-0.62177c-0.62295,-1.79021 0.51388,-2.36892 0.42554,-3.94194c-0.14992,-2.66929 -1.20087,-4.12779 -0.35833,-7.07615c0,0 0.28,-0.96 1.24,-0.68c0.96,0.28 0.68,1.24 0.68,1.24c-0.81437,2.72764 0.34152,3.88294 0.43151,6.35119c0.04816,1.3208 -1.00261,1.9631 -0.69216,3.03899z" fill="#b9862c" stroke-width="0.5"/><path d="M319.01817,216.03541c-0.94869,-0.31623 -0.63245,-1.26491 -0.63245,-1.26491l0.30412,-0.64893c1.55797,-1.59207 0.96026,-5.22411 1.33777,-7.40082c0,0 0.17134,-0.98521 1.15655,-0.81387c0.98521,0.17134 0.81387,1.15655 0.81387,1.15655c-0.50104,2.87265 0.12125,6.11762 -1.8216,8.39606l0.10666,-0.05654c0,0 -0.31622,0.94868 -1.26491,0.63245z" fill="#b9862c" stroke-width="0.5"/><path d="M329.42967,212.90481c0.1651,0.19955 0.27476,0.49642 0.13408,0.91846c-0.31623,0.94869 -1.26491,0.63246 -1.26491,0.63246l-0.96383,-1.2263c0.35748,-1.9425 0.77371,-3.45229 0.77371,-5.44876c0,0 0,-1 1,-1c1,0 1,1 1,1c0,1.87654 -0.34435,3.37665 -0.67905,5.12414z" fill="#b9862c" stroke-width="0.5"/><path d="M338.38939,215.19815c-1,0 -1,-1 -1,-1v-0.9873c0.00104,-2.20664 -0.09873,-4.40551 -0.09873,-6.61495c0,0 0,-1 1,-1c1,0 1,1 1,1c0,2.20972 0.09774,4.40777 0.09873,6.61495v0.9873c0,0 0,1 -1,1z" fill="#b9862c" stroke-width="0.5"/><path d="M337.68706,161.79747c-0.91381,-0.40614 -0.50767,-1.31995 -0.50767,-1.31995l0.30873,-0.48244c0,-3.20324 0.28567,-6.11392 0.80345,-9.24761c0,0 0.1644,-0.98639 1.15079,-0.82199c0.98639,0.1644 0.82199,1.15079 0.82199,1.15079c-0.50792,3.02382 -0.77624,5.82443 -0.77624,8.91881l-0.48111,1.29471c0,0 -0.40614,0.91381 -1.31995,0.50767z" fill="#b9862c" stroke-width="0.5"/><path d="M323.26762,158.72758c-0.70711,-0.70711 0,-1.41421 0,-1.41421l0.21395,-0.20303c1.45978,-0.03708 -0.61577,0.05932 -0.84676,-0.33426c-0.52476,-0.89412 0.10319,-3.68356 0.25124,-4.72214c0,0 0.14142,-0.98995 1.13137,-0.84853c0.98995,0.14142 0.84853,1.13137 0.84853,1.13137c-0.03421,0.23896 -0.65492,3.22413 -0.53861,3.37377c0.37193,0.47848 1.43706,0.27985 1.59988,0.8636c0.17603,0.6311 -0.57797,1.17604 -0.86695,1.76406l-0.37844,0.38936c0,0 -0.70711,0.70711 -1.41421,0z" fill="#b9862c" stroke-width="0.5"/><path d="M307.83896,156.54216c-0.98995,-0.14142 -0.84853,-1.13137 -0.84853,-1.13137l0.1081,-0.74581c0.3317,-1.62622 0.79307,-2.67607 1.95189,-3.86783c0,0 0.70711,-0.70711 1.41421,0c0.70711,0.70711 0,1.41421 0,1.41421c-0.91095,0.87637 -1.16502,1.61704 -1.40495,2.84585l-0.08936,0.63642c0,0 -0.14142,0.98995 -1.13137,0.84853z" fill="#b9862c" stroke-width="0.5"/><path d="M297.41622,156.45348c-1,0 -1,-1 -1,-1l0.0106,-1.32998c0.41969,-1.44006 0.69184,-2.24964 1.81185,-3.27309c0,0 0.75258,-0.6585 1.41108,0.09407c0.6585,0.75258 -0.09407,1.41108 -0.09407,1.41108c-0.77852,0.63596 -0.85434,1.11202 -1.15006,2.05836l0.0106,1.03955c0,0 0,1 -1,1z" fill="#b9862c" stroke-width="0.5"/></g></g></g></svg>