<svg version="1.1" xmlns="http://www.w3.org/2000/svg" xmlns:xlink="http://www.w3.org/1999/xlink" width="93.91348" height="93.31266" viewBox="0,0,93.91348,93.31266"><g transform="translate(-274.24878,-126.75117)"><g data-paper-data="{&quot;isPaintingLayer&quot;:true}" fill-rule="nonzero" stroke="none" stroke-linecap="butt" stroke-linejoin="miter" stroke-miterlimit="10" stroke-dasharray="" stroke-dashoffset="0" style="mix-blend-mode: normal"><path d="M308.26591,196.53538c0,0 -1.65563,-19.85247 -2.40662,-31.15908c1.57515,0.81106 3.54837,1.29441 4.69443,1.29441c2.42848,1.23205 6.81687,1.36104 9.46971,1.69581c3.3989,0.06364 6.80258,0.01525 10.20206,0.01525c2.30188,0 4.70164,-0.30869 6.98581,-0.833c0.00565,0.36883 0.00649,0.74374 0.00158,1.12447c-0.05526,4.28593 -0.94731,9.08451 -1.15863,13.52263c-0.39713,8.34034 -0.19302,15.40772 -0.19302,15.40772z" fill="#ff9a31" stroke-width="0"/><path d="M307.54468,195.97206c-1.11271,0 -1.11271,-1.11271 -1.11271,-1.11271l0.00114,-1.2217c0.26887,-2.9473 0.89281,-5.63266 0.59002,-8.62344c0,0 -0.03292,-0.32922 0.11665,-0.64656c-0.17281,-0.63702 -0.33948,-1.25758 -0.34658,-1.30765c-0.2276,-1.60389 0.05443,-3.2618 -0.22847,-4.8812c-0.22143,-1.26754 -0.66413,-2.50145 -0.8255,-3.7849c-0.1701,-1.35287 -0.39036,-2.64086 -0.58387,-3.96981c-0.20316,-1.39519 0.20192,-2.02232 -0.47996,-3.29493c0,0 -0.49763,-0.99524 0.49761,-1.49286c0.99524,-0.49762 1.49286,0.49762 1.49286,0.49762c0.22445,0.47108 0.55264,0.90558 0.67334,1.41325c0.19691,0.82819 -0.11265,1.71256 0.01797,2.55375c0.39858,2.56694 0.95574,5.13152 1.4017,7.70615c0.28476,1.64407 0.00639,3.3357 0.24004,4.95753c0.11993,0.83249 0.45211,1.62028 0.67341,2.43173l0.23064,0.80698c0,0 0.27205,0.9522 -0.59545,1.31667c-0.07708,2.14664 -0.45151,4.21187 -0.65128,6.4185l0.00114,1.12086c0,0 0,1.11271 -1.11271,1.11271z" fill="#ff9a31" stroke-width="0.5"/><path d="M339.72176,168.31292c0.54351,1.39807 -0.85456,1.94158 -0.85456,1.94158l-1.13067,0.42927c-0.58012,0.15242 -1.16024,0.30483 -1.74036,0.45725c-1.08032,0.1833 -2.07161,0.72259 -3.13255,0.99662c-6.83219,1.76468 -14.26456,0.28835 -20.85494,-1.43472c-2.55475,-0.66794 -4.63786,-0.50338 -6.77315,-2.16014c0,0 -1.15408,-0.95818 -0.1959,-2.11226c0.95818,-1.15408 2.11226,-0.1959 2.11226,-0.1959c1.39067,1.29872 3.75755,1.07794 5.62412,1.56808c6.01766,1.58019 13.0446,3.12762 19.29649,1.44112c1.10634,-0.29844 2.15192,-0.82524 3.27887,-1.0327c0.54027,-0.14279 1.08053,-0.28557 1.6208,-0.42836l0.80801,-0.32441c0,0 1.39807,-0.54351 1.94158,0.85456z" fill-opacity="0.30588" fill="#000000" stroke-width="0.5"/><path d="M336.20934,197.56491c-1.06579,0.31974 -1.38552,-0.74606 -1.38552,-0.74606l-0.3771,-1.27479c-0.30794,-2.99504 -0.1846,-6.37785 0.45591,-9.35592c-0.00862,-0.06986 -0.00861,-0.11339 -0.00861,-0.11339v-0.23426c0.00251,-2.02715 -0.56475,-3.86179 -0.46737,-5.90681c0.08917,-1.87268 0.56717,-3.52792 0.96166,-5.34135c0.48405,-2.22519 0.61177,-4.39544 0.79796,-6.64766c0,0 0.00622,-0.0747 0.03483,-0.18371c0.65846,-0.13109 1.31004,-0.28074 1.94981,-0.4468c0.27166,0.35254 0.2331,0.81531 0.2331,0.81531c-0.19729,2.34751 -0.33801,4.62012 -0.84184,6.93917c-0.3677,1.69246 -0.82919,3.21891 -0.91237,4.96589c-0.08594,1.80469 0.36513,3.45549 0.45449,5.2329c0.21183,0.39187 0.09906,0.84294 0.09906,0.84294c-0.71149,2.77107 -0.849,6.1414 -0.57363,9.00126l0.32567,1.06776c0,0 0.31974,1.06579 -0.74605,1.38552z" fill="#ff9a31" stroke-width="0.5"/><path d="M337.38754,166.92819c0.06469,0.00539 0.12529,0.01424 0.18206,0.02613c-0.34007,0.08293 -0.68307,0.16104 -1.02827,0.23403c0.17884,-0.17068 0.44648,-0.29348 0.84621,-0.26016z" fill="#c5d8e2" stroke-width="0.5"/><path d="M338.33977,167.2174c0,0.99605 -7.38246,1.8035 -16.48918,1.8035c-9.10672,0 -16.48918,-0.80746 -16.48918,-1.8035c0,-0.39775 -2.02902,-2.6548 -0.03491,-2.953c2.99961,-0.44855 11.85545,-1.42694 17.32564,-1.42694c9.10672,0 15.68762,3.38389 15.68762,4.37994z" fill="#ff9a31" stroke-width="0"/><g fill="#ff9a31" stroke-width="0.5"><path d="M286.12208,209.68206c-0.68682,-0.48173 -0.20508,-1.16855 -0.20508,-1.16855l0.27698,-0.39488c3.79841,-5.38694 6.19559,-11.32792 9.50498,-16.77076c4.23026,-1.48613 14.57263,-0.22462 18.61956,1.78246c0,0 0.74804,0.37975 0.36829,1.1278c-0.37976,0.74805 -1.12779,0.3683 -1.12779,0.3683c-3.32684,-1.74022 -8.97434,-1.72323 -12.6416,-1.63658c-1.34959,0.03189 -2.87494,-0.66219 -4.16478,-0.33622c-2.96823,5.65061 -5.44289,11.06059 -9.18499,16.42845l-0.27697,0.39491c0,0 -0.48173,0.68682 -1.16855,0.2051z"/><path d="M290.48024,211.15441c0.6742,-0.49924 1.17344,0.17496 1.17344,0.17496l0.43598,0.60795c1.11152,2.19409 2.08689,3.24619 1.66736,5.89368c-2.44979,4.72458 -8.24429,1.02321 -9.78739,-2.55957c-1.40019,-3.25097 0.63065,-4.1977 1.55509,-6.75182c0,0 0.32126,-0.77496 1.09623,-0.45371c0.77497,0.32126 0.4537,1.09624 0.4537,1.09624c-0.90893,2.03358 -2.70915,2.85204 -1.57006,5.43179c0.82974,1.87915 5.0871,5.9454 6.65399,2.72705c0.28611,-2.12223 -0.64468,-2.83496 -1.56313,-4.62041l-0.29019,-0.37269c0,0 -0.49923,-0.6742 0.17496,-1.17344z"/><path d="M290.27347,212.54121c-0.49924,-0.6742 0.17496,-1.17343 0.17496,-1.17343l-0.065,0.1017c3.34377,-4.76737 4.812,-10.52423 7.41791,-15.68534c0,0 0.37975,-0.74807 1.1278,-0.36831c0.74805,0.37976 0.36829,1.1278 0.36829,1.1278c-2.66272,5.21986 -4.14556,11.04919 -7.54033,15.8893l-0.31016,0.28324c0,0 -0.67421,0.49924 -1.17345,-0.17496z"/><path d="M298.04648,195.60258c0.37976,-0.74805 1.1278,-0.36829 1.1278,-0.36829l0.85269,0.43577c1.82106,0.5993 3.26585,0.05216 5.13822,0.09223c4.19088,0.08972 7.99183,1.67538 12.25381,1.50921c0,0 0.83828,-0.03268 0.87097,0.80561c0.03269,0.83829 -0.8056,0.87098 -0.8056,0.87098c-4.31219,0.16814 -8.15151,-1.42463 -12.37723,-1.50895c-2.11853,-0.04227 -3.61605,0.45484 -5.72032,-0.21815l-0.97204,-0.49059c0,0 -0.74805,-0.37976 -0.3683,-1.1278z"/></g><path d="M323.94508,195.54835c0,0 -0.18168,-0.81902 0.63733,-1.0007c0.81902,-0.18168 1.00069,0.63733 1.00069,0.63733c0.76837,3.67503 4.36786,8.02683 6.76363,10.80471c0.81768,0.94809 1.24901,2.40949 2.16156,3.24631c-0.17889,0.51432 -0.42316,1.02033 -0.52424,1.56067c-3.81155,-2.66622 -9.05509,-11.00137 -10.03897,-15.24832z" fill="#ff9a31" stroke-width="0.5"/><path d="M353.99076,210.37052c-0.11356,0.8312 -0.94476,0.71764 -0.94476,0.71764l-0.47791,-0.06529c-6.51002,-0.90595 -12.87143,-0.32106 -19.20775,-0.76216c0.17153,-0.56482 0.5253,-1.04107 0.83771,-1.53702c6.30167,0.04217 12.18385,-0.22074 18.59717,0.63678l0.47792,0.06528c0,0 0.83119,0.11357 0.71763,0.94477z" fill="#ff9a31" stroke-width="0.5"/><path d="M353.30297,205.82209c-0.75263,-0.37058 -0.38205,-1.12321 -0.38205,-1.12321l0.34067,-0.66607c1.4411,-1.99317 1.92948,-3.34214 4.47501,-4.18208c5.32193,0.01319 4.68637,6.85953 2.20857,9.87251c-2.24831,2.73394 -4.02022,1.36247 -6.71406,1.71083c0,0 -0.83605,0.06946 -0.90551,-0.76658c-0.06946,-0.83604 0.76659,-0.9055 0.76659,-0.9055c2.22403,-0.12368 3.77626,1.10157 5.54754,-1.09278c1.29025,-1.59842 2.95434,-7.24556 -0.62426,-7.16398c-2.01751,0.71792 -2.22463,1.87178 -3.39094,3.50614l-0.19834,0.42867c0,0 -0.37057,0.75263 -1.12321,0.38206z" fill="#ff9a31" stroke-width="0.5"/><path d="M354.63041,205.37057c-0.37058,0.75263 -1.12322,0.38206 -1.12322,0.38206l0.12018,0.01119c-5.76952,-0.78823 -11.55936,0.54397 -17.34085,0.59201c0,0 -0.83891,0.00513 -0.84404,-0.83378c-0.00513,-0.83891 0.83378,-0.84403 0.83378,-0.84403c5.85973,-0.02443 11.72069,-1.37687 17.57822,-0.5766l0.39387,0.14595c0,0 0.75263,0.37059 0.38205,1.12322z" fill="#ff9a31" stroke-width="0.5"/><path d="M336.18816,206.54825c-0.81902,0.18168 -1.0007,-0.63733 -1.0007,-0.63733l-0.20486,-0.93542c-0.69349,-1.78732 -2.03364,-2.55593 -3.1917,-4.02776c-2.59206,-3.29435 -3.78088,-7.23749 -6.61575,-10.42426c0,0 -0.55759,-0.62681 0.06922,-1.18439c0.62681,-0.55758 1.1844,0.06921 1.1844,0.06921c2.86828,3.22432 4.07599,7.20158 6.69433,10.51944c1.31268,1.66337 2.64768,2.50451 3.46408,4.55739l0.23832,1.06243c0,0 0.18169,0.81901 -0.63734,1.00069z" fill="#ff9a31" stroke-width="0.5"/><path d="M310.22079,193.10644c-0.5964,1.0437 -1.46196,1.50152 -2.45345,1.60288c-2.01092,0.20557 -4.5399,-1.05517 -6.39207,-1.86812c-7.99054,-3.50718 -11.48731,-7.21257 -11.51495,-15.72427c-0.00502,-1.54468 -2.66722,-1.29848 -1.55944,-3.51404c1.08281,-2.16561 3.16107,-0.39327 3.95157,0.62585c4.08529,5.26675 -1.57174,8.28464 5.80139,13.00073c2.55394,1.63359 5.46375,2.79419 8.31553,3.7418c0.53994,0.17942 2.73013,0.17292 2.9896,0.62699z" fill="#ff9a31" stroke-width="0.5"/><g fill="#ea8f2d" stroke-width="0.5"><path d="M305.7201,172.95242c-1.28878,0.078 -2.92982,-1.44501 -3.89699,-2.13176c-2.43414,-1.72838 -7.11488,-2.58022 -9.81371,-2.98712c-2.53284,-0.38188 -11.46072,2.51105 -12.38415,0.06468c-1.19304,-3.16068 5.22447,-2.42582 6.54145,-2.96047c7.13553,-2.89678 13.82171,1.89082 19.8948,4.48138c0.12997,-0.00892 0.26298,-0.00337 0.39711,0.01803c0.02207,0.00352 0.04398,0.00744 0.06572,0.01175c1.821,0.33671 1.91223,1.29378 1.36074,2.12304c-0.20146,0.84728 -1.00097,1.42002 -1.87025,1.33532c-0.10091,0.024 -0.19966,0.03939 -0.29472,0.04516z"/><path d="M302.61377,171.83516c-2.32596,-0.61272 -4.1059,-2.06696 -6.71074,-2.49211c-3.4369,-0.56097 -4.4588,-0.97134 -7.13286,-0.48033c-1.51614,0.27839 -8.42341,3.34576 -8.91778,0.3497c-0.36404,-2.20618 9.24309,-4.47787 11.14477,-4.19637c1.90902,0.28259 3.81499,0.58669 5.71717,0.91217c1.00877,0.17261 1.9866,0.56693 2.99034,0.74359c1.08319,0.19064 7.73866,2.97271 7.30926,4.8311c0.07402,0.24519 0.09514,0.51051 0.05208,0.7804c-0.15228,0.95443 -1.04944,1.6047 -2.00387,1.45242c-0.61564,0.42066 -1.93677,-1.76581 -2.44838,-1.90058z"/><path d="M283.06055,170.76027c-2.08369,1.80779 -9.2004,2.54446 -8.79514,-1.38698c0.12815,-1.24322 0.22063,-4.23835 1.19828,-4.91136c1.3179,-0.90723 6.93495,-0.33333 7.58315,1.38392c0.4614,0.38188 0.71463,0.99086 0.61343,1.62513c-0.01962,0.12296 -0.05161,0.24089 -0.09448,0.35269c-0.15154,0.99605 0.56009,2.01235 -0.50522,2.93661z"/></g><g fill="#ea8f2d" stroke-width="0.5"><path d="M336.83322,173.92877c1.15167,-0.58368 3.26278,0.16185 4.4232,0.40774c2.92051,0.61885 7.55434,-0.45938 10.19264,-1.15838c2.47604,-0.65601 9.5193,-6.85831 11.33879,-4.98029c2.35073,2.42638 -3.83039,4.30207 -4.82648,5.31601c-5.39696,5.49363 -13.43502,3.75703 -20.03745,3.79295c-0.11572,0.05983 -0.23998,0.10759 -0.37158,0.14125c-0.02165,0.00554 -0.04331,0.01065 -0.06498,0.01533c-1.80486,0.41461 -2.26888,-0.42742 -2.0923,-1.40754c-0.1518,-0.85757 0.3543,-1.70084 1.18566,-1.96853c0.08307,-0.06212 0.16757,-0.11549 0.25251,-0.15855z"/><path d="M340.12775,173.71972c2.37792,-0.36197 4.58916,0.26526 7.14846,-0.37964c3.37683,-0.8509 4.47765,-0.88038 6.73643,-2.39351c1.28069,-0.85792 6.40039,-6.41739 8.04457,-3.86445c1.21071,1.87988 -6.70273,7.782 -8.55969,8.27931c-1.86413,0.49924 -3.73401,0.97754 -5.6089,1.43469c-0.9943,0.24245 -2.0483,0.26914 -3.0396,0.50587c-1.06976,0.25548 -8.28271,0.34707 -8.62712,-1.52893c-0.16536,-0.19558 -0.29016,-0.43067 -0.35789,-0.69545c-0.23951,-0.93635 0.32539,-1.88957 1.26175,-2.12908c0.3978,-0.63065 2.47897,0.85083 3.002,0.77121z"/><path d="M358.49814,166.93649c1.19378,-2.48692 7.43181,-5.99081 8.62211,-2.22204c0.3764,1.19178 1.48168,3.97704 0.85195,4.98312c-0.84889,1.3562 -6.2315,3.06154 -7.50869,1.74325c-0.57514,-0.16711 -1.04951,-0.6253 -1.20868,-1.24756c-0.03086,-0.12064 -0.04836,-0.24156 -0.05344,-0.36119c-0.25672,-0.97424 -1.31359,-1.62411 -0.70325,-2.89557z"/></g><path d="M308.15667,165.16033c-0.87156,0.40798 -1.74098,-0.22431 -1.74098,-0.22431l-1.83704,-1.47021c-0.77064,-1.16266 -1.69066,-2.35559 -2.03549,-3.74728c-0.53733,-2.1686 -0.19769,-4.67004 0.23949,-6.80916c1.05009,-5.13804 2.44153,-11.40294 6.76931,-14.85376c3.77026,-3.00627 8.58733,-3.07976 13.14945,-3.07976c2.92987,0 5.85388,-0.34305 8.57795,0.94164c3.84906,1.81524 6.56495,5.44588 8.58951,9.05507c3.62549,6.46316 6.30796,14.69011 2.96175,21.89066c-3.73253,3.45448 -7.12101,3.15109 -11.92409,3.15109c-7.70333,0 -16.0692,-0.64374 -22.74986,-4.85399z" fill="#ff9a31" stroke-width="0.5"/><path d="M316.2646,136.52144c-0.56944,0.48809 -1.05753,-0.08135 -1.05753,-0.08135l-0.51613,-0.61053c-1.58096,-2.37993 -1.23318,-5.23818 -2.50223,-7.59981c-0.74818,0.61938 -1.57343,1.06187 -2.32699,1.61455c-2.60826,1.91297 -2.43449,8.33086 -1.246,10.95694c0,0 0.30461,0.68535 -0.38075,0.98996c-0.68536,0.30461 -0.98997,-0.38075 -0.98997,-0.38075c-2.30812,-5.27026 -0.60459,-12.82317 5.19624,-14.65928c2.36839,1.85261 1.80482,5.71704 3.49777,8.24634l0.40694,0.4664c0,0 0.48809,0.56944 -0.08135,1.05754z" fill="#dc862a" stroke-width="0.5"/><path d="M333.74735,138.1099c-0.69636,0.27855 -0.9749,-0.41781 -0.9749,-0.41781l-0.3478,-0.90595c-0.02319,-1.56146 -0.06073,-3.06455 0.25249,-4.59983c0.24833,-0.5634 0.55487,-1.20029 0.75361,-1.7546c0.20298,-0.56614 -1.17005,0.31632 -1.77073,0.34628c-1.10601,0.05518 -2.30297,-0.10897 -3.36292,0.32728c-2.15454,0.88675 -3.00266,3.3699 -4.01882,5.21096c0,0 -0.36423,0.65561 -1.01985,0.29138c-0.65562,-0.36423 -0.29138,-1.01985 -0.29138,-1.01985c1.22071,-2.18078 2.22282,-4.80362 4.75041,-5.86597c0.91195,-0.3833 6.12794,-1.22216 6.86635,-0.24951c0.59627,0.78543 -0.13766,2.41132 -0.47716,3.16848c-0.25005,1.28556 -0.18093,2.55763 -0.20905,3.86171l0.26758,0.63252c0,0 0.27855,0.69635 -0.41782,0.9749z" fill="#dc862a" stroke-width="0.5"/><path d="M329.41961,156.74271c0.67082,0.33541 0.33541,1.00623 0.33541,1.00623l-0.29434,0.50261c-3.44399,3.43166 -5.45666,-0.10918 -7.10197,-2.91575c-1.28839,2.31689 -3.29098,3.75367 -6.33075,3.61679l-0.78178,-0.70104c0,0 -0.53033,-0.53033 0,-1.06066c0.53033,-0.53033 1.06066,0 1.06066,0l0.29514,0.37589c2.13766,-0.23498 3.47951,-1.24442 4.39428,-2.83846c-0.94723,0.59455 -2.03946,0.5973 -2.48066,-0.95951c-0.48086,-1.69676 3.20068,-3.778 4.37954,-2.52676c0.00741,0.00786 0.0147,0.01573 0.02189,0.02361c0.07106,-0.02754 0.1438,-0.05271 0.21779,-0.07532c0.3048,-0.15374 0.60993,-0.25606 0.87475,-0.29232c0,0 0.39207,-0.03921 0.63626,0.2234c0.72364,0.17911 1.30449,0.71581 1.33977,1.77012c0.03776,1.12854 -1.05571,1.92216 -2.17789,2.07002c1.03789,2.0471 2.30628,4.52464 4.59231,2.22933l0.01335,-0.11277c0,0 0.33541,-0.67082 1.00623,-0.33541z" fill="#2f1c09" stroke-width="0.5"/><path d="M316.4703,145.64689c0.22577,0.2463 0.24124,0.48345 0.18897,0.67073l0.04447,0.05151c0.00358,0.29915 0.02062,0.6758 0.01911,1.07894c0.01781,-0.00091 0.03607,-0.00138 0.0548,-0.00138c0.75,0 0.75,0.75 0.75,0.75l-0.0437,0.30602c-0.32018,0.70877 -0.35505,1.11652 -0.78483,1.29783c-0.05079,0.15774 -0.11548,0.30875 -0.19515,0.45046c0.17426,1.1273 -0.09693,2.08917 -2.08273,1.8075c-1.53071,-0.21712 -2.70913,-1.95399 -2.03517,-3.42035c0.09398,-1.44052 0.71837,-3.05903 1.2647,-3.79468c0,0 0.45,-0.6 1.05,-0.15c0.10181,0.07636 0.17338,0.15703 0.22206,0.23835c0.04361,-0.00789 0.08851,-0.01201 0.13439,-0.01201c0.18059,0 0.34627,0.06383 0.47573,0.17016c0.03771,-0.00583 0.07634,-0.00887 0.11568,-0.00887c0.30388,0 0.56554,0.18072 0.68338,0.44055c0.04618,0.03384 0.09243,0.0752 0.1383,0.12524z" fill="#ffffff" stroke-width="0.5"/><path d="M327.60685,147.30512c0.11647,-0.9971 0.9013,-3.35191 2.47798,-1.85946c0.32477,0.30742 0.45209,0.61942 0.43625,0.92297c0.88306,0.744 0.88526,2.63563 0.59896,3.72286c-0.22574,3.02273 -3.38109,2.80671 -4.52934,0.37609c-0.37531,-0.79446 -0.20468,-1.28977 0.09442,-1.68866c-0.06218,-0.00305 -0.11825,-0.01045 -0.16727,-0.02239c0,0 -0.72114,-0.20603 -0.5151,-0.92718c0.20604,-0.72115 0.92719,-0.51511 0.92719,-0.51511c0.26705,0.09833 0.48724,0.0759 0.67692,-0.00912z" fill="#ffffff" stroke-width="0.5"/><path d="M318.30684,149.02079c-0.53033,0.53033 -1.06066,0 -1.06066,0l-0.26664,-0.2983c-1.19714,-1.99765 -2.27611,-3.75159 -2.85372,-6.05012c0,0 -0.1819,-0.72761 0.5457,-0.90951c0.7276,-0.1819 0.90951,0.5457 0.90951,0.5457c0.53521,2.15308 1.56273,3.77429 2.68474,5.64219l0.04106,0.00939c0,0 0.53033,0.53033 0,1.06066z" fill="#2f1c09" stroke-width="0.5"/><path d="M325.20663,148.4222c-0.62404,-0.41602 -0.20801,-1.04007 -0.20801,-1.04007l0.44248,-0.48556c1.66544,-0.82361 2.84072,-2.03909 3.21744,-3.87094c0,0 0.15715,-0.73335 0.8905,-0.5762c0.73335,0.15715 0.57621,0.89049 0.57621,0.89049c-0.5077,2.29343 -1.92544,3.84465 -4.01333,4.89829l0.13478,-0.02402c0,0 -0.41602,0.62404 -1.04006,0.20802z" fill="#2f1c09" stroke-width="0.5"/><path d="M318.07194,146.80109c0.68936,0.29544 0.39392,0.98479 0.39392,0.98479l-0.22377,0.52157c-0.10435,0.26077 -0.20871,0.52154 -0.31307,0.78231c-0.40008,0.89888 -0.6054,2.05239 -1.27009,2.80561c-1.49017,1.68864 -4.59603,1.30076 -5.29149,-0.95332c-0.88804,-2.87825 0.93464,-5.75741 3.35252,-7.10722c0,0 0.65562,-0.36424 1.01985,0.29138c0.36423,0.65562 -0.29139,1.01985 -0.29139,1.01985c-1.83981,1.01646 -3.28035,3.13774 -2.64748,5.35431c0.30881,1.08159 2.03644,1.3012 2.70851,0.4313c0.52402,-0.67827 0.69298,-1.6487 1.0376,-2.42516c0.10077,-0.25205 0.20155,-0.5041 0.30232,-0.75615l0.23777,-0.55535c0,0 0.29544,-0.68936 0.9848,-0.39392z" fill="#2f1c09" stroke-width="0.5"/><path d="M329.06358,144.70835c0.3975,-0.636 1.0335,-0.2385 1.0335,-0.2385l0.77844,0.52234c1.50353,1.70262 2.45251,7.1228 -0.708,8.05594c-2.62724,0.77569 -5.1105,-3.32275 -5.14101,-5.40382c0,0 0,-0.75 0.75,-0.75c0.75,0 0.75,0.75 0.75,0.75c-0.02016,0.96766 1.75599,4.50824 3.16667,3.9808c1.92941,-0.7214 0.98437,-4.60574 0.06123,-5.63637l-0.45233,-0.24689c0,0 -0.636,-0.3975 -0.2385,-1.0335z" fill="#2f1c09" stroke-width="0.5"/><path d="M315.43356,150.14831c-0.5,0 -0.5,-0.5 -0.5,-0.5c0,-0.57348 0,-1.41577 0,-1.98925c0,0 0,-0.5 0.5,-0.5c0.5,0 0.5,0.5 0.5,0.5c0,0.57348 0,1.14695 0,1.72043v0.26882c0,0 0,0.5 -0.5,0.5z" fill="#000000" stroke-width="0.5"/><path d="M329.73464,149.93325c-0.5,0 -0.5,-0.5 -0.5,-0.5c0,-0.57348 0,-1.25448 0,-1.82796c0,0 0,-0.5 0.5,-0.5c0.5,0 0.5,0.5 0.5,0.5c0,0.57348 0,1.14695 0,1.72043v0.10753c0,0 0,0.5 -0.5,0.5z" fill="#000000" stroke-width="0.5"/></g></g></svg>