<svg version="1.1" xmlns="http://www.w3.org/2000/svg" xmlns:xlink="http://www.w3.org/1999/xlink" width="16.55103" height="21.71267" viewBox="0,0,16.55103,21.71267"><g transform="translate(-231.72449,-169.14367)"><g data-paper-data="{&quot;isPaintingLayer&quot;:true}" fill-rule="nonzero" stroke-width="0" stroke-linecap="butt" stroke-linejoin="miter" stroke-miterlimit="10" stroke-dasharray="" stroke-dashoffset="0" style="mix-blend-mode: normal"><g><path d="M231.72449,190.23918v-21.09551l5.49829,0.44883l1.1221,15.3728z" fill="#8ebbdd" stroke="none"/><path d="M242.10393,189.73424l-9.08902,1.1221l5.94714,-5.27388l4.19457,-4.0811l5.11889,-6.91549l-1.91919,8.7809z" fill="#8ebbdd" stroke="none"/><path d="M238.79373,176.54954l-0.44883,-6.62039l9.31344,4.26398l-2.91746,3.70293z" fill="#8ebbdd" stroke="#000000"/><path d="M231.72451,190.23918l4.38627,-5.49522l-0.53519,-13.90582l1.64723,-1.24563l1.1221,15.3728z" fill="#6e99b9" stroke="none"/><path d="M238.79375,176.54954l1.78477,-1.30593l5.53939,0.79803l-1.37704,1.85442z" fill="#6e99b9" stroke="#000000"/><path d="M242.02692,189.81125l-3.77455,0.35189l2.78928,-2.03897l2.73116,-4.31217l3.50143,-4.3738l-0.99492,4.00558z" fill="#6e99b9" stroke="none"/></g></g></g></svg>