<svg version="1.1" xmlns="http://www.w3.org/2000/svg" xmlns:xlink="http://www.w3.org/1999/xlink" width="744.41358" height="386" viewBox="0,0,744.41358,386"><defs><radialGradient cx="320" cy="180" r="331.5" gradientUnits="userSpaceOnUse" id="color-1"><stop offset="0" stop-color="#16181a" stop-opacity="0"/><stop offset="1" stop-color="#16181a" stop-opacity="0.4902"/></radialGradient></defs><g transform="translate(52.20679,13)"><g data-paper-data="{&quot;isPaintingLayer&quot;:true}" fill-rule="nonzero" stroke-linecap="butt" stroke-linejoin="miter" stroke-miterlimit="10" stroke-dasharray="" stroke-dashoffset="0" style="mix-blend-mode: normal"><path d="M-52.20679,370.60229v-381.20458h744.41358v381.20458z" fill="#303f4a" stroke="none" stroke-width="0"/><path d="M-11.5,373v-386h663v386z" fill="url(#color-1)" stroke="none" stroke-width="0"/><path d="M116.5,306v-42h407v42z" fill="none" stroke="#94c3e4" stroke-width="6"/><path d="M266.60054,188.51672c0.14914,0.11704 0.23174,0.19964 0.23174,0.19964l0.98501,0.98501c0.19095,0.054 0.37919,0.11719 0.5639,0.19239c1.0125,0.4122 1.81002,1.20117 2.62414,1.95578c1.4847,-0.04863 3.04947,-0.14663 4.46035,0.04514c2.88428,0.39202 5.71928,0.77298 8.62852,1.1521c1.63797,0.21345 4.41677,-0.71615 5.8742,0.00812c0.11609,0.05769 0.23093,0.1175 0.34461,0.17924l0.02752,-0.11008l2.22545,0.55636c0.75374,-2.02728 1.9957,-3.22187 3.09608,-4.98334c1.18734,-1.90069 0.781,-4.57897 1.5139,-6.51901c0.14573,-0.38576 0.61516,-0.56095 0.92486,-0.84126c0,-0.09864 0,-0.19728 0,-0.29592c0.079,-2.46354 -1.30319,-4.21447 -2.12838,-6.46867c-0.21842,-0.59668 -0.09823,-1.29582 -0.37082,-1.86977c-0.16079,-0.33854 -0.62304,-0.43359 -0.86074,-0.72335c-1.27771,-1.55761 -3.34918,-3.87278 -4.04881,-5.70515c-0.1732,-0.45362 0.2763,-0.99961 0.1027,-1.45308c-0.14037,-0.36667 -0.72791,-0.38361 -0.9338,-0.71792c-0.32065,-0.52067 -0.26726,-1.21492 -0.58011,-1.74033c-0.24324,-0.40851 -0.78956,-0.57271 -1.03836,-0.97786c-0.66289,-1.07945 -1.27069,-2.21289 -1.66114,-3.41796c-0.15982,-0.49326 0.21147,-1.062 0.04996,-1.55471c-0.11329,-0.34562 -0.40955,-0.59084 -0.66533,-0.86147c-0.31447,-0.07127 -0.62911,-0.14147 -0.90146,-0.30488c-0.46899,-0.2814 -0.72158,-0.83352 -1.16022,-1.16021c-0.62976,-0.46903 -1.67636,0.24459 -2.35038,-0.15825c-0.14631,-0.08744 -0.28979,-0.17887 -0.43083,-0.27372l-0.05166,0.15498l-1.67268,-0.55756c-0.55082,-0.16941 -1.03606,-0.48855 -1.40821,-0.90992c-0.04636,0.04612 -0.09185,0.09286 -0.13617,0.14042c-1.5894,1.565 -3.46072,3.06069 -5.46877,4.07187c-0.45713,0.2302 -1.0352,0.16798 -1.47324,0.43273c-0.50095,0.30277 -0.73675,0.96307 -1.26236,1.22066c-1.47319,0.72199 -4.14112,1.42502 -5.98835,1.89789c-0.01746,0.92981 -0.99374,3.4727 -1.26803,4.39748c-0.78304,2.64004 -0.22903,4.9796 -1.43825,7.62024c-0.15152,0.3309 -0.50682,0.51854 -0.79967,0.7512c0.02332,0.41243 0.0408,0.81699 0.0408,1.20604c0,2.26978 -0.31796,4.53834 0.4568,6.67694c0.26547,1.09653 0.64269,2.05927 1.06739,2.99357c0.00822,-0.00006 0.01646,-0.0001 0.0247,-0.0001c1.39089,0 2.56729,0.91839 2.95586,2.18185l0.47017,1.41052c0.49536,0.3432 0.93469,0.83897 1.4348,1.16922zM256.43654,149.20515c0.46398,-0.65205 0.9364,-1.22385 1.38214,-1.67654c2.74762,-2.74762 4.40668,-6.00643 8.43727,-7.2041c2.13936,-0.63571 5.42365,-0.08271 7.67171,-0.08271c5.25548,0 9.90329,0.2333 14.90038,1.899c0.69817,0.23272 3.73087,1.22268 4.12843,1.46333c0.36527,0.22109 2.39109,2.27411 2.88124,2.76427c2.8981,2.8981 5.85935,5.67112 8.32632,8.92771c0.50903,0.67195 1.28881,1.16449 1.62568,1.93725c0.27042,0.62034 -0.09008,1.37889 0.1027,2.02758c0.35125,1.18196 1.58331,1.9173 2.13869,3.01819c0.30415,0.60288 0.39267,1.29509 0.65915,1.91554c0.8476,1.97344 3.67765,6.64771 1.97216,8.79226c-0.30471,0.38316 -0.70273,0.67646 -1.16154,0.88993c0.67825,1.62347 1.42554,3.2404 1.70524,4.9284c0.34802,2.10022 0.42567,5.86572 0,7.95187c-0.59014,2.89222 -2.07147,3.19159 -3.17503,5.50405c-1.47813,3.09739 -2.93527,5.50984 -5.45817,7.994c-2.45506,1.6212 -5.38817,3.29287 -8.37746,4.361c-1.55975,0.91007 -3.30075,1.38618 -5.19676,1.14736c-3.75925,0.32502 -7.90729,-0.16666 -11.59042,-0.16666c-3.99291,0 -8.47265,0.55399 -12.06751,-1.62201c-0.44493,-0.26933 -2.08261,-1.97387 -2.65517,-2.55947c-2.26517,-1.48271 -4.51217,-2.92942 -6.23196,-5.07175c-0.87291,-1.08738 -1.47123,-2.37467 -2.32044,-3.48066c-0.77513,-1.00951 -2.16212,-1.41762 -2.9666,-2.4039c-0.4486,-0.54998 -0.38479,-1.38489 -0.75309,-1.99159c-0.28382,-0.46752 -0.88727,-0.68627 -1.16022,-1.16022c-2.2501,-3.90718 -0.85224,-7.53872 -1.58208,-11.57222c-0.35374,-1.95496 -1.188,-4.23802 -0.62004,-6.29637v-1.74033c0,-1.63753 1.27296,-2.97773 2.8833,-3.08504c0.01933,-0.10344 0.0384,-0.20704 0.05716,-0.31078c0.26656,-1.47317 -0.13006,-3.22292 -0.03993,-4.7257c0.08731,-1.45567 -0.68008,-3.34337 0.36587,-4.35952c0.35718,-0.347 0.76529,-0.61079 1.20732,-0.81922l-0.19633,-0.29449l1.70515,-1.13678c0.14174,-0.09751 0.29203,-0.18349 0.4495,-0.25662c0.03454,-0.23815 0.09256,-0.47142 0.18451,-0.69783c0.35542,-0.8752 1.22031,-1.44222 1.83048,-2.16333c0,0 0.36183,-0.36183 0.9383,-0.6439z" fill="#b9cbd5" stroke="none" stroke-width="0.5"/><path d="M446.24479,115.61159c-0.48163,-9.16684 0.00063,-22.88141 0.00063,-22.88141c0,0 8.20711,-25.64368 9.30082,-25.64368c2.07308,0 6.67911,5.31509 13.45935,10.35637c1.64381,1.22222 2.56459,-17.07038 4.28646,-15.85388c8.61723,6.08807 16.26863,31.00833 16.26863,31.00833c0,0 2.64493,10.96414 2.8342,18.85996c0.07717,3.21913 0.87884,7.7158 1.02535,13.13295c-2.25341,0.46601 -4.62153,0.73171 -6.69302,1.41311c-4.71261,0.59735 -9.51185,0.43805 -14.30663,0.43805c-4.89418,0 -9.14556,-0.24422 -13.8672,-1.35822c-3.77602,-0.75549 -9.07273,-2.11587 -12.04274,-4.9685c-0.10726,-1.68262 -0.19742,-3.20076 -0.26584,-4.50308z" fill="#c5d8e2" stroke="none" stroke-width="0"/><path d="M492.42474,123.9632c0,-3.99324 0.06621,-8.04672 -1.45465,-11.79592c0,0 -0.61683,-1.54207 0.92524,-2.1589c1.54207,-0.61683 2.1589,0.92525 2.1589,0.92525c1.65605,4.18957 1.69224,8.57881 1.69224,13.02957l-0.00342,0.03236c-1.08931,0.35116 -2.24711,0.59222 -3.41771,0.80661z" fill="#c5d8e2" stroke="none" stroke-width="0.5"/><path d="M475.51808,124.42772c0,0 -3.60032,1.80678 -5.3162,0.33387c-0.9844,-0.84502 -5.72852,-11.2125 -5.72852,-11.2125c0,0 8.16512,-13.55922 9.92954,-14.14209c1.07317,-0.35452 5.08123,7.00038 5.84863,7.00038c4.28657,0 18.1034,1.99304 18.1034,1.99304v13.20384z" fill="#c6deec" stroke="none" stroke-width="0"/><path d="M458.94511,111.14322c0.5872,-0.5872 1.1744,0 1.1744,0l0.04991,0.11018c6.39899,3.19949 13.55655,5.23544 20.75477,5.22708c4.38008,0 8.46016,-0.25545 12.75527,-0.91936c1.54358,-0.2386 2.97664,-0.39329 4.41205,-1.11887c0,0 0.74276,-0.37138 1.11414,0.37138c0.37138,0.74276 -0.37138,1.11414 -0.37138,1.11414c-5.23279,2.59235 -12.20097,2.21355 -17.91009,2.21355c-7.45866,-0.00791 -14.86309,-2.08519 -21.49751,-5.40241l-0.48156,-0.42131c0,0 -0.5872,-0.5872 0,-1.1744z" fill="#a9ccdf" stroke="none" stroke-width="0.5"/><path d="M493.00971,113.67441c-1.6286,0.32572 -1.95434,-1.30288 -1.95434,-1.30288l-0.24087,-1.22697c-0.1214,-1.06159 -0.57119,-2.0594 -0.84081,-3.09334c-0.59145,-2.26801 -0.27636,-4.712 -0.69577,-7.00445c-0.15594,-0.85243 -0.55344,-1.65243 -0.67603,-2.51029c-0.66268,-4.63712 -0.73916,-9.43119 -2.16656,-13.94134c-1.09854,-3.47107 -3.10379,-6.4564 -4.38583,-9.83378c0,0 -0.58317,-1.55512 0.97193,-2.13828c1.55512,-0.58317 2.1383,0.97194 2.1383,0.97194c1.27873,3.46034 3.35046,6.53745 4.47208,10.09654c1.46983,4.66402 1.57803,9.61159 2.26241,14.40401c0.11545,0.80849 0.50743,1.55789 0.65266,2.36156c0.39384,2.17933 0.04756,4.5856 0.63292,6.72532c0.32281,1.18 0.76924,2.33746 0.93079,3.55012l0.20202,0.98752c0,0 0.32572,1.62861 -1.30288,1.95434z" fill="#c5d8e2" stroke="none" stroke-width="0.5"/><path d="M451.63533,82.90845c-1.63407,-0.29711 -1.33697,-1.93117 -1.33697,-1.93117l0.30644,-1.63309c0.83064,-2.81345 1.30576,-5.71359 1.97283,-8.5613c0.24676,-1.05339 0.09548,-2.23947 0.61941,-3.18605c0.66051,-1.19335 1.45281,-2.75574 2.7971,-2.98659c0.76036,-0.13056 3.59455,2.40054 4.53617,3.13283c1.94446,1.51219 4.14281,2.72183 5.78949,4.57968c0.79361,0.89538 1.52511,1.83358 2.24711,2.77609l0.09665,-0.63014c0.70031,-2.62526 1.46091,-5.32887 1.81852,-8.02848c0.20364,-1.53715 -0.0365,-2.42304 0.56303,-3.88993c0.47261,-1.15637 0.53525,-2.89459 1.70301,-3.33834c0.96636,-0.36723 3.29342,2.06501 4.03263,2.84155c1.57056,1.64986 2.65308,3.39858 3.99082,5.21205c1.41126,1.91312 2.59672,3.02871 3.52852,5.28699c0,0 0.61683,1.54207 -0.92525,2.1589c-1.54207,0.61683 -2.1589,-0.92524 -2.1589,-0.92524c-1.03929,-2.70978 -3.48381,-5.52425 -5.33455,-7.8162c-0.49617,-0.61444 -1.21423,-1.07284 -1.80199,-1.61288c-0.08465,0.27818 -0.1665,0.49119 -0.17498,0.55141c-0.49824,3.53872 -1.10568,6.94387 -2.03128,10.41609l-0.09349,0.73701c0,0 -0.18379,1.28652 -1.36425,1.42094c0.65723,0.81488 1.3419,1.60762 2.0903,2.35165c0,0 1.17441,1.17441 0,2.3488c-1.17441,1.1744 -2.34882,0 -2.34882,0c-2.34746,-2.35964 -4.1138,-5.12624 -6.30377,-7.63559c-1.48604,-1.70276 -3.60034,-2.81196 -5.3715,-4.18966c-0.51108,-0.39756 -1.08112,-0.73916 -1.50358,-1.22986c-0.2956,-0.34334 -0.16964,-1.08794 -0.60369,-1.2178c-0.32172,-0.09624 -0.07438,0.66768 -0.12601,0.99949c-0.13825,0.88828 -0.24858,1.78261 -0.44354,2.66018c-0.64423,2.89989 -1.17495,5.85134 -2.01325,8.71165l-0.22504,1.29001c0,0 -0.29709,1.63406 -1.93117,1.33695z" fill="#c0d3dd" stroke="none" stroke-width="0.5"/><path d="M443.89388,115.15596c0,-8.14011 -0.20938,-16.31645 1.63698,-24.28985c0.76304,-3.29523 1.78125,-6.40045 3.92036,-9.049c0,0 1.05172,-1.28543 2.33715,-0.23372c1.28543,1.05172 0.23371,2.33716 0.23371,2.33716c-2.19935,2.64505 -2.91205,6.10514 -3.65028,9.40706c-1.58272,7.0789 -1.15617,14.61879 -1.15617,21.82837c-0.00451,1.87981 0.2685,3.63098 0.51689,5.49386l0.11377,0.55126c-0.8177,-0.56978 -1.53891,-1.21303 -2.11593,-1.94071c-0.42809,-0.52725 -1.05079,-1.0661 -1.70052,-1.51241c-0.08121,-0.85235 -0.1341,-1.70962 -0.13596,-2.59202z" fill="#c5d8e2" stroke="none" stroke-width="0.5"/><path d="M477.91225,89.86229c0.30196,-0.35817 0.63139,-0.6738 1.05863,-0.83826c0.88714,-0.34149 1.89902,0.09129 2.84853,0.13693c0.75055,0.42824 1.64105,0.67329 2.25167,1.28475c2.46659,2.47003 1.53709,7.47228 1.53543,10.61509c-0.0005,0.92957 0.08349,3.52954 -0.35932,4.25733c-2.54913,4.18957 -7.53307,1.60959 -8.97768,-1.93144c-0.32061,-0.78587 -0.31333,-3.45776 -0.27706,-4.31801c0.11165,-2.64936 0.38883,-5.35142 0.90495,-7.94911c0,0 0.19148,-0.95739 1.01488,-1.25726z" fill="#f1f5f7" stroke="none" stroke-width="0.5"/><path d="M466.33391,88.99406c1.61046,0.37013 2.99388,1.39928 4.27542,2.50062c0.52436,0.63738 1.23801,1.15785 1.5731,1.91213c0.91976,2.0703 0.31504,5.68249 0.1357,7.89785c-0.07621,0.94159 0.11527,1.99857 -0.36852,2.80994c-0.57602,0.96607 -1.57855,1.67415 -2.5938,2.15828c-3.01128,1.43595 -7.63292,-0.42743 -8.83462,-3.44929c-0.28196,-0.70902 -0.07346,-1.52445 -0.0899,-2.28728c-0.04143,-1.92259 0.0054,-4.00436 0.37738,-5.89666c0.15307,-0.77873 0.37556,-1.47772 0.65272,-2.13647l0.52349,-2.50974c0.46763,-0.24047 0.90116,-0.58106 1.37107,-0.81486c0.05011,-0.07558 0.10065,-0.15157 0.15153,-0.22801c0,0 0.92128,-1.38193 2.3032,-0.46066c0.23646,0.15763 0.40547,0.32877 0.52322,0.50414z" fill="#f1f5f7" stroke="none" stroke-width="0.5"/><path d="M468.82303,124.31286c0,-1.66087 1.66086,-1.66086 1.66086,-1.66086c1.74828,0 4.89517,0 6.64345,0c4.17661,0.00468 8.27768,-0.81061 12.42233,-1.21556c2.41422,-0.23588 5.52431,-0.66535 7.34047,-2.4502c1.12446,-1.10508 0.53494,-2.58445 0.60668,-4.02199c0.09652,-1.93465 0.16889,-2.89766 -0.58258,-4.72009c0,0 -0.00062,-0.00157 -0.00177,-0.0046c-4.6189,-0.57657 -9.27363,-0.39996 -13.85871,-1.44009c-2.22425,-0.50457 -4.63723,-1.09766 -6.36846,-2.68593c-1.52552,-1.39956 -2.50455,-3.58222 -3.34268,-5.41445c0,0 -0.68726,-1.51199 0.82473,-2.19927c1.51198,-0.68726 2.19925,0.82473 2.19925,0.82473c0.65742,1.45686 1.4131,3.23601 2.60145,4.3759c1.1984,1.14953 3.27083,1.50664 4.8205,1.85959c4.87185,1.10958 9.83758,0.79779 14.74549,1.55161l1.09669,0.64196c0,0 0.6957,0.69571 0.48071,1.55166c0.48262,1.28249 0.86542,2.63635 0.87986,4.00091c0.01446,1.36686 0.16849,4.48262 -0.24607,5.71864c-1.07844,3.21551 -4.24518,4.25373 -7.1318,4.9764c-5.19394,1.3003 -11.11258,1.96694 -16.48605,1.97246c-1.74828,0 -3.49654,0 -5.24482,0h-1.39863c0,0 -1.66086,0 -1.66086,-1.66087z" fill="#a1b9c7" stroke="none" stroke-width="0.5"/><path d="M489.51456,107.96037c-0.02242,-0.14272 -0.02891,-0.30091 -0.01543,-0.47625c0.12737,-1.65597 1.78335,-1.52859 1.78335,-1.52859c2.27213,0.17629 4.58517,0.31094 6.84554,0.52782c0.87041,0.08352 1.8823,-0.09891 2.59031,0.41423c2.43525,1.76501 2.44153,7.59591 -0.02632,9.28444c-0.74136,0.50724 -1.74978,0.43014 -2.64285,0.52682c-3.26846,0.3538 -5.86759,-1.21152 -7.51603,-3.98278c-0.6506,-1.09377 -1.79855,-3.2732 -1.01855,-4.76569z" fill="#131415" stroke="none" stroke-width="0.5"/><path d="M470.46197,95.29566c1.11681,1.53557 0.72251,5.88169 -1.66602,5.2894c-1.80827,-0.44838 -1.45562,-2.11728 -0.83902,-3.5882c-0.17314,-0.53934 -0.16276,-1.11313 0.37149,-1.60993c0.21249,-0.1976 0.41366,-0.34316 0.60314,-0.44295c0.12881,-0.19984 0.45562,-0.56411 1.02587,-0.3197c0.38358,0.16438 0.4918,0.43892 0.50452,0.67138z" fill="#2a2e30" stroke="none" stroke-width="0.5"/><path d="M482.38887,93.9354c0.78782,-0.26261 1.05042,0.52521 1.05042,0.52521l0.28778,0.8761c0.18247,1.41971 1.20022,4.88495 -1.24559,5.12753c-0.03276,0.00324 -0.06508,0.00553 -0.09699,0.00687c-0.25408,0.29721 -0.6013,0.4644 -1.07464,0.38438c-0.57668,-0.09749 -0.76177,-0.92459 -0.93964,-1.48173c-0.4638,-1.45294 0.47,-3.35289 1.49676,-4.23606c0,0 0.01374,-0.01099 0.03879,-0.02776l-0.04212,-0.12412c0,0 -0.26259,-0.78782 0.52521,-1.05042z" fill="#2a2e30" stroke="none" stroke-width="0.5"/><path d="M250.4298,40.29436c-1.52176,7.87562 -6.2118,14.65718 -9.02044,22.1445c-1.1986,3.72676 -3.92826,6.86453 -5.52185,10.44593c-0.7484,1.68194 -1.3227,4.57251 -2.37176,6.17687c-0.32734,0.50061 -0.96483,0.74415 -1.2958,1.24238c-2.01933,3.03988 -3.97755,7.02576 -5.37504,10.41025c-1.56752,3.79629 -3.22566,7.54977 -5.06545,11.25322c-1.56361,4.78239 -4.41228,9.35246 -6.44146,13.98624c-0.2892,0.66039 -0.51815,1.34735 -0.78341,2.01766c-0.44065,-0.75339 -0.85961,-1.52002 -1.29959,-2.27384c-1.19096,-2.0405 -2.79347,-4.19365 -3.83618,-6.27658c-0.58791,-1.17442 -0.82036,-2.56422 -1.33598,-3.77213c-0.80314,-2.38972 -1.84145,-4.65452 -2.88409,-6.91988c-2.18926,-4.75668 -3.40327,-10.01961 -6.04686,-14.60152c-0.28081,-0.48669 -0.81489,-0.80293 -1.06536,-1.30591c-0.86142,-1.72981 -0.61137,-4.41153 -3.13154,-5.16411c-1.37668,-0.41111 -2.91859,0.22341 -4.20985,0.8534c-0.84859,0.41401 -1.24872,1.40765 -1.89197,2.09883c-2.29255,2.46341 -4.29237,5.40917 -5.97365,8.32855c-4.72125,7.867 -9.98607,15.32583 -14.37873,23.39217c-0.45066,0.82756 -1.01197,1.67651 -1.53456,2.47891c-0.21314,-0.89266 -0.43672,-1.78157 -0.68706,-2.65707c-1.23333,-4.31335 -3.48653,-8.56988 -4.49652,-12.91137c-0.45875,-1.97196 -0.4243,-4.03636 -0.80828,-6.02423c-0.57365,-2.96972 -1.83359,-5.65189 -2.56369,-8.58386c-1.35487,-5.34 -3.95712,-10.1813 -5.67324,-15.37137c-1.04366,-3.15637 -1.93143,-6.35667 -3.1514,-9.45062c-1.16065,-2.94349 -3.20543,-5.47569 -4.57032,-8.32486c-0.99273,-2.07229 -2.00353,-4.09674 -3.08359,-6.09533c0.91846,0.01116 1.83992,0.01956 2.76956,-0.05656c1.38802,-0.11365 2.75153,-0.47212 4.14153,-0.55815c2.28591,-0.14147 5.11832,0.54627 7.15619,-0.84122c0.13199,-0.08986 -0.05429,0.36006 -0.017,0.51532c0.2675,1.11377 0.75491,2.1672 1.01022,3.28383c0.61031,2.66924 0.7836,5.28551 1.42784,7.94793c1.15978,4.04626 3.0034,7.74585 4.61739,11.5828c1.23041,2.92506 1.42669,6.21919 2.49105,9.1648c0.16043,0.44399 0.64787,0.73041 0.77294,1.18563c0.12284,0.44709 -0.14363,0.93109 -0.065,1.38804c0.38196,2.21977 1.54366,4.23546 1.93093,6.46734l-0.00039,1.51111c0,1.53689 1.24462,2.77912 2.78151,2.77912c0.8884,0 1.62251,-0.39243 2.132,-1.0406l1.10788,-1.38642l-0.11057,-0.08856c0.13058,-0.10232 0.258,-0.20901 0.38191,-0.32034c0.51311,-0.46104 0.42028,-1.31789 0.68799,-1.95362c0.47271,-1.12258 0.93676,-2.25285 1.40456,-3.3775c1.60088,-3.84871 3.64304,-7.59478 5.72348,-11.17956c2.13419,-3.67738 5.01269,-7.35981 7.85497,-10.54995c1.30461,-1.46428 2.41359,-2.65776 3.28164,-4.44633c0.48801,-0.45829 1.43778,-1.18329 2.22651,-1.90841c0.01374,0.02839 0.02712,0.05673 0.03994,0.08504c0.83136,1.83311 1.68977,3.58566 2.46425,5.46665c2.97041,7.21426 5.32337,14.79373 9.35082,21.50614c0.56963,1.74225 1.37547,3.3312 1.96472,5.06932l0.24954,0.20448l-0.10773,0.06477l0.81627,1.36312c0.48067,0.83365 1.32736,1.36407 2.35879,1.36407c1.2518,0 2.30859,-0.82247 2.65831,-1.95958l0.54105,-1.62324c0.44693,-0.72341 0.50949,-1.61931 0.80356,-2.41718c0.75967,-2.06117 1.87383,-3.97293 2.7377,-6.00163c0.70046,-1.64494 1.96961,-3.08199 2.76039,-4.66775c1.47952,-2.96691 2.33995,-6.28757 3.6813,-9.31791c2.25435,-5.09296 5.34172,-11.06838 8.99611,-15.27593c1.28865,-2.00891 3.28028,-2.90123 4.75398,-4.74605c0.46739,-0.58508 0.64606,-1.5236 1.28438,-1.91517c0.58369,-0.35807 2.07695,-0.13 2.42115,-0.15549c2.34102,-0.17339 4.67162,-0.23594 7.01601,-0.25853z" data-paper-data="{&quot;noHover&quot;:false,&quot;origItem&quot;:[&quot;Path&quot;,{&quot;applyMatrix&quot;:true,&quot;segments&quot;:[[[390.20354,41.44466],[7.57125,-0.56078],[-1.1132,0.08245]],[[382.37462,41.94937],[1.88775,-1.15804],[-2.06443,1.26642]],[[378.37325,48.01404],[1.51162,-1.89227],[-4.76624,5.96646]],[[362.99878,63.36447],[4.16771,-6.49717],[-11.81891,13.60796]],[[333.91396,112.78439],[7.29096,-16.47152],[-4.33816,9.80064]],[[322.01694,142.94209],[4.78501,-9.5955],[-2.55751,5.12863]],[[313.09238,158.05422],[2.2654,-5.32004],[-2.79389,6.56115]],[[304.23735,177.49194],[2.45691,-6.66619],[-0.95105,2.58044]],[[301.63573,185.32138],[1.44546,-2.33962],[0,0]],[[299.88318,190.57904],[0,0],[-1.13103,3.67762]],[[291.2794,196.92987],[4.04855,0],[-3.3358,0]],[[283.4771,192.41889],[1.55457,2.69616],[0,0]],[280.83469,188.01488],[281.18277,187.80603],[[280.37551,187.14513],[0,0],[-1.90572,-5.62136]],[[274.01187,170.78149],[1.84229,5.63471],[-13.02546,-21.7091]],[[243.85918,101.33906],[9.60682,23.33215],[-2.5048,-6.08343]],[[235.90106,83.65946],[2.68875,5.92858],[-0.04151,-0.09154]],[[235.77202,83.38442],[0.04443,0.09183],[-2.55088,2.34516]],[[228.58058,89.5559],[1.57829,-1.48219],[-2.80746,5.78454]],[[217.98555,103.93217],[4.21934,-4.73573],[-9.19242,10.31746]],[[192.63599,138.01023],[6.90231,-11.89328],[-6.72851,11.59381]],[[174.13977,174.1013],[5.17749,-12.44739],[-1.51293,3.63729]],[[169.59432,185.01039],[1.52884,-3.63063],[-0.86581,2.05609]],[[167.36702,191.32175],[1.65949,-1.49105],[-0.40074,0.36007]],[[166.13161,192.3571],[0.42231,-0.33091],[0,0]],[166.48904,192.64304],[[162.90461,197.12357],[0,0],[-1.64779,2.09628]],[[155.82485,200.56624],[2.87322,0],[-4.97056,0]],[[146.82485,191.56624],[0,4.97056],[0,0]],[[146.82485,186.67415],[0,0],[-1.25252,-7.2183]],[[140.57743,165.73515],[1.23532,7.17915],[-0.25429,-1.47785]],[[140.78778,161.24137],[0.39728,1.44598],[-0.4045,-1.47224]],[[138.28822,157.40312],[0.51886,1.43593],[-3.44231,-9.52659]],[[130.23721,127.73766],[3.97935,9.46016],[-5.21991,-12.40937]],[[115.31297,90.25785],[3.75092,13.08628],[-2.08358,-8.61072]],[[110.70198,64.5431],[1.97383,8.6328],[-0.82571,-3.61135]],[[107.43708,53.91985],[0.86514,3.60211],[-0.1206,-0.50212]],[[107.64304,52.38442],[0.42685,-0.29062],[-6.59083,4.48737]],[[84.50438,55.09792],[7.39302,-0.45755],[-4.49551,0.27823]],[[71.11263,56.89921],[4.48909,-0.36756],[-3.00662,0.24618]],[[62.15671,57.08008],[2.97047,0.03609],[3.49307,6.4638]],[[72.13262,76.78817],[-3.21066,-6.70215],[4.41431,9.21471]],[[86.91825,103.70297],[-3.75372,-9.51974],[3.94561,10.00637]],[[97.11557,134.25176],[-3.37539,-10.20826],[5.55022,16.78561]],[[115.46523,183.92887],[-4.38189,-17.27046],[2.36128,9.48248]],[[123.75054,211.66782],[-1.85528,-9.60458],[1.24189,6.42913]],[[126.35815,231.13791],[-1.48368,-6.37767],[3.26647,14.0411]],[[140.88145,272.87184],[-3.98878,-13.95012],[0.80962,2.83153]],[[143.09975,281.46202],[-0.68934,-2.887],[1.69017,-2.5951]],[[147.9354,273.59899],[-1.45752,2.67647],[14.20663,-26.08793]],[[194.42224,197.92722],[-15.26933,25.44324],[5.43755,-9.44177]],[[213.72451,170.95174],[-7.41452,7.96708],[2.08037,-2.23541]],[[219.84212,164.13265],[-2.74447,1.33899],[4.17617,-2.03749]],[[233.49282,161.30709],[-4.4524,-1.3296],[8.15064,2.43398]],[[243.73065,178.17436],[-2.78599,-5.59448],[0.81008,1.6267]],[[247.18145,182.39498],[-0.90817,-1.57405],[8.54982,14.81868]],[[266.72874,229.62371],[-7.08045,-15.38392],[3.37205,7.32656]],[[276.05553,252.00418],[-2.5975,-7.72876],[1.6676,3.9066]],[[280.29535,264.02106],[-1.90141,-3.7983],[3.37229,6.73657]],[[292.69995,284.32162],[-3.85176,-6.59932],[1.42296,2.438]],[[296.90257,291.67583],[-1.42512,-2.43661],[0.85792,-2.1679]],[[299.43288,285.15206],[-0.9353,2.13583],[6.56273,-14.98646]],[[320.23721,239.94027],[-5.05701,15.46707],[5.95019,-11.9776]],[[336.60085,203.57663],[-5.06963,12.27785],[4.51969,-10.94599]],[[353.97822,169.94021],[-6.53085,9.83151],[1.07039,-1.61136]],[[358.169,165.92557],[-1.05868,1.61908],[3.39285,-5.18879]],[[365.8409,145.96386],[-2.42045,5.43965],[5.15396,-11.58289]],[[383.70448,112.19901],[-3.87648,12.05298],[9.08362,-24.21528]],[[412.89066,40.60348],[-4.92165,25.47112],[-7.58217,0.07306]]],&quot;closed&quot;:true}]}" fill="#b9cbd5" stroke="#b9cbd5" stroke-width="1"/><path d="M282.89243,75.44147l0.86241,0.0002c2.72,0 6.06578,-0.48132 8.6401,0.62999c2.6991,1.16518 5.40239,3.41756 7.51276,5.46499c1.63007,2.71679 3.52828,5.04498 4.80663,8.00467c0.9609,2.22471 0.62865,4.86493 0.62865,7.20313c0,4.58546 -0.24461,9.07645 -1.58754,13.5002c-0.88351,2.91042 -2.82052,5.40757 -4.31193,8.00044c-2.71358,4.13436 -7.29665,7.83074 -12.47425,8.14642c-2.39364,0.14594 -4.83959,-0.00814 -7.23921,-0.00814c-5.73573,0 -11.57133,-0.5911 -16.67025,-3.44175c-2.92679,-2.94097 -6.12122,-4.48212 -8.49381,-8.12842c-3.12074,-4.79609 -3.02913,-10.02655 -3.03638,-15.48159c-0.00337,-2.53299 0.02254,-5.48031 0.95687,-7.87952c0.70705,-1.8156 2.07185,-3.67749 3.03993,-5.31723c2.596,-2.596 4.51961,-6.0637 7.33174,-8.46853c3.67379,-3.14169 8.05238,-3.08652 12.55973,-3.08652c1.79533,0 3.58841,-0.05845 5.37016,0.02296c0.84224,0.83834 2.10437,0.83869 2.10437,0.83869zM290.16745,96.94166c-1.98473,-3.96946 -6.15618,-6.61376 -10.62878,-6.74717c-0.01997,-0.0006 -0.03981,-0.00218 -0.0595,-0.00472c-0.39232,-0.46105 -0.84972,-0.86503 -1.35799,-1.19772c-0.09846,-0.09878 -0.19691,-0.18207 -0.29651,-0.23809c-2.44723,-1.37658 -4.97822,-0.75219 -7.4319,0c-1.56029,0.47831 -2.34735,2.82832 -3.30026,4.16762c-2.89131,4.06369 -3.92185,8.71407 -2.13498,13.71731c2.42739,6.79672 11.28864,7.93973 17.29471,6.43822c1.33555,-0.33389 2.30978,-2.40332 3.4317,-3.31798c4.52265,-3.68719 6.00538,-6.94124 4.54513,-12.78226z" data-paper-data="{&quot;noHover&quot;:false,&quot;origItem&quot;:[&quot;Path&quot;,{&quot;applyMatrix&quot;:true,&quot;segments&quot;:[[[510.98877,153.36649],[2.66665,2.6543],[-5.64129,-0.25777]],[[494.00667,153.29351],[5.68426,0],[-14.27089,0]],[[454.28553,163.04913],[11.63175,-9.94706],[-8.9036,7.61404]],[[431.10052,189.83222],[8.21928,-8.21928],[-3.06509,5.19164]],[[421.48535,206.64713],[2.23864,-5.74844],[-2.95825,7.59626]],[[418.46122,231.56624],[-0.01067,-8.0198],[0.02297,17.27144]],[[428.06075,280.52744],[-9.88072,-15.18512],[7.51195,11.54468]],[[454.92416,306.23206],[-9.26662,-9.31153],[16.14392,9.02555]],[[507.64304,317.11169],[-18.16011,0],[7.59752,0]],[[530.53707,317.14236],[-7.57858,0.46206],[16.39301,-0.99947]],[[569.98718,291.38011],[-8.59157,13.08997],[4.72204,-8.20944]],[[583.62239,266.07818],[-2.79734,9.21479],[4.25188,-14.00623]],[[588.64304,223.38442],[0,14.51822],[0,-7.40308]],[[586.65938,200.60298],[3.04234,7.04375],[-4.04745,-9.37081]],[[571.45828,175.28677],[5.16104,8.60173],[-6.68172,-6.48247]],[[547.6972,158.00444],[8.54572,3.68912],[-8.15065,-3.51857]],[[520.37031,156.02078],[8.61193,0],[0,0]],[517.64304,156.02078]],&quot;closed&quot;:true}]}" fill="#b9cbd5" stroke="none" stroke-width="0.5"/><path d="M345.86631,74.54199l1.20821,-0.0001c3.23359,-0.0152 5.42028,1.25632 8.4185,2.2616c2.06574,0.69262 4.61033,0.9679 6.52079,1.9361c2.87008,1.45451 6.07633,4.12897 8.31721,6.40556c1.5752,1.52352 2.37757,3.45783 3.41881,5.36549c0.73883,1.35359 1.88085,2.89772 2.08478,4.47673c0.56073,4.34159 0.06331,9.63796 -1.12739,13.78573c-1.37737,4.79801 -2.6698,8.39063 -6.67414,11.59411c-0.71206,0.70859 -1.2448,1.63824 -2.09842,2.16783c-6.99166,4.33763 -14.62802,3.71631 -22.4844,3.71631c-4.26535,0 -8.51423,0.65457 -12.29219,-1.65397c-2.07323,-1.38335 -4.31583,-2.70738 -5.86631,-4.72445c-0.83041,-1.0803 -1.24952,-2.43942 -2.05288,-3.54c-1.36687,-1.87256 -2.77633,-4.10806 -3.10075,-6.53517c-0.26186,-1.95911 0.0272,-4.25584 0.0272,-6.22896c0,-1.16915 -0.20784,-2.35604 -0.02918,-3.51145c0.53925,-3.48735 1.98594,-6.76782 3.07614,-10.03844c1.22756,-2.04593 1.46848,-4.82352 2.96326,-6.65758c0.89116,-1.09343 1.98422,-2.54966 3.10758,-3.4097c0.56095,-0.42946 1.28155,-0.65228 1.78406,-1.14887c0.41703,-0.41213 0.50304,-1.08411 0.90655,-1.50949c0.791,-0.83387 2.74954,-1.94928 3.86233,-2.37199c1.39066,-0.52827 2.97251,-0.3885 4.38616,-0.85173c0.49214,-0.16127 0.81419,-0.68564 1.30802,-0.8417c0.43975,-0.13896 1.04006,-0.16937 1.69107,-0.1491c0.78552,1.46366 2.64499,1.46324 2.64499,1.46324zM358.40806,93.73927c-0.55021,-0.64191 -0.96496,-1.4121 -1.34369,-2.21171c-0.25621,-1.63941 -1.11258,-3.07994 -2.33728,-4.0898c-0.26641,-0.26309 -0.56357,-0.49429 -0.90103,-0.68412c-3.65752,-2.05739 -6.85918,-0.09866 -10.02023,1.48186c-5.82126,2.91063 -13.3582,4.20992 -13.69935,12.5254c-0.07757,1.89054 -0.26792,5.67562 0.47689,7.91003c2.16086,6.48259 8.97772,7.64538 14.89015,8.23082c4.02987,0.39903 8.15386,0.57869 11.3274,-2.14147c1.47218,-1.26188 1.90488,-4.21849 2.4607,-6.02537c0.3673,-1.19402 1.48373,-1.73226 1.79883,-2.99269c1.07534,-4.30137 -0.96799,-6.91674 -1.18046,-10.74131z" data-paper-data="{&quot;noHover&quot;:false,&quot;origItem&quot;:[&quot;Path&quot;,{&quot;applyMatrix&quot;:true,&quot;segments&quot;:[[[714.15758,152.54538],[2.36729,4.41097],[-1.96193,-0.06111]],[[709.06735,152.99343],[1.32525,-0.4188],[-1.48823,0.47031]],[[705.1307,155.52858],[1.48317,-0.48602],[-4.26026,1.39603]],[[691.92728,158.08945],[4.19096,-1.59204],[-3.35356,1.27393]],[[680.30163,165.22941],[2.38381,-2.513],[-1.21604,1.28194]],[[677.57436,169.77486],[1.2568,-1.242],[-1.51437,1.49654]],[[672.20365,173.23202],[1.69052,-1.29425],[-3.38542,2.59186]],[[662.8497,183.49507],[2.68565,-3.29523],[-4.50477,5.52725]],[[653.93247,203.53525],[3.69945,-6.16575],[-3.28551,9.85654]],[[644.66886,233.75012],[1.62511,-10.5097],[-0.53843,3.48203]],[[644.75585,244.31999],[0,-3.52341],[0,5.94632]],[[644.66886,263.07168],[-0.78916,-5.90411],[0.97767,7.31449]],[[654.00249,282.74479],[-4.11927,-5.64328],[2.42104,3.31675]],[[660.18094,293.4025],[-2.50257,-3.25567],[4.67264,6.07877]],[[677.84132,307.62399],[-6.24799,-4.16895],[11.38548,6.95717]],[[714.84676,312.59272],[-12.85436,0],[23.67648,0]],[[782.52838,301.41284],[-21.07048,13.07214],[2.57252,-1.59599]],[[788.84447,294.88657],[-2.1459,2.13545],[12.06776,-9.65421]],[[808.93295,259.98552],[-4.15094,14.45958],[3.5884,-12.49999]],[[812.32661,218.48891],[1.68985,13.0841],[-0.61459,-4.7586]],[[806.04822,205.01451],[2.22657,4.07927],[-3.13796,-5.74902]],[[795.75553,188.86577],[4.74712,4.59136],[-6.75327,-6.86088]],[[770.71855,169.59009],[8.64947,4.38341],[-5.75748,-2.9178]],[[751.09162,163.76723],[6.22543,2.08733],[-9.03566,-3.02958]],[[725.75585,156.95636],[9.74493,-0.04581],[0,0]],[722.11949,156.95636]],&quot;closed&quot;:true}]}" fill="#b9cbd5" stroke="none" stroke-width="0.5"/><path d="M395.95248,128.41479c-0.09981,-2.2464 -0.33138,-4.49395 -0.50873,-6.72795c-0.61343,-7.72709 -0.00167,-15.78292 -0.00167,-23.54135c0,-6.22757 -0.40711,-12.72094 2.44808,-18.42539c0.06035,-0.12057 1.06666,-2.24126 1.34414,-2.50691c0.71523,-0.68476 1.65579,-1.09385 2.45422,-1.67948c0.40175,-0.29468 1.89241,-1.31667 2.49586,-1.51137c1.96837,-0.63508 4.35252,-0.64893 6.39462,-0.98928c6.32171,-0.9031 12.82216,-0.52079 19.21258,-0.50885c0.06249,1.66694 0.21095,3.42692 0.0047,5.02018c-0.0655,0.50599 0.05906,1.29243 -0.38751,1.53919c-1.48868,0.82259 -4.80403,0.21005 -6.44031,0.21005c-4.98762,0 -9.87622,0.18178 -14.81017,0.89562c-3.5507,1.17587 -9.36315,4.16632 -5.40821,9.03569c1.01213,1.24614 3.71916,1.03224 5.20983,1.03627c2.27414,0.00616 4.56755,-0.00194 6.8417,-0.00194c1.23121,0 2.85944,-0.25671 4.06137,0.14043c1.00594,0.33238 1.35558,0.88011 2.22534,1.5145c2.18094,1.5908 4.03199,2.38294 3.67855,5.26589c-0.42633,0.87268 -2.10664,0.3705 -2.90584,0.37975c-2.27844,0.02639 -4.41309,-0.69164 -6.63733,-1.03942c-0.29001,-0.04534 -3.20236,-0.03171 -3.69612,-0.03171c-4.14686,0 -8.75917,-0.32869 -10.55404,4.40165c-0.32157,0.84749 -0.09864,1.80363 -0.12038,2.70982c-0.07109,2.96463 0.66508,5.92911 1.16424,8.84246c1.02927,3.08782 0.72906,6.19448 0.72906,9.42162c0,2.19008 0.18755,4.52777 -0.17985,6.68175c-0.06438,0.37747 -0.77254,-0.11824 -1.15531,-0.12905c-0.54559,-0.01541 -1.09302,-0.00061 -1.63882,-0.00061c-1.27235,0 -2.54765,-0.00154 -3.82,-0.00154z" data-paper-data="{&quot;noHover&quot;:false,&quot;origItem&quot;:[&quot;Path&quot;,{&quot;applyMatrix&quot;:true,&quot;segments&quot;:[[[896.01363,325.45603],[-4.11501,0],[1.76523,0]],[[901.3093,325.45603],[-1.76452,-0.04984],[1.23793,0.03497]],[[904.97507,326.06047],[-0.20823,1.22079],[1.18824,-6.96635]],[[905.54849,304.4472],[0,7.08309],[0,-10.43711]],[[903.16604,273.96001],[3.32885,9.98655],[-1.61439,-9.42229]],[[899.3702,245.31216],[-0.22993,9.58812],[0.07028,-2.93077]],[[899.75637,236.52582],[-1.04001,2.74093],[5.80491,-15.29875]],[[933.96596,222.19036],[-13.41168,0],[1.59695,0]],[[945.99896,222.30658],[-0.93796,-0.14666],[7.19357,1.12476]],[[967.50524,225.72081],[-7.36887,0.08536],[2.58474,-0.02994]],[[976.71176,224.55031],[-1.37883,2.82238],[1.14308,-9.32396]],[[964.8408,207.56389],[7.05354,5.14489],[-2.81293,-2.05177]],[[957.66114,202.67948],[3.25336,1.07497],[-3.88723,-1.28441]],[[944.55732,202.23802],[3.98193,0],[-7.35501,0]],[[922.492,202.23802],[7.35498,0.0199],[-4.82109,-0.01304]],[[905.53669,198.71937],[3.27338,4.03025],[-12.79093,-15.74841]],[[923.07206,169.47437],[-11.48358,3.80296],[15.95724,-2.30868]],[[971.03569,166.58577],[-16.1308,0],[5.29202,0]],[[991.88252,165.91756],[-4.81466,2.66037],[1.4443,-0.79806]],[[993.01412,161.09827],[-0.21184,1.63646],[0.66705,-5.15286]],[[993.00651,144.86729],[0.2021,5.39116],[-20.66774,-0.03862]],[[930.92919,146.52758],[20.44549,-2.92078],[-6.60451,1.10075]],[[910.27079,149.72273],[6.36606,-2.05395],[-1.95163,0.62967]],[[902.20851,154.60714],[1.29933,-0.95304],[-2.58225,1.89404]],[[894.28088,160.03401],[2.31318,-2.21463],[-0.89742,0.85919]],[[889.94167,168.13673],[0.19518,-0.38995],[-9.23418,18.44917]],[[882.0657,227.65991],[0,-20.14104],[0,25.0921]],[[882.03503,303.70488],[-1.98392,-24.99072],[0.57358,7.22515]],[[883.66859,325.45603],[-0.3228,-7.26527],[4.11501,0]]],&quot;closed&quot;:true}]}" fill="#b9cbd5" stroke="#b9cbd5" stroke-width="1"/><path d="M183.40245,199.78558c0.97895,-1.63159 2.61053,-0.65264 2.61053,-0.65264l1.04028,0.62918c1.78852,1.50736 3.58511,1.33886 5.81789,1.33886c2.14502,0 4.68708,0.3901 6.78594,0.02456c0.82942,-0.14445 1.60836,-0.50143 2.42498,-0.70621c2.62098,-0.74933 5.27263,-1.2982 7.78774,-2.34569c1.24736,-0.51949 2.37669,-1.33402 3.56229,-1.97227c3.91186,-2.10591 7.07669,-4.79989 9.84757,-8.26348c0.42284,-0.52855 0.95808,-0.97614 1.2984,-1.56123c0.81397,-1.71654 0.32031,-4.02888 0.17107,-5.88096c-0.05599,-0.69488 0.14031,-1.40499 0.01808,-2.09133c-0.19501,-1.09501 -0.70771,-2.04337 -1.05089,-3.07513c-0.11006,-0.3309 -0.02481,-0.71153 -0.15664,-1.03438c-1.22596,-3.00248 -4.80585,-5.04174 -7.82245,-5.54451c-2.16559,-0.72187 -4.3689,-0.50369 -6.63207,-0.50369c-3.28143,0 -6.64754,-0.22953 -9.91935,-0.00648c-2.09685,0.14295 -4.15507,0.47027 -6.24872,0.73604c-0.52706,0.0669 -1.0904,0.40759 -1.58086,0.20331c-0.09304,-0.03876 -0.18433,-0.08068 -0.27409,-0.12539l-0.01661,0.09962l-1.08873,-0.18145c-0.91715,-0.13623 -1.62079,-0.92694 -1.62079,-1.88199c0,-0.96909 0.72446,-1.76896 1.66135,-1.88757l1.27849,-0.18264c2.03911,-0.28896 4.48585,-0.44724 6.45162,-1.06195c0.5015,-0.15682 0.94485,-0.48756 1.45862,-0.5977c0.46445,-0.09957 0.95436,0.04483 1.42485,-0.02047c1.71238,-0.23762 3.6671,-0.90586 5.19752,-1.68349c1.41545,-0.70562 2.33042,-1.34892 3.42405,-2.44254c0.4454,-0.4454 1.04375,-0.7883 1.31557,-1.35652c1.22522,-2.56121 -0.24502,-4.98131 -1.81715,-6.9173c-0.356,-0.43839 -0.82474,-1.13191 -1.37012,-1.43723c-1.51542,-0.84839 -3.65417,-1.43015 -5.36636,-1.40882c-5.53053,0 -11.23427,-0.42532 -16.71133,0.35407c-2.02876,0.2887 -4.63503,0.50461 -6.38086,1.61395c0,0 -1.63159,0.97896 -2.61054,-0.65263c-0.97895,-1.63159 0.65264,-2.61053 0.65264,-2.61053c2.29934,-1.33267 5.18438,-1.7429 7.80059,-2.11802c5.65821,-0.8113 11.5367,-0.39231 17.24951,-0.39231c2.36705,0.02026 5.24793,0.71324 7.3223,1.94995c1.11093,0.66232 1.55541,1.31492 2.36185,2.29472c2.5025,3.04053 4.25725,7.13454 2.28801,10.99611c-1.09688,2.15093 -3.17439,3.72513 -5.28712,4.91153c0.13523,0.00018 0.27048,0.00028 0.4057,0.00028c2.5694,0 5.08199,-0.20657 7.54938,0.61589c4.34316,0.72386 8.64916,3.78442 10.46416,7.89054c0.16496,0.3732 0.0873,0.81778 0.21657,1.2048c0.40124,1.20131 0.98387,2.35779 1.18829,3.64239c0.16975,1.06674 -0.0666,1.40799 0.01808,2.38702c0.23848,2.75692 0.48739,5.3201 -0.57533,7.92729c-2.97022,4.87467 -7.75864,8.76531 -12.73858,11.44746c-1.30126,0.70084 -2.53217,1.56208 -3.90163,2.13288c-2.66819,1.11212 -5.48191,1.71268 -8.25969,2.50585c-0.94062,0.2344 -1.84286,0.63151 -2.79976,0.78658c-1.98663,0.32193 -4.25951,0.02457 -6.27592,0.02457c-1.6421,0 -3.69583,0.28509 -5.28871,-0.0509c-1.29369,-0.27289 -2.79406,-1.1772 -3.82125,-1.96901l-0.8257,-0.49042c0,0 -1.63158,-0.97895 -0.65263,-2.61053z" fill="#c5d8e2" stroke="none" stroke-width="0.5"/><path d="M157.81871,82.61052l-6.55322,-16.50441l11.16476,-3.15527l5.58238,16.50442z" fill="#d6e1e6" stroke="none" stroke-width="0"/><path d="M184.10105,199.23498c1.90274,0 1.90274,1.90274 1.90274,1.90274l-0.02589,0.49941c-0.17463,1.04781 -0.30565,1.99068 -0.34731,3.04595c-0.01344,0.3404 -0.46381,1.00715 -0.12321,1.01454c0.79679,0.01731 2.27522,0.10987 3.00061,0.31862c0.79728,0.22943 1.41904,0.97686 2.24218,1.08042c1.14604,0.14418 2.45681,-0.02457 3.61377,-0.02457c2.98557,0 5.97113,0 8.9567,0c1.98627,0.00482 3.7773,-0.4454 5.70723,-0.728c0.53432,-0.07825 1.80424,0.02152 2.4083,-0.01603c1.54761,-0.09618 2.82752,-0.51809 4.34065,-0.73449c2.05242,-0.29353 4.08268,-0.5517 5.83746,-1.89428c1.02203,-0.78195 1.83737,-1.87799 2.73929,-2.7739c0.93204,-0.92583 1.78152,-1.24802 2.40899,-2.36669c1.05089,-1.30078 2.59463,-2.22752 3.56399,-3.57167c1.36535,-1.89326 2.25274,-4.19701 3.14445,-6.33313c0.30555,-0.73197 0.67831,-1.45327 0.8205,-2.2336c0.67939,-3.72842 -0.02841,-7.49917 -0.54125,-11.15573c-0.48908,-1.43421 -0.70695,-3.08401 -1.24679,-4.46372c-0.18273,-0.46699 -0.56873,-0.83725 -0.7464,-1.30618c-0.25283,-0.66729 -0.19324,-1.43632 -0.496,-2.08249c-0.78737,-1.68046 -2.25947,-4.01494 -3.91425,-4.94743c-1.85961,-1.04791 -3.77938,-1.55006 -5.73956,-2.09775v0.12913h-1.30618v0c-1.05086,0 -1.90275,-0.85189 -1.90275,-1.90275c0,-0.45517 0.15983,-0.87301 0.42641,-1.20046l0.73693,-0.92116c0.45393,-0.56276 0.81499,-1.19475 1.2407,-1.77915c0.22338,-0.30665 1.08837,-1.12099 1.21923,-1.67627c0.25243,-1.07113 0.34594,-3.04399 0.00864,-4.11851c-0.28991,-0.92355 -1.07697,-1.79416 -1.53115,-2.63728c-1.40444,-2.60715 -2.78025,-4.46211 -5.23968,-6.09722c-0.45031,-0.36185 -0.82912,-0.87353 -1.3795,-1.04903c-1.66192,-0.52994 -4.18413,-0.07326 -5.89431,-0.07693c-3.33529,-0.00716 -6.7337,0.43921 -9.99898,0.91459c-2.48036,0.36111 -5.21555,0.20499 -7.72784,0.20499c-2.79896,0 -5.59795,0.00413 -8.39691,0c-1.16152,-0.00171 -1.48476,-0.06257 -2.60507,0.14816c-0.24642,0.04635 -0.47876,0.17415 -0.72163,0.22895c0.14959,0.54252 -0.01532,1.86555 -0.00178,2.04157c0.11368,1.47823 0.74919,3.01113 1.21502,4.40679c0,0 0.60171,1.8051 -1.20339,2.4068c-1.8051,0.6017 -2.4068,-1.2034 -2.4068,-1.2034c-0.83875,-2.51934 -1.61292,-5.00292 -1.40382,-7.69242c0.05353,-0.68854 -0.11131,-1.46665 0.24697,-2.05706c0.67582,-1.11365 2.34575,-1.61734 3.51445,-1.85982c3.69295,-0.76621 8.00234,-0.22503 11.76296,-0.22503c1.59794,0 3.13259,-0.07847 4.71667,-0.18181c0.82603,-0.05388 1.66648,0.14767 2.48334,0.01361c3.42175,-0.56158 7.02835,-0.94457 10.5268,-0.95138c2.19735,-0.00428 5.05435,-0.42048 7.16755,0.29626c0.85576,0.29025 1.6569,1.00919 2.35246,1.56334c2.90444,1.94138 4.67233,4.25913 6.32939,7.33784c0.59165,1.09925 1.45898,2.12323 1.82762,3.33384c0.52468,1.72309 0.49099,4.62127 0.00864,6.33098c-0.28401,1.00671 -0.96196,2.02107 -1.6926,2.96506c0.09985,0.01673 0.16519,0.02777 0.18058,0.03054c2.11727,0.38063 4.74696,1.63786 6.36751,3.07144c4.24864,3.75842 5.25598,9.12153 6.92719,14.22908c0.19651,1.35236 0.68599,2.64977 0.79082,4.01217c0.20952,2.72333 0.30248,6.02283 -0.21247,8.71664c-0.52017,2.72121 -1.95885,5.6247 -3.43472,7.94543c-0.43866,0.68976 -0.70132,1.48781 -1.18384,2.14764c-0.98895,1.35238 -2.50314,2.21683 -3.52673,3.51906c-0.79564,1.26838 -1.7885,1.82269 -2.81576,2.85805c-2.4253,2.44443 -4.88648,4.68896 -8.36409,5.55286c-0.80096,0.19897 -1.64832,0.11189 -2.46535,0.22844c-1.58385,0.22596 -2.98313,0.65575 -4.61605,0.75829c-0.68867,0.04325 -1.3891,-0.12763 -2.07004,-0.01602c-2.09587,0.34352 -4.07896,0.76033 -6.23505,0.76478c-2.98557,0 -5.97114,0 -8.9567,0c-1.33288,0 -2.91361,0.19584 -4.22334,-0.02457c-0.93849,-0.15793 -1.69358,-0.89981 -2.60937,-1.15876c-0.3603,-0.10188 -0.75245,0.09564 -1.1226,0.03918c-2.05905,-0.31414 -3.66458,-0.82474 -4.50188,-3.00617c-0.601,-1.56581 0.04994,-4.11077 0.31744,-5.71574l-0.02589,0.12621c0,0 0,-1.90274 1.90274,-1.90274z" fill="#c5d8e2" stroke="none" stroke-width="0.5"/><path d="M277.37618,141.02313c-0.56154,0.62659 -1.46892,0.62659 -1.46892,0.62659c-5.63529,0 -11.24572,3.16822 -15.64292,6.51659c-1.34862,1.02694 -3.76985,2.58674 -4.83206,4.0757c-0.39954,0.56006 -0.59497,1.24077 -0.90527,1.85477c-0.42926,1.21465 -1.21117,1.92221 -1.70862,3.05249c-0.91501,2.07906 -1.63032,4.36711 -2.34934,6.52416c-0.41035,1.23102 -0.98132,2.44104 -1.25038,3.7137c-0.838,3.96376 -0.69149,7.92282 -0.71103,11.9483c0.30279,1.77353 0.67099,4.05441 1.49238,5.6653c0.3699,0.72544 0.96533,1.32412 1.31058,2.06162c0.31811,0.67952 0.56536,1.73145 1.00868,2.41382c0.93542,1.43982 2.20837,2.6684 3.16183,4.08918c2.00912,2.99384 4.24162,5.33689 7.06014,7.57939c3.11441,2.54638 6.98417,3.15698 10.84151,3.70811c5.41697,0.77397 11.04533,0.3533 16.51936,0.3533c2.01746,0.08266 3.20161,-1.22651 5.01837,-2.07811c4.21073,-1.97376 7.90396,-5.41399 10.35929,-9.36011c1.36047,-2.1865 1.74137,-4.8324 2.76234,-7.16003c0.12922,-0.70694 0.54501,-1.3334 0.73867,-2.02547c0.18088,-0.64642 -0.10778,-1.34266 -0.06668,-2.01265c0.06187,-1.00862 0.11179,-2.0181 0.18903,-3.02567c0.19517,-2.54613 0.33902,-5.16939 0.18829,-7.73189c-0.08354,-1.4203 -0.66454,-2.9297 -1.05019,-4.28991c-0.69001,-2.43366 -0.91571,-4.45244 -2.2305,-6.64375c-1.62756,-2.71259 -3.42359,-5.17758 -5.54756,-7.52166c-0.63662,-0.70258 -1.5179,-1.14624 -2.19,-1.81495c-3.49964,-3.4819 -7.40324,-6.9307 -12.01942,-8.8968c-1.60184,-0.53129 -3.38484,-1.43752 -5.07868,-1.56166c-1.18484,-0.08683 -2.39145,-0.08415 -3.5989,-0.06031zM271.67537,138.30524c0.28417,-0.29781 0.582,-0.44673 0.582,-0.44673l1.59732,-0.57408c2.4463,0 4.99982,-0.21252 7.43426,0.00649c2.08272,0.18737 4.14655,1.13736 6.11721,1.7971c5.10896,2.19967 9.48489,5.86775 13.3579,9.76299c0.7016,0.70562 1.61256,1.18662 2.28835,1.91701c2.31756,2.50481 4.26624,5.22711 6.02152,8.15257c1.23101,2.05168 1.82587,3.86847 2.28823,6.21113c0.41945,2.12524 1.3639,4.18805 1.52179,6.36657c0.1987,2.74171 0.02558,5.58907 -0.1849,8.31554c-0.13894,1.79976 0.15985,4.02705 -0.25086,5.78436c-0.16781,0.71804 -0.64715,1.35009 -0.75412,2.07968c-1.13243,2.6949 -1.66804,5.61398 -3.2088,8.141c-2.79447,4.58326 -7.17467,8.53666 -12.03246,10.79248c-1.42311,0.66085 -2.87362,2.018 -4.43416,2.34935c-0.69033,0.14658 -1.41103,0.03393 -2.11654,0.0509c-9.65711,0 -21.62991,1.49096 -29.73813,-4.89531c-3.1051,-2.49552 -5.66224,-5.13433 -7.8677,-8.46805c-0.94831,-1.43343 -2.26336,-2.6553 -3.1825,-4.12113c-0.54336,-0.86655 -0.80815,-1.87938 -1.23049,-2.81093c-0.33349,-0.73558 -0.94441,-1.31926 -1.3018,-2.04354c-1.01606,-2.05912 -1.49733,-4.77506 -1.86638,-7.02336c-0.01723,-4.3843 -0.15217,-8.74246 0.78176,-13.05583c0.63984,-2.95512 1.98512,-5.86689 3.06794,-8.67627c0.17882,-0.46396 0.62278,-1.98376 0.79626,-2.35805c0.52693,-1.13691 1.28698,-1.72993 1.65015,-2.91864c0.13529,-0.27293 1.20085,-2.44259 1.33391,-2.62359c1.34183,-1.82524 3.89351,-3.56687 5.61742,-4.881c3.96182,-3.02006 8.72589,-5.77107 13.71283,-6.83066z" fill="#c5d8e2" stroke="none" stroke-width="0.5"/><path d="M278.28774,154.62929c-2.04904,0.07677 -3.97094,0.82261 -5.94321,1.90009c-0.79084,0.43205 -1.96744,0.82677 -2.64907,1.44412c-0.34538,0.31282 -0.52855,0.7937 -0.9102,1.06107c-0.3732,0.26145 -0.88274,0.25494 -1.28193,0.47465c-0.60661,0.33386 -1.217,1.32009 -1.63309,1.73579c-0.62463,0.62405 -1.30145,1.21297 -1.8068,1.93702c-0.9417,1.40982 -0.76738,3.40204 -1.01705,5.03222c-0.34493,2.25218 -0.35082,4.51744 -0.35082,6.79976c0,0.6955 -0.1851,1.40816 -0.03053,2.08628c0.67654,2.96813 2.82216,5.42813 4.45081,7.90329c1.37081,1.34856 2.8718,3.02822 4.44681,4.10907c0.36205,0.24847 0.8379,0.28236 1.21742,0.50322c1.97225,1.14771 3.95129,2.3537 6.21092,2.96091c1.75698,0.47214 3.88468,0.50396 5.68637,0.50048c1.41562,-0.00274 3.09112,0.27668 4.42967,-0.19912c1.23912,-0.75939 3.10843,-1.95607 3.78861,-3.28579c1.98559,-3.88169 2.82149,-8.29614 2.57412,-12.74202c-0.14532,-2.61181 -1.32137,-4.9838 -1.75742,-7.5291c-1.24402,-2.07229 -2.12824,-4.51123 -3.50646,-6.46944c-0.5121,-0.72761 -1.2407,-1.2787 -1.80352,-1.96784c-0.6651,-0.81437 -1.1368,-2.03853 -1.97623,-2.7106c-1.64711,-1.31871 -4.10202,-2.56626 -6.22712,-2.52876h-0.1866c0,0 -1.25175,0 -1.72469,-1.01528zM284.20105,152.54875c6.4123,2.30704 9.94115,9.76786 13.08671,15.46937c0.54618,2.86059 1.811,5.57136 1.97453,8.51833c0.27982,5.04273 -0.53942,10.51024 -3.02382,14.87448c-1.18706,2.08526 -3.52703,3.72955 -5.54129,4.92453c-2.02293,0.65681 -3.91369,0.55094 -6.01981,0.54728c-2.12571,-0.0037 -4.5598,-0.07061 -6.6291,-0.61911c-2.61532,-0.69323 -4.94227,-2.04924 -7.22414,-3.38342c-0.43885,-0.25659 -0.97791,-0.32567 -1.39495,-0.61637c-1.87466,-1.30676 -3.65176,-3.22327 -5.25629,-4.84764c-2.01831,-2.99394 -4.50248,-5.99671 -5.25228,-9.63692c-0.24338,-1.18161 -0.03054,-2.67346 -0.03054,-3.88486c0,-2.52136 0.37438,-4.91373 0.56458,-7.4122c0.14882,-1.9549 0.44226,-3.66579 1.42632,-5.38675c1.22228,-1.68508 2.96185,-3.80838 4.77042,-4.91071c0.28323,-0.17263 0.68541,-0.08166 0.95724,-0.27173c0.27144,-0.18979 0.33321,-0.58694 0.58258,-0.80492c0.92901,-0.81209 2.24904,-1.33033 3.32207,-1.91464c1.72456,-0.93909 3.31453,-1.95828 5.31665,-2.26898c2.31017,-0.3585 5.01687,-0.07814 7.20995,0.63905c0,0 0.80577,0.26859 1.16115,0.98522z" fill="#c5d8e2" stroke="none" stroke-width="0.5"/><path d="M197.48536,202.76398c0.44929,-0.29816 0.667,-0.89367 1.1429,-1.14894c0.8931,-0.47907 1.87759,-0.79935 2.8706,-1.00197c1.1368,-0.23195 2.33897,0.20657 3.48065,0c1.75591,-0.31772 3.46028,-0.88564 5.22098,-1.16021c0.68364,-0.10661 1.39763,-0.07745 2.11569,-0.02505c0.4918,-0.56579 1.05757,-0.84867 1.05757,-0.84867l-0.29351,0.90815c0.01486,0.00114 0.02973,0.00226 0.04459,0.00338c0.45937,-1.0448 0.66012,-2.31153 1.56411,-2.97476c0.50505,-0.37054 1.32083,-0.59978 2.27348,-0.6953c0.01549,-0.19067 0.03407,-0.38824 0.05578,-0.59291c0.30902,-2.91284 4.08228,-4.2825 6.24171,-5.36222c0.87225,-0.43613 2.81563,-0.67572 3.36914,-1.74852c0.63671,-1.23404 0.93464,-2.96218 1.36065,-4.33494c-0.19085,-1.25432 -0.46487,-2.46151 -0.62229,-3.40608c-0.12909,-0.77454 0.31367,-1.72278 -0.15825,-2.35039c-2.35254,-3.12867 -5.83978,-5.53784 -6.22295,-9.83191c-0.0082,-0.09193 -0.01588,-0.19368 -0.02248,-0.30384h-0.98623c-1.3046,0 -2.42048,-0.80796 -2.87456,-1.95079c-0.63737,0.0197 -1.25871,0.07078 -1.85114,0.17054c-1.07282,0.18064 -3.06905,1.61415 -3.97593,1.20014c-0.30451,-0.13901 -0.5926,-0.30352 -0.86817,-0.48748l-0.1096,0.32881l-1.67269,-0.55756c-1.26346,-0.38857 -2.18185,-1.56497 -2.18185,-2.95586c0,-1.70766 1.38432,-3.09198 3.09198,-3.09198h1.50325c0.34569,-0.05476 0.69407,-0.09653 1.03409,-0.17877c0.53199,-0.12867 0.22594,-1.08686 0.48616,-1.56837c0.41851,-0.77439 0.87623,-1.54304 1.44089,-2.21849c-3.91273,-1.38726 -1.95887,-4.77801 -3.95502,-7.22516c-0.40134,-0.49202 -0.88941,-0.96519 -1.42026,-1.40571c-1.54886,-0.20836 -3.10902,-0.569 -4.70776,-1.10192l-1.67269,-0.55756c-0.77128,-0.23721 -1.41398,-0.768 -1.79766,-1.46195c-2.55394,0.11008 -5.23855,-0.14227 -7.73417,-0.14227c-1.69137,0 -3.38274,0 -5.07411,0c-0.04799,1.32891 -0.47918,2.58382 -1.81962,3.47713c-2.03942,1.35914 -6.78288,0.63674 -8.37703,-1.28054c-0.69552,-0.8365 -0.14333,-2.18886 -0.45096,-3.23235c-0.11339,-0.38462 -0.51573,-0.61414 -0.7736,-0.92121c0,0 -1.71511,-2.57269 0.85757,-4.28781c2.02799,-1.35198 3.52309,-0.03963 4.06529,0.5767c0.48988,-0.32594 1.07806,-0.51588 1.7106,-0.51588h2.32043c1.2825,-0.4329 2.70717,0 4.06076,0c3.96018,0 8.48546,0.6128 12.38461,0.02316c3.27588,-0.49538 6.32086,-0.60327 9.65953,-0.60327c1.05209,0 3.96972,-0.04655 4.6639,0.23537c0.24126,0.09798 1.01835,0.74961 1.82395,1.50678c1.04595,0.03545 1.96012,0.5904 2.49263,1.41495l1.13362,1.70042l-0.10299,0.06866c0.10466,0.09352 0.20737,0.18944 0.30787,0.288c0.05452,0.05346 1.2197,3.57259 1.31596,3.86136c0.87496,2.62488 2.44116,6.65616 0.95302,9.39805c-0.69243,1.2758 -2.7013,2.40803 -4.18532,3.44189c1.29032,0.05424 2.57088,0.12868 3.77964,0.12868h1.74033c1.30649,0 2.42372,0.81031 2.87654,1.95576c0.51721,0.20446 0.96608,0.54438 1.30289,0.97602c0.94714,0.04774 2.09778,0.44419 3.49848,1.18363c2.12651,1.1226 2.84793,5.12266 3.49568,7.18292c0,1.77314 -0.29591,3.35067 -0.61421,4.94936c0.88766,2.4527 0.78461,5.14278 0.65413,7.72821c-0.04928,0.97644 0.09447,2.00322 -0.23536,2.92358c-0.2383,0.66498 -1.01559,1.00143 -1.38663,1.60251c-0.58995,0.95571 -0.5178,2.20542 -1.01285,3.21357c-0.98617,2.00833 -1.96462,3.83026 -3.49176,5.46877c-1.92424,1.92425 -3.77862,3.98116 -5.80109,5.80109c-0.70218,0.63186 -1.28814,1.47505 -2.16333,1.83047c-0.17814,0.07235 -0.36053,0.12369 -0.54619,0.15913c-0.80893,1.08075 -1.25995,2.12857 -3.33935,3.24249c-2.1273,1.13959 -4.28801,0.89451 -6.57944,0.89451c-4.50983,0 -9.57554,0.63838 -14.05974,0.01295c-0.72974,0.23194 -1.38553,0.43213 -1.68803,0.52724c-2.32488,0.04152 -6.15012,0.6606 -8.3526,-0.09275c-1.03904,-0.35539 -1.86974,-1.15224 -2.8046,-1.72836l-0.28449,-0.65496c-1.17269,-0.43931 -2.00743,-1.57039 -2.00743,-2.89643c0,-1.70765 1.38432,-3.09198 3.09198,-3.09198h1.74033c1.6588,-0.42874 3.83842,0.28433 5.39079,0.67243c1.53313,0.38328 3.06721,0.66278 4.60316,0.9383z" fill="#b9cbd5" stroke="none" stroke-width="0.5"/><path d="M341.04593,189.86838c0.14914,0.11704 0.23174,0.19964 0.23174,0.19964l0.98501,0.98501c0.19095,0.054 0.37919,0.1172 0.5639,0.1924c1.01251,0.4122 1.81001,1.20116 2.62413,1.95577c1.4847,-0.04863 3.04947,-0.14663 4.46034,0.04513c2.8843,0.39202 5.71929,0.77299 8.62852,1.1521c1.63797,0.21345 4.41678,-0.71615 5.87421,0.00812c0.11609,0.05769 0.23092,0.1175 0.34461,0.17924l0.02752,-0.11008l2.22546,0.55636c0.75374,-2.02728 1.9957,-3.22187 3.09607,-4.98334c1.18734,-1.90069 0.781,-4.57897 1.5139,-6.51901c0.14573,-0.38576 0.61515,-0.56094 0.92485,-0.84126c0,-0.09864 0,-0.19728 0,-0.29593c0.079,-2.46354 -1.30319,-4.21448 -2.12838,-6.46867c-0.21842,-0.59668 -0.09823,-1.29582 -0.37082,-1.86977c-0.16079,-0.33854 -0.62305,-0.43359 -0.86074,-0.72335c-1.27771,-1.55761 -3.34917,-3.87278 -4.0488,-5.70515c-0.1732,-0.45362 0.27629,-0.99961 0.10269,-1.45308c-0.14037,-0.36667 -0.7279,-0.38361 -0.93379,-0.71792c-0.32065,-0.52067 -0.26727,-1.21492 -0.58012,-1.74033c-0.24323,-0.40851 -0.78956,-0.57271 -1.03836,-0.97786c-0.66289,-1.07945 -1.27069,-2.21289 -1.66114,-3.41796c-0.15982,-0.49326 0.21146,-1.062 0.04995,-1.55471c-0.11329,-0.34562 -0.40955,-0.59085 -0.66532,-0.86149c-0.31448,-0.07127 -0.62911,-0.14147 -0.90146,-0.30487c-0.46899,-0.2814 -0.72158,-0.83352 -1.16021,-1.16021c-0.62976,-0.46903 -1.67636,0.24458 -2.35038,-0.15826c-0.14632,-0.08744 -0.28979,-0.17886 -0.43083,-0.27371l-0.05166,0.15498l-1.67268,-0.55756c-0.55083,-0.16941 -1.03607,-0.48854 -1.40822,-0.90992c-0.04636,0.04612 -0.09185,0.09286 -0.13617,0.14042c-1.58939,1.565 -3.46071,3.06069 -5.46876,4.07186c-0.45713,0.2302 -1.03521,0.16798 -1.47325,0.43273c-0.50095,0.30277 -0.73675,0.96307 -1.26236,1.22066c-1.47319,0.72199 -4.14112,1.42501 -5.98835,1.89787c-0.01746,0.92981 -0.99374,3.4727 -1.26803,4.39749c-0.78305,2.64004 -0.22903,4.9796 -1.43825,7.62024c-0.15152,0.3309 -0.50682,0.51854 -0.79967,0.75119c0.02332,0.41243 0.0408,0.81699 0.0408,1.20604c0,2.26978 -0.31796,4.53835 0.4568,6.67694c0.26548,1.09653 0.64268,2.05927 1.06738,2.99357c0.00823,-0.00006 0.01647,-0.00009 0.0247,-0.00009c1.39089,0 2.56728,0.91839 2.95586,2.18185l0.47017,1.41052c0.49536,0.3432 0.93469,0.83896 1.4348,1.16921zM330.88194,150.55681c0.46398,-0.65205 0.9364,-1.22385 1.38214,-1.67654c2.74762,-2.74762 4.40669,-6.00643 8.43728,-7.20411c2.13936,-0.6357 5.42365,-0.08272 7.6717,-0.08272c5.25549,0 9.90329,0.23331 14.90039,1.89901c0.69817,0.23272 3.73087,1.22268 4.12843,1.46333c0.36527,0.22109 2.39109,2.27411 2.88124,2.76427c2.89809,2.8981 5.85935,5.67113 8.32633,8.92772c0.50904,0.67195 1.28881,1.16449 1.62568,1.93725c0.27043,0.62034 -0.09007,1.37889 0.1027,2.02758c0.35125,1.18196 1.58332,1.91731 2.1387,3.01819c0.30415,0.60288 0.39266,1.29509 0.65915,1.91554c0.8476,1.97344 3.67765,6.64771 1.97216,8.79226c-0.30471,0.38316 -0.70273,0.67647 -1.16153,0.88994c0.67825,1.62347 1.42554,3.2404 1.70524,4.9284c0.34802,2.10022 0.42566,5.86573 0,7.95187c-0.59014,2.89222 -2.07147,3.19159 -3.17503,5.50405c-1.47813,3.09739 -2.93527,5.50984 -5.45816,7.994c-2.45506,1.6212 -5.38817,3.29287 -8.37746,4.361c-1.55975,0.91007 -3.30075,1.38618 -5.19676,1.14736c-3.75925,0.32502 -7.90729,-0.16666 -11.59042,-0.16666c-3.9929,0 -8.47265,0.55398 -12.06751,-1.62201c-0.44493,-0.26933 -2.08261,-1.97386 -2.65517,-2.55947c-2.26516,-1.48271 -4.51217,-2.92942 -6.23197,-5.07175c-0.87291,-1.08738 -1.47123,-2.37467 -2.32043,-3.48066c-0.77513,-1.00951 -2.16213,-1.41762 -2.96661,-2.4039c-0.44861,-0.54998 -0.38479,-1.38489 -0.75309,-1.99159c-0.28382,-0.46752 -0.88726,-0.68626 -1.16021,-1.16022c-2.25011,-3.90718 -0.85224,-7.53872 -1.58208,-11.57223c-0.35373,-1.95496 -1.188,-4.23802 -0.62003,-6.29638v-1.74033c0,-1.63753 1.27296,-2.97774 2.88331,-3.08506c0.01932,-0.10344 0.0384,-0.20703 0.05716,-0.31077c0.26656,-1.47317 -0.13006,-3.22292 -0.03993,-4.7257c0.08731,-1.45567 -0.68009,-3.34337 0.36586,-4.35952c0.35717,-0.347 0.76529,-0.61079 1.20732,-0.81922l-0.19633,-0.29449l1.70515,-1.13677c0.14175,-0.09751 0.29203,-0.1835 0.4495,-0.25662c0.03453,-0.23815 0.09256,-0.47142 0.18451,-0.69783c0.35542,-0.8752 1.22032,-1.44222 1.83048,-2.16333c0,0 0.36183,-0.36183 0.9383,-0.6439z" fill="#b9cbd5" stroke="none" stroke-width="0.5"/><path d="M351.82157,142.37479c-0.56155,0.62659 -1.46891,0.62659 -1.46891,0.62659c-5.63529,0 -11.24572,3.16822 -15.64292,6.51659c-1.34862,1.02695 -3.76986,2.58675 -4.83206,4.0757c-0.39954,0.56006 -0.59496,1.24077 -0.90526,1.85477c-0.42926,1.21465 -1.21117,1.92221 -1.70862,3.05249c-0.915,2.07906 -1.63032,4.36711 -2.34934,6.52416c-0.41033,1.23102 -0.98132,2.44104 -1.25038,3.71369c-0.83799,3.96376 -0.6915,7.92283 -0.71103,11.9483c0.30279,1.77353 0.67099,4.05441 1.49239,5.6653c0.36991,0.72545 0.96533,1.32412 1.31057,2.06161c0.31811,0.67952 0.56537,1.73145 1.00868,2.41381c0.93542,1.43982 2.20837,2.66841 3.16183,4.08919c2.00912,2.99384 4.24162,5.33689 7.06014,7.57939c3.1144,2.54638 6.98417,3.15697 10.8415,3.7081c5.41697,0.77397 11.04532,0.3533 16.51936,0.3533c2.01746,0.08266 3.20162,-1.2265 5.01837,-2.07811c4.21073,-1.97376 7.90396,-5.414 10.35929,-9.36012c1.36047,-2.1865 1.74137,-4.8324 2.76234,-7.16003c0.12922,-0.70694 0.54502,-1.33341 0.73867,-2.02548c0.18088,-0.64642 -0.10778,-1.34266 -0.06668,-2.01265c0.06187,-1.00862 0.11178,-2.0181 0.18903,-3.02567c0.19517,-2.54613 0.33901,-5.16939 0.18829,-7.7319c-0.08354,-1.4203 -0.66454,-2.9297 -1.05019,-4.2899c-0.69001,-2.43366 -0.91571,-4.45245 -2.2305,-6.64375c-1.62756,-2.71259 -3.42359,-5.17758 -5.54756,-7.52166c-0.63662,-0.70258 -1.5179,-1.14624 -2.19001,-1.81495c-3.49963,-3.4819 -7.40324,-6.9307 -12.01942,-8.8968c-1.60184,-0.53129 -3.38483,-1.43751 -5.07868,-1.56166c-1.18484,-0.08684 -2.39146,-0.08416 -3.59889,-0.06032zM346.12076,139.6569c0.28418,-0.29782 0.582,-0.44673 0.582,-0.44673l1.59732,-0.57407c2.44631,0 4.99982,-0.21253 7.43426,0.00648c2.08272,0.18737 4.14655,1.13736 6.11721,1.79711c5.10896,2.19968 9.4849,5.86775 13.3579,9.76299c0.7016,0.70562 1.61256,1.18663 2.28835,1.91702c2.31756,2.50481 4.26624,5.22711 6.02152,8.15257c1.23101,2.05168 1.82587,3.86846 2.28824,6.21112c0.41945,2.12524 1.3639,4.18805 1.52179,6.36657c0.19871,2.74171 0.02558,5.58907 -0.1849,8.31554c-0.13894,1.79976 0.15985,4.02706 -0.25086,5.78437c-0.16782,0.71804 -0.64715,1.35009 -0.75412,2.07968c-1.13243,2.6949 -1.66804,5.61398 -3.2088,8.141c-2.79447,4.58326 -7.17467,8.53666 -12.03246,10.79247c-1.4231,0.66085 -2.87362,2.018 -4.43416,2.34934c-0.69033,0.14658 -1.41102,0.03394 -2.11654,0.05091c-9.65712,0 -21.62992,1.49097 -29.73813,-4.8953c-3.10511,-2.49552 -5.66224,-5.13432 -7.8677,-8.46804c-0.94831,-1.43343 -2.26336,-2.65531 -3.1825,-4.12113c-0.54336,-0.86655 -0.80815,-1.87938 -1.2305,-2.81092c-0.33349,-0.73558 -0.94441,-1.31926 -1.3018,-2.04354c-1.01606,-2.05912 -1.49734,-4.77506 -1.86638,-7.02337c-0.01723,-4.3843 -0.15217,-8.74245 0.78175,-13.05582c0.63984,-2.95512 1.98512,-5.8669 3.06794,-8.67628c0.17882,-0.46396 0.62279,-1.98376 0.79626,-2.35805c0.52693,-1.13691 1.28699,-1.72994 1.65015,-2.91864c0.13528,-0.27293 1.20084,-2.44258 1.3339,-2.62358c1.34183,-1.82524 3.89351,-3.56687 5.61743,-4.881c3.96181,-3.02006 8.72589,-5.77107 13.71283,-6.83066z" fill="#c5d8e2" stroke="none" stroke-width="0.5"/><path d="M352.73313,155.98094c-2.04904,0.07677 -3.97094,0.8226 -5.94321,1.90008c-0.79084,0.43205 -1.96744,0.82678 -2.64907,1.44413c-0.34538,0.31282 -0.52855,0.79369 -0.9102,1.06106c-0.3732,0.26145 -0.88274,0.25495 -1.28193,0.47466c-0.60661,0.33386 -1.21701,1.32009 -1.6331,1.73578c-0.62464,0.62405 -1.30145,1.21297 -1.8068,1.93702c-0.9417,1.40982 -0.76738,3.40204 -1.01705,5.03222c-0.34493,2.25218 -0.35082,4.51744 -0.35082,6.79976c0,0.6955 -0.18509,1.40816 -0.03053,2.08628c0.67654,2.96813 2.82216,5.42813 4.45081,7.90329c1.37081,1.34857 2.87181,3.02822 4.44682,4.10907c0.36205,0.24847 0.83789,0.28236 1.21742,0.50322c1.97225,1.14771 3.95129,2.3537 6.21092,2.96091c1.75698,0.47214 3.88468,0.50397 5.68637,0.50049c1.41562,-0.00274 3.09112,0.27667 4.42967,-0.19913c1.23912,-0.75939 3.10843,-1.95606 3.78861,-3.28579c1.98559,-3.88169 2.82149,-8.29614 2.57412,-12.74202c-0.14532,-2.61181 -1.32137,-4.9838 -1.75743,-7.5291c-1.24402,-2.07229 -2.12824,-4.51122 -3.50646,-6.46944c-0.51211,-0.72761 -1.2407,-1.27871 -1.80352,-1.96785c-0.6651,-0.81437 -1.1368,-2.03853 -1.97624,-2.7106c-1.64711,-1.31871 -4.10201,-2.56626 -6.22711,-2.52876h-0.1866c0,0 -1.25175,0 -1.72468,-1.01529zM358.64644,153.90041c6.41231,2.30704 9.94115,9.76786 13.08672,15.46937c0.54618,2.86059 1.811,5.57137 1.97453,8.51833c0.27982,5.04273 -0.53941,10.51024 -3.02382,14.87448c-1.18706,2.08526 -3.52703,3.72955 -5.54129,4.92453c-2.02294,0.65681 -3.9137,0.55094 -6.01982,0.54727c-2.1257,-0.0037 -4.55979,-0.0706 -6.62909,-0.61911c-2.61532,-0.69323 -4.94228,-2.04924 -7.22414,-3.38342c-0.43885,-0.25659 -0.97791,-0.32568 -1.39495,-0.61638c-1.87465,-1.30676 -3.65175,-3.22326 -5.25628,-4.84763c-2.01831,-2.99394 -4.50249,-5.99671 -5.25229,-9.63692c-0.24338,-1.18161 -0.03053,-2.67346 -0.03053,-3.88485c0,-2.52136 0.37439,-4.91374 0.56459,-7.41221c0.14882,-1.9549 0.44226,-3.66578 1.42632,-5.38674c1.22228,-1.68508 2.96186,-3.80838 4.77042,-4.91071c0.28323,-0.17263 0.68541,-0.08167 0.95724,-0.27173c0.27144,-0.18979 0.33321,-0.58693 0.58258,-0.80492c0.92901,-0.81209 2.24903,-1.33033 3.32207,-1.91464c1.72456,-0.93909 3.31453,-1.95827 5.31665,-2.26897c2.31017,-0.3585 5.01687,-0.07814 7.20995,0.63904c0,0 0.80577,0.26859 1.16115,0.98522z" fill="#c5d8e2" stroke="none" stroke-width="0.5"/><path d="M413.17089,188.31949c0.14914,0.11704 0.23174,0.19964 0.23174,0.19964l0.98501,0.98501c0.19095,0.054 0.37919,0.1172 0.5639,0.1924c1.0125,0.4122 1.81001,1.20116 2.62413,1.95577c1.4847,-0.04863 3.04947,-0.14663 4.46035,0.04514c2.8843,0.39202 5.71928,0.77299 8.62852,1.1521c1.63797,0.21345 4.41677,-0.71615 5.8742,0.00812c0.11609,0.05769 0.23093,0.1175 0.34461,0.17923l0.02751,-0.11008l2.22546,0.55636c0.75374,-2.02728 1.9957,-3.22187 3.09607,-4.98334c1.18734,-1.90069 0.78101,-4.57897 1.51391,-6.519c0.14573,-0.38576 0.61515,-0.56095 0.92485,-0.84126c0,-0.09864 0,-0.19729 0,-0.29593c0.079,-2.46354 -1.30318,-4.21447 -2.12838,-6.46866c-0.21843,-0.59668 -0.09824,-1.29582 -0.37083,-1.86977c-0.16078,-0.33854 -0.62304,-0.43359 -0.86074,-0.72335c-1.27771,-1.55761 -3.34917,-3.87278 -4.04881,-5.70515c-0.1732,-0.45362 0.27629,-0.99961 0.10269,-1.45309c-0.14037,-0.36667 -0.72791,-0.38361 -0.93379,-0.71792c-0.32065,-0.52067 -0.26727,-1.21491 -0.58011,-1.74032c-0.24324,-0.40851 -0.78957,-0.57271 -1.03837,-0.97786c-0.66289,-1.07945 -1.27069,-2.21288 -1.66114,-3.41795c-0.15982,-0.49326 0.21147,-1.062 0.04996,-1.55471c-0.11329,-0.34562 -0.40955,-0.59084 -0.66532,-0.86148c-0.31448,-0.07127 -0.62911,-0.14147 -0.90146,-0.30488c-0.46899,-0.2814 -0.72157,-0.83353 -1.16021,-1.16022c-0.62976,-0.46903 -1.67636,0.24459 -2.35038,-0.15824c-0.14632,-0.08744 -0.28979,-0.17887 -0.43083,-0.27372l-0.05166,0.15498l-1.67269,-0.55756c-0.55082,-0.16941 -1.03607,-0.48854 -1.40821,-0.90992c-0.04636,0.04612 -0.09184,0.09286 -0.13617,0.14042c-1.58939,1.565 -3.46072,3.06069 -5.46877,4.07187c-0.45713,0.2302 -1.0352,0.16798 -1.47324,0.43273c-0.50095,0.30277 -0.73675,0.96307 -1.26236,1.22066c-1.47319,0.72199 -4.14112,1.42502 -5.98835,1.89789c-0.01747,0.92981 -0.99374,3.4727 -1.26803,4.39748c-0.78305,2.64004 -0.22902,4.9796 -1.43825,7.62024c-0.15152,0.3309 -0.50682,0.51854 -0.79967,0.75119c0.02332,0.41243 0.04079,0.81699 0.04079,1.20604c0,2.26978 -0.31796,4.53835 0.45681,6.67695c0.26548,1.09653 0.64269,2.05927 1.06739,2.99357c0.00822,-0.00006 0.01646,-0.0001 0.0247,-0.0001c1.39089,0 2.56728,0.91839 2.95586,2.18185l0.47018,1.41052c0.49536,0.3432 0.93469,0.83897 1.4348,1.16922zM403.0069,149.00791c0.46398,-0.65205 0.9364,-1.22384 1.38214,-1.67653c2.74762,-2.74762 4.40669,-6.00644 8.43728,-7.20411c2.13936,-0.63571 5.42365,-0.08271 7.6717,-0.08271c5.25549,0 9.90329,0.2333 14.90039,1.899c0.69817,0.23272 3.73087,1.22267 4.12843,1.46332c0.36526,0.2211 2.39109,2.27411 2.88124,2.76427c2.8981,2.8981 5.85934,5.67113 8.32632,8.92772c0.50903,0.67195 1.28881,1.16449 1.62568,1.93725c0.27042,0.62034 -0.09008,1.37888 0.10269,2.02757c0.35125,1.18196 1.58333,1.91731 2.1387,3.0182c0.30415,0.60288 0.39266,1.29509 0.65914,1.91554c0.8476,1.97344 3.67765,6.64771 1.97217,8.79226c-0.30471,0.38316 -0.70271,0.67646 -1.16153,0.88993c0.67825,1.62347 1.42554,3.2404 1.70524,4.9284c0.34801,2.10022 0.42566,5.86573 0,7.95188c-0.59014,2.89222 -2.07147,3.19158 -3.17503,5.50405c-1.47813,3.09739 -2.93527,5.50984 -5.45817,7.99401c-2.45506,1.6212 -5.38818,3.29286 -8.37747,4.36099c-1.55975,0.91007 -3.30076,1.38618 -5.19675,1.14736c-3.75925,0.32502 -7.90729,-0.16665 -11.59042,-0.16665c-3.99291,0 -8.47266,0.55398 -12.06752,-1.62201c-0.44493,-0.26933 -2.08261,-1.97387 -2.65516,-2.55947c-2.26516,-1.48271 -4.51217,-2.92942 -6.23197,-5.07175c-0.87291,-1.08738 -1.47123,-2.37466 -2.32044,-3.48065c-0.77513,-1.00951 -2.16213,-1.41762 -2.96661,-2.40391c-0.4486,-0.54998 -0.38479,-1.38489 -0.75309,-1.99159c-0.28382,-0.46752 -0.88727,-0.68626 -1.16022,-1.16021c-2.25011,-3.90718 -0.85225,-7.53874 -1.58208,-11.57224c-0.35373,-1.95496 -1.188,-4.23801 -0.62003,-6.29637v-1.74033c0,-1.63753 1.27296,-2.97774 2.88331,-3.08505c0.01932,-0.10344 0.03839,-0.20704 0.05716,-0.31078c0.26656,-1.47317 -0.13006,-3.22292 -0.03993,-4.7257c0.08731,-1.45567 -0.68009,-3.34337 0.36586,-4.35952c0.35717,-0.347 0.7653,-0.61079 1.20733,-0.81922l-0.19633,-0.29449l1.70515,-1.13678c0.14175,-0.09751 0.29202,-0.18349 0.44949,-0.25662c0.03453,-0.23815 0.09256,-0.47141 0.18451,-0.69783c0.35543,-0.8752 1.22032,-1.44222 1.83048,-2.16333c0,0 0.36184,-0.36183 0.9383,-0.64391z" fill="#b9cbd5" stroke="none" stroke-width="0.5"/><path d="M423.94653,140.8259c-0.56155,0.62659 -1.46891,0.62659 -1.46891,0.62659c-5.63529,0 -11.24572,3.16822 -15.64292,6.51658c-1.34863,1.02695 -3.76986,2.58675 -4.83207,4.0757c-0.39954,0.56006 -0.59497,1.24077 -0.90527,1.85477c-0.42926,1.21465 -1.21117,1.92221 -1.70862,3.05249c-0.91501,2.07906 -1.63032,4.36711 -2.34933,6.52416c-0.41033,1.23102 -0.98132,2.44104 -1.25038,3.71369c-0.83799,3.96376 -0.6915,7.92282 -0.71103,11.9483c0.30279,1.77353 0.671,4.05441 1.49239,5.6653c0.36991,0.72544 0.96532,1.32412 1.31057,2.06161c0.31811,0.67952 0.56536,1.73145 1.00868,2.41382c0.93541,1.43982 2.20837,2.6684 3.16183,4.08918c2.00912,2.99384 4.24162,5.33689 7.06014,7.57939c3.1144,2.54638 6.98417,3.15698 10.84151,3.70811c5.41697,0.77397 11.04532,0.35329 16.51936,0.35329c2.01746,0.08266 3.20162,-1.2265 5.01838,-2.0781c4.21073,-1.97376 7.90396,-5.414 10.35929,-9.36012c1.36047,-2.1865 1.74138,-4.8324 2.76234,-7.16003c0.12921,-0.70694 0.54502,-1.33341 0.73867,-2.02548c0.18088,-0.64642 -0.10777,-1.34266 -0.06667,-2.01265c0.06187,-1.00862 0.11178,-2.0181 0.18901,-3.02567c0.19517,-2.54613 0.33901,-5.16939 0.18829,-7.73189c-0.08354,-1.4203 -0.66454,-2.9297 -1.05019,-4.28991c-0.69,-2.43366 -0.91571,-4.45244 -2.2305,-6.64376c-1.62755,-2.71259 -3.42357,-5.17758 -5.54755,-7.52166c-0.63662,-0.70258 -1.5179,-1.14624 -2.19002,-1.81495c-3.49964,-3.4819 -7.40324,-6.9307 -12.01942,-8.89681c-1.60184,-0.53129 -3.38484,-1.43752 -5.07869,-1.56166c-1.18484,-0.08683 -2.39146,-0.08415 -3.59889,-0.06031zM418.24572,138.10801c0.28418,-0.29781 0.58199,-0.44673 0.58199,-0.44673l1.59732,-0.57407c2.4463,0 4.99982,-0.21252 7.43426,0.00648c2.08272,0.18737 4.14655,1.13737 6.1172,1.79711c5.10896,2.19968 9.48491,5.86775 13.35791,9.76299c0.7016,0.70562 1.61255,1.18662 2.28834,1.91701c2.31757,2.50481 4.26624,5.22712 6.02152,8.15258c1.23101,2.05168 1.82587,3.86846 2.28824,6.21112c0.41946,2.12524 1.3639,4.18805 1.52179,6.36657c0.19871,2.74171 0.02559,5.58907 -0.1849,8.31554c-0.13894,1.79976 0.15986,4.02706 -0.25085,5.78436c-0.16782,0.71804 -0.64715,1.35008 -0.75412,2.07968c-1.13243,2.6949 -1.66804,5.61398 -3.2088,8.141c-2.79447,4.58326 -7.17467,8.53666 -12.03247,10.79247c-1.42311,0.66085 -2.87362,2.018 -4.43416,2.34934c-0.69033,0.14658 -1.41103,0.03393 -2.11655,0.0509c-9.65711,0 -21.62992,1.49097 -29.73812,-4.8953c-3.1051,-2.49552 -5.66224,-5.13432 -7.8677,-8.46805c-0.94831,-1.43343 -2.26336,-2.6553 -3.1825,-4.12113c-0.54336,-0.86655 -0.80815,-1.87938 -1.2305,-2.81092c-0.3335,-0.73558 -0.94441,-1.31926 -1.3018,-2.04354c-1.01606,-2.05912 -1.49733,-4.77506 -1.86638,-7.02337c-0.01723,-4.3843 -0.15217,-8.74245 0.78175,-13.05582c0.63984,-2.95512 1.98512,-5.8669 3.06794,-8.67628c0.17882,-0.46396 0.62279,-1.98376 0.79626,-2.35805c0.52693,-1.13691 1.28698,-1.72993 1.65015,-2.91864c0.13529,-0.27293 1.20085,-2.44259 1.33391,-2.62359c1.34183,-1.82524 3.8935,-3.56687 5.61742,-4.881c3.96181,-3.02006 8.72589,-5.77107 13.71283,-6.83066z" fill="#c5d8e2" stroke="none" stroke-width="0.5"/><path d="M424.85809,154.43205c-2.04904,0.07677 -3.97093,0.8226 -5.94321,1.90008c-0.79084,0.43205 -1.96744,0.82678 -2.64907,1.44413c-0.34539,0.31282 -0.52855,0.79369 -0.91019,1.06106c-0.3732,0.26145 -0.88274,0.25495 -1.28193,0.47466c-0.60661,0.33386 -1.21701,1.32008 -1.6331,1.73579c-0.62464,0.62405 -1.30146,1.21296 -1.8068,1.93702c-0.9417,1.40982 -0.76738,3.40204 -1.01705,5.03222c-0.34493,2.25218 -0.35082,4.51744 -0.35082,6.79976c0,0.6955 -0.18509,1.40817 -0.03053,2.08628c0.67654,2.96813 2.82216,5.42813 4.45081,7.90328c1.37081,1.34857 2.87181,3.02822 4.44682,4.10907c0.36205,0.24847 0.8379,0.28236 1.21742,0.50321c1.97225,1.14771 3.95129,2.35371 6.21092,2.96091c1.75698,0.47214 3.88468,0.50396 5.68637,0.50049c1.41562,-0.00274 3.09112,0.27668 4.42967,-0.19912c1.23912,-0.75939 3.10843,-1.95606 3.78861,-3.28579c1.98559,-3.88169 2.82149,-8.29614 2.57413,-12.74202c-0.14533,-2.61181 -1.32138,-4.98381 -1.75744,-7.52911c-1.24402,-2.07229 -2.12824,-4.51122 -3.50646,-6.46944c-0.51211,-0.72761 -1.2407,-1.27871 -1.80352,-1.96785c-0.6651,-0.81437 -1.1368,-2.03854 -1.97623,-2.7106c-1.64711,-1.31871 -4.10202,-2.56627 -6.22712,-2.52877h-0.1866c0,0 -1.25174,0.00001 -1.72468,-1.01528zM430.7714,152.35152c6.41231,2.30704 9.94116,9.76786 13.08672,15.46937c0.54618,2.86059 1.81099,5.57136 1.97452,8.51833c0.27982,5.04273 -0.53942,10.51024 -3.02381,14.87448c-1.18706,2.08526 -3.52703,3.72955 -5.54129,4.92453c-2.02294,0.65681 -3.9137,0.55094 -6.01981,0.54727c-2.1257,-0.0037 -4.5598,-0.0706 -6.6291,-0.6191c-2.61532,-0.69323 -4.94228,-2.04924 -7.22413,-3.38342c-0.43885,-0.25659 -0.97791,-0.32568 -1.39495,-0.61638c-1.87466,-1.30676 -3.65176,-3.22326 -5.25629,-4.84763c-2.01831,-2.99394 -4.50248,-5.99671 -5.25228,-9.63692c-0.24338,-1.18161 -0.03053,-2.67346 -0.03053,-3.88486c0,-2.52136 0.37438,-4.91373 0.56458,-7.41221c0.14882,-1.9549 0.44226,-3.66578 1.42632,-5.38675c1.22228,-1.68508 2.96186,-3.80838 4.77042,-4.91071c0.28323,-0.17263 0.6854,-0.08167 0.95724,-0.27173c0.27144,-0.18979 0.33321,-0.58694 0.58258,-0.80492c0.92901,-0.81209 2.24904,-1.33033 3.32207,-1.91464c1.72456,-0.93909 3.31453,-1.95827 5.31665,-2.26897c2.31017,-0.3585 5.01686,-0.07814 7.20994,0.63904c0,0 0.80577,0.26859 1.16115,0.98522z" fill="#c5d8e2" stroke="none" stroke-width="0.5"/><path d="M197.90136,90.91585l40.27924,-20.01026l-4.10335,8.78867c-1.8448,0.9966 -3.49651,2.17941 -3.92451,2.46959c-4.82831,3.2735 -10.20284,5.35767 -15.53929,7.71222c-4.54514,2.00541 -9.10398,3.97648 -13.66484,5.94131z" fill="#d6e1e6" stroke="none" stroke-width="0"/><path d="M207.27708,105.99684l-2.23294,-3.59172c6.5346,-2.81948 13.10218,-5.56203 19.58288,-8.51004c0.91175,-0.41475 2.20054,-0.91931 3.52169,-1.50294l-1.51564,3.24624z" fill="#d6e1e6" stroke="none" stroke-width="0"/><path d="M257.74885,37.51806c0,1.19134 -0.51002,1.87264 -1.09337,2.26228c-0.1252,0.81311 -0.62748,1.4311 -0.79292,1.616c-1.61044,8.19114 -6.3186,15.12887 -9.23574,22.91063c-1.34112,3.91923 -4.04594,7.15103 -5.72018,10.92275c-0.89572,2.01787 -1.49911,4.85428 -2.68747,6.75798c-0.38506,0.61686 -1.11068,0.96523 -1.51511,1.56957c-1.78786,2.67164 -3.5215,6.29319 -4.74616,9.27593c-1.56055,3.80084 -3.2002,7.55267 -5.05961,11.24357c-0.78031,2.30174 -2.16378,4.22672 -3.09198,6.46504c-1.46153,3.52445 -2.92833,7.09029 -4.56242,10.54536c-0.70848,1.498 -2.70156,4.89516 -4.47358,4.94588c-0.83902,0.02401 -3.58811,-2.95687 -4.31167,-4.09388c-1.33784,-2.10233 -2.4111,-4.39078 -3.69634,-6.5331c-0.73849,-1.23095 -1.72761,-2.31205 -2.36912,-3.5962c-0.65804,-1.31723 -0.91786,-2.80239 -1.49994,-4.1549c-0.75189,-2.27621 -1.76855,-4.41622 -2.73797,-6.57228c-1.29361,-2.87709 -1.89287,-6.04807 -3.32256,-8.89078c-0.83616,-1.66257 -1.49972,-3.58671 -2.43919,-5.17728c-0.49144,-0.83203 -1.13202,-1.64165 -1.57968,-2.50642c-1.90816,2.2455 -3.69762,4.68399 -5.1566,7.26091c-4.10499,6.8431 -8.5561,13.42352 -12.6641,20.26389c-1.44791,2.41096 -2.75295,4.89992 -4.21634,7.30832c-0.56767,0.93425 -0.55075,2.24128 -1.3472,2.9901c-0.12079,0.11356 -0.24516,0.22255 -0.37258,0.32765l0.10111,0.08088l-1.10829,1.38537c-0.50949,0.64817 -1.30066,1.06447 -2.18905,1.06447c-1.39678,0 -2.5532,-1.02908 -2.75244,-2.37042l-0.25405,-1.5243c-0.73134,-2.54909 -1.20708,-5.1917 -1.93007,-7.72442c-1.23858,-4.33886 -3.46668,-8.58438 -4.50428,-12.95616c-0.66302,-2.79355 -0.48201,-5.77499 -1.35937,-8.55475c-0.65336,-2.07008 -1.48331,-3.94767 -2.0187,-6.08158c-1.28319,-5.22692 -3.86922,-9.93086 -5.56988,-14.99756c-1.02217,-3.0453 -1.88176,-6.10336 -3.03097,-9.10626c-1.0675,-2.78939 -3.1328,-5.29807 -4.42317,-7.98117c-1.53526,-3.19228 -3.09779,-6.27168 -4.93329,-9.32158c0,0 -0.52289,-0.87148 -0.41002,-1.8771c0.01965,-2.19412 2.33874,-2.58064 2.33874,-2.58064c5.01881,-0.81127 10.33534,-0.53331 15.40678,-0.87165c2.90353,-0.19371 4.10652,-1.97021 7.11241,0.38994c1.33236,1.04614 1.77215,3.41287 2.24064,4.93399c0.98581,3.20085 1.16277,6.466 1.99722,9.65966c1.08428,3.8092 2.88319,7.27442 4.38031,10.89845c1.24121,3.00457 1.47305,6.38195 2.57025,9.37938c0.21352,0.58331 0.75104,1.02463 0.91367,1.62412c0.17321,0.63848 -0.03999,1.33043 0.06505,1.9836c0.0339,0.21081 0.07458,0.42057 0.12083,0.62951c0.44341,-0.98615 0.8885,-1.97257 1.32067,-2.96649c0.58773,-1.35166 1.41272,-2.59048 2.21451,-3.82724c0.88613,-1.36683 1.34932,-2.97173 2.17254,-4.37736c0.98056,-1.67428 2.36759,-3.62132 3.47439,-5.2165c2.44895,-3.52958 5.9384,-6.33485 7.89875,-10.15915c1.23216,-1.27644 2.4728,-2.74453 3.83814,-3.88294c0.98111,-0.81804 1.7682,-2.39227 3.04399,-2.32807c3.55947,0.17909 4.52487,4.16015 5.72356,6.57126c2.32823,4.68314 3.60308,9.74684 5.45649,14.59359c0.8146,2.13021 2.1393,4.13575 3.21899,6.13477c0.89657,1.65999 1.3714,3.34464 2.3375,4.95482c0.01795,0.05297 0.03611,0.10578 0.05447,0.15846c0.63398,-1.36653 1.31835,-2.70669 1.91638,-4.09372c0.74228,-1.72156 2.03055,-3.22618 2.86232,-4.88439c1.46481,-2.92023 2.29836,-6.24224 3.62978,-9.22718c2.43571,-5.4607 5.69631,-11.64261 9.55892,-16.20144c1.36582,-1.99045 3.4085,-2.94956 4.80328,-4.81071c0.83433,-1.11331 1.5034,-2.47139 2.69803,-3.18442c2.29788,-1.37152 2.58351,-0.78522 4.88763,-0.96831c3.4491,-0.27406 6.87285,-0.29057 10.34874,-0.29057h1.68653c0,0 2.78279,0 2.78279,2.78279zM243.38984,40.57245c-0.3442,0.0255 -1.837,-0.202 -2.42068,0.15606c-0.63832,0.39157 -0.76983,1.2901 -1.23722,1.87519c-1.47371,1.84482 -3.46511,2.73741 -4.75376,4.74632c-3.65439,4.20755 -6.73862,10.18758 -8.99297,15.28054c-1.34135,3.03034 -2.19902,6.3578 -3.67853,9.3247c-0.79077,1.58576 -2.05901,3.0277 -2.75946,4.67264c-0.86386,2.02869 -1.97828,3.94894 -2.73795,6.0101c-0.29407,0.79787 -0.35748,1.69745 -0.80441,2.42085l-0.54189,1.62566c-0.34972,1.13711 -1.40847,1.96367 -2.66027,1.96367c-1.03143,0 -1.93178,-0.56113 -2.41246,-1.39478l-0.81703,-1.36171l0.10763,-0.06458l-0.2496,-0.20435c-0.58925,-1.73812 -1.39799,-3.31736 -1.96762,-5.05961c-4.02745,-6.71241 -6.35274,-14.25721 -9.32315,-21.47146c-0.77448,-1.88099 -1.62928,-3.63339 -2.46063,-5.4665c-0.01283,-0.02831 -0.02616,-0.05665 -0.0399,-0.08504c-0.78872,0.72512 -1.73557,1.44991 -2.22358,1.90821c-0.86806,1.78857 -1.97136,2.98083 -3.27597,4.44511c-2.84228,3.19014 -5.70385,6.8595 -7.83804,10.53688c-2.08044,3.58478 -4.11812,7.31058 -5.71899,11.1593c-0.4678,1.12465 -0.93273,2.25048 -1.40545,3.37306c-0.26771,0.63574 -0.17557,1.49044 -0.68867,1.95146c-0.12391,0.11133 -0.25141,0.21781 -0.38199,0.32013l0.11051,0.08842l-1.10829,1.38536c-0.50949,0.64817 -1.30066,1.06446 -2.18905,1.06446c-1.53689,0 -2.78278,-1.2459 -2.78278,-2.78279v-1.51262c-0.38727,-2.23188 -1.54973,-4.25451 -1.93169,-6.4743c-0.07862,-0.45694 0.18788,-0.94237 0.06504,-1.38947c-0.12507,-0.45522 -0.61243,-0.7428 -0.77286,-1.18678c-1.06436,-2.9456 -1.25895,-6.24744 -2.48936,-9.17251c-1.61398,-3.83695 -3.45477,-7.54242 -4.61454,-11.58868c-0.64424,-2.66242 -0.8154,-5.28172 -1.42571,-7.95096c-0.25531,-1.11662 -0.742,-2.17092 -1.0095,-3.28469c-0.03729,-0.15525 0.19566,-0.56461 0.06368,-0.47474c-2.03787,1.38748 -4.86852,0.69754 -7.15443,0.83901c-1.39,0.08603 -2.75269,0.44331 -4.14071,0.55696c-0.92964,0.07612 -1.85069,0.06708 -2.76915,0.05593c1.08005,1.99859 2.0918,4.02141 3.08453,6.09371c1.3649,2.84917 3.41105,5.37852 4.57169,8.322c1.21998,3.09396 2.10933,6.28926 3.15299,9.44563c1.71612,5.19007 4.31881,10.02007 5.67368,15.36007c0.73011,2.93197 1.98816,5.60712 2.5618,8.57684c0.38398,1.98787 0.34752,4.04816 0.80626,6.02012c1.00999,4.34148 3.25725,8.5907 4.49058,12.90406c0.25034,0.8755 0.47275,1.76341 0.68589,2.65606c0.52259,-0.8024 1.04451,-1.60367 1.49517,-2.43123c4.39266,-8.06633 9.6524,-15.53057 14.37365,-23.39757c1.68127,-2.91938 3.67567,-5.87736 5.96823,-8.34077c0.64324,-0.69119 1.04297,-1.69443 1.89155,-2.10845c1.29127,-0.62998 2.84409,-1.28477 4.22077,-0.87366c2.52016,0.75258 2.30409,3.48553 3.16552,5.21533c0.25047,0.50298 0.78618,0.81831 1.06698,1.30501c2.64359,4.58191 3.85473,9.84635 6.04399,14.60303c1.04264,2.26536 2.08069,4.53029 2.88383,6.92001c0.51562,1.20791 0.72303,2.54117 1.31094,3.7156c1.04271,2.08293 2.64452,4.2364 3.83548,6.27689c0.43998,0.75383 0.8588,1.52051 1.29944,2.27391c0.26526,-0.67031 0.49318,-1.35674 0.78237,-2.01714c2.02918,-4.63379 4.86904,-9.19701 6.43265,-13.9794c1.83979,-3.70345 3.49208,-7.44728 5.05961,-11.24357c1.39749,-3.38447 3.35372,-7.36044 5.37305,-10.40032c0.33096,-0.49823 0.96844,-0.74071 1.29578,-1.24132c1.04906,-1.60437 1.62374,-4.4902 2.37214,-6.17212c1.59359,-3.58141 4.32478,-6.71327 5.52338,-10.44003c2.80864,-7.48732 7.50255,-14.26158 9.02431,-22.1372c-2.34439,0.02259 -4.6738,0.0867 -7.01481,0.26009z" fill="#c5d8e2" stroke="none" stroke-width="0.5"/><path d="M302.486,84.60284l6.27825,14.18485l-18.60198,6.5912c0.21842,-0.24156 0.40584,-0.5002 0.55598,-0.77435c1.5765,-2.87878 -0.67379,-8.43091 -3.99937,-10.32327c-0.61753,-1.23552 -1.52185,-2.30556 -2.83782,-3.09514c-0.37307,-0.22384 -0.80808,-0.33998 -1.26464,-0.41603z" fill="#d6e1e6" stroke="none" stroke-width="0"/><path d="M254.03468,118.1799l-6.55322,-16.50441l17.9391,-5.56804c-0.81173,5.57765 2.45299,12.87699 6.16972,15.85202z" fill="#d6e1e6" stroke="none" stroke-width="0"/><path d="M280.73641,75.17847c-1.74428,-0.0797 -3.49327,-0.02257 -5.25083,-0.02257c-4.41253,0 -8.68518,-0.05919 -12.2817,3.01642c-2.75297,2.35425 -4.62737,5.7399 -7.16876,8.28129c-0.94772,1.60524 -2.28081,3.42173 -2.973,5.19913c-0.91469,2.34875 -0.93835,5.22523 -0.93505,7.70493c0.0071,5.34029 -0.08695,10.44351 2.96815,15.13872c2.32269,3.5696 5.4409,5.06871 8.30611,7.94782c4.99167,2.79068 10.68551,3.36396 16.30058,3.36396c2.34914,0 4.7355,0.15235 7.07879,0.00948c5.06869,-0.30903 9.5414,-3.91824 12.1979,-7.96563c1.46005,-2.53835 3.35106,-4.97411 4.21598,-7.82331c1.31468,-4.3307 1.55238,-8.71182 1.55238,-13.20083c0,-2.28902 0.32734,-4.86607 -0.61334,-7.04398c-1.25146,-2.89744 -3.10437,-5.16808 -4.70016,-7.82773c-2.06597,-2.00437 -4.70456,-4.20299 -7.34688,-5.34367c-2.52017,-1.08794 -5.78663,-0.61334 -8.44942,-0.61334h-0.84326c0,0 -1.23297,0.00001 -2.05749,-0.82071zM285.3211,70.41477c2.16188,-0.03706 4.35148,-0.08137 6.46195,0.35613c4.57414,0.94823 8.83355,4.50505 12.03723,7.76017c1.81762,3.02937 4.06606,5.70262 5.41905,9.03763c1.22276,3.014 1.0732,6.08483 1.0732,9.2592c0,5.03293 -0.27535,10.06739 -1.82071,14.90809c-1.05336,3.29956 -3.09803,6.07893 -4.77887,9.04204c-3.73817,5.54742 -9.55133,10.04052 -16.47321,10.58625c-2.486,0.196 -5.04335,0.00948 -7.53784,0.00948c-6.9501,0 -13.5861,-0.98048 -19.67884,-4.50653c-1.66631,-1.65856 -3.75279,-2.76095 -5.50746,-4.35431c-1.82389,-1.6562 -2.73415,-2.88753 -4.17613,-5.12541c-3.57568,-5.54924 -3.78575,-11.68723 -3.77798,-18.02981c0.00393,-3.20336 0.15762,-6.69231 1.31365,-9.72258c0.86946,-2.27908 2.53176,-4.56439 3.77315,-6.60662c2.82321,-2.82321 4.91805,-6.54954 8.01006,-9.14624c4.64161,-3.89809 10.09253,-4.2919 15.82722,-4.2919c2.87215,0 5.69642,-0.08858 8.54514,0.30906c0,0 0.66185,0.09456 1.29039,0.51538z" fill="#c5d8e2" stroke="none" stroke-width="0.5"/><path d="M271.68161,91.30359c-0.0289,0.04877 -0.06284,0.09271 -0.10526,0.12828c-0.33347,0.27964 -0.83614,0.31641 -1.15028,0.61759c-1.03347,0.99085 -1.38668,2.82027 -1.99771,4.03341c-0.27181,0.53965 -0.79075,0.93519 -1.03638,1.48725c-1.42201,3.19607 -0.5265,7.86383 1.90974,10.22013c0.25977,0.26131 1.47535,1.53837 1.89192,1.77198c1.96687,1.103 5.21518,0.78603 7.38392,0.78603c0.87739,0 1.78044,0.31926 2.63025,0.10098c1.11628,-0.28672 2.60654,-1.86581 3.50185,-2.58316c2.25398,-1.80597 3.54547,-2.91585 4.05307,-5.87391c0.14466,-0.84304 0.42264,-1.42628 0.12252,-2.26561c-0.28214,-0.78901 -0.99221,-1.35129 -1.51821,-2.00356c-2.10852,-2.64966 -4.67389,-5.14096 -8.02339,-6.05728c-1.21751,-0.33307 -3.44908,0.07444 -4.70133,0.07444h-1.40545c0,0 -0.80946,0.00001 -1.55524,-0.43657zM280.75544,86.28138c4.51819,1.12168 8.12635,4.44157 10.95759,7.96485c0.80614,1.01423 2.01159,2.37001 2.41704,3.61822c1.23158,3.79154 -0.24036,8.89221 -2.81993,11.80648c-0.16088,0.18176 -2.77131,2.25964 -3.12369,2.54113c-1.55066,1.23874 -3.54474,3.05863 -5.493,3.6008c-0.44673,0.12431 -3.38369,0.10098 -4.11589,0.10098c-3.22118,0 -7.11437,0.11552 -10.04362,-1.46269c-1.15783,-0.62381 -2.23492,-1.79723 -3.16768,-2.72545c-3.96686,-4.0535 -5.30638,-10.79552 -3.14987,-16.20225c0.27686,-0.69412 0.87988,-1.21655 1.21233,-1.88582c0.91089,-1.83375 1.56417,-3.99145 3.06189,-5.52362c0.46017,-0.47075 1.1337,-0.67432 1.66061,-1.06895c0.61974,-0.46416 1.04793,-1.22759 1.772,-1.5019c2.32148,-0.87951 6.15515,-0.21183 8.65433,-0.21183c0,0 1.35933,0 2.17788,0.95005z" fill="#c5d8e2" stroke="none" stroke-width="0.5"/><path d="M338.8736,129.11617c0,0 -6.90739,-2.88367 -9.64913,-5.00872c-2.72033,-2.10846 -6.73757,-7.69218 -6.73757,-7.69218l12.67201,-6.86375c0.43109,0.68407 0.83341,1.22665 1.07534,1.48868c0.69096,0.74835 1.57719,1.64259 2.50483,2.16782c1.09865,0.62206 2.50005,0.99773 3.75333,1.00512c2.58098,0.01521 6.18837,0.38047 9.10756,-0.19834c4.57945,-0.90799 7.33134,-5.53915 8.27902,-9.5536c0.29541,-1.25141 1.11999,-3.3747 0.79398,-4.67876c-0.32062,-1.28251 -0.9033,-2.35259 -1.66331,-3.14959l14.34699,-7.77099l4.933,9.54677z" fill="#d6e1e6" stroke="none" stroke-width="0"/><path d="M343.55582,74.92458c-0.60663,-0.0189 -1.16412,0.00905 -1.57389,0.13853c-0.46016,0.14542 -0.75862,0.63359 -1.21721,0.78387c-1.31726,0.43165 -2.78663,0.29956 -4.08247,0.79181c-1.03692,0.3939 -2.85756,1.43065 -3.59463,2.20766c-0.37599,0.39637 -0.45467,1.02142 -0.84327,1.40544c-0.46823,0.46272 -1.1379,0.66877 -1.66061,1.06895c-1.04676,0.8014 -2.06183,2.15444 -2.89223,3.17331c-1.39287,1.70902 -1.61333,4.28995 -2.75719,6.19639c-1.01588,3.04762 -2.36181,6.0928 -2.86428,9.34238c-0.16648,1.07664 0.0269,2.17876 0.0269,3.26819c0,1.83859 -0.2709,3.97244 -0.0269,5.79799c0.30229,2.26162 1.61227,4.338 2.88593,6.08289c0.74858,1.02554 1.13658,2.2887 1.91037,3.29534c1.44477,1.87954 3.52869,3.10822 5.46055,4.39726c3.52037,2.15114 7.46747,1.53632 11.44201,1.53632c7.32073,0 14.41208,0.58509 20.92703,-3.45679c0.79542,-0.49348 1.28941,-1.35764 1.95292,-2.01792c3.73133,-2.98506 4.92786,-6.32046 6.21132,-10.79133c1.10952,-3.86497 1.57181,-8.78509 1.04931,-12.83068c-0.19004,-1.47135 -1.25282,-2.90495 -1.94127,-4.16626c-0.97025,-1.77759 -1.71468,-3.57352 -3.18248,-4.99316c-2.0881,-2.12137 -5.06699,-4.60466 -7.74138,-5.96c-1.7802,-0.90218 -4.14372,-1.15502 -6.06861,-1.80042c-2.79381,-0.93674 -4.82066,-2.12007 -7.83378,-2.10591h-1.12435c0,0 -1.72985,-0.00001 -2.46181,-1.36387zM349.27488,70.87756c2.61694,0.37253 4.7935,1.3537 7.46087,2.23685c2.19937,0.72821 4.79607,1.11073 6.86149,2.13484c3.2246,1.59887 6.58892,4.46522 9.12396,6.97009c1.83368,1.87373 2.88295,3.97031 4.12584,6.25041c1.01199,1.85653 2.2326,3.81099 2.55616,5.95296c0.2845,1.88341 0.0392,4.1425 0.03593,6.06754c-0.01409,8.31546 -2.39423,17.24565 -9.07847,22.59304c-3.17878,3.19768 -7.99781,5.5955 -12.4839,6.54319c-4.48431,0.94731 -9.54649,0.35002 -14.10786,0.35002c-5.20487,0 -9.75928,0.36196 -14.41819,-2.39892c-2.50094,-1.66593 -5.04065,-3.29649 -6.90737,-5.72196c-0.81342,-1.05689 -1.24228,-2.37088 -2.02488,-3.4508c-1.79834,-2.48153 -3.39427,-5.39678 -3.8602,-8.53375c-0.30586,-2.05929 -0.0269,-4.48704 -0.0269,-6.56994c0,-0.28768 -0.00851,-3.80922 0.0269,-4.04013c0.57879,-3.77429 2.13651,-7.34654 3.31967,-10.89603c1.39918,-2.33198 1.7596,-5.08976 3.42677,-7.2959c1.01786,-1.34691 2.53149,-3.09163 3.85392,-4.13501c0.34166,-0.26957 0.84482,-0.30761 1.15028,-0.61759c0.38348,-0.38914 0.4501,-1.02609 0.84327,-1.40545c1.19182,-1.14995 3.84366,-2.81112 5.40022,-3.41413c1.38045,-0.53477 2.94846,-0.41851 4.3502,-0.89471c0.57808,-0.19639 1.00132,-0.7549 1.59369,-0.90268c1.86854,-0.46616 4.4344,-0.10098 6.3646,-0.10098c0,0 1.65734,0 2.41399,1.27903z" fill="#c5d8e2" stroke="none" stroke-width="0.5"/><path d="M350.36759,90.67631c-4.27371,-0.99056 -8.26527,0.94355 -11.75617,3.38491c-1.44166,1.00822 -3.06133,2.04275 -3.86734,3.71639c-1.04449,2.16881 -0.75097,4.25154 -0.91583,6.5707c1.20259,2.08435 1.98818,4.46554 3.97839,5.97124c1.03027,0.77947 3.42336,0.97484 4.56131,1.21957c2.20755,0.47475 5.35458,1.03323 7.58758,0.56071c1.72627,-0.36529 2.99902,-1.78237 4.37707,-2.69496c0.44748,-0.29633 1.03051,-0.35686 1.46021,-0.67843c1.18115,-0.8839 2.16811,-3.08653 2.65678,-4.46563c-0.05179,-1.78821 0.35424,-4.02801 -0.19044,-5.75174c-0.92251,-2.91945 -3.33326,-4.83232 -5.80276,-6.31401l0.58846,0.39656c0,0 -2.16931,0 -2.67728,-1.91532zM355.14377,87.39193l0.1761,0.0307c3.6072,2.16432 6.97209,5.20772 8.2517,9.42699c0.78093,2.57496 0.41645,5.6489 0.37174,8.30271c-0.89672,2.76031 -2.3365,5.97962 -4.65154,7.90229c-0.55446,0.46049 -1.31423,0.60671 -1.91286,1.00811c-2.0369,1.36584 -3.77323,2.94296 -6.30432,3.48901c-2.97134,0.64103 -6.91098,0.06185 -9.83994,-0.56365c-2.30803,-0.4929 -4.67878,-0.80035 -6.68225,-2.15351c-3.14532,-2.12436 -4.61875,-5.92498 -6.14082,-9.20757c-0.11344,-3.54435 -0.33995,-7.01945 1.33288,-10.29465c1.31011,-2.56501 3.41116,-4.24439 5.68969,-5.84065c5.40368,-3.7856 11.38462,-5.79273 17.92854,-3.7283c0,0 1.31806,0.43936 1.78109,1.62852z" fill="#c5d8e2" stroke="none" stroke-width="0.5"/><path d="M393.05581,112.83782l-1.07136,-18.61282l23.60436,-6.63413l10.11545,5.54069l-10.9242,6.59373c-1.5021,-0.53163 -3.18817,-0.70119 -4.22018,-0.64797c-4.40073,0.22695 -7.33819,3.28159 -8.26788,7.17162c-0.13297,0.36226 -0.21326,0.74994 -0.23158,1.15378z" fill="#d6e1e6" stroke="none" stroke-width="0"/><path d="M435.31641,70.58674v0.8187c0,3.72873 0.92467,9.30536 -2.40603,11.99517c-2.17858,1.75938 -5.70518,1.4308 -8.29091,1.4308c-1.69678,0 -3.38529,0.0041 -5.06916,0.03553c0.34676,0.06831 0.68672,0.15557 1.01748,0.26626c2.16762,0.72533 2.12948,1.11037 3.78391,2.31039c2.51054,1.82098 5.16252,3.52206 5.97803,6.7921c0.39923,1.60084 -0.08538,3.32556 -0.36984,4.87566c-0.48746,0.79026 -0.79372,1.72655 -1.46238,2.37075c-2.0286,1.95436 -4.09203,1.65639 -6.60706,1.63376c-2.62937,-0.02366 -4.99971,-0.66949 -7.5412,-1.12754c-1.3554,-0.24428 -3.08589,0.03988 -4.46649,0.03593c-0.9846,-0.00281 -2.52249,-0.13449 -3.49601,0.24742c-0.17949,0.07041 -0.01182,2.69161 -0.00743,2.74412c0.16947,2.0313 0.69547,4.09356 1.01904,6.10838c1.01664,3.04994 0.90076,5.95489 0.90076,9.13076c0,2.22953 0.18529,4.55917 -0.00948,6.77917c-0.11247,1.28181 -0.73107,4.28004 -1.45064,5.09539c-0.79275,0.89827 -2.00405,1.36744 -3.13943,1.74986c-0.27397,0.09228 -3.34916,0.07445 -3.91417,0.07445c-2.18322,0 -4.36644,0 -6.54966,0c0,0 -2.78278,0 -2.78278,-2.78278c0,-0.16855 0.0102,-0.32688 0.02939,-0.47563c-0.02939,-0.20912 -0.02939,-0.34307 -0.02939,-0.34307c0.01548,-2.74317 -0.33228,-5.5011 -0.53633,-8.23044c-0.59032,-7.89632 -0.00948,-16.04905 -0.00948,-23.97201c0,-7.15401 -0.24973,-14.34265 3.02281,-20.89345c0.69984,-1.40089 1.3605,-2.90201 2.47895,-4.0443c0.86102,-0.87938 2.00893,-1.42235 3.00684,-2.14265c1.1452,-0.82662 2.7117,-1.85404 4.05681,-2.31038c2.23659,-0.75879 4.93099,-0.80752 7.25757,-1.19528c6.71377,-0.95911 13.5666,-0.57853 20.3474,-0.57853h1.36451c0,0 1.41684,0 2.22857,1.01098c1.64583,0.62978 1.64583,2.59051 1.64583,2.59051zM399.78538,128.38823c0.5458,0 1.09183,-0.01541 1.63741,0c0.38277,0.01081 1.06906,0.56437 1.13344,0.18689c0.3674,-2.15398 0.1773,-4.4927 0.1773,-6.68278c0,-3.22714 0.29262,-6.33876 -0.73665,-9.42658c-0.49917,-2.91335 -1.24475,-5.89324 -1.17366,-8.85787c0.02173,-0.90618 -0.20217,-1.86923 0.1194,-2.71672c1.79487,-4.73035 6.43068,-4.4325 10.57754,-4.4325c0.49377,0 3.43057,-0.00941 3.72058,0.03594c2.22424,0.34777 4.37126,1.08207 6.6497,1.05567c0.79919,-0.00925 2.42031,0.51076 2.84664,-0.36191c0.35344,-2.88295 -1.48954,-3.66139 -3.67048,-5.25217c-0.86975,-0.63441 -1.214,-1.17788 -2.21994,-1.51025c-1.20193,-0.39714 -2.82048,-0.13649 -4.05168,-0.13649c-2.27415,0 -4.54841,0.00616 -6.82256,0c-1.49068,-0.00403 -4.23042,0.15819 -5.24255,-1.08796c-3.95493,-4.86938 1.8712,-7.86663 5.4219,-9.0425c4.93395,-0.71384 9.84265,-0.89315 14.83026,-0.89315c1.63628,0 4.95712,0.61598 6.4458,-0.2066c0.44657,-0.24676 0.28439,-0.98412 0.34989,-1.49011c0.20625,-1.59325 0.06013,-3.35165 -0.00235,-5.01859c-6.39042,-0.01194 -12.87249,-0.38974 -19.19419,0.51336c-2.0421,0.34036 -4.41916,0.35286 -6.38754,0.98794c-0.60345,0.19469 -2.09109,1.21556 -2.49284,1.51024c-0.79843,0.58563 -1.73598,0.99322 -2.45121,1.67798c-0.27748,0.26566 -1.28132,2.38478 -1.34167,2.50534c-2.85519,5.70445 -2.43524,12.17689 -2.43524,18.40446c0,7.75843 -0.62291,15.78588 -0.00948,23.51296c0.17735,2.234 0.40528,4.47901 0.50509,6.72541c1.27235,0 2.54471,0 3.81706,0z" fill="#c5d8e2" stroke="none" stroke-width="0.5"/></g></g></svg>