<svg version="1.1" xmlns="http://www.w3.org/2000/svg" xmlns:xlink="http://www.w3.org/1999/xlink" width="64.42744" height="64.81722" viewBox="0,0,64.42744,64.81722"><g transform="translate(-292.78325,-174.52839)"><g data-paper-data="{&quot;isPaintingLayer&quot;:true}" fill-rule="nonzero" stroke="none" stroke-linecap="butt" stroke-linejoin="miter" stroke-miterlimit="10" stroke-dasharray="" stroke-dashoffset="0" style="mix-blend-mode: normal"><path d="M304.86318,209.21497c0,0 -1.68056,-20.15141 -2.42337,-31.41205c2.05409,0.83267 4.59235,1.28517 6.46044,1.74475c2.57986,1.13604 6.19418,1.91093 8.99892,1.91093c3.28644,0 6.57287,0 9.85931,0c2.01671,0 4.03342,0 6.05014,0c-0.06834,4.25901 -0.94752,9.01522 -1.1571,13.41687c-0.39713,8.34034 -0.19302,15.40772 -0.19302,15.40772z" fill="#c5d8e2" stroke-width="0"/><g stroke-width="0.5"><path d="M312.58519,226.37852c0.29577,1.99613 0.41252,4.14921 0.41252,6.18427c0,0.15859 0.00043,0.31709 0.00125,0.47551c-0.31677,0.00223 -0.63341,0.0035 -0.94987,0.0035c-1.54755,0 -3.0951,0 -4.64264,0c0.00053,-0.09397 0.00089,-0.18783 0.00108,-0.28158c-0.27916,-2.23326 0.1683,-4.58255 -0.15856,-6.79736c-0.18068,-1.22428 -0.59068,-2.46734 -0.75237,-3.70444c1.52233,0.3229 3.3048,-0.05892 4.79358,-0.05892c0.28257,0 0.56329,-0.00476 0.84199,-0.02507c0.32896,1.37648 0.24404,2.79364 0.45302,4.20409z" fill="#b0c1ca"/><path d="M307.17591,225.9122c-0.15127,-1.14201 -0.00591,-2.40098 -0.00493,-3.55468c0.36364,0.03255 0.73676,0.0363 1.11266,0.02436c-0.00335,1.09264 -0.15671,2.30565 -0.00487,3.38263c0.3452,2.44842 0.92782,4.76902 0.92905,7.27729c-0.37072,0 -0.74143,0 -1.11215,0c-0.01068,-2.45846 -0.60124,-4.72481 -0.91977,-7.12959z" fill="#c7d7e0"/><path d="M308.04636,226.14514c-0.09757,-1.06053 0.42021,-2.33896 -0.09759,-3.29363c0,0 -0.11772,-0.23543 -0.02928,-0.46338c0.33801,-0.00037 0.68008,-0.01707 1.02125,-0.0404c0.00218,0.00399 0.00326,0.00617 0.00326,0.00617c0.57937,1.22288 0.10628,2.39601 0.21057,3.69133c0.19061,2.3676 1.08131,4.59563 1.17547,6.99661c-0.37071,0 -0.74142,0 -1.11214,0c-0.08958,-2.35868 -0.95748,-4.5696 -1.17155,-6.89668z" fill="#cdd0e0"/></g><g stroke-width="0.5"><path d="M333.78434,219.13703c1.95515,0.29345 3.92863,0.66853 5.87748,1.10242c-0.82574,1.31221 -1.47363,2.72653 -1.99983,4.20452c-3.27271,-0.86099 -6.51519,-1.77407 -9.87007,-2.02556c0.67382,-1.29661 1.24271,-2.39815 1.69521,-3.72809c1.4045,0.34717 2.83216,0.22683 4.29721,0.44672z" fill="#b0c1ca"/><path d="M328.27243,221.87091c0,0 -0.07827,-0.00744 -0.17318,-0.04616c0.18146,-0.35282 0.35435,-0.69531 0.51843,-1.03705c3.27401,0.35715 6.40427,1.62013 9.63019,2.16123c-0.14833,0.34422 -0.2885,0.69288 -0.42128,1.04546c-3.19528,-0.59015 -6.29787,-1.81398 -9.55416,-2.12348z" fill="#c7d7e0"/><path d="M330.66438,220.68957c0.13625,-0.53941 0.67566,-0.40315 0.67566,-0.40315l0.24898,0.06289c0.82554,0.20853 1.56161,0.41134 2.31726,0.81437c0,0 0.49026,0.26302 0.22725,0.75327c-0.26302,0.49026 -0.75327,0.22725 -0.75327,0.22725c-0.67246,-0.36318 -1.3262,-0.52975 -2.06375,-0.71606l-0.24898,-0.06289c0,0 -0.5394,-0.13626 -0.40315,-0.67567z" fill="#cdd0e0"/></g><path d="M332.8684,210.15038c0.05703,0.19959 0.0183,0.34599 -0.05266,0.45111l-0.03104,0.16689c0,1.00428 0,2.00856 0,3.01284c0,0.72347 0.03643,1.34894 -0.19197,2.05046c-0.46724,1.43508 -1.36648,2.25274 -2.49516,2.68755v0.14767c0,1.88327 0.49504,4.62498 -1.90119,5.0335c-0.46833,0.00107 -0.92542,-0.0222 -1.3775,-0.05732c-0.00553,0.05522 -0.01027,0.11027 -0.01424,0.16516c-1.45507,-0.10772 -2.69168,-0.3927 -4.20326,-0.78708c0,0 -0.21337,-0.05334 -0.28988,0.14017c-0.4022,-0.11575 -0.77605,-0.30044 -1.06794,-0.60545c-1.17175,-1.22439 -1.11708,-2.99635 -1.28606,-4.57128c-1.7658,-0.32363 -3.59285,-0.35032 -5.42555,-0.33968c0.02344,0.12856 0.00208,0.23537 0.00208,0.23537l-0.07403,0.35947c-0.22076,1.94277 -0.4986,3.60234 -2.50322,3.87566c0.01347,0.03934 0.02651,0.07872 0.03913,0.11814c-0.23454,0.01296 -0.47043,0.01479 -0.70573,0.01479c-1.46046,0 -3.34103,0.43575 -4.84535,0.04331c-0.00333,-0.04927 -0.00615,-0.09852 -0.00845,-0.14775c-0.36151,-0.06865 -0.70351,-0.16721 -1.01362,-0.30557c-0.03557,-0.02435 -0.07069,-0.04958 -0.10535,-0.07573c0,0 -0.06787,-0.0509 -0.15419,-0.05387c-0.38434,-0.21429 -0.70671,-0.50311 -0.93849,-0.88931c-0.78747,-1.31211 -0.48896,-3.16189 -0.48266,-4.63054c-1.63022,-1.63705 -1.41826,-5.0258 -1.1343,-7.04633c0,0 0.06413,-0.44892 0.48189,-0.47827c0.28606,-0.16467 0.58616,0.04969 0.58616,0.04969c2.1287,1.5205 5.04326,1.38896 7.57377,1.74952c1.28314,0.18283 2.59522,0.49586 3.89414,0.4909c4.9269,0 9.90589,0.21333 14.7507,-0.41803c0.61664,-0.13691 1.12832,-0.30473 1.69297,-0.58872l0.3697,-0.11181c0.09647,-0.08326 0.23807,-0.13918 0.44413,-0.10484c0.16286,0.02714 0.26933,0.09457 0.33854,0.17597c0.05311,0.05852 0.09835,0.13747 0.12861,0.24339z" fill="#b0c1ca" stroke-width="0.5"/><path d="M307.72735,222.33838c0.1635,0 0.27894,0.04805 0.36047,0.1159c-0.23622,0.0037 -0.47035,-0.00055 -0.70014,-0.01631c0.08003,-0.05911 0.18961,-0.09959 0.33967,-0.09959z" fill="#c7d7e0" stroke-width="0.5"/><path d="M323.8725,223.26934c0.26176,-0.04027 0.41808,0.06323 0.51004,0.18275c-0.21439,-0.04568 -0.43049,-0.09474 -0.6502,-0.14691c0.0414,-0.01557 0.08792,-0.0278 0.14016,-0.03584z" fill="#c7d7e0" stroke-width="0.5"/><path d="M304.88507,216.33813c0.27223,0.27223 0.1677,0.54447 0.07748,0.68634c-0.29094,1.7369 0.12009,2.98039 1.87637,3.60116c0,0 0.52286,0.19013 0.33273,0.71299c-0.19013,0.52286 -0.71299,0.33274 -0.71299,0.33274c-2.30751,-0.85762 -2.98383,-2.64049 -2.56574,-4.98798l0.20534,-0.34524c0,0 0.39341,-0.39341 0.78681,0z" fill="#c7d7e0" stroke-width="0.5"/><path d="M303.66991,209.65247c0.55635,0 0.55636,0.55635 0.55636,0.55635v0.20544c0,1.58566 0.35411,2.64881 0.89098,4.1241c0,0 0.19012,0.52286 -0.33273,0.71299c-0.52286,0.19013 -0.71299,-0.33274 -0.71299,-0.33274c-0.57556,-1.58401 -0.95798,-2.79844 -0.95798,-4.50437v-0.20544c0,0 0,-0.55635 0.55635,-0.55635z" fill="#c7d7e0" stroke-width="0.5"/><path d="M305.61825,215.1559c-0.4274,0.35617 -0.78358,-0.07124 -0.78358,-0.07124l-0.34295,-0.45034c-0.6492,-1.5633 -0.96626,-2.5944 -0.81091,-4.32179c0,0 0.05036,-0.55408 0.60444,-0.5037c0.55407,0.05037 0.5037,0.60444 0.5037,0.60444c-0.14587,1.58593 0.13265,2.36412 0.72988,3.79309l0.17065,0.16598c0,0 0.35617,0.4274 -0.07124,0.78357z" fill="#cdd0e0" stroke-width="0.5"/><path d="M307.63418,220.51889c-0.29487,0.47179 -0.76666,0.17692 -0.76666,0.17692l-0.30615,-0.20573c-1.72415,-0.63459 -1.71658,-1.62002 -1.85374,-3.2501c0,0 -0.0462,-0.55444 0.50823,-0.60064c0.55443,-0.0462 0.60063,0.50823 0.60063,0.50823c0.10024,1.2139 -0.12355,1.84929 1.12514,2.29679l0.51561,0.30787c0,0 0.4718,0.29487 0.17692,0.76666z" fill="#cdd0e0" stroke-width="0.5"/><path d="M323.71778,222.55267c0.3934,-0.39341 0.78681,0 0.78681,0l0.09712,0.10319c0.11984,0.15408 0.23968,0.30816 0.35952,0.46224c0,0 0.1714,0.22037 0.11526,0.47031c-0.46157,-0.08246 -0.92148,-0.18213 -1.39906,-0.29636c-0.08914,-0.11605 -0.27131,-0.42772 0.04036,-0.7394z" fill="#cdd0e0" stroke-width="0.5"/><path d="M324.68151,224.00119c-0.21645,0.0761 -0.39525,-0.01985 -0.49948,-0.10325c0.16739,0.036 0.33361,0.07049 0.49948,0.10325z" fill="#cdd0e0" stroke-width="0.5"/><path d="M320.51599,216.99694c0.55635,0 0.55635,0.55636 0.55635,0.55636v0.10272c-0.00097,1.53089 0.60088,2.62614 1.36229,3.93118c0,0 0.28033,0.48056 -0.20024,0.7609c-0.48057,0.28034 -0.7609,-0.20023 -0.7609,-0.20023c-0.86185,-1.47773 -1.51283,-2.75105 -1.51387,-4.49185v-0.10272c0,0 0.00001,-0.55636 0.55636,-0.55636z" fill="#cdd0e0" stroke-width="0.5"/><g stroke-width="0.5"><path d="M341.86165,223.87017c-0.00508,3.68236 1.30285,7.28457 1.30285,10.99278v0.16195c1.18794,-0.16168 2.7959,-0.91517 3.76385,-0.40036c1.04121,0.55376 1.23816,3.57718 0.34018,4.35431c-0.07619,0.06594 -1.28752,0.26409 -1.52668,0.2811c-1.34777,0.09588 -2.76166,0.08115 -4.11084,0.08283c-1.62856,0 -3.25712,0.0011 -4.88568,0c-0.39254,-0.00027 -1.33482,0.04233 -1.63738,-0.19325c-0.86595,-0.67424 -0.63861,-3.22401 -0.37244,-4.14341c0.08691,-0.30021 0.1091,-0.66407 0.3413,-0.87327c0.40203,-0.3622 1.7207,-0.31076 2.25094,-0.37705c0,0 0.00041,-0.00005 0.00122,-0.00014v-0.11415c0,-3.99509 -0.08143,-7.97511 -0.08143,-11.96992c0,-0.33598 0.00163,-0.67186 0.00419,-1.00759c1.56752,0.15145 3.10116,0.44003 4.5841,0.93124c0.01743,0.76117 0.02582,1.52035 0.02582,2.27491z" fill="#b0c1ca"/><g><path d="M338.62608,233.91768v-0.56495c0,-3.85892 -0.02016,-7.62753 -0.71137,-11.41256c-0.0615,-0.40558 -0.10842,-0.81259 -0.14391,-1.22076c0.3777,0.04422 0.75331,0.0969 1.12658,0.15897c0.03124,0.29335 0.06907,0.58594 0.1147,0.87765c0.69616,3.84773 0.72671,7.67569 0.72671,11.59671v0.56495c0,0 0,0.55636 -0.55635,0.55636h-0.00001c-0.55635,0 -0.55636,-0.55636 -0.55636,-0.55636z" fill="#c7d7e0"/><path d="M340.10691,227.35221c0.55635,0 0.55636,0.55636 0.55636,0.55636v0.05136c0,1.94233 0.10272,3.85877 0.10272,5.80368c0,0 0,0.55636 -0.55635,0.55636c-0.55635,0 -0.55636,-0.55636 -0.55636,-0.55636c0,-1.94492 -0.10272,-3.86095 -0.10272,-5.80368v-0.05136c0,0 0,-0.55636 0.55635,-0.55636z" fill="#cdd0e0"/><path d="M340.08934,222.77576c0,0 0.09952,0.54738 -0.44786,0.64691c-0.54739,0.09952 -0.64691,-0.44786 -0.64691,-0.44786c-0.1318,-0.73242 -0.35555,-1.43213 -0.50115,-2.15986c0.39632,0.0586 0.79013,0.12732 1.18114,0.20726c0.13622,0.58474 0.30549,1.15794 0.41478,1.75355z" fill="#cdd0e0"/></g></g><path d="M334.00379,181.47119c-0.03098,-0.00344 -0.061,-0.00766 -0.09009,-0.0126c0.16369,0 0.32737,0 0.49106,0c-0.11672,0.02322 -0.24964,0.02941 -0.40096,0.0126z" fill="#c5d8e2" stroke-width="0.5"/><path d="M302.39324,178.77451c-1.0911,0.21822 -1.30933,-0.87288 -1.30933,-0.87288l-0.10086,-0.51624c-0.01456,-0.10918 -0.02914,-0.21786 -0.04365,-0.32614c0.66511,0.40995 1.44815,0.74774 2.2823,1.03579c-0.0935,0.28345 -0.31729,0.57725 -0.82845,0.67949z" fill="#c5d8e2" stroke-width="0.5"/><path d="M302.26791,180.3067c-1.11271,0 -1.11271,-1.11272 -1.11271,-1.11272l0.00552,-0.35779c-0.03905,-0.39042 -0.07808,-0.78086 -0.11713,-1.17128c0,0 -0.02392,-0.23918 0.06165,-0.50633c0.65657,0.38231 1.41677,0.69982 2.22149,0.97237c0.01613,0.16127 0.03225,0.32253 0.04838,0.4838l0.00553,0.57923c0,0 0,1.11272 -1.11272,1.11272z" fill="#c5d8e2" stroke-width="0.5"/><path d="M304.14195,208.65163c-1.11271,0 -1.11271,-1.11271 -1.11271,-1.11271l0.00114,-1.2217c0.26887,-2.9473 0.89281,-5.63266 0.59002,-8.62344c0,0 -0.03292,-0.32922 0.11665,-0.64656c-0.17281,-0.63702 -0.33948,-1.25758 -0.34658,-1.30765c-0.2276,-1.60389 0.05443,-3.2618 -0.22847,-4.8812c-0.22143,-1.26754 -0.66413,-2.50145 -0.8255,-3.7849c-0.1701,-1.35287 -0.39036,-2.64086 -0.58387,-3.96981c-0.20316,-1.39519 0.20192,-2.02232 -0.47996,-3.29493c0,0 -0.49763,-0.99524 0.49761,-1.49286c0.99524,-0.49762 1.49286,0.49762 1.49286,0.49762c0.22445,0.47108 0.55264,0.90558 0.67334,1.41325c0.19691,0.82819 -0.11265,1.71256 0.01797,2.55375c0.39858,2.56694 0.95574,5.13152 1.4017,7.70615c0.28476,1.64407 0.00639,3.3357 0.24004,4.95753c0.11993,0.83249 0.45211,1.62028 0.67341,2.43173l0.23064,0.80698c0,0 0.27205,0.9522 -0.59545,1.31667c-0.07708,2.14664 -0.45151,4.21187 -0.65128,6.4185l0.00114,1.12086c0,0 0,1.11271 -1.11271,1.11271z" fill="#c5d8e2" stroke-width="0.5"/><path d="M332.80661,210.24448c-1.06579,0.31974 -1.38552,-0.74606 -1.38552,-0.74606l-0.3771,-1.27479c-0.30794,-2.99504 -0.1846,-6.37785 0.45591,-9.35592c-0.00862,-0.06986 -0.00861,-0.11339 -0.00861,-0.11339v-0.23426c0.00251,-2.02715 -0.56475,-3.86179 -0.46737,-5.90681c0.08917,-1.87268 0.56717,-3.52792 0.96166,-5.34135c0.42403,-1.94926 0.57462,-3.85636 0.7306,-5.81333c0.74383,0 1.48765,0 2.23148,0c-0.1728,2.11876 -0.33099,4.18507 -0.78822,6.28964c-0.3677,1.69246 -0.82919,3.21891 -0.91237,4.96589c-0.08594,1.80469 0.36513,3.45549 0.45449,5.2329c0.21183,0.39187 0.09906,0.84294 0.09906,0.84294c-0.71149,2.77107 -0.849,6.1414 -0.57363,9.00126l0.32567,1.06776c0,0 0.31974,1.06579 -0.74605,1.38552z" fill="#c5d8e2" stroke-width="0.5"/><path d="M333.68724,208.04102c0.55206,0.9661 -0.41405,1.51817 -0.41405,1.51817l-0.70432,0.39257c-0.20077,0.15057 -2.1855,1.63959 -2.19573,1.64427c-1.56488,0.71604 -3.83136,0.33519 -5.49957,0.33519c-5.5147,0 -10.79078,-0.90427 -16.26356,-1.41003c-1.86723,-0.17256 -4.65295,0.67264 -5.82542,-1.45259c-0.28301,-0.51298 0.01062,-1.17168 0.01592,-1.75752c0,0 0.11072,-1.10719 1.21791,-0.99647c1.10719,0.11072 0.99647,1.21791 0.99647,1.21791c-0.07277,0.19502 -0.27453,0.38462 -0.21834,0.58504c0.12591,0.44905 0.92076,0.1725 1.38699,0.18384c1.36892,0.0333 2.6041,0.06581 3.96069,0.24272c4.91376,0.64081 9.77512,1.16167 14.72933,1.16167c1.23406,0 3.42638,0.4411 4.57343,-0.13332c0.6767,-0.33889 1.18118,-0.94694 1.78661,-1.40105l0.93546,-0.54445c0,0 0.96611,-0.55206 1.51817,0.41405z" fill="#c5d8e2" stroke-width="0.5"/><path d="M303.70126,186.18828c0,0.55635 -0.55636,0.55636 -0.55636,0.55636l-0.0633,-0.00164c-1.4002,0.1069 -2.73958,0.07648 -4.09959,-0.29635c-0.52443,-0.2418 -0.91524,-0.3392 -1.27185,-0.83758c-0.75099,-1.04958 -0.84688,-3.29414 -0.79059,-4.53269c0.00978,-0.21525 0.11731,-1.31115 0.18364,-1.42497c0.782,-1.34185 3.00887,-1.60835 4.34351,-1.48828c0,0 0.55407,0.05037 0.5037,0.60445c-0.05037,0.55408 -0.60444,0.5037 -0.60444,0.5037c-0.92251,-0.08481 -2.72467,0.01647 -3.28652,0.94909c-0.14254,0.2366 -0.02732,1.17987 -0.02774,1.46407c-0.00182,1.24349 0.09192,3.16565 1.32812,3.71561c1.20011,0.32513 2.40313,0.32914 3.63642,0.23351l0.14865,-0.00163c0,0 0.55636,0 0.55636,0.55635z" fill="#b0c1ca" stroke-width="0.5"/><path d="M353.62603,203.95395c0.12547,0.6002 0.93348,1.05591 1.13784,1.63867c0.34842,0.9935 -0.7481,0.79574 -1.29993,0.58822c-0.9158,-0.34439 -2.22887,-2.94441 -1.34665,-3.3903c-0.02356,-0.06151 -0.04288,-0.12803 -0.05752,-0.19968l-0.0589,-0.10262c-0.78536,-1.40054 -2.27998,-2.45476 -3.3133,-3.67191c-1.33954,-1.57784 -2.60161,-2.98513 -4.15543,-4.38345c0.90336,-0.19941 1.47878,-0.88584 2.44581,-1.23235c0.70203,0.76954 1.59338,1.34192 2.29662,2.13657c1.54569,1.74662 3.05979,3.36445 4.3079,5.34303c0.38465,-0.15598 0.72977,-0.17462 0.87947,0.07014c0.20122,-0.01666 0.40526,-0.00554 0.59403,0.03875c0.54067,0.12685 3.42079,1.76954 1.5057,2.1564c-0.03754,0.00759 -0.07697,0.00868 -0.11488,0.0032c-0.62842,-0.09094 -1.16778,-0.32921 -1.6963,-0.50147c-0.01694,0.02975 -0.0369,0.05904 -0.06024,0.08778c-0.3153,0.38827 -0.73955,0.66386 -1.15666,0.78823c0.02978,0.21615 0.05147,0.43472 0.09246,0.6308zM347.55839,195.14911c-0.52606,-0.47747 -1.03115,-0.82515 -1.48618,-1.31c-0.08316,0.09136 -0.17947,0.17047 -0.28498,0.2368c1.35848,1.27761 2.5176,2.58704 3.7432,4.014c0.94133,1.09599 2.16985,2.06635 3.03937,3.24567c0.02339,-0.02124 0.0473,-0.04236 0.07164,-0.06331c-1.38259,-2.22036 -3.15121,-4.36975 -5.08305,-6.12314z" fill="#b0c1ca" stroke-width="0.5"/><path d="M345.71453,194.74857c-0.03284,0.03229 -0.06533,0.05998 -0.09687,0.08239c-0.54381,0.38635 -1.51172,0.2558 -1.9732,-0.19512c-0.43203,-0.42216 -0.58449,-0.8755 -0.54686,-1.31368c-0.41373,-0.38917 -0.81921,-0.73868 -1.19174,-1.20078c-2.56267,-2.55724 -4.37871,-6.07159 -7.35637,-8.14213c0,0 -0.45579,-0.31905 -0.13674,-0.77483c0.31905,-0.45578 0.77483,-0.13673 0.77483,-0.13673c3.05267,2.14933 4.91814,5.67704 7.54738,8.31161c0.26246,0.33084 0.54388,0.59638 0.83362,0.86403c0.12283,-0.15391 0.26439,-0.29854 0.41857,-0.43077c-0.54318,-0.47447 -0.96101,-1.00878 -1.44887,-1.56707c-1.22398,-1.75543 -2.65368,-3.39656 -3.89216,-5.15003c-0.78415,-1.11022 -1.71187,-3.02285 -2.99738,-3.63687c0.25506,0 0.51012,0 0.76518,0c0.31146,0 0.62115,-0.01855 0.92893,-0.05351c0.86785,0.90382 1.54733,2.10603 2.21341,3.05026c1.22649,1.73868 2.63821,3.36799 3.85779,5.10375c0.51717,0.59026 0.93147,1.15418 1.56515,1.62696l0.01582,0.01529c0.2875,-0.11371 0.57664,-0.18004 0.84267,-0.18617c0,0 0.14566,0.00001 0.28791,0.07453c0.25732,1.20825 1.06057,1.98735 0.52837,3.32358c-0.26023,0.201 -0.60518,0.33197 -0.93946,0.33533z" fill="#b0c1ca" stroke-width="0.5"/><path d="M306.9706,230.83052c0,-0.12291 0.09963,-0.22254 0.22254,-0.22254c0.12291,0 0.22254,0.09964 0.22254,0.22254c0,0.12291 -0.09964,0.22254 -0.22254,0.22254c-0.12291,0 -0.22254,-0.09964 -0.22254,-0.22254z" fill="#6b767b" stroke-width="0.5"/><g><path d="M336.08849,224.43782c-0.15736,-0.15736 0,-0.31473 0,-0.31473l0.20776,-0.1549c1.2413,-0.24293 2.63513,-0.00903 3.88786,-0.00145c0.41998,0.13619 1.04475,0.1899 1.38293,0.47758c0.05994,0.051 0.13331,0.14111 0.20532,0.24417c-0.10002,-0.42907 -0.18344,-1.00193 -0.24331,-1.40936l-0.09967,-0.13288c-0.02876,-0.0375 -0.04586,-0.08442 -0.04586,-0.13532c0,-0.12291 0.09964,-0.22255 0.22254,-0.22255c0.06145,0 0.11709,0.02492 0.15736,0.06519l0.2351,0.2351c0.18649,0.18685 0.32298,0.49767 0.38483,0.66245c-0.12261,-0.48868 0.18398,-1.09778 -0.11562,-1.5564c-0.05012,-0.06774 -0.12462,-0.12299 -0.15038,-0.20323c-0.3739,-1.16413 0.6359,-0.38305 0.98782,-0.07399c-0.0597,-0.13416 -0.10968,-0.33429 -0.11219,-0.34272c-0.07335,-0.24607 -0.15275,-0.51769 -0.35572,-0.69837c-0.33692,-0.29991 -1.47844,-0.56262 -1.89948,-0.55922c-1.66703,-0.32764 -3.49772,0.07734 -5.1173,-0.38364c0,0 -0.21398,-0.06114 -0.15285,-0.27511c0.06113,-0.21398 0.27512,-0.15285 0.27512,-0.15285c1.58954,0.45601 3.3994,0.03342 5.03889,0.36868c1.11975,0.00806 2.86433,0.71941 2.7856,2.08031c-0.05345,0.92396 -0.60789,0.42507 -0.89321,0.08014c0.15528,0.44822 0.45439,2.09668 0.0761,2.25132c-0.15165,0.06199 -0.31023,-0.01883 -0.46064,-0.15496c0.15801,0.58647 0.23002,1.25446 0.0529,1.41893c-0.12436,0.11548 -0.33504,0.1594 -0.49723,0.10944c-0.24555,-0.07563 -0.37384,-0.69914 -0.57623,-0.8846c-0.24708,-0.22642 -0.83506,-0.25785 -1.15613,-0.36876c-1.19759,0.00799 -2.54457,-0.24453 -3.72928,-0.00145l0.01967,0.03318c0,0 -0.15736,0.15736 -0.31472,0z" fill="#6b767b" stroke-width="0.5"/><path d="M336.19883,224.18642c0,0 -0.04702,-1.85621 -0.04702,-2.63308c0,-0.63719 0.18808,-1.73972 0.18808,-1.73972c0,0 4.83867,0.20088 6.00599,0.51638c0.49123,0.13277 0.95287,1.3644 0.95287,1.3644c0,0 -0.88606,0.87988 -0.76709,1.68093c0.11606,0.78146 -0.69051,1.18725 -0.69051,1.18725c0,0 -1.80682,-0.58751 -2.7215,-0.64849c-0.96355,-0.06423 -2.92083,0.27233 -2.92083,0.27233z" fill="#606a6e" stroke-width="0"/><path d="M336.21803,220.855c-0.05397,-0.2159 0.16192,-0.26988 0.16192,-0.26988l0.24205,-0.05366c0.31346,0 0.62692,0 0.94039,0c1.57422,0 2.97603,0.5908 4.51049,0.89769c0,0 0.21822,0.04364 0.17457,0.26187c-0.04364,0.21822 -0.26187,0.17458 -0.26187,0.17458c-1.50517,-0.30104 -2.88215,-0.88905 -4.4232,-0.88905c-0.31346,0 -0.62692,0 -0.94039,0l-0.1341,0.04038c0,0 -0.2159,0.05398 -0.26987,-0.16192z" fill="#303537" stroke-width="0.5"/><path d="M335.88225,222.4467c0,-0.22254 0.22254,-0.22254 0.22254,-0.22254l0.05039,0.00432c0.32175,-0.06435 0.62092,-0.17001 0.94039,-0.2351c1.37661,-0.2694 3.48508,0.0526 4.59699,0.88653c0,0 0.17803,0.13353 0.04451,0.31156c-0.13353,0.17803 -0.31156,0.04451 -0.31156,0.04451c-1.00266,-0.752 -2.99585,-1.06198 -4.24264,-0.80617c-0.31827,0.06225 -0.61935,0.17089 -0.94039,0.2351l-0.13769,0.00432c0,0 -0.22254,0 -0.22254,-0.22254z" fill="#303537" stroke-width="0.5"/></g><path d="M301.94476,211.00886c-0.17361,-0.2755 -0.17361,-0.58685 -0.17361,-0.58685v-0.48856c0.00087,-1.29442 -0.2196,-3.18255 1.18778,-3.98116c1.15463,-0.65518 3.4435,0.57776 4.64298,0.79895c4.12583,0.76081 8.22574,1.52935 12.43343,1.52935c2.83322,0 5.53193,-0.17386 8.33437,-0.56097c0.80241,-0.11084 3.09131,-0.80843 3.8124,-0.54515c2.02823,0.74054 2.01613,4.40781 0.70231,5.82024c-0.24783,0.26642 -2.0132,0.77205 -2.4575,0.90874c-2.19182,0.67428 -4.12051,0.77713 -6.40161,0.77713c-3.36271,0 -6.86554,0.28099 -10.20898,-0.08769c-3.81466,-0.42065 -7.6692,-1.53719 -11.24037,-2.91046c0,0 -0.5087,-0.19566 -0.6312,-0.67356z" fill="#606a6e" stroke-width="0.5"/><g stroke-width="0.5"><path d="M298.72139,190.21698c-0.00471,-0.22249 0.21779,-0.2272 0.21779,-0.2272c0.26718,-0.00565 0.62342,-0.01319 0.8906,-0.01884c1.79095,-0.03391 2.84437,-1.19185 3.67365,-2.64268c0,0 0.11044,-0.19321 0.30365,-0.08277c0.19321,0.11043 0.08277,0.30364 0.08277,0.30364c-0.90879,1.58997 -2.1073,2.82184 -4.05065,2.8668c-0.26718,0.00565 -0.53437,0.0113 -0.80156,0.01696l-0.08906,0.00189c0,0 -0.22249,0.00471 -0.2272,-0.21779z" fill="#3a53e0"/><path d="M304.38409,187.12386c0.21256,0.06589 0.14667,0.27846 0.14667,0.27846l-0.04791,0.15197c-0.18816,0.45227 -0.48579,0.80287 -0.82464,1.15637c-1.15343,1.20329 -2.98177,2.47692 -4.69265,2.52566c0,0 -0.22249,0.00471 -0.2272,-0.21779c-0.00471,-0.22249 0.21779,-0.2272 0.21779,-0.2272c1.57761,-0.01924 3.32238,-1.28454 4.38075,-2.38867c0.29445,-0.30718 0.57937,-0.61855 0.73324,-1.01501l0.03549,-0.11711c0,0 0.06589,-0.21257 0.27846,-0.14668z" fill="#3ae054"/><path d="M302.40814,188.08265c0.18774,0.1195 0.06823,0.30724 0.06823,0.30724l-0.18515,0.28887c-0.33297,0.32712 -0.81535,0.39164 -1.25984,0.23116c-0.20598,-0.07437 -0.40583,-0.47683 -0.56818,-0.32985c-0.13805,0.12499 0.15394,0.608 0.10114,0.77142c-0.22322,0.69085 -0.88501,0.33261 -1.3182,0.44896c0,0 -0.21725,0.04826 -0.2655,-0.16899c-0.04825,-0.21725 0.16899,-0.26551 0.16899,-0.26551c0.18363,-0.03576 0.90451,0.1732 0.98609,-0.1344c0.09869,-0.37214 -0.44754,-0.61941 0.06346,-1.00979c0.54113,-0.41342 1.24513,0.77251 1.74195,0.18217l0.15978,-0.25303c0,0 0.1195,-0.18774 0.30724,-0.06824z" fill="#e03a3a"/></g><g><path d="M306.56129,235.86993c-0.15736,-0.15736 0,-0.31473 0,-0.31473l0.20776,-0.1549c1.2413,-0.24293 2.63513,-0.00903 3.88786,-0.00145c0.41998,0.13619 1.04475,0.1899 1.38293,0.47758c0.05994,0.051 0.13331,0.14111 0.20532,0.24417c-0.10002,-0.42907 -0.18344,-1.00193 -0.24331,-1.40936l-0.09967,-0.13288c-0.02876,-0.0375 -0.04586,-0.08442 -0.04586,-0.13532c0,-0.12291 0.09964,-0.22255 0.22254,-0.22255c0.06145,0 0.11709,0.02492 0.15736,0.06519l0.2351,0.2351c0.18649,0.18685 0.32298,0.49767 0.38483,0.66245c-0.12261,-0.48868 0.18398,-1.09778 -0.11562,-1.5564c-0.05012,-0.06774 -0.12462,-0.12299 -0.15038,-0.20323c-0.3739,-1.16413 0.6359,-0.38305 0.98782,-0.07399c-0.0597,-0.13416 -0.10968,-0.33429 -0.11219,-0.34272c-0.07335,-0.24607 -0.15275,-0.51769 -0.35572,-0.69837c-0.33692,-0.29991 -1.47844,-0.56262 -1.89948,-0.55922c-1.66703,-0.32764 -3.49772,0.07734 -5.1173,-0.38364c0,0 -0.21398,-0.06114 -0.15285,-0.27511c0.06113,-0.21398 0.27512,-0.15285 0.27512,-0.15285c1.58954,0.45601 3.3994,0.03342 5.03889,0.36868c1.11975,0.00806 2.86433,0.71941 2.7856,2.08031c-0.05345,0.92396 -0.60789,0.42507 -0.89321,0.08014c0.15528,0.44822 0.45439,2.09668 0.0761,2.25132c-0.15165,0.06199 -0.31023,-0.01883 -0.46064,-0.15496c0.15801,0.58647 0.23002,1.25446 0.0529,1.41893c-0.12436,0.11548 -0.33504,0.1594 -0.49723,0.10944c-0.24555,-0.07563 -0.37384,-0.69914 -0.57623,-0.8846c-0.24708,-0.22642 -0.83506,-0.25785 -1.15613,-0.36876c-1.19759,0.00799 -2.54457,-0.24453 -3.72928,-0.00145l0.01967,0.03318c0,0 -0.15736,0.15736 -0.31472,0z" fill="#6b767b" stroke-width="0.5"/><path d="M306.67163,235.61855c0,0 -0.04702,-1.85621 -0.04702,-2.63308c0,-0.63719 0.18808,-1.73972 0.18808,-1.73972c0,0 4.83867,0.20088 6.00599,0.51638c0.49123,0.13277 0.95287,1.3644 0.95287,1.3644c0,0 -0.88606,0.87988 -0.76709,1.68093c0.11606,0.78146 -0.69051,1.18725 -0.69051,1.18725c0,0 -1.80682,-0.58751 -2.7215,-0.64849c-0.96355,-0.06423 -2.92083,0.27233 -2.92083,0.27233z" fill="#606a6e" stroke-width="0"/><path d="M306.69084,232.28711c-0.05397,-0.2159 0.16192,-0.26988 0.16192,-0.26988l0.24205,-0.05366c0.31346,0 0.62692,0 0.94039,0c1.57422,0 2.97603,0.5908 4.51049,0.89769c0,0 0.21822,0.04364 0.17457,0.26187c-0.04364,0.21822 -0.26187,0.17458 -0.26187,0.17458c-1.50517,-0.30104 -2.88215,-0.88905 -4.4232,-0.88905c-0.31346,0 -0.62692,0 -0.94039,0l-0.1341,0.04038c0,0 -0.2159,0.05398 -0.26987,-0.16192z" fill="#303537" stroke-width="0.5"/><path d="M306.35506,233.87883c0,-0.22254 0.22254,-0.22254 0.22254,-0.22254l0.05039,0.00432c0.32175,-0.06435 0.62092,-0.17001 0.94039,-0.2351c1.37661,-0.2694 3.48508,0.0526 4.59699,0.88653c0,0 0.17803,0.13353 0.04451,0.31156c-0.13353,0.17803 -0.31156,0.04451 -0.31156,0.04451c-1.00266,-0.752 -2.99585,-1.06198 -4.24264,-0.80617c-0.31827,0.06225 -0.61935,0.17089 -0.94039,0.2351l-0.13769,0.00432c0,0 -0.22254,0 -0.22254,-0.22254z" fill="#303537" stroke-width="0.5"/></g><path d="M303.82853,181.72647c1.69752,4.50185 -4.3459,6.52142 -5.88492,2.31297c-1.02594,-2.80543 0.17852,-5.4545 2.06283,-5.52148c0.15751,-0.02946 0.32035,-0.0449 0.48699,-0.0449c1.21292,0 2.2241,0.81812 2.45195,1.90353c0.2613,0.34596 0.52192,0.7453 0.7792,1.20221z" fill="#a1b9c7" stroke-width="0.5"/><path d="M334.88237,181.25576c0,0.99605 -6.92442,0.25764 -16.03114,0.25764c-9.10672,0 -16.60369,-1.60901 -16.60369,-2.60506c0,-0.39774 -2.02903,-2.65481 -0.03491,-2.953c2.99962,-0.44855 11.85545,-1.42694 17.32564,-1.42694c6.45987,0 11.81947,1.79605 14.18959,3.82797c0.97112,0.83255 1.15451,2.60989 1.15451,2.89939z" fill="#c5d8e2" stroke-width="0"/><path d="M299.24359,236.24753c-0.4466,-0.01137 -0.8932,-0.02274 -1.3398,-0.03411c-0.04531,-0.35877 -0.09626,-0.71898 -0.21806,-1.07801c-0.56288,-0.79022 -0.33303,-1.98603 -0.18314,-3.16384c1.00932,-0.03136 2.01734,-0.27776 2.94734,-0.6517l0.4585,-0.18436c0.09473,-0.03557 0.16214,-0.12697 0.16214,-0.23412c0,-0.06491 -0.02474,-0.12404 -0.0653,-0.16848c0.28673,-0.11341 0.50325,-0.21172 0.59623,-0.27351l0.00719,-0.01027l0.00234,0.00287l0.11184,-0.09128c3.21321,-0.12151 6.52067,0.15685 9.717,0.27418c-0.03943,1.54847 -0.07885,3.09693 -0.11828,4.64539c-0.00809,0.31766 -0.0149,0.63552 -0.02076,0.95354c-4.03986,-0.06131 -8.0347,0.1161 -12.05725,0.01369z" fill="#b0c1ca" stroke-width="0.5"/><path d="M297.75428,235.99797l-0.09231,0.03046c-0.93323,0.30798 -3.13422,1.46416 -4.08542,0.95746c-0.19141,-0.10196 -0.52326,-1.19226 -0.60809,-1.45213c-0.80811,-2.47555 1.1832,-2.90582 2.97851,-3.79677c1.83196,-0.60925 3.5971,-0.99478 5.43515,-1.45068c0.63698,-0.15799 1.7207,-0.36402 2.3439,-0.00316c1.54872,0.89681 0.83813,2.77301 -0.34622,3.5276l0.01384,0.07745c-1.32066,0.89414 -3.77977,0.60585 -4.75435,1.85474c-0.25254,0.19533 -0.52186,0.34264 -0.79376,0.48084c-0.03624,-0.05664 -0.07529,-0.13482 -0.09125,-0.22582z" fill="#b0c1ca" stroke-width="0.5"/><path d="M297.76563,230.92888c0.18826,0.00479 0.94129,0.02397 1.12955,0.02876c1.43633,0.03657 2.83666,0.32715 4.27676,0.41763c2.75223,0.17293 5.50351,0.10387 8.24947,-0.01597c-0.00946,0.37158 -0.01892,0.74316 -0.02838,1.11475c-2.76096,0.12163 -5.52844,0.18383 -8.29561,0.01145c-1.42415,-0.08872 -2.81211,-0.37938 -4.23056,-0.41549c-0.18826,-0.00479 -0.37652,-0.00959 -0.56478,-0.01438l-0.56478,-0.01438c0,0 -0.1133,-0.00288 -0.23632,-0.05719c0.04455,-0.34881 0.08236,-0.69618 0.09078,-1.03109c0.09716,-0.02603 0.17386,-0.02408 0.17386,-0.02408z" fill="#c7d7e0" stroke-width="0.5"/><path d="M299.59145,232.1998c0.01416,-0.55617 0.57034,-0.54202 0.57034,-0.54202l0.28389,0.01282c1.91701,0.32786 3.87775,0.4485 5.79753,0.81748c0,0 0.54628,0.10541 0.44088,0.65168c-0.1054,0.54627 -0.65168,0.44088 -0.65168,0.44088c-1.91015,-0.37009 -3.86305,-0.49397 -5.77207,-0.81289l-0.12686,0.00236c0,0 -0.55618,-0.01416 -0.54202,-0.57033z" fill="#cdd0e0" stroke-width="0.5"/></g></g></svg>