<svg version="1.1" xmlns="http://www.w3.org/2000/svg" xmlns:xlink="http://www.w3.org/1999/xlink" width="14.58491" height="16.44729" viewBox="0,0,14.58491,16.44729"><g transform="translate(-289.76439,-170.87044)"><g data-paper-data="{&quot;isPaintingLayer&quot;:true}" fill-rule="nonzero" stroke="none" stroke-linecap="butt" stroke-linejoin="miter" stroke-miterlimit="10" stroke-dasharray="" stroke-dashoffset="0" style="mix-blend-mode: normal"><path d="M289.7644,174.27521c0.29601,-0.07307 0.58958,-0.15277 0.87951,-0.24199c2.80643,-0.86352 5.35437,-2.35215 8.11495,-3.16278c0.45709,0.43043 1.3026,1.014 1.54737,1.52906c0.21684,0.4563 -0.11757,0.98027 0.29252,1.42698c0.01898,0.02068 1.04812,0.33849 1.00946,0.5539c-0.18385,1.02446 -2.47355,1.55502 -0.56583,2.81344c0.22706,0.13933 0.44365,0.29768 0.64561,0.4719l0.00466,0.02795c-0.78926,-0.04173 -2.34033,0.34213 -2.27593,1.09937c0.07818,0.91916 3.23884,2.53925 3.17646,2.79335c-0.19864,0.80913 -1.56422,0.63494 -2.21938,1.14964c0.50187,0.54821 0.74016,0.83472 1.46707,0.99369c0.09103,0.01991 1.00209,0.1103 0.97506,0.15722c-0.75736,1.31459 -2.48888,1.24292 -1.79004,3.38227c-0.5138,-0.09067 -1.17936,0.11014 -1.65922,0.02855c-2.41674,-0.41089 -4.51353,-0.96106 -7.085,-0.96106c-1.04211,0 -1.83698,0.08352 -2.51728,0.27943z" fill="#8b8b8b" stroke-width="0"/><path d="M297.64243,172.70672l0.10096,0.14062c0,0 0.31623,0.94868 -0.63246,1.26491c-0.94868,0.31623 -1.26491,-0.63246 -1.26491,-0.63246l-0.2036,-0.77307c0,-0.22856 0.00328,-0.45486 0.01001,-0.67901c0.67722,-0.28922 1.35652,-0.56692 2.0456,-0.81175c-0.03806,0.48109 -0.0556,0.97677 -0.0556,1.49077z" fill="#6a6a6a" stroke-width="0.5"/><path d="M301.60877,174.35989l-0.03093,-0.06295c0.01769,0.02153 0.02853,0.04262 0.03093,0.06295z" fill="#6a6a6a" stroke-width="0.5"/><path d="M300.31981,183.62439c0,0 0.35112,0.93633 -0.58521,1.28745c-0.93633,0.35112 -1.28745,-0.58521 -1.28745,-0.58521c-0.93516,-2.57849 -0.10611,-3.8093 1.63023,-4.63467c0.55765,0.48751 1.34949,0.99619 1.89532,1.36862c-1.51572,0.39296 -2.39129,0.67718 -1.65289,2.5638z" fill="#6a6a6a" stroke-width="0.5"/><path d="M304.32338,180.21233c-0.19612,0.98058 -1.1767,0.78446 -1.1767,0.78446l-0.29057,-0.17134c-0.23732,0.06761 -0.46578,0.1272 -0.6828,0.18329c-0.48962,-0.46389 -1.19856,-0.97288 -1.70469,-1.49009c0.54705,-0.22654 1.16697,-0.424 1.83805,-0.61625l1.23224,0.13322c0,0 0.98058,0.19612 0.78446,1.1767z" fill="#6a6a6a" stroke-width="0.5"/><path d="M298.28927,186.63799c0.50163,0.0627 0.71797,0.3473 0.80927,0.61341c-0.5716,-0.10035 -1.12665,-0.20717 -1.67596,-0.3111c0.16402,-0.19681 0.43207,-0.35664 0.86669,-0.30231z" fill="#6a6a6a" stroke-width="0.5"/><path d="M291.76943,181.47306c-1,0 -1,-1 -1,-1l0.00772,-0.4286c0.28167,-1.92741 1.4851,-4.53302 2.94087,-5.82174c0,0 0.76822,-0.64018 1.40841,0.12804c0.64018,0.76822 -0.12804,1.40841 -0.12804,1.40841c-1.05868,0.79689 -2.11349,3.21581 -2.23669,4.53337l0.00772,0.18053c0,0 0,1 -1,1z" fill="#6a6a6a" stroke-width="0.5"/><path d="M291.53083,185.04149c0,0 0,-1 1,-1c1,0 1,1 1,1c-0.00371,0.48338 -0.03264,0.923 -0.08938,1.33199c-0.37723,-0.02368 -0.76285,-0.03679 -1.15977,-0.03679c-0.30132,0 -0.58197,0.00698 -0.84515,0.02165c0.06923,-0.3848 0.09908,-0.81326 0.0943,-1.31684z" fill="#6a6a6a" stroke-width="0.5"/></g></g></svg>