<svg version="1.1" xmlns="http://www.w3.org/2000/svg" xmlns:xlink="http://www.w3.org/1999/xlink" width="59.81568" height="114.13348" viewBox="0,0,59.81568,114.13348"><g transform="translate(-292.94877,-124.63558)"><g data-paper-data="{&quot;isPaintingLayer&quot;:true}" fill-rule="nonzero" stroke-linecap="butt" stroke-linejoin="miter" stroke-miterlimit="10" stroke-dasharray="" stroke-dashoffset="0" style="mix-blend-mode: normal"><path d="M313.43937,193.87227c-0.18974,0.69792 -0.65174,1.24645 -1.25293,1.67839c-1.10895,0.79675 -2.69149,1.1968 -3.91244,1.40593c-7.20079,1.23344 -11.0323,-3.55454 -14.31618,-9.64418c-0.75086,-1.39239 -2.44884,-9.01442 1.53107,-5.60307c0.91364,0.78312 1.01387,2.96284 1.5761,3.98788c1.5015,2.73746 3.79979,6.17489 6.4974,7.84211c2.25334,1.39264 7.54166,-1.79791 8.1714,-1.41652z" fill="#e3a500" stroke="none" stroke-width="0.5"/><g stroke="none" stroke-width="0.5"><path d="M313.7196,212.14214c-0.48769,1.9581 -1.20073,3.99304 -1.97669,5.87436c-0.06047,0.14661 -0.12051,0.2933 -0.18015,0.44006c-0.29369,-0.11872 -0.5869,-0.23828 -0.87945,-0.35895c-1.43063,-0.59008 -2.86127,-1.18015 -4.2919,-1.77022c0.03632,-0.08667 0.07244,-0.17331 0.10836,-0.2599c0.59346,-2.17099 1.9029,-4.17217 2.44523,-6.34429c0.29978,-1.20068 0.39474,-2.50617 0.71696,-3.71146c1.2842,0.87896 3.0776,1.20564 4.45391,1.7733c0.26123,0.10774 0.52255,0.21039 0.78794,0.29788c-0.22074,1.39792 -0.8396,2.67564 -1.18421,4.05921z" fill="#b0c1ca"/><path d="M308.89679,209.64851c0.2956,-1.11342 0.91002,-2.22185 1.35083,-3.28802c0.32376,0.16875 0.66726,0.31448 1.01932,0.44678c-0.41971,1.00881 -1.02401,2.07171 -1.29429,3.12523c-0.61446,2.39507 -0.96068,4.76251 -1.91594,7.08175c-0.34271,-0.14136 -0.68542,-0.2827 -1.02813,-0.42406c0.92753,-2.2768 1.24573,-4.59712 1.8682,-6.94168z" fill="#c7d7e0"/><path d="M309.61266,210.1957c0.31418,-1.01762 1.2803,-2.00204 1.16563,-3.08202c0,0 -0.01906,-0.26253 0.14962,-0.43954c0.31261,0.12854 0.63521,0.24353 0.9595,0.35205c0.0005,0.00452 0.00066,0.00695 0.00066,0.00695c0.06932,1.3514 -0.81534,2.25552 -1.21283,3.49275c-0.72655,2.26141 -0.75268,4.66074 -1.58112,6.91624c-0.34271,-0.14135 -0.68541,-0.2827 -1.02812,-0.42406c0.81655,-2.21464 0.85723,-4.58946 1.54664,-6.82236z" fill="#cdd0e0"/></g><g stroke="none" stroke-width="0.5"><path d="M335.91994,210.42296c1.20479,1.56755 2.36615,3.20662 3.46898,4.87096c-1.505,0.37245 -2.95272,0.94181 -4.35695,1.64143c-1.76018,-2.89028 -3.46245,-5.7971 -5.70459,-8.30535c1.38475,-0.46659 2.55861,-0.86544 3.80706,-1.50955c0.77087,1.22429 1.88272,2.12789 2.78551,3.3025z" fill="#b0c1ca"/><path d="M330.05329,208.56899c0,0 -0.05122,-0.05965 -0.09273,-0.15337c0.37544,-0.12828 0.73754,-0.25506 1.09278,-0.38741c2.1106,2.52825 3.48934,5.60928 5.4377,8.23668c-0.34561,0.14506 -0.68842,0.29898 -1.02863,0.46085c-1.89227,-2.64147 -3.27823,-5.67512 -5.40912,-8.15675z" fill="#c7d7e0"/><path d="M332.59567,209.37718c0.4723,-0.29403 0.76634,0.17827 0.76634,0.17827l0.13572,0.21801c0.45001,0.72284 0.83954,1.37949 1.10429,2.19396c0,0 0.17071,0.52953 -0.35881,0.70023c-0.52952,0.1707 -0.70023,-0.35881 -0.70023,-0.35881c-0.23247,-0.72806 -0.58783,-1.3015 -0.98988,-1.94729l-0.13572,-0.21801c0,0 -0.29403,-0.47231 0.17828,-0.76634z" fill="#cdd0e0"/></g><path d="M338.03465,195.47623c0.05703,0.19959 0.0183,0.34599 -0.05266,0.45111l-0.03104,0.16689c0,1.00428 0,2.00856 0,3.01284c0,0.72347 0.03643,1.34894 -0.19197,2.05046c-0.46724,1.43508 -1.36648,2.25274 -2.49516,2.68755v0.14767c0,1.88327 0.49504,4.62498 -1.90119,5.0335c-0.46833,0.00107 -0.92542,-0.0222 -1.3775,-0.05732c-0.00553,0.05522 -0.01027,0.11027 -0.01424,0.16516c-1.45507,-0.10772 -2.69168,-0.3927 -4.20326,-0.78708c0,0 -0.21337,-0.05334 -0.28988,0.14017c-0.4022,-0.11575 -0.77605,-0.30044 -1.06794,-0.60545c-1.17175,-1.22439 -1.11708,-2.99635 -1.28606,-4.57128c-1.7658,-0.32363 -3.59285,-0.35032 -5.42555,-0.33968c0.02344,0.12856 0.00208,0.23537 0.00208,0.23537l-0.07403,0.35947c-0.22076,1.94277 -0.4986,3.60234 -2.50322,3.87566c0.01347,0.03934 0.02651,0.07872 0.03913,0.11814c-0.23454,0.01296 -0.47043,0.01479 -0.70573,0.01479c-1.46046,0 -3.34103,0.43575 -4.84535,0.04331c-0.00333,-0.04927 -0.00615,-0.09852 -0.00845,-0.14775c-0.36151,-0.06865 -0.70351,-0.16721 -1.01362,-0.30557c-0.03557,-0.02435 -0.07069,-0.04958 -0.10535,-0.07573c0,0 -0.06787,-0.0509 -0.15419,-0.05387c-0.38434,-0.21429 -0.70671,-0.50311 -0.93849,-0.88931c-0.78747,-1.31211 -0.48896,-3.16189 -0.48266,-4.63054c-1.63022,-1.63705 -1.41826,-5.0258 -1.1343,-7.04633c0,0 0.06413,-0.44892 0.48189,-0.47827c0.28606,-0.16467 0.58616,0.04969 0.58616,0.04969c2.1287,1.5205 5.04326,1.38896 7.57377,1.74952c1.28314,0.18283 2.59522,0.49586 3.89414,0.4909c4.9269,0 9.90589,0.21333 14.7507,-0.41803c0.61664,-0.13691 1.12832,-0.30473 1.69297,-0.58872l0.3697,-0.11181c0.09647,-0.08326 0.23807,-0.13918 0.44413,-0.10484c0.16286,0.02714 0.26933,0.09457 0.33854,0.17597c0.05311,0.05852 0.09835,0.13747 0.12861,0.24339z" fill="#b0c1ca" stroke="none" stroke-width="0.5"/><path d="M312.8936,207.66425c0.1635,0 0.27894,0.04805 0.36047,0.1159c-0.23622,0.0037 -0.47035,-0.00055 -0.70014,-0.01631c0.08003,-0.05911 0.18961,-0.09959 0.33967,-0.09959z" fill="#c7d7e0" stroke="none" stroke-width="0.5"/><path d="M329.03875,208.59521c0.26176,-0.04027 0.41808,0.06323 0.51004,0.18275c-0.21439,-0.04568 -0.43049,-0.09474 -0.6502,-0.14691c0.0414,-0.01557 0.08792,-0.0278 0.14016,-0.03584z" fill="#c7d7e0" stroke="none" stroke-width="0.5"/><path d="M310.05133,201.664c0.27223,0.27223 0.1677,0.54447 0.07748,0.68634c-0.29094,1.7369 0.12009,2.98039 1.87637,3.60116c0,0 0.52286,0.19013 0.33273,0.71299c-0.19013,0.52286 -0.71299,0.33274 -0.71299,0.33274c-2.30751,-0.85762 -2.98383,-2.64049 -2.56574,-4.98798l0.20534,-0.34524c0,0 0.39341,-0.39341 0.78681,0z" fill="#c7d7e0" stroke="none" stroke-width="0.5"/><path d="M308.83616,194.9783c0.55635,0 0.55636,0.55635 0.55636,0.55635v0.20544c0,1.58566 0.35411,2.64881 0.89098,4.1241c0,0 0.19012,0.52286 -0.33273,0.71299c-0.52286,0.19013 -0.71299,-0.33274 -0.71299,-0.33274c-0.57556,-1.58401 -0.95798,-2.79844 -0.95798,-4.50437v-0.20544c0,0 0,-0.55635 0.55635,-0.55635z" fill="#c7d7e0" stroke="none" stroke-width="0.5"/><path d="M310.78449,200.48177c-0.4274,0.35617 -0.78358,-0.07124 -0.78358,-0.07124l-0.34295,-0.45034c-0.6492,-1.5633 -0.96626,-2.5944 -0.81091,-4.32179c0,0 0.05036,-0.55408 0.60444,-0.5037c0.55407,0.05037 0.5037,0.60444 0.5037,0.60444c-0.14587,1.58593 0.13265,2.36412 0.72988,3.79309l0.17065,0.16598c0,0 0.35617,0.4274 -0.07124,0.78357z" fill="#cdd0e0" stroke="none" stroke-width="0.5"/><path d="M312.80043,205.84476c-0.29487,0.47179 -0.76666,0.17692 -0.76666,0.17692l-0.30615,-0.20573c-1.72415,-0.63459 -1.71658,-1.62002 -1.85374,-3.2501c0,0 -0.0462,-0.55444 0.50823,-0.60064c0.55443,-0.0462 0.60063,0.50823 0.60063,0.50823c0.10024,1.2139 -0.12355,1.84929 1.12514,2.29679l0.51561,0.30787c0,0 0.4718,0.29487 0.17692,0.76666z" fill="#cdd0e0" stroke="none" stroke-width="0.5"/><path d="M328.88403,207.87854c0.3934,-0.39341 0.78681,0 0.78681,0l0.09712,0.10319c0.11984,0.15408 0.23968,0.30816 0.35952,0.46224c0,0 0.1714,0.22037 0.11526,0.47031c-0.46157,-0.08246 -0.92148,-0.18213 -1.39906,-0.29636c-0.08914,-0.11605 -0.27131,-0.42772 0.04036,-0.7394z" fill="#cdd0e0" stroke="none" stroke-width="0.5"/><path d="M329.84776,209.32707c-0.21645,0.0761 -0.39525,-0.01985 -0.49948,-0.10325c0.16739,0.036 0.33361,0.07049 0.49948,0.10325z" fill="#cdd0e0" stroke="none" stroke-width="0.5"/><path d="M325.68223,202.32277c0.55635,0 0.55635,0.55636 0.55635,0.55636v0.10272c-0.00097,1.53089 0.60088,2.62614 1.36229,3.93118c0,0 0.28033,0.48056 -0.20024,0.7609c-0.48057,0.28034 -0.7609,-0.20023 -0.7609,-0.20023c-0.86185,-1.47773 -1.51283,-2.75105 -1.51387,-4.49185v-0.10272c0,0 0.00001,-0.55636 0.55636,-0.55636z" fill="#cdd0e0" stroke="none" stroke-width="0.5"/><path d="M307.9093,232.21441c-0.17913,0.56964 -0.35826,1.13928 -0.53739,1.70892l0.04743,-0.07518c0,0 0.01905,0.1188 -0.01583,0.25477c-1.54473,-0.04337 -3.72164,-1.14082 -4.91321,-1.94083c-0.18152,-0.13432 -0.36696,-0.24514 -0.554,-0.35007c0.15376,-0.32811 0.30883,-0.65558 0.4624,-0.98391c0.6308,-4.00388 2.20542,-7.99529 3.47661,-11.88449c1.47764,0.46465 2.95526,0.9293 4.4329,1.39396c0.30313,0.09532 0.60679,0.18948 0.91089,0.28275c-1.17232,3.86651 -2.10274,7.75553 -3.3098,11.59408z" fill="#b0c1ca" stroke="none" stroke-width="0.5"/><path d="M309.83444,236.5844c0.00734,0.21675 -0.77117,1.04908 -0.95386,1.25244c-1.74034,1.93717 -3.10823,0.42743 -4.77718,-0.68232c-1.44327,-1.28228 -2.65937,-2.61848 -3.97286,-3.98267c-0.45519,-0.47276 -1.17526,-1.30846 -1.17416,-2.02861c0.00276,-1.78963 1.98298,-2.11183 3.22849,-1.46313l0.19593,-0.16507c0.05675,-0.04955 0.1136,-0.09898 0.17053,-0.14831c0.11002,0.1513 0.21486,0.30697 0.30626,0.47596c0.84378,1.3387 2.48169,3.3519 3.98948,4.03254c0,0 0.22786,0.10286 0.33072,-0.125c0.00531,-0.01175 0.00973,-0.02317 0.01335,-0.03426c0.86568,0.69902 2.61008,1.88791 2.64331,2.86843z" fill="#b0c1ca" stroke="none" stroke-width="0.5"/><path d="M302.72826,231.09146c0.43101,-1.37063 1.09626,-2.63664 1.58013,-3.99603c0.92474,-2.59799 1.61661,-5.26175 2.25818,-7.93439c0.35458,0.1115 0.70917,0.223 1.06376,0.33451c-0.644,2.68755 -1.34692,5.365 -2.27525,7.9775c-0.47778,1.34455 -1.1397,2.59865 -1.56534,3.9522c-0.05649,0.17964 -0.11298,0.3593 -0.16947,0.53894l-0.16948,0.53894c0,0 -0.02875,0.09144 -0.10035,0.18648c-0.31983,-0.18059 -0.61144,-0.36052 -0.86013,-0.52749c-0.02676,-0.0198 -0.0536,-0.03909 -0.08052,-0.05792c0.07755,-0.24662 0.26736,-0.85023 0.31847,-1.01274z" fill="#c7d7e0" stroke="none" stroke-width="0.5"/><path d="M306.61134,223.85069c-0.53073,-0.16689 -0.36385,-0.69763 -0.36385,-0.69763l0.09244,-0.29397c0.36268,-1.1508 0.9031,-2.22019 1.27427,-3.36864c0.35377,0.11125 0.70753,0.22249 1.0613,0.33374c-0.37315,1.14774 -0.91333,2.21867 -1.2741,3.36869l-0.09244,0.29398c0,0 -0.16689,0.53072 -0.69762,0.36383z" fill="#cdd0e0" stroke="none" stroke-width="0.5"/><path d="M304.11419,230.76448c-0.53073,-0.16689 -0.36384,-0.69763 -0.36384,-0.69763l0.09056,-0.26936c0.84348,-1.75241 1.49984,-3.60396 2.38361,-5.34771c0,0 0.25188,-0.49608 0.74794,-0.2442c0.49607,0.25187 0.2442,0.74795 0.2442,0.74795c-0.88219,1.73418 -1.53949,3.5773 -2.37218,5.3245l-0.03269,0.1226c0,0 -0.16689,0.53073 -0.69762,0.36384z" fill="#cdd0e0" stroke="none" stroke-width="0.5"/><path d="M303.30204,232.34864c0.09217,-0.29312 0.4045,-0.45602 0.69762,-0.36385c0.29312,0.09217 0.45601,0.40451 0.36383,0.69763c-0.05526,0.17572 -0.18963,0.30463 -0.35155,0.35986c-0.25026,-0.1258 -0.49106,-0.25536 -0.71704,-0.38422c-0.02617,-0.09838 -0.02567,-0.20512 0.00713,-0.30942z" fill="#cdd0e0" stroke="none" stroke-width="0.5"/><g stroke="none" stroke-width="0.5"><path d="M338.98798,221.87415c-1.93884,3.13061 -2.71834,6.8828 -4.66644,10.03808l-0.08508,0.1378c1.09574,0.48651 2.85978,0.69011 3.41294,1.63666c0.59504,1.01818 -0.82572,3.69424 -1.99807,3.88374c-0.09947,0.01608 -1.23427,-0.45168 -1.44671,-0.56285c-1.19717,-0.62646 -2.3925,-1.38178 -3.54138,-2.08914c-1.38572,-0.85556 -2.77202,-1.71018 -4.15717,-2.56667c-0.33387,-0.20645 -1.15802,-0.66522 -1.2917,-1.02463c-0.38262,-1.02863 1.15034,-3.07876 1.85982,-3.72124c0.23166,-0.20979 0.4417,-0.50773 0.74918,-0.56375c0.53236,-0.09699 1.62738,0.63954 2.11338,0.8617c0,0 0.00038,0.00017 0.00111,0.00052l0.05997,-0.09713c2.09881,-3.39938 4.12041,-6.82871 6.21907,-10.22785c0.17651,-0.28588 0.35435,-0.57082 0.5329,-0.85515c1.25422,0.95236 2.40757,2.0036 3.41133,3.20062c-0.38505,0.65683 -0.77674,1.30721 -1.17315,1.94926z" fill="#b0c1ca"/><g><path d="M330.95644,228.72364l0.29679,-0.48071c2.02727,-3.28351 3.98994,-6.50077 5.39025,-10.08453c0.16074,-0.37741 0.33464,-0.74838 0.51887,-1.11433c0.29815,0.23605 0.59008,0.4782 0.87508,0.72711c-0.12753,0.26602 -0.24905,0.53486 -0.36347,0.80704c-1.42904,3.63971 -3.41405,6.91293 -5.47394,10.24928l-0.29679,0.48071c0,0 -0.29228,0.4734 -0.76567,0.18112l-0.00001,-0.00001c-0.47339,-0.29228 -0.18112,-0.76568 -0.18112,-0.76568z" fill="#c7d7e0"/><path d="M335.66561,223.91514c0.47339,0.29228 0.18112,0.76568 0.18112,0.76568l-0.02698,0.0437c-1.0204,1.65271 -1.93979,3.33735 -2.96154,4.99225c0,0 -0.29228,0.4734 -0.76567,0.18112c-0.47339,-0.29228 -0.18112,-0.76568 -0.18112,-0.76568c1.02176,-1.65491 1.94093,-3.3392 2.96154,-4.99225l0.02698,-0.0437c0,0 0.29228,-0.4734 0.76567,-0.18112z" fill="#cdd0e0"/><path d="M338.05488,220.01187c0,0 -0.20288,0.51804 -0.72093,0.31517c-0.51805,-0.20289 -0.31517,-0.72093 -0.31517,-0.72093c0.27263,-0.69245 0.44983,-1.40537 0.70825,-2.10108c0.30644,0.25807 0.60543,0.52343 0.89614,0.79686c-0.19128,0.56911 -0.34838,1.14577 -0.56829,1.70998z" fill="#cdd0e0"/></g></g><path d="M310.02943,194.5408c0,0 -1.97629,-23.69737 -2.58987,-34.05635c2.44767,1.11846 4.63732,2.69159 7.13191,3.67421c3.35337,1.32083 6.41539,1.62484 10.00991,1.62484c3.19251,0 6.38503,0 9.57754,0c0.9709,0 3.02815,0.1868 4.8196,0.09755c0.00194,0.26291 0.00133,0.5288 -0.00213,0.79761c-0.05526,4.28593 -0.94731,9.08451 -1.15863,13.52263c-0.39713,8.34034 -0.19302,15.40772 -0.19302,15.40772z" fill="#ffbb00" stroke="none" stroke-width="0"/><path d="M339.17004,166.79701c-0.70571,-0.07841 -0.91105,-0.55712 -0.96725,-0.89332c0.78317,-0.00858 1.55298,-0.05527 2.20511,-0.17579l-0.00906,0.08607c0,0 -0.12288,1.10591 -1.22879,0.98303z" fill="#c5d8e2" stroke="none" stroke-width="0.5"/><path d="M307.5595,164.10037c-1.0911,0.21822 -1.30933,-0.87288 -1.30933,-0.87288l-0.10086,-0.51624c-0.12754,-0.95659 -0.25717,-1.875 -0.3225,-2.81434l0.132,-0.01248c0.75616,0.26433 1.48041,0.58579 2.18707,0.93779c0.06187,0.52632 0.13715,1.05358 0.20934,1.59492l0.07717,0.37392c0,0 0.21822,1.0911 -0.87288,1.30933z" fill="#e3a500" stroke="none" stroke-width="0.5"/><path d="M307.43416,165.63257c-1.11271,0 -1.11271,-1.11272 -1.11271,-1.11272l0.00552,-0.35779c-0.03905,-0.39042 -0.07808,-0.78086 -0.11713,-1.17128c0,0 -0.11072,-1.10719 0.99647,-1.21791c1.10719,-0.11072 1.21791,0.99647 1.21791,0.99647c0.03905,0.39042 0.07809,0.78086 0.11713,1.17128l0.00553,0.57923c0,0 0,1.11272 -1.11272,1.11272z" fill="#e3a500" stroke="none" stroke-width="0.5"/><path d="M309.3082,193.97749c-1.11271,0 -1.11271,-1.11271 -1.11271,-1.11271l0.00114,-1.2217c0.26887,-2.9473 0.89281,-5.63266 0.59002,-8.62344c0,0 -0.03292,-0.32922 0.11665,-0.64656c-0.17281,-0.63702 -0.33948,-1.25758 -0.34658,-1.30765c-0.2276,-1.60389 0.05443,-3.2618 -0.22847,-4.8812c-0.22143,-1.26754 -0.66413,-2.50145 -0.8255,-3.7849c-0.1701,-1.35287 -0.39036,-2.64086 -0.58387,-3.96981c-0.20316,-1.39519 0.20192,-2.02232 -0.47996,-3.29493c0,0 -0.49763,-0.99524 0.49761,-1.49286c0.99524,-0.49762 1.49286,0.49762 1.49286,0.49762c0.22445,0.47108 0.55264,0.90558 0.67334,1.41325c0.19691,0.82819 -0.11265,1.71256 0.01797,2.55375c0.39858,2.56694 0.95574,5.13152 1.4017,7.70615c0.28476,1.64407 0.00639,3.3357 0.24004,4.95753c0.11993,0.83249 0.45211,1.62028 0.67341,2.43173l0.23064,0.80698c0,0 0.27205,0.9522 -0.59545,1.31667c-0.07708,2.14664 -0.45151,4.21187 -0.65128,6.4185l0.00114,1.12086c0,0 0,1.11271 -1.11271,1.11271z" fill="#e3a500" stroke="none" stroke-width="0.5"/><path d="M337.97286,195.57034c-1.06579,0.31974 -1.38552,-0.74606 -1.38552,-0.74606l-0.3771,-1.27479c-0.30794,-2.99504 -0.1846,-6.37785 0.45591,-9.35592c-0.00862,-0.06986 -0.00861,-0.11339 -0.00861,-0.11339v-0.23426c0.00251,-2.02715 -0.56475,-3.86179 -0.46737,-5.90681c0.08917,-1.87268 0.56717,-3.52792 0.96166,-5.34135c0.48405,-2.22519 0.61177,-4.39544 0.79796,-6.64766c0,0 0.00136,-0.01635 0.00574,-0.0449c0.7611,-0.00094 1.51995,-0.03418 2.18142,-0.13231c0.04385,0.2028 0.03058,0.36201 0.03058,0.36201c-0.19729,2.34751 -0.33801,4.62012 -0.84184,6.93917c-0.3677,1.69246 -0.82919,3.21891 -0.91237,4.96589c-0.08594,1.80469 0.36513,3.45549 0.45449,5.2329c0.21183,0.39187 0.09906,0.84294 0.09906,0.84294c-0.71149,2.77107 -0.849,6.1414 -0.57363,9.00126l0.32567,1.06776c0,0 0.31974,1.06579 -0.74605,1.38552z" fill="#e3a500" stroke="none" stroke-width="0.5"/><path d="M338.85349,193.36689c0.55206,0.9661 -0.41405,1.51817 -0.41405,1.51817l-0.70432,0.39257c-0.20077,0.15057 -2.1855,1.63959 -2.19573,1.64427c-1.56488,0.71604 -3.83136,0.33519 -5.49957,0.33519c-5.5147,0 -10.79078,-0.90427 -16.26356,-1.41003c-1.86723,-0.17256 -4.65295,0.67264 -5.82542,-1.45259c-0.28301,-0.51298 0.01062,-1.17168 0.01592,-1.75752c0,0 0.11072,-1.10719 1.21791,-0.99647c1.10719,0.11072 0.99647,1.21791 0.99647,1.21791c-0.07277,0.19502 -0.27453,0.38462 -0.21834,0.58504c0.12591,0.44905 0.92076,0.1725 1.38699,0.18384c1.36892,0.0333 2.6041,0.06581 3.96069,0.24272c4.91376,0.64081 9.77512,1.16167 14.72933,1.16167c1.23406,0 3.42638,0.4411 4.57343,-0.13332c0.6767,-0.33889 1.18118,-0.94694 1.78661,-1.40105l0.93546,-0.54445c0,0 0.96611,-0.55206 1.51817,0.41405z" fill="#c5d8e2" stroke="none" stroke-width="0.5"/><path d="M328.04865,165.98393c-1.17128,0 -2.34255,0 -3.51383,0h-0.93703c0,0 -0.38517,0 -0.70228,-0.22662c0.5506,0.01844 1.11144,0.0262 1.68588,0.0262c2.58057,0 5.16114,0 7.74171,0c-1.44659,0.13183 -2.88762,0.19899 -4.27444,0.20042z" fill="#a1b9c7" stroke="none" stroke-width="0.5"/><path d="M308.86752,171.51412c0,0.55635 -0.55636,0.55636 -0.55636,0.55636l-0.0633,-0.00164c-1.4002,0.1069 -2.73958,0.07648 -4.09959,-0.29635c-0.52443,-0.2418 -0.91524,-0.3392 -1.27185,-0.83758c-0.75099,-1.04958 -0.84688,-3.29414 -0.79059,-4.53269c0.00978,-0.21525 0.11731,-1.31115 0.18364,-1.42497c0.782,-1.34185 3.00887,-1.60835 4.34351,-1.48828c0,0 0.55407,0.05037 0.5037,0.60445c-0.05037,0.55408 -0.60444,0.5037 -0.60444,0.5037c-0.92251,-0.08481 -2.72467,0.01647 -3.28652,0.94909c-0.14254,0.2366 -0.02732,1.17987 -0.02774,1.46407c-0.00182,1.24349 0.09192,3.16565 1.32812,3.71561c1.20011,0.32513 2.40313,0.32914 3.63642,0.23351l0.14865,-0.00163c0,0 0.55636,0 0.55636,0.55635z" fill="#b0c1ca" stroke="none" stroke-width="0.5"/><path d="M348.8622,194.00865c-0.09878,0.60517 0.49128,1.32097 0.47239,1.93824c-0.03219,1.05233 -0.98422,0.47346 -1.4245,0.08136c-0.73067,-0.6507 -1.02083,-3.54899 -0.03728,-3.64777c0.00014,-0.06587 0.00603,-0.13489 0.01814,-0.20701l-0.01805,-0.11694c-0.22913,-1.58928 -1.24462,-3.11048 -1.77107,-4.61781c-0.68247,-1.95402 -1.35399,-3.72103 -2.30096,-5.58461c0.91463,0.13881 1.69842,-0.29475 2.72536,-0.2703c0.37831,0.97053 1.00417,1.82517 1.37457,2.81956c0.81413,2.18564 1.64509,4.23975 2.09813,6.53482c0.41501,-0.00721 0.74374,0.09951 0.7954,0.38174c0.19375,0.05682 0.38014,0.14058 0.54035,0.24979c0.45888,0.31281 2.55553,2.88138 0.62944,2.55362c-0.03776,-0.00642 -0.07494,-0.01958 -0.10834,-0.03833c-0.55367,-0.31086 -0.97125,-0.72716 -1.40246,-1.07797c-0.02651,0.02167 -0.05566,0.04182 -0.08778,0.06024c-0.43384,0.2489 -0.92882,0.35347 -1.36275,0.31952c-0.04995,0.2124 -0.10831,0.42414 -0.14058,0.62185zM346.36705,183.61081c-0.31915,-0.63471 -0.66541,-1.14078 -0.91562,-1.75683c-0.11045,0.05534 -0.22877,0.09452 -0.35107,0.11847c0.80811,1.68069 1.41876,3.31937 2.04918,5.09162c0.48419,1.3612 1.28154,2.70845 1.66876,4.12158c0.02946,-0.01141 0.05937,-0.02252 0.08962,-0.03331c-0.49157,-2.56903 -1.36886,-5.21067 -2.54086,-7.5415z" fill="#b0c1ca" stroke="none" stroke-width="0.5"/><path d="M344.79062,182.57392c-0.04226,0.01832 -0.08253,0.03247 -0.12002,0.04204c-0.64637,0.16493 -1.50257,-0.30498 -1.77101,-0.8917c-0.2513,-0.54929 -0.23052,-1.02713 -0.03783,-1.42246c-0.24609,-0.51192 -0.49874,-0.98387 -0.68016,-1.54903c-1.47154,-3.30777 -1.90219,-7.2401 -3.93598,-10.24297c0,0 -0.31055,-0.46162 0.15107,-0.77216c0.46162,-0.31054 0.77216,0.15107 0.77216,0.15107c2.07545,3.10337 2.54742,7.06594 4.05326,10.46981c0.12592,0.40309 0.29301,0.75208 0.46711,1.10602c0.16996,-0.09944 0.35407,-0.18348 0.54548,-0.25142c-0.3362,-0.63807 -0.53392,-1.2869 -0.78836,-1.98329c-0.51077,-2.07817 -1.25461,-4.12366 -1.77962,-6.20521c-0.34198,-1.3559 -0.52032,-3.55891 -1.57545,-4.55819c0,0 -0.39313,-0.39367 0.00055,-0.78681c0.39368,-0.39313 0.7868,0.00056 0.7868,0.00056c1.2134,1.26074 1.4542,3.4315 1.86755,5.07446c0.51914,2.06344 1.25045,4.09144 1.76419,6.14967c0.27029,0.73676 0.45406,1.41195 0.87532,2.08099l0.00926,0.01996c0.30916,-0.00271 0.60281,0.03939 0.85324,0.12934c0,0 0.13591,0.05239 0.24184,0.17309c-0.19443,1.21995 0.27489,2.2358 -0.70226,3.29123c-0.31511,0.09396 -0.68408,0.09211 -0.9972,-0.02497z" fill="#b0c1ca" stroke="none" stroke-width="0.5"/><path d="M312.13686,216.7052c0,-0.12291 0.09963,-0.22254 0.22254,-0.22254c0.12291,0 0.22254,0.09964 0.22254,0.22254c0,0.12291 -0.09964,0.22254 -0.22254,0.22254c-0.12291,0 -0.22254,-0.09964 -0.22254,-0.22254z" fill="#6b767b" stroke="none" stroke-width="0.5"/><g stroke="none"><path d="M333.61873,218.96245c-0.15736,-0.15736 0,-0.31473 0,-0.31473l0.20776,-0.1549c1.2413,-0.24293 2.63513,-0.00903 3.88786,-0.00145c0.41998,0.13619 1.04475,0.1899 1.38293,0.47758c0.05994,0.051 0.13331,0.14111 0.20532,0.24417c-0.10002,-0.42907 -0.18344,-1.00193 -0.24331,-1.40936l-0.09967,-0.13288c-0.02876,-0.0375 -0.04586,-0.08442 -0.04586,-0.13532c0,-0.12291 0.09964,-0.22255 0.22254,-0.22255c0.06145,0 0.11709,0.02492 0.15736,0.06519l0.2351,0.2351c0.18649,0.18685 0.32298,0.49767 0.38483,0.66245c-0.12261,-0.48868 0.18398,-1.09778 -0.11562,-1.5564c-0.05012,-0.06774 -0.12462,-0.12299 -0.15038,-0.20323c-0.3739,-1.16413 0.6359,-0.38305 0.98782,-0.07399c-0.0597,-0.13416 -0.10968,-0.33429 -0.11219,-0.34272c-0.07335,-0.24607 -0.15275,-0.51769 -0.35572,-0.69837c-0.33692,-0.29991 -1.47844,-0.56262 -1.89948,-0.55922c-1.66703,-0.32764 -3.49772,0.07734 -5.1173,-0.38364c0,0 -0.21398,-0.06114 -0.15285,-0.27511c0.06113,-0.21398 0.27512,-0.15285 0.27512,-0.15285c1.58954,0.45601 3.3994,0.03342 5.03889,0.36868c1.11975,0.00806 2.86433,0.71941 2.7856,2.08031c-0.05345,0.92396 -0.60789,0.42507 -0.89321,0.08014c0.15528,0.44822 0.45439,2.09668 0.0761,2.25132c-0.15165,0.06199 -0.31023,-0.01883 -0.46064,-0.15496c0.15801,0.58647 0.23002,1.25446 0.0529,1.41893c-0.12436,0.11548 -0.33504,0.1594 -0.49723,0.10944c-0.24555,-0.07563 -0.37384,-0.69914 -0.57623,-0.8846c-0.24708,-0.22642 -0.83506,-0.25785 -1.15613,-0.36876c-1.19759,0.00799 -2.54457,-0.24453 -3.72928,-0.00145l0.01967,0.03318c0,0 -0.15736,0.15736 -0.31472,0z" fill="#6b767b" stroke-width="0.5"/><path d="M333.72907,218.71108c0,0 -0.04702,-1.85621 -0.04702,-2.63308c0,-0.63719 0.18808,-1.73972 0.18808,-1.73972c0,0 4.83867,0.20088 6.00599,0.51638c0.49123,0.13277 0.95287,1.3644 0.95287,1.3644c0,0 -0.88606,0.87988 -0.76709,1.68093c0.11606,0.78146 -0.69051,1.18725 -0.69051,1.18725c0,0 -1.80682,-0.58751 -2.7215,-0.64849c-0.96355,-0.06423 -2.92083,0.27233 -2.92083,0.27233z" fill="#606a6e" stroke-width="0"/><path d="M333.74827,215.37962c-0.05397,-0.2159 0.16192,-0.26988 0.16192,-0.26988l0.24205,-0.05366c0.31346,0 0.62692,0 0.94039,0c1.57422,0 2.97603,0.5908 4.51049,0.89769c0,0 0.21822,0.04364 0.17457,0.26187c-0.04364,0.21822 -0.26187,0.17458 -0.26187,0.17458c-1.50517,-0.30104 -2.88215,-0.88905 -4.4232,-0.88905c-0.31346,0 -0.62692,0 -0.94039,0l-0.1341,0.04038c0,0 -0.2159,0.05398 -0.26987,-0.16192z" fill="#303537" stroke-width="0.5"/><path d="M333.41249,216.97132c0,-0.22254 0.22254,-0.22254 0.22254,-0.22254l0.05039,0.00432c0.32175,-0.06435 0.62092,-0.17001 0.94039,-0.2351c1.37661,-0.2694 3.48508,0.0526 4.59699,0.88653c0,0 0.17803,0.13353 0.04451,0.31156c-0.13353,0.17803 -0.31156,0.04451 -0.31156,0.04451c-1.00266,-0.752 -2.99585,-1.06198 -4.24264,-0.80617c-0.31827,0.06225 -0.61935,0.17089 -0.94039,0.2351l-0.13769,0.00432c0,0 -0.22254,0 -0.22254,-0.22254z" fill="#303537" stroke-width="0.5"/></g><path d="M307.11101,196.33473c-0.17361,-0.2755 -0.17361,-0.58685 -0.17361,-0.58685v-0.48856c0.00087,-1.29442 -0.2196,-3.18255 1.18778,-3.98116c1.15463,-0.65518 3.4435,0.57776 4.64298,0.79895c4.12583,0.76081 8.22574,1.52935 12.43343,1.52935c2.83322,0 5.53193,-0.17386 8.33437,-0.56097c0.80241,-0.11084 3.09131,-0.80843 3.8124,-0.54515c2.02823,0.74054 2.01613,4.40781 0.70231,5.82024c-0.24783,0.26642 -2.0132,0.77205 -2.4575,0.90874c-2.19182,0.67428 -4.12051,0.77713 -6.40161,0.77713c-3.36271,0 -6.86554,0.28099 -10.20898,-0.08769c-3.81466,-0.42065 -7.6692,-1.53719 -11.24037,-2.91046c0,0 -0.5087,-0.19566 -0.6312,-0.67356z" fill="#606a6e" stroke="none" stroke-width="0.5"/><g stroke="none" stroke-width="0.5"><path d="M303.88764,175.54285c-0.00471,-0.22249 0.21779,-0.2272 0.21779,-0.2272c0.26718,-0.00565 0.62342,-0.01319 0.8906,-0.01884c1.79095,-0.03391 2.84437,-1.19185 3.67365,-2.64268c0,0 0.11044,-0.19321 0.30365,-0.08277c0.19321,0.11043 0.08277,0.30364 0.08277,0.30364c-0.90879,1.58997 -2.1073,2.82184 -4.05065,2.8668c-0.26718,0.00565 -0.53437,0.0113 -0.80156,0.01696l-0.08906,0.00189c0,0 -0.22249,0.00471 -0.2272,-0.21779z" fill="#3a53e0"/><path d="M309.55034,172.44973c0.21256,0.06589 0.14667,0.27846 0.14667,0.27846l-0.04791,0.15197c-0.18816,0.45227 -0.48579,0.80287 -0.82464,1.15637c-1.15343,1.20329 -2.98177,2.47692 -4.69265,2.52566c0,0 -0.22249,0.00471 -0.2272,-0.21779c-0.00471,-0.22249 0.21779,-0.2272 0.21779,-0.2272c1.57761,-0.01924 3.32238,-1.28454 4.38075,-2.38867c0.29445,-0.30718 0.57937,-0.61855 0.73324,-1.01501l0.03549,-0.11711c0,0 0.06589,-0.21257 0.27846,-0.14668z" fill="#3ae054"/><path d="M307.57439,173.40852c0.18774,0.1195 0.06823,0.30724 0.06823,0.30724l-0.18515,0.28887c-0.33297,0.32712 -0.81535,0.39164 -1.25984,0.23116c-0.20598,-0.07437 -0.40583,-0.47683 -0.56818,-0.32985c-0.13805,0.12499 0.15394,0.608 0.10114,0.77142c-0.22322,0.69085 -0.88501,0.33261 -1.3182,0.44896c0,0 -0.21725,0.04826 -0.2655,-0.16899c-0.04825,-0.21725 0.16899,-0.26551 0.16899,-0.26551c0.18363,-0.03576 0.90451,0.1732 0.98609,-0.1344c0.09869,-0.37214 -0.44754,-0.61941 0.06346,-1.00979c0.54113,-0.41342 1.24513,0.77251 1.74195,0.18217l0.15978,-0.25303c0,0 0.1195,-0.18774 0.30724,-0.06824z" fill="#e03a3a"/></g><g stroke="none"><path d="M305.14476,220.74754c-0.15736,-0.15736 0,-0.31473 0,-0.31473l0.20776,-0.1549c1.2413,-0.24293 2.63513,-0.00903 3.88786,-0.00145c0.41998,0.13619 1.04475,0.1899 1.38293,0.47758c0.05994,0.051 0.13331,0.14111 0.20532,0.24417c-0.10002,-0.42907 -0.18344,-1.00193 -0.24331,-1.40936l-0.09967,-0.13288c-0.02876,-0.0375 -0.04586,-0.08442 -0.04586,-0.13532c0,-0.12291 0.09964,-0.22255 0.22254,-0.22255c0.06145,0 0.11709,0.02492 0.15736,0.06519l0.2351,0.2351c0.18649,0.18685 0.32298,0.49767 0.38483,0.66245c-0.12261,-0.48868 0.18398,-1.09778 -0.11562,-1.5564c-0.05012,-0.06774 -0.12462,-0.12299 -0.15038,-0.20323c-0.3739,-1.16413 0.6359,-0.38305 0.98782,-0.07399c-0.0597,-0.13416 -0.10968,-0.33429 -0.11219,-0.34272c-0.07335,-0.24607 -0.15275,-0.51769 -0.35572,-0.69837c-0.33692,-0.29991 -1.47844,-0.56262 -1.89948,-0.55922c-1.66703,-0.32764 -3.49772,0.07734 -5.1173,-0.38364c0,0 -0.21398,-0.06114 -0.15285,-0.27511c0.06113,-0.21398 0.27512,-0.15285 0.27512,-0.15285c1.58954,0.45601 3.3994,0.03342 5.03889,0.36868c1.11975,0.00806 2.86433,0.71941 2.7856,2.08031c-0.05345,0.92396 -0.60789,0.42507 -0.89321,0.08014c0.15528,0.44822 0.45439,2.09668 0.0761,2.25132c-0.15165,0.06199 -0.31023,-0.01883 -0.46064,-0.15496c0.15801,0.58647 0.23002,1.25446 0.0529,1.41893c-0.12436,0.11548 -0.33504,0.1594 -0.49723,0.10944c-0.24555,-0.07563 -0.37384,-0.69914 -0.57623,-0.8846c-0.24708,-0.22642 -0.83506,-0.25785 -1.15613,-0.36876c-1.19759,0.00799 -2.54457,-0.24453 -3.72928,-0.00145l0.01967,0.03318c0,0 -0.15736,0.15736 -0.31472,0z" fill="#6b767b" stroke-width="0.5"/><path d="M305.2551,220.49611c0,0 -0.04702,-1.85621 -0.04702,-2.63308c0,-0.63719 0.18808,-1.73972 0.18808,-1.73972c0,0 4.83867,0.20088 6.00599,0.51638c0.49123,0.13277 0.95287,1.3644 0.95287,1.3644c0,0 -0.88606,0.87988 -0.76709,1.68093c0.11606,0.78146 -0.69051,1.18725 -0.69051,1.18725c0,0 -1.80682,-0.58751 -2.7215,-0.64849c-0.96355,-0.06423 -2.92083,0.27233 -2.92083,0.27233z" fill="#606a6e" stroke-width="0"/><path d="M305.2743,217.16472c-0.05397,-0.2159 0.16192,-0.26988 0.16192,-0.26988l0.24205,-0.05366c0.31346,0 0.62692,0 0.94039,0c1.57422,0 2.97603,0.5908 4.51049,0.89769c0,0 0.21822,0.04364 0.17457,0.26187c-0.04364,0.21822 -0.26187,0.17458 -0.26187,0.17458c-1.50517,-0.30104 -2.88215,-0.88905 -4.4232,-0.88905c-0.31346,0 -0.62692,0 -0.94039,0l-0.1341,0.04038c0,0 -0.2159,0.05398 -0.26987,-0.16192z" fill="#303537" stroke-width="0.5"/><path d="M304.93852,218.75641c0,-0.22254 0.22254,-0.22254 0.22254,-0.22254l0.05039,0.00432c0.32175,-0.06435 0.62092,-0.17001 0.94039,-0.2351c1.37661,-0.2694 3.48508,0.0526 4.59699,0.88653c0,0 0.17803,0.13353 0.04451,0.31156c-0.13353,0.17803 -0.31156,0.04451 -0.31156,0.04451c-1.00266,-0.752 -2.99585,-1.06198 -4.24264,-0.80617c-0.31827,0.06225 -0.61935,0.17089 -0.94039,0.2351l-0.13769,0.00432c0,0 -0.22254,0 -0.22254,-0.22254z" fill="#303537" stroke-width="0.5"/></g><path d="M340.22276,165.80469c0,0.99605 -7.09618,0.65842 -16.2029,0.65842c-9.10672,0 -16.88996,-3.32664 -16.88996,-4.32269c0,-0.39774 -2.02903,-2.65481 -0.03491,-2.953c2.99962,-0.44855 11.85545,-1.42694 17.32564,-1.42694c5.58583,0 11.63856,2.07918 14.42134,4.35947c1.75406,1.43733 1.38078,3.29963 1.38078,3.68473z" fill="#ffbb00" stroke="none" stroke-width="0"/><path d="M308.59745,167.11226c1.69752,4.50185 -4.3459,6.52142 -5.88492,2.31297c-1.02594,-2.80543 0.17852,-5.4545 2.06283,-5.52148c0.15751,-0.02946 0.32035,-0.0449 0.48699,-0.0449c1.21292,0 2.2241,0.81812 2.45195,1.90353c0.2613,0.34596 0.52192,0.7453 0.7792,1.20221z" fill="#a1b9c7" stroke="none" stroke-width="0.5"/><path d="M296.6391,236.72634v-111.84076h47.29829v111.84077z" fill="none" stroke-opacity="0.01176" stroke="#ffffff" stroke-width="0.5"/><path d="M296.6391,236.72634v-111.84076h47.29829v111.84077z" fill="none" stroke-opacity="0.01176" stroke="#ffffff" stroke-width="0.5"/><path d="M314.40386,158.2416c0.42912,-0.05998 0.8747,-0.04188 1.34189,-0.02503c0.90703,-0.21419 1.81457,-0.43736 2.74707,-0.56898c4.465,-0.00782 8.4466,0.36606 12.79253,1.07804c0.80147,0.13612 2.6593,0.07624 3.10171,0.96607c0.38534,0.77503 -0.41795,2.38608 -0.54795,3.13165c-0.49067,2.81393 -2.34949,4.42986 -4.48642,6.25695c-1.63281,1.00282 -2.93961,2.43341 -4.80172,3.08763c-2.63249,0.92487 -5.55162,-1.23 -7.2943,-2.98898c-1.65255,-2.72702 -4.77702,-6.90558 -4.78586,-10.15512c0,0 0,-0.28229 0.21211,-0.42265c0.05728,-0.21303 0.25177,-0.36985 0.48289,-0.36985h0.68249c0.20999,0 0.39097,0.00263 0.55555,0.01027z" fill="#ffffff" stroke="none" stroke-width="0.5"/><path d="M310.92334,171.30872c0,0 9.28276,2.53498 12.38239,2.53498c3.26202,0 9.06742,-2.33998 9.06742,-2.33998c0,0 -5.57145,4.33327 -8.86988,4.30328c-3.78448,-0.0344 -12.57993,-4.49828 -12.57993,-4.49828z" fill="#e3a500" stroke="none" stroke-width="0"/><path d="M310.85338,175.33373c0,0 9.28276,2.53498 12.38239,2.53498c3.26202,0 9.06742,-2.33998 9.06742,-2.33998c0,0 -5.57145,4.33327 -8.86988,4.30328c-3.78448,-0.0344 -12.57993,-4.49828 -12.57993,-4.49828z" fill="#e3a500" stroke="none" stroke-width="0"/><path d="M311.56342,179.74873c0,0 9.28276,2.53498 12.38239,2.53498c3.26202,0 9.06742,-2.33998 9.06742,-2.33998c0,0 -5.57145,4.33327 -8.86988,4.30328c-3.78448,-0.0344 -12.57993,-4.49828 -12.57993,-4.49828z" fill="#e3a500" stroke="none" stroke-width="0"/><path d="M311.88346,183.48125c0,0 9.28276,2.53498 12.38239,2.53498c3.26202,0 9.06742,-2.33998 9.06742,-2.33998c0,0 -5.57145,4.33327 -8.86988,4.30328c-3.78448,-0.0344 -12.57993,-4.49828 -12.57993,-4.49828z" fill="#e3a500" stroke="none" stroke-width="0"/></g></g></svg>