<svg version="1.1" xmlns="http://www.w3.org/2000/svg" xmlns:xlink="http://www.w3.org/1999/xlink" width="56.38889" height="36.11325" viewBox="0,0,56.38889,36.11325"><defs><linearGradient x1="235.9086" y1="158.06028" x2="241.74194" y2="158.06028" gradientUnits="userSpaceOnUse" id="color-1"><stop offset="0" stop-color="#dfcfff" stop-opacity="0.53333"/><stop offset="1" stop-color="#dfcfff" stop-opacity="0"/></linearGradient><linearGradient x1="248.4086" y1="158.1714" x2="242.57527" y2="158.1714" gradientUnits="userSpaceOnUse" id="color-2"><stop offset="0" stop-color="#dfcfff" stop-opacity="0.53333"/><stop offset="1" stop-color="#dfcfff" stop-opacity="0"/></linearGradient></defs><g transform="translate(-219.51971,-144.89444)"><g data-paper-data="{&quot;isPaintingLayer&quot;:true}" fill-rule="nonzero" stroke-linejoin="miter" stroke-miterlimit="10" stroke-dasharray="" stroke-dashoffset="0" style="mix-blend-mode: normal"><g><path d="M236.50555,150.44444c0,-3.06518 2.48482,-5.55 5.55,-5.55c3.06518,0 5.55,2.48482 5.55,5.55c0,3.06518 -2.48482,5.55 -5.55,5.55c-3.06518,0 -5.55,-2.48482 -5.55,-5.55z" fill="#ff6f00" stroke="none" stroke-width="0" stroke-linecap="butt"/><path d="M239.16457,146.16047c0,0 1.3775,2.97816 1.3775,4.37c0,1.32854 -1.3775,4.0375 -1.3775,4.0375" fill="none" stroke="#0084ff" stroke-width="1" stroke-linecap="round"/><path d="M244.86458,154.56797c0,0 -1.3775,-2.70896 -1.3775,-4.0375c0,-1.39184 1.3775,-4.37 1.3775,-4.37" data-paper-data="{&quot;index&quot;:null}" fill="none" stroke="#0084ff" stroke-width="1" stroke-linecap="round"/></g><path d="M235.08078,181.00769v-8.07426h5.08118v8.07426z" fill="#9966ff" stroke="none" stroke-width="0" stroke-linecap="butt"/><g><path d="M236.56111,162c0,-3.06518 2.48482,-5.55 5.55,-5.55c3.06518,0 5.55,2.48482 5.55,5.55c0,3.06518 -2.48482,5.55 -5.55,5.55c-3.06518,0 -5.55,-2.48482 -5.55,-5.55z" fill="#ff6f00" stroke="none" stroke-width="0" stroke-linecap="butt"/><path d="M239.22013,157.71603c0,0 1.3775,2.97816 1.3775,4.37c0,1.32854 -1.3775,4.0375 -1.3775,4.0375" fill="none" stroke="#0084ff" stroke-width="1" stroke-linecap="round"/><path d="M244.92014,166.12353c0,0 -1.3775,-2.70896 -1.3775,-4.0375c0,-1.39184 1.3775,-4.37 1.3775,-4.37" data-paper-data="{&quot;index&quot;:null}" fill="none" stroke="#0084ff" stroke-width="1" stroke-linecap="round"/></g><path d="M235.9086,169.11584v-21.44444h12.5v21.44444z" fill-opacity="0.53333" fill="#dfcfff" stroke="none" stroke-width="NaN" stroke-linecap="butt"/><path d="M235.9086,168.44917v-20.77778h5.83333v20.77778z" fill="url(#color-1)" stroke="none" stroke-width="0" stroke-linecap="butt"/><path d="M242.57527,168.56028v-20.77778h5.83334v20.77778z" data-paper-data="{&quot;index&quot;:null}" fill="url(#color-2)" stroke="none" stroke-width="0" stroke-linecap="butt"/><path d="M234.96416,148.7825v-1.72222h14.38889v1.72222z" fill="#3e3e3e" stroke="none" stroke-width="NaN" stroke-linecap="butt"/><path d="M231.68638,174.17139v-6.83333h44.22222v6.83333z" fill="#444444" stroke="none" stroke-width="0" stroke-linecap="butt"/><path d="M223.51971,176.44917c-2.20914,0 -4,-1.79086 -4,-4v-11.33333c0,-2.20914 1.79086,-4 4,-4h7.5c2.20914,0 4,1.79086 4,4v11.33333c0,2.20914 -1.79086,4 -4,4z" fill="#878787" stroke="none" stroke-width="0" stroke-linecap="butt"/><path d="M221.01971,163.00473l9.5,-3.88889" fill="none" stroke="#4e4e4e" stroke-width="1" stroke-linecap="round"/><path d="M221.35305,165.83806l10.5,-4.72222" fill="none" stroke="#4e4e4e" stroke-width="1" stroke-linecap="round"/><path d="M221.13082,168.17139l11.5,-4.88889" fill="none" stroke="#4e4e4e" stroke-width="1" stroke-linecap="round"/></g></g></svg>