<svg version="1.1" xmlns="http://www.w3.org/2000/svg" xmlns:xlink="http://www.w3.org/1999/xlink" width="17.90936" height="25.08848" viewBox="0,0,17.90936,25.08848"><g transform="translate(-289.7644,-168.48848)"><g data-paper-data="{&quot;isPaintingLayer&quot;:true}" fill-rule="nonzero" stroke="none" stroke-width="0" stroke-linecap="butt" stroke-linejoin="miter" stroke-miterlimit="10" stroke-dasharray="" stroke-dashoffset="0" style="mix-blend-mode: normal"><path d="M289.7644,181.42169c2.68488,0.06918 5.01448,-0.76121 7.4269,-1.96969c0.74143,-0.49573 1.57395,-0.658 2.17645,-1.37575c0.77797,-0.9268 0.7973,-2.2242 1.55099,-3.12517c0.48827,-0.58368 1.16876,-0.90538 1.7954,-1.31224l0.03129,0.05685l0.43362,-0.23867c0.07958,-0.04183 0.13386,-0.1253 0.13386,-0.22144c0,-0.12486 -0.09154,-0.22834 -0.21116,-0.247l-0.48531,-0.08477c-0.29392,-0.06065 -0.58301,-0.1587 -0.85112,-0.29354c-1.97033,-1.4865 1.88663,-3.02701 3.43801,-4.12179c-0.04811,1.24527 -0.12985,2.47562 -0.12985,3.57091c0.00331,1.29288 -1.4521,2.30279 -0.66554,3.70023c0.45424,0.80703 1.9025,1.07466 3.24994,1.21847c0.12098,0.76878 -0.47624,1.13781 -0.87256,1.76651c-1.07667,1.70792 -1.70979,3.16691 -2.05351,5.16239c-0.02517,2.64813 1.6844,4.90458 2.91059,7.30309c-2.40685,-0.61501 -5.22983,-0.64698 -7.36931,-0.45642c-3.44077,0.30816 -6.4951,2.43577 -9.94893,2.72827c-0.18351,0.01759 -0.37128,0.05006 -0.55974,0.09503z" fill="#5f4b29"/><path d="M303.97431,173.181c-1.55773,1.7097 -1.77074,2.1966 -2.65689,1.37578c0.42669,-0.35567 0.92684,-0.61286 1.39671,-0.91794l0.03129,0.05685l0.43362,-0.23867c0.07958,-0.04183 0.13386,-0.1253 0.13386,-0.22144c0,-0.12486 -0.09154,-0.22834 -0.21116,-0.247l-0.48531,-0.08477c-0.29392,-0.06065 -0.58301,-0.1587 -0.85112,-0.29354c-0.96862,-0.73077 -0.52894,-1.47458 0.35279,-2.17208c1.69067,0.98597 3.43223,1.01304 1.85622,2.74282z" fill="#a4a097"/><path d="M297.53639,186.21324c1.70268,-1.8688 -0.94995,2.73144 -0.44888,5.26718c-0.97297,0.32538 -1.93385,0.70896 -2.90327,1.05486c-0.51565,-1.88932 1.67233,-4.47835 3.35214,-6.32204z" fill="#a4a097"/></g></g></svg>