<svg version="1.1" xmlns="http://www.w3.org/2000/svg" xmlns:xlink="http://www.w3.org/1999/xlink" width="71.06562" height="112.34077" viewBox="0,0,71.06562,112.34077"><g transform="translate(-291.31133,-124.63555)"><g data-paper-data="{&quot;isPaintingLayer&quot;:true}" fill-rule="nonzero" stroke-linecap="butt" stroke-linejoin="miter" stroke-miterlimit="10" stroke-dasharray="" stroke-dashoffset="0" style="mix-blend-mode: normal"><path d="M312.81123,194.3198c-0.12201,0.71288 -0.52935,1.30315 -1.0864,1.79069c-1.02753,0.89931 -2.56448,1.44909 -3.75979,1.77421c-7.04954,1.91748 -11.32203,-2.4815 -15.1741,-8.22859c-0.88077,-1.31407 -3.30101,-8.73842 0.98736,-5.72396c0.98445,0.69201 1.293,2.85211 1.95082,3.81858c1.75679,2.58106 4.37377,5.78255 7.21866,7.18371c2.37638,1.17041 7.33478,-2.512 7.99816,-2.19268z" fill="#b5c4cc" stroke="none" stroke-width="0.5"/><g stroke="none" stroke-width="0.5"><path d="M313.7196,212.1421c-0.48769,1.9581 -1.20073,3.99304 -1.97669,5.87436c-0.06047,0.14661 -0.12051,0.2933 -0.18015,0.44006c-0.29369,-0.11872 -0.5869,-0.23828 -0.87945,-0.35895c-1.43063,-0.59008 -2.86127,-1.18015 -4.2919,-1.77022c0.03632,-0.08667 0.07244,-0.17331 0.10836,-0.2599c0.59346,-2.17099 1.9029,-4.17217 2.44523,-6.34429c0.29978,-1.20068 0.39474,-2.50617 0.71696,-3.71146c1.2842,0.87896 3.0776,1.20564 4.45391,1.7733c0.26123,0.10774 0.52255,0.21039 0.78794,0.29788c-0.22074,1.39792 -0.8396,2.67564 -1.18421,4.05921z" fill="#b0c1ca"/><path d="M308.89679,209.64848c0.2956,-1.11342 0.91002,-2.22185 1.35083,-3.28802c0.32376,0.16875 0.66726,0.31448 1.01932,0.44678c-0.41971,1.00881 -1.02401,2.07171 -1.29429,3.12523c-0.61446,2.39507 -0.96068,4.76251 -1.91594,7.08175c-0.34271,-0.14136 -0.68542,-0.2827 -1.02813,-0.42406c0.92753,-2.2768 1.24573,-4.59712 1.8682,-6.94168z" fill="#c7d7e0"/><path d="M309.61266,210.1957c0.31418,-1.01762 1.2803,-2.00204 1.16563,-3.08202c0,0 -0.01906,-0.26253 0.14962,-0.43954c0.31261,0.12854 0.63521,0.24353 0.9595,0.35205c0.0005,0.00452 0.00066,0.00695 0.00066,0.00695c0.06932,1.3514 -0.81534,2.25552 -1.21283,3.49275c-0.72655,2.26141 -0.75268,4.66074 -1.58112,6.91624c-0.34271,-0.14135 -0.68541,-0.2827 -1.02812,-0.42406c0.81655,-2.21464 0.85723,-4.58946 1.54664,-6.82236z" fill="#cdd0e0"/></g><g stroke="none" stroke-width="0.5"><path d="M335.91994,210.42296c1.20479,1.56755 2.36615,3.20662 3.46898,4.87096c-1.505,0.37245 -2.95272,0.94181 -4.35695,1.64143c-1.76018,-2.89028 -3.46245,-5.7971 -5.70459,-8.30535c1.38475,-0.46659 2.55861,-0.86544 3.80706,-1.50955c0.77087,1.22429 1.88272,2.12789 2.78551,3.3025z" fill="#b0c1ca"/><path d="M330.05329,208.56895c0,0 -0.05122,-0.05965 -0.09273,-0.15337c0.37544,-0.12828 0.73754,-0.25506 1.09278,-0.38741c2.1106,2.52825 3.48934,5.60928 5.4377,8.23668c-0.34561,0.14506 -0.68842,0.29898 -1.02863,0.46085c-1.89227,-2.64147 -3.27823,-5.67512 -5.40912,-8.15675z" fill="#c7d7e0"/><path d="M332.59567,209.37714c0.4723,-0.29403 0.76634,0.17827 0.76634,0.17827l0.13572,0.21801c0.45001,0.72284 0.83954,1.37949 1.10429,2.19396c0,0 0.17071,0.52953 -0.35881,0.70023c-0.52952,0.1707 -0.70023,-0.35881 -0.70023,-0.35881c-0.23247,-0.72806 -0.58783,-1.3015 -0.98988,-1.94729l-0.13572,-0.21801c0,0 -0.29403,-0.47231 0.17828,-0.76634z" fill="#cdd0e0"/></g><path d="M338.03465,195.47623c0.05703,0.19959 0.0183,0.34599 -0.05266,0.45111l-0.03104,0.16689c0,1.00428 0,2.00856 0,3.01284c0,0.72347 0.03643,1.34894 -0.19197,2.05046c-0.46724,1.43508 -1.36648,2.25274 -2.49516,2.68755v0.14767c0,1.88327 0.49504,4.62498 -1.90119,5.0335c-0.46833,0.00107 -0.92542,-0.0222 -1.3775,-0.05732c-0.00553,0.05522 -0.01027,0.11027 -0.01424,0.16516c-1.45507,-0.10772 -2.69168,-0.3927 -4.20326,-0.78708c0,0 -0.21337,-0.05334 -0.28988,0.14017c-0.4022,-0.11575 -0.77605,-0.30044 -1.06794,-0.60545c-1.17175,-1.22439 -1.11708,-2.99635 -1.28606,-4.57128c-1.7658,-0.32363 -3.59285,-0.35032 -5.42555,-0.33968c0.02344,0.12856 0.00208,0.23537 0.00208,0.23537l-0.07403,0.35947c-0.22076,1.94277 -0.4986,3.60234 -2.50322,3.87566c0.01347,0.03934 0.02651,0.07872 0.03913,0.11814c-0.23454,0.01296 -0.47043,0.01479 -0.70573,0.01479c-1.46046,0 -3.34103,0.43575 -4.84535,0.04331c-0.00333,-0.04927 -0.00615,-0.09852 -0.00845,-0.14775c-0.36151,-0.06865 -0.70351,-0.16721 -1.01362,-0.30557c-0.03557,-0.02435 -0.07069,-0.04958 -0.10535,-0.07573c0,0 -0.06787,-0.0509 -0.15419,-0.05387c-0.38434,-0.21429 -0.70671,-0.50311 -0.93849,-0.88931c-0.78747,-1.31211 -0.48896,-3.16189 -0.48266,-4.63054c-1.63022,-1.63705 -1.41826,-5.0258 -1.1343,-7.04633c0,0 0.06413,-0.44892 0.48189,-0.47827c0.28606,-0.16467 0.58616,0.04969 0.58616,0.04969c2.1287,1.5205 5.04326,1.38896 7.57377,1.74952c1.28314,0.18283 2.59522,0.49586 3.89414,0.4909c4.9269,0 9.90589,0.21333 14.7507,-0.41803c0.61664,-0.13691 1.12832,-0.30473 1.69297,-0.58872l0.3697,-0.11181c0.09647,-0.08326 0.23807,-0.13918 0.44413,-0.10484c0.16286,0.02714 0.26933,0.09457 0.33854,0.17597c0.05311,0.05852 0.09835,0.13747 0.12861,0.24339z" fill="#b0c1ca" stroke="none" stroke-width="0.5"/><path d="M312.8936,207.66421c0.1635,0 0.27894,0.04805 0.36047,0.1159c-0.23622,0.0037 -0.47035,-0.00055 -0.70014,-0.01631c0.08003,-0.05911 0.18961,-0.09959 0.33967,-0.09959z" fill="#c7d7e0" stroke="none" stroke-width="0.5"/><path d="M329.03875,208.59517c0.26176,-0.04027 0.41808,0.06323 0.51004,0.18275c-0.21439,-0.04568 -0.43049,-0.09474 -0.6502,-0.14691c0.0414,-0.01557 0.08792,-0.0278 0.14016,-0.03584z" fill="#c7d7e0" stroke="none" stroke-width="0.5"/><path d="M310.05133,201.66397c0.27223,0.27223 0.1677,0.54447 0.07748,0.68634c-0.29094,1.7369 0.12009,2.98039 1.87637,3.60116c0,0 0.52286,0.19013 0.33273,0.71299c-0.19013,0.52286 -0.71299,0.33274 -0.71299,0.33274c-2.30751,-0.85762 -2.98383,-2.64049 -2.56574,-4.98798l0.20534,-0.34524c0,0 0.39341,-0.39341 0.78681,0z" fill="#c7d7e0" stroke="none" stroke-width="0.5"/><path d="M308.83616,194.9783c0.55635,0 0.55636,0.55635 0.55636,0.55635v0.20544c0,1.58566 0.35411,2.64881 0.89098,4.1241c0,0 0.19012,0.52286 -0.33273,0.71299c-0.52286,0.19013 -0.71299,-0.33274 -0.71299,-0.33274c-0.57556,-1.58401 -0.95798,-2.79844 -0.95798,-4.50437v-0.20544c0,0 0,-0.55635 0.55635,-0.55635z" fill="#c7d7e0" stroke="none" stroke-width="0.5"/><path d="M310.78449,200.48173c-0.4274,0.35617 -0.78358,-0.07124 -0.78358,-0.07124l-0.34295,-0.45034c-0.6492,-1.5633 -0.96626,-2.5944 -0.81091,-4.32179c0,0 0.05036,-0.55408 0.60444,-0.5037c0.55407,0.05037 0.5037,0.60444 0.5037,0.60444c-0.14587,1.58593 0.13265,2.36412 0.72988,3.79309l0.17065,0.16598c0,0 0.35617,0.4274 -0.07124,0.78357z" fill="#cdd0e0" stroke="none" stroke-width="0.5"/><path d="M312.80043,205.84472c-0.29487,0.47179 -0.76666,0.17692 -0.76666,0.17692l-0.30615,-0.20573c-1.72415,-0.63459 -1.71658,-1.62002 -1.85374,-3.2501c0,0 -0.0462,-0.55444 0.50823,-0.60064c0.55443,-0.0462 0.60063,0.50823 0.60063,0.50823c0.10024,1.2139 -0.12355,1.84929 1.12514,2.29679l0.51561,0.30787c0,0 0.4718,0.29487 0.17692,0.76666z" fill="#cdd0e0" stroke="none" stroke-width="0.5"/><path d="M328.88403,207.87852c0.3934,-0.39341 0.78681,0 0.78681,0l0.09712,0.10319c0.11984,0.15408 0.23968,0.30816 0.35952,0.46224c0,0 0.1714,0.22037 0.11526,0.47031c-0.46157,-0.08246 -0.92148,-0.18213 -1.39906,-0.29636c-0.08914,-0.11605 -0.27131,-0.42772 0.04036,-0.7394z" fill="#cdd0e0" stroke="none" stroke-width="0.5"/><path d="M329.84776,209.32704c-0.21645,0.0761 -0.39525,-0.01985 -0.49948,-0.10325c0.16739,0.036 0.33361,0.07049 0.49948,0.10325z" fill="#cdd0e0" stroke="none" stroke-width="0.5"/><path d="M325.68223,202.32277c0.55635,0 0.55635,0.55636 0.55635,0.55636v0.10272c-0.00097,1.53089 0.60088,2.62614 1.36229,3.93118c0,0 0.28033,0.48056 -0.20024,0.7609c-0.48057,0.28034 -0.7609,-0.20023 -0.7609,-0.20023c-0.86185,-1.47773 -1.51283,-2.75105 -1.51387,-4.49185v-0.10272c0,0 0.00001,-0.55636 0.55636,-0.55636z" fill="#cdd0e0" stroke="none" stroke-width="0.5"/><path d="M303.79563,230.88266c-0.34825,0.48507 -0.69651,0.97015 -1.04476,1.45522l0.06856,-0.05658c0,0 -0.01905,0.1188 -0.09469,0.23705c-1.45372,-0.52417 -3.17836,-2.24724 -4.06006,-3.3797c-0.13042,-0.18434 -0.27192,-0.34758 -0.41677,-0.50573c0.24864,-0.26359 0.49832,-0.52615 0.74685,-0.79001c1.85104,-3.60592 4.59467,-6.90489 7.01813,-10.20165c1.25828,0.90336 2.51654,1.80671 3.77482,2.71007c0.25813,0.18532 0.51713,0.3697 0.77682,0.55337c-2.32246,3.30612 -4.42218,6.70926 -6.76889,9.97796z" fill="#b0c1ca" stroke="none" stroke-width="0.5"/><path d="M304.25793,235.63544c-0.0608,0.20818 -1.06051,0.75537 -1.29763,0.89141c-2.25877,1.29591 -3.08604,-0.56582 -4.32434,-2.14175c-0.96999,-1.66925 -1.70734,-3.31868 -2.52845,-5.02516c-0.28455,-0.59138 -0.70723,-1.61032 -0.48102,-2.29402c0.56217,-1.69904 2.54385,-1.38595 3.52409,-0.38035l0.23772,-0.09553c0.0694,-0.02932 0.13885,-0.0585 0.20835,-0.08756c0.0572,0.17811 0.10811,0.35876 0.14209,0.54785c0.38292,1.5354 1.30926,3.95978 2.52864,5.07772c0,0 0.18428,0.16895 0.35322,-0.01533c0.00872,-0.0095 0.01649,-0.01897 0.02339,-0.02837c0.60372,0.93464 1.88894,2.60933 1.61394,3.55108z" fill="#b0c1ca" stroke="none" stroke-width="0.5"/><path d="M299.22546,228.19606c0.83794,-1.16715 1.86568,-2.16169 2.75032,-3.30164c1.69067,-2.17861 3.18071,-4.4925 4.62575,-6.83055c0.30194,0.21677 0.60389,0.43355 0.90584,0.65034c-1.45201,2.35145 -2.95682,4.67489 -4.65544,6.86616c-0.87422,1.12776 -1.89506,2.11202 -2.72256,3.26463c-0.10982,0.15297 -0.21966,0.30596 -0.32948,0.45893l-0.32949,0.45893c0,0 -0.0559,0.07787 -0.15362,0.14576c-0.24733,-0.27153 -0.46806,-0.53362 -0.65208,-0.76997c-0.01923,-0.02717 -0.03869,-0.05389 -0.05837,-0.08019c0.15077,-0.21001 0.51979,-0.72401 0.61915,-0.86239z" fill="#c7d7e0" stroke="none" stroke-width="0.5"/><path d="M306.61134,223.85068c-0.53073,-0.16689 -0.36385,-0.69763 -0.36385,-0.69763l0.09244,-0.29397c0.36268,-1.1508 0.9031,-2.22019 1.27427,-3.36864c0.35377,0.11125 0.70753,0.22249 1.0613,0.33374c-0.37315,1.14774 -0.91333,2.21867 -1.2741,3.36869l-0.09244,0.29398c0,0 -0.16689,0.53072 -0.69762,0.36383z" fill="#cdd0e0" stroke="none" stroke-width="0.5"/><path d="M300.64413,228.31883c-0.45194,-0.32446 -0.12748,-0.77641 -0.12748,-0.77641l0.17024,-0.22754c1.3491,-1.40083 2.55147,-2.95433 3.93613,-4.33434c0,0 0.39436,-0.39246 0.78679,0.0019c0.39245,0.39434 -0.0019,0.7868 -0.0019,0.7868c-1.38017,1.37141 -2.58079,2.91661 -3.91802,4.31586l-0.06938,0.10623c0,0 -0.32446,0.45194 -0.7764,0.12748z" fill="#cdd0e0" stroke="none" stroke-width="0.5"/><path d="M299.37738,229.56965c0.1792,-0.24961 0.5268,-0.30669 0.77641,-0.12749c0.24961,0.1792 0.30667,0.52681 0.12747,0.77641c-0.10743,0.14963 -0.27537,0.23007 -0.44644,0.2319c-0.19838,-0.19774 -0.3866,-0.39609 -0.56096,-0.58915c0.0059,-0.10163 0.03975,-0.20286 0.10352,-0.29168z" fill="#cdd0e0" stroke="none" stroke-width="0.5"/><g stroke="none" stroke-width="0.5"><path d="M339.03541,220.84089c-0.3802,3.66269 0.55395,7.37939 0.17616,11.06832l-0.01649,0.16111c1.19823,-0.03981 2.87458,-0.62557 3.78504,-0.01482c0.97938,0.65695 0.86728,3.6847 -0.1052,4.36631c-0.08251,0.05783 -1.30772,0.13154 -1.54738,0.1241c-1.35053,-0.04192 -2.75556,-0.20062 -4.09789,-0.33641c-1.62008,-0.16591 -3.24028,-0.33073 -4.86026,-0.49774c-0.39048,-0.04026 -1.33219,-0.09387 -1.60917,-0.35906c-0.79276,-0.75895 -0.30683,-3.27229 0.05162,-4.1598c0.11704,-0.28979 0.17619,-0.6495 0.42849,-0.83395c0.43683,-0.31936 1.7434,-0.13384 2.27764,-0.14576c0,0 0.00041,-0.00001 0.00123,-0.00001l0.01163,-0.11355c0.407,-3.97431 0.73147,-7.94191 1.13846,-11.91594c0.03424,-0.33424 0.07007,-0.6682 0.10682,-1.00193c1.54393,0.31036 3.0402,0.75368 4.46537,1.39341c-0.06021,0.75899 -0.1292,1.51507 -0.20608,2.2657z" fill="#b0c1ca"/><g><path d="M334.79307,230.50651l0.05755,-0.56201c0.39314,-3.83884 0.75701,-7.5899 0.45501,-11.42565c-0.01986,-0.40973 -0.02507,-0.81941 -0.01879,-1.22907c0.37123,0.08247 0.73952,0.17314 1.10452,0.27291c0.00119,0.295 0.00902,0.58993 0.02469,0.88477c0.30053,3.89863 -0.05905,7.70979 -0.45851,11.61041l-0.05755,0.56201c0,0 -0.05668,0.55346 -0.61014,0.49678h-0.00001c-0.55345,-0.05668 -0.49678,-0.61015 -0.49678,-0.61015z" fill="#c7d7e0"/><path d="M336.93505,224.12605c0.55345,0.05668 0.49678,0.61015 0.49678,0.61015l-0.00524,0.05109c-0.19788,1.93223 -0.29094,3.84916 -0.48908,5.78395c0,0 -0.05668,0.55346 -0.61014,0.49678c-0.55345,-0.05668 -0.49678,-0.61015 -0.49678,-0.61015c0.19814,-1.9348 0.29115,-3.85133 0.48908,-5.78395l0.00524,-0.05109c0,0 0.05668,-0.55346 0.61014,-0.49678z" fill="#cdd0e0"/><path d="M337.38381,219.57164c0,0 0.04324,0.55466 -0.51143,0.59792c-0.55468,0.04323 -0.59792,-0.51143 -0.59792,-0.51143c-0.0565,-0.74204 -0.2078,-1.4609 -0.27851,-2.19968c0.38829,0.09867 0.77305,0.20715 1.15388,0.32651c0.07594,0.59557 0.18594,1.18305 0.23398,1.78668z" fill="#cdd0e0"/></g></g><path d="M310.02943,194.5408c0,0 -1.64197,-19.68863 -2.39726,-31.01839c0.80583,0.38557 1.62674,0.72104 2.34553,1.08521c2.71485,1.08667 5.83786,2.07917 8.74619,2.32958c3.03227,0.00137 6.15899,0.23102 9.24222,0.23102c3.24383,0 6.48765,0 9.73148,0c0.44635,-0.00121 0.86811,-0.04989 1.27237,-0.13376c-0.0975,4.19457 -0.94669,8.85112 -1.15218,13.16683c-0.39713,8.34034 -0.19302,15.40772 -0.19302,15.40772z" fill="#c5d8e2" stroke="none" stroke-width="0"/><path d="M307.5595,164.10036c-1.0911,0.21822 -1.30933,-0.87288 -1.30933,-0.87288l-0.10086,-0.51624c-0.00007,-0.00056 -0.00015,-0.00112 -0.00022,-0.00168c0.63616,0.41334 1.33835,0.75272 2.03204,1.06825c-0.1337,0.14465 -0.33131,0.2645 -0.62161,0.32257z" fill="#c5d8e2" stroke="none" stroke-width="0.5"/><path d="M307.43416,165.63255c-1.11271,0 -1.11271,-1.11272 -1.11271,-1.11272l0.00552,-0.35779c-0.03905,-0.39042 -0.07808,-0.78086 -0.11713,-1.17128c0,0 -0.0098,-0.09796 0.00558,-0.23851c0.72969,0.46503 1.5417,0.83636 2.3259,1.18804c0.00001,0.00011 0.00002,0.00021 0.00003,0.00032l0.00553,0.57923c0,0 0,1.11272 -1.11272,1.11272z" fill="#c5d8e2" stroke="none" stroke-width="0.5"/><path d="M307.20631,161.77285c1.10719,-0.11072 1.21791,0.99647 1.21791,0.99647c0.02076,0.20755 0.04152,0.4151 0.06227,0.62265c-0.72577,-0.31978 -1.47176,-0.67066 -2.12966,-1.10723c0.13365,-0.24256 0.38388,-0.46533 0.84948,-0.5119z" fill="#c5d8e2" stroke="none" stroke-width="0.5"/><path d="M309.3082,193.97748c-1.11271,0 -1.11271,-1.11271 -1.11271,-1.11271l0.00114,-1.2217c0.26887,-2.9473 0.89281,-5.63266 0.59002,-8.62344c0,0 -0.03292,-0.32922 0.11665,-0.64656c-0.17281,-0.63702 -0.33948,-1.25758 -0.34658,-1.30765c-0.2276,-1.60389 0.05443,-3.2618 -0.22847,-4.8812c-0.22143,-1.26754 -0.66413,-2.50145 -0.8255,-3.7849c-0.1701,-1.35287 -0.39036,-2.64086 -0.58387,-3.96981c-0.20316,-1.39519 0.20192,-2.02232 -0.47996,-3.29493c0,0 -0.49763,-0.99524 0.49761,-1.49286c0.25862,-0.12931 0.48364,-0.15781 0.67505,-0.12917c0.16459,0.07896 0.32985,0.15579 0.49479,0.23118c0.21535,0.18026 0.32302,0.39561 0.32302,0.39561c0.22445,0.47108 0.55264,0.90558 0.67334,1.41325c0.19691,0.82819 -0.11265,1.71256 0.01797,2.55375c0.39858,2.56694 0.95574,5.13152 1.4017,7.70615c0.28476,1.64407 0.00639,3.3357 0.24004,4.95753c0.11993,0.83249 0.45211,1.62028 0.67341,2.43173l0.23064,0.80698c0,0 0.27205,0.9522 -0.59545,1.31667c-0.07708,2.14664 -0.45151,4.21187 -0.65128,6.4185l0.00114,1.12086c0,0 0,1.11271 -1.11271,1.11271z" fill="#c5d8e2" stroke="none" stroke-width="0.5"/><path d="M337.97286,195.57033c-1.06579,0.31974 -1.38552,-0.74606 -1.38552,-0.74606l-0.3771,-1.27479c-0.30794,-2.99504 -0.1846,-6.37785 0.45591,-9.35592c-0.00862,-0.06986 -0.00861,-0.11339 -0.00861,-0.11339v-0.23426c0.00251,-2.02715 -0.56475,-3.86179 -0.46737,-5.90681c0.08917,-1.87268 0.56717,-3.52792 0.96166,-5.34135c0.39643,-1.8224 0.55386,-3.60795 0.70014,-5.43185c0.82403,-0.02255 1.56496,-0.20606 2.26918,-0.47019c-0.17569,2.14982 -0.33185,4.24443 -0.79546,6.37836c-0.3677,1.69246 -0.82919,3.21891 -0.91237,4.96589c-0.08594,1.80469 0.36513,3.45549 0.45449,5.2329c0.21183,0.39187 0.09906,0.84294 0.09906,0.84294c-0.71149,2.77107 -0.849,6.1414 -0.57363,9.00126l0.32567,1.06776c0,0 0.31974,1.06579 -0.74605,1.38552z" fill="#c5d8e2" stroke="none" stroke-width="0.5"/><path d="M338.85349,193.36685c0.55206,0.9661 -0.41405,1.51817 -0.41405,1.51817l-0.70432,0.39257c-0.20077,0.15057 -2.1855,1.63959 -2.19573,1.64427c-1.56488,0.71604 -3.83136,0.33519 -5.49957,0.33519c-5.5147,0 -10.79078,-0.90427 -16.26356,-1.41003c-1.86723,-0.17256 -4.65295,0.67264 -5.82542,-1.45259c-0.28301,-0.51298 0.01062,-1.17168 0.01592,-1.75752c0,0 0.11072,-1.10719 1.21791,-0.99647c1.10719,0.11072 0.99647,1.21791 0.99647,1.21791c-0.07277,0.19502 -0.27453,0.38462 -0.21834,0.58504c0.12591,0.44905 0.92076,0.1725 1.38699,0.18384c1.36892,0.0333 2.6041,0.06581 3.96069,0.24272c4.91376,0.64081 9.77512,1.16167 14.72933,1.16167c1.23406,0 3.42638,0.4411 4.57343,-0.13332c0.6767,-0.33889 1.18118,-0.94694 1.78661,-1.40105l0.93546,-0.54445c0,0 0.96611,-0.55206 1.51817,0.41405z" fill="#c5d8e2" stroke="none" stroke-width="0.5"/><path d="M308.86752,171.51411c0,0.55635 -0.55636,0.55636 -0.55636,0.55636l-0.0633,-0.00164c-1.4002,0.1069 -2.73958,0.07648 -4.09959,-0.29635c-0.52443,-0.2418 -0.91524,-0.3392 -1.27185,-0.83758c-0.75099,-1.04958 -0.84688,-3.29414 -0.79059,-4.53269c0.00978,-0.21525 0.11731,-1.31115 0.18364,-1.42497c0.782,-1.34185 3.00887,-1.60835 4.34351,-1.48828c0,0 0.55407,0.05037 0.5037,0.60445c-0.05037,0.55408 -0.60444,0.5037 -0.60444,0.5037c-0.92251,-0.08481 -2.72467,0.01647 -3.28652,0.94909c-0.14254,0.2366 -0.02732,1.17987 -0.02774,1.46407c-0.00182,1.24349 0.09192,3.16565 1.32812,3.71561c1.20011,0.32513 2.40313,0.32914 3.63642,0.23351l0.14865,-0.00163c0,0 0.55636,0 0.55636,0.55635z" fill="#b0c1ca" stroke="none" stroke-width="0.5"/><path d="M358.79228,189.27978c0.12547,0.6002 0.93348,1.05591 1.13784,1.63867c0.34842,0.9935 -0.7481,0.79574 -1.29993,0.58822c-0.9158,-0.34439 -2.22887,-2.94441 -1.34665,-3.3903c-0.02356,-0.06151 -0.04288,-0.12803 -0.05752,-0.19968l-0.0589,-0.10262c-0.78536,-1.40054 -2.27998,-2.45476 -3.3133,-3.67191c-1.33954,-1.57784 -2.60161,-2.98513 -4.15543,-4.38345c0.90336,-0.19941 1.47878,-0.88584 2.44581,-1.23235c0.70203,0.76954 1.59338,1.34192 2.29662,2.13657c1.54569,1.74662 3.05979,3.36445 4.3079,5.34303c0.38465,-0.15598 0.72977,-0.17462 0.87947,0.07014c0.20122,-0.01666 0.40526,-0.00554 0.59403,0.03875c0.54067,0.12685 3.42079,1.76954 1.5057,2.1564c-0.03754,0.00759 -0.07697,0.00868 -0.11488,0.0032c-0.62842,-0.09094 -1.16778,-0.32921 -1.6963,-0.50147c-0.01694,0.02975 -0.0369,0.05904 -0.06024,0.08778c-0.3153,0.38827 -0.73955,0.66386 -1.15666,0.78823c0.02978,0.21615 0.05147,0.43472 0.09246,0.6308zM352.72464,180.47496c-0.52606,-0.47747 -1.03115,-0.82515 -1.48618,-1.31c-0.08316,0.09136 -0.17947,0.17047 -0.28498,0.2368c1.35848,1.27761 2.5176,2.58704 3.7432,4.014c0.94133,1.09599 2.16985,2.06635 3.03937,3.24567c0.02339,-0.02124 0.0473,-0.04236 0.07164,-0.06331c-1.38259,-2.22036 -3.15121,-4.36975 -5.08305,-6.12314z" fill="#b0c1ca" stroke="none" stroke-width="0.5"/><path d="M350.88079,180.0744c-0.03284,0.03229 -0.06533,0.05998 -0.09687,0.08239c-0.54381,0.38635 -1.51172,0.2558 -1.9732,-0.19512c-0.43203,-0.42216 -0.58449,-0.8755 -0.54686,-1.31368c-0.41373,-0.38917 -0.81921,-0.73868 -1.19174,-1.20078c-2.56267,-2.55724 -4.37871,-6.07159 -7.35637,-8.14213c0,0 -0.45579,-0.31905 -0.13674,-0.77483c0.31905,-0.45578 0.77483,-0.13673 0.77483,-0.13673c3.05267,2.14933 4.91814,5.67704 7.54738,8.31161c0.26246,0.33084 0.54388,0.59638 0.83362,0.86403c0.12283,-0.15391 0.26439,-0.29854 0.41857,-0.43077c-0.54318,-0.47447 -0.96101,-1.00878 -1.44887,-1.56707c-1.22398,-1.75543 -2.65368,-3.39656 -3.89216,-5.15003c-0.80673,-1.14219 -1.76542,-3.13367 -3.10933,-3.68663c0,0 -0.12901,-0.05734 -0.22818,-0.17923c0.40062,-0.16708 0.79159,-0.35656 1.18186,-0.55295c1.30415,0.87426 2.19638,2.54623 3.06577,3.77869c1.22649,1.73868 2.63821,3.36799 3.85779,5.10375c0.51717,0.59026 0.93147,1.15418 1.56515,1.62696l0.01582,0.01529c0.2875,-0.11371 0.57664,-0.18004 0.84267,-0.18617c0,0 0.14566,0.00001 0.28791,0.07453c0.25732,1.20825 1.06057,1.98735 0.52837,3.32358c-0.26023,0.201 -0.60518,0.33197 -0.93946,0.33533z" fill="#b0c1ca" stroke="none" stroke-width="0.5"/><path d="M340.4206,166.0003c0.22596,-0.50841 0.73436,-0.28244 0.73436,-0.28244c0.00109,0.00051 0.00218,0.00102 0.00327,0.00153c-0.25269,0.12415 -0.50696,0.24295 -0.76515,0.35192c0.00758,-0.02303 0.01671,-0.0467 0.02752,-0.07101z" fill="#b0c1ca" stroke="none" stroke-width="0.5"/><path d="M312.13686,216.7052c0,-0.12291 0.09963,-0.22254 0.22254,-0.22254c0.12291,0 0.22254,0.09964 0.22254,0.22254c0,0.12291 -0.09964,0.22254 -0.22254,0.22254c-0.12291,0 -0.22254,-0.09964 -0.22254,-0.22254z" fill="#6b767b" stroke="none" stroke-width="0.5"/><g stroke="none"><path d="M333.61873,218.96244c-0.15736,-0.15736 0,-0.31473 0,-0.31473l0.20776,-0.1549c1.2413,-0.24293 2.63513,-0.00903 3.88786,-0.00145c0.41998,0.13619 1.04475,0.1899 1.38293,0.47758c0.05994,0.051 0.13331,0.14111 0.20532,0.24417c-0.10002,-0.42907 -0.18344,-1.00193 -0.24331,-1.40936l-0.09967,-0.13288c-0.02876,-0.0375 -0.04586,-0.08442 -0.04586,-0.13532c0,-0.12291 0.09964,-0.22255 0.22254,-0.22255c0.06145,0 0.11709,0.02492 0.15736,0.06519l0.2351,0.2351c0.18649,0.18685 0.32298,0.49767 0.38483,0.66245c-0.12261,-0.48868 0.18398,-1.09778 -0.11562,-1.5564c-0.05012,-0.06774 -0.12462,-0.12299 -0.15038,-0.20323c-0.3739,-1.16413 0.6359,-0.38305 0.98782,-0.07399c-0.0597,-0.13416 -0.10968,-0.33429 -0.11219,-0.34272c-0.07335,-0.24607 -0.15275,-0.51769 -0.35572,-0.69837c-0.33692,-0.29991 -1.47844,-0.56262 -1.89948,-0.55922c-1.66703,-0.32764 -3.49772,0.07734 -5.1173,-0.38364c0,0 -0.21398,-0.06114 -0.15285,-0.27511c0.06113,-0.21398 0.27512,-0.15285 0.27512,-0.15285c1.58954,0.45601 3.3994,0.03342 5.03889,0.36868c1.11975,0.00806 2.86433,0.71941 2.7856,2.08031c-0.05345,0.92396 -0.60789,0.42507 -0.89321,0.08014c0.15528,0.44822 0.45439,2.09668 0.0761,2.25132c-0.15165,0.06199 -0.31023,-0.01883 -0.46064,-0.15496c0.15801,0.58647 0.23002,1.25446 0.0529,1.41893c-0.12436,0.11548 -0.33504,0.1594 -0.49723,0.10944c-0.24555,-0.07563 -0.37384,-0.69914 -0.57623,-0.8846c-0.24708,-0.22642 -0.83506,-0.25785 -1.15613,-0.36876c-1.19759,0.00799 -2.54457,-0.24453 -3.72928,-0.00145l0.01967,0.03318c0,0 -0.15736,0.15736 -0.31472,0z" fill="#6b767b" stroke-width="0.5"/><path d="M333.72907,218.71104c0,0 -0.04702,-1.85621 -0.04702,-2.63308c0,-0.63719 0.18808,-1.73972 0.18808,-1.73972c0,0 4.83867,0.20088 6.00599,0.51638c0.49123,0.13277 0.95287,1.3644 0.95287,1.3644c0,0 -0.88606,0.87988 -0.76709,1.68093c0.11606,0.78146 -0.69051,1.18725 -0.69051,1.18725c0,0 -1.80682,-0.58751 -2.7215,-0.64849c-0.96355,-0.06423 -2.92083,0.27233 -2.92083,0.27233z" fill="#606a6e" stroke-width="0"/><path d="M333.74827,215.37962c-0.05397,-0.2159 0.16192,-0.26988 0.16192,-0.26988l0.24205,-0.05366c0.31346,0 0.62692,0 0.94039,0c1.57422,0 2.97603,0.5908 4.51049,0.89769c0,0 0.21822,0.04364 0.17457,0.26187c-0.04364,0.21822 -0.26187,0.17458 -0.26187,0.17458c-1.50517,-0.30104 -2.88215,-0.88905 -4.4232,-0.88905c-0.31346,0 -0.62692,0 -0.94039,0l-0.1341,0.04038c0,0 -0.2159,0.05398 -0.26987,-0.16192z" fill="#303537" stroke-width="0.5"/><path d="M333.41249,216.97132c0,-0.22254 0.22254,-0.22254 0.22254,-0.22254l0.05039,0.00432c0.32175,-0.06435 0.62092,-0.17001 0.94039,-0.2351c1.37661,-0.2694 3.48508,0.0526 4.59699,0.88653c0,0 0.17803,0.13353 0.04451,0.31156c-0.13353,0.17803 -0.31156,0.04451 -0.31156,0.04451c-1.00266,-0.752 -2.99585,-1.06198 -4.24264,-0.80617c-0.31827,0.06225 -0.61935,0.17089 -0.94039,0.2351l-0.13769,0.00432c0,0 -0.22254,0 -0.22254,-0.22254z" fill="#303537" stroke-width="0.5"/></g><path d="M307.11101,196.33469c-0.17361,-0.2755 -0.17361,-0.58685 -0.17361,-0.58685v-0.48856c0.00087,-1.29442 -0.2196,-3.18255 1.18778,-3.98116c1.15463,-0.65518 3.4435,0.57776 4.64298,0.79895c4.12583,0.76081 8.22574,1.52935 12.43343,1.52935c2.83322,0 5.53193,-0.17386 8.33437,-0.56097c0.80241,-0.11084 3.09131,-0.80843 3.8124,-0.54515c2.02823,0.74054 2.01613,4.40781 0.70231,5.82024c-0.24783,0.26642 -2.0132,0.77205 -2.4575,0.90874c-2.19182,0.67428 -4.12051,0.77713 -6.40161,0.77713c-3.36271,0 -6.86554,0.28099 -10.20898,-0.08769c-3.81466,-0.42065 -7.6692,-1.53719 -11.24037,-2.91046c0,0 -0.5087,-0.19566 -0.6312,-0.67356z" fill="#606a6e" stroke="none" stroke-width="0.5"/><g stroke="none" stroke-width="0.5"><path d="M303.88764,175.54281c-0.00471,-0.22249 0.21779,-0.2272 0.21779,-0.2272c0.26718,-0.00565 0.62342,-0.01319 0.8906,-0.01884c1.79095,-0.03391 2.84437,-1.19185 3.67365,-2.64268c0,0 0.11044,-0.19321 0.30365,-0.08277c0.19321,0.11043 0.08277,0.30364 0.08277,0.30364c-0.90879,1.58997 -2.1073,2.82184 -4.05065,2.8668c-0.26718,0.00565 -0.53437,0.0113 -0.80156,0.01696l-0.08906,0.00189c0,0 -0.22249,0.00471 -0.2272,-0.21779z" fill="#3a53e0"/><path d="M309.55034,172.4497c0.21256,0.06589 0.14667,0.27846 0.14667,0.27846l-0.04791,0.15197c-0.18816,0.45227 -0.48579,0.80287 -0.82464,1.15637c-1.15343,1.20329 -2.98177,2.47692 -4.69265,2.52566c0,0 -0.22249,0.00471 -0.2272,-0.21779c-0.00471,-0.22249 0.21779,-0.2272 0.21779,-0.2272c1.57761,-0.01924 3.32238,-1.28454 4.38075,-2.38867c0.29445,-0.30718 0.57937,-0.61855 0.73324,-1.01501l0.03549,-0.11711c0,0 0.06589,-0.21257 0.27846,-0.14668z" fill="#3ae054"/><path d="M307.57439,173.40848c0.18774,0.1195 0.06823,0.30724 0.06823,0.30724l-0.18515,0.28887c-0.33297,0.32712 -0.81535,0.39164 -1.25984,0.23116c-0.20598,-0.07437 -0.40583,-0.47683 -0.56818,-0.32985c-0.13805,0.12499 0.15394,0.608 0.10114,0.77142c-0.22322,0.69085 -0.88501,0.33261 -1.3182,0.44896c0,0 -0.21725,0.04826 -0.2655,-0.16899c-0.04825,-0.21725 0.16899,-0.26551 0.16899,-0.26551c0.18363,-0.03576 0.90451,0.1732 0.98609,-0.1344c0.09869,-0.37214 -0.44754,-0.61941 0.06346,-1.00979c0.54113,-0.41342 1.24513,0.77251 1.74195,0.18217l0.15978,-0.25303c0,0 0.1195,-0.18774 0.30724,-0.06824z" fill="#e03a3a"/></g><g stroke="none"><path d="M305.14476,220.7475c-0.15736,-0.15736 0,-0.31473 0,-0.31473l0.20776,-0.1549c1.2413,-0.24293 2.63513,-0.00903 3.88786,-0.00145c0.41998,0.13619 1.04475,0.1899 1.38293,0.47758c0.05994,0.051 0.13331,0.14111 0.20532,0.24417c-0.10002,-0.42907 -0.18344,-1.00193 -0.24331,-1.40936l-0.09967,-0.13288c-0.02876,-0.0375 -0.04586,-0.08442 -0.04586,-0.13532c0,-0.12291 0.09964,-0.22255 0.22254,-0.22255c0.06145,0 0.11709,0.02492 0.15736,0.06519l0.2351,0.2351c0.18649,0.18685 0.32298,0.49767 0.38483,0.66245c-0.12261,-0.48868 0.18398,-1.09778 -0.11562,-1.5564c-0.05012,-0.06774 -0.12462,-0.12299 -0.15038,-0.20323c-0.3739,-1.16413 0.6359,-0.38305 0.98782,-0.07399c-0.0597,-0.13416 -0.10968,-0.33429 -0.11219,-0.34272c-0.07335,-0.24607 -0.15275,-0.51769 -0.35572,-0.69837c-0.33692,-0.29991 -1.47844,-0.56262 -1.89948,-0.55922c-1.66703,-0.32764 -3.49772,0.07734 -5.1173,-0.38364c0,0 -0.21398,-0.06114 -0.15285,-0.27511c0.06113,-0.21398 0.27512,-0.15285 0.27512,-0.15285c1.58954,0.45601 3.3994,0.03342 5.03889,0.36868c1.11975,0.00806 2.86433,0.71941 2.7856,2.08031c-0.05345,0.92396 -0.60789,0.42507 -0.89321,0.08014c0.15528,0.44822 0.45439,2.09668 0.0761,2.25132c-0.15165,0.06199 -0.31023,-0.01883 -0.46064,-0.15496c0.15801,0.58647 0.23002,1.25446 0.0529,1.41893c-0.12436,0.11548 -0.33504,0.1594 -0.49723,0.10944c-0.24555,-0.07563 -0.37384,-0.69914 -0.57623,-0.8846c-0.24708,-0.22642 -0.83506,-0.25785 -1.15613,-0.36876c-1.19759,0.00799 -2.54457,-0.24453 -3.72928,-0.00145l0.01967,0.03318c0,0 -0.15736,0.15736 -0.31472,0z" fill="#6b767b" stroke-width="0.5"/><path d="M305.2551,220.4961c0,0 -0.04702,-1.85621 -0.04702,-2.63308c0,-0.63719 0.18808,-1.73972 0.18808,-1.73972c0,0 4.83867,0.20088 6.00599,0.51638c0.49123,0.13277 0.95287,1.3644 0.95287,1.3644c0,0 -0.88606,0.87988 -0.76709,1.68093c0.11606,0.78146 -0.69051,1.18725 -0.69051,1.18725c0,0 -1.80682,-0.58751 -2.7215,-0.64849c-0.96355,-0.06423 -2.92083,0.27233 -2.92083,0.27233z" fill="#606a6e" stroke-width="0"/><path d="M305.2743,217.16468c-0.05397,-0.2159 0.16192,-0.26988 0.16192,-0.26988l0.24205,-0.05366c0.31346,0 0.62692,0 0.94039,0c1.57422,0 2.97603,0.5908 4.51049,0.89769c0,0 0.21822,0.04364 0.17457,0.26187c-0.04364,0.21822 -0.26187,0.17458 -0.26187,0.17458c-1.50517,-0.30104 -2.88215,-0.88905 -4.4232,-0.88905c-0.31346,0 -0.62692,0 -0.94039,0l-0.1341,0.04038c0,0 -0.2159,0.05398 -0.26987,-0.16192z" fill="#303537" stroke-width="0.5"/><path d="M304.93852,218.75638c0,-0.22254 0.22254,-0.22254 0.22254,-0.22254l0.05039,0.00432c0.32175,-0.06435 0.62092,-0.17001 0.94039,-0.2351c1.37661,-0.2694 3.48508,0.0526 4.59699,0.88653c0,0 0.17803,0.13353 0.04451,0.31156c-0.13353,0.17803 -0.31156,0.04451 -0.31156,0.04451c-1.00266,-0.752 -2.99585,-1.06198 -4.24264,-0.80617c-0.31827,0.06225 -0.61935,0.17089 -0.94039,0.2351l-0.13769,0.00432c0,0 -0.22254,0 -0.22254,-0.22254z" fill="#303537" stroke-width="0.5"/></g><path d="M339.82199,166.89251c0,0.99605 -6.92442,0.25764 -16.03114,0.25764c-9.10672,0 -16.60369,-1.60901 -16.60369,-2.60506c0,-0.39774 -2.02903,-2.65481 -0.03491,-2.953c2.99962,-0.44855 11.85545,-1.42694 17.32564,-1.42694c6.45987,0 11.81947,1.79605 14.18959,3.82797c0.97112,0.83255 1.15451,2.60989 1.15451,2.89939z" fill="#c5d8e2" stroke="none" stroke-width="0"/><path d="M308.72294,167.11223c1.69752,4.50185 -4.3459,6.52142 -5.88492,2.31297c-1.02594,-2.80543 0.17852,-5.4545 2.06283,-5.52148c0.15751,-0.02946 0.32035,-0.0449 0.48699,-0.0449c1.21292,0 2.2241,0.81812 2.45195,1.90353c0.2613,0.34596 0.52192,0.7453 0.7792,1.20221z" fill="#a1b9c7" stroke="none" stroke-width="0.5"/><path d="M296.63911,236.72631v-111.84076h47.29829v111.84077z" fill="none" stroke-opacity="0.01176" stroke="#ffffff" stroke-width="0.5"/></g></g></svg>