<svg version="1.1" xmlns="http://www.w3.org/2000/svg" xmlns:xlink="http://www.w3.org/1999/xlink" width="57.64203" height="57.82037" viewBox="0,0,57.64203,57.82037"><g transform="translate(-290.27076,-151.05915)"><g data-paper-data="{&quot;isPaintingLayer&quot;:true}" fill-rule="nonzero" stroke="none" stroke-width="0.5" stroke-linecap="butt" stroke-linejoin="miter" stroke-miterlimit="10" stroke-dasharray="" stroke-dashoffset="0" style="mix-blend-mode: normal"><path d="M337.76239,159.34384c-0.05169,-0.20028 -0.0792,-0.41027 -0.0792,-0.6267c0,-0.41968 0.10342,-0.81521 0.28616,-1.1625c-0.16441,-0.03181 -0.32308,-0.07973 -0.47429,-0.14206c-0.9085,-0.37445 -1.54798,-1.26872 -1.54798,-2.31235c0,-1.38071 1.11929,-2.5 2.5,-2.5c0.20144,0 0.39732,0.02383 0.58497,0.06882c1.73674,-0.17586 3.59912,1.12662 5.23373,2.83357c3.82867,3.99811 3.39651,10.49471 3.3364,15.512c-0.03371,2.81352 -1.7616,5.10607 -4.60837,3.47934c-0.63806,-0.36461 -0.91924,-1.93631 -1.08236,-3.32048c-0.94309,-2.01683 -1.50414,-5.04537 -1.92599,-7.03226c-0.07457,-0.18258 -0.14793,-0.36059 -0.21934,-0.53302c-0.29849,-0.72066 -1.21981,-2.32608 -1.64779,-3.42557c-0.23615,-0.38719 -0.39298,-0.703 -0.35594,-0.8388z" fill="#131313"/><path d="M340.4559,160.68891c-0.70711,0.70711 -1.41422,0 -1.41422,0l-0.15286,-0.156c-1.37953,-1.58498 -2.59453,-3.17122 -2.82064,-5.29306c0,0 -0.09053,-0.99589 0.90536,-1.08643c0.33112,-0.0301 0.56214,0.0599 0.72305,0.19346c2.47207,-2.11134 4.27206,-1.93303 6.94746,0.73966l0.53694,0.53694c0,0 0.70711,0.70711 0,1.41421c-0.70711,0.70711 -1.41422,0 -1.41422,0l-0.53694,-0.53694c-2.20179,-2.20416 -2.72718,-2.16983 -4.83166,-0.08908c0.4441,1.03829 1.24595,1.95246 1.99581,2.80423l0.06192,0.05879c0,0 0.70711,0.70711 0,1.41422z" fill="#303030"/><path d="M341.66854,161.76795c-0.44721,0.22361 -0.67082,-0.22361 -0.67082,-0.22361l-0.09737,-0.19473c-0.10046,-0.20091 -0.23534,-0.41862 -0.38123,-0.63463c-0.30246,0.30242 -0.65285,0.0221 -0.65285,0.0221c-0.32486,-0.25989 -1.18269,-1.03882 -1.38601,-1.69065c-0.07848,-0.0332 -0.14672,-0.08587 -0.19867,-0.15196l-0.42667,-0.53333l0.13833,-0.11066c-0.74126,-0.80345 -1.59052,-1.97429 -1.15403,-2.58761c0.99778,-1.40199 1.88392,0.78448 2.17129,0.3818c0.38212,-0.53547 0.3544,-1.64655 0.46141,-2.27501l0.00374,-0.0066l-0.00237,-0.00047l0.10557,-0.52786c0.04197,-0.2337 0.24633,-0.41102 0.4921,-0.41102c0.1996,0 0.37189,0.11696 0.45206,0.28608l0.31732,0.63464l-0.24367,0.12184c0.68281,1.55576 1.24532,3.74823 1.66679,1.62454l0.10506,-0.63037c0.0358,-0.24101 0.24358,-0.42591 0.49454,-0.42591c0.16566,0 0.31251,0.08057 0.4035,0.20466l0.31867,0.42489l-0.20546,0.1541c0.68487,1.24368 0.42826,2.96555 0.7253,4.45077l0.00971,0.20545c0,0 0,0.5 -0.5,0.5c-0.5,0 -0.5,-0.5 -0.5,-0.5l0.00971,-0.00934c-0.09085,-0.45423 -0.36012,-1.69905 -0.44874,-2.7591c-0.79044,0.96036 -1.96385,-0.15331 -2.46501,-1.42278c-0.09571,0.42722 -0.2419,0.81877 -0.48754,1.06432c0.00819,0.24798 -0.21134,0.41263 -0.21134,0.41263c-0.22091,0.13057 -0.31526,0.43535 -0.33695,0.69332v0.27336c0.05482,-0.01173 0.11316,-0.02213 0.17516,-0.0311c1.15817,-0.16759 2.07087,2.0597 2.44462,2.80651l0.09745,0.1949c0,0 0.22361,0.44721 -0.22361,0.67082zM338.2517,156.67188c0.05696,0.11991 0.10796,0.25157 0.15109,0.38561c0.04287,-0.09408 0.09117,-0.18523 0.14525,-0.27184c-0.1014,-0.0342 -0.20138,-0.07283 -0.29634,-0.11377z" fill="#000000"/><path d="M293.31913,151.84708c2.94293,-1.23968 9.67555,-1.38487 10.97002,2.31993c0.69267,1.98243 -2.01037,4.0853 -0.73266,5.86849c1.52474,2.12795 4.08569,3.22742 3.32554,6.44388c-0.20921,0.88524 -0.40807,1.92885 -1.128,2.48484c-0.71157,0.54953 -1.77391,0.29417 -2.66086,0.44126c-4.23437,-1.79749 -4.3097,5.16815 -8.54287,4.52129c-1.32873,-0.20304 -3.94323,-3.99539 -4.19464,-5.25337c-0.48767,-2.44021 1.24949,-3.56112 2.04896,-5.41075c1.09538,-2.53426 -0.58588,-7.19599 -0.80714,-9.79752c0,0 -0.12457,-1.49481 1.37025,-1.61938c0.12673,-0.01056 0.2436,-0.00948 0.35139,0.00134z" fill="#131313"/><path d="M305.05278,177.51172l1.39244,0.30448c3.18572,1.47857 10.24175,7.17199 3.65621,9.92977c-2.41503,1.01132 -5.8848,-0.91711 -8.29201,0.32324c-0.17374,0.08952 3.38742,4.02455 3.38979,4.0423c0.29405,2.20792 -3.09189,3.83898 -4.5125,4.66893c-2.85676,0.49599 -6.64655,0.39503 -7.98957,-2.95643c-0.49901,-1.24526 0.39328,-2.66468 0.78938,-3.9464c0.33062,-1.06984 -0.03237,-3.10437 -0.18225,-4.20911c-0.22132,-1.63132 -1.66538,-4.24855 -1.04312,-5.84273c1.52087,-3.89632 8.52578,-3.5369 11.67345,-3.05976c0,0 0.77508,0.11924 1.11818,0.74571z" fill="#131313"/><path d="M317.49571,175.08114c-0.26714,0.11212 -0.49178,0.13254 -0.49178,0.13254c-0.83218,-0.02866 -1.80845,0.38293 -2.49654,-0.08598c-1.57812,-1.07545 -1.62946,-4.80452 -1.68572,-6.44921c-0.10794,-3.15573 1.44935,-4.5088 2.50873,-7.25332c0.84108,-2.17897 1.45517,-4.89769 3.18005,-6.61173c3.51433,-3.49223 8.81191,-3.2911 11.20196,0.91343c0.69622,2.20791 1.16519,4.15993 1.51603,6.43779c0.14409,0.93554 -0.19274,2.00977 0.2882,2.82506c0.80448,1.36377 2.30681,2.676 2.12401,4.24877c-0.8965,7.71345 -10.90966,5.92474 -16.14494,5.84264z" fill="#131313"/><path d="M337.22903,184.3535c0.23212,0.57606 0.96841,0.87167 1.15078,1.46536c0.77755,2.53125 -1.10706,4.79243 -0.65012,7.28899c0.51866,2.83376 1.1703,5.49443 -1.77938,7.47988c-2.54122,1.71051 -6.95058,0.78675 -9.75529,0.50116c-2.68978,-0.9006 -5.05192,-2.20631 -3.75304,-5.63957c0.58355,-1.54245 1.69873,-0.95902 1.84215,-2.49618c0.06372,-0.68295 -1.00149,-1.19959 -1.28212,-1.49658c-0.60706,-0.64245 -2.39705,-3.00407 -2.61622,-3.71585c-0.36956,-1.2002 -0.01544,-3.73769 0.88193,-4.68772c1.08021,-1.14359 3.21347,-1.56765 4.65581,-1.99678c2.44232,-0.72664 4.9228,-1.613 7.45758,-1.92669c1.16884,0.72943 2.41693,1.31241 3.69596,1.69618c-0.11094,1.25019 -0.21498,2.61716 0.15196,3.5278z" fill="#131313"/><path d="M309.59185,194.25912c0.39139,-0.68952 0.47787,-1.66737 1.15545,-2.07909c0.9266,-0.56303 2.12398,-0.45865 3.2026,-0.569c0.9461,-0.09679 3.90076,-0.0586 4.73671,0.52958c2.99693,2.10869 2.09689,8.30483 2.08742,11.44053c-0.00391,1.29514 0.14436,3.20091 -0.81032,4.25924c-0.58612,0.64976 -1.60717,0.69275 -2.41075,1.03913c-2.198,-0.02952 -3.66241,-0.62417 -5.04024,-1.74954c-0.55697,-1.32294 -1.58238,-2.45137 -2.04845,-3.84958c-0.01836,-0.05507 -0.03729,-0.10984 -0.0568,-0.16432c-1.01414,-1.21199 -1.82169,-2.4955 -2.20435,-3.31141c-0.20597,-0.19466 -0.42123,-0.38108 -0.64484,-0.55907c0.57171,-1.69084 1.12722,-3.38969 2.03358,-4.98648z" fill="#131313"/><path d="M324.21017,157.39608c-1.31982,1.53979 -3.08979,2.70087 -4.29029,4.36303c-1.01693,1.408 -1.30075,3.18807 -2.5685,4.63875c-0.7064,0.80833 -1.24894,2.9229 -2.59651,2.75446c-1.34079,-0.1676 -1.6278,-1.3184 -1.34164,-2.46305c0.31568,-1.26271 1.76524,-2.26877 2.3181,-3.4673c1.1863,-2.57173 1.40581,-5.7917 3.32037,-7.92975c0.43296,-0.4835 1.8584,-1.22378 3.33892,-1.65817c0.16148,-0.07688 0.33887,-0.12575 0.52588,-0.14031c1.7745,-0.42454 3.46889,-0.314 3.46889,1.3006c0,1.25215 -1.04791,1.16579 -1.51084,1.93734z" fill="#303030"/><path d="M325.99578,186.91991c-0.59625,0.69727 1.19454,1.78086 0.83189,2.62358c-0.59852,1.39085 -2.35872,1.47251 -3.29746,0.37731c-3.51498,-4.10081 3.27418,-10.48287 7.39455,-9.7416c1.63749,0.29459 1.56666,1.38335 0.88677,2.57315c-0.13661,0.68772 -0.74338,1.20612 -1.47122,1.20612c-0.12313,0 -0.24279,-0.01484 -0.3573,-0.04282c-1.49732,-0.01417 -3.08335,1.94722 -3.98724,3.00426z" fill="#303030"/><path d="M300.07197,177.20431c1.11075,-0.27769 12.01636,-0.17937 6.78195,3.97701c-2.85628,2.26803 -4.57144,0.00478 -6.34346,-0.67736c-0.11742,0.02952 -0.24034,0.0452 -0.36692,0.0452c-0.27949,0 -0.54113,-0.07644 -0.76514,-0.20955c-0.03062,0.00412 -0.06133,0.00902 -0.09213,0.01473c-1.67727,0.31126 -0.44921,2.09869 -1.78381,2.86132c-0.43002,0.24573 -0.78619,0.29904 -1.0785,0.21953c-0.04938,0.30484 -0.13552,0.57004 -0.25913,0.76668c0.00858,0.06596 0.01652,0.13421 0.02381,0.20478c0.14353,1.38909 -0.0609,2.91444 0.687,4.16095l0.09959,0.05691c0.03549,0.14196 0.06664,0.27728 0.09365,0.40614c0.1218,0.21686 0.19126,0.46706 0.19126,0.73349c0,0.13501 -0.01784,0.26585 -0.05128,0.3903c0.00527,0.92615 -0.38732,1.18489 -0.92876,1.01713c-0.162,0.05987 -0.33716,0.09257 -0.51996,0.09257c-0.82843,0 -1.5,-0.67157 -1.5,-1.5c0,-0.12048 0.01421,-0.23765 0.04103,-0.34991c-0.46511,-0.66208 -0.84858,-1.43328 -1.01512,-2.18272c-0.16192,-0.72866 -0.03249,-1.63034 0.24586,-2.44473c-0.27223,-0.27155 -0.44067,-0.6471 -0.44067,-1.06199c0,-0.13136 0.01689,-0.25878 0.0486,-0.3802c-0.69708,-1.70919 -0.57239,-3.84725 1.4514,-3.84725c0.24749,0 0.47133,0.07273 0.67107,0.20077c-0.25871,-0.26953 -0.41771,-0.63549 -0.41771,-1.03858c0,-0.43746 0.18727,-0.83118 0.48601,-1.10537c0.84565,-1.17235 2.29103,-0.84849 3.16607,-0.10109c0.51584,-0.13073 1.027,-0.19613 1.47663,-0.19613z" fill="#303030"/><path d="M308.71826,197.54874c0.81741,-3.26963 3.50608,-4.86958 6.37997,-4.80379c1.12794,0.02582 3.29965,-0.19896 3.29965,1.59741c0,2.97724 -3.49891,0.61426 -4.5441,1.16059c-3.69612,1.932 -0.39679,4.58679 -0.6661,5.57425c0.03102,0.12016 0.04752,0.24616 0.04752,0.37602c0,0.82843 -0.67157,1.5 -1.5,1.5c-0.6057,0 -1.12755,-0.359 -1.36437,-0.87583c-1.28865,-0.69725 -2.1191,-2.66254 -1.65258,-4.52864z" fill="#303030"/><path d="M294.16274,161.61296c0.15911,-0.71597 1.49978,-1.76656 0.81996,-2.04183c-5.61522,-2.27363 0.07572,-9.91272 5.3264,-8.03747c1.5111,0.53968 3.31362,3.7911 0.63337,3.83921c-0.69959,0.01256 -3.02475,-0.91519 -3.55084,-0.53967c-0.31716,0.22638 0.92141,2.55639 0.94002,2.8834c0.12232,2.14942 -0.87012,5.59917 -1.60333,7.66947c-0.1888,0.5331 -1.14051,2.17673 -2.05067,3.20745c-0.17897,0.37237 -0.50717,0.65944 -0.90706,0.7837c-0.1656,0.08243 -0.31669,0.11032 -0.44566,0.06731c-0.53575,0 -1.00589,-0.28087 -1.27122,-0.70339c-0.1404,-0.15767 -0.22352,-0.33867 -0.20768,-0.5445c-0.01387,-0.08197 -0.02109,-0.16619 -0.02109,-0.25211c0,-0.22927 0.05144,-0.44653 0.1434,-0.64086c0.51386,-1.89431 1.7494,-3.68815 2.19441,-5.69072z" fill="#303030"/><path d="M301.43865,157.38454c-0.44721,0.22361 -0.67082,-0.22361 -0.67082,-0.22361l-0.15447,-0.32262c-0.10214,-0.14313 -0.26704,-0.33656 -0.43098,-0.55126l-0.05732,0.1433c-0.0709,0.1899 -0.25394,0.32512 -0.46856,0.32512c-0.06605,0 -0.1291,-0.01281 -0.18682,-0.03607l-0.00294,0.01468c-0.04197,0.23369 -0.24633,0.41102 -0.49211,0.41102c-0.17014,0 -0.32043,-0.08498 -0.41074,-0.2148l-0.46517,-0.65124c-0.20407,-0.20454 -0.37681,-0.39287 -0.521,-0.59137c0.27555,1.40764 0.70777,2.68999 0.701,4.11825l0.11939,-0.01706l0.09619,0.67335c0.00411,0.0258 0.00624,0.05227 0.00624,0.07923c0,0.27614 -0.22386,0.5 -0.5,0.5c-0.04825,0 -0.09491,-0.00684 -0.13905,-0.01959c0.0997,0.39686 0.1713,0.80324 0.19972,1.22912l0.18117,-0.01132l0.06209,0.99344c0.00084,0.01182 0.00126,0.02376 0.00126,0.0358c0,0.27614 -0.22386,0.5 -0.5,0.5c-0.16566,0 -0.31251,-0.08057 -0.40349,-0.20466l-0.58096,-0.77462l0.0089,-0.00668l-0.03163,-0.02631c-0.01438,-0.02815 -0.02862,-0.05639 -0.04269,-0.08472c0.1559,1.28761 0.28245,2.60567 -0.16194,3.74132l0.19789,0.09895l-0.24575,0.4915c1.6957,-1.06411 4.02862,-1.99653 5.00664,-2.2151c1.03435,-0.23116 -1.53793,-1.69137 -1.59672,-2.7496c-0.15242,-0.23479 -0.24094,-0.51489 -0.24094,-0.81566c0,-0.82843 0.67157,-1.5 1.5,-1.5c0.67575,0 1.24713,0.44684 1.43479,1.06116c1.95931,1.16337 3.5335,4.67072 3.13179,6.27755c-0.47436,1.89742 -3.78811,0.64316 -5.01675,0.72655c-0.7839,0.05321 -4.65441,4.84235 -5.83102,3.03546c-0.0505,0.02458 -0.11092,0.04282 -0.18319,0.05185c-0.49614,0.06202 -0.55816,-0.43412 -0.55816,-0.43412c-0.167,-1.33627 -1.2653,-4.67355 -0.55025,-5.90308c0.82917,-1.42578 1.52465,-0.7389 2.02722,0.1931c-0.04766,-1.06581 0.04422,-2.32806 -0.01892,-2.89638l0.00758,-0.02765h-0.00835v-0.58445c0,-0.27614 0.22386,-0.5 0.5,-0.5c0.12697,0 0.24289,0.04733 0.33108,0.12531l0.19443,0.17013c-0.50095,-1.23843 -0.88169,-2.68733 -1.15433,-3.76261l-0.04676,0.01336l-0.19165,-0.67076c-0.01457,-0.04691 -0.02241,-0.09677 -0.02241,-0.14846c0,-0.27614 0.22386,-0.5 0.5,-0.5c0.21462,0 0.39766,0.13522 0.46856,0.32512l0.19049,0.47623l-0.01513,0.00605l0.02664,0.02581c0.03015,0.12195 0.06209,0.24205 0.09552,0.36051c0.1173,0.08918 0.22855,0.20149 0.33418,0.32961c-0.21817,-1.07888 -0.37178,-2.18561 -0.4304,-2.64821l0.00887,-0.03107h-0.00984v-0.58445l0.17674,0l0.13192,-0.46194c0.14192,0.09385 0.26969,0.18219 0.38654,0.26675l0.15836,-0.15836l0.70711,0.70711l-0.09161,0.09161c0.21816,0.20723 0.42,0.42152 0.66794,0.67701c-0.05332,-0.21552 -0.08197,-0.4404 -0.08241,-0.71119l-0.02335,-0.05837l-0.27106,-0.04518l0.09606,-0.57635c0.0358,-0.24101 0.24358,-0.42591 0.49455,-0.42591c0.21462,0 0.39766,0.13522 0.46856,0.32512l0.07278,0.18194c0.04458,-0.01303 0.09173,-0.02002 0.14052,-0.02002c0.09704,0 0.18762,0.02764 0.26429,0.07548l0.48,0.288l-0.1007,0.16784c0.56708,0.38882 0.74337,0.91465 1.32182,1.72365l0.23516,0.45665c0,0 0.22361,0.44721 -0.22361,0.67082zM295.58381,167.04792l-0.18883,-0.47207c-1.31052,-3.06956 -0.90388,-0.39224 -0.52504,1.82803c0.24669,-0.33889 0.64337,-0.68969 1.12668,-1.03391c-0.19015,-0.02109 -0.34814,-0.14882 -0.41282,-0.32205z" fill="#000000"/><path d="M326.29565,170.33181c2.15146,-1.01519 -0.77094,-4.84154 0.81025,-6.84252c3.53693,-4.47593 6.66881,5.87212 4.94542,8.58031c-1.16937,1.83758 -6.21599,1.18152 -7.83734,1.51874c-1.26995,0.26413 -5.24249,1.53541 -5.93441,0.32455c-0.44211,-0.26093 -0.7387,-0.74219 -0.7387,-1.29272c0,-0.82843 0.67157,-1.5 1.5,-1.5c0.10316,0 0.20388,0.01041 0.30118,0.03025c2.03857,-0.68539 4.8865,0.15678 6.95359,-0.81861z" fill="#000000"/><path d="M346.41278,163.32745c0.64544,0.36882 0.94595,1.36296 1.00744,2.61135c-0.26625,0.2415 -0.61966,0.38865 -1.00744,0.38865c-0.82843,0 -1.5,-0.67157 -1.5,-1.5c0,-0.82843 0.67157,-1.5 1.5,-1.5c0.82843,0 1.5,0.67157 1.5,1.5c0,0.44065 -0.19001,0.83692 -0.49256,1.11135c0.16255,3.29985 -1.34488,8.37618 -2.56599,8.37618c-2.78537,0 -0.20833,-9.97789 0.26582,-10.24883z" fill="#000000"/><path d="M335.99003,190.40713c0.71748,0.58028 0.97919,1.56495 1.06831,2.55296c0.0367,0.40689 0.04413,0.81434 0.04206,1.19435c-0.03638,6.68616 -2.9607,6.53897 -8.55031,5.38945c-1.14694,-0.23587 -3.57126,0.32148 -4.23089,-0.66795c-2.63814,-3.95721 6.71617,-1.60461 7.31326,-1.70281c0.34614,-0.05692 2.46461,-0.09549 2.46793,-0.32165c0.00259,-0.17638 -0.25974,-5.84263 0.90442,-6.07546z" fill="#000000"/><path d="M317.86093,206.5938c-0.85015,0.4975 -6.099,2.69898 -4.9187,-0.84189c0.43805,-1.31414 2.44443,-1.10029 3.35934,-1.73253c0.42986,-0.29705 0.33888,-2.56534 0.89938,-3.23719c0.46099,-0.55258 2.48339,-1.41361 2.90095,-0.28375c0.32792,0.27516 0.53639,0.68803 0.53639,1.14959c0,0.49192 -0.2368,0.92854 -0.60263,1.20208c-0.529,1.38602 -0.78401,2.92986 -2.17473,3.74369z" fill="#000000"/><path d="M298.84547,193.23199c0.55926,-0.10206 1.02143,-2.55514 2.36958,-2.63004c2.6549,-0.14749 0.75375,4.36607 -0.0775,5.07857c-1.10927,0.9508 -6.26196,1.07912 -5.75839,-0.76733c-0.03102,-0.12016 -0.04752,-0.24616 -0.04752,-0.37602c0,-0.82843 0.67157,-1.5 1.5,-1.5c0.38484,0 0.73582,0.14492 1.00136,0.38317c0.34099,-0.07001 0.68291,-0.12821 1.01246,-0.18835z" fill="#000000"/><path d="M311.24544,185.09662c0,1.20428 -4.81025,4.2273 -5.82384,2.45352c-0.44211,-0.26093 -0.7387,-0.74219 -0.7387,-1.29272c0,-0.82843 0.67157,-1.5 1.5,-1.5c0.07832,0 0.15523,0.006 0.23031,0.01757c1.97895,-1.15821 4.83223,-1.85231 4.83223,0.32163z" fill="#000000"/><path d="M324.10614,157.2166c0.27614,0 0.5,0.22386 0.5,0.5c0,0.17113 -0.08597,0.32218 -0.21708,0.41231c0.0038,0.00155 0.00761,0.00315 0.01145,0.00479c0.45957,0.19696 0.26261,0.65653 0.26261,0.65653l-0.28769,0.67127c-0.07389,0.18384 -0.25384,0.31363 -0.46411,0.31363c-0.22492,0 -0.41515,-0.14851 -0.47799,-0.35282l-0.28858,-0.86574c-0.02509,-0.07547 -0.05763,-0.1556 -0.0943,-0.23906c-0.02019,0.07067 -0.04434,0.1416 -0.07316,0.21386l0.13195,0.05278l-0.19049,0.47623c-0.0709,0.1899 -0.25394,0.32512 -0.46856,0.32512c-0.1996,0 -0.37189,-0.11696 -0.45206,-0.28608l-0.10033,-0.20066c-0.01638,0.10989 -0.03587,0.21998 -0.05904,0.33078l0.13232,0.0189l-0.09637,0.67459c-0.03117,0.24619 -0.24136,0.43657 -0.49601,0.43657c-0.18532,0 -0.3471,-0.10082 -0.43346,-0.25061l-0.28751,-0.47919l0.02034,-0.0122l-0.05028,-0.04603c-0.00308,-0.01055 -0.00632,-0.02128 -0.00971,-0.03217c-0.01487,1.28976 -0.10023,2.53354 -0.459,3.77877l0.12387,0.02064l-0.16305,0.97829c-0.0358,0.24101 -0.24358,0.42591 -0.49455,0.42591c-0.14484,0 -0.2753,-0.06159 -0.36661,-0.16c-0.07208,1.06862 -0.20402,2.17875 -0.44798,3.11993l0.14066,0.02009l-0.09637,0.67459c-0.03117,0.24619 -0.24136,0.43657 -0.49601,0.43657c-0.21462,0 -0.39766,-0.13522 -0.46856,-0.32512l-0.19049,-0.47623l0.0047,-0.00188l-0.00952,-0.01066c-0.21502,-0.63405 -0.36328,-1.39753 -0.55124,-2.13076c-0.25321,1.26938 -0.75787,2.42713 -1.96329,1.62929c0,0 -0.35355,-0.35355 0,-0.70711c0.35355,-0.35355 0.70711,0 0.70711,0c-0.03446,0.34023 0.43061,-2.15625 0.51403,-2.82555l-0.00224,-0.07689c-0.01733,-0.10742 -0.00756,-0.24196 0.09395,-0.36251c0.05386,-0.07928 0.13808,-0.15055 0.26976,-0.17959c0.12786,-0.04285 0.23674,-0.02507 0.32372,0.01521c0.14709,0.05047 0.22461,0.15858 0.26545,0.25851c0.2187,0.38568 0.38567,0.81992 0.52718,1.275c0.1742,-1.16736 0.47351,-2.35618 0.46726,-2.94095l0.01095,-0.0266l-0.00866,-0.00096l0.09674,-0.87068c0.02472,-0.25304 0.23807,-0.45078 0.49761,-0.45078c0.16248,0 0.30686,0.0775 0.39818,0.19755c0.07986,-1.30093 0.27072,-2.67623 0.27072,-3.52241v-0.55854c0,-0.27614 0.22386,-0.5 0.5,-0.5c0.21462,0 0.39766,0.13522 0.46856,0.32512l0.19049,0.47623l-0.08922,0.03569c0.08893,0.13623 0.16927,0.27369 0.24291,0.41393c0.024,-0.28473 0.05179,-0.55412 0.05457,-0.77244l-0.04902,-0.19608l-0.04518,0.00753l-0.09586,-0.57516c-0.00548,-0.02966 -0.00835,-0.06024 -0.00835,-0.09149c0,-0.27614 0.22386,-0.5 0.5,-0.5c0.23795,0 0.43708,0.16622 0.48761,0.38888l0.19228,0.76912l-0.0218,0.00545c0.07928,0.07573 0.1435,0.17178 0.19833,0.28067c0.00448,-0.06019 0.0073,-0.11568 0.0073,-0.16485v-0.58445c0,-0.27614 0.22386,-0.5 0.5,-0.5c0.15962,0 0.30178,0.0748 0.39332,0.19126l0.38675,0.48344l-0.14079,0.11263c0.23067,0.29906 0.37158,0.60644 0.50598,0.98101c0.08611,-0.07026 0.19607,-0.11239 0.31587,-0.11239z" fill="#000000"/><path d="M301.4654,179.58761c0.03295,0.04238 0.06543,0.08423 0.09744,0.12559c0.3816,0.26582 0.7536,0.56392 1.10721,0.87991c-0.00449,-0.02694 -0.00683,-0.05461 -0.00683,-0.08283c0,-0.27614 0.22386,-0.5 0.5,-0.5c0.13807,0 0.26307,0.05596 0.35355,0.14645l0,0c0,0 0,0 0,0l0,0c0.09048,0.09048 0.14645,0.21548 0.14645,0.35355c0,0.00688 -0.00014,0.01372 -0.00041,0.02053l0.3917,0.17225c0.00674,0.01295 0.01346,0.02578 0.02014,0.03848c0.53949,0.09371 1.27951,0.56041 1.85687,0.97064c-0.04539,-0.08224 -0.06399,-0.15852 -0.06511,-0.22767c-0.17134,-0.13535 -0.30904,-0.25899 -0.44183,-0.41073l-0.08227,0.08227l-0.58445,-0.58445l0.18771,-0.18771c-0.07636,-0.12861 -0.15916,-0.27417 -0.25158,-0.44109l0.51827,0.02313l0.08485,-0.21212l0.48704,0.19482l-0.01683,0.04207l0.10638,0.00475c0.18223,0.17628 0.55766,0.48477 0.9461,0.8414l0.03585,-0.01154c0.23582,0.10728 0.41147,0.30221 0.54497,0.53724l0.20359,-0.1018l0.28773,0.57546c0.03658,0.06948 0.05728,0.14862 0.05728,0.2326c0,0.02523 -0.00187,0.05003 -0.00548,0.07426c0.07591,0.15369 0.11502,0.2981 0.1027,0.42641c-0.14291,1.48833 -1.81668,0.68317 -3.2371,-0.40414c0.02424,0.10497 0.03554,0.21482 0.03229,0.33806l0.18029,0.02576l-0.09637,0.67459c-0.03117,0.24619 -0.24136,0.43657 -0.49601,0.43657c-0.13807,0 -0.26307,-0.05596 -0.35355,-0.14645l-0.58445,-0.58445l0.00468,-0.00468l-0.02369,-0.01541c-0.07134,-0.08961 -0.16288,-0.18513 -0.26898,-0.28558l0.0524,0.20961c0.01151,0.04209 0.01765,0.0864 0.01765,0.13215c0,0.27614 -0.22386,0.5 -0.5,0.5c-0.11961,0 -0.22941,-0.042 -0.31546,-0.11205l-0.48393,-0.38715l0.00569,-0.00711l-0.0268,-0.01076c-0.10157,-0.1013 -0.20202,-0.19865 -0.30096,-0.29289c-0.04293,0.33429 -0.20587,0.61274 -0.55583,0.77891c-0.56553,0.26853 -1.33407,-0.25482 -2.06149,-1.01168l0.30837,0.84802c0.02199,0.05634 0.03406,0.11764 0.03406,0.18176c0,0.20851 -0.12763,0.38721 -0.30903,0.46223c0.17866,0.65369 0.10658,1.25426 -0.52453,1.57217c-0.32013,0.16126 -1.25788,-0.63724 -1.543,-0.8611c-0.29288,-0.22995 -0.54941,-0.43552 -0.77115,-0.63218c-0.04343,0.255 -0.15297,0.38766 -0.31059,0.42149c0.65953,1.19495 1.23739,2.41857 1.67571,3.70371l0.06512,-0.03618l0.48123,0.86622c0.04282,0.07372 0.06733,0.15938 0.06733,0.25076c0,0.27614 -0.22386,0.5 -0.5,0.5c-0.1099,0 -0.21152,-0.03546 -0.29405,-0.09556c0.26591,1.63241 0.02978,2.59965 -2.16997,1.50391c0,0 -0.44721,-0.22361 -0.22361,-0.67082c0.22361,-0.44721 0.67082,-0.22361 0.67082,-0.22361c1.66642,0.83611 0.94809,0.49902 0.57936,-1.30405l-0.35605,-0.62309c-0.04461,-0.07482 -0.07023,-0.16226 -0.07023,-0.25569c0,-0.21477 0.13542,-0.39792 0.32553,-0.46872c-0.72882,-1.21773 -1.279,-2.96266 -1.82237,-3.8689l-0.28584,-0.57109c-0.14888,-0.166 -0.29825,-0.34246 -0.44556,-0.52607c0,0 -0.31235,-0.39043 0.07809,-0.70278c0.39043,-0.31235 0.70278,0.07809 0.70278,0.07809c0.05914,0.07413 0.11562,0.14797 0.16947,0.22106c0.18463,0.07268 0.27695,0.25731 0.27695,0.25731l0.38073,0.76227c0.02054,0.03421 0.04103,0.06843 0.06146,0.10267c-0.0688,-0.20989 -0.16168,-0.50942 -0.27743,-0.91609l-0.02555,0.00639l-0.1921,-0.76839c-0.01151,-0.04209 -0.01765,-0.0864 -0.01765,-0.13215c0,-0.27614 0.22386,-0.5 0.5,-0.5c0.23236,0 0.42769,0.15849 0.4838,0.37327l0.19178,0.67123l-0.00033,0.00009l0.00056,0.00072c0.02239,0.07944 0.04343,0.1566 0.06316,0.23152c1.32863,0.94639 2.88444,3.60418 1.48368,0.79275c-0.19128,-0.38392 -0.41613,-0.75512 -0.685,-1.08933l-0.31046,-0.51524c0,0 -0.25725,-0.42875 0.1715,-0.68599c0.42875,-0.25725 0.68599,0.1715 0.68599,0.1715l0.01869,0.0313c0.04711,0.07796 0.09674,0.15316 0.14851,0.22609c-0.07309,-0.2086 -0.15021,-0.41866 -0.24402,-0.62332l-0.43752,-0.51044c-0.07612,-0.08773 -0.12219,-0.20224 -0.12219,-0.32751c0,-0.27614 0.22386,-0.5 0.5,-0.5c0.13955,0 0.26575,0.05717 0.35645,0.14937l0.39579,0.40185l-0.02664,0.02624l0.07559,0.03166c0.02478,0.04782 0.049,0.09518 0.07269,0.14214l0.09018,0.10521l-0.02648,0.0227c0.02182,0.04442 0.04316,0.08848 0.06403,0.13223c1.52729,0.65994 3.11942,3.26873 2.10864,1.10671c-0.30693,-0.35053 -0.5535,-0.72054 -0.71123,-1.17072l-0.25408,0.06352l-0.1921,-0.76839c-0.01151,-0.04209 -0.01765,-0.0864 -0.01765,-0.13215c0,-0.27614 0.22386,-0.5 0.5,-0.5c0.13687,0 0.2609,0.055 0.35119,0.1441c0.0876,-0.14475 0.24654,-0.24151 0.42808,-0.24151c0.13807,0 0.26307,0.05596 0.35355,0.14645l0.48704,0.48704l-0.0071,0.0071l0.17757,0.18286l-0.02155,0.02093zM303.3049,181.19849l0.14549,-0.23009c-0.00975,-0.00999 -0.01941,-0.01994 -0.02898,-0.02984c-0.07536,0.04553 -0.16371,0.07172 -0.25818,0.07172c-0.01674,0 -0.03329,-0.00082 -0.04961,-0.00243c0.0646,0.06315 0.12838,0.12672 0.19129,0.19063zM298.92105,182.28221c0.00445,0.0218 0.00883,0.04365 0.01313,0.06557l0.0359,-0.01306c-0.01637,-0.0174 -0.03272,-0.03491 -0.04904,-0.05252zM306.31047,181.98917c0.54219,0.40606 0.76627,0.60962 0.1475,-0.00979c-0.04503,0.00954 -0.09515,0.01448 -0.1475,0.00979z" fill="#000000"/><path d="M330.47443,181.98413c0.47434,-0.15811 0.63246,0.31623 0.63246,0.31623l0.08264,0.25338c0.28089,0.65777 0.4084,1.04981 0.42983,1.51039l0.09379,-0.01172l0.09643,0.77145c0.00319,0.02282 0.00484,0.04614 0.00484,0.06984c0,0.18848 -0.10429,0.35261 -0.25832,0.43782c0.06998,0.43225 0.11287,0.80869 0.09544,1.21814h0.16288v0.77927c0,0.27614 -0.22386,0.5 -0.5,0.5c-0.1996,0 -0.37189,-0.11696 -0.45206,-0.28608l-0.04289,-0.08579c-0.09172,0.1083 -0.22869,0.17705 -0.38173,0.17705c-0.13176,0 -0.25162,-0.05097 -0.34093,-0.13426c-0.08931,0.08329 -0.20917,0.13426 -0.34093,0.13426c-0.18532,0 -0.3471,-0.10082 -0.43346,-0.25061l-0.28078,-0.46797c-0.20215,-0.28833 -0.48357,-0.59772 -0.77092,-0.92125l0.03312,0.29812c0.00255,0.02045 0.00386,0.04129 0.00386,0.06244c0,0.27614 -0.22386,0.5 -0.5,0.5c-0.10909,0 -0.21002,-0.03494 -0.29222,-0.09423c-0.05142,0.22145 -0.24996,0.38646 -0.48705,0.38646c-0.15962,0 -0.30178,-0.0748 -0.39332,-0.19126l-0.35066,-0.43833c-0.03324,-0.02252 -0.0663,-0.04568 -0.09902,-0.06951c0.39115,0.83622 1.21165,2.62328 0.37969,3.10429c0.18029,0.23853 0.35107,0.48169 0.50242,0.73392c0,0 0.25725,0.42875 -0.1715,0.68599c-0.42875,0.25725 -0.68599,-0.1715 -0.68599,-0.1715c-0.74601,-1.24346 -1.88462,-2.23698 -2.45841,-3.54979l-0.28301,-0.56603c-0.03658,-0.06948 -0.05728,-0.14862 -0.05728,-0.2326c0,-0.27614 0.22386,-0.5 0.5,-0.5c0.17631,0 0.3313,0.09125 0.42033,0.2291l0.38533,0.578l-0.06982,0.04655l0.0036,0.0072l-0.03477,0.01738c0.00021,0.00021 0.00042,0.00042 0.00062,0.00063l0.04052,-0.00478c0.01164,0.02771 0.02357,0.05529 0.0358,0.08274c1.24841,1.29147 1.6199,2.46963 0.41692,-0.41051l-0.00041,-0.00239l-0.00049,0.0002l-0.293,-0.72241c-0.02632,-0.06082 -0.0409,-0.1279 -0.0409,-0.19839c0,-0.27614 0.22386,-0.5 0.5,-0.5c0.04574,0 0.09005,0.00614 0.13215,0.01765l0.13109,0.03277c-0.15529,-0.22309 -0.27108,-0.46683 -0.35069,-0.74617l-0.2028,0.0507l-0.1921,-0.76839c-0.01151,-0.04209 -0.01765,-0.0864 -0.01765,-0.13215c0,-0.27614 0.22386,-0.5 0.5,-0.5c0.15962,0 0.30178,0.0748 0.39332,0.19126l0.37417,0.46771c0.18962,0.19328 0.35624,0.38304 0.50065,0.57308l-0.24972,-0.49944c-0.03658,-0.06948 -0.05728,-0.14862 -0.05728,-0.2326c0,-0.27614 0.22386,-0.5 0.5,-0.5c0.11048,0 0.2126,0.03583 0.29535,0.09652l0.20481,0.14629c0.06666,-0.19779 0.25366,-0.34022 0.47393,-0.34022c0.21462,0 0.39766,0.13522 0.46856,0.32512l0.18079,0.45198c0.08023,0.1398 0.15923,0.27194 0.23657,0.39817c0.10151,0.0735 0.20266,0.16245 0.30275,0.26249c-0.05044,-0.15664 -0.10037,-0.31312 -0.15217,-0.46768l-0.15656,0.04697l-0.28401,-0.94669c-0.01586,-0.04874 -0.02443,-0.10077 -0.02443,-0.15481c0,-0.27614 0.22386,-0.5 0.5,-0.5c0.18532,0 0.3471,0.10082 0.43346,0.25061l0.28751,0.47919l-0.01704,0.01023l0.03861,0.02972c0.10531,0.27893 0.20994,0.54663 0.31076,0.80781c0.20714,0.20982 0.39283,0.44624 0.5637,0.69715l-0.23035,-0.61426c-0.02314,-0.05759 -0.03588,-0.12048 -0.03588,-0.18635c0,-0.20171 0.11944,-0.37552 0.29145,-0.45456c-0.04425,-0.13546 -0.09177,-0.27624 -0.15361,-0.41997l-0.11218,-0.33107c0,0 -0.15811,-0.47434 0.31623,-0.63246z" fill="#000000"/><path d="M316.54495,194.16024c0.47434,-0.15811 0.63246,0.31623 0.63246,0.31623l0.05719,0.20227c0.66363,1.16165 1.11964,1.93722 0.99438,2.94301l0.22548,0.05637l-0.19228,0.76912c-0.05053,0.22266 -0.24966,0.38888 -0.48761,0.38888c-0.15149,0 -0.28725,-0.06737 -0.37894,-0.17379c-0.15532,0.09262 -0.36121,0.15352 -0.62934,0.17262c-0.4888,0.03481 -0.91578,-0.274 -1.27291,-0.75598c-0.0597,0.05434 -0.12775,0.10503 -0.2049,0.15153c-0.0887,0.05347 -0.31502,-0.07234 -0.574,-0.26085c-0.02745,0.32636 -0.16827,0.58891 -0.47612,0.73907c0.2481,0.41108 0.46883,0.83379 0.63741,1.28158l0.00449,0.00449l0.10857,-0.06514l0.288,0.48c0.04784,0.07668 0.07548,0.16726 0.07548,0.26429c0,0.24008 -0.16921,0.44064 -0.39488,0.48893l0.20357,0.29082c0.05909,0.08211 0.0939,0.18286 0.0939,0.29175c0,0.14353 -0.06048,0.27294 -0.15735,0.36413c0.06571,0.29016 0.08948,0.55952 0.05576,0.79324l0.20864,0.31295c0.05536,0.08048 0.08777,0.17797 0.08777,0.28304c0,0.27614 -0.22386,0.5 -0.5,0.5c-0.15962,0 -0.30178,-0.0748 -0.39332,-0.19126l-0.08926,-0.11158c-0.00045,0.00013 -0.00089,0.00027 -0.00134,0.0004c-0.2765,0.08286 -1.17643,-0.62131 -2.05341,-1.43514c0.0584,0.15832 0.11703,0.31882 0.18196,0.48115l-0.03895,0.02698l0.0078,-0.00111l0.036,-0.012l0.00218,0.00655l0.11586,-0.01655l0.09619,0.67335c0.00411,0.0258 0.00624,0.05227 0.00624,0.07923c0,0.27614 -0.22386,0.5 -0.5,0.5c-0.22492,0 -0.41515,-0.14851 -0.47799,-0.35282l-0.18769,-0.56307c-0.05551,-0.13883 -0.10477,-0.26576 -0.14809,-0.38366c-0.60652,-0.54554 -1.08156,-1.65941 -1.55973,-2.15208l-0.00588,-0.11913l-0.04314,0.01438l-0.19113,-0.57338c-0.019,-0.05284 -0.02935,-0.1098 -0.02935,-0.16919c0,-0.27614 0.22386,-0.5 0.5,-0.5c0.11438,0 0.21979,0.03841 0.30404,0.10303l0.77523,0.58142l-0.05072,0.06763c0.0801,0.04614 0.15938,0.09306 0.23791,0.14079c-0.14648,-0.21883 -0.28652,-0.44365 -0.41972,-0.6761c-0.01448,-0.01571 -0.02902,-0.03139 -0.0436,-0.04705l-0.06983,0.05713l-0.63096,-0.77117c-0.072,-0.08663 -0.1153,-0.19796 -0.1153,-0.3194c0,-0.27614 0.22386,-0.5 0.5,-0.5c0.13807,0 0.26307,0.05596 0.35355,0.14645l0.38964,0.38964c0.52653,0.52653 0.98474,1.08998 1.42305,1.66747c0.16026,0.17994 0.31909,0.36874 0.47539,0.56029c-0.06236,-0.09264 -0.12421,-0.18638 -0.18472,-0.28107c-0.37076,-0.51914 -0.68025,-1.14337 -1.01206,-1.66545c-0.03172,-0.04016 -0.06342,-0.08004 -0.09509,-0.11961l-0.00517,-0.02261l-0.00725,0.00483l-0.32498,-0.48747l-0.01546,0.00618l-0.02937,-0.07342l-0.01603,-0.02405c-0.04555,-0.06622 -0.07556,-0.14396 -0.08477,-0.22795l-0.06044,-0.15109c-0.02573,-0.06025 -0.03997,-0.12657 -0.03997,-0.19622c0,-0.23667 0.16443,-0.43493 0.38528,-0.48678c-0.00665,-0.01081 -0.01313,-0.02127 -0.01945,-0.03136l-0.00066,-0.0049l-0.0017,0.00102l-0.288,-0.48c-0.04784,-0.07668 -0.07548,-0.16726 -0.07548,-0.26429c0,-0.27614 0.22386,-0.5 0.5,-0.5c0.15574,0 0.29486,0.07121 0.38656,0.18284l0.4846,0.58152l-0.04638,0.03865c0.24945,0.18869 0.48401,0.39932 0.67002,0.6339c-0.03938,-0.09832 -0.07488,-0.18592 -0.10235,-0.25001c-0.0137,-0.03198 -0.02746,-0.06374 -0.04128,-0.0953c-0.70632,-0.71933 -1.23867,-1.30955 -1.327,-2.15015h-0.23194v-0.58445c0,-0.27614 0.22386,-0.5 0.5,-0.5c0.15574,0 0.29486,0.07121 0.38656,0.18284l0.4846,0.58152l-0.0088,0.00733l0.03233,0.02323c0.15446,0.25602 0.49905,0.77888 0.82927,1.38347c0.389,0.48401 0.72471,0.98159 0.89304,1.21544c-0.0668,-0.16924 -0.12836,-0.34207 -0.18451,-0.51537c-0.11522,-0.23276 -0.26661,-0.53563 -0.45919,-0.9208l0.02151,-0.04453l-0.03391,0.0113l-0.07059,-0.21176l-0.14603,0.01825l-0.09643,-0.77145c-0.00319,-0.02282 -0.00484,-0.04614 -0.00484,-0.06984c0,-0.27614 0.22386,-0.5 0.5,-0.5c0.22492,0 0.41515,0.14851 0.47799,0.35282l0.28015,0.84045c0.07659,0.15292 0.17323,0.33858 0.2711,0.54379c0.65592,0.81049 1.23749,1.97907 1.3466,2.03646c-0.40328,-0.62989 -0.6184,-0.99854 -0.54768,-1.56514l-0.18014,-0.02573l0.09637,-0.67459c0.01751,-0.13829 0.0915,-0.25897 0.19814,-0.33819l-0.07906,-0.21953c0,0 -0.15811,-0.47434 0.31623,-0.63246z" fill="#000000"/><path d="M326.16387,160.8675c0.17678,0.17678 0,0.35355 0,0.35355l-0.14392,0.12578c-0.26953,0.13477 -0.53923,0.26919 -0.809,0.40348c-0.14119,0.04287 -0.32934,0.05163 -0.53177,0.04788c0.65286,2.84072 1.79913,5.00492 -1.27185,6.53929c-0.69062,0.28795 -3.27561,0.78433 -3.48919,1.58693c-0.07318,0.275 1.54272,1.84308 1.73251,1.60369l-0.01903,-0.22014c0,0 0,-0.25 0.25,-0.25c0.25,0 0.25,0.25 0.25,0.25l-0.01903,0.41148c-0.7512,0.71566 -2.87199,-0.85145 -2.68877,-1.87017c0.20322,-1.12995 2.8794,-1.59318 3.77542,-1.96643c2.79647,-1.39929 1.57721,-3.42325 0.96344,-6.10761c-0.48739,-0.02308 -0.90057,-0.01489 -0.7907,0.32092c0.52333,1.59949 -1.60625,3.62152 -3.05549,4.23313c0,0 -0.23212,0.09285 -0.32497,-0.13927c-0.09285,-0.23212 0.13927,-0.32497 0.13927,-0.32497c0.89418,-0.33102 2.73,-1.96488 2.9274,-2.97784c0.03542,-0.18176 -0.16142,-0.9579 -0.14048,-0.99998c0.09765,-0.19626 0.65115,-0.32856 1.17671,-0.4265c-0.00352,-0.01718 -0.007,-0.03438 -0.01046,-0.05162c0,0 -0.04903,-0.24515 0.19612,-0.29417c0.24515,-0.04903 0.29417,0.19612 0.29417,0.19612c0.0042,0.02106 0.00845,0.04209 0.01273,0.06308c0.19184,-0.03313 0.35039,-0.06188 0.43932,-0.08848c0.25657,-0.1289 0.51322,-0.25763 0.77003,-0.38603l0.01398,-0.03212c0,0 0.17678,-0.17678 0.35355,0z" fill="#2f2f2f"/><path d="M326.55807,170.60309c-0.24254,-0.06063 -0.1819,-0.30317 -0.1819,-0.30317l0.09286,-0.35631c0.32068,-0.45331 0.39947,-1.98584 0.35749,-2.53806c-0.05338,-0.73663 -1.01065,-0.96249 -1.24416,-1.7968c-0.47738,-1.70559 0.43669,-4.38655 1.64909,-5.60972c0,0 0.17678,-0.17678 0.35355,0c0.17678,0.17678 0,0.35355 0,0.35355c-1.09488,1.08347 -1.94222,3.59495 -1.52092,5.1222c0.25245,0.91516 1.10973,0.9396 1.26037,1.88532c0.03086,0.68193 -0.03217,2.20916 -0.39816,2.78578l-0.06504,0.2753c0,0 -0.06063,0.24254 -0.30317,0.1819z" fill="#2f2f2f"/><path d="M299.75631,158.97266c0.17678,-0.17678 0.35355,0 0.35355,0l0.1579,0.1579c0.89247,1.03102 -0.77045,1.28702 -1.14302,2.07772c-0.29761,0.63159 0.36107,1.03819 0.34771,1.65783c-0.02533,1.17536 -1.8656,1.57535 -2.7515,1.66394c0,0 -0.24876,0.02488 -0.27364,-0.22388c-0.02488,-0.24876 0.22388,-0.27364 0.22388,-0.27364c0.795,-0.0795 1.74958,-0.26859 2.25565,-0.98119c0.32927,-0.46365 -0.5816,-1.35853 -0.25464,-2.05569c0.17676,-0.3769 1.66035,-1.20672 1.242,-1.51152l-0.1579,-0.1579c0,0 -0.17678,-0.17678 0,-0.35355z" fill="#2f2f2f"/><path d="M297.32769,192.16432c-0.25,0 -0.25,-0.25 -0.25,-0.25v-0.07895c0.04564,-1.65206 2.0704,-1.03673 2.48978,-1.95499c0.25911,-0.56734 0.46688,-1.40011 0.64387,-2.01205c0.37556,-0.87784 0.0084,-1.61867 -0.08309,-2.39699c-0.12114,1.698 -0.50903,3.90729 -1.72808,3.35063c0,0 -0.22361,-0.1118 -0.1118,-0.33541c0.1118,-0.22361 0.33541,-0.1118 0.33541,-0.1118c0.78584,0.45191 1.05702,-3.72937 1.06069,-4.42797l-0.07365,-0.34374c-0.00436,-0.01848 -0.00666,-0.03776 -0.00666,-0.05758c0,-0.13807 0.11193,-0.25 0.25,-0.25c0.08815,0 0.16565,0.04563 0.21016,0.11455l0.10023,0.15034c0.31743,0.16872 0.58403,0.25322 0.81283,0.27426c0.18135,-0.05193 0.39057,-0.09235 0.61618,-0.12254c0.80101,-0.44272 1.02572,-1.88268 2.21332,-1.87115c0.19272,0.00187 1.00041,1.50662 1.18169,1.7461l0.21313,0.14388c0.0682,0.04464 0.11326,0.12172 0.11326,0.20932c0,0.12548 -0.09245,0.22937 -0.21295,0.24727l-0.46966,0.07828l-0.01819,-0.10912c-0.69959,0.07675 -1.47617,-0.04345 -2.20176,-0.06802c-0.11803,0.07986 -0.24123,0.14013 -0.36912,0.17385c-0.16573,0.0437 -0.62405,0.06521 -1.07268,0.03177c-0.01606,0.00728 -0.03201,0.01479 -0.04785,0.02253c-0.58206,0.28461 0.06818,3.00072 -0.24069,3.72011c-0.15963,0.54661 -0.40375,1.65376 -0.69915,2.1217c-0.49157,0.77871 -2.46213,0.3857 -2.40522,1.67678v0.07895c0,0 0,0.25 -0.25,0.25zM302.89015,183.6409c0.63405,0.00561 1.24152,0.06335 1.62958,0.15168c-0.25077,-0.31676 -0.49048,-0.64142 -0.69739,-0.9901c-0.08208,-0.13832 -0.03239,-0.61208 -0.10818,-0.47022c-0.19295,0.36115 -0.47407,0.89083 -0.82401,1.30865zM300.35292,184.20148c-0.06249,-0.01625 -0.12039,-0.03456 -0.17219,-0.0551c-0.00143,0.14603 -0.00459,0.32008 -0.01088,0.51394c0.03767,-0.14614 0.09487,-0.29532 0.1773,-0.44851c0.00186,-0.00346 0.00378,-0.0069 0.00577,-0.01032z" fill="#2f2f2f"/><path d="M327.71573,186.33869c0.04903,-0.24515 0.29417,-0.19612 0.29417,-0.19612l0.40058,0.08019c0.88884,0.22221 1.45785,0.35133 2.04407,1.12589c0.21603,0.33964 0.29935,0.7205 0.32495,1.12064c0.77538,-0.88468 0.84342,-1.70945 1.54301,-2.99426c0.51516,-0.9461 1.72165,-1.6226 2.49104,-2.34592c0.07803,-0.07804 0.15606,-0.15609 0.23408,-0.23413l0.22288,-0.12578c0,0 0.22361,-0.1118 0.33541,0.1118c0.1118,0.22361 -0.1118,0.33541 -0.1118,0.33541l-0.09293,0.03212c-0.07987,0.07986 -0.15975,0.15972 -0.23962,0.23958c-0.75488,0.70901 -1.85469,1.33953 -2.40395,2.23327c-0.86546,1.40823 -0.85177,2.38299 -1.97707,3.45595c-0.0316,0.81667 -0.11908,1.65898 0.30855,2.35999c0.17878,0.29306 0.46491,0.53457 0.78782,0.74877c0.14298,-1.62173 0.65721,-3.12862 2.18209,-1.73281c0,0 0.17678,0.17678 0,0.35355c-0.17678,0.17678 -0.35355,0 -0.35355,0c-0.93404,-1.09543 -1.23908,0.27635 -1.32363,1.68411c0.32921,0.18566 0.6597,0.35729 0.92852,0.5365c0,0 0.20801,0.13868 0.06934,0.34669c-0.13868,0.20801 -0.34669,0.06934 -0.34669,0.06934c-0.21163,-0.14109 -0.44105,-0.27589 -0.67371,-0.41328c-0.02081,0.82725 0.01903,1.55472 0.03091,1.65508c0.03654,0.30869 -0.31208,0.7913 -0.39153,1.10718c-0.00822,0.27327 -0.13756,0.54215 -0.29612,0.76487l-0.24894,0.24983c0,0 -0.17678,0.17678 -0.35355,0c-0.17678,-0.17678 0,-0.35355 0,-0.35355l0.22477,-0.22388c0.11149,-0.13663 0.18481,-0.32215 0.17759,-0.49836c0.04527,-0.18184 0.41824,-0.80115 0.39799,-0.94556c-0.03779,-0.26953 -0.09803,-1.13778 -0.05783,-2.06899c-0.608,-0.38714 -1.16305,-0.83869 -1.39461,-1.51981c-0.16457,-0.48408 -0.13012,-1.11668 -0.10659,-1.7427c-0.07838,0.06105 -0.16096,0.1226 -0.2481,0.18472c-1.63991,1.54518 -2.94001,3.91942 -3.79511,6.05782c0,0 -0.09285,0.23212 -0.32497,0.13927c-0.23212,-0.09285 -0.13927,-0.32497 -0.13927,-0.32497c0.88488,-2.21154 2.23988,-4.6632 3.94214,-6.25862c0.21991,-0.15736 0.41031,-0.30884 0.57682,-0.45663c-0.00875,-0.48752 -0.07369,-0.93452 -0.30649,-1.25848c-0.50055,-0.67484 -0.97903,-0.73521 -1.7456,-0.92685l-0.38894,-0.07772c0,0 -0.24515,-0.04903 -0.19612,-0.29417z" fill="#2f2f2f"/><path d="M333.37568,194.42752c-0.22361,-0.1118 -0.1118,-0.33541 -0.1118,-0.33541l0.06539,-0.12516c0.23324,-0.68441 0.69425,-1.28913 1.12983,-1.86826c0.95617,-1.88386 -0.59,-4.66901 -0.59,-6.57945c0,0 0,-0.25 0.25,-0.25c0.25,0 0.25,0.25 0.25,0.25c0,2.06957 1.53321,4.78454 0.51532,6.84231c-0.40633,0.54325 -0.87185,1.1196 -1.08081,1.76351l-0.09252,0.19065c0,0 -0.1118,0.22361 -0.33541,0.1118z" fill="#2f2f2f"/><path d="M319.40126,197.84894c0.22361,-0.1118 0.33541,0.1118 0.33541,0.1118l0.09192,0.35054c-0.29794,0.83759 -1.28057,1.3044 -2.10086,1.50947c-0.54468,0.00319 -1.56809,-0.20261 -2.06657,-0.01716c-1.52388,0.56696 -1.84806,4.06384 -3.41163,4.12451c0,0 -0.25,0 -0.25,-0.25c0,-0.25 0.25,-0.25 0.25,-0.25c0.6486,0.04127 1.0458,-1.51333 1.46189,-2.03677c1.30766,-1.64501 1.83002,-2.08221 3.95522,-2.06684c0.60736,-0.15184 1.48382,-0.53866 1.68881,-1.17488l-0.06599,0.03474c0,0 -0.1118,-0.22361 0.1118,-0.33541z" fill="#2f2f2f"/><path d="M346.94233,170.6252c-0.1118,0.22361 -0.33541,0.1118 -0.33541,0.1118l-0.36068,-0.18148c-1.7526,-1.30965 -4.1509,-3.24632 -3.74441,-5.53747c0.91339,-2.50469 1.60766,-5.68562 -2.09064,-5.67641c0,0 -0.25,0 -0.25,-0.25c0,-0.25 0.25,-0.25 0.25,-0.25c4.04121,0.00914 3.61709,3.47585 2.57346,6.30638c-0.35212,2.0104 1.98375,3.81702 3.52466,4.9823l0.32122,0.15947c0,0 0.22361,0.1118 0.1118,0.33541z" fill="#2f2f2f"/></g></g></svg>