<svg version="1.1" xmlns="http://www.w3.org/2000/svg" xmlns:xlink="http://www.w3.org/1999/xlink" width="68.00614" height="102.85645" viewBox="0,0,68.00614,102.85645"><g transform="translate(-287.9675,-126.71258)"><g data-paper-data="{&quot;isPaintingLayer&quot;:true}" fill-rule="nonzero" stroke="none" stroke-linecap="butt" stroke-linejoin="miter" stroke-miterlimit="10" stroke-dasharray="" stroke-dashoffset="0" style="mix-blend-mode: normal"><path d="M308.20226,196.49678c0,0 -1.65563,-19.85247 -2.40662,-31.15908c1.57515,0.81106 3.54837,1.29441 4.69443,1.29441c2.42848,1.23205 6.81687,1.36104 9.46971,1.69581c3.3989,0.06364 6.80258,0.01525 10.20206,0.01525c2.30188,0 4.70164,-0.30869 6.98581,-0.833c0.00565,0.36883 0.00649,0.74374 0.00158,1.12447c-0.05526,4.28593 -0.94731,9.08451 -1.15863,13.52263c-0.39713,8.34034 -0.19302,15.40772 -0.19302,15.40772z" fill="#ff9a31" stroke-width="0"/><path d="M307.48103,195.93346c-1.11271,0 -1.11271,-1.11271 -1.11271,-1.11271l0.00114,-1.2217c0.26887,-2.9473 0.89281,-5.63266 0.59002,-8.62344c0,0 -0.03292,-0.32922 0.11665,-0.64656c-0.17281,-0.63702 -0.33948,-1.25758 -0.34658,-1.30765c-0.2276,-1.60389 0.05443,-3.2618 -0.22847,-4.8812c-0.22143,-1.26754 -0.66413,-2.50145 -0.8255,-3.7849c-0.1701,-1.35287 -0.39036,-2.64086 -0.58387,-3.96981c-0.20316,-1.39519 0.20192,-2.02232 -0.47996,-3.29493c0,0 -0.49763,-0.99524 0.49761,-1.49286c0.99524,-0.49762 1.49286,0.49762 1.49286,0.49762c0.22445,0.47108 0.55264,0.90558 0.67334,1.41325c0.19691,0.82819 -0.11265,1.71256 0.01797,2.55375c0.39858,2.56694 0.95574,5.13152 1.4017,7.70615c0.28476,1.64407 0.00639,3.3357 0.24004,4.95753c0.11993,0.83249 0.45211,1.62028 0.67341,2.43173l0.23064,0.80698c0,0 0.27205,0.9522 -0.59545,1.31667c-0.07708,2.14664 -0.45151,4.21187 -0.65128,6.4185l0.00114,1.12086c0,0 0,1.11271 -1.11271,1.11271z" fill="#ff9a31" stroke-width="0.5"/><path d="M339.65811,168.27432c0.54351,1.39807 -0.85456,1.94158 -0.85456,1.94158l-1.13067,0.42927c-0.58012,0.15242 -1.16024,0.30483 -1.74036,0.45725c-1.08032,0.1833 -2.07161,0.72259 -3.13255,0.99662c-6.83219,1.76468 -14.26456,0.28835 -20.85494,-1.43472c-2.55475,-0.66794 -4.63786,-0.50338 -6.77315,-2.16014c0,0 -1.15408,-0.95818 -0.1959,-2.11226c0.95818,-1.15408 2.11226,-0.1959 2.11226,-0.1959c1.39067,1.29872 3.75755,1.07794 5.62412,1.56808c6.01766,1.58019 13.0446,3.12762 19.29649,1.44112c1.10634,-0.29844 2.15192,-0.82524 3.27887,-1.0327c0.54027,-0.14279 1.08053,-0.28557 1.6208,-0.42836l0.80801,-0.32441c0,0 1.39807,-0.54351 1.94158,0.85456z" fill-opacity="0.30588" fill="#000000" stroke-width="0.5"/><path d="M336.14569,197.52631c-1.06579,0.31974 -1.38552,-0.74606 -1.38552,-0.74606l-0.3771,-1.27479c-0.30794,-2.99504 -0.1846,-6.37785 0.45591,-9.35592c-0.00862,-0.06986 -0.00861,-0.11339 -0.00861,-0.11339v-0.23426c0.00251,-2.02715 -0.56475,-3.86179 -0.46737,-5.90681c0.08917,-1.87268 0.56717,-3.52792 0.96166,-5.34135c0.48405,-2.22519 0.61177,-4.39544 0.79796,-6.64766c0,0 0.00622,-0.0747 0.03483,-0.18371c0.65846,-0.13109 1.31004,-0.28074 1.94981,-0.4468c0.27166,0.35254 0.2331,0.81531 0.2331,0.81531c-0.19729,2.34751 -0.33801,4.62012 -0.84184,6.93917c-0.3677,1.69246 -0.82919,3.21891 -0.91237,4.96589c-0.08594,1.80469 0.36513,3.45549 0.45449,5.2329c0.21183,0.39187 0.09906,0.84294 0.09906,0.84294c-0.71149,2.77107 -0.849,6.1414 -0.57363,9.00126l0.32567,1.06776c0,0 0.31974,1.06579 -0.74605,1.38552z" fill="#ff9a31" stroke-width="0.5"/><path d="M337.32389,166.8896c0.06469,0.00539 0.12529,0.01424 0.18206,0.02613c-0.34007,0.08293 -0.68307,0.16104 -1.02827,0.23403c0.17884,-0.17068 0.44648,-0.29348 0.84621,-0.26016z" fill="#c5d8e2" stroke-width="0.5"/><path d="M338.27612,167.1788c0,0.99605 -7.38246,1.8035 -16.48918,1.8035c-9.10672,0 -16.48918,-0.80746 -16.48918,-1.8035c0,-0.39775 -2.02902,-2.6548 -0.03491,-2.953c2.99961,-0.44855 11.85545,-1.42694 17.32564,-1.42694c9.10672,0 15.68762,3.38389 15.68762,4.37994z" fill="#ff9a31" stroke-width="0"/><g fill="#ff9a31" stroke-width="0.5"><path d="M329.33012,221.86566c-0.37963,0.74811 -1.12775,0.36847 -1.12775,0.36847l-0.43012,-0.21828c-5.87047,-2.99743 -12.091,-4.52931 -17.94757,-7.03473c-2.0701,-3.97723 -2.28563,-14.39402 -0.87175,-18.68436c0,0 0.27001,-0.79428 1.0643,-0.52426c0.79428,0.27002 0.52427,1.06429 0.52427,1.06429c-1.25166,3.53971 -0.43524,9.12792 0.16977,12.74596c0.22266,1.33148 -0.24847,2.93974 0.25684,4.17043c6.01395,2.13829 11.7198,3.82205 17.56342,6.76643l0.43014,0.21827c0,0 0.74811,0.37963 0.36848,1.12774z"/><path d="M330.17057,217.34295c-0.58967,-0.59672 0.00705,-1.18639 0.00705,-1.18639l0.5401,-0.51767c2.01461,-1.41097 2.91802,-2.52548 5.59823,-2.48501c5.02384,1.75619 2.18018,8.01636 -1.14804,10.05119c-3.01998,1.84637 -4.2447,-0.02996 -6.90399,-0.58346c0,0 -0.81264,-0.2083 -0.60435,-1.02095c0.2083,-0.81264 1.02095,-0.60434 1.02095,-0.60434c2.14179,0.61185 3.20688,2.27805 5.59937,0.78517c1.74274,-1.08744 5.16525,-5.87763 1.75747,-6.97306c-2.14136,0.01725 -2.71512,1.03957 -4.35254,2.20156l-0.32785,0.34003c0,0 -0.59673,0.58966 -1.18639,-0.00706z"/><path d="M331.57268,217.35128c-0.59672,0.58967 -1.18639,-0.00705 -1.18639,-0.00705l0.10988,0.04995c-5.19278,-2.6351 -11.09951,-3.27345 -16.57759,-5.12236c0,0 -0.7943,-0.27002 -0.52428,-1.0643c0.27002,-0.79428 1.0643,-0.52426 1.0643,-0.52426c5.54428,1.89684 11.52484,2.53939 16.79683,5.21468l0.3243,0.26694c0,0 0.58967,0.59672 -0.00706,1.18639z"/><path d="M313.70415,212.05484c-0.79428,-0.27002 -0.52426,-1.06429 -0.52426,-1.06429l0.31065,-0.90581c0.33542,-1.88757 -0.41076,-3.24033 -0.63619,-5.09951c-0.50456,-4.16136 0.52698,-8.14854 -0.24095,-12.34405c0,0 -0.15104,-0.82521 0.67417,-0.97626c0.82521,-0.15105 0.97627,0.67417 0.97627,0.67417c0.77699,4.24494 -0.25614,8.2711 0.25868,12.46619c0.2581,2.10317 0.96224,3.51522 0.59396,5.69358l-0.34803,1.03171c0,0 -0.27001,0.79428 -1.06429,0.52427z"/></g><path d="M329.33971,194.72926c0,0 0.83869,0.01996 0.81872,0.85864c-0.01996,0.83869 -0.85864,0.81872 -0.85864,0.81872c-3.75206,-0.13506 -8.83988,2.3162 -12.11109,3.97616c-1.11647,0.56655 -2.63866,0.63496 -3.66983,1.32029c-0.45643,-0.29697 -0.88913,-0.65542 -1.38949,-0.8831c3.50222,-3.06122 12.85136,-6.15365 17.21033,-6.09071z" fill="#ff9a31" stroke-width="0.5"/><path d="M307.74685,220.34542c-0.77974,-0.30951 -0.47022,-1.08925 -0.47022,-1.08925l0.17796,-0.44832c2.44019,-6.10299 3.39739,-12.41912 5.34465,-18.46493c0.50722,0.30193 0.88478,0.75956 1.29137,1.18175c-1.55165,6.10781 -2.70655,11.88148 -5.07655,17.9022l-0.17795,0.44833c0,0 -0.30952,0.77973 -1.08926,0.47021z" fill="#ff9a31" stroke-width="0.5"/><path d="M312.32753,220.7681c0.5402,-0.64185 1.18205,-0.10164 1.18205,-0.10164l0.56497,0.49042c1.58957,1.87691 2.78213,2.67443 2.98733,5.34709c-1.28865,5.16358 -7.78297,2.90526 -10.11408,-0.22259c-2.11522,-2.83816 -0.35897,-4.22961 -0.05136,-6.92841c0,0 0.133,-0.82831 0.9613,-0.69532c0.82831,0.13299 0.69532,0.96131 0.69532,0.96131c-0.4131,2.18883 -1.97474,3.40205 -0.269,5.64775c1.24249,1.63581 6.32602,4.60519 7.10472,1.11139c-0.21332,-2.13078 -1.28388,-2.60849 -2.59097,-4.13259l-0.36863,-0.29532c0,0 -0.64185,-0.5402 -0.10164,-1.18205z" fill="#ff9a31" stroke-width="0.5"/><path d="M312.44765,222.16507c-0.64185,-0.5402 -0.10164,-1.18205 -0.10164,-1.18205l-0.03967,0.11399c2.14839,-5.41231 2.24304,-11.35269 3.58242,-16.9771c0,0 0.19613,-0.81568 1.0118,-0.61955c0.81568,0.19613 0.61954,1.01181 0.61954,1.01181c-1.38105,5.69471 -1.47311,11.70898 -3.65428,17.20386l-0.23611,0.34739c0,0 -0.54021,0.64184 -1.18206,0.10164z" fill="#ff9a31" stroke-width="0.5"/><path d="M315.72552,203.97828c0.01996,-0.83869 0.85864,-0.81873 0.85864,-0.81873l0.95726,0.02536c1.90145,-0.2448 2.96892,-1.3616 4.67545,-2.13304c3.81969,-1.72671 7.93283,-1.93557 11.70629,-3.92381c0,0 0.74221,-0.39106 1.13327,0.35114c0.39106,0.7422 -0.35113,1.13327 -0.35113,1.13327c-3.81792,2.01166 -7.96873,2.23067 -11.81753,3.97727c-1.92956,0.87564 -3.0662,1.97006 -5.25494,2.27051l-1.08858,-0.02333c0,0 -0.83869,-0.01996 -0.81872,-0.85865z" fill="#ff9a31" stroke-width="0.5"/><path d="M310.15714,193.06784c-0.5964,1.0437 -1.46196,1.50152 -2.45345,1.60288c-2.01092,0.20557 -4.5399,-1.05517 -6.39207,-1.86812c-7.99054,-3.50718 -11.48731,-7.21257 -11.51495,-15.72427c-0.00502,-1.54468 -2.66722,-1.29848 -1.55944,-3.51404c1.08281,-2.16561 3.16107,-0.39327 3.95157,0.62585c4.08529,5.26675 -1.57174,8.28464 5.80139,13.00073c2.55394,1.63359 5.46375,2.79419 8.31553,3.7418c0.53994,0.17942 2.73013,0.17292 2.9896,0.62699z" fill="#ff9a31" stroke-width="0.5"/><g fill="#ea8f2d" stroke-width="0.5"><path d="M308.66792,170.91656c-0.39294,1.22989 -2.40602,2.20975 -3.39584,2.86343c-2.49114,1.64517 -4.97671,5.70188 -6.33129,8.07134c-1.27127,2.22373 -1.7997,11.59373 -4.41446,11.57082c-3.37822,-0.02961 -0.37417,-5.74801 -0.39683,-7.1692c-0.12278,-7.70013 6.75727,-12.20468 11.3672,-16.93141c0.03864,-0.12441 0.09188,-0.24643 0.1603,-0.36376c0.01126,-0.01931 0.02283,-0.03832 0.0347,-0.05703c0.97194,-1.57631 1.89732,-1.31555 2.47128,-0.50168c0.71724,0.494 0.9624,1.44643 0.56932,2.22638c-0.01408,0.10277 -0.03541,0.20041 -0.06438,0.29112z"/><path d="M306.50373,173.40933c-1.41176,1.94742 -3.4109,3.08164 -4.74853,5.35687c-1.76492,3.00201 -2.51681,3.80658 -3.0252,6.47739c-0.28825,1.5143 0.07608,9.06323 -2.89619,8.44163c-2.18867,-0.45772 -0.83554,-10.2366 0.11409,-11.90808c0.95328,-1.67793 1.92552,-3.34526 2.91633,-5.00131c0.52544,-0.87825 1.24645,-1.64753 1.77385,-2.51963c0.56915,-0.94113 5.56808,-6.14169 7.14575,-5.06981c0.25537,0.01957 0.51039,0.09575 0.7465,0.23342c0.83492,0.48685 1.11709,1.55836 0.63023,2.39328c0.16979,0.72604 -2.34632,1.16788 -2.65684,1.59623z"/><path d="M298.4363,191.2531c0.93275,2.59612 -0.95183,9.4982 -4.47122,7.69977c-1.11292,-0.5687 -3.87228,-1.73716 -4.14656,-2.89194c-0.36974,-1.55667 2.19499,-6.58685 4.03044,-6.57076c0.52279,-0.29224 1.18213,-0.30832 1.73698,0.01522c0.10757,0.06272 0.20597,0.13516 0.29472,0.21553c0.874,0.5012 2.07877,0.20488 2.55565,1.53217z"/></g><g fill="#ea8f2d" stroke-width="0.5"><path d="M337.34811,171.59609c0.89174,0.93371 0.78846,3.17021 0.88859,4.35217c0.25202,2.9747 2.62401,7.09885 4.05599,9.42235c1.34391,2.1806 9.31777,7.1297 8.04605,9.41448c-1.64305,2.95189 -5.22583,-2.42289 -6.48447,-3.08327c-6.81945,-3.57802 -7.48114,-11.77487 -9.42455,-18.08491c-0.09074,-0.09348 -0.17238,-0.19863 -0.24265,-0.31487c-0.01156,-0.01913 -0.02271,-0.03838 -0.03346,-0.05777c-0.91875,-1.60789 -0.24686,-2.29555 0.74245,-2.40991c0.77705,-0.39327 1.73063,-0.15262 2.22727,0.56584c0.08349,0.06156 0.159,0.12702 0.22479,0.19588z"/><path d="M338.50081,174.68945c1.03406,2.17169 1.07297,4.46984 2.43032,6.73336c1.79093,2.98656 2.13743,4.03184 4.23904,5.75664c1.19157,0.97793 7.99389,4.2715 6.02539,6.5836c-1.44952,1.70254 -9.38762,-4.16636 -10.40062,-5.80021c-1.01691,-1.64016 -2.01543,-3.29187 -2.99516,-4.9545c-0.51959,-0.88173 -0.84988,-1.883 -1.36313,-2.7635c-0.55387,-0.9502 -2.72709,-7.82859 -1.03081,-8.7007c0.13942,-0.21484 0.32837,-0.40229 0.56227,-0.54369c0.82711,-0.50001 1.90295,-0.23485 2.40296,0.59225c0.71873,0.19846 -0.09772,2.61909 0.12973,3.09676z"/><path d="M350.3059,190.3139c2.72587,0.42373 7.88375,5.38221 4.62011,7.61136c-1.03204,0.70491 -3.37876,2.56831 -4.52394,2.25637c-1.54372,-0.4205 -4.73254,-5.08012 -3.83984,-6.68394c-0.00633,-0.59889 0.29514,-1.18548 0.8448,-1.51777c0.10656,-0.06442 0.21726,-0.11614 0.33031,-0.1556c0.8584,-0.52745 1.17493,-1.72708 2.56856,-1.51043z"/></g><path d="M308.09302,165.12173c-0.87156,0.40798 -1.74098,-0.22431 -1.74098,-0.22431l-1.83704,-1.47021c-0.77064,-1.16266 -1.69066,-2.35559 -2.03549,-3.74728c-0.53733,-2.1686 -0.19769,-4.67004 0.23949,-6.80916c1.05009,-5.13804 2.44153,-11.40294 6.76931,-14.85376c3.77026,-3.00627 8.58733,-3.07976 13.14945,-3.07976c2.92987,0 5.85388,-0.34305 8.57795,0.94164c3.84906,1.81524 6.56495,5.44588 8.58951,9.05507c3.62549,6.46316 6.30796,14.69011 2.96175,21.89066c-3.73253,3.45448 -7.12101,3.15109 -11.92409,3.15109c-7.70333,0 -16.0692,-0.64374 -22.74986,-4.85399z" fill="#ff9a31" stroke-width="0.5"/><path d="M316.20095,136.48285c-0.56944,0.48809 -1.05753,-0.08135 -1.05753,-0.08135l-0.51613,-0.61053c-1.58096,-2.37993 -1.23318,-5.23818 -2.50223,-7.59981c-0.74818,0.61938 -1.57343,1.06187 -2.32699,1.61455c-2.60826,1.91297 -2.43449,8.33086 -1.246,10.95694c0,0 0.30461,0.68535 -0.38075,0.98996c-0.68536,0.30461 -0.98997,-0.38075 -0.98997,-0.38075c-2.30812,-5.27026 -0.60459,-12.82317 5.19624,-14.65928c2.36839,1.85261 1.80482,5.71704 3.49777,8.24634l0.40694,0.4664c0,0 0.48809,0.56944 -0.08135,1.05754z" fill="#dc862a" stroke-width="0.5"/><path d="M333.6837,138.0713c-0.69636,0.27855 -0.9749,-0.41781 -0.9749,-0.41781l-0.3478,-0.90595c-0.02319,-1.56146 -0.06073,-3.06455 0.25249,-4.59983c0.24833,-0.5634 0.55487,-1.20029 0.75361,-1.7546c0.20298,-0.56614 -1.17005,0.31632 -1.77073,0.34628c-1.10601,0.05518 -2.30297,-0.10897 -3.36292,0.32728c-2.15454,0.88675 -3.00266,3.3699 -4.01882,5.21096c0,0 -0.36423,0.65561 -1.01985,0.29138c-0.65562,-0.36423 -0.29138,-1.01985 -0.29138,-1.01985c1.22071,-2.18078 2.22282,-4.80362 4.75041,-5.86597c0.91195,-0.3833 6.12794,-1.22216 6.86635,-0.24951c0.59627,0.78543 -0.13766,2.41132 -0.47716,3.16848c-0.25005,1.28556 -0.18093,2.55763 -0.20905,3.86171l0.26758,0.63252c0,0 0.27855,0.69635 -0.41782,0.9749z" fill="#dc862a" stroke-width="0.5"/><path d="M329.35596,156.70412c0.67082,0.33541 0.33541,1.00623 0.33541,1.00623l-0.29434,0.50261c-3.44399,3.43166 -5.45666,-0.10918 -7.10197,-2.91575c-1.28839,2.31689 -3.29098,3.75367 -6.33075,3.61679l-0.78178,-0.70104c0,0 -0.53033,-0.53033 0,-1.06066c0.53033,-0.53033 1.06066,0 1.06066,0l0.29514,0.37589c2.13766,-0.23498 3.47951,-1.24442 4.39428,-2.83846c-0.94723,0.59455 -2.03946,0.5973 -2.48066,-0.95951c-0.48086,-1.69676 3.20068,-3.778 4.37954,-2.52676c0.00741,0.00786 0.0147,0.01573 0.02189,0.02361c0.07106,-0.02754 0.1438,-0.05271 0.21779,-0.07532c0.3048,-0.15374 0.60993,-0.25606 0.87475,-0.29232c0,0 0.39207,-0.03921 0.63626,0.2234c0.72364,0.17911 1.30449,0.71581 1.33977,1.77012c0.03776,1.12854 -1.05571,1.92216 -2.17789,2.07002c1.03789,2.0471 2.30628,4.52464 4.59231,2.22933l0.01335,-0.11277c0,0 0.33541,-0.67082 1.00623,-0.33541z" fill="#2f1c09" stroke-width="0.5"/><path d="M316.40665,145.60829c0.22577,0.2463 0.24124,0.48345 0.18897,0.67073l0.04447,0.05151c0.00358,0.29915 0.02062,0.6758 0.01911,1.07894c0.01781,-0.00091 0.03607,-0.00138 0.0548,-0.00138c0.75,0 0.75,0.75 0.75,0.75l-0.0437,0.30602c-0.32018,0.70877 -0.35505,1.11652 -0.78483,1.29783c-0.05079,0.15774 -0.11548,0.30875 -0.19515,0.45046c0.17426,1.1273 -0.09693,2.08917 -2.08273,1.8075c-1.53071,-0.21712 -2.70913,-1.95399 -2.03517,-3.42035c0.09398,-1.44052 0.71837,-3.05903 1.2647,-3.79468c0,0 0.45,-0.6 1.05,-0.15c0.10181,0.07636 0.17338,0.15703 0.22206,0.23835c0.04361,-0.00789 0.08851,-0.01201 0.13439,-0.01201c0.18059,0 0.34627,0.06383 0.47573,0.17016c0.03771,-0.00583 0.07634,-0.00887 0.11568,-0.00887c0.30388,0 0.56554,0.18072 0.68338,0.44055c0.04618,0.03384 0.09243,0.0752 0.1383,0.12524z" fill="#ffffff" stroke-width="0.5"/><path d="M327.5432,147.26654c0.11647,-0.9971 0.9013,-3.35191 2.47798,-1.85946c0.32477,0.30742 0.45209,0.61942 0.43625,0.92297c0.88306,0.744 0.88526,2.63563 0.59896,3.72286c-0.22574,3.02273 -3.38109,2.80671 -4.52934,0.37609c-0.37531,-0.79446 -0.20468,-1.28977 0.09442,-1.68866c-0.06218,-0.00305 -0.11825,-0.01045 -0.16727,-0.02239c0,0 -0.72114,-0.20603 -0.5151,-0.92718c0.20604,-0.72115 0.92719,-0.51511 0.92719,-0.51511c0.26705,0.09833 0.48724,0.0759 0.67692,-0.00912z" fill="#ffffff" stroke-width="0.5"/><path d="M318.24319,148.98219c-0.53033,0.53033 -1.06066,0 -1.06066,0l-0.26664,-0.2983c-1.19714,-1.99765 -2.27611,-3.75159 -2.85372,-6.05012c0,0 -0.1819,-0.72761 0.5457,-0.90951c0.7276,-0.1819 0.90951,0.5457 0.90951,0.5457c0.53521,2.15308 1.56273,3.77429 2.68474,5.64219l0.04106,0.00939c0,0 0.53033,0.53033 0,1.06066z" fill="#2f1c09" stroke-width="0.5"/><path d="M325.14298,148.3836c-0.62404,-0.41602 -0.20801,-1.04007 -0.20801,-1.04007l0.44248,-0.48556c1.66544,-0.82361 2.84072,-2.03909 3.21744,-3.87094c0,0 0.15715,-0.73335 0.8905,-0.5762c0.73335,0.15715 0.57621,0.89049 0.57621,0.89049c-0.5077,2.29343 -1.92544,3.84465 -4.01333,4.89829l0.13478,-0.02402c0,0 -0.41602,0.62404 -1.04006,0.20802z" fill="#2f1c09" stroke-width="0.5"/><path d="M318.00829,146.76251c0.68936,0.29544 0.39392,0.98479 0.39392,0.98479l-0.22377,0.52157c-0.10435,0.26077 -0.20871,0.52154 -0.31307,0.78231c-0.40008,0.89888 -0.6054,2.05239 -1.27009,2.80561c-1.49017,1.68864 -4.59603,1.30076 -5.29149,-0.95332c-0.88804,-2.87825 0.93464,-5.75741 3.35252,-7.10722c0,0 0.65562,-0.36424 1.01985,0.29138c0.36423,0.65562 -0.29139,1.01985 -0.29139,1.01985c-1.83981,1.01646 -3.28035,3.13774 -2.64748,5.35431c0.30881,1.08159 2.03644,1.3012 2.70851,0.4313c0.52402,-0.67827 0.69298,-1.6487 1.0376,-2.42516c0.10077,-0.25205 0.20155,-0.5041 0.30232,-0.75615l0.23777,-0.55535c0,0 0.29544,-0.68936 0.9848,-0.39392z" fill="#2f1c09" stroke-width="0.5"/><path d="M328.99993,144.66975c0.3975,-0.636 1.0335,-0.2385 1.0335,-0.2385l0.77844,0.52234c1.50353,1.70262 2.45251,7.1228 -0.708,8.05594c-2.62724,0.77569 -5.1105,-3.32275 -5.14101,-5.40382c0,0 0,-0.75 0.75,-0.75c0.75,0 0.75,0.75 0.75,0.75c-0.02016,0.96766 1.75599,4.50824 3.16667,3.9808c1.92941,-0.7214 0.98437,-4.60574 0.06123,-5.63637l-0.45233,-0.24689c0,0 -0.636,-0.3975 -0.2385,-1.0335z" fill="#2f1c09" stroke-width="0.5"/><path d="M315.36991,150.10971c-0.5,0 -0.5,-0.5 -0.5,-0.5c0,-0.57348 0,-1.41577 0,-1.98925c0,0 0,-0.5 0.5,-0.5c0.5,0 0.5,0.5 0.5,0.5c0,0.57348 0,1.14695 0,1.72043v0.26882c0,0 0,0.5 -0.5,0.5z" fill="#000000" stroke-width="0.5"/><path d="M329.67099,149.89465c-0.5,0 -0.5,-0.5 -0.5,-0.5c0,-0.57348 0,-1.25448 0,-1.82796c0,0 0,-0.5 0.5,-0.5c0.5,0 0.5,0.5 0.5,0.5c0,0.57348 0,1.14695 0,1.72043v0.10753c0,0 0,0.5 -0.5,0.5z" fill="#000000" stroke-width="0.5"/></g></g></svg>