<svg version="1.1" xmlns="http://www.w3.org/2000/svg" xmlns:xlink="http://www.w3.org/1999/xlink" width="71.1818" height="70.02284" viewBox="0,0,71.1818,70.02284"><g transform="translate(-285.10758,-143.60147)"><g data-paper-data="{&quot;isPaintingLayer&quot;:true}" fill-rule="nonzero" stroke="none" stroke-linecap="butt" stroke-linejoin="miter" stroke-miterlimit="10" stroke-dasharray="" stroke-dashoffset="0" style="mix-blend-mode: normal"><path d="M289.59454,210.40547v-60.81093h60.81093v60.81093z" fill="#fedfb3" stroke-width="0"/><path d="M303.75329,160.52878c0,-0.41421 0.33579,-0.75 0.75,-0.75c0.41421,0 0.75,0.33579 0.75,0.75c0,0.41421 -0.33579,0.75 -0.75,0.75c-0.41421,0 -0.75,-0.33579 -0.75,-0.75z" fill="#fffbcf" stroke-width="0.5"/><path d="M301.02084,169.85097c-0.75,0 -0.75,-0.75 -0.75,-0.75l0.03849,0.10323c-0.08929,-0.26788 -0.17859,-0.53576 -0.26788,-0.80364c0,0 -0.23717,-0.71151 0.47434,-0.94868c0.71151,-0.23717 0.94868,0.47434 0.94868,0.47434c0.08929,0.26788 0.17859,0.53576 0.26788,0.80364l0.03849,0.37111c0,0 0,0.75 -0.75,0.75z" fill="#fffbcf" stroke-width="0.5"/><path d="M345.48366,165.74703c-0.53033,0.53033 -1.06066,0 -1.06066,0l0.15922,0.04724c-0.26788,-0.08929 -0.53576,-0.17859 -0.80364,-0.26788c0,0 -0.71151,-0.23717 -0.47434,-0.94868c0.23717,-0.71151 0.94868,-0.47434 0.94868,-0.47434c0.26788,0.08929 0.53576,0.17859 0.80364,0.26788l0.4271,0.31512c0,0 0.53033,0.53033 0,1.06066z" fill="#fffbcf" stroke-width="0.5"/><path d="M334.44736,160.62506c0.85625,0.17729 1.72622,0.31457 2.60319,0.42833l-0.26216,-0.26216c0,0 -0.53033,-0.53033 0,-1.06066c0.53033,-0.53033 1.06066,0 1.06066,0l0.6697,0.6697c0,0 0.39316,0.39316 0.16393,0.84096c0.42563,0.04386 0.85192,0.08463 1.27812,0.12414c0.48054,-0.21261 0.95533,-0.44111 1.42238,-0.6933c0,0 0.66035,-0.35557 1.01593,0.30478c0.13567,0.25196 0.12344,0.45956 0.05642,0.61996c0.59958,0.05912 1.19602,0.12299 1.78719,0.19687c0,0 0.74421,0.09303 0.65118,0.83723c-0.09303,0.74421 -0.83723,0.65118 -0.83723,0.65118c-1.26676,-0.15837 -2.55498,-0.27357 -3.84611,-0.39375c-1.22752,0.52147 -2.48557,0.95942 -3.75009,1.42715l-0.3549,0.13127c0,0 -0.70342,0.26019 -0.96361,-0.44323c-0.26019,-0.70342 0.44323,-0.96361 0.44323,-0.96361l0.3549,-0.13127c0.33344,-0.12334 0.66671,-0.24425 0.99922,-0.3651c-1.197,-0.15215 -2.38287,-0.3441 -3.54251,-0.61497l0.10406,-1.53487c0,0 0.59734,-0.29867 0.9465,0.23134z" fill="#fffbcf" stroke-width="0.5"/><path d="M313.69155,164.14517c0,0.75 -0.75,0.75 -0.75,0.75c-0.5,0 -1.77699,0 -2.27699,0c0,0 -0.09302,0 -0.21355,-0.03276c0.05142,0.24173 0.09047,0.45347 0.10829,0.60737l0.44706,0.37255c0.16745,0.13755 0.27426,0.34622 0.27426,0.57983c0,0.41421 -0.33579,0.75 -0.75,0.75c-0.07754,0 -0.15234,-0.01177 -0.2227,-0.03362l-0.83834,-0.23953c-1.29989,0.99331 -3.34748,2.01015 -4.14095,2.55305c0,0 -0.61898,0.42351 -1.04249,-0.19547c-0.42351,-0.61898 0.19547,-1.04249 0.19547,-1.04249c0.08935,-0.06113 0.21465,-0.13738 0.36705,-0.22564c-0.16896,-0.00604 -0.35698,-0.07889 -0.52919,-0.29414c-0.46852,-0.58565 0.11713,-1.05417 0.11713,-1.05417l0.6697,-0.53576c0,0 0.58565,-0.46852 1.05417,0.11713c0.46852,0.58565 -0.11713,1.05417 -0.11713,1.05417l-0.19648,0.15718c0.64229,-0.35291 1.38363,-0.76246 2.00314,-1.15183c-0.15959,-0.14605 -0.29933,-0.38963 -0.17395,-0.76576c0.23717,-0.71151 0.94868,-0.47434 0.94868,-0.47434c0.17224,0.05744 0.34448,0.11488 0.51673,0.17232c0.00478,-0.01023 0.00903,-0.02032 0.01273,-0.03024c0.2994,-0.80321 -0.56753,-1.61965 -0.78553,-2.44866l-0.03673,-0.13968c0,0 -0.19074,-0.72534 0.5346,-0.91608c0.72534,-0.19074 0.91608,0.5346 0.91608,0.5346l0.03673,0.13968c0.04452,0.16929 0.18102,0.66757 0.32563,1.23121c0.22044,-0.18893 0.51958,-0.18893 0.51958,-0.18893c0.5,0 1,0 1.5,0h0.77699c0,0 0.75,0 0.75,0.75z" fill="#fffbcf" stroke-width="0.5"/><path d="M311.70354,167.48915c-0.26334,-0.70225 0.4389,-0.96559 0.4389,-0.96559l0.82053,-0.24543c0.12158,-0.3214 0.24316,-0.64281 0.36474,-0.96421c0,0 0.3046,-0.68536 0.98996,-0.38075c0.68536,0.3046 0.38075,0.98996 0.38075,0.98996c-0.2356,0.48224 -0.47119,0.96448 -0.70679,1.44672l-1.32251,0.55821c0,0 -0.70225,0.26334 -0.96559,-0.4389z" fill="#fffbcf" stroke-width="0.5"/><path d="M301.07448,171.64584c0,-0.75 0.75,-0.75 0.75,-0.75h0.40182c1.16978,0.00073 2.17524,-0.13723 3.32531,-0.38517c0,0 0.73335,-0.15715 0.8905,0.5762c0.15715,0.73335 -0.5762,0.8905 -0.5762,0.8905c-1.25038,0.26641 -2.36607,0.41772 -3.6396,0.41847h-0.40182c0,0 -0.75,0 -0.75,-0.75z" fill="#fffbcf" stroke-width="0.5"/><path d="M292.40047,192.33692c-0.6,-0.45 -0.15,-1.05 -0.15,-1.05l0.31246,0.20968c-0.26788,-0.62506 -0.53576,-1.25011 -0.80364,-1.87517c0,0 -0.29544,-0.68936 0.39392,-0.9848c0.68936,-0.29544 0.9848,0.39392 0.9848,0.39392c0.26788,0.62506 0.53576,1.25011 0.80364,1.87517l-0.49118,1.2812c0,0 -0.45,0.6 -1.05,0.15z" fill="#fffbcf" stroke-width="0.5"/><path d="M293.03783,200.76745c-0.72622,0.18736 -0.91358,-0.53886 -0.91358,-0.53886l-0.23427,-0.90935c-0.10948,-0.56825 -0.17345,-1.1086 -0.20764,-1.64152c-0.07201,-0.06014 -0.13616,-0.14159 -0.18257,-0.25153c-0.23363,-0.10619 -0.46726,-0.21239 -0.70088,-0.31858c0,0 -0.68277,-0.31035 -0.37242,-0.99313c0.31035,-0.68277 0.99313,-0.37242 0.99313,-0.37242c0.07957,0.03617 0.15914,0.07233 0.23871,0.1085c0.00952,-0.38796 0.02507,-0.78406 0.0409,-1.19578c0,0 0.02882,-0.74945 0.77827,-0.72062c0.74945,0.02882 0.72062,0.77827 0.72062,0.77827c-0.05807,1.50995 -0.14109,2.79 0.15479,4.27526l0.22381,0.86617c0,0 0.18736,0.72622 -0.53886,0.91358z" fill="#fffbcf" stroke-width="0.5"/><path d="M308.82194,171.51644c0.26334,0.70225 -0.4389,0.96559 -0.4389,0.96559l-1.07152,0.40182c0,0 -0.70225,0.26334 -0.96559,-0.4389c-0.26334,-0.70225 0.4389,-0.96559 0.4389,-0.96559l1.07152,-0.40182c0,0 0.70225,-0.26334 0.96559,0.4389z" fill="#fffbcf" stroke-width="0.5"/><path d="M332.66206,172.8705c-0.55496,-0.5045 -0.05045,-1.05946 -0.05045,-1.05946l0.3304,-0.36344c0.99489,-1.05594 2.86603,-2.00904 4.75818,-2.37257l-0.05994,-0.24194c0,0 0,-0.75 0.75,-0.75c0.44688,0 0.62749,0.26627 0.70049,0.4815c0.47571,-0.3912 1.24372,-0.21237 1.97832,-0.21362c0,0 0.75,0 0.75,0.75c0,0.17156 -0.03925,0.30388 -0.09978,0.40593c0.19626,0.11545 0.38029,0.2494 0.54981,0.40314c0,0 0.53033,0.53033 0,1.06066c-0.53033,0.53033 -1.06066,0 -1.06066,0c-1.32632,-1.63002 -6.07417,0.23718 -7.15651,1.48591l-0.3304,0.36344c0,0 -0.5045,0.55496 -1.05946,0.05045z" fill="#fffbcf" stroke-width="0.5"/><path d="M342.73878,173.76013c0.1627,0.73214 -0.56944,0.89484 -0.56944,0.89484l-0.94665,0.21037c-1.50605,0.33145 -2.46987,0.73507 -3.76919,1.56541c0,0 -0.63275,0.40266 -1.0354,-0.23009c-0.40266,-0.63275 0.23009,-1.0354 0.23009,-1.0354c1.43713,-0.91099 2.58857,-1.39193 4.24911,-1.7642l0.94665,-0.21037c0,0 0.73214,-0.1627 0.89484,0.56944z" fill="#fffbcf" stroke-width="0.5"/><path d="M325.45702,176.28932c-0.0895,-0.74464 0.65514,-0.83414 0.65514,-0.83414l1.44484,-0.17348c2.37407,-0.18289 4.70221,-0.2337 7.08291,-0.2337c0,0 0.75,0 0.75,0.75c0,0.75 -0.75,0.75 -0.75,0.75c-2.33178,0 -4.61075,0.04789 -6.93585,0.22648l-1.4129,0.16999c0,0 -0.74464,0.0895 -0.83414,-0.65514z" fill="#fffbcf" stroke-width="0.5"/><path d="M317.81705,178.74469c0,-0.41421 0.33579,-0.75 0.75,-0.75c0.41421,0 0.75,0.33579 0.75,0.75c0,0.41421 -0.33579,0.75 -0.75,0.75c-0.41421,0 -0.75,-0.33579 -0.75,-0.75z" fill="#fffbcf" stroke-width="0.5"/><path d="M297.19021,193.47815c0,-0.18378 0.0661,-0.35212 0.17583,-0.48255l0.029,-0.20848c-0.06608,-0.49561 -0.13216,-0.99123 -0.19825,-1.48684c0,0 -0.09912,-0.74342 0.6443,-0.84254c0.74342,-0.09912 0.84254,0.6443 0.84254,0.6443c0.06608,0.49561 0.13216,0.99123 0.19825,1.48684l-0.0613,0.82848c0,0 -0.03747,0.38238 -0.33246,0.57296c-0.13687,0.14636 -0.3317,0.23784 -0.5479,0.23784c-0.41421,0 -0.75,-0.33579 -0.75,-0.75z" fill="#fffbcf" stroke-width="0.5"/><path d="M297.40445,196.90696c-0.75,0 -0.75,-0.75 -0.75,-0.75v-1.07152c0,0 0,-0.75 0.75,-0.75c0.75,0 0.75,0.75 0.75,0.75v1.07152c0,0 0,0.75 -0.75,0.75z" fill="#fffbcf" stroke-width="0.5"/><path d="M295.79262,199.93984c-0.70225,0.26334 -0.96559,-0.4389 -0.96559,-0.4389l-0.40182,-1.07152c0,0 -0.26334,-0.70225 0.4389,-0.96559c0.70225,-0.26334 0.96559,0.4389 0.96559,0.4389l0.40182,1.07152c0,0 0.26334,0.70225 -0.4389,0.96559z" fill="#fffbcf" stroke-width="0.5"/><path d="M302.07816,190.71106c0.62404,-0.41603 1.04006,0.20801 1.04006,0.20801l0.62954,1.00233c0.0083,0.26345 0.01661,0.5269 0.02491,0.79035l0.11235,0.15853c1.11101,4.44613 -2.54938,4.05444 -5.42501,5.80496c0,0 -0.64312,0.38587 -1.02899,-0.25725c-0.38587,-0.64312 0.25725,-1.02899 0.25725,-1.02899c2.05313,-1.21743 5.67972,-0.9277 4.82729,-3.87806c-0.08953,-0.08434 -0.14505,-0.18668 -0.17946,-0.28116c-0.06054,-0.12992 -0.10206,-0.30144 -0.04514,-0.48808c0.00706,-0.12854 0.01411,-0.25708 0.02117,-0.38562l-0.44198,-0.60496c0,0 -0.41603,-0.62404 0.20801,-1.04006z" fill="#fffbcf" stroke-width="0.5"/><path d="M316.51228,188.80443c-0.41603,0.62404 -1.04006,0.20801 -1.04006,0.20801c-1.24808,-0.83205 -3.17196,-2.11464 -4.42004,-2.94669c0,0 -0.62404,-0.41603 -0.20801,-1.04006c0.41603,-0.62404 1.04006,-0.20801 1.04006,-0.20801c1.24808,0.83205 2.49615,1.6641 3.74423,2.49615l0.67581,0.45054c0,0 0.62404,0.41603 0.20801,1.04006z" fill="#fffbcf" stroke-width="0.5"/><path d="M319.82616,184.63807c0,-0.41421 0.33579,-0.75 0.75,-0.75c0.41421,0 0.75,0.33579 0.75,0.75c0,0.41421 -0.33579,0.75 -0.75,0.75c-0.41421,0 -0.75,-0.33579 -0.75,-0.75z" fill="#fffbcf" stroke-width="0.5"/><path d="M330.43279,181.46801c-0.04451,0.74868 -0.79319,0.70416 -0.79319,0.70416l-0.47251,-0.02809c-1.80887,-0.10755 -3.13464,-0.26522 -4.55418,-0.77303l-0.04436,0.15523l-1.42631,-0.40763c-0.32213,-0.08418 -0.55985,-0.37717 -0.55985,-0.72568c0,-0.31286 0.19157,-0.58098 0.46381,-0.69346l1.35737,-0.59692l0.01513,0.03439l0.10647,-0.07585c0.54102,-0.04232 1.08205,-0.08464 1.62307,-0.12696c0,0 0.11347,-0.0081 0.25518,0.02619c0.18449,-0.01432 0.3691,-0.02349 0.55343,-0.02745l0.03717,-0.00056c0,0 0.74991,-0.01129 0.76121,0.73862c0.00701,0.46536 -0.27911,0.64629 -0.49726,0.71659c0.69153,0.10557 1.37551,0.22213 1.99815,0.25915l0.47251,0.02809c0,0 0.74868,0.04451 0.70416,0.79319z" fill="#fffbcf" stroke-width="0.5"/><path d="M327.8821,185.36235c-0.59033,-0.46261 -0.12772,-1.05294 -0.12772,-1.05294l0.88935,-1.03414c1.2059,-0.14631 2.4145,-0.27154 3.62448,-0.38517c-0.0137,-0.44271 0.42901,-0.66407 0.42901,-0.66407l1.01962,-0.5072c0.73129,-0.52589 1.32132,-1.07154 2.04285,-1.40934c-2.98772,-0.40249 -5.88625,-0.81323 -8.79017,-1.4701c-1.68387,-0.01312 -3.35969,-0.11561 -4.99211,-0.57902c0,0 -0.72114,-0.20604 -0.5151,-0.92718c0.20604,-0.72114 0.92718,-0.5151 0.92718,-0.5151c0.59397,0.17092 1.19691,0.28846 1.80554,0.36855c0.25228,-0.53989 0.86668,-0.3704 0.86668,-0.3704c0.70642,0.19487 1.41089,0.37109 2.11487,0.53222c0.90092,0.00075 1.80259,-0.02346 2.69479,-0.02346h1.2861c0,0 0.75,0 0.75,0.75c0,0.05997 -0.0048,0.11515 -0.01362,0.16591c1.44642,0.2278 2.90424,0.42601 4.38578,0.62502l1.47622,0.1983c0.37206,0.0442 0.66058,0.36077 0.66058,0.74472c0,0.25479 -0.12706,0.47991 -0.32127,0.61546l-1.21129,0.86782l-0.07052,-0.09843c-0.57519,0.50803 -1.16751,0.97006 -1.83395,1.45731c1.47285,-0.12353 2.94626,-0.24036 4.41781,-0.36753c0,0 0.74721,-0.06457 0.81179,0.68264c0.06457,0.74721 -0.68264,0.81179 -0.68264,0.81179c-3.38173,0.29225 -6.77619,0.69927 -10.16855,0.81639l-0.42276,0.64023c0,0 -0.46261,0.59033 -1.05294,0.12772z" fill="#fffbcf" stroke-width="0.5"/><path d="M338.71177,190.39752c0,-0.75 0.75,-0.75 0.75,-0.75l0.03071,0.03849c0.26788,-0.08929 0.53576,-0.17859 0.80364,-0.26788c0,0 0.12661,-0.0422 0.29081,-0.0376v-0.32242c0,0 0,-0.75 0.75,-0.75c0.75,0 0.75,0.75 0.75,0.75v0.80364c0,0 0,0.75 -0.75,0.75c-0.0741,0 -0.14088,-0.00732 -0.20106,-0.02052c-0.15394,0.17942 -0.36541,0.24991 -0.36541,0.24991c-0.26788,0.08929 -0.53576,0.17859 -0.80364,0.26788l-0.50505,0.03849c0,0 -0.75,0 -0.75,-0.75z" fill="#fffbcf" stroke-width="0.5"/><path d="M331.61292,189.72781c0,-0.41421 0.33579,-0.75 0.75,-0.75c0.41421,0 0.75,0.33579 0.75,0.75c0,0.41421 -0.33579,0.75 -0.75,0.75c-0.41421,0 -0.75,-0.33579 -0.75,-0.75z" fill="#fffbcf" stroke-width="0.5"/><path d="M321.51262,189.6614c-0.33541,-0.67082 0.33541,-1.00623 0.33541,-1.00623l0.72409,-0.3325c0.44647,-0.08929 0.89294,-0.17859 1.33941,-0.26788c0,0 0.73544,-0.14709 0.88252,0.58835c0.14709,0.73544 -0.58835,0.88252 -0.58835,0.88252c-0.44647,0.08929 -0.89294,0.17859 -1.33941,0.26788l-0.34744,0.20327c0,0 -0.67082,0.33541 -1.00623,-0.33541z" fill="#fffbcf" stroke-width="0.5"/><path d="M304.75338,201.35091c-0.50604,-0.55356 0.04752,-1.0596 0.04752,-1.0596l0.45872,-0.41368c0.12926,-0.09524 0.25228,-0.1863 0.36968,-0.27407c0.01871,-0.39757 0.34696,-0.71415 0.74916,-0.71415c0.0488,0 0.09652,0.00466 0.14272,0.01356c0.49778,-0.42215 0.87725,-0.82339 1.24164,-1.35634l-0.31999,-0.06525c-1.32241,-0.31311 -2.83396,-0.23962 -2.90704,-2.29722c-0.02294,-0.64576 0.6799,-1.09958 1.04497,-1.63274c1.04404,-1.52475 2.18486,-2.99515 3.31223,-4.46816l-0.12403,0.03306c-1.04111,-0.07921 -2.08198,-0.16169 -3.12249,-0.2484c0,0 -0.34031,-0.02836 -0.54253,-0.27644c-0.02795,0.0847 -0.07549,0.17363 -0.14894,0.26543c-0.46852,0.58565 -1.05417,0.11713 -1.05417,0.11713l-0.6697,-0.53576c0,0 -0.58565,-0.46852 -0.11713,-1.05417c0.46852,-0.58565 1.05417,-0.11713 1.05417,-0.11713l0.6697,0.53576c0,0 0.06732,0.05386 0.13806,0.14788c0.12161,-0.63364 0.79511,-0.57752 0.79511,-0.57752c0.9526,0.07938 1.90491,0.1623 2.85679,0.24987l0.764,-0.22497c0,0 0.39592,-0.11026 0.68322,0.12556c0.07443,-0.08967 0.49337,-0.54412 1.03776,-0.1383c0.60131,0.44825 0.15306,1.04956 0.15306,1.04956c-1.19533,1.60349 -2.39066,3.20698 -3.58599,4.81048c-0.51202,0.68686 -1.49532,1.1315 -1.64452,1.97511c-0.13675,0.7732 1.6413,0.78091 1.70715,0.79121l0.39308,0.08015c0,0 0.19365,0.03948 0.36187,0.17732c0.00763,-0.01516 0.01527,-0.0304 0.02294,-0.04573c0,0 0.07022,-0.14045 0.21067,-0.26068c-0.01411,-0.06186 -0.02197,-0.13078 -0.02197,-0.20755c0,-0.75 0.75,-0.75 0.75,-0.75c0.35717,0 0.71435,0 1.07152,0h0.34984l-0.04629,-0.08373c-0.19801,-0.47423 -0.39603,-0.94845 -0.59404,-1.42268c0,0 -0.28846,-0.69231 0.40385,-0.98077c0.69231,-0.28846 0.98077,0.40385 0.98077,0.40385c0.1866,0.44885 0.3732,0.8977 0.5598,1.34655l0.47539,0.85532c0,0 0.03783,0.06825 0.06706,0.17291c0.32359,0.08318 0.56272,0.37688 0.56272,0.72643c0,0.41421 -0.33579,0.75 -0.75,0.75c-0.15933,0 -0.30706,-0.04969 -0.42854,-0.13441c-0.23019,-0.00806 -0.434,-0.11985 -0.56611,-0.29007c-0.21473,0.1566 -0.47869,0.1566 -0.47869,0.1566c-0.23999,0 -0.72187,0 -1.12058,0c0.00323,0.21506 -0.08376,0.38905 -0.08376,0.38905c-0.59578,1.19156 -1.13857,1.96228 -1.85883,2.67076l0.37647,0.0077c0.4009,-0.16522 0.8018,-0.33043 1.20269,-0.49565c0,0 0.69636,-0.27854 0.9749,0.41781c0.27854,0.69636 -0.41781,0.9749 -0.41781,0.9749c-0.49204,0.19196 -0.98408,0.38391 -1.47612,0.57587l-0.94547,0.01353c0,0 -0.64842,0 -0.73944,-0.60291c-0.25343,0.2002 -0.52811,0.4073 -0.82901,0.62902l-0.33645,0.31322c0,0 -0.55356,0.50604 -1.0596,-0.04752z" fill="#fffbcf" stroke-width="0.5"/><path d="M333.36624,201.39379c-0.14709,0.73544 -0.88252,0.58835 -0.88252,0.58835c-0.49029,-0.09806 -1.51882,-0.30376 -2.00911,-0.40182c0,0 -0.02084,-0.00417 -0.05479,-0.01461c-0.11385,0.02917 -0.19994,0.02917 -0.19994,0.02917l-1.0322,-0.00599c-0.88273,-0.22362 -1.76364,-0.45441 -2.6435,-0.68903c0,0 -0.72468,-0.19325 -0.53143,-0.91792c0.19325,-0.72468 0.91792,-0.53143 0.91792,-0.53143c0.81525,0.2174 1.63059,0.43447 2.44624,0.65037l0.84297,-0.00599c0,0 0.08047,0 0.18869,0.02636c0.19178,-0.04548 0.36022,-0.01179 0.36022,-0.01179c0.49029,0.09806 0.98058,0.19612 1.47087,0.29417l0.53824,0.10765c0,0 0.73544,0.14709 0.58835,0.88252z" fill="#fffbcf" stroke-width="0.5"/><path d="M343.57995,204.13965c-0.01807,0.07097 -0.03603,0.1419 -0.05389,0.21281c-0.28313,-0.05623 -0.56648,-0.13005 -0.84038,-0.22701c0.29807,0.00909 0.59627,0.01348 0.89427,0.0142z" fill="#fffbcf" stroke-width="0.5"/><path d="M329.46988,191.46904c0,-0.41421 0.33579,-0.75 0.75,-0.75c0.41421,0 0.75,0.33579 0.75,0.75c0,0.41421 -0.33579,0.75 -0.75,0.75c-0.41421,0 -0.75,-0.33579 -0.75,-0.75z" fill="#fffbcf" stroke-width="0.5"/><path d="M333.63873,197.21633c-0.12179,0.74005 -0.86184,0.61826 -0.86184,0.61826l-0.63542,-0.15992c-1.51362,-0.93791 -2.2406,-1.9409 -3.31871,-3.33611c0,0 -0.45859,-0.59346 0.13488,-1.05205c0.59346,-0.45859 1.05205,0.13488 1.05205,0.13488c0.96403,1.24756 1.55155,2.16051 2.91209,2.97222l0.09869,-0.03911c0,0 0.74005,0.12179 0.61826,0.86184z" fill="#fffbcf" stroke-width="0.5"/><path d="M345.36059,157.31964c0.29232,-0.29232 0.58463,-0.26238 0.78814,-0.17664c0.01708,-0.10192 0.03357,-0.20427 0.04961,-0.30719l-0.83336,-0.15794c-0.21141,0.16327 -0.44959,0.341 -0.71261,0.55174l-0.1681,0.13448c0,0 -0.58565,0.46852 -1.05417,-0.11713c-0.46852,-0.58565 0.11713,-1.05417 0.11713,-1.05417l0.1681,-0.13448c0.08292,-0.06623 0.16797,-0.12741 0.2531,-0.18508c-0.68496,-0.42773 -1.28738,-0.91294 -1.73599,-1.67407c-0.85009,-0.77208 -0.90161,-1.59049 -0.70038,-3.01835c0,0 0.10607,-0.74246 0.84853,-0.6364c0.74246,0.10607 0.6364,0.84853 0.6364,0.84853c-0.11809,0.81436 -0.25601,1.21079 0.07619,1.59504c0.15912,0.07124 0.26929,0.19655 0.33051,0.28243c0.06998,0.04783 0.14829,0.09688 0.23576,0.14783l0.72742,0.23775c0,0 0.71151,0.23717 0.47434,0.94868c-0.00835,0.02506 -0.01729,0.04894 -0.02677,0.0717c0.07806,0.04497 0.15717,0.08914 0.23687,0.13309c0.00433,-0.09512 -0.01229,-0.20029 -0.05412,-0.31865c0,0 -0.1233,-0.7398 0.6165,-0.86309c0.47028,-0.07838 0.69144,0.19202 0.79016,0.39944c0.08763,-0.19831 0.27442,-0.40965 0.67255,-0.40965c0.75,0 0.75,0.75 0.75,0.75l-0.00166,1.52319c-0.00569,0.04305 -0.01139,0.08596 -0.0171,0.12873c0.0262,0.09962 0.03206,0.21769 0.00666,0.35742c-0.01968,0.10825 -0.05235,0.19773 -0.09378,0.27162c-0.09833,0.67914 -0.20948,1.33097 -0.36339,1.9875c0.47791,1.10664 0.19993,2.16928 0.44586,3.58205c0.17745,1.0194 1.32692,2.17581 1.97702,2.90223c0,0 0.49827,0.56056 -0.06228,1.05883c-0.56056,0.49827 -1.05883,-0.06228 -1.05883,-0.06228c-0.42134,-0.47689 -0.9556,-1.06036 -1.40862,-1.68885l0.04037,0.11905c-0.11065,0.90534 1.32644,1.28346 1.79204,2.06774c0.27934,0.47054 -0.05589,2.18647 -0.1141,2.58072c-0.36023,2.43963 -1.92961,4.48627 -3.33972,6.52207c0.19484,0.13546 0.32238,0.36095 0.32238,0.61623c0,0.41421 -0.33579,0.75 -0.75,0.75c-0.1914,0 -0.36605,-0.07169 -0.49857,-0.18969c-0.13329,0.06771 -0.30364,0.10366 -0.50294,0.03807c-0.07733,0.01719 -0.16558,0.02349 -0.26625,0.0151c-0.74741,-0.06228 -0.68513,-0.80969 -0.68513,-0.80969c0.04152,-0.49827 0.08305,-0.99655 0.12457,-1.49482l0.00937,-0.11247c0,0 0.06228,-0.74741 0.80969,-0.68513c0.37892,0.03158 0.54973,0.23925 0.62605,0.43635c1.17755,-1.64814 2.40166,-3.37575 2.66561,-5.29815c0.07722,-0.56239 0.60681,-1.22878 0.26528,-1.68222c-0.4404,-0.5847 -1.5088,-0.52831 -1.85697,-1.17221c-0.25133,-0.46478 -0.06754,-1.05461 -0.10132,-1.58191l-0.21424,-0.39116c0,0 -0.27854,-0.69636 0.41781,-0.9749c0.21228,-0.08491 0.38573,-0.07923 0.52429,-0.03029c-0.07439,-0.18702 -0.13209,-0.3744 -0.1687,-0.56076c-0.14834,-0.75524 -0.04785,-1.4507 -0.05545,-2.10505c-0.07827,-0.00194 -0.16435,-0.0167 -0.25878,-0.04818c-0.71151,-0.23717 -0.47434,-0.94868 -0.47434,-0.94868c0.07557,-0.22494 0.14305,-0.44653 0.20395,-0.66626c-0.08227,-0.10152 -0.1769,-0.20233 -0.28565,-0.30252l-0.13894,-0.13889c0,0 -0.53033,-0.53033 0,-1.06066z" fill="#fffbcf" stroke-width="0.5"/><path d="M340.74027,165.96775c0.45441,-0.59667 1.05108,-0.14226 1.05108,-0.14226l1.09578,0.83452c1.80146,1.37195 2.58115,1.53664 2.68226,3.9143c0,0 0,0.75 -0.75,0.75c-0.75,0 -0.75,-0.75 -0.75,-0.75c0.11385,-1.70456 -0.76876,-1.71392 -2.09108,-2.72097l-1.09578,-0.83452c0,0 -0.59667,-0.45441 -0.14226,-1.05108z" fill="#fffbcf" stroke-width="0.5"/><path d="M309.78062,153.16205c0,-0.75 0.75,-0.75 0.75,-0.75h0.6697c0.77445,0.0034 1.54916,0.12031 2.30575,0.28574c0,0 0.73214,0.1627 0.56944,0.89484c-0.1627,0.73214 -0.89484,0.56944 -0.89484,0.56944c-0.64895,-0.14686 -1.315,-0.2535 -1.98035,-0.25002h-0.6697c0,0 -0.75,0 -0.75,-0.75z" fill="#fffbcf" stroke-width="0.5"/><path d="M318.51341,152.62629c0,0.75 -0.75,0.75 -0.75,0.75c-0.5,0 -2.04487,0 -2.54487,0c0,0 -0.75,0 -0.75,-0.75c0,-0.75 0.75,-0.75 0.75,-0.75c0.5,0 1,0 1.5,0h1.04487c0,0 0.75,0 0.75,0.75z" fill="#fffbcf" stroke-width="0.5"/><path d="M315.9885,181.60511c0.48809,-0.56944 1.05754,-0.08135 1.05754,-0.08135l1.1125,1.02249c0.07211,0.49108 0.14423,0.98216 0.21634,1.47324c0,0 0.08282,0.74541 -0.66259,0.82824c-0.74541,0.08282 -0.82824,-0.66259 -0.82824,-0.66259c-0.01718,-0.31256 -0.03436,-0.62513 -0.05154,-0.93769l-0.76267,-0.58479c0,0 -0.56944,-0.48809 -0.08135,-1.05754z" fill="#fffbcf" stroke-width="0.5"/><path d="M324.45577,194.31082c-0.69873,-0.27254 -0.42619,-0.97127 -0.42619,-0.97127l0.09499,-0.24353c0.92473,-2.37078 1.68806,-4.83196 3.05163,-6.98543c0,0 0.40266,-0.63275 1.0354,-0.23009c0.63275,0.40266 0.23009,1.0354 0.23009,1.0354c-1.31631,2.05716 -2.03342,4.4531 -2.91966,6.7252l-0.09499,0.24353c0,0 -0.27254,0.69873 -0.97127,0.42619z" fill="#fffbcf" stroke-width="0.5"/><path d="M333.43893,188.42201c0.6361,-0.39734 1.03344,0.23876 1.03344,0.23876l-0.00314,0.13168c2.49154,1.59481 5.03746,3.05665 7.80664,4.11963c0,0 0.70001,0.26923 0.43077,0.96924c-0.26923,0.70001 -0.96924,0.43077 -0.96924,0.43077c-2.86312,-1.10326 -5.499,-2.60624 -8.07683,-4.25629l-0.4604,-0.60036c0,0 -0.39734,-0.6361 0.23876,-1.03344z" fill="#fffbcf" stroke-width="0.5"/><path d="M307.78388,152.63997c0,0.75 -0.75,0.75 -0.75,0.75h-1.20653c-3.39372,-0.0104 -7.3242,0.08481 -10.54953,-0.97607c0,0 -0.71151,-0.23717 -0.47434,-0.94868c0.23717,-0.71151 0.94868,-0.47434 0.94868,-0.47434c3.04362,1.02988 6.86678,0.89071 10.07732,0.8991h1.2044c0,0 0.75,0 0.75,0.75z" fill="#fffbcf" stroke-width="0.5"/><path d="M316.53151,212.15739l-1.3535,0.13535c-0.06744,0.03867 -0.13499,0.07704 -0.20256,0.11519c-1.5162,0.85599 -3.34559,1.30741 -5.08349,1.20103c-0.75019,-0.04592 -1.36,-0.61918 -2.01542,-1.03298c-0.33669,-0.01209 -0.63944,-0.15734 -0.85717,-0.38467c-0.05805,-0.01291 -0.11689,-0.02297 -0.17661,-0.02982c-0.53908,-0.06187 -0.86426,0.91319 -1.40044,0.82986c-0.86469,-0.13439 -1.56688,-0.74788 -2.17403,-1.45097h-0.94277c0,0 0,0 0,0c0,0 0,0 0,0c-0.25489,0 -0.49196,-0.07629 -0.68963,-0.20728c-0.66268,0 -1.32535,0 -1.98803,0c-1.94359,0.77958 -4.6262,3.37511 -6.77479,1.42353c-0.37263,-0.33847 -0.44092,-0.82913 -0.35721,-1.35678c-0.12898,0.00026 -0.25788,-0.00012 -0.38664,-0.00126c-0.01889,0.00851 -0.03775,0.01709 -0.05658,0.02577c-0.45173,0.20811 -1.18352,0.54772 -1.96286,0.80647c-0.00133,0.34838 -0.14241,0.76498 -0.69876,1.04316c-1.11803,0.55902 -1.67705,-0.55902 -1.67705,-0.55902l-0.0843,-0.21413c-0.22088,-0.06849 -0.41278,-0.18049 -0.5639,-0.34677c-0.59455,-0.65423 -0.28088,-1.87823 0.2832,-2.68408c0.24792,-1.45037 0.6602,-2.81428 0.64761,-4.36172c0.01322,-1.52264 1.09439,-4.42368 0.53794,-5.88434c-0.36021,-0.94553 -1.41419,-1.70157 -1.36325,-2.71211c0.04733,-0.93902 0.99761,-1.61592 1.28398,-2.51146c0.34087,-1.06596 -0.83757,-2.08866 -1.06157,-3.18514c-0.01439,-0.07042 -0.03557,-3.35948 0.0011,-3.54918c0.35019,-1.81182 0.80264,-3.22177 1.02547,-5.1097c0.09414,-0.79755 0.78404,-1.60894 0.4944,-2.35797c-0.07495,-0.19384 -0.3867,0.23468 -0.59125,0.19789c-0.57852,-0.10406 -1.18994,-0.24593 -1.65735,-0.60236c-1.66532,-1.26991 -1.29829,-1.78084 -1.36103,-3.60137c0.34553,-2.21029 1.15569,-3.80535 2.95608,-5.24259c0.03261,-0.02603 0.06518,-0.05212 0.09771,-0.07826c0.13938,-0.15632 0.29682,-0.28793 0.47489,-0.38822c0.67661,-0.56327 1.33107,-1.15462 1.94135,-1.78786c0.02372,-0.15993 0.04293,-0.31698 0.05704,-0.47044c-0.45074,0.01367 -0.92736,0.11174 -1.2257,-0.18066c-0.58412,-0.5725 -0.38273,-1.61901 -0.81112,-2.31575c-0.6793,-1.10481 -3.89892,-3.02924 -3.69878,-4.64852c0.04479,-0.36242 1.48582,-1.95188 2.28008,-2.77548c-0.20958,-0.77268 -0.31535,-1.55692 -0.25512,-2.33158c-0.5141,-1.08228 -0.4954,-2.01168 -0.1305,-2.76283c-0.08156,-0.29193 -0.09007,-0.58841 0.01454,-0.89334c0.07548,-0.22001 1.16808,-0.84875 2.31952,-1.36146c-0.30322,-0.22808 -0.49932,-0.59093 -0.49932,-0.99958c0,-0.62742 0.46225,-1.14687 1.06477,-1.23637l1.22344,-0.20391l0.00538,0.03226c0.89224,-0.42496 1.851,-0.58119 2.60394,0.15802c1.35092,0 2.70183,0 4.05275,0l0.7152,-0.20613c0.1522,-0.25865 0.35874,-0.54278 0.62746,-0.8553c1.26616,-1.47253 3.90724,-1.26523 5.5343,-1.31307c1.68954,-0.04968 3.3443,0.49429 5.01927,0.72122c2.91815,0.39537 6.45389,-1.66796 9.43909,-0.6068c0.07036,0.02501 0.13944,0.0525 0.20737,0.08221l0.0085,-0.02268l1.63095,0.61161c0.42307,0.14747 0.74257,0.51592 0.82025,0.96708c1.10948,0 2.21896,0 3.32844,0c0,0 0,0 0,0c0.41457,0 0.82914,0 1.24371,0c1.56892,0 3.11393,-0.24233 4.52283,-0.08573c0.81707,0.02588 1.65056,0.07604 2.49328,0.0845c0.11555,-0.00004 0.2311,-0.00008 0.34666,-0.00013c0.22878,-0.25373 0.56007,-0.41322 0.92861,-0.41322h0.83892c-0.01058,-0.06544 -0.01607,-0.13257 -0.01607,-0.20099c0,-0.69036 0.55964,-1.25 1.25,-1.25h1.45099c1.92952,0 4.07377,0.29799 5.97596,0.02376c1.13072,-0.16301 4.64231,-2.73547 5.59995,-2.15599c0.33834,0.20474 0.61501,2.23801 0.76178,3.54558l0.55207,0.01527c0.67635,0.0161 1.21969,0.56942 1.21969,1.24964c0,0.32571 -0.12457,0.62232 -0.32867,0.84479c0.17936,0.19916 0.2956,0.4563 0.31721,0.73989l0.13602,1.56006c0.15051,0.18025 0.29913,0.34395 0.45037,0.47471c0.55662,0.48124 3.10189,1.41529 3.23809,1.88524c0.65834,2.27145 -0.57348,3.62983 -2.15287,4.34381c0.0006,0.04482 0.00122,0.08964 0.00187,0.13445l0.02051,0.02563l-0.0199,0.01592c0.00289,0.19705 0.00618,0.39404 0.00976,0.59097c0.25527,0.60368 0.55501,1.19845 0.59995,1.84432c0.0352,0.50597 -0.25283,0.95979 -0.53409,1.41676c0.01352,0.8336 0.02058,1.66498 0.01226,2.49334c0.24447,0.36551 0.48945,0.73227 0.51574,1.14884c0.05273,0.8355 -0.33502,1.61404 -0.67372,2.4045c-0.08389,0.96574 -0.20713,1.9256 -0.38442,2.87821c0.03752,0.2435 0.0822,0.48761 0.12441,0.73158l0.09877,0.0079l-0.03205,0.40056c0.08126,0.54307 0.12352,1.08341 0.02014,1.61273c-0.03822,0.19568 -0.10743,0.3837 -0.19741,0.56629c-0.05504,0.36644 -0.26914,0.68081 -0.56977,0.87057c-0.56363,0.73669 -1.19931,1.44139 -1.08649,2.29388c0.09708,0.7335 1.30596,1.09225 1.25562,1.83043c-0.08765,1.28531 -1.77935,1.91616 -2.33976,3.07617c-0.29269,0.60585 0.45814,1.26557 0.66534,1.90572c0.00423,2.11987 -0.35483,4.39635 -0.84223,6.48021c-0.2615,1.11803 -1.13943,2.93035 -0.83335,4.21162c0.45535,1.90609 1.47694,3.49976 1.86556,5.3894c0.28165,1.36951 0.25013,4.14805 -0.50518,5.39034c-0.18662,0.30694 -0.79041,0.25147 -0.93278,0.56213c0.02598,0.02635 0.03987,0.04371 0.03987,0.04371l0.05196,0.06494c0.18563,-0.05006 0.54681,-0.24937 0.68651,-0.13c1.44833,1.23761 3.211,3.17558 1.02494,5.09637c-0.993,0.8725 -4.07383,0.0268 -5.29847,-0.16259c-2.1474,0.35991 -2.94804,1.72856 -5.46772,0.94136c-0.75806,-0.23683 -0.82544,-1.96866 -1.59449,-1.77041c-0.2592,0.06682 -0.20406,0.5397 -0.43504,0.67496c-1.64965,0.9661 -4.62856,1.3641 -6.48526,0.94987c-0.88813,-0.19814 -1.46266,-1.1211 -2.308,-1.45791c-0.88405,-0.35224 -2.00917,1.58586 -2.39105,1.74672c-0.7865,0.33131 -1.70654,0.52952 -2.538,0.33713c-0.88245,-0.20419 -1.72994,-0.73123 -2.31944,-1.42164l-1.14241,0c-0.45519,0 -0.85356,-0.24331 -1.07214,-0.60697c-0.37214,0.66631 -0.52953,1.58874 -1.22728,1.78653c-0.8329,0.2361 -1.6243,-0.55629 -2.43364,-0.90402c-0.19945,0.19067 -0.46192,0.31596 -0.753,0.34149zM291.33484,208.83035c0.45966,-0.16781 0.93117,-0.30388 1.36313,-0.40561c-0.10979,-0.08139 -0.17249,-0.16499 -0.17249,-0.16499l-0.02737,-0.03649c-1.40985,-1.9101 -1.09866,-3.42486 -1.75105,-5.37646c-0.12673,0.76721 -0.23862,1.52572 -0.23047,2.26145c-0.00876,1.32845 -0.31471,2.51919 -0.5525,3.73233c0.48195,-0.00921 0.96653,-0.01079 1.37075,-0.01023zM305.24811,208.40391c0.19959,-0.04543 0.40017,-0.08379 0.60126,-0.1147v-0.07799l1.45099,0c0.40434,0 0.76385,0.19198 0.99233,0.48977c1.85989,-0.08241 3.71674,-0.18735 5.59412,-0.26587c0.85762,-0.03587 1.71973,-0.04246 2.58339,-0.04069c0.48297,-0.18498 0.95913,-0.24863 1.41706,-0.10695c0.08543,0.02643 0.16104,0.06561 0.22872,0.11507c0.56848,0.0026 1.13682,0.00308 1.70419,-0.00452c1.06487,-0.9787 2.75072,-1.86234 4.09323,-1.03967c0.25237,0.15465 0.43553,0.38976 0.58352,0.66394c0.371,-0.06545 0.74053,-0.14186 1.10835,-0.23098c-0.07752,-0.03141 -0.15513,-0.0641 -0.23284,-0.0981c0,0 -0.30933,-0.13533 -0.42209,-0.43193c-2.38946,-0.45902 -4.79965,-0.78782 -7.20437,-1.15029c-0.2777,0.00968 -0.55846,0.01877 -0.84268,0.02764l-0.31483,0.00982c0,0 -0.44308,0.01381 -0.65858,-0.32045c-0.27352,-0.04442 -0.54689,-0.08982 -0.82006,-0.13643c-0.34298,0.32392 -0.67896,0.64124 -0.97645,0.9222c0,0 -0.54526,0.51497 -1.06023,-0.03029c-0.33348,-0.35309 -0.22235,-0.69348 -0.1026,-0.88956c-0.7576,0.34365 -1.49874,0.46492 -2.23603,0.43449c0.01917,0.08341 0.02521,0.17957 0.01296,0.29037c-0.08239,0.74546 -0.82785,0.66307 -0.82785,0.66307l-0.02218,-0.00245c-0.80927,-0.09645 -2.80164,-0.11345 -3.34742,-1.15915c-1.11021,0.78055 -2.2508,1.57983 -3.45792,2.16749c0.73169,0.07325 1.45294,0.17628 2.15601,0.31614zM334.57915,209.87225c0.97903,-0.09086 2.43873,-0.19787 3.41981,-0.67771c0.28579,-0.13978 0.53606,-0.39277 0.79428,-0.60725c-2.15993,0.15241 -4.38858,0.38039 -6.56887,0.39492c0.65382,0.48306 0.87665,1.02722 2.35478,0.89004zM342.18796,210.17194c1.10888,0.41896 2.87093,-0.68502 4.11963,-1.04678c-1.92175,-0.1112 -3.82023,-0.29319 -5.74297,-0.45511c0.52694,0.49695 0.96001,1.25127 1.62334,1.50189zM350.49196,209.707c0.27433,0.02475 0.06348,-0.20698 -0.25093,-0.47752h-0.59264c-0.70518,0 -1.40384,-0.01585 -2.09819,-0.04334c0.98274,0.18642 1.99916,0.43581 2.94176,0.52086zM347.75143,207.27513c-0.1905,-1.2069 1.27687,-2.164 1.42622,-3.37668c0.10874,-0.88299 -0.01582,-1.55063 -0.18858,-2.20888c-0.10502,1.06731 -0.30335,2.1177 -0.63827,3.14281c0,0 -0.23717,0.71151 -0.94868,0.47434c-0.23742,-0.07914 -0.36921,-0.21109 -0.43943,-0.35181c-0.09208,0.00382 -0.17396,-0.01098 -0.2462,-0.03752c-0.10248,0.18944 -0.26385,0.29875 -0.26385,0.29875c-1.15504,0.78245 -2.32984,1.55966 -3.5515,2.1571c1.68441,0.14398 3.36405,0.27367 5.07399,0.32853c-0.11545,-0.11768 -0.19672,-0.25576 -0.22369,-0.42665zM347.30426,194.01906c0.00258,-0.04077 0.00538,-0.08152 0.00841,-0.12224c-0.21446,-2.31586 -0.4046,-4.61589 -0.15183,-6.78779c0.09153,-0.78643 0.36001,-1.83135 0.45495,-2.84554c-0.05295,0.04342 -0.11692,0.08302 -0.19395,0.1169c-0.32787,1.35129 -0.6624,2.69386 -0.92176,4.01861c-0.57543,2.93924 -0.92717,5.78988 -1.14172,8.71065c0.02527,-0.27163 0.05054,-0.54327 0.07581,-0.8149l0.11896,-1.27879c0,0 0.06947,-0.74678 0.81624,-0.67731c0.74678,0.06947 0.67731,0.81624 0.67731,0.81624c-0.13894,1.49355 -0.39683,4.26589 -0.53576,5.75944c0,0 -0.06947,0.74678 -0.81624,0.67731c-0.27034,-0.02515 -0.43371,-0.13906 -0.53213,-0.27417c-0.09092,0.12071 -0.23725,0.22339 -0.4708,0.2655c-0.55527,0.10011 -0.76812,-0.29283 -0.8395,-0.49363c0.00785,0.34442 -0.27571,0.59018 -0.27571,0.59018c-0.69982,0.60651 -3.57778,3.86038 -4.53615,3.66521c-1.2998,-0.2647 -3.72351,-3.09692 -4.80054,-4.00399c-0.38508,-0.32431 -1.22704,-0.48831 -1.14496,-0.98503c0.21562,-1.30486 3.6873,-2.86506 5.11312,-3.63216c0.12447,-0.45083 0.64235,-0.50837 0.64235,-0.50837c0.63683,-0.02908 1.24522,-0.51081 1.60839,-1.03475l0.42484,-0.55229c0,0 0.45728,-0.59447 1.05175,-0.13718c0.59447,0.45728 0.13718,1.05175 0.13718,1.05175l-0.42484,0.55229c-0.5101,0.61924 -1.20689,1.15889 -1.97139,1.43946c-0.10476,0.13207 -0.2233,0.20319 -0.2233,0.20319l-0.1595,0.0957c-0.50193,0.30116 -1.19508,0.84444 -1.93442,1.34248c2.20588,-0.36962 4.30745,-1.0598 6.47534,-1.78216c0.21603,-3.11889 0.58129,-6.15529 1.19379,-9.28376c0.31231,-1.59516 0.74672,-3.22615 1.14175,-4.86818c-0.26058,-0.92703 -0.40338,-1.8769 -0.5859,-2.83202c-0.51249,-0.39379 -1.04852,-0.74286 -1.67864,-0.95844l-0.13927,-0.11313c-0.02323,0.27878 -0.04648,0.55771 -0.06735,0.80822c0,0 -0.00401,0.0481 -0.0222,0.11889c0.49868,-0.07838 0.74877,0.42005 0.74877,0.42005l0.62926,1.27745c0.19194,1.67075 -0.15861,2.98364 -1.01955,4.07939l0.00729,0.0243c0.42899,1.44674 0.50718,2.38724 0.5953,3.8852c0,0 0.04404,0.74871 -0.70466,0.79275c-0.74871,0.04404 -0.79275,-0.70466 -0.79275,-0.70466c-0.00203,-0.03453 -0.00404,-0.06868 -0.00602,-0.10245c-0.37418,-0.04222 -0.66498,-0.35977 -0.66498,-0.74523c0,-0.34655 0.23504,-0.6382 0.55441,-0.72424c-0.04608,-0.40841 -0.11128,-0.79998 -0.21783,-1.24121c-0.06024,0.04565 -0.12163,0.09092 -0.18417,0.13583c-0.02609,0.0213 -0.05365,0.04088 -0.08249,0.05856c-0.1287,0.09033 -0.26211,0.17921 -0.4002,0.26676c0,0 -0.63874,0.39307 -1.03182,-0.24567c-0.39307,-0.63874 0.24567,-1.03182 0.24567,-1.03182c0.09545,-0.05651 0.18907,-0.11487 0.28064,-0.17507c0.05687,-0.05359 0.12211,-0.09839 0.19355,-0.13224c0.18826,-0.13368 0.36647,-0.27568 0.53247,-0.42592l-0.04701,-0.1567c-1.29331,0.19488 -2.58663,0.38977 -3.87994,0.58465c0.01874,0.05682 0.03267,0.12039 0.04057,0.19149c0.08282,0.74541 -0.66259,0.82824 -0.66259,0.82824c-0.84181,0.0904 -1.67173,0.30429 -2.47414,0.57438l-0.58608,0.19536c0,0 -0.71151,0.23717 -0.94868,-0.47434c-0.09319,-0.27958 -0.03991,-0.48593 0.05913,-0.63342c-0.10158,-0.10434 -0.15238,-0.20593 -0.15238,-0.20593l0.42513,-1.34492c3.14093,-0.47329 6.28186,-0.94658 9.42279,-1.41987c0.11595,-0.43574 0.14416,-0.90705 0.06431,-1.41327l-0.53591,-1.04467c0,0 -0.12618,-0.25148 -0.06995,-0.52366c-0.03956,0.00166 -0.0814,0.00081 -0.12563,-0.00287c-0.74741,-0.06228 -0.68513,-0.80969 -0.68513,-0.80969c0.04152,-0.49827 0.08305,-0.99655 0.12457,-1.49482l0.00937,-0.11247c0,0 0.06228,-0.74741 0.80969,-0.68513c0.14415,0.01201 0.25818,0.04951 0.34834,0.10221c0.48082,-0.32766 0.92334,0.11487 0.92334,0.11487l0,0.00001l-0.01101,0.09161c0.16923,0.06201 0.33246,0.13042 0.49076,0.2044c-0.0593,-0.21962 -0.05803,-0.54277 0.31512,-0.79154c0.62404,-0.41603 1.04006,0.20801 1.04006,0.20801l0.36221,0.60234c0.12559,0.41862 0.22336,0.84459 0.30847,1.27277c0.14616,-0.98194 0.23504,-1.96118 0.23227,-2.93243c0,0 0,-0.75 0.75,-0.75c0.75,0 0.75,0.75 0.75,0.75c-0.00354,1.37884 -0.17687,2.76671 -0.43303,4.15394c0.17584,0.24212 0.31815,0.4918 0.43207,0.74787c0.64362,-0.68781 2.07359,-0.9949 1.96036,-1.89121c-0.08064,-0.63834 -1.1986,-0.84356 -1.2318,-1.48612c-0.05853,-1.13309 0.70698,-2.1061 1.29119,-3.13057c-0.28876,-0.22897 -0.47396,-0.58285 -0.47396,-0.98v-2.48742h0.04542c0.01016,-0.22782 0.02033,-0.45561 0.03056,-0.68335c-0.35137,-1.26604 -0.07597,-2.62769 -0.07597,-4.31665c0,-0.75174 0.00507,-1.50461 0.01184,-2.25818c-0.09362,-0.59828 -0.20098,-1.19372 -0.32597,-1.78517c-0.026,-0.06069 -0.04732,-0.12386 -0.06354,-0.18904l-0.61471,-2.25393l0.04624,-0.01261c-0.50274,-1.71346 -1.03938,-3.35516 -1.12515,-5.22885c-0.01056,-0.23061 -0.05016,-0.85085 -0.04423,-1.57808c-0.26674,-0.21949 -0.26674,-0.59597 -0.26674,-0.59597c0.0014,-0.7534 0.29539,-1.4717 -0.43951,-1.76781l-0.14989,0.10688c0,0 -0.75,0 -0.75,-0.75c0,-0.28114 0.10539,-0.4569 0.23715,-0.56677c-0.76076,0.0733 -1.52402,0.12033 -2.28984,0.14908c-0.16992,0.10259 -0.36623,0.16589 -0.57634,0.17729l-2.486,0.15537l-0.01852,-0.2963c-0.12644,-0.00096 -0.25295,-0.00212 -0.37953,-0.00345c-3.16455,0.53911 -6.41703,0.4995 -9.68124,0.42527c-0.63338,0.02462 -1.25769,0.04108 -1.86965,0.01922c-4.37865,0.3729 -8.93709,0.0699 -13.31746,-0.04864c-0.54131,0.0492 -1.06935,0.04605 -1.58704,-0.03348c-0.40209,-0.00567 -0.80226,-0.00884 -1.20024,-0.00884h-1.45099c-0.09821,0 -0.19377,-0.01133 -0.28545,-0.03274c-0.15543,0.18536 -0.36364,0.32495 -0.60151,0.39566l-1.41603,0.45711l-0.01876,-0.05813l-0.13244,0.0967c-2.32503,0.15224 -5.13324,0.42652 -7.44809,-0.01683c-0.26722,-0.05118 -0.56852,-0.10029 -0.88155,-0.15564c-2.2463,0.08439 -4.51521,0.01583 -6.78549,-0.03053c-0.55588,0.79461 -1.81752,1.23799 -2.50764,1.54292c-0.08525,0.03767 -0.17088,0.07643 -0.25704,0.11458c0.04094,0.0511 0.07846,0.10461 0.11271,0.16035c1.46106,-0.63463 3.47779,-0.10211 4.61021,0.80892c0,0 0.56944,0.48809 0.08135,1.05754c-0.03115,0.03635 -0.06264,0.06838 -0.09429,0.09652c1.08564,0.42111 2.11191,0.88077 3.06128,1.43537c0.05627,-0.51316 0.61549,-0.61484 0.61549,-0.61484c1.49229,-0.26834 2.80032,-0.27998 4.31297,-0.27998h1.04487c0,0 0.07725,0 0.18216,0.02479c-0.03085,-0.19307 0.01159,-0.42868 0.26733,-0.64788c0.42678,-0.36581 0.80786,-0.1376 0.97202,-0.00029c-0.01817,-0.06848 -0.02847,-0.14605 -0.02847,-0.23391c0,-0.75 0.75,-0.75 0.75,-0.75l0.73629,0.00303c0.407,-0.07489 0.81404,-0.14959 1.22112,-0.2241c-0.01825,-0.0686 -0.0286,-0.14633 -0.0286,-0.23439c0,-0.75 0.75,-0.75 0.75,-0.75h0.40085c3.26801,-0.00423 6.54224,0.00544 9.81683,-0.01545c-1.25877,-0.28197 -2.5174,-0.49979 -3.78853,-0.49366c0,0 -0.75,0 -0.75,-0.75c0,-0.75 0.75,-0.75 0.75,-0.75c3.33704,0.01408 6.50581,1.44914 9.87546,1.68153l0.89138,0.06147c0,0 0.20307,0.014 0.39033,0.13322c2.21851,-0.06225 4.43516,-0.15389 6.64813,-0.28879c0.19031,-0.10826 0.38978,-0.1138 0.38978,-0.1138c2.94777,-0.08188 5.95725,0.00626 8.86592,-0.50165l0.13464,-0.02336c0,0 0.73896,-0.12823 0.86719,0.61073c0.12823,0.73896 -0.61073,0.86719 -0.61073,0.86719l-0.13464,0.02336c-1.70516,0.29414 -3.43955,0.39553 -5.17706,0.44407c2.14709,0.94164 4.15644,2.06099 6.38063,2.89507l0.36609,0.13728c0.02338,0.00805 0.04724,0.01726 0.0716,0.0277c0.23075,0.09889 0.35116,0.24192 0.40924,0.38846c0.06568,0.14329 0.08572,0.32918 -0.00243,0.56424c-0.02589,0.06904 -0.05602,0.12875 -0.08931,0.18029c-0.73153,1.34492 -2.05984,1.81486 -3.51329,1.97457c0.07162,0.16984 0.08479,0.39186 -0.07834,0.65538c-0.39477,0.6377 -1.03246,0.24293 -1.03246,0.24293c-0.21366,-0.13227 -0.42676,-0.2642 -0.63921,-0.3963c-0.22173,0.24072 -0.57331,0.24072 -0.57331,0.24072l-0.94458,-0.00003c-1.73072,-0.03257 -3.35838,0.09122 -4.70912,-0.51086c-0.86235,0.44341 -1.54574,0.997 -1.92908,1.68116c0.06743,0.08636 0.12115,0.2009 0.14957,0.35244c0.13553,0.7228 -0.57056,0.86976 -0.59811,0.87521l-0.08243,0.25773c0.1302,0.01346 0.22193,0.05015 0.22193,0.05015l0.60667,0.24587c0.44647,0.13394 0.89294,0.26788 1.33941,0.40182c0,0 0.71837,0.21551 0.50286,0.93388c-0.21551,0.71837 -0.93388,0.50286 -0.93388,0.50286c-0.18818,-0.05645 -0.37636,-0.11291 -0.56454,-0.16936c-0.04725,0.10986 -0.10128,0.17933 -0.10128,0.17933l-0.01667,0.02144c-0.6445,0.81935 -1.29545,1.41566 -1.96981,1.85073c0.90785,0.34943 1.80867,0.59379 2.67456,0.67144c0,0 0.74628,0.07463 0.67165,0.82091c-0.07463,0.74628 -0.82091,0.67165 -0.82091,0.67165c-1.42392,-0.15442 -2.89888,-0.67008 -4.34918,-1.35408c-0.41241,0.11405 -0.83707,0.19359 -1.27706,0.24985c-0.4463,0.32872 -0.89116,0.65732 -1.33423,0.98681c0.99862,-0.46075 2.09369,-0.90569 2.70842,-0.80783l-0.00001,-0.00001c0.1668,0.02655 1.68719,1.5788 2.16604,1.74895l1.19234,0.39731c0,0 0.61792,0.20597 0.51012,0.80987c0.95323,-0.16601 1.899,-0.35139 2.83429,-0.56125c2.35016,-0.52731 5.02105,-2.10619 7.2676,-2.16228c0,0 0.75,0 0.75,0.75c0,0.75 -0.75,0.75 -0.75,0.75c-1.91265,-0.07206 -4.85052,1.65885 -6.93009,2.12382c-4.80795,1.07499 -9.88141,1.52066 -14.83583,1.99843c3.02872,0.18658 6.1542,-0.01598 9.1773,0.00325h0.15748c1.31431,-0.19048 2.57418,-0.33039 3.94481,-0.35556l0.26232,1.50738c0,0 0,0.75 -0.75,0.75c-0.75,0 -0.75,-0.75 -0.75,-0.75l0.26232,-0.36779c-0.50065,0.2632 -1.02374,0.419 -1.56005,0.52754c-0.03781,0.03349 -0.07902,0.06323 -0.12305,0.08861l-0.65792,0.39475l-0.11971,-0.19951c-3.02476,2.27986 -8.50433,3.39248 -11.75782,4.79987c-0.62494,0.27033 -1.24679,0.5459 -1.86627,0.82601c0.0861,0.06465 0.16675,0.15901 0.23376,0.29392c0.02596,0.05226 0.04583,0.10248 0.0604,0.15065c0.20576,-0.05704 0.64852,-0.108 0.88573,0.40291c0.31583,0.68026 -0.36442,0.99609 -0.36442,0.99609l-0.67306,0.31249c0.02617,0.03465 0.05134,0.07331 0.07526,0.11636c0.36423,0.65562 -0.29139,1.01985 -0.29139,1.01985c-0.49978,0.27616 -0.98271,0.58517 -1.44676,0.91991c-0.07752,0.15779 -0.22087,0.31676 -0.48593,0.3651c-0.1041,0.08138 -0.20716,0.164 -0.30914,0.24778l-0.56671,0.51153c0,0 -0.11363,0.1025 -0.28453,0.16358c-0.2088,0.28414 -0.59468,0.297 -0.59468,0.297c-0.99944,0.03331 -1.99889,0.06663 -2.99833,0.09994l-1.01988,0.034c0,0 -0.74958,0.02499 -0.77457,-0.7246c-0.02499,-0.74958 0.7246,-0.77457 0.7246,-0.77457c0.95198,-0.03173 2.82927,-0.09431 3.86914,-0.12897c0.04163,-0.05139 0.07351,-0.08015 0.07351,-0.08015l0.59387,-0.53545c0.01396,-0.01138 0.02794,-0.02275 0.04194,-0.0341c-1.0895,0.15713 -3.39081,0.72727 -4.20729,-0.35364c-0.51417,-0.06072 -1.0492,-0.17134 -1.61511,-0.33831c-0.63231,0.47367 -1.33251,0.87726 -2.09869,1.20628c-0.05752,0.0815 -0.11614,0.16371 -0.17588,0.24668c0,0 -0.42518,0.59053 -1.01961,0.18944c-0.2908,0.08866 -0.58955,0.16793 -0.89618,0.23762c0,0 -0.0421,0.00957 -0.10839,0.01401c-0.06619,0.00583 -0.10926,0.00287 -0.10926,0.00287l-0.67265,-0.0464l0.00074,0.23575c0,0 0,0.51021 -0.42082,0.689c0.16129,0.08436 0.32905,0.16107 0.50332,0.22949l0.23903,-0.0612c0,0 0.69731,0 0.74719,0.67237l0.32433,-0.00267c0,0 0.75,0 0.75,0.75c0,0.75 -0.75,0.75 -0.75,0.75l-1.03888,-0.00687c-0.83761,-0.22706 -1.67419,-0.45792 -2.51037,-0.69019c0,0 -0.72264,-0.20073 -0.52191,-0.92337c0.05278,-0.19001 0.14165,-0.31619 0.24397,-0.39895c-0.01392,-0.01297 -0.02778,-0.026 -0.04159,-0.03907c-0.02764,0.06482 -0.05246,0.10383 -0.05246,0.10383c-0.30463,0.46971 -0.51547,0.89893 -0.67704,1.33003c0.07189,3.53051 1.10193,6.6828 0.79148,10.25299c0,0 -0.06497,0.74718 -0.81215,0.68221c-0.74718,-0.06497 -0.68221,-0.81215 -0.68221,-0.81215c0.21074,-2.42348 -0.21667,-4.66102 -0.52423,-6.96367c-0.12049,0.03086 -0.26571,0.0294 -0.43911,-0.0284c-0.71151,-0.23717 -0.47434,-0.94868 -0.47434,-0.94868l0.1122,-0.32226c0.16737,-0.77868 0.31338,-1.4365 0.52513,-2.07112l-0.00607,-0.57612c0,0 -0.00506,-0.47974 0.37662,-0.67587c-0.10878,-0.19652 -0.10878,-0.40356 -0.10878,-0.40356l0.0121,-0.4016c-0.08416,-0.46875 -0.16831,-0.9375 -0.25247,-1.40625c-0.13137,-0.34243 -0.29456,-0.71796 -0.47814,-1.11919c-1.22408,-0.42415 -2.24488,-1.35693 -2.73751,-2.90295c0,0 -0.19734,-0.72357 0.52623,-0.92091c0.17248,-0.04704 0.31506,-0.04175 0.43219,-0.00641c-0.12658,-0.29642 -0.24882,-0.59465 -0.36416,-0.893c-0.13644,0.14174 -0.32812,0.22993 -0.5404,0.22993c-0.41421,0 -0.75,-0.33579 -0.75,-0.75c0,-0.41421 0.33579,-0.75 0.75,-0.75c0.03365,0 0.06678,0.00222 0.09925,0.00651c-0.36156,-1.1785 -0.55517,-2.32141 -0.4175,-3.3227c-0.55158,-0.00707 -0.68178,-0.59297 -0.68178,-0.59297l-0.26788,-1.20546c0,0 -0.1627,-0.73214 0.56944,-0.89484c0.73214,-0.1627 0.89484,0.56944 0.89484,0.56944l0.10278,0.46253c0.82673,-1.44092 2.00768,-2.57858 3.2087,-3.68583l-0.58984,-0.6741c0,0 -0.49388,-0.56443 0.07055,-1.05831c0.44783,-0.39185 0.85124,-0.11749 0.99881,0.01259c0.06777,-0.19814 0.22831,-0.40859 0.5992,-0.45916c0.47304,-0.06451 0.68602,0.21316 0.77835,0.42352c0.89272,-0.90861 1.68868,-1.88748 2.22323,-3.07106c-0.16779,-0.21721 -0.16779,-0.49361 -0.16779,-0.49361l0.00968,-1.19166c0.01052,-0.03265 0.02104,-0.0653 0.03156,-0.09795c-0.74005,-0.60867 -1.0531,-1.32517 -1.33428,-2.29672c-0.30564,-0.44443 -0.63934,-0.8443 -0.9975,-1.20722c0.00779,0.02111 0.01134,0.03353 0.01134,0.03353l0.2737,0.95917c0.09102,0.40907 0.18204,0.81815 0.27306,1.22722c0,0 0.1627,0.73214 -0.56944,0.89484c-0.73214,0.1627 -0.89484,-0.56944 -0.89484,-0.56944c-0.0715,-0.32219 -0.14301,-0.64438 -0.21451,-0.96657c-0.32178,0.64726 -1.122,0.94241 -2.0068,1.04792c0.40538,1.13002 0.82315,2.25256 1.24477,3.37689c0,0 0.26334,0.70225 -0.4389,0.96559c-0.70225,0.26334 -0.96559,-0.4389 -0.96559,-0.4389c-0.34589,-0.92238 -0.68864,-1.84349 -1.02421,-2.76854c-0.17974,1.82589 0.37053,3.90075 0.77075,5.50161l0.07604,0.30415c0,0 0.1819,0.72761 -0.54571,0.90951c-0.72761,0.1819 -0.90951,-0.54571 -0.90951,-0.54571l-0.07604,-0.30415c-0.54992,-2.19969 -1.13409,-4.79275 -0.59133,-7.08132c-0.21627,-0.03506 -0.40205,-0.07334 -0.54448,-0.10954c-0.38426,-0.09767 -0.77451,-0.2607 -1.15746,-0.47668c-0.09467,0.18562 -0.28215,0.36941 -0.65343,0.36941c-0.75,0 -0.75,-0.75 -0.75,-0.75l0.16336,-0.52643c-0.41396,-0.3773 -0.7969,-0.80925 -1.12682,-1.27529c-0.13764,0.18605 -0.32567,0.33255 -0.54394,0.41934c0.4414,0.94411 1.02548,1.82341 1.55123,2.7893l-0.05012,0.23973l0.10385,-0.01484l0.20424,1.42971c0.01027,0.06451 0.0156,0.13066 0.0156,0.19806c0,0.08984 -0.00948,0.17746 -0.02749,0.26192c0.35791,0.71815 0.56774,1.47528 0.66518,2.25568c0.30885,0.07647 0.56922,0.20221 0.69571,0.47695c0.37515,0.81486 -0.28913,1.79471 -0.67211,2.60592c-0.0596,0.12624 -0.12339,0.24741 -0.19093,0.36402c-0.22072,1.19085 -0.57232,2.38344 -0.94333,3.52882c-0.05937,0.24238 -0.13794,0.48161 -0.23422,0.7117c-0.1333,0.40014 -0.26611,0.793 -0.39339,1.17635l-0.78145,2.34436c-0.01558,0.05065 -0.03429,0.09994 -0.05591,0.14762c0.13954,0.11172 0.27338,0.25837 0.398,0.45045c0.50391,0.77675 0.27579,1.83642 0.29308,2.76214c0.04389,2.35038 -0.79806,4.54588 -1.26062,6.76753c-0.51583,2.47751 1.52491,4.58818 1.01238,6.94646c-0.16821,0.77397 -1.06262,1.26939 -1.20344,2.04881c-0.10796,0.59759 0.92773,0.85897 1.12417,1.43358c0.35649,1.04282 0.31838,2.12522 0.17557,3.20842c0.44789,-0.175 0.72245,0.06073 0.8577,0.24206c0.06323,-0.01489 0.13391,-0.02321 0.21291,-0.02321c0.75,0 0.75,0.75 0.75,0.75c-0.04233,2.99585 1.83505,4.6525 4.25766,5.13285c0.5078,-1.12521 0.2861,-3.20934 0.31446,-4.31664l0.36165,-0.46566c-0.20825,-0.00927 -0.45338,-0.1038 -0.60711,-0.44204c-0.08859,-0.19492 -0.09625,-0.35948 -0.06196,-0.49514c-0.56422,-0.02625 -0.66475,-0.62948 -0.66475,-0.62948l-0.13394,-0.80364c0,0 -0.1233,-0.7398 0.6165,-0.86309c0.7398,-0.1233 0.86309,0.6165 0.86309,0.6165l0.13394,0.80364c0,0 0.0147,0.08821 0.00349,0.20878l0.2872,-0.12666c0.48076,-0.13736 0.96152,-0.27472 1.44229,-0.41208c0,0 0.72114,-0.20604 0.92718,0.5151c0.20604,0.72114 -0.5151,0.92718 -0.5151,0.92718c-0.21851,0.06243 -0.43703,0.12486 -0.65554,0.1873c0.34367,0.44367 -0.04586,0.9111 -0.04586,0.9111l-0.54066,0.57882c0.04683,1.38742 0.17388,2.78227 -0.20611,3.95442c0.72137,0.00367 1.46363,-0.0816 2.19694,-0.25229c1.90964,-0.4445 3.50301,-1.72515 5.10509,-2.86729c-0.17432,-0.14959 -0.37715,-0.4337 -0.17861,-0.86689c0.31249,-0.6818 0.99429,-0.36931 0.99429,-0.36931c0.20193,0.09255 0.40619,0.18927 0.61228,0.28688c0.25603,-0.15274 0.51462,-0.29504 0.77702,-0.42317c0.23118,-0.11288 0.47695,-0.17637 0.7317,-0.2031c1.19298,-0.77231 2.47947,-1.40253 2.95484,-1.56549c0,0 0.71151,-0.23717 0.94868,0.47434c0.00048,0.00145 0.00096,0.0029 0.00144,0.00435c1.01454,-0.7015 1.92459,-1.47072 2.52935,-2.30072c0.425,-0.58329 0.80198,-1.27373 1.13114,-2.02916c-0.09194,-0.02298 -0.18176,-0.04544 -0.26925,-0.06731c0,0 -0.72761,-0.1819 -0.54571,-0.90951c0.08984,-0.35935 0.31278,-0.49686 0.51544,-0.54399c0.02874,-0.38797 0.35262,-0.69381 0.74793,-0.69381c0.11358,0 0.22127,0.02525 0.31776,0.07044c0.09043,-0.31028 0.17433,-0.62431 0.25171,-0.93996c-0.03685,-0.02286 -0.07423,-0.04981 -0.11202,-0.0813c-0.57617,-0.48014 -0.09603,-1.0563 -0.09603,-1.0563c1.12596,-1.20543 0.19323,-2.33172 -0.37883,-3.63929l-0.11109,-0.03817c0,0 -0.47853,-0.47853 -0.07191,-0.98103c-0.40367,-0.31591 -0.78131,-0.61146 -1.06546,-0.83384c0,0 -0.59063,-0.46223 -0.1284,-1.05286c0.46223,-0.59063 1.05286,-0.1284 1.05286,-0.1284c0.49926,0.39073 0.99853,0.78146 1.49779,1.17218c0.05504,-0.21448 0.20865,-0.46727 0.62097,-0.52151c0.74359,-0.09782 0.84141,0.64578 0.84141,0.64578l0.13874,1.06702c0.00002,0.0209 0.00001,0.04186 -0.00005,0.06289c0.09599,0.08484 0.52299,0.50993 0.11016,1.03743c-0.04893,0.06253 -0.09931,0.11325 -0.15027,0.15398c-0.01703,0.27333 -0.03949,0.5531 -0.06739,0.83783c0.09101,-0.03925 0.19133,-0.06099 0.29673,-0.06099c0.41421,0 0.75,0.33579 0.75,0.75c0,0.41421 -0.33579,0.75 -0.75,0.75c-0.17128,0 -0.32915,-0.05741 -0.45541,-0.15405c-0.20167,1.35813 -0.51839,2.77449 -0.95184,4.10556c1.30919,0.3273 2.61837,0.65459 3.92756,0.98189l1.05824,0.26456c0.01254,-0.00062 0.02516,-0.00094 0.03786,-0.00094c0.41421,0 0.75,0.33579 0.75,0.75c0,0.41421 -0.33579,0.75 -0.75,0.75c-0.02427,0 -0.04827,-0.00115 -0.07195,-0.00341c-0.13954,0.0071 -0.24389,-0.01899 -0.24389,-0.01899c-1.42746,-0.35687 -3.47415,-0.86854 -5.22893,-1.30723c-0.39396,0.94891 -0.85556,1.81845 -1.38555,2.54582c-0.89361,1.22641 -2.35263,2.32561 -3.88124,3.28418c0.20833,0.04411 0.417,0.08666 0.62597,0.12782l0.91805,-0.63682c0,0 0.61625,-0.42747 1.04373,0.18878c0.03124,0.04504 0.05691,0.08907 0.07765,0.132c0.01153,-0.01089 0.02306,-0.02178 0.03459,-0.03267l0.22989,-0.21712c0,0 0.54526,-0.51497 1.06023,0.03029c0.51497,0.54526 -0.03029,1.06023 -0.03029,1.06023c-0.01073,0.01014 -0.02152,0.02032 -0.03235,0.03055c0.53803,0.07908 1.07679,0.15463 1.61568,0.22935c2.28395,-0.08468 4.34944,-0.21874 6.45561,-0.62133c-0.65373,-0.39428 -1.3134,-0.84043 -2.00502,-1.30102c0,0 -0.62404,-0.41603 -0.20801,-1.04006c0.41603,-0.62404 1.04006,-0.20801 1.04006,-0.20801c1.1631,0.77628 2.22815,1.55466 3.35472,2.03413c0.52617,-0.14867 1.05998,-0.31764 1.60514,-0.51005c0,0 0.70724,-0.24962 0.95686,0.45763c0.07366,0.20872 0.06399,0.37758 0.01376,0.51193c0.3556,-0.0284 0.72444,-0.09551 1.10979,-0.20752l0.05038,-0.18387c0,0 0.5309,-0.52976 1.06066,0.00114c0.52976,0.5309 -0.00114,1.06066 -0.00114,1.06066l-0.70013,0.56502c-1.5681,0.43632 -2.89245,0.31337 -4.13997,-0.1287c-0.8377,0.2205 -1.66056,0.3939 -2.48179,0.53174c0.4923,0.0992 0.98275,0.20643 1.47085,0.32383c1.06631,0.25647 1.92512,0.71718 2.8785,1.0762c1.94239,0.14811 3.89105,-0.31514 6.01715,-0.54742l0.98414,-0.375c0,0 0.02274,-0.00853 0.06158,-0.01842c0.03659,-0.18829 0.15473,-0.38975 0.45898,-0.51145c0.69636,-0.27854 0.9749,0.41781 0.9749,0.41781l0.33692,1.05672c3.246,0.41401 5.67062,-1.29986 8.1898,-3.0064c0,0 0.06073,-0.04114 0.15707,-0.07869c-0.06859,-0.0343 -0.13719,-0.06859 -0.20578,-0.10289c0,0 -0.67082,-0.33541 -0.33541,-1.00623c0.33541,-0.67082 1.00623,-0.33541 1.00623,-0.33541c0.26788,0.13394 0.53576,0.26788 0.80364,0.40182l0.21684,0.36621c0.57619,-2.45067 0.43752,-5.08103 0.20533,-7.72436c-0.12516,-0.40724 -0.19278,-0.87863 -0.15505,-1.47564zM348.97442,184.99458c-0.0017,-0.00492 -0.0034,-0.00986 -0.00512,-0.01481c-0.08912,0.75639 -0.22512,1.52249 -0.31579,2.27707c-0.03111,0.25888 -0.0563,0.51896 -0.0762,0.78012c0.22735,-1.00268 0.39386,-2.013 0.39711,-3.04238zM347.97238,147.0416c-0.03717,0.01772 -0.07464,0.03493 -0.11237,0.05167c0.03696,0.005 0.07376,0.00989 0.11039,0.01465c0.00055,-0.02229 0.00122,-0.0444 0.00198,-0.06632zM287.61269,160.81846c-0.04856,0.08771 0.06366,0.09729 0.20262,0.10445l-0.10187,-0.27166c-0.03508,0.05366 -0.0687,0.10934 -0.10074,0.16721zM314.16541,179.91322c0,0 -0.02677,-0.74952 0.72275,-0.77629c0.74952,-0.02677 0.77629,0.72275 0.77629,0.72275c0.0061,0.17094 0.00994,0.34141 0.01266,0.51138c3.14806,-1.44858 6.36757,-2.73451 9.57227,-4.05409c0.35788,-0.14736 1.07839,-0.50438 1.89211,-0.86066c-2.77235,0.05552 -5.57195,0.08527 -8.24061,-0.45331c-0.92276,0.84375 -1.82674,1.72228 -2.7082,2.64713l-0.19908,0.20888c0,0 -0.51744,0.54291 -1.06035,0.02547c-0.54291,-0.51744 -0.02547,-1.06035 -0.02547,-1.06035l0.19908,-0.20888c0.60888,-0.63885 1.22832,-1.25603 1.85711,-1.85519l-0.95472,-0.15912c-0.11675,-0.01734 -0.22471,-0.06159 -0.3174,-0.12623c-0.40184,-0.01407 -0.72328,-0.34426 -0.72328,-0.74953c0,-0.33738 0.22277,-0.62273 0.52924,-0.71698l1.40662,-0.46887l0.05639,0.16918c1.42502,-0.73511 2.94734,-1.30167 4.47951,-1.84428c1.20742,-0.97173 2.43667,-1.91197 3.68065,-2.84263c-0.43327,0.00708 -0.88187,0.01285 -1.34768,0.02422c0,0 -0.74978,0.01829 -0.76806,-0.73149c-0.01829,-0.74978 0.73149,-0.76806 0.73149,-0.76806c1.18619,-0.02893 2.24681,0.00917 3.2192,-0.0517c-1.38045,-0.78938 -2.70058,-1.64778 -3.88885,-2.39284l-0.51417,-0.32244c0,0 -0.2098,-0.13156 -0.31269,-0.36405c-0.74973,0.00954 -1.47233,0.01835 -2.12812,-0.01288l-0.94674,-0.04508c0,0 -0.46994,-0.02238 -0.64769,-0.40389c-0.72197,0.72228 -1.6995,1.16441 -2.93303,1.20838c0,0 -0.75,0 -0.75,-0.75c0,-0.75 0.75,-0.75 0.75,-0.75c1.5138,0.08608 2.51371,-1.13541 2.80182,-2.51408c-0.00765,-0.00162 -0.01531,-0.00324 -0.02297,-0.00486l-1.12926,-0.00489c-0.58306,-0.14287 -1.16736,-0.28079 -1.7527,-0.41409c-0.44696,-0.04006 -0.89631,-0.07059 -1.34698,-0.09358c-0.63714,0.51628 -1.14167,1.11522 -1.34224,1.94249c0.13843,0.15757 0.38593,0.54104 0.01977,0.98002c-0.48041,0.57594 -1.05635,0.09553 -1.05635,0.09553l-0.51656,-0.90321c0.16311,-0.89593 0.4832,-1.58892 0.922,-2.1733c-1.92685,-0.02209 -3.84968,0.04075 -5.68642,0.036l0.06947,0.05476c0,0 -0.67082,0.33541 -1.00623,-0.33541c-0.33541,-0.67082 0.33541,-1.00623 0.33541,-1.00623l0.60523,-0.21312c1.56179,0.00404 3.17516,-0.03365 4.79881,-0.03025c-0.1478,-0.06923 -0.24134,-0.16277 -0.24134,-0.16277l0.06098,0.00655c-0.26788,-0.13394 -0.53576,-0.26788 -0.80364,-0.40182c0,0 -0.67082,-0.33541 -0.33541,-1.00623c0.33541,-0.67082 1.00623,-0.33541 1.00623,-0.33541c0.26788,0.13394 0.53576,0.26788 0.80364,0.40182l0.07766,0.06481c0.15133,-0.01917 0.26978,0.00452 0.26978,0.00452l0.61564,0.12517c0.82885,0.10361 1.65769,0.20721 2.48654,0.31082c0.02827,-0.01882 0.05662,-0.03772 0.08505,-0.05671c0,0 0.61621,-0.41081 1.03219,0.19636c0.15005,0.01876 0.30011,0.03751 0.45016,0.05627c0.19754,-0.11071 0.40703,-0.11071 0.40703,-0.11071c1.20546,0 3.61639,0 4.82186,0c0,0 0.5512,0 0.70853,0.47253c0.00523,-0.10492 0.03659,-0.22158 0.10639,-0.34955c0.0424,-0.07773 0.08896,-0.14127 0.13812,-0.1929c-0.03467,-0.0668 -0.06262,-0.14559 -0.0812,-0.23846c-0.14709,-0.73544 0.58835,-0.88252 0.58835,-0.88252c1.1995,-0.23963 2.40847,-0.39042 3.6039,-0.63883c0.19888,-0.3774 0.48485,-0.73372 0.89653,-1.08655c0,0 0.58565,-0.46852 1.05417,0.11713c0.46852,0.58565 -0.11713,1.05417 -0.11713,1.05417c-0.05586,0.03953 -0.10783,0.07992 -0.15616,0.12116c0.11403,0.32961 0.00618,0.56097 -0.1307,0.71013c0.31064,-0.01988 0.61916,-0.04776 0.92348,-0.08763c-0.18974,-0.0926 -0.3818,-0.28008 -0.3818,-0.65961c0,-0.75 0.75,-0.75 0.75,-0.75c0.80364,0 1.60729,0 2.41093,0h0.6697c0,0 0.75,0 0.75,0.75c0,0.48936 -0.3193,0.65942 -0.54123,0.71852c-0.08335,0.31091 -0.3854,0.47566 -0.3854,0.47566c-1.46086,0.77616 -3.06388,0.97272 -4.69966,1.04828c0.00045,0.05723 0.00078,0.11501 0.00077,0.17335l0.00002,0.53088c0,0 0,0.75 -0.75,0.75c-0.03457,0 -0.06754,-0.00159 -0.09899,-0.00463c0.17852,0.12817 0.35766,0.25752 0.53811,0.38785c0,0 0.60801,0.43912 0.16889,1.04713c-0.43912,0.60801 -1.04713,0.16889 -1.04713,0.16889c-1.20453,-0.86994 -2.34157,-1.69835 -3.64779,-2.40909l-0.1565,-0.08536c0,0 -0.26048,-0.14208 -0.3644,-0.41134c0.00013,0.00687 0.00019,0.0138 0.00019,0.0208c0,0.75 -0.75,0.75 -0.75,0.75c-1.09752,0 -2.19503,0 -3.29255,0c0.05096,0.01248 0.10802,0.03081 0.16568,0.05772c0.07717,0.01689 0.1542,0.03421 0.2311,0.05196c0.03392,-0.00247 0.06956,-0.00321 0.10701,-0.00201c0.19096,0.00611 0.33171,0.05931 0.43545,0.13521c0.862,0.22469 1.70444,0.50807 2.51998,0.86487c0,0 0.68712,0.30061 0.3865,0.98773c-0.30061,0.68712 -0.98773,0.3865 -0.98773,0.3865c-0.16291,-0.07127 -0.32706,-0.13942 -0.49236,-0.20457c0.29694,0.57094 -0.26435,0.94513 -0.26435,0.94513c-0.01606,0.01071 -0.03212,0.02141 -0.04818,0.03212c2.24999,0.05494 4.83304,-0.12182 7.00597,0.47944c1.01145,-0.45447 1.94115,-0.8521 2.99115,-1.13446c0.41597,-1.04781 1.21944,-1.88405 2.25615,-2.54362c-0.18686,-0.19664 -0.3647,-0.42083 -0.53276,-0.67642c0,0 -0.3975,-0.636 0.2385,-1.0335c0.636,-0.3975 1.0335,0.2385 1.0335,0.2385c0.18025,0.31076 0.39854,0.55455 0.64616,0.74543c0.68318,-0.29563 1.4212,-0.53885 2.18576,-0.73607l-0.28981,-0.20871c0,0 -0.60861,-0.43829 -0.17032,-1.0469c0.43829,-0.60861 1.0469,-0.17032 1.0469,-0.17032l1.05385,0.75893c0.12055,0.08687 0.24149,0.17274 0.36278,0.25772c1.22816,-0.19168 2.46194,-0.28524 3.5947,-0.30483c-1.8091,-0.83671 -3.55209,-1.76045 -5.44873,-2.48298c0,0 -0.57453,-0.21887 -0.48507,-0.78046c-0.07802,0.02018 -0.13208,0.02404 -0.13208,0.02404c-8.04557,0.57468 -16.14554,0.53358 -24.21321,0.53655c-0.02816,0.55129 -0.619,0.65872 -0.619,0.65872c-0.66445,0.12081 -1.32898,0.24117 -1.99359,0.3611c0.12323,0.13364 0.1985,0.31217 0.1985,0.50828c0,0.41421 -0.33579,0.75 -0.75,0.75c-0.41421,0 -0.75,-0.33579 -0.75,-0.75c0,-0.11597 0.02632,-0.2258 0.07332,-0.32383l-0.66273,0.00231c0,0 -0.15496,0 -0.32401,-0.07044l0.49163,0.57357c0,0 0.48809,0.56944 -0.08135,1.05754c-0.56944,0.48809 -1.05754,-0.08135 -1.05754,-0.08135l-0.42889,-0.50037c-0.07637,0.62834 -0.7429,0.62834 -0.7429,0.62834h-1.04487c-1.31107,0 -2.44225,-0.00218 -3.7065,0.19792c0.39491,0.29278 0.77266,0.6099 1.13164,0.95649c0.05901,-0.03301 0.12778,-0.06128 0.20782,-0.08311c0.72357,-0.19734 0.92091,0.52623 0.92091,0.52623c0.12842,0.47088 0.21575,0.88539 0.30133,1.254c0.00981,0.01439 0.0196,0.02881 0.02937,0.04327l0.50736,0.76103c0,0 0.24542,0.36813 0.07652,0.7274c0.04395,0.0553 0.09126,0.10914 0.14241,0.16164c0.12554,-0.03821 0.27936,-0.04118 0.46572,0.02094c0.39014,0.13005 0.49505,0.40271 0.51023,0.62249c0.08096,0.03639 0.16619,0.07223 0.25598,0.10758l0.22267,0.09278c0,0 0.69231,0.28846 0.40385,0.98077c-0.1455,0.3492 -0.39374,0.44887 -0.60407,0.4619c-0.06143,0.23093 -0.13087,0.45452 -0.20764,0.6714c0.73786,0.08492 1.78995,0.17382 2.32683,0.66955c1.57926,1.45823 0.33344,3.03407 -1.4441,2.65638c-0.82387,-0.17506 -1.35284,-0.75211 -1.89238,-1.32279c-0.73442,1.1051 -1.66206,2.03854 -2.625,2.95339c0.00981,0.07332 0.01991,0.14656 0.0304,0.21971c0.57424,0.72442 1.02796,1.44506 1.35453,2.40673c0,0 0.23717,0.71151 -0.47434,0.94868c-0.43982,0.14661 -0.69839,-0.06929 -0.83173,-0.25554c-0.5866,0.19816 -0.8799,-0.38844 -0.8799,-0.38844l-0.17463,-0.36612c-0.14405,-0.43729 -0.25075,-0.87834 -0.33613,-1.3227c-1.12424,1.0853 -2.19936,2.23953 -2.97382,3.70654c-0.70767,1.3405 0.25499,2.49049 0.70029,3.66778c0.29451,0.77863 0.59106,1.5591 0.88847,2.34091c0.04306,-0.36503 0.10966,-0.72678 0.20013,-1.0821c-0.06552,-0.06097 -0.12665,-0.14165 -0.17946,-0.24728c-0.33541,-0.67082 0.33541,-1.00623 0.33541,-1.00623l0.21742,-0.10624c0.04868,-0.02845 0.09758,-0.05632 0.1467,-0.0836c0.1212,-0.2543 0.25676,-0.50221 0.40681,-0.7423c0,0 0.31949,-0.51119 0.84391,-0.33054c0.01098,-0.02872 0.02209,-0.05748 0.03332,-0.08626c0,0 0.03009,-0.07523 0.09522,-0.16634c-0.17699,-0.0072 -0.37431,-0.0858 -0.54492,-0.32466c-0.43593,-0.6103 0.17437,-1.04623 0.17437,-1.04623l0.9566,-0.68285c0.39175,-0.24496 0.71804,-0.46705 1.02928,-0.65667c0.01954,-0.05667 0.04703,-0.1158 0.08392,-0.17728c0.2896,-0.48267 0.7241,-0.38574 0.92288,-0.30733c0.3407,-0.11067 0.72113,-0.17757 1.19358,-0.19074c0,0 0.75,0 0.75,0.75c0,0.11758 -0.01843,0.21672 -0.04952,0.30032c0.14254,0.14337 0.25185,0.36899 0.1546,0.70936c-0.20604,0.72114 -0.92718,0.5151 -0.92718,0.5151l-0.10964,-0.03204c-0.01826,0.03043 -0.03652,0.06086 -0.05477,0.09129l0.72548,0.10979c0.48457,0.23866 0.96915,0.47732 1.45372,0.71598c0,0 0.3472,0.1736 0.41714,0.52079c0.22725,0.02301 0.45282,0.04826 0.67622,0.07507c0,0 0.74466,0.08936 0.6553,0.83402c-0.08936,0.74466 -0.83402,0.6553 -0.83402,0.6553c-1.83182,-0.21982 -3.96813,-0.39668 -5.83388,0.14024c-0.26708,0.9792 -0.22005,1.85804 1.15,1.49381l0.40692,-0.04378c0,0 0.7457,-0.08022 0.82592,0.66547c0.08022,0.7457 -0.66547,0.82592 -0.66547,0.82592l-0.40692,0.04378c-1.58497,0.04124 -2.39585,-0.48488 -2.6975,-1.32923c-0.15504,0.88378 -0.15063,1.81662 0.01669,2.71467c0.44778,-0.03436 0.90779,-0.13385 1.35461,-0.28669c-0.00874,-0.05562 -0.01739,-0.11126 -0.02596,-0.1669c0,0 -0.11404,-0.74128 0.62724,-0.85532c0.43495,-0.06692 0.65395,0.16064 0.76068,0.36014c0.65206,-0.4252 1.19052,-0.96464 1.49584,-1.56292l0.00631,-0.01201c0,0 0.34878,-0.66397 1.01275,-0.31519c0.66397,0.34878 0.31519,1.01275 0.31519,1.01275l-0.00631,0.01201c-0.56372,1.04857 -1.46594,1.8883 -2.50932,2.45565c0.07133,0.3999 0.1469,0.79906 0.22644,1.19739l0.76115,0.05213c0.47017,-0.11137 0.91733,-0.24765 1.34144,-0.40824c1.57474,-2.29843 2.14445,-3.89415 2.71929,-6.83858l0.07418,-0.89989c0,0 0.06253,-0.74739 0.80992,-0.68486c0.74739,0.06253 0.68486,0.80992 0.68486,0.80992l-0.08316,0.98082c-0.38685,1.99714 -0.80246,3.48602 -1.4915,4.94502c0.01238,0.00389 0.0191,0.00641 0.0191,0.00641c0.01167,0.00438 0.02333,0.00873 0.03497,0.01305c1.40983,-1.27941 2.33401,-3.03656 2.76918,-5.21239l0.08135,-0.40677c0,0 0.14709,-0.73544 0.88252,-0.58835c0.73544,0.14709 0.58835,0.88252 0.58835,0.88252l-0.08135,0.40677c-0.43004,2.1502 -1.30338,3.96669 -2.59216,5.38393c0.15921,0.02921 0.3155,0.05284 0.4693,0.07115c0.97593,-0.71994 3.12113,-1.53627 3.54216,-1.74107c0.0954,-0.04641 0.19088,-0.09263 0.28645,-0.13867c-0.00824,-0.3795 -0.01473,-0.76408 -0.02872,-1.15574zM330.89326,163.32248c-0.26206,-0.08382 -0.39723,-0.23302 -0.46335,-0.38836c-0.33584,0.11374 -0.66252,0.24068 -0.98978,0.37746c0.05324,0.15079 0.05595,0.34064 -0.0585,0.56954c-0.33541,0.67082 -1.00623,0.33541 -1.00623,0.33541c-0.15448,-0.08026 -0.31495,-0.15275 -0.48067,-0.2182c-0.00091,0.00041 -0.00182,0.00082 -0.00274,0.00124l-0.33544,0.2778c0,0 -0.59771,0.45303 -1.05075,-0.14468c-0.15272,-0.2015 -0.18603,-0.38655 -0.16309,-0.54335c-0.49185,-0.07987 -1.00468,-0.12669 -1.52572,-0.15311c1.10159,0.70428 2.31652,1.48415 3.56875,2.17166c0.87889,-0.6469 1.76194,-1.29834 2.64676,-1.96169c-0.00845,-0.08489 -0.00072,-0.17976 0.03005,-0.28519c-0.05313,-0.00689 -0.10951,-0.0194 -0.1693,-0.03853zM338.14274,158.65128c0.0055,-0.07964 0.02003,-0.14993 0.04141,-0.21194c-0.37636,0.06642 -0.74977,0.14236 -1.11566,0.22858c0.35678,0.00273 0.7181,-0.00803 1.07425,-0.01664zM295.49444,155.94226c0,0 -0.70087,-0.267 -0.43387,-0.96786c0.06189,-0.16246 0.14709,-0.27292 0.24147,-0.34675c-0.01862,-0.01364 -0.0287,-0.02228 -0.0287,-0.02228c-0.54927,-0.51829 -2.50291,-1.14768 -3.34502,-0.46068c-0.03715,0.60994 -0.20284,1.27994 -0.42667,1.93178c0.16088,1.20635 0.92616,2.23719 1.92874,2.95293c1.44054,-0.61075 3.47391,-1.00328 4.68438,-0.48971c0.36899,0.15655 0.84052,0.34889 1.1886,0.61113c0.02164,-0.22113 0.13506,-0.4972 0.53811,-0.61236c0.14398,-0.04114 0.26743,-0.04531 0.37281,-0.02565c-1.34391,-1.15832 -2.96981,-1.90387 -4.71986,-2.57056zM298.28656,160.00376c0.24901,-0.41202 -0.64676,-0.20035 -1.34168,-0.06986c0.13281,0.0811 0.21961,0.20131 0.27298,0.30031c0.44569,0.07827 0.86876,0.10038 1.0687,-0.23045zM306.10871,166.00968c0.32716,0.12517 0.62697,0.20735 0.42527,0.14094c-0.15024,-0.04946 -0.29043,-0.09653 -0.42527,-0.14094zM330.87144,171.21762c-0.40909,-0.15941 -0.85621,-0.24354 -1.22726,-0.47824c-0.43394,-0.27448 -0.38226,-1.31 -0.89279,-1.25526c-1.78734,0.19163 -3.97574,1.63247 -6.17284,2.80813c2.8602,-0.27285 5.74946,-0.55423 8.59077,-0.97531zM301.7337,183.81707c-0.18464,0.0523 -0.37076,0.09658 -0.55752,0.13255c0.20306,0.08347 0.41167,0.15491 0.62373,0.21585c-0.02247,-0.11605 -0.04454,-0.23218 -0.06621,-0.34839zM301.97659,186.11301l0.00132,-0.3702c-0.15665,-0.03423 -0.31255,-0.07212 -0.46726,-0.114c0.14481,0.17056 0.30011,0.3324 0.46594,0.4842zM302.59784,175.99675c-0.30589,-0.30589 -0.25891,-0.61178 -0.16436,-0.8159c-0.11362,0.07865 -0.23321,0.15902 -0.36174,0.23932l-0.70641,0.50492c0.05253,0.01063 0.10791,0.02712 0.16622,0.05045c0.36725,0.1469 0.46335,0.41002 0.47214,0.6259c0.42551,-0.07839 0.85703,-0.13194 1.29136,-0.16521c-0.06571,-0.05193 -0.12713,-0.11861 -0.17265,-0.20392c-0.16056,0.00353 -0.34256,-0.05355 -0.52456,-0.23555zM319.99047,160.64468c0,0 0.03578,-0.02385 0.09591,-0.05157c-0.08802,-0.02789 -0.17631,-0.05503 -0.26486,-0.08147c-0.0252,0.10158 -0.05249,0.20169 -0.08189,0.30026c0.08361,-0.05574 0.16723,-0.11149 0.25084,-0.16723zM326.62141,158.45597l0.00002,-0.54064c0.00046,-0.03874 0.00098,-0.07718 0.00158,-0.11533c-0.44199,0.01192 -0.88394,0.02517 -1.32373,0.04863c0.47459,0.30252 0.93641,0.61796 1.39744,0.94278c-0.0753,-0.17343 -0.0753,-0.33544 -0.0753,-0.33544zM336.19769,201.00804c1.00217,0.81513 1.92884,2.11238 2.89614,2.83765c0.48468,0.36341 0.77543,-0.93816 1.23322,-1.33491c0.75569,-0.65493 1.51138,-1.30986 2.26707,-1.96479c0,0 0.56677,-0.4912 1.05796,0.07557c0.06906,0.07968 0.1172,0.15787 0.14895,0.2334l-0.11835,-0.74535c0.01606,-0.36932 0.03375,-0.73684 0.05322,-1.10285c-2.5508,0.84276 -5.03424,1.60107 -7.70575,1.8563c0.05486,0.04991 0.1105,0.09859 0.16754,0.14499z" fill="#fffbcf" stroke-width="0.5"/><path d="M299.34013,165.71985c-0.10133,-0.74312 0.64179,-0.84446 0.64179,-0.84446l1.46045,-0.19915c1.56452,-0.07348 1.79992,-1.20045 1.77516,-2.80806c0,0 0,-0.75 0.75,-0.75c0.75,0 0.75,0.75 0.75,0.75c-0.02903,2.47809 -0.66183,3.83359 -3.07249,4.29431l-1.46045,0.19915c0,0 -0.74312,0.10133 -0.84446,-0.64179z" fill="#fff9b2" stroke-width="0.5"/><path d="M291.57757,155.78288c-0.63554,-0.54153 -0.09402,-1.17707 -0.09402,-1.17707l0.8887,-1.04299c0.80934,-0.94985 2.44514,-3.60225 3.5788,-4.04865c0.24659,-0.0971 3.29252,0.28101 3.71947,0.33028c0,0 0.82947,0.09571 0.73376,0.92516c-0.09571,0.82947 -0.92516,0.73376 -0.92516,0.73376c-0.97638,-0.11265 -2.00173,-0.79548 -2.91624,-0.43538c-0.81081,0.31926 -2.32781,2.88343 -2.91953,3.57788l-0.8887,1.04299c0,0 -0.54153,0.63554 -1.17707,0.09402z" fill="#fff9b2" stroke-width="0.5"/><path d="M297.21686,153.42993c0,0.75 -0.75,0.75 -0.75,0.75h-0.50911c-0.81041,-0.00133 -1.62718,-0.01325 -2.42694,-0.14415c0,0 -0.7398,-0.1233 -0.6165,-0.86309c0.1233,-0.7398 0.86309,-0.6165 0.86309,-0.6165c0.71764,0.12211 1.45239,0.12503 2.18034,0.12374h0.50911c0,0 0.75,0 0.75,0.75z" fill="#fff9b2" stroke-width="0.5"/><path d="M314.60522,151.36689c0.18787,0.72609 -0.53822,0.91396 -0.53822,0.91396l-0.40911,0.10585c-4.35534,1.12691 -8.73487,2.31395 -13.19338,1.37532c0,0 -0.73391,-0.15451 -0.5794,-0.88842c0.15451,-0.73391 0.88842,-0.5794 0.88842,-0.5794c4.21379,0.88711 8.38853,-0.29363 12.50863,-1.35967l0.40911,-0.10585c0,0 0.72609,-0.18787 0.91396,0.53822z" fill="#fff9b2" stroke-width="0.5"/><path d="M328.55749,151.73549c-0.04678,0.74854 -0.79532,0.70176 -0.79532,0.70176l-0.64597,-0.04037c-3.34036,-0.20882 -6.67574,-0.35999 -10.02249,-0.35999c0,0 -0.75,0 -0.75,-0.75c0,-0.75 0.75,-0.75 0.75,-0.75c3.37799,0 6.74454,0.15223 10.11606,0.36291l0.64597,0.04037c0,0 0.74854,0.04678 0.70176,0.79532z" fill="#fff9b2" stroke-width="0.5"/><path d="M300.67444,160.17851c-0.0051,-0.074 -0.00237,-0.14119 0.00668,-0.20219c-1.52125,-0.58154 -2.97949,-1.23555 -4.39283,-2.18014c-1.13723,-0.76005 -3.0178,-1.47992 -0.98842,-3.35375c0.48085,-0.44399 1.30386,-0.12185 1.95778,-0.14912c2.53353,-0.10566 5.04382,0.06789 7.55937,0.33162c5.76761,0.60467 11.73655,0.9674 17.24769,2.70284c5.11194,-1.14735 10.35352,-2.29636 15.17877,-4.20017c-1.48134,0.01687 -2.95566,-0.0452 -4.46809,-0.29727c0,0 -0.7398,-0.1233 -0.6165,-0.86309c0.1233,-0.7398 0.86309,-0.6165 0.86309,-0.6165c2.74822,0.45804 5.36521,0.25095 8.14696,0.12451l-0.03347,-0.05553c0,0 0.67082,-0.33541 1.00623,0.33541c0.33541,0.67082 -0.33541,1.00623 -0.33541,1.00623l-0.56924,0.21235c-0.17082,0.00776 -0.34105,0.01577 -0.51075,0.02387c-0.10546,0.29943 -0.4116,0.4423 -0.4116,0.4423c-4.88218,2.27227 -10.28666,3.6119 -15.6432,4.83266c1.79899,0.74542 3.53424,1.67541 5.18066,2.85142c0,0 0.6103,0.43593 0.17437,1.04623c-0.43593,0.6103 -1.04623,0.17437 -1.04623,0.17437c-2.17821,-1.55586 -4.52315,-2.6608 -6.96894,-3.47039c-1.44246,0.32607 -2.87445,0.65332 -4.28465,0.99794l-0.88057,0.18518c0,0 -0.21579,0.04535 -0.43795,-0.03013c-0.09701,0.03355 -0.16926,0.04158 -0.16926,0.04158c-3.89224,0.43072 -7.85721,0.47086 -11.79141,0.64268c-0.2692,0.40877 -0.79585,0.2771 -0.79585,0.2771l-0.60467,-0.15473c-0.04465,-0.01584 -0.08925,-0.03166 -0.13379,-0.04745c-0.46486,0.02546 -0.92909,0.05372 -1.39253,0.08565l-0.04649,0.0032c0,0 -0.74823,0.05155 -0.79978,-0.69668zM316.0733,158.5779c0,0 0.17228,-0.01914 0.3604,0.0438c0.06186,-0.02352 0.10392,-0.03235 0.10392,-0.03235l0.8567,-0.17996c0.53153,-0.12997 1.06645,-0.25731 1.60409,-0.38295c-4.66412,-1.10479 -9.58316,-1.41123 -14.3378,-1.9097c-2.34707,-0.24606 -6.18884,-1.0749 -8.45008,-0.48239c-0.87252,0.22863 1.36806,1.18892 2.13841,1.65811c1.49353,0.90964 3.13442,1.41179 4.77971,1.9807c4.31049,-0.22309 8.67353,-0.21868 12.94465,-0.69527z" fill="#fff9b2" stroke-width="0.5"/><path d="M290.84136,173.86919c-0.75,0 -0.75,-0.75 -0.75,-0.75l0.00132,-1.38384c0.48561,-4.10936 1.34079,-7.19305 2.98656,-10.87165c-0.01107,-0.07526 -0.02214,-0.15053 -0.0332,-0.22579c0,0 -0.10912,-0.74202 0.6329,-0.85114c0.0784,-0.01153 0.14973,-0.01356 0.21462,-0.00796c0.13257,-0.02852 0.29147,-0.01682 0.47773,0.0695c0.68048,0.31535 0.36514,0.99583 0.36514,0.99583c-0.03675,0.0793 -0.07311,0.15824 -0.10909,0.23683c0.18582,1.26361 0.37165,2.52721 0.55747,3.79082l0.22641,0.44261c0,0 0.30413,0.68557 -0.38144,0.9897c-0.68557,0.30413 -0.9897,-0.38144 -0.9897,-0.38144l-0.33931,-0.83263c-0.06557,-0.44586 -0.13114,-0.89173 -0.1967,-1.33759c-0.97686,2.58197 -1.54514,5.00189 -1.91401,8.07179l0.00132,1.29497c0,0 0,0.75 -0.75,0.75z" fill="#fff9b2" stroke-width="0.5"/><path d="M314.0883,163.1629c0.17862,-0.72842 0.90704,-0.54979 0.90704,-0.54979l0.68071,0.16693c3.70208,0.90868 7.19094,1.06682 10.84719,1.05587c0.00196,-0.02352 0.00483,-0.04773 0.00866,-0.07265c0.11404,-0.74128 0.85532,-0.62724 0.85532,-0.62724c2.86075,0.44078 5.65294,1.317 8.53278,1.60229l0.79654,0.34334c0,0 0.67082,0.33541 0.33541,1.00623c-0.13221,0.26441 -0.31652,0.37249 -0.49133,0.4064c-0.03159,0.0387 -0.06697,0.07419 -0.10558,0.1059l-0.79924,0.66604c0,0 -0.57617,0.48014 -1.0563,-0.09603c-0.18153,-0.21784 -0.21207,-0.42195 -0.17984,-0.59158l-0.46261,-0.09071c0,0 -0.55098,-0.1102 -0.60375,-0.61673c-0.39623,-0.07447 -0.79157,-0.15465 -1.18646,-0.23786c0.00302,0.02279 0.00535,0.0464 0.00693,0.07086c0.04829,0.74844 -0.70016,0.79673 -0.70016,0.79673c-0.99793,0.06438 -3.15423,0.2035 -4.15216,0.26788c0,0 -0.74844,0.04829 -0.79673,-0.70016c-0.02948,-0.45697 0.23805,-0.65293 0.45089,-0.73626c-3.94234,0.0224 -7.68461,-0.1223 -11.65683,-1.09549l-0.68071,-0.16693c0,0 -0.72842,-0.17862 -0.54979,-0.90704z" fill="#fff9b2" stroke-width="0.5"/><path d="M344.57627,177.87941c-0.74201,-0.10918 -0.63283,-0.85119 -0.63283,-0.85119l0.05122,-0.3481c0.4324,-2.93872 0.74988,-5.59187 -0.90726,-7.9575c-0.81074,0.3659 -1.84597,0.78417 -2.08818,0.88509c-2.774,1.15583 -5.37883,2.23126 -8.31019,2.90773l-0.55928,0.12906c0,0 -0.73079,0.16864 -0.89944,-0.56215c-0.16864,-0.73079 0.56215,-0.89944 0.56215,-0.89944l0.55928,-0.12906c2.37231,-0.54746 4.4393,-1.31774 6.68594,-2.25384c0.92308,-0.38462 1.82852,-0.81463 2.76923,-1.15385c0.07185,-0.02591 0.17523,-0.05314 0.29144,-0.07923c-0.00015,-0.00019 -0.0003,-0.00038 -0.00045,-0.00057c-0.01066,0.00124 -0.02131,0.00253 -0.03194,0.00389c0,0 -0.74628,-0.07463 -0.67165,-0.82091c0.07463,-0.74628 0.82091,-0.67165 0.82091,-0.67165c0.81852,0.16945 2.95422,0.06229 2.07178,1.78432c1.86288,2.70089 1.68865,5.65905 1.1917,9.03645l-0.05122,0.3481c0,0 -0.10918,0.74201 -0.85119,0.63283z" fill="#fff9b2" stroke-width="0.5"/><path d="M295.36446,180.92772c-0.74541,0.08282 -0.82824,-0.66259 -0.82824,-0.66259l-0.12384,-1.43598c0.2498,-0.474 0.4996,-0.948 0.7494,-1.422c0,0 0.36423,-0.65562 1.01985,-0.29139c0.65562,0.36423 0.29139,1.01985 0.29139,1.01985c-0.19667,0.32964 -0.39334,0.65928 -0.59001,0.98893l0.14404,0.97495c0,0 0.08282,0.74541 -0.66259,0.82824z" fill="#fff9b2" stroke-width="0.5"/><path d="M325.8826,183.89535c0.20697,-0.72088 0.92784,-0.51391 0.92784,-0.51391l0.92359,0.27745c0.44081,0.31991 0.86127,0.66787 1.26533,1.03495l0.056,-0.076l1.20018,0.88434c0.14607,0.10508 0.25281,0.26138 0.29393,0.44262c2.76505,-0.92038 5.4506,-2.00289 7.82546,-3.28086c1.24062,-0.66761 4.88209,-1.86774 5.19718,-3.21883c0,0 0.23717,-0.71151 0.94868,-0.47434c0.71151,0.23717 0.47434,0.94868 0.47434,0.94868c-0.80324,2.07805 -3.98665,3.0348 -5.91052,4.06598c-3.65516,1.95915 -8.00791,3.47624 -12.282,4.65673c2.24299,1.30175 4.5086,2.74958 5.90272,4.66795c0,0 0.43593,0.6103 -0.17437,1.04623c-0.6103,0.43593 -1.04623,-0.17437 -1.04623,-0.17437c-1.46279,-2.09258 -4.25439,-3.61952 -6.72207,-4.9992c-1.22457,0.31144 -2.43214,0.59608 -3.60387,0.85646c-0.48809,0.10847 -0.97619,0.21693 -1.46428,0.3254l-0.42902,0.09534c0,0 -0.73214,0.1627 -0.89484,-0.56944c-0.1627,-0.73214 0.56944,-0.89484 0.56944,-0.89484c0.06167,-0.0137 0.13018,-0.02893 0.20381,-0.04529c-0.04187,-0.06902 -0.07656,-0.15241 -0.1007,-0.253c-0.17503,-0.72929 0.55426,-0.90432 0.55426,-0.90432c0.68295,-0.16391 1.36591,-0.32782 2.04886,-0.49173c-0.16086,-0.16159 -0.36915,-0.48338 -0.0997,-0.91644c0.39623,-0.63679 1.03302,-0.24057 1.03302,-0.24057l0.93298,0.58052c0.04963,0.03088 0.09956,0.06175 0.14978,0.09262c1.52751,-0.3666 3.05502,-0.73321 4.58253,-1.09981l0.00235,-0.00319c-0.4192,-0.183 -0.81387,-0.43834 -1.17558,-0.70971l-0.67522,-0.18157c0,0 -0.72088,-0.20697 -0.51391,-0.92784z" fill="#fff9b2" stroke-width="0.5"/><path d="M293.25364,193.10663c-0.70001,0.26923 -0.96924,-0.43077 -0.96924,-0.43077l-0.13123,-0.34121c-0.8255,-2.19663 -0.58846,-4.43318 -0.58846,-6.75899c0,0 0,-0.75 0.75,-0.75c0.75,0 0.75,0.75 0.75,0.75c0,2.10447 -0.28944,4.25243 0.48848,6.22052l0.13123,0.34121c0,0 0.26923,0.70001 -0.43077,0.96924z" fill="#fff9b2" stroke-width="0.5"/><path d="M326.34254,174.47669c0.51766,0.5427 -0.02504,1.06036 -0.02504,1.06036l-1.02038,0.97331c-0.9969,0.94655 -2.1162,1.73801 -3.27298,2.48022c0.15662,-0.05831 0.29325,-0.05831 0.29325,-0.05831c5.5,0 11,0 16.5,0h0.91227c0,0 0.75,0 0.75,0.75c0,0.75 -0.75,0.75 -0.75,0.75c-5.5,0 -11.91227,0 -17.41227,0c0,0 -0.75,0 -0.75,-0.75c0,-0.24373 0.07921,-0.40825 0.18614,-0.51931c-0.71843,0.45451 -1.44866,0.89334 -2.17062,1.3415c-0.56613,0.67332 -1.13135,1.34741 -1.69532,2.02261c0.2343,0.00732 0.46859,0.01464 0.70289,0.02197c0,0 0.74963,0.02343 0.72621,0.77306c-0.02343,0.74963 -0.77306,0.72621 -0.77306,0.72621c-0.99951,-0.03123 -1.99902,-0.06247 -2.99854,-0.0937l-1.28469,-0.04015c-0.40471,-0.01089 -0.72944,-0.34238 -0.72944,-0.74972c0,-0.25879 0.13107,-0.48696 0.33044,-0.62176l1.22262,-0.85052l0.09958,0.14314c1.01516,-0.84053 2.1117,-1.56476 3.22501,-2.26529c0.88856,-1.05688 1.77937,-2.11186 2.67111,-3.16621l0.12927,-0.15284c0,0 0.48433,-0.57265 1.05698,-0.08832c0.29135,0.24642 0.3091,0.51569 0.25623,0.72078c0.6049,-0.45029 1.18883,-0.93072 1.73961,-1.45875l1.02038,-0.97331c0,0 0.5427,-0.51766 1.06036,0.02504z" fill="#fff9b2" stroke-width="0.5"/><path d="M339.05883,162.60541c-0.33541,-0.67082 0.33541,-1.00623 0.33541,-1.00623l0.34401,-0.16688c0.84829,-0.31253 1.69658,-0.62506 2.54487,-0.93758c0,0 0.70376,-0.25928 0.96304,0.44448c0.25928,0.70376 -0.44448,0.96304 -0.44448,0.96304c-0.84829,0.31253 -1.69658,0.62506 -2.54487,0.93758l-0.19175,0.101c0,0 -0.67082,0.33541 -1.00623,-0.33541z" fill="#fff9b2" stroke-width="0.5"/><path d="M343.61393,193.82633c-0.75,0 -0.75,-0.75 -0.75,-0.75l0.02886,-0.32972c-0.35717,-1.25011 -0.71435,-2.50022 -1.07152,-3.75033c0,0 -0.20604,-0.72114 0.5151,-0.92718c0.72114,-0.20604 0.92718,0.5151 0.92718,0.5151c0.35717,1.25011 0.71435,2.50022 1.07152,3.75033l0.02886,0.7418c0,0 0,0.75 -0.75,0.75z" fill="#fff9b2" stroke-width="0.5"/><path d="M339.51542,201.2467c0,-0.75 0.75,-0.75 0.75,-0.75h0.61639c1.2754,0 5.23355,0.16439 4.41091,-1.90005c0,0 -0.1627,-0.73214 0.56944,-0.89484c0.73214,-0.1627 0.89484,0.56944 0.89484,0.56944c0.49693,3.53456 -3.1521,3.72545 -5.87519,3.72545h-0.61639c0,0 -0.75,0 -0.75,-0.75z" fill="#fff9b2" stroke-width="0.5"/><path d="M311.18637,192.57491c-0.08521,0.15075 -0.16636,0.30064 -0.2426,0.44941c1.96173,0.93164 4.11911,1.31595 5.91996,2.65901c1.23128,0.91827 1.84252,2.31074 3.35104,3.0045c1.22349,0.56268 3.86136,0.94226 5.14962,1.04152l0.9201,0.10223c0,0 0.74541,0.08282 0.66259,0.82824c-0.08282,0.74541 -0.82824,0.66259 -0.82824,0.66259l-0.9201,-0.10223c-1.4826,-0.20113 -4.19463,-0.54109 -5.60058,-1.16494c-1.61132,-0.71498 -2.33009,-2.18541 -3.61387,-3.15676c-1.68231,-1.2729 -3.69545,-1.70865 -5.58103,-2.53603c-0.39729,1.46463 0.03335,2.72578 2.27177,3.50544c0,0 0.70001,0.26923 0.43077,0.96924c-0.26923,0.70001 -0.96924,0.43077 -0.96924,0.43077c-1.22675,-0.50466 -4.04275,-2.70504 -3.82919,-4.43878c0.01856,-0.15064 0.28549,-0.67724 0.59686,-1.25216c-0.35144,-0.22295 -0.69308,-0.4741 -1.02141,-0.76286c-1.74962,0.19843 -3.50108,0.14563 -5.30283,-0.40691l-0.71133,-0.22229c0,0 -0.10589,-0.03309 -0.22348,-0.11454c0.17699,1.16529 0.32474,2.32286 0.38043,3.46455c0.04252,0.87164 -0.35505,4.40712 0.15136,5.02243c0.8575,1.0419 2.18343,0.64153 2.30514,2.36759c2.60074,-0.4241 5.26869,-0.55402 7.87696,-1.01793c0.85921,-0.15282 4.38133,-0.53012 3.37557,-1.8382l-0.2964,-0.09726c0,0 -0.6,-0.45 -0.15,-1.05c0.45,-0.6 1.05,-0.15 1.05,-0.15l0.77512,0.70638c0.20715,0.65805 0.25755,1.18212 0.13966,1.62898l0.3924,-0.23544c0,0 0.64312,-0.38587 1.02899,0.25725c0.10281,0.17135 0.13257,0.32444 0.12092,0.45683l0.22305,0.07097l-0.02258,0.07096c2.52077,-0.06641 2.5512,2.17422 3.04799,4.14531c2.98158,-0.12638 5.70984,-0.15863 8.50403,-1.15485c-0.38645,-0.01431 -0.7729,-0.02863 -1.15935,-0.04294c0,0 -0.74949,-0.02776 -0.72173,-0.77724c0.01475,-0.39818 0.23321,-0.57699 0.43476,-0.65712c-0.02178,-0.07418 -0.03405,-0.15942 -0.03344,-0.25737c0.00467,-0.74999 0.75465,-0.74532 0.75465,-0.74532l0.9724,0.01158c0.83741,-0.19684 1.6432,-0.58143 2.34317,-1.08149c0,0 0.61442,-0.4301 1.04452,0.18433c0.4301,0.61442 -0.18433,1.04452 -0.18433,1.04452c-0.51041,0.35126 -1.064,0.64779 -1.64103,0.88705c0.02734,0.00101 0.05468,0.00203 0.08202,0.00304l0.74992,0.02283c0,0 0.74965,0.02282 0.72683,0.77247c-0.02282,0.74965 -0.77247,0.72683 -0.77247,0.72683l-0.75486,-0.02298c-0.05524,-0.00205 -0.11048,-0.00409 -0.16572,-0.00614c0.00985,0.0199 0.01934,0.04073 0.02842,0.06253c0.28846,0.69231 -0.40385,0.98077 -0.40385,0.98077c-3.07377,1.28074 -6.02231,1.38928 -9.24731,1.52628c0.06245,0.10691 0.13023,0.20974 0.20417,0.3078c0.30284,0.40161 2.27547,1.99879 2.88603,1.71993c0.80426,-0.36733 1.15066,-1.3437 1.75776,-1.98651l0.21712,-0.22989c0,0 0.51497,-0.54526 1.06023,-0.03029c0.54526,0.51497 0.03029,1.06023 0.03029,1.06023l-0.21712,0.22989c-0.25915,0.27439 -2.14387,2.30385 -2.36198,2.37556c-2.9281,0.96279 -3.88535,-1.15683 -4.59122,-3.40173c-0.08283,0.00393 -0.16587,0.00795 -0.24911,0.0121c-5.8761,0.29239 -10.75748,0.09502 -16.51722,-1.13632c-0.64145,-0.13713 -1.28258,-0.27581 -1.92342,-0.41581c-0.16626,0.17215 -0.3169,0.32301 -0.43386,0.44216c-3.15034,3.20921 -9.86372,-1.76232 -10.6193,-5.46241c0,0 -0.1233,-0.7398 0.6165,-0.86309c0.7398,-0.1233 0.86309,0.6165 0.86309,0.6165c0.10509,1.05483 1.34259,1.75754 2.07771,2.4635c1.60328,1.53968 3.93358,4.36661 5.90721,2.28525l-0.80437,-0.49861c-0.21922,-0.13091 -0.36603,-0.3705 -0.36603,-0.64439c0,-0.38033 0.28309,-0.69453 0.65005,-0.7434l1.4721,-0.22081l0.02158,0.14386c0.236,-0.05941 0.47288,-0.11477 0.71054,-0.16658c-0.05825,-0.95437 -1.68277,-1.26258 -2.05493,-1.80615c-0.82316,-1.20229 -0.33957,-4.37202 -0.40885,-5.79231c-0.17261,-3.53841 -1.18445,-7.18866 -1.29065,-10.78028c-0.0735,0.01854 -0.15727,0.02762 -0.25277,0.02408c-0.51966,-0.01925 -0.66566,-0.38545 -0.70635,-0.60824c-1.99079,-0.06041 -3.97134,-0.3421 -5.90108,-0.89345c0,0 -0.72114,-0.20604 -0.5151,-0.92718c0.20604,-0.72114 0.92718,-0.5151 0.92718,-0.5151c1.80902,0.51686 3.66372,0.78088 5.5279,0.83858c0.20056,-4.60378 0.45058,-8.67075 -1.08161,-13.15229l-0.4062,-1.1881c0,0 -0.24263,-0.70967 0.46704,-0.9523c0.70967,-0.24263 0.9523,0.46704 0.9523,0.46704l0.4062,1.1881c1.15758,3.38584 1.35317,6.54156 1.29597,9.84582c0.70865,-2.82189 1.84554,-5.40967 3.24687,-8.03608c-0.18013,0.04039 -0.3607,0.08049 -0.54176,0.12032c0,0 -0.73248,0.16115 -0.89363,-0.57134c-0.16115,-0.73248 0.57134,-0.89363 0.57134,-0.89363c0.6159,-0.1355 1.22599,-0.27408 1.83151,-0.41643l0.08495,-0.1529c0,0 0.36423,-0.65562 1.01985,-0.29139c0.07417,0.0412 0.13528,0.08613 0.18535,0.13342c1.61312,-0.39841 3.19957,-0.82774 4.78343,-1.30152c-0.15575,-0.52673 -0.33874,-1.08214 -0.54869,-1.677c0,0 -0.24962,-0.70724 0.45763,-0.95686c0.70724,-0.24962 0.95686,0.45763 0.95686,0.45763c0.21523,0.60983 0.40382,1.18535 0.56548,1.73562c0.97211,-0.30785 1.94599,-0.63397 2.92719,-0.98148l0.77338,-0.27391c0,0 0.70697,-0.25039 0.95736,0.45659c0.25039,0.70697 -0.45659,0.95736 -0.45659,0.95736l-0.77338,0.27391c-1.0227,0.36221 -2.03808,0.70169 -3.052,1.02179c0.33168,1.5132 0.42557,2.87785 0.27453,4.32808c2.48827,0.2253 4.97945,0.42117 7.45262,0.41992c0,0 0.75,0 0.75,0.75c0,0.75 -0.75,0.75 -0.75,0.75c-2.55092,-0.00124 -5.11937,-0.20642 -7.6844,-0.43826c-0.18921,0.92217 -0.46794,1.90344 -0.83773,2.99479l-0.27732,0.81843c0,0 -0.24069,0.71033 -0.95102,0.46964c-0.71033,-0.24069 -0.46964,-0.95102 -0.46964,-0.95102l0.27732,-0.81843c0.32996,-0.97378 0.58263,-1.8418 0.7593,-2.65068c-1.44677,-0.13294 -2.89115,-0.26336 -4.32937,-0.35937l-0.06509,-0.00435c0,0 -0.74833,-0.04996 -0.69838,-0.79829c0.04996,-0.74833 0.79829,-0.69838 0.79829,-0.69838l0.06509,0.00435c1.48587,0.09919 2.97884,0.23632 4.47438,0.37489c0.13509,-1.26036 0.05926,-2.43784 -0.22152,-3.75138c-1.80407,0.53842 -3.61226,1.02048 -5.4576,1.46499l-0.08752,0.15753c-2.11893,3.81408 -3.70606,7.42269 -4.23748,11.81143c-0.011,0.09084 -0.02109,0.18177 -0.03032,0.27279c2.59673,-0.16172 5.1807,-0.68323 7.65426,-1.43904l0.51828,-0.15836c0,0 0.71726,-0.21916 0.93643,0.4981c0.21916,0.71726 -0.4981,0.93643 -0.4981,0.93643l-0.51828,0.15836c-2.63845,0.80619 -5.39844,1.35268 -8.17071,1.50908c-0.01447,2.25003 0.39163,4.54021 0.75843,6.81059c0.28653,-0.43923 0.83625,-0.26744 0.83625,-0.26744l0.71133,0.22229c3.01719,0.96341 5.94712,0.24345 8.9286,-0.50192c0,0 0.72761,-0.1819 0.90951,0.54571c0.1819,0.72761 -0.54571,0.90951 -0.54571,0.90951c-0.29836,0.07459 -0.59563,0.14799 -0.89203,0.21904zM315.40343,202.86314c-2.71016,1.38158 -7.26665,1.14145 -10.2598,1.49648c-0.39945,0.04738 -0.76729,0.11268 -1.12,0.16623c-0.00841,0.01225 -0.0169,0.0245 -0.02546,0.03675c0.37839,0.07971 0.75665,0.16001 1.1348,0.24086c5.60369,1.19799 10.29702,1.38897 16.00146,1.11131c-0.34365,-1.0908 -0.72059,-2.04568 -1.35379,-2.48118c-0.35388,-0.24338 -0.74151,-0.42563 -1.14081,-0.58734l-0.07626,0.23966l-1.41307,-0.44961c-0.26263,-0.07688 -0.46555,-0.29358 -0.5227,-0.56405c-0.30343,0.27334 -0.70985,0.52862 -1.22437,0.7909z" fill="#fff9b2" stroke-width="0.5"/><path d="M320.8526,167.72753c0.70374,-0.25932 0.96306,0.44442 0.96306,0.44442l0.15016,0.71098c1.66843,0.08926 3.32648,0.3595 4.98836,0.54415c0,0 0.74541,0.08282 0.66259,0.82824c-0.08282,0.74541 -0.82824,0.66259 -0.82824,0.66259c-1.94899,-0.21655 -3.84494,-0.47541 -5.76872,-0.8709l-0.61164,-1.35642c0,0 -0.25932,-0.70374 0.44442,-0.96306z" fill="#fff9b2" stroke-width="0.5"/></g></g></svg>