<svg version="1.1" xmlns="http://www.w3.org/2000/svg" xmlns:xlink="http://www.w3.org/1999/xlink" width="53.17647" height="53.17647" viewBox="0,0,53.17647,53.17647"><g transform="translate(-213.41176,-153.41176)"><g data-paper-data="{&quot;isPaintingLayer&quot;:true}" fill-rule="nonzero" stroke-width="2" stroke-linecap="butt" stroke-linejoin="miter" stroke-miterlimit="10" stroke-dasharray="" stroke-dashoffset="0" style="mix-blend-mode: normal"><path d="M218.41176,205.58824c-2.20914,0 -4,-1.79086 -4,-4v-43.17647c0,-2.20914 1.79086,-4 4,-4h43.17647c2.20914,0 4,1.79086 4,4v43.17647c0,2.20914 -1.79086,4 -4,4z" fill="#ff0000" stroke="#840000"/><path d="M216.33466,180c0,-13.07001 10.59533,-23.66533 23.66533,-23.66533c13.07001,0 23.66534,10.59533 23.66534,23.66533c0,13.07001 -10.59533,23.66533 -23.66534,23.66533c-13.07,0 -23.66533,-10.59533 -23.66533,-23.66533zM248.63203,175.82946c1.76767,0 3.20064,-1.43298 3.20064,-3.20063c0,-1.76767 -1.43297,-3.20064 -3.20064,-3.20064c-1.76767,0 -3.20063,1.43298 -3.20063,3.20064c0,1.76767 1.43297,3.20063 3.20063,3.20063zM231.36797,175.82946c1.76767,0 3.20063,-1.43298 3.20063,-3.20063c0,-1.76767 -1.43298,-3.20064 -3.20063,-3.20064c-1.76767,0 -3.20063,1.43298 -3.20063,3.20064c0,1.76767 1.43298,3.20063 3.20063,3.20063zM224.80674,194.92546h31.16395c0,0 -1.49979,-12.12735 -16.03083,-12.06352c-14.01735,0.06157 -15.13311,12.06352 -15.13311,12.06352z" fill="#ff9d66" stroke="#ff0000"/></g></g></svg>