<svg version="1.1" xmlns="http://www.w3.org/2000/svg" xmlns:xlink="http://www.w3.org/1999/xlink" width="46.36956" height="46.36956" viewBox="0,0,46.36956,46.36956"><defs><linearGradient x1="309.91025" y1="177.78674" x2="313.41083" y2="175.85328" gradientUnits="userSpaceOnUse" id="color-1"><stop offset="0" stop-color="#dfcfff" stop-opacity="0.53333"/><stop offset="1" stop-color="#dfcfff" stop-opacity="0"/></linearGradient><linearGradient x1="317.44833" y1="173.71031" x2="313.94775" y2="175.64376" gradientUnits="userSpaceOnUse" id="color-2"><stop offset="0" stop-color="#dfcfff" stop-opacity="0.53333"/><stop offset="1" stop-color="#dfcfff" stop-opacity="0"/></linearGradient></defs><g transform="translate(-296.81522,-156.81522)"><g data-paper-data="{&quot;isPaintingLayer&quot;:true}" fill-rule="nonzero" stroke-linejoin="miter" stroke-miterlimit="10" stroke-dasharray="" stroke-dashoffset="0" style="mix-blend-mode: normal"><path d="M301.06522,202.93478c-2.20914,0 -4,-1.79086 -4,-4v-37.86956c0,-2.20914 1.79086,-4 4,-4h37.86956c2.20914,0 4,1.79086 4,4v37.86956c0,2.20914 -1.79086,4 -4,4z" fill-opacity="0.12941" fill="#737373" stroke-opacity="0.55686" stroke="#8a8a8a" stroke-width="0.5" stroke-linecap="butt"/><g><path d="M307.74421,173.01862c-1.01595,-1.83941 -0.34841,-4.15415 1.49101,-5.1701c1.83941,-1.01595 4.15415,-0.34841 5.1701,1.49101c1.01595,1.83941 0.34841,4.15415 -1.49101,5.1701c-1.83941,1.01595 -4.15415,0.34841 -5.1701,-1.49101z" fill="#ff6f00" stroke="none" stroke-width="0" stroke-linecap="butt"/><path d="M307.91997,169.56648c0,0 1.81375,1.33062 2.27507,2.16586c0.44034,0.79726 0.51159,2.87948 0.51159,2.87948" fill="none" stroke="#0084ff" stroke-width="1" stroke-linecap="round"/><path d="M314.12721,172.72255c0,0 -1.72452,-1.16907 -2.16487,-1.96633c-0.46132,-0.83524 -0.6218,-3.07901 -0.6218,-3.07901" data-paper-data="{&quot;index&quot;:null}" fill="none" stroke="#0084ff" stroke-width="1" stroke-linecap="round"/></g><path d="M317.01938,191.83186l-2.67621,-4.84536l3.04922,-1.68416l2.67621,4.84536z" fill="#9966ff" stroke="none" stroke-width="0" stroke-linecap="butt"/><g><path d="M311.60764,179.93469c-1.01595,-1.83941 -0.34841,-4.15415 1.49101,-5.1701c1.83941,-1.01595 4.15415,-0.34841 5.1701,1.49101c1.01595,1.83941 0.34841,4.15415 -1.49101,5.1701c-1.83941,1.01595 -4.15415,0.34841 -5.1701,-1.49101z" fill="#ff6f00" stroke="none" stroke-width="0" stroke-linecap="butt"/><path d="M311.78339,176.48255c0,0 1.81375,1.33062 2.27507,2.16586c0.44034,0.79726 0.51159,2.87948 0.51159,2.87948" fill="none" stroke="#0084ff" stroke-width="1" stroke-linecap="round"/><path d="M317.99063,179.63863c0,0 -1.72452,-1.16907 -2.16487,-1.96633c-0.46132,-0.83524 -0.6218,-3.07901 -0.6218,-3.07901" data-paper-data="{&quot;index&quot;:null}" fill="none" stroke="#0084ff" stroke-width="1" stroke-linecap="round"/></g><path d="M313.57461,184.42118l-7.10775,-12.86881l7.50125,-4.14312l7.10775,12.86881z" fill-opacity="0.53333" fill="#dfcfff" stroke="none" stroke-width="NaN" stroke-linecap="butt"/><path d="M313.35364,184.02112l-6.88679,-12.46874l3.50058,-1.93346l6.88679,12.46874z" fill="url(#color-1)" stroke="none" stroke-width="0" stroke-linecap="butt"/><path d="M317.39114,181.87813l-6.88679,-12.46874l3.50059,-1.93346l6.88679,12.46874z" data-paper-data="{&quot;index&quot;:null}" fill="url(#color-2)" stroke="none" stroke-width="0" stroke-linecap="butt"/><path d="M306.26837,172.53218l-0.57083,-1.0335l8.63477,-4.76919l0.57083,1.0335z" fill="#3e3e3e" stroke="none" stroke-width="NaN" stroke-linecap="butt"/><path d="M312.71652,188.85447l-2.2649,-4.10068l26.53775,-14.65744l2.2649,4.10068z" fill="#444444" stroke="none" stroke-width="0" stroke-linecap="butt"/><path d="M308.57067,192.92821c-1.3257,0.73222 -2.99398,0.2511 -3.7262,-1.0746l-3.75643,-6.80113c-0.73222,-1.3257 -0.2511,-2.99398 1.0746,-3.7262l4.50075,-2.48587c1.3257,-0.73222 2.99398,-0.2511 3.7262,1.0746l3.75643,6.80113c0.73222,1.3257 0.2511,2.99398 -1.0746,3.7262z" fill="#878787" stroke="none" stroke-width="0" stroke-linecap="butt"/><path d="M302.61426,185.68882l4.41198,-5.48249" fill="none" stroke="#4e4e4e" stroke-width="1" stroke-linecap="round"/><path d="M303.7534,187.27862l4.73587,-6.31403" fill="none" stroke="#4e4e4e" stroke-width="1" stroke-linecap="round"/><path d="M304.39343,188.75251l5.28073,-6.74549" fill="none" stroke="#4e4e4e" stroke-width="1" stroke-linecap="round"/></g></g></svg>