<svg version="1.1" xmlns="http://www.w3.org/2000/svg" xmlns:xlink="http://www.w3.org/1999/xlink" width="89.34452" height="76.18812" viewBox="0,0,89.34452,76.18812"><defs><linearGradient x1="376.82562" y1="121.13558" x2="345.48583" y2="145.19173" gradientUnits="userSpaceOnUse" id="color-1"><stop offset="0" stop-color="#d2d2d2" stop-opacity="0"/><stop offset="1" stop-color="#d2d2d2" stop-opacity="0.4902"/></linearGradient><linearGradient x1="384.49741" y1="180.72378" x2="347.95429" y2="165.70774" gradientUnits="userSpaceOnUse" id="color-2"><stop offset="0" stop-color="#d2d2d2" stop-opacity="0"/><stop offset="1" stop-color="#d2d2d2" stop-opacity="0.4902"/></linearGradient><linearGradient x1="369.40364" y1="106.53565" x2="343.21438" y2="136.11611" gradientUnits="userSpaceOnUse" id="color-3"><stop offset="0" stop-color="#d2d2d2" stop-opacity="0"/><stop offset="1" stop-color="#d2d2d2" stop-opacity="0.4902"/></linearGradient><linearGradient x1="386.47478" y1="150.91203" x2="347.16299" y2="154.84446" gradientUnits="userSpaceOnUse" id="color-4"><stop offset="0" stop-color="#d2d2d2" stop-opacity="0"/><stop offset="1" stop-color="#d2d2d2" stop-opacity="0.4902"/></linearGradient></defs><g transform="translate(-298.13027,-105.53565)"><g data-paper-data="{&quot;isPaintingLayer&quot;:true}" fill-rule="nonzero" stroke-linejoin="miter" stroke-miterlimit="10" stroke-dasharray="" stroke-dashoffset="0" style="mix-blend-mode: normal"><path d="M301.46044,159.71852c-0.32267,-6.14144 -3.10972,-16.06148 -3.10972,-16.06148c0,0 4.40076,-16.63145 5.13351,-16.63145c1.38889,0 3.9259,1.91437 8.4684,5.29184c1.10129,0.81884 2.81587,-9.05817 3.96946,-8.24316c5.77322,4.07878 12.72886,21.14031 12.72886,21.14031c0,0 4.33329,6.06492 4.4601,11.35482c0.05922,2.47031 0.75524,6.06352 0.69908,10.42019c-0.01169,0.90657 -0.06081,1.83607 -0.13302,2.78025c-1.04173,0.23382 -2.08563,0.45455 -3.14924,0.4518c-3.41906,0 -6.92491,0.18295 -10.29381,-0.4393c-3.3911,-0.28468 -6.81038,-0.92193 -10.21042,-0.98158c-2.62214,-0.04439 -5.31487,-0.36025 -7.89431,-0.4118c-0.30897,-3.42187 -0.55425,-6.48845 -0.66889,-8.67043z" fill="#c5d8e2" stroke="none" stroke-width="0" stroke-linecap="butt"/><path d="M334.00379,167.10794c-1.10591,-0.12288 -0.98303,-1.22879 -0.98303,-1.22879l0.11032,-0.93127c0,-2.67532 0.04436,-5.391 -0.97456,-7.90282c0,0 -0.41325,-1.03313 0.61988,-1.44638c1.03313,-0.41325 1.44638,0.61988 1.44638,0.61988c1.10949,2.80685 1.13374,5.74748 1.13374,8.72932l-0.12393,1.17703c0,0 -0.12288,1.10591 -1.22879,0.98303z" fill="#c5d8e2" stroke="none" stroke-width="0.5" stroke-linecap="butt"/><path d="M333.22605,155.87093c-1.02742,0.42724 -1.45467,-0.60017 -1.45467,-0.60017l-0.31891,-0.77463c-0.21876,-0.68162 -0.64493,-1.27833 -0.95746,-1.92237c-0.68556,-1.41274 -0.79852,-3.05981 -1.37424,-4.51114c-0.21407,-0.53967 -0.57998,-1.01326 -0.77285,-1.56086c-1.04255,-2.96003 -1.72048,-6.09993 -3.24886,-8.87641c-1.17625,-2.13681 -2.88466,-3.83576 -4.16922,-5.88699c0,0 -0.58678,-0.94543 0.35864,-1.5322c0.94543,-0.58678 1.53221,0.35864 1.53221,0.35864c1.29324,2.10618 3.05734,3.85672 4.26028,6.04834c1.5764,2.87203 2.29528,6.10862 3.37241,9.16785c0.18171,0.5161 0.53738,0.95717 0.73803,1.4662c0.54411,1.38035 0.63164,3.00672 1.2964,4.33596c0.3666,0.73305 0.81147,1.4351 1.07638,2.21071l0.26204,0.62239c0,0 0.42725,1.02742 -0.60017,1.45467z" fill="#c5d8e2" stroke="none" stroke-width="0.5" stroke-linecap="butt"/><path d="M300.49819,137.44275c-1.09477,-0.19905 -0.89572,-1.29381 -0.89572,-1.29381l0.2053,-1.09411c0.5565,-1.8849 0.87481,-3.82789 1.32172,-5.73575c0.16532,-0.70573 0.06397,-1.50036 0.41498,-2.13453c0.44252,-0.7995 0.97333,-1.84624 1.87395,-2.0009c0.50941,-0.08747 2.40821,1.60827 3.03906,2.09888c1.30271,1.01311 2.77553,1.82352 3.87874,3.06821c0.53169,0.59987 1.02177,1.22843 1.50548,1.85988l0.06475,-0.42217c0.46918,-1.75883 0.97875,-3.57015 1.21834,-5.37878c0.13643,-1.02983 -0.02445,-1.62334 0.37721,-2.6061c0.31663,-0.77472 0.3586,-1.93927 1.14095,-2.23656c0.64742,-0.24603 2.20647,1.38348 2.70171,1.90373c1.05221,1.10534 1.77746,2.27692 2.6737,3.49187c0.94549,1.28172 1.7397,2.02912 2.36397,3.54209c0,0 0.41325,1.03313 -0.61988,1.44638c-1.03313,0.41325 -1.44638,-0.61988 -1.44638,-0.61988c-0.69629,-1.81545 -2.33402,-3.70104 -3.57395,-5.23656c-0.33241,-0.41165 -0.81349,-0.71876 -1.20727,-1.08057c-0.05671,0.18637 -0.11155,0.32908 -0.11723,0.36942c-0.3338,2.37081 -0.74076,4.65213 -1.36088,6.97839l-0.06264,0.49377c0,0 -0.12313,0.86192 -0.91399,0.95198c0.44032,0.54594 0.89902,1.07704 1.40042,1.57552c0,0 0.78681,0.78681 0,1.57361c-0.78681,0.7868 -1.57362,0 -1.57362,0c-1.57271,-1.58087 -2.75609,-3.43439 -4.22329,-5.11556c-0.99559,-1.14078 -2.41209,-1.8839 -3.5987,-2.80691c-0.34241,-0.26635 -0.72431,-0.49521 -1.00734,-0.82396c-0.19804,-0.23003 -0.11365,-0.72888 -0.40445,-0.81588c-0.21554,-0.06448 -0.04983,0.44732 -0.08442,0.66962c-0.09262,0.59511 -0.16654,1.19428 -0.29716,1.78222c-0.43161,1.94282 -0.78717,3.92018 -1.3488,5.83648l-0.15077,0.86426c0,0 -0.19904,1.09476 -1.29381,0.89571z" fill="#c0d3dd" stroke="none" stroke-width="0.5" stroke-linecap="butt"/><path d="M323.42836,156.923l-7.4166,-3.8516c0,0 4.12031,-0.45886 6.33112,-1.75466c3.07912,-1.80473 10.41752,-8.06203 10.41752,-8.06203l0.98188,4.46528z" fill="#c6deec" stroke="none" stroke-width="0" stroke-linecap="butt"/><path d="M302.78253,164.00629c-1.03289,0.41383 -1.44673,-0.61906 -1.44673,-0.61906l-0.19345,-0.48914c-0.42216,-1.29023 -0.83459,-2.50543 -1.08563,-3.84113c-0.99604,-5.36183 -2.13443,-10.72191 -1.89389,-16.19986c0.0994,-2.26391 0.39013,-4.43389 1.47506,-6.44022c0,0 0.53547,-0.97539 1.51087,-0.43992c0.97539,0.53547 0.43993,1.51088 0.43993,1.51088c-1.12504,2.01139 -1.17111,4.37775 -1.25335,6.64302c-0.17634,4.85648 1.02722,9.77076 1.9094,14.51967c0.22705,1.23877 0.62115,2.35885 1.01271,3.55552l0.14416,0.35354c0,0 0.41383,1.03289 -0.61906,1.44673z" fill="#c5d8e2" stroke="none" stroke-width="0.5" stroke-linecap="butt"/><path d="M302.26791,165.94347c-1.11271,0 -1.11271,-1.11272 -1.11271,-1.11272l0.00552,-0.35779c-0.03905,-0.39042 -0.07808,-0.78086 -0.11713,-1.17128c0,0 -0.11072,-1.10719 0.99647,-1.21791c1.10719,-0.11072 1.21791,0.99647 1.21791,0.99647c0.03905,0.39042 0.07809,0.78086 0.11713,1.17128l0.00553,0.57923c0,0 0,1.11272 -1.11272,1.11272z" fill="#c5d8e2" stroke="none" stroke-width="0.5" stroke-linecap="butt"/><path d="M333.88048,146.54855c-0.97465,-0.85687 -1.44967,-1.29614 -2.71884,-1.6614c0,0 -0.00108,-0.00033 -0.00315,-0.00099c-2.2273,2.18271 -4.07443,4.69808 -6.53081,6.66986c-1.1916,0.95653 -2.50829,1.97517 -4.06293,2.22146c-1.36991,0.21702 -2.92288,-0.17899 -4.23331,-0.50287c0,0 -1.07956,-0.26957 -0.81,-1.34914c0.26956,-1.07956 1.34914,-0.81 1.34914,-0.81c1.03821,0.26225 2.28644,0.60727 3.37962,0.45891c1.10243,-0.14961 2.15341,-1.08794 2.98435,-1.75378c2.61233,-2.09328 4.51814,-4.82813 6.95886,-7.08858l0.79378,-0.30777c0,0 0.65488,-0.07502 1.0143,0.39445c0.87389,0.28128 1.74362,0.64467 2.46546,1.20575c0.16845,0.13094 0.38987,0.29747 0.63643,0.48516c-0.29853,0.76475 -0.60251,1.58296 -0.9702,2.24187c-0.08683,-0.06452 -0.17163,-0.13166 -0.2527,-0.20294z" fill="#a1b9c7" stroke="none" stroke-width="0.5" stroke-linecap="butt"/><path d="M326.27422,149.19696c-0.0867,-0.04302 -0.17569,-0.10074 -0.26632,-0.17602c-0.85592,-0.71102 -0.1449,-1.56694 -0.1449,-1.56694c0.9764,-1.1738 1.94589,-2.38609 2.93993,-3.53774c0.38278,-0.44347 0.67498,-1.06728 1.22971,-1.25557c1.90807,-0.64763 5.09801,1.60733 5.06522,3.61039c-0.00985,0.60173 -0.44258,1.12314 -0.73563,1.64879c-1.07253,1.92377 -2.9349,2.73833 -5.0883,2.56611c-0.8499,-0.06798 -2.48593,-0.28457 -2.9997,-1.28903z" fill="#131415" stroke="none" stroke-width="0.5" stroke-linecap="butt"/><path d="M323.09988,157.40358c-0.6927,-0.72123 0.02853,-1.41393 0.02853,-1.41393l0.65491,-0.6281c3.70563,-3.30934 6.97403,-6.93033 10.16878,-10.70365c0,0 0.64737,-0.76218 1.40955,-0.11481c0.76217,0.64737 0.1148,1.40955 0.1148,1.40955c-3.26788,3.83368 -6.58596,7.52626 -10.36059,10.90032l-0.60207,0.57915c0,0 -0.72123,0.69269 -1.41392,-0.02854z" fill="#a1b9c7" stroke="none" stroke-width="0.5" stroke-linecap="butt"/><path d="M305.60344,147.22086c-0.50802,-0.86135 0.35333,-1.36936 0.35333,-1.36936l0.14015,-0.07924c1.9382,-0.93369 3.99044,-0.90757 6.10213,-0.75087c0,0 0.99697,0.07777 0.91921,1.07474c-0.07776,0.99697 -1.07474,0.91921 -1.07474,0.91921c-1.71744,-0.14177 -3.5032,-0.23193 -5.06568,0.55248l-0.00503,0.00638c0,0 -0.86135,0.50802 -1.36936,-0.35333z" fill="#a1b9c7" stroke="none" stroke-width="0.5" stroke-linecap="butt"/><path d="M323.45108,139.4763c0.30143,0.95349 -0.65206,1.25492 -0.65206,1.25492l-0.11473,0.00941c-1.7218,1.00691 -3.10602,2.50328 -4.15676,4.1863c0,0 -0.53318,0.84601 -1.37918,0.31283c-0.846,-0.53317 -0.31283,-1.37918 -0.31283,-1.37918c1.24373,-1.9576 2.8299,-3.65225 4.83255,-4.84253l0.5281,-0.19381c0,0 0.95349,-0.30143 1.25492,0.65206z" fill="#a1b9c7" stroke="none" stroke-width="0.5" stroke-linecap="butt"/><path d="M326.03057,155.43105c0.24515,-0.04903 0.29417,0.19612 0.29417,0.19612l0.04586,0.23465c0.62919,1.62701 -0.71774,1.19282 -1.66777,1.03704c0,0 -0.2466,-0.0411 -0.2055,-0.2877c0.0411,-0.2466 0.2877,-0.2055 0.2877,-0.2055c0.64082,0.10832 1.59541,0.77433 1.1063,-0.40137l-0.05688,-0.27907c0,0 -0.04903,-0.24515 0.19612,-0.29417z" fill="#ffffff" stroke="none" stroke-width="0.5" stroke-linecap="butt"/><path d="M327.26349,154.14676c0.24515,-0.04903 0.29417,0.19612 0.29417,0.19612l0.04662,0.23726c0.45972,1.22797 0.24585,1.28952 -0.9596,1.29469c0,0 -0.25,0 -0.25,-0.25c0,-0.25 0.25,-0.25 0.25,-0.25c0.29323,0.00107 0.92596,0.39641 0.87305,0.10799c-0.02253,-0.12283 -0.36007,-0.6744 -0.39425,-0.76542l-0.05612,-0.27646c0,0 -0.04903,-0.24515 0.19612,-0.29417z" fill="#ffffff" stroke="none" stroke-width="0.5" stroke-linecap="butt"/><path d="M329.04989,153.07056c0.24254,-0.06063 0.30317,0.1819 0.30317,0.1819l0.05398,0.21709c0.28895,1.47841 -0.50388,2.1967 -1.53196,0.70142c0,0 -0.13868,-0.20801 0.06934,-0.34669c0.20801,-0.13868 0.34669,0.06934 0.34669,0.06934c0.76059,1.19001 0.82628,0.65833 0.62565,-0.32601l-0.04876,-0.19388c0,0 -0.06063,-0.24254 0.1819,-0.30317z" fill="#ffffff" stroke="none" stroke-width="0.5" stroke-linecap="butt"/><path d="M330.21804,151.69792c0.17678,-0.17678 0.35355,0 0.35355,0l0.08897,0.09952c0.38188,0.63647 0.57413,1.10849 0.58875,1.40672c0.10243,0.07386 0.11656,0.13441 -0.01674,0.17403c-0.1132,0.38733 -0.76878,0.22934 -1.90112,-0.52491c0,0 -0.20801,-0.13868 -0.06934,-0.34669c0.13868,-0.20801 0.34669,-0.06934 0.34669,-0.06934c0.25016,0.16692 0.77647,0.36269 1.18151,0.536c-0.24436,-0.35617 -0.50323,-0.82646 -0.55849,-0.91857l-0.01378,-0.00322c0,0 -0.17678,-0.17678 0,-0.35355z" fill="#ffffff" stroke="none" stroke-width="0.5" stroke-linecap="butt"/><path d="M331.5673,149.95582c0.22361,-0.1118 0.33541,0.1118 0.33541,0.1118l0.02776,0.06455c0.92172,1.23571 0.16286,1.52554 -1.06305,1.32129c0,0 -0.2466,-0.0411 -0.2055,-0.2877c0.0411,-0.2466 0.2877,-0.2055 0.2877,-0.2055c0.90376,0.15068 1.22103,0.32142 0.58085,-0.52809l-0.07498,-0.14094c0,0 -0.1118,-0.22361 0.1118,-0.33541z" fill="#ffffff" stroke="none" stroke-width="0.5" stroke-linecap="butt"/><path d="M332.83799,148.41013c0.17678,-0.17678 0.35355,0 0.35355,0l0.0982,0.11634c0.79104,1.58425 0.28196,1.52557 -1.19733,1.23027c0,0 -0.24515,-0.04903 -0.19612,-0.29417c0.04903,-0.24515 0.29417,-0.19612 0.29417,-0.19612c0.08275,0.01658 0.85001,0.15275 1.12207,0.28027c-0.15333,-0.22285 -0.44593,-0.74854 -0.47002,-0.79664l-0.00454,0.0136c0,0 -0.17678,-0.17678 0,-0.35355z" fill="#ffffff" stroke="none" stroke-width="0.5" stroke-linecap="butt"/><path d="M334.12228,146.86898c0.17678,-0.17678 0.35355,0 0.35355,0l0.16314,0.20046c0.37589,1.12896 -0.08166,2.20253 -1.105,0.89689c0,0 -0.15,-0.2 0.05,-0.35c0.2,-0.15 0.35,0.05 0.35,0.05c0.70008,1.00171 0.42431,0.14153 0.23066,-0.43877l-0.04235,-0.00502c0,0 -0.17678,-0.17678 0,-0.35355z" fill="#ffffff" stroke="none" stroke-width="0.5" stroke-linecap="butt"/><g stroke="none" stroke-linecap="butt"><path d="M321.60202,162.22702l1.69026,-3.90873l18.38158,7.1836l-3.48616,2.95795z" fill="#c6deec" stroke-width="0"/><path d="M342.30872,166.68519c-0.70711,0.70711 -1.41422,0 -1.41422,0l-0.14943,-0.15524c-1.38374,-1.16467 -2.97275,-1.512 -4.59816,-2.23443c-4.26313,-1.89479 -8.51893,-3.57786 -13.04904,-4.77944c0,0 -0.96624,-0.25766 -0.70857,-1.2239c0.25767,-0.96624 1.22389,-0.70857 1.22389,-0.70857c4.62797,1.24013 8.98632,2.94673 13.34646,4.88449c1.81128,0.80498 3.50497,1.23556 5.06577,2.52541l0.28328,0.27747c0,0 0.70711,0.7071 0,1.41421z" fill="#a1b9c7" stroke-width="0.5"/><path d="M333.07351,161.11192c-0.1118,-0.22361 0.1118,-0.33541 0.1118,-0.33541l0.01455,0.02224c1.26352,-1.66965 1.50346,-1.08227 1.88355,0.7688c0,0 0.00605,0.03023 0.00328,0.07158l0.14656,-0.05781c0.58805,-0.08582 0.94016,-1.01778 1.46728,-0.98498c0.8088,0.05034 0.31896,1.71875 0.52747,2.21169c0,0 0.00228,0.0057 0.00523,0.01566l0.04822,-0.04822c1.74441,-1.73731 2.08197,-1.20685 2.51549,0.93809c0.00941,-0.00591 0.01532,-0.00886 0.01532,-0.00886l0.1217,-0.05988c0.55604,-0.208 0.74624,-1.22118 1.52418,-0.87217c0.69923,0.3137 0.25707,1.6063 0.25707,2.18309c0,0 0,0.25 -0.25,0.25c-0.25,0 -0.25,-0.25 -0.25,-0.25c0,-0.1808 0.24599,-1.67519 0.05159,-1.72115c-0.37062,-0.08762 -0.78177,0.72166 -1.14714,0.87447l-0.08379,0.04286c0,0 -0.22361,0.1118 -0.33541,-0.1118c-0.00007,-0.00013 -0.00013,-0.00027 -0.0002,-0.0004c-0.02376,0.01338 -0.05237,0.02412 -0.08676,0.031c-0.24515,0.04903 -0.29417,-0.19612 -0.29417,-0.19612c-0.10595,-0.5301 -0.0311,-1.55301 -0.35736,-1.94825c-0.08443,-0.10228 -1.19885,1.07398 -1.32696,1.20268l-0.15411,0.15411c0,0 -0.17678,0.17678 -0.35355,0c-0.04697,-0.04697 -0.06898,-0.09394 -0.07598,-0.13759c-0.20477,0.05524 -0.28759,-0.15182 -0.28759,-0.15182c-0.22702,-0.59129 0.44746,-2.23478 -0.08899,-1.89804c-0.51472,0.32309 -0.61195,0.83957 -1.30679,0.96715l-0.23137,0.09411c0,0 -0.23212,0.09285 -0.32497,-0.13927c-0.02369,-0.05922 -0.02622,-0.10938 -0.01686,-0.15124c-0.16549,-0.02 -0.20165,-0.20081 -0.20165,-0.20081c-0.03762,-0.19235 -0.12846,-1.62694 -0.34828,-1.66145c-0.21048,-0.03305 -0.53496,0.94679 -0.64498,1.09459l-0.19094,0.12498c0,0 -0.22361,0.1118 -0.33541,-0.1118z" fill="#ffffff" stroke-width="0.5"/><path d="M330.80861,160.20083c-0.17678,-0.17678 0,-0.35355 0,-0.35355l0.00454,0.0136c1.1086,-2.19656 1.747,-0.66543 2.01135,0.89265c0,0 0.0411,0.2466 -0.2055,0.2877c-0.2466,0.0411 -0.2877,-0.2055 -0.2877,-0.2055c-0.17791,-1.08456 -0.19222,-2.52807 -1.07094,-0.75124l-0.0982,0.11634c0,0 -0.17678,0.17678 -0.35355,0z" fill="#ffffff" stroke-width="0.5"/><path d="M328.651,159.73849c-0.17678,-0.17678 0,-0.35355 0,-0.35355l0.02815,-0.02459c1.18539,-1.53245 1.28208,-1.40632 1.32332,0.5096c0,0 0,0.25 -0.25,0.25c-0.25,0 -0.25,-0.25 -0.25,-0.25c0.00671,-0.45262 0.10247,-0.94267 0.14993,-1.39497c0.04581,-0.43651 -0.31374,0.83141 -0.57325,1.18537l-0.07459,0.07815c0,0 -0.17678,0.17678 -0.35355,0z" fill="#ffffff" stroke-width="0.5"/><path d="M320.58011,161.78381c0.50172,-0.99319 1.4949,-0.49146 1.4949,-0.49146c1.04546,0.52813 2.92727,1.47877 3.97272,2.0069c2.49616,1.2645 5.19485,2.01583 7.79564,3.02572c1.51493,0.58825 3.50448,1.27095 5.12971,0.75226c0.72711,-0.23206 0.97809,-0.85134 1.24142,-1.49322c0.73098,0.22473 1.56248,0.36329 2.3617,0.50834c-0.41046,0.83626 -0.90762,1.77545 -1.30948,2.17252c-1.61626,1.59706 -3.82357,1.26128 -5.76805,0.82142c-3.49873,-0.79145 -7.23941,-2.18075 -10.45436,-3.8007c-1.04546,-0.52813 -2.0909,-1.05626 -3.13636,-1.58439l-0.83637,-0.42251c0,0 -0.99317,-0.50172 -0.49145,-1.4949z" fill="#a1b9c7" stroke-width="0.5"/></g><path d="M345.48583,145.19173l31.33979,-24.05615" fill="none" stroke="url(#color-1)" stroke-width="2" stroke-linecap="round"/><path d="M347.95429,165.70774l36.54311,15.01604" fill="none" stroke="url(#color-2)" stroke-width="2" stroke-linecap="round"/><path d="M343.21438,136.11611l26.18926,-29.58046" fill="none" stroke="url(#color-3)" stroke-width="2" stroke-linecap="round"/><path d="M347.16299,154.84446l39.31179,-3.93244" fill="none" stroke="url(#color-4)" stroke-width="2" stroke-linecap="round"/></g></g></svg>