<svg version="1.1" xmlns="http://www.w3.org/2000/svg" xmlns:xlink="http://www.w3.org/1999/xlink" width="17.9" height="43.30022" viewBox="0,0,17.9,43.30022"><g transform="translate(-317.14554,-158.6441)"><g data-paper-data="{&quot;isPaintingLayer&quot;:true}" fill-rule="nonzero" stroke="none" stroke-width="0" stroke-linecap="butt" stroke-linejoin="miter" stroke-miterlimit="10" stroke-dasharray="" stroke-dashoffset="0" style="mix-blend-mode: normal"><path d="M319.59423,161.75312c0.19633,-0.45784 0.35795,-0.91756 0.51375,-1.39049c0.27854,-0.43194 0.44169,-1.02645 0.52545,-1.71853c2.69749,0.05647 5.64872,0.88394 8.30873,1.32253c-2.35132,1.0778 -4.52233,3.78409 -4.69576,6.35835c-0.14203,2.36012 2.28279,2.20922 3.83125,3.02976c1.36823,0.72503 2.0113,2.29912 3.72989,2.86717c0.7926,0.47897 0.94313,1.59639 1.47674,2.35328c1.4607,2.07192 2.58563,2.29766 0.96589,4.96743c0.04349,0.12766 0.09309,0.25083 0.14841,0.36971c-0.01698,0.01625 -0.02624,0.0286 -0.02624,0.0286c-0.14994,0.20606 -0.26132,0.44577 -0.32514,0.6935c-1.12681,2.40491 -1.92788,5.1719 -3.45364,7.42586c-0.23681,0.35276 -0.49819,0.67315 -0.77857,0.96832c-0.01833,-0.22134 -0.24885,-0.22134 -0.24885,-0.22134c-2.20527,0.00651 -6.14768,-1.63585 -5.81851,-4.11493c1.65576,-3.74484 -3.21396,-4.91351 -5.68845,-6.76212c0.0321,-0.03003 0.05866,-0.07421 0.07158,-0.13884c0.04903,-0.24515 -0.19612,-0.29417 -0.19612,-0.29417c-0.02804,-0.00553 -0.05617,-0.01104 -0.08438,-0.01653c0.08247,-0.82875 1.77265,-2.20865 1.94208,-2.8444c0.38385,-1.44034 -1.51548,-2.5567 -1.85847,-3.91583c0.00622,-1.1397 -1.36237,-5.57459 -0.50702,-6.30689c0.46992,-0.40232 1.39591,-0.58648 1.96169,-0.92326c0.59634,-0.49849 0.26844,-0.85542 -0.2231,-1.04562c0.15423,-0.15957 0.29785,-0.3862 0.4288,-0.69158z" fill="#5f4b29"/><path d="M323.32711,201.16713c-0.04018,0.2752 -0.07438,0.53781 -0.09448,0.77719c-0.74654,-0.00776 -1.46513,-0.05836 -2.16593,-0.14883c0.76322,-0.23984 1.52484,-0.4572 2.26042,-0.62836z" fill="#46371e"/><path d="M324.82652,180.62754c-1.71981,-1.8876 0.91981,0.70704 2.87265,-1.43632c1.95283,-2.14336 1.04925,-4.23557 2.87265,-2.23428c1.8234,2.00128 1.64012,4.0736 -0.31919,6.22406c-1.9593,2.15046 -3.70629,-0.66586 -5.42611,-2.55346z" fill="#a4a097"/></g></g></svg>