<svg version="1.1" xmlns="http://www.w3.org/2000/svg" xmlns:xlink="http://www.w3.org/1999/xlink" width="30.43401" height="20.77998" viewBox="0,0,30.43401,20.77998"><g transform="translate(-292.89311,-192.00204)"><g data-paper-data="{&quot;isPaintingLayer&quot;:true}" fill-rule="nonzero" stroke="none" stroke-width="0" stroke-linecap="butt" stroke-linejoin="miter" stroke-miterlimit="10" stroke-dasharray="" stroke-dashoffset="0" style="mix-blend-mode: normal"><path d="M322.89031,211.64684c-0.07024,0.37311 -0.10332,0.75354 -0.12733,1.13518h-29.86987c1.49584,-2.10017 3.17829,-3.98193 5.7946,-4.76464c3.84174,-1.15252 5.84562,-2.11936 7.30413,-6.01708c1.40821,-2.80757 2.93564,-5.91116 2.91657,-9.1004c-0.09807,-0.30292 -0.21277,-0.60191 -0.33983,-0.89786c0.6094,0.21963 1.16983,0.4891 1.65552,0.81666c0.98929,0.65953 3.43116,1.21653 3.7372,2.61054c0.35063,1.59714 -1.32252,4.27763 0.80642,5.0153c2.79726,1.2399 5.40136,1.96596 8.44574,1.99961c0.00522,3.13184 0.27288,6.0531 -0.32316,9.20269z" fill="#5f4b29"/><path d="M313.07191,204.25057c1.24857,0.02205 4.0258,-1.13097 6.94493,-2.11283c1.02727,0.18904 2.08247,0.29409 3.19663,0.30641c0.00522,3.13184 0.27288,6.0531 -0.32316,9.20269c-0.05822,0.30928 -0.09092,0.62359 -0.11407,0.93945l-29.85649,0.15839c1.48919,-2.08511 3.16717,-3.94923 5.76797,-4.7273c3.44096,-1.03229 5.40753,-1.91561 6.8284,-4.88939c1.41764,0.53403 3.76071,1.05556 7.55579,1.12258z" fill="#46371e"/><path d="M323.32711,201.16713c-0.04018,0.2752 -0.07438,0.53781 -0.09448,0.77719c-0.74654,-0.00776 -1.46513,-0.05836 -2.16593,-0.14883c0.76322,-0.23984 1.52484,-0.4572 2.26042,-0.62836z" fill="#46371e"/><path d="M303.69874,207.85663c0,0 1.50101,0.98234 9.57638,1.046c1.6847,0.01328 6.15253,-0.92849 9.99679,-1.34894c-0.02284,1.345 -0.11732,2.69663 -0.3816,4.09315c-0.06056,0.3217 -0.0935,0.64883 -0.11681,0.97749l-29.81816,0.07062c1.48037,-2.06498 3.15228,-3.90569 5.73238,-4.67757c0.42143,-0.12643 0.82075,-0.25063 1.19966,-0.3767z" fill-opacity="0.66275" fill="#45423d"/></g></g></svg>