<svg version="1.1" xmlns="http://www.w3.org/2000/svg" xmlns:xlink="http://www.w3.org/1999/xlink" width="18.32916" height="22.46528" viewBox="0,0,18.32916,22.46528"><g transform="translate(-320.24109,-179.12952)"><g data-paper-data="{&quot;isPaintingLayer&quot;:true}" fill-rule="nonzero" stroke="none" stroke-width="0.5" stroke-linecap="butt" stroke-linejoin="miter" stroke-miterlimit="10" stroke-dasharray="" stroke-dashoffset="0" style="mix-blend-mode: normal"><path d="M337.22903,184.3535c0.23212,0.57606 0.96841,0.87167 1.15078,1.46536c0.77755,2.53125 -1.10706,4.79243 -0.65012,7.28899c0.51866,2.83376 1.1703,5.49443 -1.77938,7.47988c-2.54122,1.71051 -6.95058,0.78675 -9.75529,0.50116c-2.68978,-0.9006 -5.05192,-2.20631 -3.75304,-5.63957c0.58355,-1.54245 1.69873,-0.95902 1.84215,-2.49618c0.06372,-0.68295 -1.00149,-1.19959 -1.28212,-1.49658c-0.60706,-0.64245 -2.39705,-3.00407 -2.61622,-3.71585c-0.36956,-1.2002 -0.01544,-3.73769 0.88193,-4.68772c1.08021,-1.14359 3.21347,-1.56765 4.65581,-1.99678c2.44232,-0.72664 4.9228,-1.613 7.45758,-1.92669c1.16884,0.72943 2.41693,1.31241 3.69596,1.69618c-0.11094,1.25019 -0.21498,2.61716 0.15196,3.5278z" fill="#131313"/><path d="M325.99578,186.91991c-0.59625,0.69727 1.19454,1.78086 0.83189,2.62358c-0.59852,1.39085 -2.35872,1.47251 -3.29746,0.37731c-3.51498,-4.10081 3.27418,-10.48287 7.39455,-9.7416c1.63749,0.29459 1.56666,1.38335 0.88677,2.57315c-0.13661,0.68772 -0.74338,1.20612 -1.47122,1.20612c-0.12313,0 -0.24279,-0.01484 -0.3573,-0.04282c-1.49732,-0.01417 -3.08335,1.94722 -3.98724,3.00426z" fill="#303030"/><path d="M335.99003,190.40713c0.71748,0.58028 0.97919,1.56495 1.06831,2.55296c0.0367,0.40689 0.04413,0.81434 0.04206,1.19435c-0.03638,6.68616 -2.9607,6.53897 -8.55031,5.38945c-1.14694,-0.23587 -3.57126,0.32148 -4.23089,-0.66795c-2.63814,-3.95721 6.71617,-1.60461 7.31326,-1.70281c0.34614,-0.05692 2.46461,-0.09549 2.46793,-0.32165c0.00259,-0.17638 -0.25974,-5.84263 0.90442,-6.07546z" fill="#000000"/><path d="M330.47443,181.98413c0.47434,-0.15811 0.63246,0.31623 0.63246,0.31623l0.08264,0.25338c0.28089,0.65777 0.4084,1.04981 0.42983,1.51039l0.09379,-0.01172l0.09643,0.77145c0.00319,0.02282 0.00484,0.04614 0.00484,0.06984c0,0.18848 -0.10429,0.35261 -0.25832,0.43782c0.06998,0.43225 0.11287,0.80869 0.09544,1.21814h0.16288v0.77927c0,0.27614 -0.22386,0.5 -0.5,0.5c-0.1996,0 -0.37189,-0.11696 -0.45206,-0.28608l-0.04289,-0.08579c-0.09172,0.1083 -0.22869,0.17705 -0.38173,0.17705c-0.13176,0 -0.25162,-0.05097 -0.34093,-0.13426c-0.08931,0.08329 -0.20917,0.13426 -0.34093,0.13426c-0.18532,0 -0.3471,-0.10082 -0.43346,-0.25061l-0.28078,-0.46797c-0.20215,-0.28833 -0.48357,-0.59772 -0.77092,-0.92125l0.03312,0.29812c0.00255,0.02045 0.00386,0.04129 0.00386,0.06244c0,0.27614 -0.22386,0.5 -0.5,0.5c-0.10909,0 -0.21002,-0.03494 -0.29222,-0.09423c-0.05142,0.22145 -0.24996,0.38646 -0.48705,0.38646c-0.15962,0 -0.30178,-0.0748 -0.39332,-0.19126l-0.35066,-0.43833c-0.03324,-0.02252 -0.0663,-0.04568 -0.09902,-0.06951c0.39115,0.83622 1.21165,2.62328 0.37969,3.10429c0.18029,0.23853 0.35107,0.48169 0.50242,0.73392c0,0 0.25725,0.42875 -0.1715,0.68599c-0.42875,0.25725 -0.68599,-0.1715 -0.68599,-0.1715c-0.74601,-1.24346 -1.88462,-2.23698 -2.45841,-3.54979l-0.28301,-0.56603c-0.03658,-0.06948 -0.05728,-0.14862 -0.05728,-0.2326c0,-0.27614 0.22386,-0.5 0.5,-0.5c0.17631,0 0.3313,0.09125 0.42033,0.2291l0.38533,0.578l-0.06982,0.04655l0.0036,0.0072l-0.03477,0.01738c0.00021,0.00021 0.00042,0.00042 0.00062,0.00063l0.04052,-0.00478c0.01164,0.02771 0.02357,0.05529 0.0358,0.08274c1.24841,1.29147 1.6199,2.46963 0.41692,-0.41051l-0.00041,-0.00239l-0.00049,0.0002l-0.293,-0.72241c-0.02632,-0.06082 -0.0409,-0.1279 -0.0409,-0.19839c0,-0.27614 0.22386,-0.5 0.5,-0.5c0.04574,0 0.09005,0.00614 0.13215,0.01765l0.13109,0.03277c-0.15529,-0.22309 -0.27108,-0.46683 -0.35069,-0.74617l-0.2028,0.0507l-0.1921,-0.76839c-0.01151,-0.04209 -0.01765,-0.0864 -0.01765,-0.13215c0,-0.27614 0.22386,-0.5 0.5,-0.5c0.15962,0 0.30178,0.0748 0.39332,0.19126l0.37417,0.46771c0.18962,0.19328 0.35624,0.38304 0.50065,0.57308l-0.24972,-0.49944c-0.03658,-0.06948 -0.05728,-0.14862 -0.05728,-0.2326c0,-0.27614 0.22386,-0.5 0.5,-0.5c0.11048,0 0.2126,0.03583 0.29535,0.09652l0.20481,0.14629c0.06666,-0.19779 0.25366,-0.34022 0.47393,-0.34022c0.21462,0 0.39766,0.13522 0.46856,0.32512l0.18079,0.45198c0.08023,0.1398 0.15923,0.27194 0.23657,0.39817c0.10151,0.0735 0.20266,0.16245 0.30275,0.26249c-0.05044,-0.15664 -0.10037,-0.31312 -0.15217,-0.46768l-0.15656,0.04697l-0.28401,-0.94669c-0.01586,-0.04874 -0.02443,-0.10077 -0.02443,-0.15481c0,-0.27614 0.22386,-0.5 0.5,-0.5c0.18532,0 0.3471,0.10082 0.43346,0.25061l0.28751,0.47919l-0.01704,0.01023l0.03861,0.02972c0.10531,0.27893 0.20994,0.54663 0.31076,0.80781c0.20714,0.20982 0.39283,0.44624 0.5637,0.69715l-0.23035,-0.61426c-0.02314,-0.05759 -0.03588,-0.12048 -0.03588,-0.18635c0,-0.20171 0.11944,-0.37552 0.29145,-0.45456c-0.04425,-0.13546 -0.09177,-0.27624 -0.15361,-0.41997l-0.11218,-0.33107c0,0 -0.15811,-0.47434 0.31623,-0.63246z" fill="#000000"/><path d="M327.71573,186.33869c0.04903,-0.24515 0.29417,-0.19612 0.29417,-0.19612l0.40058,0.08019c0.88884,0.22221 1.45785,0.35133 2.04407,1.12589c0.21603,0.33964 0.29935,0.7205 0.32495,1.12064c0.77538,-0.88468 0.84342,-1.70945 1.54301,-2.99426c0.51516,-0.9461 1.72165,-1.6226 2.49104,-2.34592c0.07803,-0.07804 0.15606,-0.15609 0.23408,-0.23413l0.22288,-0.12578c0,0 0.22361,-0.1118 0.33541,0.1118c0.1118,0.22361 -0.1118,0.33541 -0.1118,0.33541l-0.09293,0.03212c-0.07987,0.07986 -0.15975,0.15972 -0.23962,0.23958c-0.75488,0.70901 -1.85469,1.33953 -2.40395,2.23327c-0.86546,1.40823 -0.85177,2.38299 -1.97707,3.45595c-0.0316,0.81667 -0.11908,1.65898 0.30855,2.35999c0.17878,0.29306 0.46491,0.53457 0.78782,0.74877c0.14298,-1.62173 0.65721,-3.12862 2.18209,-1.73281c0,0 0.17678,0.17678 0,0.35355c-0.17678,0.17678 -0.35355,0 -0.35355,0c-0.93404,-1.09543 -1.23908,0.27635 -1.32363,1.68411c0.32921,0.18566 0.6597,0.35729 0.92852,0.5365c0,0 0.20801,0.13868 0.06934,0.34669c-0.13868,0.20801 -0.34669,0.06934 -0.34669,0.06934c-0.21163,-0.14109 -0.44105,-0.27589 -0.67371,-0.41328c-0.02081,0.82725 0.01903,1.55472 0.03091,1.65508c0.03654,0.30869 -0.31208,0.7913 -0.39153,1.10718c-0.00822,0.27327 -0.13756,0.54215 -0.29612,0.76487l-0.24894,0.24983c0,0 -0.17678,0.17678 -0.35355,0c-0.17678,-0.17678 0,-0.35355 0,-0.35355l0.22477,-0.22388c0.11149,-0.13663 0.18481,-0.32215 0.17759,-0.49836c0.04527,-0.18184 0.41824,-0.80115 0.39799,-0.94556c-0.03779,-0.26953 -0.09803,-1.13778 -0.05783,-2.06899c-0.608,-0.38714 -1.16305,-0.83869 -1.39461,-1.51981c-0.16457,-0.48408 -0.13012,-1.11668 -0.10659,-1.7427c-0.07838,0.06105 -0.16096,0.1226 -0.2481,0.18472c-1.63991,1.54518 -2.94001,3.91942 -3.79511,6.05782c0,0 -0.09285,0.23212 -0.32497,0.13927c-0.23212,-0.09285 -0.13927,-0.32497 -0.13927,-0.32497c0.88488,-2.21154 2.23988,-4.6632 3.94214,-6.25862c0.21991,-0.15736 0.41031,-0.30884 0.57682,-0.45663c-0.00875,-0.48752 -0.07369,-0.93452 -0.30649,-1.25848c-0.50055,-0.67484 -0.97903,-0.73521 -1.7456,-0.92685l-0.38894,-0.07772c0,0 -0.24515,-0.04903 -0.19612,-0.29417z" fill="#2f2f2f"/><path d="M333.37568,194.42752c-0.22361,-0.1118 -0.1118,-0.33541 -0.1118,-0.33541l0.06539,-0.12516c0.23324,-0.68441 0.69425,-1.28913 1.12983,-1.86826c0.95617,-1.88386 -0.59,-4.66901 -0.59,-6.57945c0,0 0,-0.25 0.25,-0.25c0.25,0 0.25,0.25 0.25,0.25c0,2.06957 1.53321,4.78454 0.51532,6.84231c-0.40633,0.54325 -0.87185,1.1196 -1.08081,1.76351l-0.09252,0.19065c0,0 -0.1118,0.22361 -0.33541,0.1118z" fill="#2f2f2f"/></g></g></svg>