<svg version="1.1" xmlns="http://www.w3.org/2000/svg" xmlns:xlink="http://www.w3.org/1999/xlink" width="11.9657" height="22.43553" viewBox="0,0,11.9657,22.43553"><g transform="translate(-335.94708,-152.60023)"><g data-paper-data="{&quot;isPaintingLayer&quot;:true}" fill-rule="nonzero" stroke="none" stroke-width="0.5" stroke-linecap="butt" stroke-linejoin="miter" stroke-miterlimit="10" stroke-dasharray="" stroke-dashoffset="0" style="mix-blend-mode: normal"><path d="M337.76239,159.34384c-0.05169,-0.20028 -0.0792,-0.41027 -0.0792,-0.6267c0,-0.41968 0.10342,-0.81521 0.28616,-1.1625c-0.16441,-0.03181 -0.32308,-0.07973 -0.47429,-0.14206c-0.9085,-0.37445 -1.54798,-1.26872 -1.54798,-2.31235c0,-1.38071 1.11929,-2.5 2.5,-2.5c0.20144,0 0.39732,0.02383 0.58497,0.06882c1.73674,-0.17586 3.59912,1.12662 5.23373,2.83357c3.82867,3.99811 3.39651,10.49471 3.3364,15.512c-0.03371,2.81352 -1.7616,5.10607 -4.60837,3.47934c-0.63806,-0.36461 -0.91924,-1.93631 -1.08236,-3.32048c-0.94309,-2.01683 -1.50414,-5.04537 -1.92599,-7.03226c-0.07457,-0.18258 -0.14793,-0.36059 -0.21934,-0.53302c-0.29849,-0.72066 -1.21981,-2.32608 -1.64779,-3.42557c-0.23615,-0.38719 -0.39298,-0.703 -0.35594,-0.8388z" fill="#131313"/><path d="M340.4559,160.68891c-0.70711,0.70711 -1.41422,0 -1.41422,0l-0.15286,-0.156c-1.37953,-1.58498 -2.59453,-3.17122 -2.82064,-5.29306c0,0 -0.09053,-0.99589 0.90536,-1.08643c0.33112,-0.0301 0.56214,0.0599 0.72305,0.19346c2.47207,-2.11134 4.27206,-1.93303 6.94746,0.73966l0.53694,0.53694c0,0 0.70711,0.70711 0,1.41421c-0.70711,0.70711 -1.41422,0 -1.41422,0l-0.53694,-0.53694c-2.20179,-2.20416 -2.72718,-2.16983 -4.83166,-0.08908c0.4441,1.03829 1.24595,1.95246 1.99581,2.80423l0.06192,0.05879c0,0 0.70711,0.70711 0,1.41422z" fill="#303030"/><path d="M341.66854,161.76795c-0.44721,0.22361 -0.67082,-0.22361 -0.67082,-0.22361l-0.09737,-0.19473c-0.10046,-0.20091 -0.23534,-0.41862 -0.38123,-0.63463c-0.30246,0.30242 -0.65285,0.0221 -0.65285,0.0221c-0.32486,-0.25989 -1.18269,-1.03882 -1.38601,-1.69065c-0.07848,-0.0332 -0.14672,-0.08587 -0.19867,-0.15196l-0.42667,-0.53333l0.13833,-0.11066c-0.74126,-0.80345 -1.59052,-1.97429 -1.15403,-2.58761c0.99778,-1.40199 1.88392,0.78448 2.17129,0.3818c0.38212,-0.53547 0.3544,-1.64655 0.46141,-2.27501l0.00374,-0.0066l-0.00237,-0.00047l0.10557,-0.52786c0.04197,-0.2337 0.24633,-0.41102 0.4921,-0.41102c0.1996,0 0.37189,0.11696 0.45206,0.28608l0.31732,0.63464l-0.24367,0.12184c0.68281,1.55576 1.24532,3.74823 1.66679,1.62454l0.10506,-0.63037c0.0358,-0.24101 0.24358,-0.42591 0.49454,-0.42591c0.16566,0 0.31251,0.08057 0.4035,0.20466l0.31867,0.42489l-0.20546,0.1541c0.68487,1.24368 0.42826,2.96555 0.7253,4.45077l0.00971,0.20545c0,0 0,0.5 -0.5,0.5c-0.5,0 -0.5,-0.5 -0.5,-0.5l0.00971,-0.00934c-0.09085,-0.45423 -0.36012,-1.69905 -0.44874,-2.7591c-0.79044,0.96036 -1.96385,-0.15331 -2.46501,-1.42278c-0.09571,0.42722 -0.2419,0.81877 -0.48754,1.06432c0.00819,0.24798 -0.21134,0.41263 -0.21134,0.41263c-0.22091,0.13057 -0.31526,0.43535 -0.33695,0.69332v0.27336c0.05482,-0.01173 0.11316,-0.02213 0.17516,-0.0311c1.15817,-0.16759 2.07087,2.0597 2.44462,2.80651l0.09745,0.1949c0,0 0.22361,0.44721 -0.22361,0.67082zM338.2517,156.67188c0.05696,0.11991 0.10796,0.25157 0.15109,0.38561c0.04287,-0.09408 0.09117,-0.18523 0.14525,-0.27184c-0.1014,-0.0342 -0.20138,-0.07283 -0.29634,-0.11377z" fill="#000000"/><path d="M346.41278,163.32745c0.64544,0.36882 0.94595,1.36296 1.00744,2.61135c-0.26625,0.2415 -0.61966,0.38865 -1.00744,0.38865c-0.82843,0 -1.5,-0.67157 -1.5,-1.5c0,-0.82843 0.67157,-1.5 1.5,-1.5c0.82843,0 1.5,0.67157 1.5,1.5c0,0.44065 -0.19001,0.83692 -0.49256,1.11135c0.16255,3.29985 -1.34488,8.37618 -2.56599,8.37618c-2.78537,0 -0.20833,-9.97789 0.26582,-10.24883z" fill="#000000"/><path d="M346.94233,170.6252c-0.1118,0.22361 -0.33541,0.1118 -0.33541,0.1118l-0.36068,-0.18148c-1.7526,-1.30965 -4.1509,-3.24632 -3.74441,-5.53747c0.91339,-2.50469 1.60766,-5.68562 -2.09064,-5.67641c0,0 -0.25,0 -0.25,-0.25c0,-0.25 0.25,-0.25 0.25,-0.25c4.04121,0.00914 3.61709,3.47585 2.57346,6.30638c-0.35212,2.0104 1.98375,3.81702 3.52466,4.9823l0.32122,0.15947c0,0 0.22361,0.1118 0.1118,0.33541z" fill="#2f2f2f"/></g></g></svg>