<svg version="1.1" xmlns="http://www.w3.org/2000/svg" xmlns:xlink="http://www.w3.org/1999/xlink" width="28.76116" height="29.08744" viewBox="0,0,28.76116,29.08744"><g transform="translate(-286.95033,-189.86083)"><g data-paper-data="{&quot;isPaintingLayer&quot;:true}" fill-rule="nonzero" stroke="none" stroke-width="0.5" stroke-linecap="butt" stroke-linejoin="miter" stroke-miterlimit="10" stroke-dasharray="" stroke-dashoffset="0" style="mix-blend-mode: normal"><path d="M302.48833,191.50154c4.71823,2.35912 7.93211,7.0737 11.28349,10.99548c1.51667,1.77481 3.00341,4.07274 0.89103,6.00349c-1.38758,1.26827 -13.82389,-3.35466 -15.30195,-3.84633c-6.43824,-2.14162 -14.74438,-17.44926 -1.17762,-14.3909c1.35832,0.30621 2.84402,0.47639 4.07657,1.18747z" fill="#398d0b"/><path d="M302.33096,204.34018c3.86657,0.77331 4.54634,3.9675 6.96472,5.80386c0.71823,0.54538 2.32124,-0.61778 3.75178,0.87496c0.88104,0.91935 -0.45344,3.67041 -1.65101,4.09409c-3.42962,1.21333 -7.02565,-0.42078 -10.53411,0.19281c-4.8717,0.852 -6.41104,5.64178 -12.58661,2.69463c-2.42588,-1.1577 -0.97667,-6.46109 0.0611,-8.06026c0.74315,-1.14516 1.86416,-3.42666 3.19603,-4.02917c1.46114,-0.66099 2.76941,-0.0223 4.17478,-0.3307c2.73967,-0.60119 3.16066,-2.03186 6.37458,-1.22838z" fill="#41a00d"/></g></g></svg>