<svg version="1.1" xmlns="http://www.w3.org/2000/svg" xmlns:xlink="http://www.w3.org/1999/xlink" width="46.28994" height="45.10891" viewBox="0,0,46.28994,45.10891"><g transform="translate(-226.50877,-170.17406)"><g data-paper-data="{&quot;isPaintingLayer&quot;:true}" fill-rule="nonzero" stroke="#6a5940" stroke-width="4.5" stroke-linejoin="miter" stroke-miterlimit="10" stroke-dasharray="" stroke-dashoffset="0" style="mix-blend-mode: normal"><path d="M270.54872,213.03297h-23.22669c-0.40904,-0.84936 -0.86602,-1.64322 -1.3558,-2.34339c-0.73752,-1.05431 -1.9351,-1.78392 -2.50299,-2.93848c-0.53536,-1.08844 0.09254,-1.26925 0.33125,-2.33197c0.46659,-2.07723 2.89931,-6.13954 2.61377,-8.11037c-0.14676,-1.01297 -3.30566,-4.06076 -3.90967,-4.71347c-2.20116,-1.61224 -3.62659,-2.63683 -6.41062,-2.66219c-0.8333,-0.00759 -1.66669,-0.00569 -2.5,0c-0.60679,0.00414 -1.50913,0.43954 -1.81853,-0.08245c-0.56475,-0.9528 0.48783,-2.16715 0.58951,-3.27006c0.21844,-2.36938 0.49284,-6.1667 -0.02089,-8.54203c-0.13206,-0.61062 -0.35667,-1.24223 -0.64684,-1.88229c0.48811,0.31194 1.01206,0.58591 1.57613,0.81619c6.55837,2.67738 15.56616,-0.52206 21.02068,5.00622c4.09524,2.73412 7.99984,0.69167 12.5082,1.67608c1.26167,0.27549 2.57422,1.30845 3.75246,2.25475z" fill="#887151" stroke-linecap="butt"/><path d="M236.1292,177.78773l32.33828,32.33828" fill="none" stroke-linecap="round"/><path d="M245.16592,178.47458l-11.45773,11.45773" fill="none" stroke-linecap="round"/></g></g></svg>