<svg version="1.1" xmlns="http://www.w3.org/2000/svg" xmlns:xlink="http://www.w3.org/1999/xlink" width="51.55304" height="114.4872" viewBox="0,0,51.55304,114.4872"><g transform="translate(-292.63435,-124.63558)"><g data-paper-data="{&quot;isPaintingLayer&quot;:true}" fill-rule="nonzero" stroke-linecap="butt" stroke-linejoin="miter" stroke-miterlimit="10" stroke-dasharray="" stroke-dashoffset="0" style="mix-blend-mode: normal"><path d="M312.23301,194.87829c-0.2422,0.68149 -0.74454,1.19335 -1.3768,1.57837c-1.16626,0.71021 -2.77463,0.98888 -4.00793,1.10467c-7.27368,0.68289 -10.7304,-4.38232 -13.54221,-10.70381c-0.64292,-1.44541 -1.757,-9.1744 1.95228,-5.47058c0.85151,0.85026 0.78587,3.0313 1.26861,4.09608c1.28921,2.84361 3.31975,6.44569 5.88291,8.31301c2.14104,1.55979 7.65645,-1.21982 8.2554,-0.7917z" fill="#e3a500" stroke="none" stroke-width="0.5"/><g stroke="none" stroke-width="0.5"><path d="M330.77409,223.84989c-2.24878,2.91595 -3.40786,6.56878 -5.66836,9.50833l-0.09872,0.12838c1.04026,0.59599 2.77423,0.9789 3.22771,1.97706c0.48781,1.07369 -1.19912,3.59044 -2.3847,3.65909c-0.10059,0.00583 -1.18162,-0.57552 -1.38157,-0.70783c-1.12685,-0.74559 -2.23868,-1.61916 -3.3092,-2.44029c-1.29098,-0.99276 -2.58263,-1.98466 -3.87294,-2.97829c-0.31102,-0.2395 -1.08394,-0.78014 -1.18017,-1.15133c-0.27544,-1.06236 1.45911,-2.945 2.23057,-3.51156c0.2519,-0.185 0.4913,-0.45991 0.80289,-0.4842c0.53949,-0.04205 1.55346,0.80259 2.0142,1.07327c0,0 0.00036,0.00021 0.00105,0.00063l0.06959,-0.09049c2.43539,-3.16696 4.79704,-6.37161 7.23226,-9.53835c0.20482,-0.26634 0.41086,-0.5316 0.61754,-0.79618c1.15027,1.07561 2.19009,2.23927 3.0662,3.53265c-0.45019,0.61401 -0.90633,1.22094 -1.36631,1.81909z" fill="#b0c1ca"/><g><path d="M322.08428,229.84229l0.34438,-0.44784c2.35238,-3.05901 4.63374,-6.05873 6.39314,-9.48054c0.19849,-0.359 0.4094,-0.71025 0.63009,-1.05544c0.27245,0.2653 0.53809,0.53604 0.79615,0.81279c-0.15406,0.25159 -0.30244,0.50658 -0.44408,0.76564c-1.79371,3.47452 -4.103,6.52762 -6.49323,9.63585l-0.34439,0.44785c0,0 -0.33916,0.44104 -0.78018,0.10188l-0.00001,-0.00001c-0.44103,-0.33915 -0.10188,-0.78019 -0.10188,-0.78019z" fill="#c7d7e0"/><path d="M327.26044,225.54044c0.44102,0.33914 0.10188,0.78018 0.10188,0.78018l-0.03131,0.04072c-1.18403,1.53971 -2.27086,3.12152 -3.45647,4.66327c0,0 -0.33915,0.44103 -0.78018,0.10188c-0.44102,-0.33915 -0.10188,-0.78019 -0.10188,-0.78019c1.18561,-1.54176 2.2722,-3.12325 3.45647,-4.66327l0.03131,-0.04071c0,0 0.33916,-0.44104 0.78018,-0.10188z" fill="#cdd0e0"/><path d="M330.03629,221.90193c0,0 -0.25478,0.49459 -0.74937,0.2398c-0.49459,-0.25479 -0.23981,-0.74938 -0.23981,-0.74938c0.342,-0.66094 0.59118,-1.35201 0.91937,-2.01764c0.27845,0.28805 0.54873,0.58259 0.80996,0.88431c-0.24847,0.54657 -0.46371,1.10415 -0.74016,1.64291z" fill="#cdd0e0"/></g></g><g stroke="none" stroke-width="0.5"><path d="M314.26973,211.97848c-0.16997,2.01075 -0.55019,4.13321 -1.01698,6.11401c-0.03638,0.15436 -0.07231,0.30873 -0.10785,0.46312c-0.30884,-0.07049 -0.61733,-0.14188 -0.92535,-0.21447c-1.50629,-0.35496 -3.01258,-0.70993 -4.51886,-1.06489c0.02207,-0.09134 0.04395,-0.18262 0.06564,-0.27383c0.24053,-2.23775 1.21492,-4.42177 1.40479,-6.6525c0.10495,-1.23308 -0.00899,-2.53704 0.11738,-3.77825c1.40768,0.66347 3.2302,0.70068 4.67929,1.04216c0.27504,0.06481 0.54936,0.12457 0.82529,0.16873c0.00446,1.41524 -0.40325,2.77513 -0.52336,4.19591z" fill="#b0c1ca"/><path d="M309.11164,210.28388c0.11471,-1.14626 0.54496,-2.33832 0.81054,-3.46104c0.34648,0.11509 0.70879,0.20432 1.07741,0.27892c-0.25388,1.06274 -0.68138,2.20823 -0.78062,3.29133c-0.2256,2.46232 -0.1908,4.85469 -0.76493,7.29637c-0.36084,-0.08503 -0.72166,-0.17006 -1.0825,-0.2551c0.55351,-2.39536 0.49853,-4.73675 0.74008,-7.15048z" fill="#c7d7e0"/><path d="M309.90545,210.7102c0.14829,-1.05463 0.9455,-2.18022 0.66048,-3.2282c0,0 -0.06058,-0.25615 0.07779,-0.45774c0.32908,0.07717 0.66586,0.13938 1.00329,0.19492c0.00121,0.00438 0.00176,0.00675 0.00176,0.00675c0.28343,1.32317 -0.44613,2.35651 -0.64173,3.64121c-0.35753,2.3482 -0.00163,4.72113 -0.46069,7.07969c-0.36083,-0.08503 -0.72165,-0.17006 -1.08249,-0.25509c0.45382,-2.31634 0.11619,-4.66739 0.44159,-6.98153z" fill="#cdd0e0"/></g><g stroke="none" stroke-width="0.5"><path d="M331.67139,213.00194c0.3311,1.94913 0.59036,3.94114 0.78607,5.92808c-1.50431,-0.37519 -3.05017,-0.54955 -4.61855,-0.58844c-0.20289,-3.37799 -0.34688,-6.74349 -1.15449,-10.00942c1.44211,0.23572 2.66615,0.4326 4.07088,0.44765c0.10828,1.44271 0.66799,2.76158 0.9161,4.22213z" fill="#b0c1ca"/><path d="M327.3545,208.61798c0,0 -0.01735,-0.07669 -0.01017,-0.17895c0.39182,0.06233 0.77115,0.11976 1.14703,0.16905c0.682,3.22205 0.45854,6.59008 0.95076,9.82383c-0.3733,-0.03355 -0.74829,-0.05796 -1.12471,-0.07412c-0.43607,-3.21993 -0.24116,-6.54947 -0.96291,-9.73981z" fill="#c7d7e0"/><path d="M329.22305,210.522c0.55499,-0.03882 0.5938,0.51618 0.5938,0.51618l0.01792,0.25617c0.0594,0.8494 0.09634,1.612 -0.05086,2.45567c0,0 -0.09695,0.54785 -0.6448,0.4509c-0.54783,-0.09696 -0.4509,-0.6448 -0.4509,-0.6448c0.13528,-0.75221 0.08961,-1.42526 0.03654,-2.18414l-0.01791,-0.25617c0,0 -0.03881,-0.55499 0.51619,-0.59381z" fill="#cdd0e0"/></g><path d="M336.3934,195.78927c0.05703,0.19959 0.0183,0.34599 -0.05266,0.45111l-0.03104,0.16689c0,1.00428 0,2.00856 0,3.01284c0,0.72347 0.03643,1.34894 -0.19197,2.05046c-0.46724,1.43508 -1.36648,2.25274 -2.49516,2.68755v0.14767c0,1.88327 0.49504,4.62498 -1.90119,5.0335c-0.46833,0.00107 -0.92542,-0.0222 -1.3775,-0.05732c-0.00553,0.05522 -0.01027,0.11027 -0.01424,0.16516c-1.45507,-0.10772 -2.69168,-0.3927 -4.20326,-0.78708c0,0 -0.21337,-0.05334 -0.28988,0.14017c-0.4022,-0.11575 -0.77605,-0.30044 -1.06794,-0.60545c-1.17175,-1.22439 -1.11708,-2.99635 -1.28606,-4.57128c-1.7658,-0.32363 -3.59285,-0.35032 -5.42555,-0.33968c0.02344,0.12856 0.00208,0.23537 0.00208,0.23537l-0.07403,0.35947c-0.22076,1.94277 -0.4986,3.60234 -2.50322,3.87566c0.01347,0.03934 0.02651,0.07872 0.03913,0.11814c-0.23454,0.01296 -0.47043,0.01479 -0.70573,0.01479c-1.46046,0 -3.34103,0.43575 -4.84535,0.04331c-0.00333,-0.04927 -0.00615,-0.09852 -0.00845,-0.14775c-0.36151,-0.06865 -0.70351,-0.16721 -1.01362,-0.30557c-0.03557,-0.02435 -0.07069,-0.04958 -0.10535,-0.07573c0,0 -0.06787,-0.0509 -0.15419,-0.05387c-0.38434,-0.21429 -0.70671,-0.50311 -0.93849,-0.88931c-0.78747,-1.31211 -0.48896,-3.16189 -0.48266,-4.63054c-1.63022,-1.63705 -1.41826,-5.0258 -1.1343,-7.04633c0,0 0.06413,-0.44892 0.48189,-0.47827c0.28606,-0.16467 0.58616,0.04969 0.58616,0.04969c2.1287,1.5205 5.04326,1.38896 7.57377,1.74952c1.28314,0.18283 2.59522,0.49586 3.89414,0.4909c4.9269,0 9.90589,0.21333 14.7507,-0.41803c0.61664,-0.13691 1.12832,-0.30473 1.69297,-0.58872l0.3697,-0.11181c0.09647,-0.08326 0.23807,-0.13918 0.44413,-0.10484c0.16286,0.02714 0.26933,0.09457 0.33854,0.17597c0.05311,0.05852 0.09835,0.13747 0.12861,0.24339z" fill="#b0c1ca" stroke="none" stroke-width="0.5"/><path d="M311.25235,207.97722c0.1635,0 0.27894,0.04805 0.36047,0.1159c-0.23622,0.0037 -0.47035,-0.00055 -0.70014,-0.01631c0.08003,-0.05911 0.18961,-0.09959 0.33967,-0.09959z" fill="#c7d7e0" stroke="none" stroke-width="0.5"/><path d="M327.3975,208.90819c0.26176,-0.04027 0.41808,0.06323 0.51004,0.18275c-0.21439,-0.04568 -0.43049,-0.09474 -0.6502,-0.14691c0.0414,-0.01557 0.08792,-0.0278 0.14016,-0.03584z" fill="#c7d7e0" stroke="none" stroke-width="0.5"/><path d="M308.41008,201.97701c0.27223,0.27223 0.1677,0.54447 0.07748,0.68634c-0.29094,1.7369 0.12009,2.98039 1.87637,3.60116c0,0 0.52286,0.19013 0.33273,0.71299c-0.19013,0.52286 -0.71299,0.33274 -0.71299,0.33274c-2.30751,-0.85762 -2.98383,-2.64049 -2.56574,-4.98798l0.20534,-0.34524c0,0 0.39341,-0.39341 0.78681,0z" fill="#c7d7e0" stroke="none" stroke-width="0.5"/><path d="M307.19491,195.29133c0.55635,0 0.55636,0.55635 0.55636,0.55635v0.20544c0,1.58566 0.35411,2.64881 0.89098,4.1241c0,0 0.19012,0.52286 -0.33273,0.71299c-0.52286,0.19013 -0.71299,-0.33274 -0.71299,-0.33274c-0.57556,-1.58401 -0.95798,-2.79844 -0.95798,-4.50437v-0.20544c0,0 0,-0.55635 0.55635,-0.55635z" fill="#c7d7e0" stroke="none" stroke-width="0.5"/><path d="M309.14325,200.79474c-0.4274,0.35617 -0.78358,-0.07124 -0.78358,-0.07124l-0.34295,-0.45034c-0.6492,-1.5633 -0.96626,-2.5944 -0.81091,-4.32179c0,0 0.05036,-0.55408 0.60444,-0.5037c0.55407,0.05037 0.5037,0.60444 0.5037,0.60444c-0.14587,1.58593 0.13265,2.36412 0.72988,3.79309l0.17065,0.16598c0,0 0.35617,0.4274 -0.07124,0.78357z" fill="#cdd0e0" stroke="none" stroke-width="0.5"/><path d="M311.15918,206.15774c-0.29487,0.47179 -0.76666,0.17692 -0.76666,0.17692l-0.30615,-0.20573c-1.72415,-0.63459 -1.71658,-1.62002 -1.85374,-3.2501c0,0 -0.0462,-0.55444 0.50823,-0.60064c0.55443,-0.0462 0.60063,0.50823 0.60063,0.50823c0.10024,1.2139 -0.12355,1.84929 1.12514,2.29679l0.51561,0.30787c0,0 0.4718,0.29487 0.17692,0.76666z" fill="#cdd0e0" stroke="none" stroke-width="0.5"/><path d="M327.24278,208.19156c0.3934,-0.39341 0.78681,0 0.78681,0l0.09712,0.10319c0.11984,0.15408 0.23968,0.30816 0.35952,0.46224c0,0 0.1714,0.22037 0.11526,0.47031c-0.46157,-0.08246 -0.92148,-0.18213 -1.39906,-0.29636c-0.08914,-0.11605 -0.27131,-0.42772 0.04036,-0.7394z" fill="#cdd0e0" stroke="none" stroke-width="0.5"/><path d="M328.20651,209.64008c-0.21645,0.0761 -0.39525,-0.01985 -0.49948,-0.10325c0.16739,0.036 0.33361,0.07049 0.49948,0.10325z" fill="#cdd0e0" stroke="none" stroke-width="0.5"/><path d="M324.04099,202.63579c0.55635,0 0.55635,0.55636 0.55635,0.55636v0.10272c-0.00097,1.53089 0.60088,2.62614 1.36229,3.93118c0,0 0.28033,0.48056 -0.20024,0.7609c-0.48057,0.28034 -0.7609,-0.20023 -0.7609,-0.20023c-0.86185,-1.47773 -1.51283,-2.75105 -1.51387,-4.49185v-0.10272c0,0 0.00001,-0.55636 0.55636,-0.55636z" fill="#cdd0e0" stroke="none" stroke-width="0.5"/><g stroke="none" stroke-width="0.5"><path d="M312.95206,231.29195c0,0.59714 0,1.19428 0,1.79142l0.02269,-0.08595c0,0 0.08436,0.16872 0.05659,0.3588h0.09721c0.98274,0 3.43518,-0.40818 4.17967,0.37109c0.14981,0.15681 0.12326,1.29618 0.12238,1.56955c-0.00841,2.6041 -2.03424,2.38864 -4.01833,2.67208c-1.93061,0.00444 -3.72765,-0.18262 -5.61598,-0.32571c-0.6544,-0.04959 -1.7481,-0.19356 -2.22682,-0.73155c-1.18966,-1.33698 0.07312,-2.89598 1.43429,-3.2414l0.03625,-0.25362c0.07485,-0.59884 0.15945,-1.19596 0.23938,-1.79412c-0.59932,-4.00872 -0.29454,-8.28865 -0.24857,-12.38007c1.54897,0 3.09793,0 4.6469,0c0.31776,0 0.63569,-0.00128 0.95376,-0.00352c0.04153,4.04011 0.32057,8.02914 0.32057,12.053z" fill="#b0c1ca"/><path d="M308.22911,233.4611c-0.55635,0 -0.55636,-0.55635 -0.55636,-0.55635c0,-0.18832 0,-0.9416 0,-1.12992c0,-1.4368 0.25484,-2.84407 0.30864,-4.286c0.10282,-2.75574 -0.03624,-5.50437 -0.22594,-8.24639c0.3717,0 0.7434,0 1.11511,0c0.19186,2.75697 0.32448,5.52197 0.22259,8.29263c-0.05244,1.42595 -0.30768,2.82086 -0.30768,4.23976c0,0.18832 0,0.37664 0,0.56496v0.56496c0,0 0,0.55635 -0.55635,0.55635z" fill="#c7d7e0"/><path d="M309.20495,223.70275c-0.55635,0 -0.55636,-0.55635 -0.55636,-0.55635v-0.30817c0.00077,-1.2066 0.1955,-2.38885 0.20508,-3.59575c0.37085,0 0.74169,0 1.11254,0c-0.01167,1.20682 -0.20573,2.39047 -0.2049,3.59575v0.30817c0,0 0,0.55635 -0.55635,0.55635z" fill="#cdd0e0"/><path d="M308.89679,231.04723c-0.55635,0 -0.55636,-0.55636 -0.55636,-0.55636l0.00559,-0.28412c0.27896,-1.92473 0.34966,-3.88791 0.66965,-5.81646c0,0 0.09147,-0.54879 0.64025,-0.45732c0.54878,0.09146 0.45732,0.64025 0.45732,0.64025c-0.32135,1.91895 -0.39549,3.87437 -0.66571,5.79089l0.00559,0.12676c0,0 0,0.55636 -0.55635,0.55636z" fill="#cdd0e0"/><path d="M308.59724,232.80207c0,-0.30727 0.24908,-0.55636 0.55635,-0.55636c0.30727,0 0.55635,0.24909 0.55635,0.55636c0,0.30727 -0.24908,0.55635 -0.55635,0.55635c-0.30727,0 -0.55635,-0.24909 -0.55635,-0.55635z" fill="#cdd0e0"/></g><path d="M308.38818,194.85383c0,0 -1.71448,-20.55809 -2.44546,-31.74851c1.25263,0.70648 2.34759,1.12408 3.79585,1.64777c2.73704,0.97844 5.62825,2.28837 8.57743,2.17364c2.04811,1.41094 7.09382,0.4723 9.53471,0.4723c3.15881,0 6.31799,0.01395 9.47678,-0.00115c-0.10308,4.18145 -0.9463,8.81801 -1.15097,13.11644c-0.39713,8.34034 -0.19302,15.40772 -0.19302,15.40772z" fill="#ffbb00" stroke="none" stroke-width="0"/><path d="M305.91825,164.41337c-1.0911,0.21822 -1.30933,-0.87288 -1.30933,-0.87288l-0.10086,-0.51624c-0.04563,-0.34227 -0.09154,-0.67965 -0.13466,-1.01486c0.33844,0.17077 0.64701,0.54464 0.96456,0.73956c0.51015,0.31315 0.98448,0.57347 1.45281,0.80402c-0.05398,0.3279 -0.25047,0.736 -0.8725,0.86042z" fill="#c5d8e2" stroke="none" stroke-width="0.5"/><path d="M305.79291,165.94556c-1.11271,0 -1.11271,-1.11272 -1.11271,-1.11272l0.00552,-0.35779c-0.03905,-0.39042 -0.07808,-0.78086 -0.11713,-1.17128c0,0 -0.05585,-0.55849 0.30843,-0.92182c0.15449,0.13537 0.30665,0.27231 0.46093,0.36701c0.52516,0.32236 1.01234,0.58873 1.49411,0.82428c0.02268,0.22679 0.04536,0.45359 0.06803,0.68037l0.00553,0.57923c0,0 0,1.11272 -1.11272,1.11272z" fill="#c5d8e2" stroke="none" stroke-width="0.5"/><path d="M305.62071,162.08126c0.54395,-0.03544 0.83595,0.23164 0.9912,0.49878c-0.33814,-0.17703 -0.67303,-0.34713 -0.9912,-0.49878z" fill="#c5d8e2" stroke="none" stroke-width="0.5"/><path d="M307.66695,194.29052c-1.11271,0 -1.11271,-1.11271 -1.11271,-1.11271l0.00114,-1.2217c0.26887,-2.9473 0.89281,-5.63266 0.59002,-8.62344c0,0 -0.03292,-0.32922 0.11665,-0.64656c-0.17281,-0.63702 -0.33948,-1.25758 -0.34658,-1.30765c-0.2276,-1.60389 0.05443,-3.2618 -0.22847,-4.8812c-0.22143,-1.26754 -0.66413,-2.50145 -0.8255,-3.7849c-0.1701,-1.35287 -0.39036,-2.64086 -0.58387,-3.96981c-0.20316,-1.39519 0.20192,-2.02232 -0.47996,-3.29493c0,0 -0.49763,-0.99524 0.49761,-1.49286c0.99524,-0.49762 1.49286,0.49762 1.49286,0.49762c0.22445,0.47108 0.55264,0.90558 0.67334,1.41325c0.19691,0.82819 -0.11265,1.71256 0.01797,2.55375c0.39858,2.56694 0.95574,5.13152 1.4017,7.70615c0.28476,1.64407 0.00639,3.3357 0.24004,4.95753c0.11993,0.83249 0.45211,1.62028 0.67341,2.43173l0.23064,0.80698c0,0 0.27205,0.9522 -0.59545,1.31667c-0.07708,2.14664 -0.45151,4.21187 -0.65128,6.4185l0.00114,1.12086c0,0 0,1.11271 -1.11271,1.11271z" fill="#e3a500" stroke="none" stroke-width="0.5"/><path d="M336.33161,195.88337c-1.06579,0.31974 -1.38552,-0.74606 -1.38552,-0.74606l-0.3771,-1.27479c-0.30794,-2.99504 -0.1846,-6.37785 0.45591,-9.35592c-0.00862,-0.06986 -0.00861,-0.11339 -0.00861,-0.11339v-0.23426c0.00251,-2.02715 -0.56475,-3.86179 -0.46737,-5.90681c0.08917,-1.87268 0.56717,-3.52792 0.96166,-5.34135c0.402,-1.84799 0.55823,-3.65809 0.7063,-5.50872c0.45386,-0.00128 0.90772,-0.00305 1.36156,-0.00544c0.30299,-0.08509 0.60016,-0.17865 0.89259,-0.27918c-0.17217,2.11177 -0.33079,4.17171 -0.78659,6.26965c-0.3677,1.69246 -0.82919,3.21891 -0.91237,4.96589c-0.08594,1.80469 0.36513,3.45549 0.45449,5.2329c0.21183,0.39187 0.09906,0.84294 0.09906,0.84294c-0.71149,2.77107 -0.849,6.1414 -0.57363,9.00126l0.32567,1.06776c0,0 0.31974,1.06579 -0.74605,1.38552z" fill="#e3a500" stroke="none" stroke-width="0.5"/><path d="M336.30854,166.26312c0,0 0.0924,-1.10888 1.20127,-1.01647c1.10887,0.09241 1.01647,1.20127 1.01647,1.20127c-0.00351,0.04173 -0.007,0.08344 -0.01047,0.12513c-0.32934,0.11849 -0.66439,0.22867 -1.00672,0.3284c-0.41725,-0.0026 -0.83452,-0.00456 -1.25179,-0.00601c0.01679,-0.21013 0.03376,-0.42086 0.05124,-0.63232z" fill="#c5d8e2" stroke="none" stroke-width="0.5"/><path d="M337.21224,193.67985c0.55206,0.9661 -0.41405,1.51817 -0.41405,1.51817l-0.70432,0.39257c-0.20077,0.15057 -2.1855,1.63959 -2.19573,1.64427c-1.56488,0.71604 -3.83136,0.33519 -5.49957,0.33519c-5.5147,0 -10.79078,-0.90427 -16.26356,-1.41003c-1.86723,-0.17256 -4.65295,0.67264 -5.82542,-1.45259c-0.28301,-0.51298 0.01062,-1.17168 0.01592,-1.75752c0,0 0.11072,-1.10719 1.21791,-0.99647c1.10719,0.11072 0.99647,1.21791 0.99647,1.21791c-0.07277,0.19502 -0.27453,0.38462 -0.21834,0.58504c0.12591,0.44905 0.92076,0.1725 1.38699,0.18384c1.36892,0.0333 2.6041,0.06581 3.96069,0.24272c4.91376,0.64081 9.77512,1.16167 14.72933,1.16167c1.23406,0 3.42638,0.4411 4.57343,-0.13332c0.6767,-0.33889 1.18118,-0.94694 1.78661,-1.40105l0.93546,-0.54445c0,0 0.96611,-0.55206 1.51817,0.41405z" fill="#c5d8e2" stroke="none" stroke-width="0.5"/><path d="M307.22627,171.82715c0,0.55635 -0.55636,0.55636 -0.55636,0.55636l-0.0633,-0.00164c-1.4002,0.1069 -2.73958,0.07648 -4.09959,-0.29635c-0.52443,-0.2418 -0.91524,-0.3392 -1.27185,-0.83758c-0.75099,-1.04958 -0.84688,-3.29414 -0.79059,-4.53269c0.00978,-0.21525 0.11731,-1.31115 0.18364,-1.42497c0.782,-1.34185 3.00887,-1.60835 4.34351,-1.48828c0,0 0.55407,0.05037 0.5037,0.60445c-0.05037,0.55408 -0.60444,0.5037 -0.60444,0.5037c-0.92251,-0.08481 -2.72467,0.01647 -3.28652,0.94909c-0.14254,0.2366 -0.02732,1.17987 -0.02774,1.46407c-0.00182,1.24349 0.09192,3.16565 1.32812,3.71561c1.20011,0.32513 2.40313,0.32914 3.63642,0.23351l0.14865,-0.00163c0,0 0.55636,0 0.55636,0.55635z" fill="#b0c1ca" stroke="none" stroke-width="0.5"/><path d="M337.4737,194.86046c-0.32766,0.51829 -0.06467,1.40789 -0.32354,1.96856c-0.44132,0.95586 -1.091,0.05067 -1.34279,-0.48242c-0.41787,-0.88469 0.44897,-3.66549 1.39278,-3.37161c0.0259,-0.06056 0.05832,-0.12177 0.09768,-0.18341l0.02913,-0.11468c0.41089,-1.55225 0.07147,-3.34948 0.17668,-4.94264c0.13638,-2.06527 0.20968,-3.95416 0.06725,-6.03968c0.78743,0.48557 1.67836,0.3932 2.61389,0.81747c-0.03154,1.04117 0.21009,2.07255 0.16194,3.1326c-0.10583,2.32994 -0.1447,4.54543 -0.62565,6.8348c0.38475,0.15573 0.64553,0.38255 0.58266,0.66249c0.15608,0.12809 0.29484,0.27809 0.39956,0.44128c0.29993,0.4674 1.22459,3.6515 -0.41976,2.59634c-0.03224,-0.02068 -0.06131,-0.04734 -0.08471,-0.07766c-0.38793,-0.50269 -0.60936,-1.04918 -0.86896,-1.54072c-0.03287,0.00957 -0.06759,0.01671 -0.10435,0.0211c-0.49664,0.05933 -0.99307,-0.03807 -1.37913,-0.23909c-0.12906,0.17593 -0.26562,0.34796 -0.37266,0.51728zM339.24528,184.31523c-0.0454,-0.70898 -0.16607,-1.31018 -0.15533,-1.97502c-0.1233,0.00772 -0.24751,-0.00251 -0.36944,-0.02832c0.08619,1.86288 0.00708,3.60985 -0.1061,5.48748c-0.08693,1.44213 0.11979,2.99394 -0.07669,4.44593c0.03158,0.00103 0.06345,0.00251 0.0955,0.0044c0.55267,-2.55658 0.77877,-5.33089 0.61205,-7.93446z" fill="#b0c1ca" stroke="none" stroke-width="0.5"/><path d="M338.53232,183.62386c-0.04548,0.00724 -0.08801,0.01093 -0.1267,0.01087c-0.66708,-0.00099 -1.37953,-0.66905 -1.49364,-1.30408c-0.10682,-0.59452 0.03213,-1.05219 0.31708,-1.38718c-0.11106,-0.55704 -0.23842,-1.07699 -0.2736,-1.66951c-0.60277,-3.56979 -0.04204,-7.48569 -1.26522,-10.89998c0,0 -0.18601,-0.52435 0.33833,-0.71034c0.52434,-0.186 0.71034,0.33834 0.71034,0.33834c1.23854,3.52199 0.71031,7.47746 1.32241,11.14886c0.02173,0.42174 0.09679,0.80132 0.1774,1.18743c0.18935,-0.05405 0.38857,-0.08967 0.59087,-0.10787c-0.16697,-0.70163 -0.19713,-1.37924 -0.27041,-2.11703c0.02205,-2.1399 -0.18977,-4.30611 -0.18066,-6.45283c0.00538,-1.26931 0.31494,-3.18115 -0.2065,-4.44334c0.34978,-0.1131 0.69243,-0.23666 1.02972,-0.36822c0.53634,1.46316 0.29668,3.32324 0.28945,4.8185c-0.01028,2.12772 0.19375,4.27387 0.17953,6.3952c0.07859,0.78083 0.08869,1.48051 0.33034,2.23329l0.00401,0.02163c0.30012,0.07426 0.57408,0.18805 0.79428,0.33745c0,0 0.11861,0.08454 0.19121,0.22779c-0.49168,1.13328 -0.28972,2.23393 -1.49863,3.01322c-0.32857,0.01265 -0.6855,-0.08089 -0.95967,-0.27216z" fill="#b0c1ca" stroke="none" stroke-width="0.5"/><path d="M338.18223,166.09177c0.47908,-0.28288 0.76195,0.1962 0.76195,0.1962c0.01933,0.03415 0.03807,0.06863 0.05623,0.10341c-0.34505,0.13436 -0.6957,0.26049 -1.05384,0.37582c-0.05647,-0.15105 -0.11791,-0.46667 0.23565,-0.67544z" fill="#b0c1ca" stroke="none" stroke-width="0.5"/><path d="M328.33758,218.51034c0.55205,-0.06901 0.62107,0.48305 0.62107,0.48305l0.04919,0.39529c0.01109,0.07252 0.02323,0.14467 0.03627,0.21649c-0.38217,-0.07449 -0.76708,-0.13859 -1.15437,-0.1933l-0.03521,-0.28047c0,0 -0.06901,-0.55206 0.48305,-0.62107z" fill="#cdd0e0" stroke="none" stroke-width="0.5"/><path d="M310.49561,217.01823c0,-0.12291 0.09963,-0.22254 0.22254,-0.22254c0.12291,0 0.22254,0.09964 0.22254,0.22254c0,0.12291 -0.09964,0.22254 -0.22254,0.22254c-0.12291,0 -0.22254,-0.09964 -0.22254,-0.22254z" fill="#6b767b" stroke="none" stroke-width="0.5"/><g stroke="none"><path d="M326.77791,221.46479c-0.15266,-0.16193 0.00927,-0.3146 0.00927,-0.3146l0.21223,-0.14872c1.24791,-0.20629 2.63425,0.06854 3.88623,0.11299c0.41579,0.14849 1.03871,0.22056 1.36827,0.51808c0.05841,0.05275 0.1291,0.14498 0.19805,0.25011c-0.08734,-0.43183 -0.15388,-1.0069 -0.20172,-1.41591l-0.09571,-0.13576c-0.02765,-0.03833 -0.04335,-0.08573 -0.04186,-0.13661c0.00362,-0.12286 0.10614,-0.21951 0.22899,-0.2159c0.06142,0.00181 0.11631,0.02836 0.15538,0.06979l0.22808,0.24191c0.18091,0.19226 0.30819,0.50697 0.36517,0.67349c-0.10817,-0.49208 0.21622,-1.09189 -0.06975,-1.55913c-0.04811,-0.06919 -0.12095,-0.12661 -0.14433,-0.20757c-0.33948,-1.17463 0.6469,-0.36417 0.98957,-0.04488c-0.05573,-0.13586 -0.09979,-0.33738 -0.10205,-0.34587c-0.06608,-0.24812 -0.13745,-0.52196 -0.33501,-0.70854c-0.32794,-0.30969 -1.46123,-0.60589 -1.8822,-0.61489c-1.65667,-0.37656 -3.49849,-0.02564 -5.10379,-0.5341c0,0 -0.21209,-0.06742 -0.14469,-0.27949c0.0674,-0.21209 0.2795,-0.14469 0.2795,-0.14469c1.57542,0.5026 3.39695,0.13347 5.02586,0.51683c1.11903,0.04101 2.84192,0.8034 2.72315,2.16139c-0.08063,0.92198 -0.62014,0.40699 -0.89518,0.05381c0.14202,0.45259 0.39248,2.10915 0.0098,2.25258c-0.15341,0.05751 -0.30954,-0.02796 -0.45588,-0.16844c0.14068,0.59087 0.193,1.26068 0.01112,1.41987c-0.1277,0.11177 -0.33959,0.14947 -0.50023,0.09476c-0.24322,-0.08283 -0.3531,-0.70984 -0.54995,-0.90117c-0.24031,-0.2336 -0.82711,-0.28232 -1.14477,-0.40263c-1.19731,-0.02726 -2.53627,-0.31932 -3.72762,-0.11121l0.01869,0.03375c0,0 -0.16192,0.15267 -0.31458,-0.00926z" fill="#6b767b" stroke-width="0.5"/><path d="M326.8956,221.21675c0,0 0.00764,-1.8568 0.0305,-2.63332c0.01875,-0.63692 0.2392,-1.73343 0.2392,-1.73343c0,0 4.83066,0.34321 5.98819,0.69293c0.48711,0.14717 0.9123,1.39186 0.9123,1.39186c0,0 -0.91157,0.85343 -0.81624,1.65762c0.09302,0.78454 -0.72515,1.16641 -0.72515,1.16641c0,0 -1.78875,-0.64043 -2.70123,-0.72831c-0.96124,-0.09256 -2.92758,0.18624 -2.92758,0.18624z" fill="#606a6e" stroke-width="0"/><path d="M327.01285,217.88737c-0.04759,-0.2174 0.1698,-0.265 0.1698,-0.265l0.24352,-0.04651c0.31332,0.00923 0.62665,0.01846 0.93998,0.02768c1.57354,0.04634 2.95736,0.67814 4.48212,1.03007c0,0 0.21684,0.05004 0.16679,0.2669c-0.05004,0.21684 -0.2669,0.16679 -0.2669,0.16679c-1.49565,-0.34521 -2.85473,-0.9735 -4.39511,-1.01886c-0.31332,-0.00923 -0.62665,-0.01846 -0.93998,-0.02767l-0.13524,0.03641c0,0 -0.21739,0.0476 -0.26498,-0.16978z" fill="#303537" stroke-width="0.5"/><path d="M326.63037,219.46846c0.00655,-0.22245 0.22899,-0.2159 0.22899,-0.2159l0.05025,0.0058c0.32351,-0.05485 0.62565,-0.15166 0.9469,-0.20732c1.38394,-0.22877 3.48202,0.15515 4.5689,1.02144c0,0 0.17402,0.13872 0.03532,0.31273c-0.13872,0.17402 -0.31273,0.03532 -0.31273,0.03532c-0.9801,-0.78118 -2.96329,-1.1497 -4.21708,-0.9307c-0.31996,0.05285 -0.62411,0.15259 -0.94691,0.20732l-0.13775,0.00027c0,0 -0.22244,-0.00655 -0.21589,-0.229z" fill="#303537" stroke-width="0.5"/></g><path d="M305.46976,196.6477c-0.17361,-0.2755 -0.17361,-0.58685 -0.17361,-0.58685v-0.48856c0.00087,-1.29442 -0.2196,-3.18255 1.18778,-3.98116c1.15463,-0.65518 3.4435,0.57776 4.64298,0.79895c4.12583,0.76081 8.22574,1.52935 12.43343,1.52935c2.83322,0 5.53193,-0.17386 8.33437,-0.56097c0.80241,-0.11084 3.09131,-0.80843 3.8124,-0.54515c2.02823,0.74054 2.01613,4.40781 0.70231,5.82024c-0.24783,0.26642 -2.0132,0.77205 -2.4575,0.90874c-2.19182,0.67428 -4.12051,0.77713 -6.40161,0.77713c-3.36271,0 -6.86554,0.28099 -10.20898,-0.08769c-3.81466,-0.42065 -7.6692,-1.53719 -11.24037,-2.91046c0,0 -0.5087,-0.19566 -0.6312,-0.67356z" fill="#606a6e" stroke="none" stroke-width="0.5"/><g stroke="none" stroke-width="0.5"><path d="M302.24639,175.85585c-0.00471,-0.22249 0.21779,-0.2272 0.21779,-0.2272c0.26718,-0.00565 0.62342,-0.01319 0.8906,-0.01884c1.79095,-0.03391 2.84437,-1.19185 3.67365,-2.64268c0,0 0.11044,-0.19321 0.30365,-0.08277c0.19321,0.11043 0.08277,0.30364 0.08277,0.30364c-0.90879,1.58997 -2.1073,2.82184 -4.05065,2.8668c-0.26718,0.00565 -0.53437,0.0113 -0.80156,0.01696l-0.08906,0.00189c0,0 -0.22249,0.00471 -0.2272,-0.21779z" fill="#3a53e0"/><path d="M307.90909,172.76274c0.21256,0.06589 0.14667,0.27846 0.14667,0.27846l-0.04791,0.15197c-0.18816,0.45227 -0.48579,0.80287 -0.82464,1.15637c-1.15343,1.20329 -2.98177,2.47692 -4.69265,2.52566c0,0 -0.22249,0.00471 -0.2272,-0.21779c-0.00471,-0.22249 0.21779,-0.2272 0.21779,-0.2272c1.57761,-0.01924 3.32238,-1.28454 4.38075,-2.38867c0.29445,-0.30718 0.57937,-0.61855 0.73324,-1.01501l0.03549,-0.11711c0,0 0.06589,-0.21257 0.27846,-0.14668z" fill="#3ae054"/><path d="M305.93314,173.7215c0.18774,0.1195 0.06823,0.30724 0.06823,0.30724l-0.18515,0.28887c-0.33297,0.32712 -0.81535,0.39164 -1.25984,0.23116c-0.20598,-0.07437 -0.40583,-0.47683 -0.56818,-0.32985c-0.13805,0.12499 0.15394,0.608 0.10114,0.77142c-0.22322,0.69085 -0.88501,0.33261 -1.3182,0.44896c0,0 -0.21725,0.04826 -0.2655,-0.16899c-0.04825,-0.21725 0.16899,-0.26551 0.16899,-0.26551c0.18363,-0.03576 0.90451,0.1732 0.98609,-0.1344c0.09869,-0.37214 -0.44754,-0.61941 0.06346,-1.00979c0.54113,-0.41342 1.24513,0.77251 1.74195,0.18217l0.15978,-0.25303c0,0 0.1195,-0.18774 0.30724,-0.06824z" fill="#e03a3a"/></g><g stroke="none"><path d="M306.39993,220.13642c-0.12935,-0.18109 0.05175,-0.31045 0.05175,-0.31045l0.2304,-0.11864c1.26435,-0.03553 2.60075,0.42434 3.8352,0.63779c0.39187,0.20339 0.99931,0.35908 1.28559,0.69845c0.05074,0.06017 0.1083,0.16111 0.16238,0.2746c-0.02811,-0.43968 -0.01622,-1.01846 -0.00828,-1.43018l-0.07646,-0.14746c-0.0222,-0.04171 -0.03136,-0.09081 -0.02299,-0.14102c0.02021,-0.12124 0.13487,-0.20313 0.25609,-0.18293c0.06061,0.0101 0.1114,0.04383 0.14451,0.09017l0.19325,0.27055c0.15323,0.21497 0.23676,0.54401 0.27068,0.71671c-0.04059,-0.50219 0.36197,-1.05259 0.14185,-1.55423c-0.0383,-0.07506 -0.1027,-0.14181 -0.11492,-0.22519c-0.17742,-1.20976 0.69023,-0.27328 0.98654,0.08943c-0.03683,-0.14215 -0.05322,-0.34778 -0.05431,-0.3565c-0.0319,-0.25478 -0.06556,-0.53576 -0.23606,-0.74735c-0.28302,-0.35122 -1.36581,-0.79804 -1.78169,-0.86391c-1.59048,-0.59726 -3.46284,-0.49878 -4.98459,-1.21977c0,0 -0.20102,-0.09549 -0.10554,-0.29649c0.09548,-0.20102 0.2965,-0.10554 0.2965,-0.10554c1.49293,0.71114 3.34765,0.59188 4.9097,1.19212c1.10318,0.19205 2.70707,1.18055 2.40565,2.50998c-0.20464,0.9026 -0.6695,0.31933 -0.89423,-0.06781c0.07948,0.46765 0.10349,2.14285 -0.29508,2.23319c-0.15978,0.03622 -0.30292,-0.06958 -0.4289,-0.22858c0.05944,0.60447 0.02064,1.2752 -0.1811,1.40832c-0.14165,0.09347 -0.35669,0.10215 -0.50846,0.0262c-0.22978,-0.11498 -0.25381,-0.75109 -0.42295,-0.9673c-0.20649,-0.26396 -0.7813,-0.39163 -1.07977,-0.55383c-1.18261,-0.18902 -2.46973,-0.65956 -3.67829,-0.61457l0.01395,0.03596c0,0 -0.18109,0.12935 -0.31043,-0.05174z" fill="#6b767b" stroke-width="0.5"/><path d="M306.5501,219.90657c0,0 0.25881,-1.83869 0.38654,-2.60498c0.10475,-0.62852 0.47155,-1.68512 0.47155,-1.68512c0,0 4.73979,0.99368 5.83936,1.49681c0.46272,0.21173 0.71558,1.5025 0.71558,1.5025c0,0 -1.01867,0.72223 -1.03302,1.53193c-0.01399,0.78991 -0.87631,1.05756 -0.87631,1.05756c0,0 -1.68564,-0.87657 -2.57784,-1.08711c-0.93987,-0.22177 -2.92586,-0.2116 -2.92586,-0.2116z" fill="#606a6e" stroke-width="0"/><path d="M307.11677,216.62369c-0.01774,-0.22184 0.20409,-0.23959 0.20409,-0.23959l0.24758,-0.01313c0.30919,0.05154 0.61839,0.10308 0.92759,0.15461c1.5528,0.25882 2.8384,1.07207 4.30152,1.62706c0,0 0.20808,0.07892 0.12914,0.28701c-0.07892,0.20808 -0.28701,0.12915 -0.28701,0.12915c-1.43518,-0.54441 -2.69676,-1.35082 -4.21683,-1.60418c-0.30919,-0.05154 -0.61839,-0.10308 -0.92759,-0.15461l-0.13892,0.01777c0,0 -0.22183,0.01774 -0.23957,-0.20408z" fill="#303537" stroke-width="0.5"/><path d="M306.52386,218.13849c0.03659,-0.21952 0.25609,-0.18293 0.25609,-0.18293l0.049,0.01255c0.32795,-0.01057 0.64042,-0.06561 0.96624,-0.07729c1.40217,-0.03941 3.42901,0.62487 4.38867,1.63026c0,0 0.15365,0.16099 -0.00732,0.31464c-0.16099,0.15365 -0.31464,-0.00732 -0.31464,-0.00732c-0.86538,-0.90661 -2.78048,-1.54009 -4.05236,-1.49275c-0.32417,0.00907 -0.63902,0.06674 -0.96625,0.07729l-0.13652,-0.01837c0,0 -0.21951,-0.03659 -0.18292,-0.25611z" fill="#303537" stroke-width="0.5"/></g><path d="M338.27612,163.51456c0,0.27903 1.19219,3.37465 0.2355,3.8951c-2.45838,1.3374 -9.48204,0.42758 -16.03763,0.42758c-9.10672,0 -17.17623,-3.32664 -17.17623,-4.32269c0,-0.39774 -2.02903,-2.65481 -0.03491,-2.953c2.99962,-0.44855 11.85545,-1.42694 17.32564,-1.42694c9.10672,0 15.68762,3.38389 15.68762,4.37994z" fill="#ffbb00" stroke="none" stroke-width="0"/><path d="M306.96597,167.36323c1.69752,4.50185 -4.3459,6.52142 -5.88492,2.31297c-1.02594,-2.80543 0.17852,-5.4545 2.06283,-5.52148c0.15751,-0.02946 0.32035,-0.0449 0.48699,-0.0449c1.21292,0 2.2241,0.81812 2.45195,1.90353c0.2613,0.34596 0.52192,0.7453 0.7792,1.20221z" fill="#a1b9c7" stroke="none" stroke-width="0.5"/><path d="M296.6391,236.72634v-111.84076h47.29829v111.84077z" fill="none" stroke-opacity="0.01176" stroke="#ffffff" stroke-width="0.5"/><path d="M296.6391,236.72634v-111.84076h47.29829v111.84077z" fill="none" stroke-opacity="0.01176" stroke="#ffffff" stroke-width="0.5"/><path d="M312.74637,159.80159c0.42912,-0.05998 0.8747,-0.04188 1.34189,-0.02503c0.90703,-0.21419 1.81457,-0.43736 2.74707,-0.56898c4.465,-0.00782 8.4466,0.36606 12.79253,1.07804c0.80147,0.13612 2.6593,0.07624 3.10171,0.96607c0.38534,0.77503 -0.41795,2.38608 -0.54795,3.13165c-0.49067,2.81393 -2.34949,4.42986 -4.48642,6.25695c-1.63281,1.00282 -2.93961,2.43341 -4.80172,3.08763c-2.63249,0.92487 -5.55162,-1.23 -7.2943,-2.98898c-1.65255,-2.72702 -4.77702,-6.90558 -4.78586,-10.15512c0,0 0,-0.28229 0.21211,-0.42265c0.05728,-0.21303 0.25177,-0.36985 0.48289,-0.36985h0.68249c0.20999,0 0.39097,0.00263 0.55555,0.01027z" fill="#ffffff" stroke="none" stroke-width="0.5"/><path d="M309.26585,172.86871c0,0 9.28276,2.53498 12.38239,2.53498c3.26202,0 9.06742,-2.33998 9.06742,-2.33998c0,0 -5.57145,4.33327 -8.86988,4.30328c-3.78448,-0.0344 -12.57993,-4.49828 -12.57993,-4.49828z" fill="#e3a500" stroke="none" stroke-width="0"/><path d="M309.19589,176.89372c0,0 9.28276,2.53498 12.38239,2.53498c3.26202,0 9.06742,-2.33998 9.06742,-2.33998c0,0 -5.57145,4.33327 -8.86988,4.30328c-3.78448,-0.0344 -12.57993,-4.49828 -12.57993,-4.49828z" fill="#e3a500" stroke="none" stroke-width="0"/><path d="M309.90593,181.30872c0,0 9.28276,2.53498 12.38239,2.53498c3.26202,0 9.06742,-2.33998 9.06742,-2.33998c0,0 -5.57145,4.33327 -8.86988,4.30328c-3.78448,-0.0344 -12.57993,-4.49828 -12.57993,-4.49828z" fill="#e3a500" stroke="none" stroke-width="0"/><path d="M310.22597,185.04124c0,0 9.28276,2.53498 12.38239,2.53498c3.26202,0 9.06742,-2.33998 9.06742,-2.33998c0,0 -5.57145,4.33327 -8.86988,4.30328c-3.78448,-0.0344 -12.57993,-4.49828 -12.57993,-4.49828z" fill="#e3a500" stroke="none" stroke-width="0"/></g></g></svg>