<svg version="1.1" xmlns="http://www.w3.org/2000/svg" xmlns:xlink="http://www.w3.org/1999/xlink" width="34.01894" height="19.30357" viewBox="0,0,34.01894,19.30357"><g transform="translate(-304.70414,-175.72207)"><g data-paper-data="{&quot;isPaintingLayer&quot;:true}" fill-rule="nonzero" stroke="none" stroke-linecap="butt" stroke-linejoin="miter" stroke-miterlimit="10" stroke-dasharray="" stroke-dashoffset="0" style="mix-blend-mode: normal"><path d="M318.96552,180c0,-0.57133 0.46315,-1.03448 1.03448,-1.03448c0.57133,0 1.03448,0.46315 1.03448,1.03448c0,0.57133 -0.46315,1.03448 -1.03448,1.03448c-0.57133,0 -1.03448,-0.46315 -1.03448,-1.03448z" fill="#ffffff" stroke-width="0"/><path d="M330.29866,181.17738c-0.00937,0.1076 -0.07255,0.47026 -0.49837,0.47026c-0.5,0 -0.5,-0.5 -0.5,-0.5l0.14645,-0.54586c1.41728,-1.35116 5.08092,-0.97677 6.6228,-0.04055c3.66756,3.66756 3.58447,9.47043 -0.5684,12.80062c-3.36276,2.74407 -10.88696,1.26655 -15.047,1.26655c-4.64417,0 -9.27556,0.09616 -13.92308,0.09616c0,0 -0.5,0 -0.5,-0.5c0,-0.5 0.5,-0.5 0.5,-0.5c4.64754,0 9.27886,-0.09616 13.92308,-0.09616c3.05128,0 6.10257,0 9.15385,0c1.86356,0 3.76605,0.23777 5.26069,-1.04113c3.62941,-2.89611 3.81066,-8.01263 0.58545,-11.23784c-1.0157,-0.59975 -4.05983,-1.01674 -5.15546,-0.17205z" fill="#c1e4ff" stroke-width="0.5"/><path d="M306.78845,194.86657c-0.35355,0.35355 -0.70711,0 -0.70711,0l-0.096,-0.11711c-2.62797,-1.62051 -0.58524,-9.46639 0.57927,-11.8062c1.6462,-3.28404 3.6512,-6.84332 7.91177,-7.19821c1.50331,-0.12522 2.93803,0.30279 4.39344,0.28817c4.96855,0.61574 10.30131,1.68118 11.892,7.1886c0,0 0.13736,0.48076 -0.3434,0.61812c-0.48076,0.13736 -0.61812,-0.3434 -0.61812,-0.3434c-1.42953,-5.06625 -6.48703,-5.89667 -10.99261,-6.46525c-1.51716,-0.01316 -3.30115,-0.69714 -4.83072,-0.21082c-3.70299,1.17735 -4.92054,3.36773 -6.51792,6.57001c-1.15447,2.29708 -1.5832,5.59979 -1.58183,8.14178c0.00053,0.98836 -0.31237,1.81973 0.62263,2.35972l0.28861,0.2675c0,0 0.35355,0.35355 0,0.70711z" fill="#c1e4ff" stroke-width="0.5"/></g></g></svg>