<svg version="1.1" xmlns="http://www.w3.org/2000/svg" xmlns:xlink="http://www.w3.org/1999/xlink" width="40.93668" height="41.64024" viewBox="0,0,40.93668,41.64024"><g transform="translate(-207.46623,-173.52136)"><g data-paper-data="{&quot;isPaintingLayer&quot;:true}" fill-rule="nonzero" stroke="#6a5940" stroke-width="4.5" stroke-linejoin="miter" stroke-miterlimit="10" stroke-dasharray="" stroke-dashoffset="0" style="mix-blend-mode: normal"><path d="M209.71623,212.91159v-31.10817c2.33364,-0.38204 4.71817,-0.3089 7.03918,-0.72551c4.50066,-0.80784 8.41984,-2.54435 12.42713,-4.53965c0.32241,0.64734 0.56402,1.2774 0.68203,1.8668c0.44377,2.21627 0.18769,5.68256 -0.02089,7.87693c-0.07182,0.75557 -0.78002,3.98453 -0.19234,4.8091c1.81778,2.55051 5.72855,0.46712 8.01935,1.17732c0.62997,0.1953 2.52269,1.62212 3.14343,2.07226c0.25371,0.27567 3.07611,2.99458 3.12703,3.3657c0.1467,1.0692 -1.0439,1.89226 -1.48191,2.8786c-0.94876,2.13646 -2.24406,5.73241 -1.30667,8.04975c0.23492,0.58074 2.42142,2.91589 2.70938,3.31636c0.21316,0.29644 0.42078,0.61844 0.62063,0.96052z" fill="#887151" stroke-linecap="butt"/><path d="M210.70344,212.79412l20.56525,-20.56525" fill="none" stroke-linecap="round"/></g></g></svg>