<svg version="1.1" xmlns="http://www.w3.org/2000/svg" xmlns:xlink="http://www.w3.org/1999/xlink" width="34.74407" height="45.0792" viewBox="0,0,34.74407,45.0792"><g transform="translate(-300.61242,-121.54188)"><g data-paper-data="{&quot;isPaintingLayer&quot;:true}" fill-rule="nonzero" stroke="none" stroke-linecap="butt" stroke-linejoin="miter" stroke-miterlimit="10" stroke-dasharray="" stroke-dashoffset="0" style="mix-blend-mode: normal"><path d="M302.19224,159.35261c-0.32267,-6.14144 0.00042,-15.32968 0.00042,-15.32968c0,0 5.49845,-17.1803 6.2312,-17.1803c1.38889,0 4.47475,3.56091 9.01725,6.93838c1.10129,0.81884 1.71818,-11.43651 2.87177,-10.6215c5.77322,4.07878 10.89937,20.77441 10.89937,20.77441c0,0 1.772,7.34556 1.89881,12.63546c0.0517,2.1567 0.58879,5.16929 0.68695,8.79858c-1.5097,0.31221 -3.09625,0.49022 -4.48407,0.94673c-3.15727,0.4002 -6.37258,0.29348 -9.5849,0.29348c-3.27892,0 -6.12718,-0.16362 -9.2905,-0.90996c-2.52979,-0.50615 -6.07839,-1.41755 -8.06818,-3.3287c-0.07186,-1.12729 -0.13226,-2.14439 -0.1781,-3.0169z" fill="#ffbb00" stroke-width="0"/><path d="M333.13106,164.94788c0,-2.67532 0.04436,-5.391 -0.97456,-7.90282c0,0 -0.41325,-1.03313 0.61988,-1.44638c1.03313,-0.41325 1.44638,0.61988 1.44638,0.61988c1.10949,2.80685 1.13374,5.74748 1.13374,8.72932l-0.00229,0.02168c-0.7298,0.23526 -1.50548,0.39677 -2.28974,0.5404z" fill="#eaac00" stroke-width="0.5"/><path d="M333.52297,158.05478c-1.0911,0.21822 -1.30933,-0.87288 -1.30933,-0.87288l-0.16138,-0.82202c-0.08133,-0.71123 -0.38267,-1.37972 -0.56331,-2.07242c-0.39625,-1.51948 -0.18515,-3.15686 -0.46614,-4.69272c-0.10448,-0.5711 -0.37078,-1.10707 -0.45291,-1.6818c-0.44397,-3.1067 -0.49521,-6.31854 -1.45151,-9.34017c-0.73598,-2.32548 -2.07942,-4.32554 -2.93834,-6.58826c0,0 -0.3907,-1.04187 0.65116,-1.43257c1.04187,-0.3907 1.43258,0.65116 1.43258,0.65116c0.8567,2.3183 2.24468,4.37985 2.99612,6.7643c0.98473,3.12472 1.05722,6.4394 1.51573,9.65014c0.07735,0.54166 0.33996,1.04373 0.43726,1.58216c0.26386,1.46007 0.03186,3.07218 0.42403,4.50571c0.21627,0.79056 0.51536,1.56601 0.62359,2.37844l0.13535,0.6616c0,0 0.21822,1.09111 -0.87288,1.30933z" fill="#eaac00" stroke-width="0.5"/><path d="M305.8037,137.44275c-1.09477,-0.19905 -0.89572,-1.29381 -0.89572,-1.29381l0.2053,-1.09411c0.5565,-1.8849 0.87481,-3.82789 1.32172,-5.73575c0.16532,-0.70573 0.06397,-1.50036 0.41498,-2.13453c0.44252,-0.7995 0.97333,-1.84624 1.87395,-2.0009c0.50941,-0.08747 2.40821,1.60827 3.03906,2.09888c1.30271,1.01311 2.77553,1.82352 3.87874,3.06821c0.53169,0.59987 1.02177,1.22843 1.50548,1.85988l0.06475,-0.42217c0.46918,-1.75883 0.97875,-3.57015 1.21834,-5.37878c0.13643,-1.02983 -0.02445,-1.62334 0.37721,-2.6061c0.31663,-0.77472 0.3586,-1.93927 1.14095,-2.23656c0.64742,-0.24603 2.20647,1.38348 2.70171,1.90373c1.05221,1.10534 1.77746,2.27692 2.6737,3.49187c0.94549,1.28172 1.7397,2.02912 2.36397,3.54209c0,0 0.41325,1.03313 -0.61988,1.44638c-1.03313,0.41325 -1.44638,-0.61988 -1.44638,-0.61988c-0.69629,-1.81545 -2.33402,-3.70104 -3.57395,-5.23656c-0.33241,-0.41165 -0.81349,-0.71876 -1.20727,-1.08057c-0.05671,0.18637 -0.11155,0.32908 -0.11723,0.36942c-0.3338,2.37081 -0.74076,4.65213 -1.36088,6.97839l-0.06264,0.49377c0,0 -0.12313,0.86192 -0.91399,0.95198c0.44032,0.54594 0.89902,1.07704 1.40042,1.57552c0,0 0.78681,0.78681 0,1.57361c-0.78681,0.7868 -1.57362,0 -1.57362,0c-1.57271,-1.58087 -2.75609,-3.43439 -4.22329,-5.11556c-0.99559,-1.14078 -2.41209,-1.8839 -3.5987,-2.80691c-0.34241,-0.26635 -0.72431,-0.49521 -1.00734,-0.82396c-0.19804,-0.23003 -0.11365,-0.72888 -0.40445,-0.81588c-0.21554,-0.06448 -0.04983,0.44732 -0.08442,0.66962c-0.09262,0.59511 -0.16654,1.19428 -0.29716,1.78222c-0.43161,1.94282 -0.78717,3.92018 -1.3488,5.83648l-0.15077,0.86426c0,0 -0.19904,1.09476 -1.29381,0.89571z" fill="#eaac00" stroke-width="0.5"/><path d="M300.61722,159.04736c0,-5.45356 -0.14028,-10.9314 1.09671,-16.27328c0.51121,-2.20768 1.19337,-4.28806 2.62649,-6.06249c0,0 0.70461,-0.86119 1.5658,-0.15658c0.86119,0.70461 0.15658,1.56581 0.15658,1.56581c-1.47348,1.77208 -1.95096,4.09022 -2.44555,6.30237c-1.06036,4.74259 -0.77459,9.79403 -0.77459,14.62418c-0.00302,1.2594 0.17988,2.43262 0.3463,3.68068l0.07622,0.36932c-0.54783,-0.38173 -1.03101,-0.81268 -1.41759,-1.3002c-0.2868,-0.35324 -0.70399,-0.71425 -1.13929,-1.01326c-0.05441,-0.57104 -0.08984,-1.14538 -0.09109,-1.73655z" fill="#eaac00" stroke-width="0.5"/><path d="M321.72496,156.88369c0.10946,0 0.21069,0.03517 0.29303,0.09483c0.29658,0.03737 0.54409,0.03517 0.68172,-0.09037c1.45099,-1.32345 2.98498,-1.71344 2.95472,1.05351c-0.39008,1.05895 -0.79306,1.49649 -1.55741,1.65702c0.67681,2.69144 4.04143,3.93553 4.87723,0.55438l0.08885,-0.27122c0,0 0.15812,-0.47435 0.63245,-0.31623c0.47434,0.15812 0.31623,0.63246 0.31623,0.63246l-0.0674,0.19753c-1.0815,4.28346 -5.63588,3.1418 -6.73237,-0.26462c-0.60023,2.01565 -2.94977,3.6379 -5.06227,2.03221c-0.65625,-0.49881 -0.74383,-1.1735 -1.35428,-1.66099c0,0 -0.3841,-0.3201 -0.06401,-0.70421c0.32009,-0.38411 0.7042,-0.06402 0.7042,-0.06402c1.63181,1.40146 3.89463,3.36769 4.82414,0.0905l-0.0005,-0.00662c-1.16521,-0.31283 -3.11211,-1.3422 -2.43825,-2.54994c0.32794,-0.58777 1.08093,-0.47393 1.74992,-0.36005c0.0485,-0.01568 0.10025,-0.02416 0.15397,-0.02416z" fill="#2a2e30" stroke-width="0.5"/><path d="M320.23318,146.56945c0,1.25 -1.25,1.25 -1.25,1.25h-1.12069c-2.44502,-0.00112 -4.74746,-0.28827 -7.05835,-1.10731c0,0 -1.17718,-0.42042 -0.75676,-1.5976c0.42042,-1.17718 1.5976,-0.75676 1.5976,-0.75676c2.03276,0.73237 4.06474,0.96271 6.21751,0.96166h1.12069c0,0 1.25,0 1.25,1.25z" fill="#eaac00" stroke-width="0.5"/><path d="M330.04623,146.37939c0.19007,1.23546 -1.04539,1.42554 -1.04539,1.42554l-1.31076,0.18695c-1.90356,0 -3.71493,0.00174 -5.58997,-0.3691c0,0 -1.22573,-0.24515 -0.98058,-1.47087c0.24515,-1.22573 1.47087,-0.98058 1.47087,-0.98058c1.70839,0.34601 3.36312,0.32055 5.09968,0.32055l0.93062,-0.15788c0,0 1.23546,-0.19007 1.42554,1.04539z" fill="#eaac00" stroke-width="0.5"/></g></g></svg>