<svg version="1.1" xmlns="http://www.w3.org/2000/svg" xmlns:xlink="http://www.w3.org/1999/xlink" width="15.47319" height="22.81466" viewBox="0,0,15.47319,22.81466"><g transform="translate(-289.76439,-158.0549)"><g data-paper-data="{&quot;isPaintingLayer&quot;:true}" fill-rule="nonzero" stroke="none" stroke-width="0" stroke-linecap="butt" stroke-linejoin="miter" stroke-miterlimit="10" stroke-dasharray="" stroke-dashoffset="0" style="mix-blend-mode: normal"><path d="M289.7644,159.77652c0.42463,0.18994 0.93682,0.2967 1.56915,0.29582c0.86656,-0.13191 2.48473,-0.26235 3.19516,-0.75438c0.3886,-0.26913 0.69432,-1.12218 1.21236,-1.25644c0.65389,-0.16947 2.07719,2.96391 2.58688,3.3883c0.58242,0.46999 3.7404,0.60545 5.06279,0.21958c0.62459,0.63855 1.0359,1.21165 1.52839,1.94286c0.30851,1.26746 0.34497,2.74712 0.30538,4.23486c-1.18078,1.35904 -6.69183,2.97283 -3.72208,5.18847c0.2268,0.11287 0.46452,0.20719 0.70813,0.27955c-1.88983,0.38322 -2.1974,3.20537 -3.23002,4.44475c-0.54898,0.6589 -1.35638,0.80504 -2.04022,1.25966c-2.5572,1.27613 -4.57142,1.35432 -7.17593,1.85v-0.04185c0.05798,-0.04968 0.13255,-0.14907 0.058,-0.29817c-0.01712,-0.03423 -0.03685,-0.0606 -0.058,-0.08072z" fill="#5f4b29"/><path d="M300.46329,173.65978c-1.71982,-1.8876 -4.34671,-6.47458 -2.39387,-8.61794c1.95284,-2.14336 1.04925,2.46728 2.87265,4.46856c0.24082,0.26431 0.50509,0.48533 0.77792,0.67482c-1.09805,0.83399 -1.66465,1.77072 -0.21755,2.85037c0.2268,0.11287 0.46452,0.20719 0.70813,0.27955c-0.54314,0.11014 -0.95559,0.42173 -1.29211,0.83931c-0.1361,-0.14478 -0.28656,-0.30962 -0.45516,-0.49467z" fill="#a4a097"/></g></g></svg>