<svg version="1.1" xmlns="http://www.w3.org/2000/svg" xmlns:xlink="http://www.w3.org/1999/xlink" width="231.84782" height="48.58695" viewBox="0,0,231.84782,48.58695"><g transform="translate(-221.17949,-155.14836)"><g data-paper-data="{&quot;isPaintingLayer&quot;:true}" fill-rule="nonzero" stroke-linecap="butt" stroke-linejoin="miter" stroke-miterlimit="10" stroke-dasharray="" stroke-dashoffset="0" style="mix-blend-mode: normal"><path d="M225.6324,202.55778c-2.20914,0 -4,-1.79086 -4,-4v-38.73913c0,-2.20914 1.79086,-4 4,-4h222.21739c2.20914,0 4,1.79086 4,4v38.73913c0,2.20914 -1.79086,4 -4,4z" fill-opacity="0.2" fill="#595959" stroke="none" stroke-width="0"/><path d="M226.4295,202.26792c-2.20914,0 -4,-1.79086 -4,-4v-37.86956c0,-2.20914 1.79086,-4 4,-4h37.86956c2.20914,0 4,1.79086 4,4v37.86956c0,2.20914 -1.79086,4 -4,4z" fill="none" stroke="#ffffff" stroke-width="2.5"/><path d="M272.29906,202.48531c-2.20914,0 -4,-1.79086 -4,-4v-37.86956c0,-2.20914 1.79086,-4 4,-4h37.86957c2.20914,0 4,1.79086 4,4v37.86956c0,2.20914 -1.79086,4 -4,4z" fill="none" stroke="#ffffff" stroke-width="2.5"/><path d="M318.16863,202.48531c-2.20914,0 -4,-1.79086 -4,-4v-37.86956c0,-2.20914 1.79086,-4 4,-4h37.86956c2.20914,0 4,1.79086 4,4v37.86956c0,2.20914 -1.79086,4 -4,4z" fill="none" stroke="#ffffff" stroke-width="2.5"/><path d="M364.25558,202.48531c-2.20914,0 -4,-1.79086 -4,-4v-37.86956c0,-2.20914 1.79086,-4 4,-4h37.86956c2.20914,0 4,1.79086 4,4v37.86956c0,2.20914 -1.79086,4 -4,4z" fill="none" stroke="#ffffff" stroke-width="2.5"/><path d="M409.90776,202.48531c-2.20914,0 -4,-1.79086 -4,-4v-37.86956c0,-2.20914 1.79086,-4 4,-4h37.86956c2.20914,0 4,1.79086 4,4v37.86956c0,2.20914 -1.79086,4 -4,4z" fill="none" stroke="#ffffff" stroke-width="2.5"/></g></g></svg>