<svg version="1.1" xmlns="http://www.w3.org/2000/svg" xmlns:xlink="http://www.w3.org/1999/xlink" width="47.36956" height="47.36956" viewBox="0,0,47.36956,47.36956"><g transform="translate(-296.31522,-156.31522)"><g data-paper-data="{&quot;isPaintingLayer&quot;:true}" fill-rule="nonzero" stroke-linecap="butt" stroke-linejoin="miter" stroke-miterlimit="10" stroke-dasharray="" stroke-dashoffset="0" style="mix-blend-mode: normal"><path d="M301.06522,202.93478c-2.20914,0 -4,-1.79086 -4,-4v-37.86956c0,-2.20914 1.79086,-4 4,-4h37.86956c2.20914,0 4,1.79086 4,4v37.86956c0,2.20914 -1.79086,4 -4,4z" fill-opacity="0.12941" fill="#eaeaea" stroke-opacity="0.55686" stroke="#ffffff" stroke-width="1.5"/><path d="M322.63732,172.26928c-0.39085,0.1851 -1.03278,-0.35129 -1.43379,-1.19806l-0.5587,-1.17972c-0.40102,-0.84677 -0.40926,-1.68326 -0.01842,-1.86836v0c0.39085,-0.1851 1.03278,0.35129 1.43379,1.19806l0.5587,1.17972c0.40102,0.84677 0.40926,1.68326 0.01842,1.86836z" fill="#4d4aff" stroke="none" stroke-width="0"/><path d="M314.466,188.11216l-0.43571,-0.92002l2.24254,-1.06203l0.43571,0.92002z" fill="#4d4aff" stroke="none" stroke-width="0"/><path d="M311.56133,192.80834l-0.11042,-7.69764l3.18084,-0.04563l0.11042,7.69764z" fill="#ff4747" stroke="none" stroke-width="0"/><path d="M307.01385,187.9103c-0.77805,0.36847 -1.73387,-0.01927 -2.13488,-0.86603l-0.34508,-0.72865c-0.40102,-0.84677 -0.09537,-1.83191 0.68267,-2.20039v0c0.77805,-0.36847 1.73386,0.01927 2.13488,0.86604l0.34508,0.72865c0.40102,0.84677 0.09538,1.83191 -0.68267,2.20038z" fill="#6c47ff" stroke="none" stroke-width="0"/><path d="M308.51278,180.79425c-0.84677,0.40102 -1.8583,0.03966 -2.25931,-0.80711l-1.92451,-4.06372c-0.40102,-0.84677 -0.03966,-1.8583 0.80711,-2.25931l13.3214,-6.30881c0.84677,-0.40102 1.8583,-0.03966 2.25931,0.80711l1.92451,4.06372c0.40102,0.84677 0.03966,1.8583 -0.80711,2.25931z" fill="#47dfff" stroke="none" stroke-width="0"/><path d="M309.85885,188.39329c-0.84677,0.40102 -1.8583,0.03966 -2.25931,-0.80711l-1.76112,-3.71871c-0.40102,-0.84677 -0.03966,-1.8583 0.80711,-2.25931l21.71657,-10.28462c0.84677,-0.40102 1.8583,-0.03966 2.25931,0.80711l1.76112,3.71871c0.40102,0.84677 0.03966,1.8583 -0.80711,2.25931z" fill="#ff4747" stroke="none" stroke-width="0"/><path d="M325.27566,172.5501c0.05808,0.00269 0.12577,0.02924 0.16976,0.12213c0.09076,0.19165 -0.10089,0.28241 -0.10089,0.28241l-0.27923,-0.01525c-0.3144,-0.30801 -0.29911,-0.68112 -0.14344,-1.06257c-0.22526,0.24122 -0.48602,0.47149 -0.61907,0.67997c-0.01213,0.18365 0.10223,0.21034 0.25603,0.28624l0.03765,0.01119c0,0 0.1997,0.07134 0.12836,0.27104c-0.07134,0.1997 -0.27104,0.12836 -0.27104,0.12836l-0.0927,-0.03538c-0.3785,-0.20826 -0.4694,-0.34659 -0.46552,-0.77997c0.1922,-0.32853 0.94055,-0.88596 1.00452,-1.24301c0.03412,-0.19044 -0.41886,-0.45217 -0.47433,-0.51102c-0.19464,-0.2065 -0.43875,-1.22013 -0.81265,-1.14156c-0.37952,0.07976 -0.87226,0.63044 -1.1869,0.83867c0,0 -0.17689,0.11695 -0.29384,-0.05993c-0.11696,-0.17689 0.05993,-0.29384 0.05993,-0.29384c0.32402,-0.21402 0.93469,-0.86954 1.34593,-0.90234c0.85766,-0.06841 0.75975,0.82084 1.19376,1.26558c0.1861,0.19071 0.60757,0.42751 0.59538,0.78154c0.203,-0.29238 0.42048,-0.56803 0.55906,-0.79897c0.27399,-0.45658 0.57506,-0.88696 -0.08368,-1.13957c-0.6826,-0.34501 -1.68667,-1.49724 -2.49539,-1.21798c-0.57762,0.19946 -0.65685,1.47723 -1.11964,1.97668c0,0 -0.14423,0.15545 -0.29968,0.01121c-0.15545,-0.14423 -0.01121,-0.29968 -0.01121,-0.29968c0.58571,-0.63033 0.45565,-1.74937 1.28767,-2.08753c0.99526,-0.4045 1.99565,0.81878 2.81492,1.23174c1.55795,0.67922 -0.12672,2.06124 -0.48453,2.94384c-0.13745,0.33904 -0.41466,0.51714 -0.21923,0.75801z" fill="#71b3ff" stroke="none" stroke-width="0.5"/><path d="M332.1601,176.37689l-2.04944,-4.32751l2.0881,-0.98889l2.04944,4.32751z" fill="#4d4aff" stroke="none" stroke-width="0"/><path d="M333.59527,174.40047l-1.14654,-2.42098l2.23941,-1.06055l1.14654,2.42098z" fill="#3f3dd2" stroke="none" stroke-width="0"/><path d="M308.77443,184.2656l-1.18587,-2.50403l5.70363,-2.70115l1.18587,2.50403z" fill="#ff9898" stroke="#4d4aff" stroke-width="0.5"/><path d="M316.26271,180.73801l-1.18587,-2.50403l5.70363,-2.70115l1.18587,2.50403z" fill="#ff9898" stroke="#4d4aff" stroke-width="0.5"/><path d="M323.61187,177.27629l-1.18587,-2.50403l5.70363,-2.70115l1.18587,2.50403z" fill="#ff9898" stroke="#4d4aff" stroke-width="0.5"/><path d="M331.76305,176.29882c0.24935,0.69906 -0.44971,0.94841 -0.44971,0.94841l-0.46267,0.1646c-2.2694,0.89375 -4.51907,1.83399 -6.42076,3.37706c-1.42431,0.68412 -2.67566,1.1052 -4.16265,1.51393c-0.71567,0.19671 -0.5334,0.46983 -1.13732,0.87662c-0.07573,0.05101 -1.4995,0.72222 -1.68643,0.81072c-2.42053,1.14589 -4.91699,2.12264 -7.21422,3.52557c0,0 -0.63384,0.38615 -1.01998,-0.24769c-0.38615,-0.63384 0.24769,-1.01998 0.24769,-1.01998c2.34482,-1.42529 4.8837,-2.43045 7.35117,-3.59945c1.03772,-0.49164 1.97119,-1.42092 3.03369,-1.76791c1.31361,-0.429 2.49415,-0.74088 3.79356,-1.34567c1.94216,-1.61538 4.33433,-2.58108 6.67056,-3.50403l0.50867,-0.18187c0,0 0.69906,-0.24935 0.94841,0.44971z" fill-opacity="0.39608" fill="#8c2727" stroke="none" stroke-width="0.5"/><path d="M309.63623,180.4512l-3.66741,-7.74395l1.53024,-0.7247l3.66741,7.74395z" fill="#ffffff" stroke="none" stroke-width="0"/><path d="M319.30395,175.89146l-3.66741,-7.74395l1.53024,-0.7247l3.66741,7.74395z" fill="#ffffff" stroke="none" stroke-width="0"/></g></g></svg>